G04*
G04 #@! TF.GenerationSoftware,Altium Limited,Altium Designer,20.0.13 (296)*
G04*
G04 Layer_Physical_Order=2*
G04 Layer_Color=16711680*
%FSLAX25Y25*%
%MOIN*%
G70*
G01*
G75*
%ADD10C,0.01000*%
%ADD15C,0.02000*%
%ADD17C,0.03000*%
%ADD45C,0.03937*%
%ADD51R,0.62992X0.35100*%
%ADD84O,0.03150X0.02441*%
%ADD85O,0.09843X0.03937*%
%ADD86O,0.07087X0.03937*%
%ADD87O,0.19685X0.05906*%
%ADD88R,0.05906X0.05906*%
%ADD89C,0.05906*%
%ADD90R,0.05906X0.05906*%
%ADD91C,0.05906*%
%ADD92C,0.07874*%
%ADD93C,0.05512*%
%ADD94C,0.06000*%
%ADD95C,0.01968*%
G36*
X526868Y431329D02*
X528997Y430905D01*
X531074Y430275D01*
X533079Y429445D01*
X534994Y428421D01*
X536798Y427215D01*
X538477Y425838D01*
X540011Y424303D01*
X541389Y422625D01*
X542594Y420821D01*
X543618Y418906D01*
X544448Y416901D01*
X545079Y414823D01*
X545502Y412695D01*
X545715Y410534D01*
Y409449D01*
Y23622D01*
Y22537D01*
X545502Y20376D01*
X545079Y18247D01*
X544448Y16170D01*
X543618Y14165D01*
X542594Y12250D01*
X541389Y10446D01*
X540011Y8768D01*
X538477Y7233D01*
X536798Y5855D01*
X534994Y4650D01*
X533079Y3626D01*
X531074Y2796D01*
X528997Y2166D01*
X526868Y1742D01*
X524707Y1529D01*
X523622D01*
X-15748Y1529D01*
X-16833D01*
X-18994Y1742D01*
X-21123Y2166D01*
X-23200Y2796D01*
X-25205Y3626D01*
X-27120Y4650D01*
X-28925Y5856D01*
X-30602Y7233D01*
X-32137Y8768D01*
X-33514Y10446D01*
X-34720Y12250D01*
X-35744Y14165D01*
X-36574Y16170D01*
X-37205Y18248D01*
X-37628Y20376D01*
X-37841Y22537D01*
Y23622D01*
X-37841Y125984D01*
X-37848Y126022D01*
X-37843Y126059D01*
X-37881Y126831D01*
X-37908Y126941D01*
Y127054D01*
X-38209Y128568D01*
X-38267Y128708D01*
X-38296Y128855D01*
X-38887Y130281D01*
X-38971Y130406D01*
X-39028Y130546D01*
X-39886Y131829D01*
X-39992Y131936D01*
X-40076Y132061D01*
X-41167Y133152D01*
X-41293Y133236D01*
X-41399Y133343D01*
X-42683Y134200D01*
X-42822Y134258D01*
X-42947Y134341D01*
X-44373Y134932D01*
X-44521Y134961D01*
X-44660Y135019D01*
X-46174Y135320D01*
X-46287D01*
X-46397Y135348D01*
X-47169Y135386D01*
X-47207Y135380D01*
X-47244Y135388D01*
X-55118D01*
X-55743Y135388D01*
X-56969Y135631D01*
X-58123Y136110D01*
X-59163Y136804D01*
X-60046Y137688D01*
X-60741Y138727D01*
X-61219Y139882D01*
X-61463Y141107D01*
X-61463Y141732D01*
X-61463Y304252D01*
X-61463Y304877D01*
X-61219Y306103D01*
X-60741Y307257D01*
X-60046Y308296D01*
X-59163Y309180D01*
X-58123Y309875D01*
X-56969Y310353D01*
X-55743Y310597D01*
X-47244Y310597D01*
X-47207Y310604D01*
X-47169Y310598D01*
X-46397Y310636D01*
X-46287Y310664D01*
X-46174D01*
X-44660Y310965D01*
X-44521Y311023D01*
X-44373Y311052D01*
X-42947Y311643D01*
X-42822Y311726D01*
X-42683Y311784D01*
X-41399Y312642D01*
X-41293Y312748D01*
X-41167Y312832D01*
X-40076Y313923D01*
X-39992Y314049D01*
X-39886Y314155D01*
X-39028Y315439D01*
X-38971Y315578D01*
X-38887Y315703D01*
X-38296Y317129D01*
X-38267Y317277D01*
X-38209Y317416D01*
X-37908Y318930D01*
Y319043D01*
X-37881Y319153D01*
X-37843Y319925D01*
X-37848Y319963D01*
X-37841Y320000D01*
X-37841Y409449D01*
Y410534D01*
X-37628Y412695D01*
X-37205Y414823D01*
X-36574Y416901D01*
X-35744Y418906D01*
X-34720Y420821D01*
X-33514Y422625D01*
X-32137Y424303D01*
X-30602Y425838D01*
X-28925Y427215D01*
X-27120Y428421D01*
X-25205Y429445D01*
X-23200Y430275D01*
X-21123Y430905D01*
X-18994Y431329D01*
X-16833Y431541D01*
X524707D01*
X526868Y431329D01*
D02*
G37*
%LPC*%
G36*
X162795Y423376D02*
X148228D01*
X147224Y423244D01*
X146289Y422856D01*
X145485Y422239D01*
X144869Y421436D01*
X144481Y420500D01*
X144349Y419496D01*
X144481Y418492D01*
X144869Y417556D01*
X145485Y416753D01*
X146289Y416136D01*
X147224Y415749D01*
X148228Y415616D01*
X162795D01*
X163799Y415749D01*
X164735Y416136D01*
X165539Y416753D01*
X166155Y417556D01*
X166543Y418492D01*
X166675Y419496D01*
X166543Y420500D01*
X166155Y421436D01*
X165539Y422239D01*
X164735Y422856D01*
X163799Y423244D01*
X162795Y423376D01*
D02*
G37*
G36*
X44685D02*
X30118D01*
X29114Y423244D01*
X28178Y422856D01*
X27375Y422239D01*
X26758Y421436D01*
X26371Y420500D01*
X26239Y419496D01*
X26371Y418492D01*
X26758Y417556D01*
X27375Y416753D01*
X28178Y416136D01*
X29114Y415749D01*
X30118Y415616D01*
X44685D01*
X45689Y415749D01*
X46625Y416136D01*
X47428Y416753D01*
X48045Y417556D01*
X48432Y418492D01*
X48565Y419496D01*
X48432Y420500D01*
X48045Y421436D01*
X47428Y422239D01*
X46625Y422856D01*
X45689Y423244D01*
X44685Y423376D01*
D02*
G37*
G36*
X27559Y409483D02*
X26645Y409363D01*
X25794Y409010D01*
X25063Y408449D01*
X24502Y407718D01*
X24149Y406866D01*
X24029Y405953D01*
X24149Y405039D01*
X24502Y404188D01*
X25063Y403456D01*
X25794Y402895D01*
X26645Y402543D01*
X27559Y402423D01*
X28473Y402543D01*
X29324Y402895D01*
X30055Y403456D01*
X30616Y404188D01*
X30969Y405039D01*
X31089Y405953D01*
X30969Y406866D01*
X30616Y407718D01*
X30055Y408449D01*
X29324Y409010D01*
X28473Y409363D01*
X27559Y409483D01*
D02*
G37*
G36*
X436599Y408509D02*
X436020Y408394D01*
X435529Y408066D01*
X435201Y407575D01*
X435086Y406996D01*
X435201Y406417D01*
X435485Y405992D01*
X435493Y405968D01*
X435496Y405951D01*
X435501Y405944D01*
X435504Y405935D01*
X435513Y405925D01*
X435519Y405910D01*
X435528Y405881D01*
X435537Y405839D01*
X435544Y405792D01*
X435557Y405638D01*
X435558Y405548D01*
X435580Y405499D01*
Y399301D01*
X435558Y399254D01*
X435552Y399066D01*
X435545Y399007D01*
X435537Y398953D01*
X435528Y398911D01*
X435519Y398882D01*
X435513Y398867D01*
X435504Y398857D01*
X435501Y398848D01*
X435496Y398841D01*
X435493Y398824D01*
X435485Y398800D01*
X435201Y398375D01*
X435086Y397796D01*
X435201Y397217D01*
X435529Y396726D01*
X436020Y396398D01*
X436599Y396283D01*
X437178Y396398D01*
X437669Y396726D01*
X437997Y397217D01*
X438112Y397796D01*
X437997Y398375D01*
X437714Y398800D01*
X437705Y398824D01*
X437702Y398841D01*
X437697Y398848D01*
X437694Y398857D01*
X437685Y398867D01*
X437679Y398882D01*
X437671Y398911D01*
X437662Y398953D01*
X437654Y399000D01*
X437642Y399154D01*
X437640Y399244D01*
X437619Y399293D01*
Y405491D01*
X437640Y405538D01*
X437647Y405725D01*
X437653Y405785D01*
X437662Y405839D01*
X437671Y405881D01*
X437679Y405910D01*
X437685Y405925D01*
X437694Y405935D01*
X437697Y405944D01*
X437702Y405951D01*
X437705Y405968D01*
X437714Y405992D01*
X437997Y406417D01*
X438112Y406996D01*
X437997Y407575D01*
X437669Y408066D01*
X437178Y408394D01*
X436599Y408509D01*
D02*
G37*
G36*
X448599Y408709D02*
X448020Y408594D01*
X447529Y408266D01*
X447201Y407775D01*
X447086Y407196D01*
X447201Y406617D01*
X447485Y406192D01*
X447493Y406168D01*
X447496Y406151D01*
X447501Y406144D01*
X447504Y406135D01*
X447513Y406125D01*
X447519Y406110D01*
X447528Y406081D01*
X447537Y406039D01*
X447544Y405992D01*
X447556Y405838D01*
X447558Y405748D01*
X447580Y405699D01*
Y398701D01*
X447558Y398654D01*
X447551Y398466D01*
X447545Y398407D01*
X447537Y398353D01*
X447528Y398311D01*
X447519Y398282D01*
X447513Y398267D01*
X447504Y398257D01*
X447501Y398248D01*
X447496Y398241D01*
X447493Y398224D01*
X447485Y398200D01*
X447201Y397775D01*
X447086Y397196D01*
X447201Y396617D01*
X447529Y396126D01*
X448020Y395798D01*
X448599Y395683D01*
X449178Y395798D01*
X449669Y396126D01*
X449997Y396617D01*
X450112Y397196D01*
X449997Y397775D01*
X449714Y398200D01*
X449705Y398224D01*
X449702Y398241D01*
X449697Y398248D01*
X449694Y398257D01*
X449685Y398267D01*
X449679Y398282D01*
X449671Y398311D01*
X449661Y398353D01*
X449654Y398400D01*
X449642Y398554D01*
X449640Y398644D01*
X449619Y398693D01*
Y405691D01*
X449640Y405738D01*
X449647Y405925D01*
X449653Y405985D01*
X449661Y406039D01*
X449671Y406081D01*
X449679Y406110D01*
X449685Y406125D01*
X449694Y406135D01*
X449697Y406144D01*
X449702Y406151D01*
X449705Y406168D01*
X449714Y406192D01*
X449997Y406617D01*
X450112Y407196D01*
X449997Y407775D01*
X449669Y408266D01*
X449178Y408594D01*
X448599Y408709D01*
D02*
G37*
G36*
X365542Y409109D02*
X364963Y408994D01*
X364472Y408666D01*
X364144Y408175D01*
X364028Y407596D01*
X364144Y407017D01*
X364472Y406526D01*
X364963Y406198D01*
X365463Y406098D01*
X365486Y406087D01*
X365501Y406077D01*
X365509Y406076D01*
X365518Y406072D01*
X365531Y406071D01*
X365546Y406064D01*
X365572Y406050D01*
X365609Y406027D01*
X365648Y405998D01*
X365765Y405898D01*
X365829Y405836D01*
X365880Y405816D01*
X369822Y401874D01*
Y398501D01*
X369801Y398454D01*
X369794Y398267D01*
X369788Y398207D01*
X369779Y398153D01*
X369770Y398111D01*
X369761Y398082D01*
X369756Y398067D01*
X369747Y398057D01*
X369744Y398048D01*
X369739Y398041D01*
X369736Y398024D01*
X369727Y398000D01*
X369444Y397575D01*
X369328Y396996D01*
X369444Y396417D01*
X369772Y395926D01*
X370263Y395598D01*
X370842Y395483D01*
X371421Y395598D01*
X371912Y395926D01*
X372240Y396417D01*
X372355Y396996D01*
X372240Y397575D01*
X371956Y398000D01*
X371948Y398024D01*
X371944Y398041D01*
X371939Y398048D01*
X371936Y398057D01*
X371928Y398067D01*
X371922Y398082D01*
X371913Y398111D01*
X371904Y398153D01*
X371897Y398200D01*
X371884Y398354D01*
X371883Y398444D01*
X371861Y398493D01*
Y402296D01*
X371784Y402686D01*
X371563Y403017D01*
X367327Y407253D01*
X367309Y407301D01*
X367181Y407439D01*
X367143Y407485D01*
X367111Y407529D01*
X367088Y407565D01*
X367073Y407592D01*
X367067Y407607D01*
X367066Y407620D01*
X367062Y407628D01*
X367060Y407637D01*
X367051Y407652D01*
X367039Y407674D01*
X366940Y408175D01*
X366612Y408666D01*
X366121Y408994D01*
X365542Y409109D01*
D02*
G37*
G36*
X27559Y399483D02*
X26645Y399363D01*
X25794Y399010D01*
X25063Y398449D01*
X24502Y397718D01*
X24149Y396866D01*
X24029Y395953D01*
X24149Y395039D01*
X24502Y394188D01*
X25063Y393457D01*
X25794Y392896D01*
X26645Y392543D01*
X27559Y392423D01*
X28473Y392543D01*
X29324Y392896D01*
X30055Y393457D01*
X30616Y394188D01*
X30969Y395039D01*
X31089Y395953D01*
X30969Y396866D01*
X30616Y397718D01*
X30055Y398449D01*
X29324Y399010D01*
X28473Y399363D01*
X27559Y399483D01*
D02*
G37*
G36*
Y389483D02*
X26645Y389363D01*
X25794Y389010D01*
X25063Y388449D01*
X24502Y387718D01*
X24149Y386866D01*
X24029Y385953D01*
X24149Y385039D01*
X24502Y384188D01*
X25063Y383456D01*
X25794Y382895D01*
X26645Y382543D01*
X27559Y382423D01*
X28473Y382543D01*
X29324Y382895D01*
X30055Y383456D01*
X30616Y384188D01*
X30969Y385039D01*
X31089Y385953D01*
X30969Y386866D01*
X30616Y387718D01*
X30055Y388449D01*
X29324Y389010D01*
X28473Y389363D01*
X27559Y389483D01*
D02*
G37*
G36*
X330342Y418709D02*
X329763Y418594D01*
X329272Y418266D01*
X328944Y417775D01*
X328828Y417196D01*
X328944Y416617D01*
X329225Y416196D01*
X329234Y416170D01*
X329237Y416153D01*
X329242Y416146D01*
X329245Y416137D01*
X329254Y416127D01*
X329260Y416112D01*
X329269Y416082D01*
X329278Y416041D01*
X329285Y415993D01*
X329297Y415839D01*
X329299Y415749D01*
X329320Y415700D01*
Y400705D01*
X329299Y400659D01*
X329292Y400471D01*
X329286Y400411D01*
X329278Y400358D01*
X329268Y400316D01*
X329260Y400287D01*
X329254Y400272D01*
X329245Y400262D01*
X329242Y400253D01*
X329237Y400246D01*
X329234Y400229D01*
X329226Y400207D01*
X328940Y399779D01*
X328825Y399200D01*
X328940Y398620D01*
X329268Y398129D01*
X329759Y397801D01*
X330260Y397702D01*
X330283Y397691D01*
X330297Y397681D01*
X330306Y397679D01*
X330314Y397675D01*
X330327Y397674D01*
X330342Y397668D01*
X330369Y397653D01*
X330405Y397630D01*
X330444Y397602D01*
X330561Y397502D01*
X330626Y397440D01*
X330676Y397420D01*
X331322Y396774D01*
Y393018D01*
X329467Y391163D01*
X329246Y390833D01*
X329169Y390442D01*
Y380854D01*
X329147Y380808D01*
X329140Y380620D01*
X329134Y380560D01*
X329126Y380506D01*
X329117Y380464D01*
X329108Y380435D01*
X329102Y380420D01*
X329093Y380411D01*
X329090Y380402D01*
X329085Y380394D01*
X329082Y380377D01*
X329074Y380353D01*
X328790Y379929D01*
X328675Y379349D01*
X328790Y378770D01*
X329118Y378279D01*
X329609Y377951D01*
X330188Y377836D01*
X330767Y377951D01*
X331258Y378279D01*
X331586Y378770D01*
X331701Y379349D01*
X331586Y379929D01*
X331303Y380353D01*
X331294Y380377D01*
X331291Y380394D01*
X331286Y380402D01*
X331283Y380411D01*
X331274Y380420D01*
X331268Y380435D01*
X331260Y380464D01*
X331251Y380506D01*
X331243Y380554D01*
X331231Y380708D01*
X331229Y380798D01*
X331208Y380847D01*
Y390020D01*
X333063Y391875D01*
X333284Y392206D01*
X333361Y392596D01*
Y397196D01*
X333284Y397586D01*
X333063Y397917D01*
X332123Y398857D01*
X332105Y398904D01*
X331977Y399042D01*
X331940Y399089D01*
X331907Y399133D01*
X331884Y399169D01*
X331870Y399196D01*
X331863Y399210D01*
X331862Y399223D01*
X331858Y399232D01*
X331857Y399241D01*
X331847Y399255D01*
X331836Y399278D01*
X331736Y399779D01*
X331455Y400200D01*
X331446Y400225D01*
X331443Y400242D01*
X331438Y400250D01*
X331435Y400258D01*
X331426Y400269D01*
X331420Y400284D01*
X331412Y400313D01*
X331402Y400355D01*
X331395Y400403D01*
X331383Y400557D01*
X331381Y400646D01*
X331360Y400696D01*
Y415690D01*
X331381Y415737D01*
X331388Y415924D01*
X331394Y415984D01*
X331402Y416038D01*
X331412Y416080D01*
X331420Y416109D01*
X331426Y416123D01*
X331435Y416133D01*
X331438Y416142D01*
X331443Y416149D01*
X331446Y416166D01*
X331454Y416189D01*
X331740Y416617D01*
X331855Y417196D01*
X331740Y417775D01*
X331412Y418266D01*
X330921Y418594D01*
X330342Y418709D01*
D02*
G37*
G36*
X28059Y379922D02*
Y376453D01*
X31528D01*
X31456Y376997D01*
X31053Y377970D01*
X30412Y378806D01*
X29576Y379447D01*
X28603Y379850D01*
X28059Y379922D01*
D02*
G37*
G36*
X27059D02*
X26515Y379850D01*
X25542Y379447D01*
X24706Y378806D01*
X24065Y377970D01*
X23662Y376997D01*
X23590Y376453D01*
X27059D01*
Y379922D01*
D02*
G37*
G36*
X419642Y381509D02*
X419063Y381394D01*
X418572Y381066D01*
X418244Y380575D01*
X418128Y379996D01*
X418132Y379979D01*
X418124Y379966D01*
X418122Y379955D01*
X418118Y379946D01*
X418118Y379937D01*
X418115Y379928D01*
X418102Y379904D01*
X418082Y379871D01*
X418055Y379834D01*
X417958Y379718D01*
X417897Y379655D01*
X417893Y379644D01*
X417882Y379640D01*
X417867Y379594D01*
X413960Y375687D01*
X413909Y375667D01*
X413844Y375604D01*
X413724Y375501D01*
X413683Y375470D01*
X413645Y375445D01*
X413616Y375428D01*
X413597Y375419D01*
X413595Y375418D01*
X413580Y375417D01*
X413572Y375412D01*
X413564Y375411D01*
X413551Y375401D01*
X413501Y375373D01*
X413099Y375293D01*
X412608Y374965D01*
X412280Y374474D01*
X412165Y373895D01*
X412280Y373316D01*
X412608Y372825D01*
X413099Y372497D01*
X413678Y372382D01*
X414257Y372497D01*
X414748Y372825D01*
X415076Y373316D01*
X415191Y373895D01*
X415188Y373912D01*
X415196Y373925D01*
X415198Y373936D01*
X415202Y373945D01*
X415202Y373955D01*
X415205Y373963D01*
X415217Y373987D01*
X415238Y374021D01*
X415265Y374058D01*
X415362Y374173D01*
X415423Y374236D01*
X415427Y374247D01*
X415437Y374252D01*
X415453Y374297D01*
X419360Y378204D01*
X419410Y378224D01*
X419476Y378287D01*
X419595Y378391D01*
X419636Y378421D01*
X419675Y378447D01*
X419704Y378463D01*
X419723Y378472D01*
X419725Y378473D01*
X419740Y378475D01*
X419747Y378479D01*
X419755Y378481D01*
X419768Y378490D01*
X419818Y378518D01*
X420221Y378598D01*
X420712Y378926D01*
X421040Y379417D01*
X421155Y379996D01*
X421040Y380575D01*
X420712Y381066D01*
X420221Y381394D01*
X419642Y381509D01*
D02*
G37*
G36*
X31528Y375453D02*
X28059D01*
Y371984D01*
X28603Y372056D01*
X29576Y372459D01*
X30412Y373100D01*
X31053Y373936D01*
X31456Y374909D01*
X31528Y375453D01*
D02*
G37*
G36*
X27059D02*
X23590D01*
X23662Y374909D01*
X24065Y373936D01*
X24706Y373100D01*
X25542Y372459D01*
X26515Y372056D01*
X27059Y371984D01*
Y375453D01*
D02*
G37*
G36*
X391598Y377479D02*
X390697Y377360D01*
X389857Y377012D01*
X389136Y376459D01*
X388582Y375737D01*
X388234Y374897D01*
X388116Y373996D01*
X388234Y373095D01*
X388582Y372255D01*
X389136Y371533D01*
X389857Y370980D01*
X390697Y370632D01*
X391598Y370514D01*
X392500Y370632D01*
X393340Y370980D01*
X394061Y371533D01*
X394614Y372255D01*
X394962Y373095D01*
X395081Y373996D01*
X394962Y374897D01*
X394614Y375737D01*
X394061Y376459D01*
X393340Y377012D01*
X392500Y377360D01*
X391598Y377479D01*
D02*
G37*
G36*
X381598D02*
X380697Y377360D01*
X379857Y377012D01*
X379136Y376459D01*
X378583Y375737D01*
X378235Y374897D01*
X378116Y373996D01*
X378235Y373095D01*
X378583Y372255D01*
X379136Y371533D01*
X379857Y370980D01*
X380697Y370632D01*
X381598Y370514D01*
X382500Y370632D01*
X383340Y370980D01*
X384061Y371533D01*
X384614Y372255D01*
X384962Y373095D01*
X385081Y373996D01*
X384962Y374897D01*
X384614Y375737D01*
X384061Y376459D01*
X383340Y377012D01*
X382500Y377360D01*
X381598Y377479D01*
D02*
G37*
G36*
X144844Y412039D02*
X144064Y411882D01*
X143403Y411438D01*
X142963Y410776D01*
X142809Y409995D01*
X142827Y401991D01*
X142867Y383991D01*
X142903Y383815D01*
Y372058D01*
X143058Y371278D01*
X143500Y370616D01*
X143558Y370558D01*
X144220Y370116D01*
X145000Y369961D01*
X145780Y370116D01*
X146442Y370558D01*
X146884Y371220D01*
X147039Y372000D01*
X146981Y372293D01*
Y383996D01*
X146945Y384176D01*
X146905Y402000D01*
X146887Y410004D01*
X146730Y410784D01*
X146287Y411445D01*
X145624Y411885D01*
X144844Y412039D01*
D02*
G37*
G36*
X391598Y367478D02*
X390697Y367360D01*
X389857Y367012D01*
X389136Y366459D01*
X388582Y365737D01*
X388234Y364897D01*
X388116Y363996D01*
X388234Y363095D01*
X388582Y362255D01*
X389136Y361533D01*
X389857Y360980D01*
X390697Y360632D01*
X391598Y360513D01*
X392500Y360632D01*
X393340Y360980D01*
X394061Y361533D01*
X394614Y362255D01*
X394962Y363095D01*
X395081Y363996D01*
X394962Y364897D01*
X394614Y365737D01*
X394061Y366459D01*
X393340Y367012D01*
X392500Y367360D01*
X391598Y367478D01*
D02*
G37*
G36*
X381598D02*
X380697Y367360D01*
X379857Y367012D01*
X379136Y366459D01*
X378583Y365737D01*
X378235Y364897D01*
X378116Y363996D01*
X378235Y363095D01*
X378583Y362255D01*
X379136Y361533D01*
X379857Y360980D01*
X380697Y360632D01*
X381598Y360513D01*
X382500Y360632D01*
X383340Y360980D01*
X384061Y361533D01*
X384614Y362255D01*
X384962Y363095D01*
X385081Y363996D01*
X384962Y364897D01*
X384614Y365737D01*
X384061Y366459D01*
X383340Y367012D01*
X382500Y367360D01*
X381598Y367478D01*
D02*
G37*
G36*
X356042Y362259D02*
X355463Y362144D01*
X354972Y361816D01*
X354644Y361325D01*
X354528Y360746D01*
X354644Y360167D01*
X354972Y359676D01*
X355463Y359348D01*
X356042Y359232D01*
X356621Y359348D01*
X357001Y359601D01*
X357043Y359615D01*
X357059Y359617D01*
X357066Y359622D01*
X357075Y359625D01*
X357086Y359634D01*
X357087Y359634D01*
X357104Y359641D01*
X357135Y359650D01*
X357179Y359659D01*
X357228Y359666D01*
X357384Y359678D01*
X357474Y359680D01*
X357524Y359701D01*
X358622D01*
X358669Y359680D01*
X358855Y359673D01*
X358914Y359667D01*
X358966Y359658D01*
X359007Y359649D01*
X359034Y359640D01*
X359046Y359636D01*
X359054Y359628D01*
X359063Y359625D01*
X359071Y359619D01*
X359088Y359615D01*
X359370Y359427D01*
Y358865D01*
X359138Y358710D01*
X359114Y358702D01*
X359097Y358699D01*
X359090Y358694D01*
X359081Y358691D01*
X359071Y358682D01*
X359056Y358676D01*
X359027Y358667D01*
X358985Y358658D01*
X358937Y358651D01*
X358784Y358639D01*
X358694Y358637D01*
X358644Y358616D01*
X355046D01*
X355000Y358637D01*
X354812Y358644D01*
X354752Y358650D01*
X354699Y358658D01*
X354657Y358668D01*
X354627Y358676D01*
X354613Y358682D01*
X354603Y358691D01*
X354594Y358694D01*
X354586Y358699D01*
X354569Y358702D01*
X354545Y358710D01*
X354121Y358994D01*
X353542Y359109D01*
X352963Y358994D01*
X352472Y358666D01*
X352144Y358175D01*
X352028Y357596D01*
X352144Y357017D01*
X352472Y356526D01*
X352963Y356198D01*
X353542Y356083D01*
X354121Y356198D01*
X354545Y356482D01*
X354569Y356490D01*
X354586Y356493D01*
X354594Y356498D01*
X354603Y356501D01*
X354613Y356510D01*
X354628Y356516D01*
X354657Y356524D01*
X354699Y356534D01*
X354746Y356541D01*
X354900Y356553D01*
X354990Y356555D01*
X355039Y356576D01*
X358637D01*
X358683Y356555D01*
X358871Y356548D01*
X358931Y356542D01*
X358985Y356534D01*
X359027Y356524D01*
X359056Y356516D01*
X359071Y356510D01*
X359081Y356501D01*
X359090Y356498D01*
X359097Y356493D01*
X359114Y356490D01*
X359138Y356482D01*
X359563Y356198D01*
X360142Y356083D01*
X360721Y356198D01*
X361212Y356526D01*
X361540Y357017D01*
X361655Y357596D01*
X361540Y358175D01*
X361212Y358666D01*
X360914Y358865D01*
Y359427D01*
X361212Y359626D01*
X361540Y360117D01*
X361655Y360696D01*
X361540Y361275D01*
X361212Y361766D01*
X360721Y362094D01*
X360142Y362209D01*
X359563Y362094D01*
X359183Y361840D01*
X359140Y361827D01*
X359124Y361824D01*
X359117Y361820D01*
X359108Y361817D01*
X359097Y361808D01*
X359097Y361807D01*
X359079Y361801D01*
X359048Y361792D01*
X359005Y361783D01*
X358955Y361775D01*
X358800Y361764D01*
X358709Y361762D01*
X358660Y361740D01*
X357561D01*
X357515Y361762D01*
X357328Y361769D01*
X357270Y361775D01*
X357217Y361784D01*
X357177Y361793D01*
X357150Y361801D01*
X357138Y361806D01*
X357130Y361814D01*
X357121Y361817D01*
X357112Y361823D01*
X357096Y361826D01*
X356621Y362144D01*
X356042Y362259D01*
D02*
G37*
G36*
X162795Y366289D02*
X148228D01*
X147224Y366157D01*
X146289Y365769D01*
X145485Y365153D01*
X144869Y364349D01*
X144481Y363414D01*
X144349Y362409D01*
X144481Y361405D01*
X144869Y360470D01*
X145485Y359666D01*
X146289Y359050D01*
X147224Y358662D01*
X148228Y358530D01*
X162795D01*
X163799Y358662D01*
X164735Y359050D01*
X165539Y359666D01*
X166155Y360470D01*
X166543Y361405D01*
X166675Y362409D01*
X166543Y363414D01*
X166155Y364349D01*
X165539Y365153D01*
X164735Y365769D01*
X163799Y366157D01*
X162795Y366289D01*
D02*
G37*
G36*
X44685D02*
X30118D01*
X29114Y366157D01*
X28178Y365769D01*
X27375Y365153D01*
X26758Y364349D01*
X26371Y363414D01*
X26239Y362409D01*
X26371Y361405D01*
X26758Y360470D01*
X27375Y359666D01*
X28178Y359050D01*
X29114Y358662D01*
X30118Y358530D01*
X44685D01*
X45689Y358662D01*
X46625Y359050D01*
X47428Y359666D01*
X48045Y360470D01*
X48432Y361405D01*
X48565Y362409D01*
X48432Y363414D01*
X48045Y364349D01*
X47428Y365153D01*
X46625Y365769D01*
X45689Y366157D01*
X44685Y366289D01*
D02*
G37*
G36*
X391598Y357478D02*
X390697Y357360D01*
X389857Y357012D01*
X389136Y356458D01*
X388582Y355737D01*
X388234Y354897D01*
X388116Y353996D01*
X388234Y353095D01*
X388582Y352255D01*
X389136Y351534D01*
X389857Y350980D01*
X390697Y350632D01*
X391598Y350514D01*
X392500Y350632D01*
X393340Y350980D01*
X394061Y351534D01*
X394614Y352255D01*
X394962Y353095D01*
X395081Y353996D01*
X394962Y354897D01*
X394614Y355737D01*
X394061Y356458D01*
X393340Y357012D01*
X392500Y357360D01*
X391598Y357478D01*
D02*
G37*
G36*
X381598D02*
X380697Y357360D01*
X379857Y357012D01*
X379136Y356458D01*
X378583Y355737D01*
X378235Y354897D01*
X378116Y353996D01*
X378235Y353095D01*
X378583Y352255D01*
X379136Y351534D01*
X379857Y350980D01*
X380697Y350632D01*
X381598Y350514D01*
X382500Y350632D01*
X383340Y350980D01*
X384061Y351534D01*
X384614Y352255D01*
X384962Y353095D01*
X385081Y353996D01*
X384962Y354897D01*
X384614Y355737D01*
X384061Y356458D01*
X383340Y357012D01*
X382500Y357360D01*
X381598Y357478D01*
D02*
G37*
G36*
X282894Y350953D02*
X275989D01*
Y344047D01*
X282894D01*
Y350953D01*
D02*
G37*
G36*
X115173D02*
X108268D01*
Y344047D01*
X115173D01*
Y350953D01*
D02*
G37*
G36*
X269442Y350982D02*
X268540Y350864D01*
X267701Y350516D01*
X266979Y349962D01*
X266426Y349241D01*
X266078Y348401D01*
X265959Y347500D01*
X266078Y346599D01*
X266426Y345759D01*
X266979Y345038D01*
X267701Y344484D01*
X268540Y344136D01*
X269442Y344018D01*
X270343Y344136D01*
X271183Y344484D01*
X271904Y345038D01*
X272458Y345759D01*
X272806Y346599D01*
X272924Y347500D01*
X272806Y348401D01*
X272458Y349241D01*
X271904Y349962D01*
X271183Y350516D01*
X270343Y350864D01*
X269442Y350982D01*
D02*
G37*
G36*
X259442D02*
X258540Y350864D01*
X257700Y350516D01*
X256979Y349962D01*
X256426Y349241D01*
X256078Y348401D01*
X255959Y347500D01*
X256078Y346599D01*
X256426Y345759D01*
X256979Y345038D01*
X257700Y344484D01*
X258540Y344136D01*
X259442Y344018D01*
X260343Y344136D01*
X261183Y344484D01*
X261904Y345038D01*
X262458Y345759D01*
X262806Y346599D01*
X262924Y347500D01*
X262806Y348401D01*
X262458Y349241D01*
X261904Y349962D01*
X261183Y350516D01*
X260343Y350864D01*
X259442Y350982D01*
D02*
G37*
G36*
X249442D02*
X248540Y350864D01*
X247701Y350516D01*
X246979Y349962D01*
X246426Y349241D01*
X246078Y348401D01*
X245959Y347500D01*
X246078Y346599D01*
X246426Y345759D01*
X246979Y345038D01*
X247701Y344484D01*
X248540Y344136D01*
X249442Y344018D01*
X250343Y344136D01*
X251183Y344484D01*
X251904Y345038D01*
X252458Y345759D01*
X252806Y346599D01*
X252924Y347500D01*
X252806Y348401D01*
X252458Y349241D01*
X251904Y349962D01*
X251183Y350516D01*
X250343Y350864D01*
X249442Y350982D01*
D02*
G37*
G36*
X239442D02*
X238540Y350864D01*
X237701Y350516D01*
X236979Y349962D01*
X236426Y349241D01*
X236078Y348401D01*
X235959Y347500D01*
X236078Y346599D01*
X236426Y345759D01*
X236979Y345038D01*
X237701Y344484D01*
X238540Y344136D01*
X239442Y344018D01*
X240343Y344136D01*
X241183Y344484D01*
X241904Y345038D01*
X242458Y345759D01*
X242806Y346599D01*
X242924Y347500D01*
X242806Y348401D01*
X242458Y349241D01*
X241904Y349962D01*
X241183Y350516D01*
X240343Y350864D01*
X239442Y350982D01*
D02*
G37*
G36*
X229442D02*
X228540Y350864D01*
X227700Y350516D01*
X226979Y349962D01*
X226426Y349241D01*
X226078Y348401D01*
X225959Y347500D01*
X226078Y346599D01*
X226426Y345759D01*
X226979Y345038D01*
X227700Y344484D01*
X228540Y344136D01*
X229442Y344018D01*
X230343Y344136D01*
X231183Y344484D01*
X231904Y345038D01*
X232458Y345759D01*
X232806Y346599D01*
X232924Y347500D01*
X232806Y348401D01*
X232458Y349241D01*
X231904Y349962D01*
X231183Y350516D01*
X230343Y350864D01*
X229442Y350982D01*
D02*
G37*
G36*
X219442D02*
X218540Y350864D01*
X217701Y350516D01*
X216979Y349962D01*
X216426Y349241D01*
X216078Y348401D01*
X215959Y347500D01*
X216078Y346599D01*
X216426Y345759D01*
X216979Y345038D01*
X217701Y344484D01*
X218540Y344136D01*
X219442Y344018D01*
X220343Y344136D01*
X221183Y344484D01*
X221904Y345038D01*
X222458Y345759D01*
X222806Y346599D01*
X222924Y347500D01*
X222806Y348401D01*
X222458Y349241D01*
X221904Y349962D01*
X221183Y350516D01*
X220343Y350864D01*
X219442Y350982D01*
D02*
G37*
G36*
X209442D02*
X208540Y350864D01*
X207700Y350516D01*
X206979Y349962D01*
X206426Y349241D01*
X206078Y348401D01*
X205959Y347500D01*
X206078Y346599D01*
X206426Y345759D01*
X206979Y345038D01*
X207700Y344484D01*
X208540Y344136D01*
X209442Y344018D01*
X210343Y344136D01*
X211183Y344484D01*
X211904Y345038D01*
X212458Y345759D01*
X212806Y346599D01*
X212924Y347500D01*
X212806Y348401D01*
X212458Y349241D01*
X211904Y349962D01*
X211183Y350516D01*
X210343Y350864D01*
X209442Y350982D01*
D02*
G37*
G36*
X101721D02*
X100819Y350864D01*
X99980Y350516D01*
X99258Y349962D01*
X98705Y349241D01*
X98357Y348401D01*
X98238Y347500D01*
X98357Y346599D01*
X98705Y345759D01*
X99258Y345038D01*
X99980Y344484D01*
X100819Y344136D01*
X101721Y344018D01*
X102622Y344136D01*
X103462Y344484D01*
X104183Y345038D01*
X104737Y345759D01*
X105085Y346599D01*
X105203Y347500D01*
X105085Y348401D01*
X104737Y349241D01*
X104183Y349962D01*
X103462Y350516D01*
X102622Y350864D01*
X101721Y350982D01*
D02*
G37*
G36*
X91721D02*
X90819Y350864D01*
X89979Y350516D01*
X89258Y349962D01*
X88705Y349241D01*
X88357Y348401D01*
X88238Y347500D01*
X88357Y346599D01*
X88705Y345759D01*
X89258Y345038D01*
X89979Y344484D01*
X90819Y344136D01*
X91721Y344018D01*
X92622Y344136D01*
X93462Y344484D01*
X94183Y345038D01*
X94737Y345759D01*
X95085Y346599D01*
X95203Y347500D01*
X95085Y348401D01*
X94737Y349241D01*
X94183Y349962D01*
X93462Y350516D01*
X92622Y350864D01*
X91721Y350982D01*
D02*
G37*
G36*
X391598Y347479D02*
X390697Y347360D01*
X389857Y347012D01*
X389136Y346459D01*
X388582Y345737D01*
X388234Y344897D01*
X388116Y343996D01*
X388234Y343095D01*
X388582Y342255D01*
X389136Y341533D01*
X389857Y340980D01*
X390697Y340632D01*
X391598Y340513D01*
X392500Y340632D01*
X393340Y340980D01*
X394061Y341533D01*
X394614Y342255D01*
X394962Y343095D01*
X395081Y343996D01*
X394962Y344897D01*
X394614Y345737D01*
X394061Y346459D01*
X393340Y347012D01*
X392500Y347360D01*
X391598Y347479D01*
D02*
G37*
G36*
X381598D02*
X380697Y347360D01*
X379857Y347012D01*
X379136Y346459D01*
X378583Y345737D01*
X378235Y344897D01*
X378116Y343996D01*
X378235Y343095D01*
X378583Y342255D01*
X379136Y341533D01*
X379857Y340980D01*
X380697Y340632D01*
X381598Y340513D01*
X382500Y340632D01*
X383340Y340980D01*
X384061Y341533D01*
X384614Y342255D01*
X384962Y343095D01*
X385081Y343996D01*
X384962Y344897D01*
X384614Y345737D01*
X384061Y346459D01*
X383340Y347012D01*
X382500Y347360D01*
X381598Y347479D01*
D02*
G37*
G36*
X279442Y340983D02*
X278540Y340864D01*
X277700Y340516D01*
X276979Y339963D01*
X276426Y339241D01*
X276078Y338401D01*
X275959Y337500D01*
X276078Y336599D01*
X276426Y335759D01*
X276979Y335037D01*
X277700Y334484D01*
X278540Y334136D01*
X279442Y334017D01*
X280343Y334136D01*
X281183Y334484D01*
X281904Y335037D01*
X282458Y335759D01*
X282806Y336599D01*
X282924Y337500D01*
X282806Y338401D01*
X282458Y339241D01*
X281904Y339963D01*
X281183Y340516D01*
X280343Y340864D01*
X279442Y340983D01*
D02*
G37*
G36*
X269442D02*
X268540Y340864D01*
X267701Y340516D01*
X266979Y339963D01*
X266426Y339241D01*
X266078Y338401D01*
X265959Y337500D01*
X266078Y336599D01*
X266426Y335759D01*
X266979Y335037D01*
X267701Y334484D01*
X268540Y334136D01*
X269442Y334017D01*
X270343Y334136D01*
X271183Y334484D01*
X271904Y335037D01*
X272458Y335759D01*
X272806Y336599D01*
X272924Y337500D01*
X272806Y338401D01*
X272458Y339241D01*
X271904Y339963D01*
X271183Y340516D01*
X270343Y340864D01*
X269442Y340983D01*
D02*
G37*
G36*
X259442D02*
X258540Y340864D01*
X257700Y340516D01*
X256979Y339963D01*
X256426Y339241D01*
X256078Y338401D01*
X255959Y337500D01*
X256078Y336599D01*
X256426Y335759D01*
X256979Y335037D01*
X257700Y334484D01*
X258540Y334136D01*
X259442Y334017D01*
X260343Y334136D01*
X261183Y334484D01*
X261904Y335037D01*
X262458Y335759D01*
X262806Y336599D01*
X262924Y337500D01*
X262806Y338401D01*
X262458Y339241D01*
X261904Y339963D01*
X261183Y340516D01*
X260343Y340864D01*
X259442Y340983D01*
D02*
G37*
G36*
X249442D02*
X248540Y340864D01*
X247701Y340516D01*
X246979Y339963D01*
X246426Y339241D01*
X246078Y338401D01*
X245959Y337500D01*
X246078Y336599D01*
X246426Y335759D01*
X246979Y335037D01*
X247701Y334484D01*
X248540Y334136D01*
X249442Y334017D01*
X250343Y334136D01*
X251183Y334484D01*
X251904Y335037D01*
X252458Y335759D01*
X252806Y336599D01*
X252924Y337500D01*
X252806Y338401D01*
X252458Y339241D01*
X251904Y339963D01*
X251183Y340516D01*
X250343Y340864D01*
X249442Y340983D01*
D02*
G37*
G36*
X239442D02*
X238540Y340864D01*
X237701Y340516D01*
X236979Y339963D01*
X236426Y339241D01*
X236078Y338401D01*
X235959Y337500D01*
X236078Y336599D01*
X236426Y335759D01*
X236979Y335037D01*
X237701Y334484D01*
X238540Y334136D01*
X239442Y334017D01*
X240343Y334136D01*
X241183Y334484D01*
X241904Y335037D01*
X242458Y335759D01*
X242806Y336599D01*
X242924Y337500D01*
X242806Y338401D01*
X242458Y339241D01*
X241904Y339963D01*
X241183Y340516D01*
X240343Y340864D01*
X239442Y340983D01*
D02*
G37*
G36*
X229442D02*
X228540Y340864D01*
X227700Y340516D01*
X226979Y339963D01*
X226426Y339241D01*
X226078Y338401D01*
X225959Y337500D01*
X226078Y336599D01*
X226426Y335759D01*
X226979Y335037D01*
X227700Y334484D01*
X228540Y334136D01*
X229442Y334017D01*
X230343Y334136D01*
X231183Y334484D01*
X231904Y335037D01*
X232458Y335759D01*
X232806Y336599D01*
X232924Y337500D01*
X232806Y338401D01*
X232458Y339241D01*
X231904Y339963D01*
X231183Y340516D01*
X230343Y340864D01*
X229442Y340983D01*
D02*
G37*
G36*
X219442D02*
X218540Y340864D01*
X217701Y340516D01*
X216979Y339963D01*
X216426Y339241D01*
X216078Y338401D01*
X215959Y337500D01*
X216078Y336599D01*
X216426Y335759D01*
X216979Y335037D01*
X217701Y334484D01*
X218540Y334136D01*
X219442Y334017D01*
X220343Y334136D01*
X221183Y334484D01*
X221904Y335037D01*
X222458Y335759D01*
X222806Y336599D01*
X222924Y337500D01*
X222806Y338401D01*
X222458Y339241D01*
X221904Y339963D01*
X221183Y340516D01*
X220343Y340864D01*
X219442Y340983D01*
D02*
G37*
G36*
X209442D02*
X208540Y340864D01*
X207700Y340516D01*
X206979Y339963D01*
X206426Y339241D01*
X206078Y338401D01*
X205959Y337500D01*
X206078Y336599D01*
X206426Y335759D01*
X206979Y335037D01*
X207700Y334484D01*
X208540Y334136D01*
X209442Y334017D01*
X210343Y334136D01*
X211183Y334484D01*
X211904Y335037D01*
X212458Y335759D01*
X212806Y336599D01*
X212924Y337500D01*
X212806Y338401D01*
X212458Y339241D01*
X211904Y339963D01*
X211183Y340516D01*
X210343Y340864D01*
X209442Y340983D01*
D02*
G37*
G36*
X111721D02*
X110819Y340864D01*
X109979Y340516D01*
X109258Y339963D01*
X108705Y339241D01*
X108357Y338401D01*
X108238Y337500D01*
X108357Y336599D01*
X108705Y335759D01*
X109258Y335037D01*
X109979Y334484D01*
X110819Y334136D01*
X111721Y334017D01*
X112622Y334136D01*
X113462Y334484D01*
X114183Y335037D01*
X114737Y335759D01*
X115085Y336599D01*
X115203Y337500D01*
X115085Y338401D01*
X114737Y339241D01*
X114183Y339963D01*
X113462Y340516D01*
X112622Y340864D01*
X111721Y340983D01*
D02*
G37*
G36*
X101721D02*
X100819Y340864D01*
X99980Y340516D01*
X99258Y339963D01*
X98705Y339241D01*
X98357Y338401D01*
X98238Y337500D01*
X98357Y336599D01*
X98705Y335759D01*
X99258Y335037D01*
X99980Y334484D01*
X100819Y334136D01*
X101721Y334017D01*
X102622Y334136D01*
X103462Y334484D01*
X104183Y335037D01*
X104737Y335759D01*
X105085Y336599D01*
X105203Y337500D01*
X105085Y338401D01*
X104737Y339241D01*
X104183Y339963D01*
X103462Y340516D01*
X102622Y340864D01*
X101721Y340983D01*
D02*
G37*
G36*
X91721D02*
X90819Y340864D01*
X89979Y340516D01*
X89258Y339963D01*
X88705Y339241D01*
X88357Y338401D01*
X88238Y337500D01*
X88357Y336599D01*
X88705Y335759D01*
X89258Y335037D01*
X89979Y334484D01*
X90819Y334136D01*
X91721Y334017D01*
X92622Y334136D01*
X93462Y334484D01*
X94183Y335037D01*
X94737Y335759D01*
X95085Y336599D01*
X95203Y337500D01*
X95085Y338401D01*
X94737Y339241D01*
X94183Y339963D01*
X93462Y340516D01*
X92622Y340864D01*
X91721Y340983D01*
D02*
G37*
G36*
X391598Y337478D02*
X390697Y337360D01*
X389857Y337012D01*
X389136Y336458D01*
X388582Y335737D01*
X388234Y334897D01*
X388116Y333996D01*
X388234Y333095D01*
X388582Y332255D01*
X389136Y331534D01*
X389857Y330980D01*
X390697Y330632D01*
X391598Y330514D01*
X392500Y330632D01*
X393340Y330980D01*
X394061Y331534D01*
X394614Y332255D01*
X394962Y333095D01*
X395081Y333996D01*
X394962Y334897D01*
X394614Y335737D01*
X394061Y336458D01*
X393340Y337012D01*
X392500Y337360D01*
X391598Y337478D01*
D02*
G37*
G36*
X381598D02*
X380697Y337360D01*
X379857Y337012D01*
X379136Y336458D01*
X378583Y335737D01*
X378235Y334897D01*
X378116Y333996D01*
X378235Y333095D01*
X378583Y332255D01*
X379136Y331534D01*
X379857Y330980D01*
X380697Y330632D01*
X381598Y330514D01*
X382500Y330632D01*
X383340Y330980D01*
X384061Y331534D01*
X384614Y332255D01*
X384962Y333095D01*
X385081Y333996D01*
X384962Y334897D01*
X384614Y335737D01*
X384061Y336458D01*
X383340Y337012D01*
X382500Y337360D01*
X381598Y337478D01*
D02*
G37*
G36*
X391598Y327479D02*
X390697Y327360D01*
X389857Y327012D01*
X389136Y326459D01*
X388582Y325737D01*
X388234Y324897D01*
X388116Y323996D01*
X388234Y323095D01*
X388582Y322255D01*
X389136Y321533D01*
X389857Y320980D01*
X390697Y320632D01*
X391598Y320514D01*
X392500Y320632D01*
X393340Y320980D01*
X394061Y321533D01*
X394614Y322255D01*
X394962Y323095D01*
X395081Y323996D01*
X394962Y324897D01*
X394614Y325737D01*
X394061Y326459D01*
X393340Y327012D01*
X392500Y327360D01*
X391598Y327479D01*
D02*
G37*
G36*
X381598D02*
X380697Y327360D01*
X379857Y327012D01*
X379136Y326459D01*
X378583Y325737D01*
X378235Y324897D01*
X378116Y323996D01*
X378235Y323095D01*
X378583Y322255D01*
X379136Y321533D01*
X379857Y320980D01*
X380697Y320632D01*
X381598Y320514D01*
X382500Y320632D01*
X383340Y320980D01*
X384061Y321533D01*
X384614Y322255D01*
X384962Y323095D01*
X385081Y323996D01*
X384962Y324897D01*
X384614Y325737D01*
X384061Y326459D01*
X383340Y327012D01*
X382500Y327360D01*
X381598Y327479D01*
D02*
G37*
G36*
X391598Y317478D02*
X390697Y317360D01*
X389857Y317012D01*
X389136Y316459D01*
X388582Y315737D01*
X388234Y314897D01*
X388116Y313996D01*
X388234Y313095D01*
X388582Y312255D01*
X389136Y311533D01*
X389857Y310980D01*
X390697Y310632D01*
X391598Y310513D01*
X392500Y310632D01*
X393340Y310980D01*
X394061Y311533D01*
X394614Y312255D01*
X394962Y313095D01*
X395081Y313996D01*
X394962Y314897D01*
X394614Y315737D01*
X394061Y316459D01*
X393340Y317012D01*
X392500Y317360D01*
X391598Y317478D01*
D02*
G37*
G36*
X381598D02*
X380697Y317360D01*
X379857Y317012D01*
X379136Y316459D01*
X378583Y315737D01*
X378235Y314897D01*
X378116Y313996D01*
X378235Y313095D01*
X378583Y312255D01*
X379136Y311533D01*
X379857Y310980D01*
X380697Y310632D01*
X381598Y310513D01*
X382500Y310632D01*
X383340Y310980D01*
X384061Y311533D01*
X384614Y312255D01*
X384962Y313095D01*
X385081Y313996D01*
X384962Y314897D01*
X384614Y315737D01*
X384061Y316459D01*
X383340Y317012D01*
X382500Y317360D01*
X381598Y317478D01*
D02*
G37*
G36*
X318394Y311449D02*
X311489D01*
Y304543D01*
X318394D01*
Y311449D01*
D02*
G37*
G36*
X324942Y311478D02*
X324040Y311360D01*
X323200Y311012D01*
X322479Y310458D01*
X321926Y309737D01*
X321578Y308897D01*
X321459Y307996D01*
X321578Y307095D01*
X321926Y306255D01*
X322479Y305534D01*
X323200Y304980D01*
X324040Y304632D01*
X324942Y304514D01*
X325843Y304632D01*
X326683Y304980D01*
X327404Y305534D01*
X327958Y306255D01*
X328306Y307095D01*
X328424Y307996D01*
X328306Y308897D01*
X327958Y309737D01*
X327404Y310458D01*
X326683Y311012D01*
X325843Y311360D01*
X324942Y311478D01*
D02*
G37*
G36*
X336442Y316675D02*
X335863Y316560D01*
X335372Y316232D01*
X335044Y315741D01*
X334928Y315162D01*
X335044Y314583D01*
X335223Y314315D01*
X335238Y314248D01*
X335240Y314231D01*
X335244Y314224D01*
X335246Y314216D01*
X335255Y314204D01*
X335257Y314198D01*
X335264Y314176D01*
X335273Y314140D01*
X335280Y314104D01*
X335299Y313871D01*
X335301Y313783D01*
X335322Y313733D01*
Y306101D01*
X335301Y306054D01*
X335294Y305867D01*
X335288Y305807D01*
X335279Y305753D01*
X335270Y305711D01*
X335262Y305682D01*
X335256Y305667D01*
X335247Y305657D01*
X335244Y305648D01*
X335239Y305641D01*
X335236Y305624D01*
X335227Y305600D01*
X334944Y305175D01*
X334828Y304596D01*
X334944Y304017D01*
X335272Y303526D01*
X335763Y303198D01*
X336342Y303083D01*
X336921Y303198D01*
X337412Y303526D01*
X337740Y304017D01*
X337855Y304596D01*
X337740Y305175D01*
X337456Y305600D01*
X337448Y305624D01*
X337444Y305641D01*
X337439Y305648D01*
X337437Y305657D01*
X337428Y305667D01*
X337422Y305682D01*
X337413Y305711D01*
X337404Y305753D01*
X337397Y305800D01*
X337384Y305954D01*
X337383Y306044D01*
X337361Y306093D01*
Y313576D01*
X337379Y313608D01*
X337373Y313630D01*
X337383Y313650D01*
X337390Y313834D01*
X337397Y313889D01*
X337405Y313937D01*
X337414Y313972D01*
X337422Y313994D01*
X337422Y313994D01*
X337425Y313997D01*
X337429Y314006D01*
X337438Y314017D01*
X337441Y314028D01*
X337442Y314029D01*
X337442Y314032D01*
X337445Y314040D01*
X337449Y314050D01*
X337512Y314092D01*
X337840Y314583D01*
X337955Y315162D01*
X337840Y315741D01*
X337512Y316232D01*
X337021Y316560D01*
X336442Y316675D01*
D02*
G37*
G36*
X332342Y316909D02*
X331763Y316794D01*
X331272Y316466D01*
X330944Y315975D01*
X330828Y315396D01*
X330944Y314817D01*
X331272Y314326D01*
X331417Y314229D01*
X331391Y314096D01*
X331422Y313939D01*
Y306101D01*
X331401Y306054D01*
X331394Y305867D01*
X331388Y305807D01*
X331379Y305753D01*
X331370Y305711D01*
X331362Y305682D01*
X331356Y305667D01*
X331347Y305657D01*
X331344Y305648D01*
X331339Y305641D01*
X331335Y305624D01*
X331327Y305600D01*
X331044Y305175D01*
X330928Y304596D01*
X331044Y304017D01*
X331372Y303526D01*
X331863Y303198D01*
X332442Y303083D01*
X333021Y303198D01*
X333512Y303526D01*
X333840Y304017D01*
X333955Y304596D01*
X333840Y305175D01*
X333556Y305600D01*
X333548Y305624D01*
X333544Y305641D01*
X333540Y305648D01*
X333537Y305657D01*
X333528Y305667D01*
X333522Y305682D01*
X333513Y305711D01*
X333504Y305753D01*
X333497Y305800D01*
X333484Y305954D01*
X333483Y306044D01*
X333461Y306093D01*
Y314065D01*
X333410Y314324D01*
X333412Y314326D01*
X333740Y314817D01*
X333855Y315396D01*
X333740Y315975D01*
X333412Y316466D01*
X332921Y316794D01*
X332342Y316909D01*
D02*
G37*
G36*
X395051Y307449D02*
X388146D01*
Y300543D01*
X395051D01*
Y307449D01*
D02*
G37*
G36*
X381598Y307478D02*
X380697Y307360D01*
X379857Y307012D01*
X379136Y306458D01*
X378583Y305737D01*
X378235Y304897D01*
X378116Y303996D01*
X378235Y303095D01*
X378583Y302255D01*
X379136Y301534D01*
X379857Y300980D01*
X380697Y300632D01*
X381598Y300514D01*
X382500Y300632D01*
X383340Y300980D01*
X384061Y301534D01*
X384614Y302255D01*
X384962Y303095D01*
X385081Y303996D01*
X384962Y304897D01*
X384614Y305737D01*
X384061Y306458D01*
X383340Y307012D01*
X382500Y307360D01*
X381598Y307478D01*
D02*
G37*
G36*
X325442Y301917D02*
Y298496D01*
X328863D01*
X328793Y299028D01*
X328395Y299989D01*
X327761Y300815D01*
X326935Y301449D01*
X325974Y301847D01*
X325442Y301917D01*
D02*
G37*
G36*
X315442D02*
Y298496D01*
X318863D01*
X318793Y299028D01*
X318394Y299989D01*
X317761Y300815D01*
X316935Y301449D01*
X315974Y301847D01*
X315442Y301917D01*
D02*
G37*
G36*
X324442D02*
X323910Y301847D01*
X322948Y301449D01*
X322123Y300815D01*
X321489Y299989D01*
X321091Y299028D01*
X321021Y298496D01*
X324442D01*
Y301917D01*
D02*
G37*
G36*
X314442D02*
X313910Y301847D01*
X312948Y301449D01*
X312123Y300815D01*
X311489Y299989D01*
X311091Y299028D01*
X311021Y298496D01*
X314442D01*
Y301917D01*
D02*
G37*
G36*
X328863Y297496D02*
X325442D01*
Y294075D01*
X325974Y294145D01*
X326935Y294543D01*
X327761Y295177D01*
X328395Y296003D01*
X328793Y296964D01*
X328863Y297496D01*
D02*
G37*
G36*
X318863D02*
X315442D01*
Y294075D01*
X315974Y294145D01*
X316935Y294543D01*
X317761Y295177D01*
X318394Y296003D01*
X318793Y296964D01*
X318863Y297496D01*
D02*
G37*
G36*
X324442D02*
X321021D01*
X321091Y296964D01*
X321489Y296003D01*
X322123Y295177D01*
X322948Y294543D01*
X323910Y294145D01*
X324442Y294075D01*
Y297496D01*
D02*
G37*
G36*
X314442D02*
X311021D01*
X311091Y296964D01*
X311489Y296003D01*
X312123Y295177D01*
X312948Y294543D01*
X313910Y294145D01*
X314442Y294075D01*
Y297496D01*
D02*
G37*
G36*
X350733Y278723D02*
Y275500D01*
X353956D01*
X353892Y275980D01*
X353514Y276894D01*
X352912Y277679D01*
X352127Y278281D01*
X351214Y278659D01*
X350733Y278723D01*
D02*
G37*
G36*
X349733D02*
X349253Y278659D01*
X348339Y278281D01*
X347554Y277679D01*
X346952Y276894D01*
X346574Y275980D01*
X346511Y275500D01*
X349733D01*
Y278723D01*
D02*
G37*
G36*
X336442Y278284D02*
X335592Y278172D01*
X334800Y277844D01*
X334120Y277322D01*
X333598Y276642D01*
X333270Y275850D01*
X333158Y275000D01*
X333270Y274150D01*
X333598Y273358D01*
X334120Y272678D01*
X334800Y272156D01*
X335592Y271828D01*
X336442Y271716D01*
X337292Y271828D01*
X338084Y272156D01*
X338764Y272678D01*
X339286Y273358D01*
X339614Y274150D01*
X339726Y275000D01*
X339614Y275850D01*
X339286Y276642D01*
X338764Y277322D01*
X338084Y277844D01*
X337292Y278172D01*
X336442Y278284D01*
D02*
G37*
G36*
X321442D02*
X320592Y278172D01*
X319800Y277844D01*
X319120Y277322D01*
X318598Y276642D01*
X318270Y275850D01*
X318158Y275000D01*
X318270Y274150D01*
X318598Y273358D01*
X319120Y272678D01*
X319800Y272156D01*
X320592Y271828D01*
X321442Y271716D01*
X322292Y271828D01*
X323084Y272156D01*
X323764Y272678D01*
X324286Y273358D01*
X324614Y274150D01*
X324726Y275000D01*
X324614Y275850D01*
X324286Y276642D01*
X323764Y277322D01*
X323084Y277844D01*
X322292Y278172D01*
X321442Y278284D01*
D02*
G37*
G36*
X353956Y274500D02*
X350733D01*
Y271277D01*
X351214Y271341D01*
X352127Y271719D01*
X352912Y272321D01*
X353514Y273106D01*
X353892Y274020D01*
X353956Y274500D01*
D02*
G37*
G36*
X349733D02*
X346511D01*
X346574Y274020D01*
X346952Y273106D01*
X347554Y272321D01*
X348339Y271719D01*
X349253Y271341D01*
X349733Y271277D01*
Y274500D01*
D02*
G37*
G36*
X-33433Y243979D02*
X-34334Y243860D01*
X-35174Y243512D01*
X-35896Y242958D01*
X-36449Y242237D01*
X-36797Y241397D01*
X-36916Y240496D01*
X-36797Y239595D01*
X-36449Y238755D01*
X-35896Y238034D01*
X-35174Y237480D01*
X-34334Y237132D01*
X-33433Y237014D01*
X-32532Y237132D01*
X-31692Y237480D01*
X-30970Y238034D01*
X-30417Y238755D01*
X-30069Y239595D01*
X-29950Y240496D01*
X-30069Y241397D01*
X-30417Y242237D01*
X-30970Y242958D01*
X-31692Y243512D01*
X-32532Y243860D01*
X-33433Y243979D01*
D02*
G37*
G36*
X-32933Y234417D02*
Y230996D01*
X-29512D01*
X-29582Y231528D01*
X-29980Y232489D01*
X-30614Y233315D01*
X-31440Y233949D01*
X-32401Y234347D01*
X-32933Y234417D01*
D02*
G37*
G36*
X-33933D02*
X-34465Y234347D01*
X-35427Y233949D01*
X-36252Y233315D01*
X-36886Y232489D01*
X-37284Y231528D01*
X-37354Y230996D01*
X-33933D01*
Y234417D01*
D02*
G37*
G36*
X-29512Y229996D02*
X-32933D01*
Y226575D01*
X-32401Y226645D01*
X-31440Y227043D01*
X-30614Y227677D01*
X-29980Y228503D01*
X-29582Y229464D01*
X-29512Y229996D01*
D02*
G37*
G36*
X-33933D02*
X-37354D01*
X-37284Y229464D01*
X-36886Y228503D01*
X-36252Y227677D01*
X-35427Y227043D01*
X-34465Y226645D01*
X-33933Y226575D01*
Y229996D01*
D02*
G37*
G36*
X391599Y227479D02*
X390698Y227360D01*
X389858Y227012D01*
X389137Y226459D01*
X388583Y225737D01*
X388235Y224897D01*
X388117Y223996D01*
X388235Y223095D01*
X388583Y222255D01*
X389137Y221533D01*
X389858Y220980D01*
X390698Y220632D01*
X391599Y220514D01*
X392501Y220632D01*
X393340Y220980D01*
X394062Y221533D01*
X394615Y222255D01*
X394963Y223095D01*
X395082Y223996D01*
X394963Y224897D01*
X394615Y225737D01*
X394062Y226459D01*
X393340Y227012D01*
X392501Y227360D01*
X391599Y227479D01*
D02*
G37*
G36*
X381599D02*
X380698Y227360D01*
X379858Y227012D01*
X379137Y226459D01*
X378583Y225737D01*
X378235Y224897D01*
X378117Y223996D01*
X378235Y223095D01*
X378583Y222255D01*
X379137Y221533D01*
X379858Y220980D01*
X380698Y220632D01*
X381599Y220514D01*
X382501Y220632D01*
X383341Y220980D01*
X384062Y221533D01*
X384615Y222255D01*
X384963Y223095D01*
X385082Y223996D01*
X384963Y224897D01*
X384615Y225737D01*
X384062Y226459D01*
X383341Y227012D01*
X382501Y227360D01*
X381599Y227479D01*
D02*
G37*
G36*
X-33433Y223978D02*
X-34334Y223860D01*
X-35174Y223512D01*
X-35896Y222958D01*
X-36449Y222237D01*
X-36797Y221397D01*
X-36916Y220496D01*
X-36797Y219595D01*
X-36449Y218755D01*
X-35896Y218034D01*
X-35174Y217480D01*
X-34334Y217132D01*
X-33433Y217014D01*
X-32532Y217132D01*
X-31692Y217480D01*
X-30970Y218034D01*
X-30417Y218755D01*
X-30069Y219595D01*
X-29950Y220496D01*
X-30069Y221397D01*
X-30417Y222237D01*
X-30970Y222958D01*
X-31692Y223512D01*
X-32532Y223860D01*
X-33433Y223978D01*
D02*
G37*
G36*
X358142Y231909D02*
X357563Y231794D01*
X357072Y231466D01*
X356744Y230975D01*
X356628Y230396D01*
X356744Y229817D01*
X357032Y229385D01*
X357039Y229365D01*
X357043Y229347D01*
X357048Y229340D01*
X357051Y229331D01*
X357059Y229321D01*
X357065Y229307D01*
X357074Y229278D01*
X357083Y229236D01*
X357090Y229189D01*
X357103Y229035D01*
X357104Y228946D01*
X357126Y228896D01*
Y214116D01*
X357105Y214069D01*
X357098Y213881D01*
X357092Y213821D01*
X357083Y213767D01*
X357074Y213725D01*
X357065Y213696D01*
X357059Y213680D01*
X357050Y213670D01*
X357047Y213661D01*
X357043Y213654D01*
X357039Y213637D01*
X357030Y213610D01*
X356751Y213192D01*
X356636Y212613D01*
X356751Y212034D01*
X357079Y211543D01*
X357570Y211215D01*
X358149Y211100D01*
X358728Y211215D01*
X359219Y211543D01*
X359547Y212034D01*
X359662Y212613D01*
X359547Y213192D01*
X359259Y213624D01*
X359252Y213645D01*
X359248Y213662D01*
X359243Y213669D01*
X359240Y213678D01*
X359231Y213688D01*
X359226Y213702D01*
X359217Y213731D01*
X359208Y213773D01*
X359200Y213820D01*
X359188Y213974D01*
X359187Y214064D01*
X359165Y214113D01*
Y228894D01*
X359186Y228940D01*
X359193Y229128D01*
X359199Y229188D01*
X359208Y229242D01*
X359217Y229284D01*
X359226Y229314D01*
X359232Y229329D01*
X359241Y229339D01*
X359243Y229348D01*
X359248Y229355D01*
X359252Y229372D01*
X359261Y229399D01*
X359540Y229817D01*
X359655Y230396D01*
X359540Y230975D01*
X359212Y231466D01*
X358721Y231794D01*
X358142Y231909D01*
D02*
G37*
G36*
X391599Y217478D02*
X390698Y217360D01*
X389858Y217012D01*
X389137Y216459D01*
X388583Y215737D01*
X388235Y214897D01*
X388117Y213996D01*
X388235Y213095D01*
X388583Y212255D01*
X389137Y211533D01*
X389858Y210980D01*
X390698Y210632D01*
X391599Y210513D01*
X392501Y210632D01*
X393340Y210980D01*
X394062Y211533D01*
X394615Y212255D01*
X394963Y213095D01*
X395082Y213996D01*
X394963Y214897D01*
X394615Y215737D01*
X394062Y216459D01*
X393340Y217012D01*
X392501Y217360D01*
X391599Y217478D01*
D02*
G37*
G36*
X381599D02*
X380698Y217360D01*
X379858Y217012D01*
X379137Y216459D01*
X378583Y215737D01*
X378235Y214897D01*
X378117Y213996D01*
X378235Y213095D01*
X378583Y212255D01*
X379137Y211533D01*
X379858Y210980D01*
X380698Y210632D01*
X381599Y210513D01*
X382501Y210632D01*
X383341Y210980D01*
X384062Y211533D01*
X384615Y212255D01*
X384963Y213095D01*
X385082Y213996D01*
X384963Y214897D01*
X384615Y215737D01*
X384062Y216459D01*
X383341Y217012D01*
X382501Y217360D01*
X381599Y217478D01*
D02*
G37*
G36*
X-33433Y213979D02*
X-34334Y213860D01*
X-35174Y213512D01*
X-35896Y212959D01*
X-36449Y212237D01*
X-36797Y211397D01*
X-36916Y210496D01*
X-36797Y209595D01*
X-36449Y208755D01*
X-35896Y208033D01*
X-35174Y207480D01*
X-34334Y207132D01*
X-33433Y207014D01*
X-32532Y207132D01*
X-31692Y207480D01*
X-30970Y208033D01*
X-30417Y208755D01*
X-30069Y209595D01*
X-29950Y210496D01*
X-30069Y211397D01*
X-30417Y212237D01*
X-30970Y212959D01*
X-31692Y213512D01*
X-32532Y213860D01*
X-33433Y213979D01*
D02*
G37*
G36*
X391599Y207478D02*
X390698Y207360D01*
X389858Y207012D01*
X389137Y206458D01*
X388583Y205737D01*
X388235Y204897D01*
X388117Y203996D01*
X388235Y203095D01*
X388583Y202255D01*
X389137Y201534D01*
X389858Y200980D01*
X390698Y200632D01*
X391599Y200513D01*
X392501Y200632D01*
X393340Y200980D01*
X394062Y201534D01*
X394615Y202255D01*
X394963Y203095D01*
X395082Y203996D01*
X394963Y204897D01*
X394615Y205737D01*
X394062Y206458D01*
X393340Y207012D01*
X392501Y207360D01*
X391599Y207478D01*
D02*
G37*
G36*
X381599D02*
X380698Y207360D01*
X379858Y207012D01*
X379137Y206458D01*
X378583Y205737D01*
X378235Y204897D01*
X378117Y203996D01*
X378235Y203095D01*
X378583Y202255D01*
X379137Y201534D01*
X379858Y200980D01*
X380698Y200632D01*
X381599Y200513D01*
X382501Y200632D01*
X383341Y200980D01*
X384062Y201534D01*
X384615Y202255D01*
X384963Y203095D01*
X385082Y203996D01*
X384963Y204897D01*
X384615Y205737D01*
X384062Y206458D01*
X383341Y207012D01*
X382501Y207360D01*
X381599Y207478D01*
D02*
G37*
G36*
X-33433Y203978D02*
X-34334Y203860D01*
X-35174Y203512D01*
X-35896Y202958D01*
X-36449Y202237D01*
X-36797Y201397D01*
X-36916Y200496D01*
X-36797Y199595D01*
X-36449Y198755D01*
X-35896Y198033D01*
X-35174Y197480D01*
X-34334Y197132D01*
X-33433Y197013D01*
X-32532Y197132D01*
X-31692Y197480D01*
X-30970Y198033D01*
X-30417Y198755D01*
X-30069Y199595D01*
X-29950Y200496D01*
X-30069Y201397D01*
X-30417Y202237D01*
X-30970Y202958D01*
X-31692Y203512D01*
X-32532Y203860D01*
X-33433Y203978D01*
D02*
G37*
G36*
X349800Y196513D02*
X349221Y196398D01*
X348730Y196070D01*
X348486Y195705D01*
X348449Y195675D01*
X348435Y195666D01*
X348429Y195659D01*
X348422Y195652D01*
X348416Y195641D01*
X348404Y195630D01*
X348380Y195612D01*
X348344Y195589D01*
X348302Y195565D01*
X348162Y195500D01*
X348079Y195466D01*
X348040Y195429D01*
X333615Y190020D01*
X322275D01*
X322229Y190041D01*
X322041Y190048D01*
X321981Y190054D01*
X321927Y190062D01*
X321885Y190071D01*
X321855Y190080D01*
X321840Y190086D01*
X321830Y190095D01*
X321821Y190098D01*
X321814Y190103D01*
X321797Y190106D01*
X321769Y190115D01*
X321352Y190394D01*
X320773Y190509D01*
X320194Y190394D01*
X319703Y190066D01*
X319375Y189575D01*
X319260Y188996D01*
X319375Y188417D01*
X319703Y187926D01*
X320194Y187598D01*
X320773Y187483D01*
X321352Y187598D01*
X321396Y187627D01*
X321846Y187326D01*
X321780Y186996D01*
X321896Y186417D01*
X322224Y185926D01*
X322715Y185598D01*
X323294Y185483D01*
X323873Y185598D01*
X324305Y185887D01*
X324325Y185894D01*
X324343Y185897D01*
X324350Y185902D01*
X324359Y185906D01*
X324369Y185914D01*
X324383Y185920D01*
X324412Y185928D01*
X324454Y185938D01*
X324501Y185945D01*
X324654Y185957D01*
X324744Y185959D01*
X324794Y185980D01*
X335700D01*
X335878Y186016D01*
X336058Y186045D01*
X350649Y191517D01*
X350700Y191513D01*
X350878Y191573D01*
X350937Y191588D01*
X350990Y191599D01*
X351032Y191605D01*
X351063Y191607D01*
X351079Y191607D01*
X351091Y191602D01*
X351100Y191603D01*
X351109Y191601D01*
X351120Y191602D01*
X351121Y191602D01*
X351700Y191487D01*
X352279Y191602D01*
X352770Y191930D01*
X353098Y192421D01*
X353213Y193000D01*
X353098Y193579D01*
X352770Y194070D01*
X352279Y194398D01*
X351700Y194513D01*
X351302Y194944D01*
X351313Y195000D01*
X351198Y195579D01*
X350870Y196070D01*
X350379Y196398D01*
X349800Y196513D01*
D02*
G37*
G36*
X395052Y197449D02*
X388146D01*
Y190543D01*
X395052D01*
Y197449D01*
D02*
G37*
G36*
X381599Y197478D02*
X380698Y197360D01*
X379858Y197012D01*
X379137Y196458D01*
X378583Y195737D01*
X378235Y194897D01*
X378117Y193996D01*
X378235Y193095D01*
X378583Y192255D01*
X379137Y191534D01*
X379858Y190980D01*
X380698Y190632D01*
X381599Y190513D01*
X382501Y190632D01*
X383341Y190980D01*
X384062Y191534D01*
X384615Y192255D01*
X384963Y193095D01*
X385082Y193996D01*
X384963Y194897D01*
X384615Y195737D01*
X384062Y196458D01*
X383341Y197012D01*
X382501Y197360D01*
X381599Y197478D01*
D02*
G37*
G36*
X-29980Y193949D02*
X-36886D01*
Y187043D01*
X-29980D01*
Y193949D01*
D02*
G37*
G36*
X376642Y176325D02*
X371042D01*
X370457Y176209D01*
X369960Y175877D01*
X369629Y175381D01*
X369512Y174796D01*
X369629Y174211D01*
X369960Y173715D01*
X370457Y173383D01*
X371042Y173267D01*
X376008D01*
X376860Y172415D01*
X377357Y172083D01*
X377942Y171967D01*
X384842D01*
X385427Y172083D01*
X385923Y172415D01*
X386255Y172911D01*
X386371Y173496D01*
X386255Y174081D01*
X385923Y174577D01*
X385427Y174909D01*
X384842Y175025D01*
X378575D01*
X377723Y175877D01*
X377227Y176209D01*
X376642Y176325D01*
D02*
G37*
G36*
X-5300Y162513D02*
X-5879Y162398D01*
X-6370Y162070D01*
X-6399Y162026D01*
X-7001D01*
X-7030Y162070D01*
X-7521Y162398D01*
X-8100Y162513D01*
X-8679Y162398D01*
X-9170Y162070D01*
X-9200Y162025D01*
X-9700D01*
X-9730Y162070D01*
X-10221Y162398D01*
X-10800Y162513D01*
X-11379Y162398D01*
X-11870Y162070D01*
X-12198Y161579D01*
X-12313Y161000D01*
X-12198Y160421D01*
X-11914Y159996D01*
X-11906Y159972D01*
X-11903Y159955D01*
X-11898Y159948D01*
X-11895Y159939D01*
X-11886Y159929D01*
X-11880Y159914D01*
X-11872Y159885D01*
X-11862Y159843D01*
X-11855Y159796D01*
X-11843Y159642D01*
X-11841Y159552D01*
X-11820Y159503D01*
Y139205D01*
X-11841Y139158D01*
X-11848Y138971D01*
X-11854Y138911D01*
X-11862Y138857D01*
X-11872Y138815D01*
X-11880Y138786D01*
X-11886Y138771D01*
X-11895Y138761D01*
X-11898Y138752D01*
X-11903Y138745D01*
X-11906Y138728D01*
X-11914Y138704D01*
X-12198Y138279D01*
X-12313Y137700D01*
X-12198Y137121D01*
X-11870Y136630D01*
X-11379Y136302D01*
X-10800Y136187D01*
X-10221Y136302D01*
X-9730Y136630D01*
X-9402Y137121D01*
X-9287Y137700D01*
X-9402Y138279D01*
X-9517Y138452D01*
X-9483Y138566D01*
X-8905Y138753D01*
X-8679Y138602D01*
X-8100Y138487D01*
X-7521Y138602D01*
X-7030Y138930D01*
X-6702Y139421D01*
X-6587Y140000D01*
X-6702Y140579D01*
X-6924Y140911D01*
X-6900Y141124D01*
X-6417Y141242D01*
X-6370Y141230D01*
X-5879Y140902D01*
X-5300Y140787D01*
X-4721Y140902D01*
X-4230Y141230D01*
X-3902Y141721D01*
X-3787Y142300D01*
X-3902Y142879D01*
X-4186Y143304D01*
X-4194Y143328D01*
X-4197Y143345D01*
X-4202Y143352D01*
X-4205Y143361D01*
X-4214Y143371D01*
X-4220Y143386D01*
X-4228Y143415D01*
X-4238Y143457D01*
X-4245Y143504D01*
X-4257Y143658D01*
X-4259Y143748D01*
X-4280Y143797D01*
Y159495D01*
X-4259Y159542D01*
X-4252Y159729D01*
X-4246Y159789D01*
X-4238Y159843D01*
X-4228Y159885D01*
X-4220Y159914D01*
X-4214Y159929D01*
X-4205Y159939D01*
X-4202Y159948D01*
X-4197Y159955D01*
X-4194Y159972D01*
X-4186Y159996D01*
X-3902Y160421D01*
X-3787Y161000D01*
X-3902Y161579D01*
X-4230Y162070D01*
X-4721Y162398D01*
X-5300Y162513D01*
D02*
G37*
G36*
X374442Y170025D02*
X373863Y169910D01*
X373372Y169582D01*
X373044Y169091D01*
X372928Y168512D01*
X373044Y167933D01*
X373372Y167442D01*
X373863Y167114D01*
X374363Y167014D01*
X374386Y167003D01*
X374401Y166993D01*
X374409Y166991D01*
X374418Y166987D01*
X374431Y166987D01*
X374446Y166980D01*
X374472Y166966D01*
X374509Y166943D01*
X374548Y166914D01*
X374665Y166814D01*
X374729Y166752D01*
X374780Y166732D01*
X375906Y165605D01*
Y162408D01*
X375891Y162382D01*
X375900Y162346D01*
X375885Y162312D01*
X375883Y162219D01*
X375878Y162147D01*
X375871Y162087D01*
X375862Y162040D01*
X375853Y162007D01*
X375848Y161990D01*
X375847Y161990D01*
X375843Y161982D01*
X375833Y161969D01*
X375830Y161958D01*
X375827Y161955D01*
X375826Y161947D01*
X375825Y161944D01*
X375818Y161929D01*
X375730Y161870D01*
X375402Y161379D01*
X375287Y160800D01*
X375402Y160221D01*
X375730Y159730D01*
X376221Y159402D01*
X376800Y159287D01*
X377379Y159402D01*
X377870Y159730D01*
X378198Y160221D01*
X378313Y160800D01*
X378198Y161379D01*
X378041Y161614D01*
X378028Y161680D01*
X378026Y161699D01*
X378022Y161706D01*
X378021Y161714D01*
X378012Y161726D01*
X378010Y161733D01*
X378002Y161757D01*
X377994Y161794D01*
X377987Y161833D01*
X377968Y162068D01*
X377967Y162157D01*
X377946Y162208D01*
Y166027D01*
X377868Y166418D01*
X377647Y166748D01*
X376227Y168169D01*
X376209Y168217D01*
X376081Y168354D01*
X376043Y168401D01*
X376011Y168445D01*
X375988Y168481D01*
X375973Y168508D01*
X375967Y168523D01*
X375966Y168536D01*
X375962Y168544D01*
X375960Y168553D01*
X375951Y168567D01*
X375939Y168590D01*
X375840Y169091D01*
X375512Y169582D01*
X375021Y169910D01*
X374442Y170025D01*
D02*
G37*
G36*
X408026Y142039D02*
X390105D01*
X389728Y141964D01*
X389350Y141894D01*
X389339Y141887D01*
X389325Y141884D01*
X389005Y141670D01*
X388683Y141461D01*
X384679Y137562D01*
X384228Y136907D01*
X384062Y136128D01*
X384207Y135346D01*
X384640Y134679D01*
X385296Y134228D01*
X386074Y134062D01*
X386856Y134207D01*
X387524Y134640D01*
X390934Y137961D01*
X408026D01*
X408807Y138116D01*
X409468Y138558D01*
X409910Y139220D01*
X410066Y140000D01*
X409910Y140780D01*
X409468Y141442D01*
X408807Y141884D01*
X408026Y142039D01*
D02*
G37*
G36*
X-23700Y148213D02*
X-24279Y148098D01*
X-24770Y147770D01*
X-25098Y147279D01*
X-25213Y146700D01*
X-25098Y146121D01*
X-24814Y145696D01*
X-24806Y145672D01*
X-24803Y145655D01*
X-24798Y145648D01*
X-24795Y145639D01*
X-24786Y145629D01*
X-24780Y145614D01*
X-24772Y145585D01*
X-24762Y145543D01*
X-24755Y145496D01*
X-24743Y145342D01*
X-24741Y145252D01*
X-24720Y145203D01*
Y142400D01*
X-24642Y142010D01*
X-24421Y141679D01*
X-18085Y135343D01*
X-18067Y135295D01*
X-17939Y135158D01*
X-17901Y135111D01*
X-17869Y135067D01*
X-17846Y135031D01*
X-17832Y135004D01*
X-17825Y134989D01*
X-17824Y134976D01*
X-17820Y134968D01*
X-17819Y134959D01*
X-17809Y134944D01*
X-17798Y134922D01*
X-17698Y134421D01*
X-17370Y133930D01*
X-16879Y133602D01*
X-16300Y133487D01*
X-15721Y133602D01*
X-15230Y133930D01*
X-14902Y134421D01*
X-14787Y135000D01*
X-14902Y135579D01*
X-15230Y136070D01*
X-15721Y136398D01*
X-16222Y136498D01*
X-16244Y136509D01*
X-16259Y136519D01*
X-16268Y136520D01*
X-16276Y136524D01*
X-16289Y136525D01*
X-16304Y136532D01*
X-16331Y136546D01*
X-16367Y136569D01*
X-16406Y136598D01*
X-16523Y136698D01*
X-16588Y136760D01*
X-16638Y136780D01*
X-22680Y142822D01*
Y145195D01*
X-22659Y145242D01*
X-22652Y145429D01*
X-22646Y145489D01*
X-22638Y145543D01*
X-22628Y145585D01*
X-22620Y145614D01*
X-22614Y145629D01*
X-22605Y145639D01*
X-22602Y145648D01*
X-22597Y145655D01*
X-22594Y145672D01*
X-22586Y145696D01*
X-22302Y146121D01*
X-22187Y146700D01*
X-22302Y147279D01*
X-22630Y147770D01*
X-23121Y148098D01*
X-23700Y148213D01*
D02*
G37*
G36*
X318394Y136449D02*
X311489D01*
Y129543D01*
X318394D01*
Y136449D01*
D02*
G37*
G36*
X324942Y136478D02*
X324040Y136360D01*
X323200Y136012D01*
X322479Y135459D01*
X321926Y134737D01*
X321578Y133897D01*
X321459Y132996D01*
X321578Y132095D01*
X321926Y131255D01*
X322479Y130534D01*
X323200Y129980D01*
X324040Y129632D01*
X324942Y129513D01*
X325843Y129632D01*
X326683Y129980D01*
X327404Y130534D01*
X327958Y131255D01*
X328306Y132095D01*
X328424Y132996D01*
X328306Y133897D01*
X327958Y134737D01*
X327404Y135459D01*
X326683Y136012D01*
X325843Y136360D01*
X324942Y136478D01*
D02*
G37*
G36*
X325442Y126917D02*
Y123496D01*
X328863D01*
X328793Y124028D01*
X328395Y124989D01*
X327761Y125815D01*
X326935Y126449D01*
X325974Y126847D01*
X325442Y126917D01*
D02*
G37*
G36*
X315442D02*
Y123496D01*
X318863D01*
X318793Y124028D01*
X318394Y124989D01*
X317761Y125815D01*
X316935Y126449D01*
X315974Y126847D01*
X315442Y126917D01*
D02*
G37*
G36*
X324442D02*
X323910Y126847D01*
X322948Y126449D01*
X322123Y125815D01*
X321489Y124989D01*
X321091Y124028D01*
X321021Y123496D01*
X324442D01*
Y126917D01*
D02*
G37*
G36*
X416399Y123013D02*
X415820Y122898D01*
X415395Y122614D01*
X415371Y122606D01*
X415354Y122603D01*
X415347Y122598D01*
X415338Y122595D01*
X415328Y122586D01*
X415313Y122580D01*
X415284Y122572D01*
X415242Y122562D01*
X415194Y122555D01*
X415040Y122543D01*
X414951Y122541D01*
X414901Y122520D01*
X394705D01*
X394658Y122541D01*
X394471Y122548D01*
X394411Y122554D01*
X394357Y122562D01*
X394315Y122572D01*
X394286Y122580D01*
X394271Y122586D01*
X394261Y122595D01*
X394252Y122598D01*
X394245Y122603D01*
X394228Y122606D01*
X394204Y122614D01*
X393779Y122898D01*
X393200Y123013D01*
X392621Y122898D01*
X392130Y122570D01*
X391802Y122079D01*
X391687Y121500D01*
X391802Y120921D01*
X392130Y120430D01*
X392249Y120351D01*
Y119749D01*
X392130Y119670D01*
X391802Y119179D01*
X391687Y118600D01*
X391802Y118021D01*
X392130Y117530D01*
X392174Y117501D01*
Y116899D01*
X392130Y116870D01*
X391802Y116379D01*
X391687Y115800D01*
X391802Y115221D01*
X392130Y114730D01*
X392249Y114651D01*
Y114049D01*
X392130Y113970D01*
X391802Y113479D01*
X391687Y112900D01*
X391802Y112321D01*
X392130Y111830D01*
X392621Y111502D01*
X393200Y111387D01*
X393779Y111502D01*
X394204Y111786D01*
X394228Y111794D01*
X394245Y111797D01*
X394252Y111802D01*
X394261Y111805D01*
X394271Y111814D01*
X394286Y111820D01*
X394315Y111828D01*
X394357Y111838D01*
X394404Y111845D01*
X394558Y111857D01*
X394648Y111859D01*
X394697Y111880D01*
X414894D01*
X414941Y111859D01*
X415128Y111852D01*
X415188Y111846D01*
X415242Y111838D01*
X415284Y111828D01*
X415313Y111820D01*
X415328Y111814D01*
X415338Y111805D01*
X415347Y111802D01*
X415354Y111797D01*
X415371Y111794D01*
X415395Y111786D01*
X415820Y111502D01*
X416399Y111387D01*
X416978Y111502D01*
X417469Y111830D01*
X417797Y112321D01*
X417912Y112900D01*
X417797Y113479D01*
X417469Y113970D01*
X417350Y114049D01*
Y114651D01*
X417469Y114730D01*
X417797Y115221D01*
X417912Y115800D01*
X417797Y116379D01*
X417469Y116870D01*
X417425Y116899D01*
Y117501D01*
X417469Y117530D01*
X417797Y118021D01*
X417912Y118600D01*
X417797Y119179D01*
X417469Y119670D01*
X417350Y119749D01*
Y120351D01*
X417469Y120430D01*
X417797Y120921D01*
X417912Y121500D01*
X417797Y122079D01*
X417469Y122570D01*
X416978Y122898D01*
X416399Y123013D01*
D02*
G37*
G36*
X328863Y122496D02*
X325442D01*
Y119075D01*
X325974Y119145D01*
X326935Y119543D01*
X327761Y120177D01*
X328395Y121003D01*
X328793Y121964D01*
X328863Y122496D01*
D02*
G37*
G36*
X324442D02*
X321021D01*
X321091Y121964D01*
X321489Y121003D01*
X322123Y120177D01*
X322948Y119543D01*
X323910Y119145D01*
X324442Y119075D01*
Y122496D01*
D02*
G37*
G36*
X289000Y119013D02*
X288421Y118898D01*
X287930Y118570D01*
X287602Y118079D01*
X287487Y117500D01*
X287602Y116921D01*
X287736Y116720D01*
X287469Y116220D01*
X287205D01*
X287158Y116241D01*
X286971Y116248D01*
X286911Y116254D01*
X286857Y116262D01*
X286815Y116272D01*
X286786Y116280D01*
X286771Y116286D01*
X286761Y116295D01*
X286752Y116298D01*
X286745Y116303D01*
X286728Y116306D01*
X286704Y116314D01*
X286279Y116598D01*
X285700Y116713D01*
X285121Y116598D01*
X284630Y116270D01*
X284302Y115779D01*
X284187Y115200D01*
X284302Y114621D01*
X284630Y114130D01*
X285121Y113802D01*
X285598Y113707D01*
X285706Y113676D01*
X285974Y113232D01*
X285928Y113000D01*
X286044Y112421D01*
X286372Y111930D01*
X286863Y111602D01*
X287442Y111487D01*
X288021Y111602D01*
X288445Y111886D01*
X288469Y111894D01*
X288486Y111897D01*
X288494Y111902D01*
X288503Y111905D01*
X288512Y111914D01*
X288528Y111920D01*
X288557Y111928D01*
X288599Y111938D01*
X288646Y111945D01*
X288800Y111957D01*
X288890Y111959D01*
X288939Y111980D01*
X291697D01*
X306598Y97079D01*
X306929Y96858D01*
X307319Y96780D01*
X320678D01*
X332996Y84462D01*
Y63012D01*
X333074Y62622D01*
X333295Y62291D01*
X335080Y60506D01*
Y44505D01*
X335059Y44458D01*
X335052Y44271D01*
X335046Y44211D01*
X335038Y44157D01*
X335028Y44115D01*
X335020Y44086D01*
X335014Y44071D01*
X335005Y44061D01*
X335002Y44052D01*
X334997Y44045D01*
X334994Y44028D01*
X334986Y44004D01*
X334702Y43579D01*
X334587Y43000D01*
X334702Y42421D01*
X335030Y41930D01*
X335521Y41602D01*
X336100Y41487D01*
X336679Y41602D01*
X337170Y41930D01*
X337498Y42421D01*
X337613Y43000D01*
X337498Y43579D01*
X337214Y44004D01*
X337206Y44028D01*
X337203Y44045D01*
X337198Y44052D01*
X337195Y44061D01*
X337186Y44071D01*
X337180Y44086D01*
X337172Y44115D01*
X337162Y44157D01*
X337155Y44204D01*
X337143Y44358D01*
X337141Y44448D01*
X337120Y44497D01*
Y60928D01*
X337042Y61318D01*
X336821Y61649D01*
X335035Y63435D01*
Y64704D01*
X335535Y64979D01*
X336000Y64887D01*
X336579Y65002D01*
X337070Y65330D01*
X337398Y65821D01*
X337513Y66400D01*
X337398Y66979D01*
X337114Y67404D01*
X337106Y67428D01*
X337103Y67445D01*
X337098Y67452D01*
X337095Y67461D01*
X337086Y67471D01*
X337080Y67486D01*
X337072Y67515D01*
X337062Y67557D01*
X337055Y67604D01*
X337043Y67758D01*
X337041Y67848D01*
X337020Y67897D01*
Y84123D01*
X337481Y84314D01*
X340680Y81115D01*
Y79805D01*
X340659Y79758D01*
X340652Y79571D01*
X340646Y79511D01*
X340638Y79457D01*
X340628Y79415D01*
X340620Y79386D01*
X340614Y79371D01*
X340605Y79361D01*
X340602Y79352D01*
X340597Y79345D01*
X340594Y79328D01*
X340586Y79304D01*
X340302Y78879D01*
X340187Y78300D01*
X340302Y77721D01*
X340630Y77230D01*
X341121Y76902D01*
X341700Y76787D01*
X342279Y76902D01*
X342770Y77230D01*
X343098Y77721D01*
X343213Y78300D01*
X343098Y78879D01*
X342814Y79304D01*
X342806Y79328D01*
X342803Y79345D01*
X342798Y79352D01*
X342795Y79361D01*
X342786Y79371D01*
X342780Y79386D01*
X342772Y79415D01*
X342762Y79457D01*
X342755Y79504D01*
X342743Y79658D01*
X342741Y79748D01*
X342720Y79797D01*
Y81538D01*
X342642Y81928D01*
X342421Y82259D01*
X322759Y101921D01*
X322428Y102142D01*
X322038Y102220D01*
X308760D01*
X292759Y118221D01*
X292428Y118442D01*
X292038Y118520D01*
X290505D01*
X290458Y118541D01*
X290271Y118548D01*
X290211Y118554D01*
X290157Y118562D01*
X290115Y118572D01*
X290086Y118580D01*
X290071Y118586D01*
X290061Y118595D01*
X290052Y118598D01*
X290045Y118603D01*
X290028Y118606D01*
X290004Y118614D01*
X289579Y118898D01*
X289000Y119013D01*
D02*
G37*
G36*
X289300Y134913D02*
X288721Y134798D01*
X288230Y134470D01*
X287902Y133979D01*
X287787Y133400D01*
X287902Y132821D01*
X288230Y132330D01*
X288721Y132002D01*
X289300Y131887D01*
X289879Y132002D01*
X290304Y132286D01*
X290328Y132294D01*
X290345Y132297D01*
X290352Y132302D01*
X290361Y132305D01*
X290371Y132314D01*
X290386Y132320D01*
X290415Y132328D01*
X290457Y132338D01*
X290504Y132345D01*
X290658Y132357D01*
X290748Y132359D01*
X290797Y132380D01*
X298525D01*
X314927Y115979D01*
X315258Y115758D01*
X315648Y115680D01*
X323909D01*
X323949Y115620D01*
X323682Y115120D01*
X312441D01*
X297540Y130021D01*
X297209Y130242D01*
X296819Y130320D01*
X290805D01*
X290758Y130341D01*
X290571Y130348D01*
X290511Y130354D01*
X290457Y130362D01*
X290415Y130372D01*
X290386Y130380D01*
X290371Y130386D01*
X290361Y130395D01*
X290352Y130398D01*
X290345Y130403D01*
X290328Y130406D01*
X290304Y130414D01*
X289879Y130698D01*
X289300Y130813D01*
X288721Y130698D01*
X288230Y130370D01*
X287902Y129879D01*
X287787Y129300D01*
X287902Y128721D01*
X288230Y128230D01*
X288721Y127902D01*
X289300Y127787D01*
X289879Y127902D01*
X290304Y128186D01*
X290328Y128194D01*
X290345Y128197D01*
X290352Y128202D01*
X290361Y128205D01*
X290371Y128214D01*
X290386Y128220D01*
X290415Y128228D01*
X290457Y128238D01*
X290504Y128245D01*
X290658Y128257D01*
X290748Y128259D01*
X290797Y128280D01*
X296397D01*
X311298Y113379D01*
X311629Y113158D01*
X312019Y113080D01*
X323796D01*
X323837Y113020D01*
X323570Y112520D01*
X309724D01*
X296223Y126021D01*
X295892Y126242D01*
X295502Y126320D01*
X290805D01*
X290758Y126341D01*
X290571Y126348D01*
X290511Y126354D01*
X290457Y126362D01*
X290415Y126372D01*
X290386Y126380D01*
X290371Y126386D01*
X290361Y126395D01*
X290352Y126398D01*
X290345Y126403D01*
X290328Y126406D01*
X290304Y126414D01*
X289879Y126698D01*
X289300Y126813D01*
X288721Y126698D01*
X288230Y126370D01*
X287902Y125879D01*
X287787Y125300D01*
X287902Y124721D01*
X288230Y124230D01*
X288721Y123902D01*
X289300Y123787D01*
X289879Y123902D01*
X290304Y124186D01*
X290328Y124194D01*
X290345Y124197D01*
X290352Y124202D01*
X290361Y124205D01*
X290371Y124214D01*
X290386Y124220D01*
X290415Y124228D01*
X290457Y124238D01*
X290504Y124245D01*
X290658Y124257D01*
X290748Y124259D01*
X290797Y124280D01*
X295080D01*
X308581Y110779D01*
X308912Y110558D01*
X309302Y110480D01*
X324176D01*
X324217Y110420D01*
X323950Y109920D01*
X308122D01*
X295821Y122221D01*
X295490Y122442D01*
X295100Y122520D01*
X290705D01*
X290658Y122541D01*
X290471Y122548D01*
X290411Y122554D01*
X290357Y122562D01*
X290315Y122572D01*
X290286Y122580D01*
X290271Y122586D01*
X290261Y122595D01*
X290252Y122598D01*
X290245Y122603D01*
X290228Y122606D01*
X290204Y122614D01*
X289779Y122898D01*
X289200Y123013D01*
X288621Y122898D01*
X288130Y122570D01*
X287802Y122079D01*
X287687Y121500D01*
X287802Y120921D01*
X288130Y120430D01*
X288621Y120102D01*
X289200Y119987D01*
X289779Y120102D01*
X290204Y120386D01*
X290228Y120394D01*
X290245Y120397D01*
X290252Y120402D01*
X290261Y120405D01*
X290271Y120414D01*
X290286Y120420D01*
X290315Y120428D01*
X290357Y120438D01*
X290404Y120445D01*
X290558Y120457D01*
X290648Y120459D01*
X290697Y120480D01*
X294678D01*
X306979Y108179D01*
X307310Y107958D01*
X307700Y107880D01*
X324978D01*
X336370Y96488D01*
X336380Y96453D01*
X336403Y96440D01*
X336413Y96415D01*
X336477Y96347D01*
X336521Y96297D01*
X336542Y96270D01*
X336428Y95700D01*
X336544Y95121D01*
X336872Y94630D01*
X337363Y94302D01*
X337942Y94187D01*
X338459Y94290D01*
X338538Y94291D01*
X338986Y94011D01*
X339044Y93721D01*
X339372Y93230D01*
X339863Y92902D01*
X340442Y92787D01*
X341021Y92902D01*
X341512Y93230D01*
X341840Y93721D01*
X341898Y94011D01*
X342346Y94291D01*
X342424Y94290D01*
X342942Y94187D01*
X343419Y94282D01*
X343542Y94287D01*
X343949Y93987D01*
X344002Y93721D01*
X344330Y93230D01*
X344821Y92902D01*
X345400Y92787D01*
X345979Y92902D01*
X346470Y93230D01*
X346798Y93721D01*
X346913Y94300D01*
X346798Y94879D01*
X346514Y95304D01*
X346506Y95328D01*
X346503Y95345D01*
X346498Y95352D01*
X346495Y95361D01*
X346486Y95371D01*
X346480Y95386D01*
X346472Y95415D01*
X346462Y95457D01*
X346455Y95504D01*
X346443Y95658D01*
X346441Y95748D01*
X346420Y95797D01*
Y96086D01*
X346342Y96476D01*
X346121Y96807D01*
X325507Y117421D01*
X325176Y117642D01*
X324786Y117720D01*
X316070D01*
X315245Y118545D01*
X315424Y119073D01*
X315974Y119145D01*
X316935Y119543D01*
X317761Y120177D01*
X318394Y121003D01*
X318793Y121964D01*
X318863Y122496D01*
X314942D01*
Y122996D01*
X314442D01*
Y126917D01*
X313910Y126847D01*
X312948Y126449D01*
X312123Y125815D01*
X311489Y124989D01*
X311091Y124028D01*
X311018Y123478D01*
X310490Y123299D01*
X299669Y134121D01*
X299338Y134342D01*
X298948Y134420D01*
X290805D01*
X290758Y134441D01*
X290571Y134448D01*
X290511Y134454D01*
X290457Y134462D01*
X290415Y134472D01*
X290386Y134480D01*
X290371Y134486D01*
X290361Y134495D01*
X290352Y134498D01*
X290345Y134503D01*
X290328Y134506D01*
X290304Y134514D01*
X289879Y134798D01*
X289300Y134913D01*
D02*
G37*
G36*
X340123Y164809D02*
X339544Y164694D01*
X339053Y164366D01*
X338725Y163875D01*
X338610Y163296D01*
X338725Y162717D01*
X339009Y162292D01*
X339017Y162268D01*
X339020Y162251D01*
X339025Y162244D01*
X339028Y162235D01*
X339037Y162225D01*
X339043Y162210D01*
X339051Y162181D01*
X339061Y162139D01*
X339068Y162092D01*
X339080Y161938D01*
X339082Y161848D01*
X339103Y161799D01*
Y146501D01*
X339082Y146454D01*
X339075Y146266D01*
X339069Y146207D01*
X339061Y146153D01*
X339051Y146111D01*
X339043Y146082D01*
X339037Y146067D01*
X339028Y146057D01*
X339025Y146048D01*
X339020Y146041D01*
X339017Y146024D01*
X339009Y146000D01*
X338725Y145575D01*
X338610Y144996D01*
X338655Y144769D01*
X338650Y144751D01*
X338648Y144747D01*
X338648Y144747D01*
X338648Y144747D01*
X338641Y144736D01*
X338638Y144721D01*
X338634Y144711D01*
X338634Y144707D01*
X338633Y144702D01*
X338619Y144678D01*
X338600Y144649D01*
X338511Y144540D01*
X338452Y144478D01*
X338433Y144429D01*
X338382Y144378D01*
X338371Y144370D01*
X338371Y144367D01*
X337363Y143359D01*
X337141Y143028D01*
X337064Y142638D01*
Y138965D01*
X337042Y138917D01*
X337020Y137904D01*
X336955Y137087D01*
X336909Y136760D01*
X336854Y136480D01*
X336793Y136255D01*
X336730Y136088D01*
X336674Y135983D01*
X336598Y135886D01*
X336588Y135853D01*
X336199Y135271D01*
X336044Y134490D01*
Y117535D01*
X336199Y116755D01*
X336642Y116094D01*
X338500Y114235D01*
X339161Y113793D01*
X339942Y113638D01*
X340722Y113793D01*
X341384Y114235D01*
X341826Y114897D01*
X341981Y115677D01*
X341826Y116458D01*
X341384Y117119D01*
X340123Y118380D01*
Y134490D01*
X339967Y135271D01*
X339579Y135853D01*
X339569Y135886D01*
X339493Y135983D01*
X339437Y136088D01*
X339374Y136255D01*
X339313Y136480D01*
X339261Y136744D01*
X339130Y138393D01*
X339125Y138910D01*
X339103Y138961D01*
Y142215D01*
X340076Y143188D01*
X340127Y143209D01*
X340198Y143278D01*
X340321Y143391D01*
X340422Y143473D01*
X340453Y143495D01*
X340477Y143510D01*
X340486Y143515D01*
X340494Y143517D01*
X340498Y143520D01*
X340512Y143526D01*
X340537Y143552D01*
X340558Y143569D01*
X340702Y143598D01*
X341193Y143926D01*
X341521Y144417D01*
X341636Y144996D01*
X341521Y145575D01*
X341237Y146000D01*
X341229Y146024D01*
X341226Y146041D01*
X341221Y146048D01*
X341218Y146057D01*
X341209Y146067D01*
X341203Y146082D01*
X341195Y146111D01*
X341185Y146153D01*
X341178Y146200D01*
X341166Y146354D01*
X341164Y146444D01*
X341143Y146493D01*
Y161791D01*
X341164Y161838D01*
X341171Y162025D01*
X341177Y162085D01*
X341185Y162139D01*
X341195Y162181D01*
X341203Y162210D01*
X341209Y162225D01*
X341218Y162235D01*
X341221Y162244D01*
X341226Y162251D01*
X341229Y162268D01*
X341237Y162292D01*
X341521Y162717D01*
X341636Y163296D01*
X341521Y163875D01*
X341193Y164366D01*
X340702Y164694D01*
X340123Y164809D01*
D02*
G37*
G36*
X353842Y144509D02*
X353263Y144394D01*
X352772Y144066D01*
X352444Y143575D01*
X352344Y143074D01*
X352333Y143052D01*
X352323Y143037D01*
X352322Y143028D01*
X352317Y143020D01*
X352317Y143007D01*
X352310Y142992D01*
X352296Y142965D01*
X352273Y142929D01*
X352244Y142890D01*
X352144Y142773D01*
X352082Y142708D01*
X352062Y142658D01*
X349890Y140487D01*
X349669Y140156D01*
X349592Y139766D01*
Y111570D01*
X349570Y111524D01*
X349564Y111336D01*
X349557Y111276D01*
X349549Y111222D01*
X349540Y111180D01*
X349531Y111151D01*
X349525Y111136D01*
X349517Y111126D01*
X349513Y111118D01*
X349508Y111110D01*
X349505Y111093D01*
X349497Y111069D01*
X349213Y110645D01*
X349098Y110065D01*
X349213Y109486D01*
X349541Y108995D01*
X350032Y108667D01*
X350611Y108552D01*
X351190Y108667D01*
X351681Y108995D01*
X352009Y109486D01*
X352125Y110065D01*
X352009Y110645D01*
X351726Y111069D01*
X351717Y111093D01*
X351714Y111110D01*
X351709Y111118D01*
X351706Y111126D01*
X351697Y111136D01*
X351692Y111151D01*
X351683Y111180D01*
X351674Y111222D01*
X351666Y111270D01*
X351654Y111424D01*
X351652Y111513D01*
X351631Y111563D01*
Y139343D01*
X353499Y141211D01*
X353547Y141229D01*
X353684Y141357D01*
X353731Y141395D01*
X353775Y141427D01*
X353811Y141450D01*
X353838Y141464D01*
X353853Y141471D01*
X353866Y141472D01*
X353874Y141476D01*
X353883Y141478D01*
X353897Y141487D01*
X353920Y141498D01*
X354421Y141598D01*
X354912Y141926D01*
X355240Y142417D01*
X355355Y142996D01*
X355240Y143575D01*
X354912Y144066D01*
X354421Y144394D01*
X353842Y144509D01*
D02*
G37*
G36*
X391599Y107978D02*
X390698Y107860D01*
X389858Y107512D01*
X389137Y106958D01*
X388583Y106237D01*
X388235Y105397D01*
X388117Y104496D01*
X388235Y103595D01*
X388583Y102755D01*
X389137Y102033D01*
X389858Y101480D01*
X390698Y101132D01*
X391599Y101014D01*
X392501Y101132D01*
X393340Y101480D01*
X394062Y102033D01*
X394615Y102755D01*
X394963Y103595D01*
X395082Y104496D01*
X394963Y105397D01*
X394615Y106237D01*
X394062Y106958D01*
X393340Y107512D01*
X392501Y107860D01*
X391599Y107978D01*
D02*
G37*
G36*
X381599D02*
X380698Y107860D01*
X379858Y107512D01*
X379137Y106958D01*
X378583Y106237D01*
X378235Y105397D01*
X378117Y104496D01*
X378235Y103595D01*
X378583Y102755D01*
X379137Y102033D01*
X379858Y101480D01*
X380698Y101132D01*
X381599Y101014D01*
X382501Y101132D01*
X383341Y101480D01*
X384062Y102033D01*
X384615Y102755D01*
X384963Y103595D01*
X385082Y104496D01*
X384963Y105397D01*
X384615Y106237D01*
X384062Y106958D01*
X383341Y107512D01*
X382501Y107860D01*
X381599Y107978D01*
D02*
G37*
G36*
X-5605Y97949D02*
X-8058D01*
Y95455D01*
X-2677D01*
X-2713Y95730D01*
X-3012Y96452D01*
X-3488Y97072D01*
X-4108Y97548D01*
X-4830Y97847D01*
X-5605Y97949D01*
D02*
G37*
G36*
X-9058D02*
X-11511D01*
X-12286Y97847D01*
X-13008Y97548D01*
X-13628Y97072D01*
X-14104Y96452D01*
X-14403Y95730D01*
X-14439Y95455D01*
X-9058D01*
Y97949D01*
D02*
G37*
G36*
X-20290D02*
X-21365D01*
Y95455D01*
X-17362D01*
X-17398Y95730D01*
X-17697Y96452D01*
X-18173Y97072D01*
X-18793Y97548D01*
X-19515Y97847D01*
X-20290Y97949D01*
D02*
G37*
G36*
X-22365D02*
X-23440D01*
X-24215Y97847D01*
X-24937Y97548D01*
X-25557Y97072D01*
X-26033Y96452D01*
X-26332Y95730D01*
X-26368Y95455D01*
X-22365D01*
Y97949D01*
D02*
G37*
G36*
X-17362Y94455D02*
X-21365D01*
Y91961D01*
X-20290D01*
X-19515Y92063D01*
X-18793Y92362D01*
X-18173Y92838D01*
X-17697Y93458D01*
X-17398Y94180D01*
X-17362Y94455D01*
D02*
G37*
G36*
X-22365D02*
X-26368D01*
X-26332Y94180D01*
X-26033Y93458D01*
X-25557Y92838D01*
X-24937Y92362D01*
X-24215Y92063D01*
X-23440Y91961D01*
X-22365D01*
Y94455D01*
D02*
G37*
G36*
X391599Y97979D02*
X390698Y97860D01*
X389858Y97512D01*
X389137Y96959D01*
X388583Y96237D01*
X388235Y95397D01*
X388117Y94496D01*
X388235Y93595D01*
X388583Y92755D01*
X389137Y92033D01*
X389858Y91480D01*
X390698Y91132D01*
X391599Y91013D01*
X392501Y91132D01*
X393340Y91480D01*
X394062Y92033D01*
X394615Y92755D01*
X394963Y93595D01*
X395082Y94496D01*
X394963Y95397D01*
X394615Y96237D01*
X394062Y96959D01*
X393340Y97512D01*
X392501Y97860D01*
X391599Y97979D01*
D02*
G37*
G36*
X381599D02*
X380698Y97860D01*
X379858Y97512D01*
X379137Y96959D01*
X378583Y96237D01*
X378235Y95397D01*
X378117Y94496D01*
X378235Y93595D01*
X378583Y92755D01*
X379137Y92033D01*
X379858Y91480D01*
X380698Y91132D01*
X381599Y91013D01*
X382501Y91132D01*
X383341Y91480D01*
X384062Y92033D01*
X384615Y92755D01*
X384963Y93595D01*
X385082Y94496D01*
X384963Y95397D01*
X384615Y96237D01*
X384062Y96959D01*
X383341Y97512D01*
X382501Y97860D01*
X381599Y97979D01*
D02*
G37*
G36*
X59069Y97180D02*
X58218Y97068D01*
X57427Y96740D01*
X56746Y96218D01*
X56225Y95538D01*
X55896Y94746D01*
X55784Y93896D01*
X55896Y93046D01*
X56225Y92254D01*
X56746Y91574D01*
X57427Y91052D01*
X58218Y90724D01*
X59069Y90612D01*
X59918Y90724D01*
X60711Y91052D01*
X61391Y91574D01*
X61913Y92254D01*
X62241Y93046D01*
X62353Y93896D01*
X62241Y94746D01*
X61913Y95538D01*
X61391Y96218D01*
X60711Y96740D01*
X59918Y97068D01*
X59069Y97180D01*
D02*
G37*
G36*
X33569Y96680D02*
X32719Y96568D01*
X31927Y96240D01*
X31246Y95718D01*
X30724Y95038D01*
X30396Y94246D01*
X30285Y93396D01*
X30396Y92546D01*
X30724Y91754D01*
X31246Y91074D01*
X31927Y90552D01*
X32719Y90224D01*
X33569Y90112D01*
X34418Y90224D01*
X35210Y90552D01*
X35891Y91074D01*
X36413Y91754D01*
X36741Y92546D01*
X36852Y93396D01*
X36741Y94246D01*
X36413Y95038D01*
X35891Y95718D01*
X35210Y96240D01*
X34418Y96568D01*
X33569Y96680D01*
D02*
G37*
G36*
X290895Y96449D02*
X283989D01*
Y89543D01*
X290895D01*
Y96449D01*
D02*
G37*
G36*
X210894D02*
X203989D01*
Y89543D01*
X210894D01*
Y96449D01*
D02*
G37*
G36*
X277442Y96478D02*
X276540Y96360D01*
X275700Y96012D01*
X274979Y95459D01*
X274426Y94737D01*
X274078Y93897D01*
X273959Y92996D01*
X274078Y92095D01*
X274426Y91255D01*
X274979Y90534D01*
X275700Y89980D01*
X276540Y89632D01*
X277442Y89513D01*
X278343Y89632D01*
X279183Y89980D01*
X279904Y90534D01*
X280458Y91255D01*
X280806Y92095D01*
X280924Y92996D01*
X280806Y93897D01*
X280458Y94737D01*
X279904Y95459D01*
X279183Y96012D01*
X278343Y96360D01*
X277442Y96478D01*
D02*
G37*
G36*
X267442D02*
X266540Y96360D01*
X265701Y96012D01*
X264979Y95459D01*
X264426Y94737D01*
X264078Y93897D01*
X263959Y92996D01*
X264078Y92095D01*
X264426Y91255D01*
X264979Y90534D01*
X265701Y89980D01*
X266540Y89632D01*
X267442Y89513D01*
X268343Y89632D01*
X269183Y89980D01*
X269904Y90534D01*
X270458Y91255D01*
X270806Y92095D01*
X270924Y92996D01*
X270806Y93897D01*
X270458Y94737D01*
X269904Y95459D01*
X269183Y96012D01*
X268343Y96360D01*
X267442Y96478D01*
D02*
G37*
G36*
X257442D02*
X256540Y96360D01*
X255700Y96012D01*
X254979Y95459D01*
X254426Y94737D01*
X254078Y93897D01*
X253959Y92996D01*
X254078Y92095D01*
X254426Y91255D01*
X254979Y90534D01*
X255700Y89980D01*
X256540Y89632D01*
X257442Y89513D01*
X258343Y89632D01*
X259183Y89980D01*
X259904Y90534D01*
X260458Y91255D01*
X260806Y92095D01*
X260924Y92996D01*
X260806Y93897D01*
X260458Y94737D01*
X259904Y95459D01*
X259183Y96012D01*
X258343Y96360D01*
X257442Y96478D01*
D02*
G37*
G36*
X247442D02*
X246540Y96360D01*
X245701Y96012D01*
X244979Y95459D01*
X244426Y94737D01*
X244078Y93897D01*
X243959Y92996D01*
X244078Y92095D01*
X244426Y91255D01*
X244979Y90534D01*
X245701Y89980D01*
X246540Y89632D01*
X247442Y89513D01*
X248343Y89632D01*
X249183Y89980D01*
X249904Y90534D01*
X250458Y91255D01*
X250806Y92095D01*
X250924Y92996D01*
X250806Y93897D01*
X250458Y94737D01*
X249904Y95459D01*
X249183Y96012D01*
X248343Y96360D01*
X247442Y96478D01*
D02*
G37*
G36*
X237442D02*
X236540Y96360D01*
X235700Y96012D01*
X234979Y95459D01*
X234426Y94737D01*
X234078Y93897D01*
X233959Y92996D01*
X234078Y92095D01*
X234426Y91255D01*
X234979Y90534D01*
X235700Y89980D01*
X236540Y89632D01*
X237442Y89513D01*
X238343Y89632D01*
X239183Y89980D01*
X239904Y90534D01*
X240458Y91255D01*
X240806Y92095D01*
X240924Y92996D01*
X240806Y93897D01*
X240458Y94737D01*
X239904Y95459D01*
X239183Y96012D01*
X238343Y96360D01*
X237442Y96478D01*
D02*
G37*
G36*
X227442D02*
X226540Y96360D01*
X225700Y96012D01*
X224979Y95459D01*
X224426Y94737D01*
X224078Y93897D01*
X223959Y92996D01*
X224078Y92095D01*
X224426Y91255D01*
X224979Y90534D01*
X225700Y89980D01*
X226540Y89632D01*
X227442Y89513D01*
X228343Y89632D01*
X229183Y89980D01*
X229904Y90534D01*
X230458Y91255D01*
X230806Y92095D01*
X230924Y92996D01*
X230806Y93897D01*
X230458Y94737D01*
X229904Y95459D01*
X229183Y96012D01*
X228343Y96360D01*
X227442Y96478D01*
D02*
G37*
G36*
X217442D02*
X216540Y96360D01*
X215701Y96012D01*
X214979Y95459D01*
X214426Y94737D01*
X214078Y93897D01*
X213959Y92996D01*
X214078Y92095D01*
X214426Y91255D01*
X214979Y90534D01*
X215701Y89980D01*
X216540Y89632D01*
X217442Y89513D01*
X218343Y89632D01*
X219183Y89980D01*
X219904Y90534D01*
X220458Y91255D01*
X220806Y92095D01*
X220924Y92996D01*
X220806Y93897D01*
X220458Y94737D01*
X219904Y95459D01*
X219183Y96012D01*
X218343Y96360D01*
X217442Y96478D01*
D02*
G37*
G36*
X197442D02*
X196540Y96360D01*
X195701Y96012D01*
X194979Y95459D01*
X194426Y94737D01*
X194078Y93897D01*
X193959Y92996D01*
X194078Y92095D01*
X194426Y91255D01*
X194979Y90534D01*
X195701Y89980D01*
X196540Y89632D01*
X197442Y89513D01*
X198343Y89632D01*
X199183Y89980D01*
X199904Y90534D01*
X200458Y91255D01*
X200806Y92095D01*
X200924Y92996D01*
X200806Y93897D01*
X200458Y94737D01*
X199904Y95459D01*
X199183Y96012D01*
X198343Y96360D01*
X197442Y96478D01*
D02*
G37*
G36*
X187442D02*
X186540Y96360D01*
X185701Y96012D01*
X184979Y95459D01*
X184426Y94737D01*
X184078Y93897D01*
X183959Y92996D01*
X184078Y92095D01*
X184426Y91255D01*
X184979Y90534D01*
X185701Y89980D01*
X186540Y89632D01*
X187442Y89513D01*
X188343Y89632D01*
X189183Y89980D01*
X189904Y90534D01*
X190458Y91255D01*
X190806Y92095D01*
X190924Y92996D01*
X190806Y93897D01*
X190458Y94737D01*
X189904Y95459D01*
X189183Y96012D01*
X188343Y96360D01*
X187442Y96478D01*
D02*
G37*
G36*
X177442D02*
X176540Y96360D01*
X175700Y96012D01*
X174979Y95459D01*
X174426Y94737D01*
X174078Y93897D01*
X173959Y92996D01*
X174078Y92095D01*
X174426Y91255D01*
X174979Y90534D01*
X175700Y89980D01*
X176540Y89632D01*
X177442Y89513D01*
X178343Y89632D01*
X179183Y89980D01*
X179904Y90534D01*
X180458Y91255D01*
X180806Y92095D01*
X180924Y92996D01*
X180806Y93897D01*
X180458Y94737D01*
X179904Y95459D01*
X179183Y96012D01*
X178343Y96360D01*
X177442Y96478D01*
D02*
G37*
G36*
X167442D02*
X166540Y96360D01*
X165700Y96012D01*
X164979Y95459D01*
X164426Y94737D01*
X164078Y93897D01*
X163959Y92996D01*
X164078Y92095D01*
X164426Y91255D01*
X164979Y90534D01*
X165700Y89980D01*
X166540Y89632D01*
X167442Y89513D01*
X168343Y89632D01*
X169183Y89980D01*
X169904Y90534D01*
X170458Y91255D01*
X170806Y92095D01*
X170924Y92996D01*
X170806Y93897D01*
X170458Y94737D01*
X169904Y95459D01*
X169183Y96012D01*
X168343Y96360D01*
X167442Y96478D01*
D02*
G37*
G36*
X157442D02*
X156540Y96360D01*
X155701Y96012D01*
X154979Y95459D01*
X154426Y94737D01*
X154078Y93897D01*
X153959Y92996D01*
X154078Y92095D01*
X154426Y91255D01*
X154979Y90534D01*
X155701Y89980D01*
X156540Y89632D01*
X157442Y89513D01*
X158343Y89632D01*
X159183Y89980D01*
X159904Y90534D01*
X160458Y91255D01*
X160806Y92095D01*
X160924Y92996D01*
X160806Y93897D01*
X160458Y94737D01*
X159904Y95459D01*
X159183Y96012D01*
X158343Y96360D01*
X157442Y96478D01*
D02*
G37*
G36*
X147442D02*
X146540Y96360D01*
X145701Y96012D01*
X144979Y95459D01*
X144426Y94737D01*
X144078Y93897D01*
X143959Y92996D01*
X144078Y92095D01*
X144426Y91255D01*
X144979Y90534D01*
X145701Y89980D01*
X146540Y89632D01*
X147442Y89513D01*
X148343Y89632D01*
X149183Y89980D01*
X149904Y90534D01*
X150458Y91255D01*
X150806Y92095D01*
X150924Y92996D01*
X150806Y93897D01*
X150458Y94737D01*
X149904Y95459D01*
X149183Y96012D01*
X148343Y96360D01*
X147442Y96478D01*
D02*
G37*
G36*
X137442D02*
X136540Y96360D01*
X135701Y96012D01*
X134979Y95459D01*
X134426Y94737D01*
X134078Y93897D01*
X133959Y92996D01*
X134078Y92095D01*
X134426Y91255D01*
X134979Y90534D01*
X135701Y89980D01*
X136540Y89632D01*
X137442Y89513D01*
X138343Y89632D01*
X139183Y89980D01*
X139904Y90534D01*
X140458Y91255D01*
X140806Y92095D01*
X140924Y92996D01*
X140806Y93897D01*
X140458Y94737D01*
X139904Y95459D01*
X139183Y96012D01*
X138343Y96360D01*
X137442Y96478D01*
D02*
G37*
G36*
X391599Y87979D02*
X390698Y87860D01*
X389858Y87512D01*
X389137Y86958D01*
X388583Y86237D01*
X388235Y85397D01*
X388117Y84496D01*
X388235Y83595D01*
X388583Y82755D01*
X389137Y82033D01*
X389858Y81480D01*
X390698Y81132D01*
X391599Y81014D01*
X392501Y81132D01*
X393340Y81480D01*
X394062Y82033D01*
X394615Y82755D01*
X394963Y83595D01*
X395082Y84496D01*
X394963Y85397D01*
X394615Y86237D01*
X394062Y86958D01*
X393340Y87512D01*
X392501Y87860D01*
X391599Y87979D01*
D02*
G37*
G36*
X381599D02*
X380698Y87860D01*
X379858Y87512D01*
X379137Y86958D01*
X378583Y86237D01*
X378235Y85397D01*
X378117Y84496D01*
X378235Y83595D01*
X378583Y82755D01*
X379137Y82033D01*
X379858Y81480D01*
X380698Y81132D01*
X381599Y81014D01*
X382501Y81132D01*
X383341Y81480D01*
X384062Y82033D01*
X384615Y82755D01*
X384963Y83595D01*
X385082Y84496D01*
X384963Y85397D01*
X384615Y86237D01*
X384062Y86958D01*
X383341Y87512D01*
X382501Y87860D01*
X381599Y87979D01*
D02*
G37*
G36*
X361000Y95013D02*
X360421Y94898D01*
X359930Y94570D01*
X359602Y94079D01*
X359487Y93500D01*
X359602Y92921D01*
X359930Y92430D01*
X360307Y92178D01*
X360343Y92026D01*
Y91774D01*
X360307Y91622D01*
X359930Y91370D01*
X359602Y90879D01*
X359487Y90300D01*
X359602Y89721D01*
X359930Y89230D01*
X359946Y89219D01*
X359946Y89219D01*
X359950Y89202D01*
X359955Y89195D01*
X359959Y89187D01*
X359968Y89177D01*
X359974Y89162D01*
X359984Y89134D01*
X359996Y89092D01*
X360006Y89045D01*
X360025Y88892D01*
X360031Y88803D01*
X360055Y88754D01*
X360208Y85653D01*
X360189Y85605D01*
X360191Y85417D01*
X360188Y85357D01*
X360182Y85303D01*
X360175Y85261D01*
X360168Y85231D01*
X360163Y85216D01*
X360154Y85206D01*
X360152Y85197D01*
X360147Y85189D01*
X360145Y85172D01*
X360130Y85120D01*
X359902Y84779D01*
X359787Y84200D01*
X359902Y83621D01*
X360230Y83130D01*
X360721Y82802D01*
X361300Y82687D01*
X361775Y82781D01*
X362110Y82570D01*
X362239Y82441D01*
X362344Y81917D01*
X362672Y81426D01*
X363163Y81098D01*
X363742Y80983D01*
X364321Y81098D01*
X364812Y81426D01*
X365140Y81917D01*
X365255Y82496D01*
X365140Y83075D01*
X364856Y83500D01*
X364848Y83524D01*
X364844Y83541D01*
X364840Y83548D01*
X364837Y83557D01*
X364828Y83567D01*
X364822Y83582D01*
X364813Y83611D01*
X364804Y83653D01*
X364797Y83700D01*
X364784Y83854D01*
X364783Y83944D01*
X364761Y83993D01*
Y90758D01*
X364684Y91149D01*
X364463Y91479D01*
X362785Y93157D01*
X362767Y93205D01*
X362639Y93343D01*
X362601Y93389D01*
X362569Y93433D01*
X362546Y93469D01*
X362532Y93496D01*
X362525Y93511D01*
X362524Y93524D01*
X362520Y93532D01*
X362519Y93541D01*
X362509Y93555D01*
X362498Y93578D01*
X362398Y94079D01*
X362070Y94570D01*
X361579Y94898D01*
X361000Y95013D01*
D02*
G37*
G36*
X287442Y86479D02*
X286540Y86360D01*
X285700Y86012D01*
X284979Y85458D01*
X284426Y84737D01*
X284078Y83897D01*
X283959Y82996D01*
X284078Y82095D01*
X284426Y81255D01*
X284979Y80533D01*
X285700Y79980D01*
X286540Y79632D01*
X287442Y79514D01*
X288343Y79632D01*
X289183Y79980D01*
X289904Y80533D01*
X290458Y81255D01*
X290806Y82095D01*
X290924Y82996D01*
X290806Y83897D01*
X290458Y84737D01*
X289904Y85458D01*
X289183Y86012D01*
X288343Y86360D01*
X287442Y86479D01*
D02*
G37*
G36*
X277442D02*
X276540Y86360D01*
X275700Y86012D01*
X274979Y85458D01*
X274426Y84737D01*
X274078Y83897D01*
X273959Y82996D01*
X274078Y82095D01*
X274426Y81255D01*
X274979Y80533D01*
X275700Y79980D01*
X276540Y79632D01*
X277442Y79514D01*
X278343Y79632D01*
X279183Y79980D01*
X279904Y80533D01*
X280458Y81255D01*
X280806Y82095D01*
X280924Y82996D01*
X280806Y83897D01*
X280458Y84737D01*
X279904Y85458D01*
X279183Y86012D01*
X278343Y86360D01*
X277442Y86479D01*
D02*
G37*
G36*
X267442D02*
X266540Y86360D01*
X265701Y86012D01*
X264979Y85458D01*
X264426Y84737D01*
X264078Y83897D01*
X263959Y82996D01*
X264078Y82095D01*
X264426Y81255D01*
X264979Y80533D01*
X265701Y79980D01*
X266540Y79632D01*
X267442Y79514D01*
X268343Y79632D01*
X269183Y79980D01*
X269904Y80533D01*
X270458Y81255D01*
X270806Y82095D01*
X270924Y82996D01*
X270806Y83897D01*
X270458Y84737D01*
X269904Y85458D01*
X269183Y86012D01*
X268343Y86360D01*
X267442Y86479D01*
D02*
G37*
G36*
X257442D02*
X256540Y86360D01*
X255700Y86012D01*
X254979Y85458D01*
X254426Y84737D01*
X254078Y83897D01*
X253959Y82996D01*
X254078Y82095D01*
X254426Y81255D01*
X254979Y80533D01*
X255700Y79980D01*
X256540Y79632D01*
X257442Y79514D01*
X258343Y79632D01*
X259183Y79980D01*
X259904Y80533D01*
X260458Y81255D01*
X260806Y82095D01*
X260924Y82996D01*
X260806Y83897D01*
X260458Y84737D01*
X259904Y85458D01*
X259183Y86012D01*
X258343Y86360D01*
X257442Y86479D01*
D02*
G37*
G36*
X247442D02*
X246540Y86360D01*
X245701Y86012D01*
X244979Y85458D01*
X244426Y84737D01*
X244078Y83897D01*
X243959Y82996D01*
X244078Y82095D01*
X244426Y81255D01*
X244979Y80533D01*
X245701Y79980D01*
X246540Y79632D01*
X247442Y79514D01*
X248343Y79632D01*
X249183Y79980D01*
X249904Y80533D01*
X250458Y81255D01*
X250806Y82095D01*
X250924Y82996D01*
X250806Y83897D01*
X250458Y84737D01*
X249904Y85458D01*
X249183Y86012D01*
X248343Y86360D01*
X247442Y86479D01*
D02*
G37*
G36*
X237442D02*
X236540Y86360D01*
X235700Y86012D01*
X234979Y85458D01*
X234426Y84737D01*
X234078Y83897D01*
X233959Y82996D01*
X234078Y82095D01*
X234426Y81255D01*
X234979Y80533D01*
X235700Y79980D01*
X236540Y79632D01*
X237442Y79514D01*
X238343Y79632D01*
X239183Y79980D01*
X239904Y80533D01*
X240458Y81255D01*
X240806Y82095D01*
X240924Y82996D01*
X240806Y83897D01*
X240458Y84737D01*
X239904Y85458D01*
X239183Y86012D01*
X238343Y86360D01*
X237442Y86479D01*
D02*
G37*
G36*
X227442D02*
X226540Y86360D01*
X225700Y86012D01*
X224979Y85458D01*
X224426Y84737D01*
X224078Y83897D01*
X223959Y82996D01*
X224078Y82095D01*
X224426Y81255D01*
X224979Y80533D01*
X225700Y79980D01*
X226540Y79632D01*
X227442Y79514D01*
X228343Y79632D01*
X229183Y79980D01*
X229904Y80533D01*
X230458Y81255D01*
X230806Y82095D01*
X230924Y82996D01*
X230806Y83897D01*
X230458Y84737D01*
X229904Y85458D01*
X229183Y86012D01*
X228343Y86360D01*
X227442Y86479D01*
D02*
G37*
G36*
X217442D02*
X216540Y86360D01*
X215701Y86012D01*
X214979Y85458D01*
X214426Y84737D01*
X214078Y83897D01*
X213959Y82996D01*
X214078Y82095D01*
X214426Y81255D01*
X214979Y80533D01*
X215701Y79980D01*
X216540Y79632D01*
X217442Y79514D01*
X218343Y79632D01*
X219183Y79980D01*
X219904Y80533D01*
X220458Y81255D01*
X220806Y82095D01*
X220924Y82996D01*
X220806Y83897D01*
X220458Y84737D01*
X219904Y85458D01*
X219183Y86012D01*
X218343Y86360D01*
X217442Y86479D01*
D02*
G37*
G36*
X207442D02*
X206540Y86360D01*
X205700Y86012D01*
X204979Y85458D01*
X204426Y84737D01*
X204078Y83897D01*
X203959Y82996D01*
X204078Y82095D01*
X204426Y81255D01*
X204979Y80533D01*
X205700Y79980D01*
X206540Y79632D01*
X207442Y79514D01*
X208343Y79632D01*
X209183Y79980D01*
X209904Y80533D01*
X210458Y81255D01*
X210806Y82095D01*
X210924Y82996D01*
X210806Y83897D01*
X210458Y84737D01*
X209904Y85458D01*
X209183Y86012D01*
X208343Y86360D01*
X207442Y86479D01*
D02*
G37*
G36*
X197442D02*
X196540Y86360D01*
X195701Y86012D01*
X194979Y85458D01*
X194426Y84737D01*
X194078Y83897D01*
X193959Y82996D01*
X194078Y82095D01*
X194426Y81255D01*
X194979Y80533D01*
X195701Y79980D01*
X196540Y79632D01*
X197442Y79514D01*
X198343Y79632D01*
X199183Y79980D01*
X199904Y80533D01*
X200458Y81255D01*
X200806Y82095D01*
X200924Y82996D01*
X200806Y83897D01*
X200458Y84737D01*
X199904Y85458D01*
X199183Y86012D01*
X198343Y86360D01*
X197442Y86479D01*
D02*
G37*
G36*
X187442D02*
X186540Y86360D01*
X185701Y86012D01*
X184979Y85458D01*
X184426Y84737D01*
X184078Y83897D01*
X183959Y82996D01*
X184078Y82095D01*
X184426Y81255D01*
X184979Y80533D01*
X185701Y79980D01*
X186540Y79632D01*
X187442Y79514D01*
X188343Y79632D01*
X189183Y79980D01*
X189904Y80533D01*
X190458Y81255D01*
X190806Y82095D01*
X190924Y82996D01*
X190806Y83897D01*
X190458Y84737D01*
X189904Y85458D01*
X189183Y86012D01*
X188343Y86360D01*
X187442Y86479D01*
D02*
G37*
G36*
X177442D02*
X176540Y86360D01*
X175700Y86012D01*
X174979Y85458D01*
X174426Y84737D01*
X174078Y83897D01*
X173959Y82996D01*
X174078Y82095D01*
X174426Y81255D01*
X174979Y80533D01*
X175700Y79980D01*
X176540Y79632D01*
X177442Y79514D01*
X178343Y79632D01*
X179183Y79980D01*
X179904Y80533D01*
X180458Y81255D01*
X180806Y82095D01*
X180924Y82996D01*
X180806Y83897D01*
X180458Y84737D01*
X179904Y85458D01*
X179183Y86012D01*
X178343Y86360D01*
X177442Y86479D01*
D02*
G37*
G36*
X167442D02*
X166540Y86360D01*
X165700Y86012D01*
X164979Y85458D01*
X164426Y84737D01*
X164078Y83897D01*
X163959Y82996D01*
X164078Y82095D01*
X164426Y81255D01*
X164979Y80533D01*
X165700Y79980D01*
X166540Y79632D01*
X167442Y79514D01*
X168343Y79632D01*
X169183Y79980D01*
X169904Y80533D01*
X170458Y81255D01*
X170806Y82095D01*
X170924Y82996D01*
X170806Y83897D01*
X170458Y84737D01*
X169904Y85458D01*
X169183Y86012D01*
X168343Y86360D01*
X167442Y86479D01*
D02*
G37*
G36*
X157442D02*
X156540Y86360D01*
X155701Y86012D01*
X154979Y85458D01*
X154426Y84737D01*
X154078Y83897D01*
X153959Y82996D01*
X154078Y82095D01*
X154426Y81255D01*
X154979Y80533D01*
X155701Y79980D01*
X156540Y79632D01*
X157442Y79514D01*
X158343Y79632D01*
X159183Y79980D01*
X159904Y80533D01*
X160458Y81255D01*
X160806Y82095D01*
X160924Y82996D01*
X160806Y83897D01*
X160458Y84737D01*
X159904Y85458D01*
X159183Y86012D01*
X158343Y86360D01*
X157442Y86479D01*
D02*
G37*
G36*
X147442D02*
X146540Y86360D01*
X145701Y86012D01*
X144979Y85458D01*
X144426Y84737D01*
X144078Y83897D01*
X143959Y82996D01*
X144078Y82095D01*
X144426Y81255D01*
X144979Y80533D01*
X145701Y79980D01*
X146540Y79632D01*
X147442Y79514D01*
X148343Y79632D01*
X149183Y79980D01*
X149904Y80533D01*
X150458Y81255D01*
X150806Y82095D01*
X150924Y82996D01*
X150806Y83897D01*
X150458Y84737D01*
X149904Y85458D01*
X149183Y86012D01*
X148343Y86360D01*
X147442Y86479D01*
D02*
G37*
G36*
X137442D02*
X136540Y86360D01*
X135701Y86012D01*
X134979Y85458D01*
X134426Y84737D01*
X134078Y83897D01*
X133959Y82996D01*
X134078Y82095D01*
X134426Y81255D01*
X134979Y80533D01*
X135701Y79980D01*
X136540Y79632D01*
X137442Y79514D01*
X138343Y79632D01*
X139183Y79980D01*
X139904Y80533D01*
X140458Y81255D01*
X140806Y82095D01*
X140924Y82996D01*
X140806Y83897D01*
X140458Y84737D01*
X139904Y85458D01*
X139183Y86012D01*
X138343Y86360D01*
X137442Y86479D01*
D02*
G37*
G36*
X361700Y118413D02*
X361121Y118298D01*
X360630Y117970D01*
X360302Y117479D01*
X360187Y116900D01*
X360302Y116321D01*
X360586Y115896D01*
X360594Y115872D01*
X360597Y115855D01*
X360602Y115848D01*
X360605Y115839D01*
X360614Y115829D01*
X360620Y115814D01*
X360628Y115785D01*
X360638Y115743D01*
X360645Y115696D01*
X360657Y115542D01*
X360659Y115452D01*
X360680Y115403D01*
Y99738D01*
X360758Y99348D01*
X360979Y99017D01*
X367063Y92932D01*
Y79755D01*
X367141Y79365D01*
X367362Y79034D01*
X368957Y77439D01*
X368975Y77391D01*
X369103Y77254D01*
X369140Y77207D01*
X369173Y77163D01*
X369196Y77127D01*
X369210Y77100D01*
X369217Y77085D01*
X369217Y77072D01*
X369221Y77064D01*
X369223Y77055D01*
X369233Y77040D01*
X369244Y77018D01*
X369344Y76517D01*
X369672Y76026D01*
X370163Y75698D01*
X370742Y75583D01*
X371321Y75698D01*
X371812Y76026D01*
X372140Y76517D01*
X372255Y77096D01*
X372140Y77675D01*
X371812Y78166D01*
X371321Y78494D01*
X370820Y78594D01*
X370797Y78605D01*
X370783Y78614D01*
X370774Y78616D01*
X370766Y78620D01*
X370753Y78621D01*
X370738Y78628D01*
X370711Y78642D01*
X370675Y78665D01*
X370636Y78694D01*
X370519Y78794D01*
X370454Y78856D01*
X370404Y78876D01*
X369103Y80177D01*
Y93355D01*
X369025Y93745D01*
X368804Y94076D01*
X362720Y100160D01*
Y115395D01*
X362741Y115442D01*
X362748Y115629D01*
X362754Y115689D01*
X362762Y115743D01*
X362772Y115785D01*
X362780Y115814D01*
X362786Y115829D01*
X362795Y115839D01*
X362798Y115848D01*
X362803Y115855D01*
X362806Y115872D01*
X362814Y115896D01*
X363098Y116321D01*
X363213Y116900D01*
X363098Y117479D01*
X362770Y117970D01*
X362279Y118298D01*
X361700Y118413D01*
D02*
G37*
G36*
X-2677Y94455D02*
X-14439D01*
X-14403Y94180D01*
X-14104Y93458D01*
X-13628Y92838D01*
X-13008Y92362D01*
X-12286Y92063D01*
X-11745Y91992D01*
X-11624Y91471D01*
X-11969Y91241D01*
X-12460Y90506D01*
X-12533Y90140D01*
X-10014D01*
Y89140D01*
X-12533D01*
X-12460Y88774D01*
X-11969Y88039D01*
X-11826Y87944D01*
X-11764Y87301D01*
X-11989Y86964D01*
X-12122Y86293D01*
X-11989Y85622D01*
X-11609Y85053D01*
X-11411Y84921D01*
Y84319D01*
X-11609Y84187D01*
X-11989Y83618D01*
X-12122Y82947D01*
X-11989Y82276D01*
X-11609Y81707D01*
X-11411Y81574D01*
Y80973D01*
X-11609Y80840D01*
X-11989Y80271D01*
X-12122Y79600D01*
X-11989Y78929D01*
X-11609Y78360D01*
X-11411Y78228D01*
Y77626D01*
X-11609Y77494D01*
X-11989Y76925D01*
X-12122Y76254D01*
X-11989Y75583D01*
X-11609Y75014D01*
X-11411Y74881D01*
X-11382Y74376D01*
X-11421Y74289D01*
X-11436Y74263D01*
X-11478Y74235D01*
X-11481Y74233D01*
X-11482Y74232D01*
X-11609Y74147D01*
X-11722Y73978D01*
X-11834Y73957D01*
X-12241Y73922D01*
X-12492Y73917D01*
X-12494Y73916D01*
X-12496Y73917D01*
X-12544Y73896D01*
X-13109D01*
X-13499Y73818D01*
X-13830Y73597D01*
X-16553Y70874D01*
X-16773Y70544D01*
X-16851Y70153D01*
Y61350D01*
X-17351Y61317D01*
X-17398Y61674D01*
X-17697Y62396D01*
X-18173Y63016D01*
X-18793Y63492D01*
X-19515Y63791D01*
X-20290Y63893D01*
X-21365D01*
Y60899D01*
Y57905D01*
X-20290D01*
X-19515Y58007D01*
X-18793Y58306D01*
X-18173Y58782D01*
X-17697Y59402D01*
X-17398Y60124D01*
X-17351Y60481D01*
X-16851Y60448D01*
Y58715D01*
X-16773Y58325D01*
X-16553Y57994D01*
X-13733Y55175D01*
X-13402Y54954D01*
X-13012Y54876D01*
X-1403D01*
X-1013Y54954D01*
X-683Y55175D01*
X3226Y59083D01*
X3273Y59101D01*
X3411Y59229D01*
X3458Y59267D01*
X3502Y59299D01*
X3538Y59322D01*
X3565Y59336D01*
X3579Y59343D01*
X3593Y59344D01*
X3601Y59348D01*
X3610Y59350D01*
X3624Y59359D01*
X3647Y59370D01*
X4148Y59470D01*
X4639Y59798D01*
X4967Y60289D01*
X5082Y60868D01*
X4967Y61447D01*
X4639Y61938D01*
X4148Y62266D01*
X3568Y62381D01*
X2989Y62266D01*
X2498Y61938D01*
X2170Y61447D01*
X2071Y60946D01*
X2060Y60923D01*
X2050Y60909D01*
X2048Y60900D01*
X2044Y60892D01*
X2043Y60879D01*
X2037Y60864D01*
X2022Y60837D01*
X1999Y60801D01*
X1971Y60762D01*
X1871Y60645D01*
X1808Y60580D01*
X1789Y60530D01*
X-1826Y56916D01*
X-12590D01*
X-14812Y59138D01*
Y59806D01*
X-14312Y59905D01*
X-14104Y59402D01*
X-13628Y58782D01*
X-13008Y58306D01*
X-12286Y58007D01*
X-11511Y57905D01*
X-9058D01*
Y60899D01*
X-8558D01*
Y61399D01*
X-2677D01*
X-2713Y61674D01*
X-3012Y62396D01*
X-3488Y63016D01*
X-4103Y63488D01*
X-4106Y63509D01*
X-4050Y64009D01*
X-3479Y64122D01*
X-2745Y64613D01*
X-2254Y65348D01*
X-2181Y65714D01*
X-4700D01*
Y66714D01*
X-2181D01*
X-2254Y67080D01*
X-2745Y67815D01*
X-2888Y67910D01*
X-2950Y68553D01*
X-2725Y68890D01*
X-2592Y69561D01*
X-2725Y70232D01*
X-3105Y70801D01*
X-3303Y70933D01*
Y71535D01*
X-3105Y71667D01*
X-2725Y72236D01*
X-2592Y72907D01*
X-2725Y73578D01*
X-3105Y74147D01*
X-3303Y74280D01*
Y74881D01*
X-3105Y75014D01*
X-2725Y75583D01*
X-2592Y76254D01*
X-2725Y76925D01*
X-3105Y77494D01*
X-3303Y77626D01*
Y78228D01*
X-3105Y78360D01*
X-2725Y78929D01*
X-2592Y79600D01*
X-2725Y80271D01*
X-3105Y80840D01*
X-3303Y80973D01*
Y81574D01*
X-3105Y81707D01*
X-2725Y82276D01*
X-2592Y82947D01*
X-2725Y83618D01*
X-3105Y84187D01*
X-3303Y84319D01*
Y84921D01*
X-3105Y85053D01*
X-2725Y85622D01*
X-2592Y86293D01*
X-2725Y86964D01*
X-2950Y87301D01*
X-2888Y87944D01*
X-2745Y88039D01*
X-2254Y88774D01*
X-2181Y89140D01*
X-4700D01*
Y90140D01*
X-2181D01*
X-2254Y90506D01*
X-2745Y91241D01*
X-3479Y91732D01*
X-4050Y91845D01*
X-4106Y92345D01*
X-4103Y92366D01*
X-3488Y92838D01*
X-3012Y93458D01*
X-2713Y94180D01*
X-2677Y94455D01*
D02*
G37*
G36*
X395052Y77949D02*
X388146D01*
Y71043D01*
X395052D01*
Y77949D01*
D02*
G37*
G36*
X381599Y77978D02*
X380698Y77860D01*
X379858Y77512D01*
X379137Y76959D01*
X378583Y76237D01*
X378235Y75397D01*
X378117Y74496D01*
X378235Y73595D01*
X378583Y72755D01*
X379137Y72034D01*
X379858Y71480D01*
X380698Y71132D01*
X381599Y71013D01*
X382501Y71132D01*
X383341Y71480D01*
X384062Y72034D01*
X384615Y72755D01*
X384963Y73595D01*
X385082Y74496D01*
X384963Y75397D01*
X384615Y76237D01*
X384062Y76959D01*
X383341Y77512D01*
X382501Y77860D01*
X381599Y77978D01*
D02*
G37*
G36*
X59569Y65618D02*
Y62396D01*
X62791D01*
X62728Y62876D01*
X62349Y63790D01*
X61747Y64575D01*
X60963Y65177D01*
X60049Y65555D01*
X59569Y65618D01*
D02*
G37*
G36*
X58569D02*
X58088Y65555D01*
X57174Y65177D01*
X56390Y64575D01*
X55788Y63790D01*
X55409Y62876D01*
X55346Y62396D01*
X58569D01*
Y65618D01*
D02*
G37*
G36*
X404900Y62613D02*
X404321Y62498D01*
X403830Y62170D01*
X403800Y62125D01*
X403300D01*
X403270Y62170D01*
X402779Y62498D01*
X402200Y62613D01*
X401621Y62498D01*
X401130Y62170D01*
X401063Y62070D01*
X400570D01*
X400079Y62398D01*
X399500Y62513D01*
X398921Y62398D01*
X398430Y62070D01*
X398316Y61900D01*
X397715D01*
X397601Y62070D01*
X397110Y62398D01*
X396531Y62513D01*
X395952Y62398D01*
X395461Y62070D01*
X395133Y61579D01*
X395018Y61000D01*
X395133Y60421D01*
X395380Y60051D01*
X395394Y60005D01*
X395397Y59989D01*
X395401Y59982D01*
X395404Y59974D01*
X395413Y59962D01*
X395413Y59961D01*
X395420Y59943D01*
X395429Y59912D01*
X395438Y59868D01*
X395446Y59818D01*
X395457Y59662D01*
X395459Y59571D01*
X395480Y59522D01*
Y40579D01*
X395459Y40533D01*
X395452Y40345D01*
X395446Y40285D01*
X395438Y40232D01*
X395428Y40189D01*
X395420Y40161D01*
X395414Y40145D01*
X395405Y40136D01*
X395402Y40127D01*
X395397Y40119D01*
X395394Y40102D01*
X395386Y40078D01*
X395102Y39654D01*
X394987Y39075D01*
X395102Y38496D01*
X395430Y38005D01*
X395921Y37677D01*
X396500Y37561D01*
X397079Y37677D01*
X397570Y38005D01*
X397898Y38496D01*
X397930Y38658D01*
X398430Y38609D01*
Y37440D01*
X398410Y37398D01*
X398412Y37393D01*
X398409Y37387D01*
X398402Y37201D01*
X398396Y37144D01*
X398387Y37093D01*
X398378Y37054D01*
X398370Y37029D01*
X398366Y37021D01*
X398360Y37014D01*
X398356Y37005D01*
X398349Y36996D01*
X398346Y36981D01*
X398330Y36970D01*
X398002Y36479D01*
X397887Y35900D01*
X398002Y35321D01*
X398330Y34830D01*
X398821Y34502D01*
X399400Y34387D01*
X399979Y34502D01*
X400470Y34830D01*
X400798Y35321D01*
X400913Y35900D01*
X400798Y36479D01*
X400572Y36818D01*
X400556Y36873D01*
X400553Y36889D01*
X400549Y36896D01*
X400547Y36905D01*
X400537Y36916D01*
X400536Y36919D01*
X400529Y36938D01*
X400520Y36971D01*
X400511Y37016D01*
X400504Y37067D01*
X400493Y37224D01*
X400491Y37316D01*
X400470Y37365D01*
Y42718D01*
X400970Y42870D01*
X401130Y42630D01*
X401621Y42302D01*
X402200Y42187D01*
X402779Y42302D01*
X403270Y42630D01*
X403380Y42795D01*
X403413Y42785D01*
X403700Y42639D01*
X403794Y42162D01*
X403785Y42103D01*
X403502Y41679D01*
X403387Y41100D01*
X403502Y40521D01*
X403830Y40030D01*
X404321Y39702D01*
X404900Y39587D01*
X405479Y39702D01*
X405970Y40030D01*
X406298Y40521D01*
X406413Y41100D01*
X406298Y41679D01*
X406014Y42104D01*
X406006Y42128D01*
X406003Y42145D01*
X405998Y42152D01*
X405995Y42161D01*
X405986Y42171D01*
X405980Y42186D01*
X405972Y42215D01*
X405962Y42257D01*
X405955Y42304D01*
X405943Y42458D01*
X405941Y42548D01*
X405920Y42597D01*
Y59595D01*
X405941Y59642D01*
X405948Y59829D01*
X405954Y59889D01*
X405962Y59943D01*
X405972Y59985D01*
X405980Y60014D01*
X405986Y60029D01*
X405995Y60039D01*
X405998Y60048D01*
X406003Y60055D01*
X406006Y60072D01*
X406014Y60096D01*
X406298Y60521D01*
X406413Y61100D01*
X406298Y61679D01*
X405970Y62170D01*
X405479Y62498D01*
X404900Y62613D01*
D02*
G37*
G36*
X-22365Y63893D02*
X-23440D01*
X-24215Y63791D01*
X-24937Y63492D01*
X-25557Y63016D01*
X-26033Y62396D01*
X-26332Y61674D01*
X-26368Y61399D01*
X-22365D01*
Y63893D01*
D02*
G37*
G36*
X62791Y61396D02*
X59569D01*
Y58174D01*
X60049Y58237D01*
X60963Y58615D01*
X61747Y59217D01*
X62349Y60002D01*
X62728Y60915D01*
X62791Y61396D01*
D02*
G37*
G36*
X58569D02*
X55346D01*
X55409Y60915D01*
X55788Y60002D01*
X56390Y59217D01*
X57174Y58615D01*
X58088Y58237D01*
X58569Y58174D01*
Y61396D01*
D02*
G37*
G36*
X-2677Y60399D02*
X-8058D01*
Y57905D01*
X-5605D01*
X-4830Y58007D01*
X-4108Y58306D01*
X-3488Y58782D01*
X-3012Y59402D01*
X-2713Y60124D01*
X-2677Y60399D01*
D02*
G37*
G36*
X-22365D02*
X-26368D01*
X-26332Y60124D01*
X-26033Y59402D01*
X-25557Y58782D01*
X-24937Y58306D01*
X-24215Y58007D01*
X-23440Y57905D01*
X-22365D01*
Y60399D01*
D02*
G37*
G36*
X478351Y65999D02*
X477772Y65884D01*
X477281Y65556D01*
X476953Y65065D01*
X476837Y64486D01*
X476953Y63907D01*
X476979Y63867D01*
X476979Y63855D01*
X476977Y63838D01*
X476979Y63829D01*
X476979Y63820D01*
X476984Y63808D01*
X476985Y63792D01*
X476985Y63761D01*
X476980Y63719D01*
X476972Y63671D01*
X476936Y63521D01*
X476909Y63435D01*
X476914Y63382D01*
X474601Y56344D01*
X474566Y56306D01*
X474501Y56130D01*
X474476Y56075D01*
X474451Y56027D01*
X474430Y55990D01*
X474412Y55965D01*
X474402Y55952D01*
X474391Y55946D01*
X474385Y55938D01*
X474378Y55933D01*
X474369Y55918D01*
X474332Y55869D01*
X474029Y55666D01*
X473701Y55175D01*
X473586Y54596D01*
X473701Y54017D01*
X474029Y53526D01*
X474520Y53198D01*
X475099Y53083D01*
X475678Y53198D01*
X476169Y53526D01*
X476497Y54017D01*
X476613Y54596D01*
X476497Y55175D01*
X476471Y55214D01*
X476471Y55227D01*
X476473Y55244D01*
X476471Y55252D01*
X476471Y55262D01*
X476465Y55274D01*
X476465Y55290D01*
X476465Y55320D01*
X476470Y55363D01*
X476477Y55411D01*
X476514Y55561D01*
X476541Y55646D01*
X476536Y55700D01*
X478849Y62738D01*
X478884Y62775D01*
X478949Y62951D01*
X478974Y63007D01*
X478999Y63055D01*
X479020Y63092D01*
X479038Y63117D01*
X479048Y63129D01*
X479059Y63136D01*
X479065Y63143D01*
X479072Y63149D01*
X479080Y63164D01*
X479118Y63213D01*
X479421Y63416D01*
X479749Y63907D01*
X479864Y64486D01*
X479749Y65065D01*
X479421Y65556D01*
X478930Y65884D01*
X478351Y65999D01*
D02*
G37*
G36*
X454800Y60013D02*
X454221Y59898D01*
X453730Y59570D01*
X453402Y59079D01*
X453287Y58500D01*
X453402Y57921D01*
X453727Y57434D01*
X453730Y57422D01*
X453735Y57414D01*
X453739Y57406D01*
X453748Y57396D01*
X453754Y57381D01*
X453763Y57353D01*
X453774Y57311D01*
X453783Y57263D01*
X453800Y57110D01*
X453804Y57020D01*
X453827Y56972D01*
X454031Y50390D01*
X454011Y50343D01*
X454010Y50155D01*
X454006Y50095D01*
X453999Y50041D01*
X453991Y49999D01*
X453983Y49969D01*
X453978Y49954D01*
X453969Y49944D01*
X453967Y49935D01*
X453962Y49927D01*
X453959Y49910D01*
X453946Y49866D01*
X453698Y49496D01*
X453583Y48917D01*
X453698Y48338D01*
X454027Y47847D01*
X454518Y47519D01*
X455097Y47404D01*
X455676Y47519D01*
X456167Y47847D01*
X456495Y48338D01*
X456610Y48917D01*
X456495Y49496D01*
X456170Y49983D01*
X456167Y49995D01*
X456161Y50003D01*
X456158Y50012D01*
X456149Y50021D01*
X456143Y50036D01*
X456133Y50065D01*
X456123Y50106D01*
X456114Y50154D01*
X456097Y50307D01*
X456093Y50397D01*
X456069Y50445D01*
X455866Y57028D01*
X455886Y57075D01*
X455887Y57262D01*
X455891Y57322D01*
X455898Y57377D01*
X455905Y57419D01*
X455913Y57448D01*
X455919Y57463D01*
X455927Y57473D01*
X455930Y57482D01*
X455935Y57490D01*
X455937Y57507D01*
X455951Y57551D01*
X456198Y57921D01*
X456313Y58500D01*
X456198Y59079D01*
X455870Y59570D01*
X455379Y59898D01*
X454800Y60013D01*
D02*
G37*
G36*
X356500Y39613D02*
X355921Y39498D01*
X355430Y39170D01*
X355102Y38679D01*
X355002Y38178D01*
X354991Y38155D01*
X354981Y38141D01*
X354980Y38132D01*
X354976Y38124D01*
X354975Y38111D01*
X354968Y38096D01*
X354954Y38069D01*
X354931Y38033D01*
X354902Y37994D01*
X354802Y37877D01*
X354740Y37812D01*
X354720Y37762D01*
X346278Y29320D01*
X316194D01*
X315804Y29242D01*
X315473Y29021D01*
X307049Y20597D01*
X307001Y20579D01*
X306864Y20451D01*
X306817Y20413D01*
X306773Y20381D01*
X306737Y20358D01*
X306710Y20344D01*
X306695Y20337D01*
X306682Y20336D01*
X306674Y20332D01*
X306665Y20330D01*
X306651Y20321D01*
X306628Y20310D01*
X306127Y20210D01*
X305636Y19882D01*
X305308Y19391D01*
X305193Y18812D01*
X305308Y18233D01*
X305636Y17742D01*
X306127Y17414D01*
X306706Y17299D01*
X307285Y17414D01*
X307776Y17742D01*
X308104Y18233D01*
X308204Y18734D01*
X308215Y18756D01*
X308225Y18771D01*
X308226Y18779D01*
X308230Y18788D01*
X308231Y18801D01*
X308238Y18816D01*
X308252Y18843D01*
X308275Y18879D01*
X308304Y18918D01*
X308404Y19035D01*
X308466Y19100D01*
X308486Y19150D01*
X316617Y27280D01*
X329825D01*
X330016Y26818D01*
X327736Y24539D01*
X327516Y24208D01*
X327438Y23818D01*
Y15534D01*
X322194Y10290D01*
X322146Y10272D01*
X322008Y10144D01*
X321961Y10106D01*
X321917Y10074D01*
X321881Y10051D01*
X321854Y10036D01*
X321840Y10030D01*
X321827Y10029D01*
X321818Y10025D01*
X321809Y10023D01*
X321795Y10014D01*
X321772Y10003D01*
X321271Y9903D01*
X320780Y9575D01*
X320452Y9084D01*
X320337Y8505D01*
X320452Y7926D01*
X320780Y7435D01*
X321271Y7107D01*
X321850Y6991D01*
X322430Y7107D01*
X322921Y7435D01*
X323249Y7926D01*
X323348Y8427D01*
X323359Y8449D01*
X323369Y8464D01*
X323371Y8472D01*
X323375Y8481D01*
X323376Y8494D01*
X323382Y8509D01*
X323397Y8535D01*
X323420Y8572D01*
X323448Y8610D01*
X323548Y8728D01*
X323611Y8793D01*
X323630Y8843D01*
X329178Y14391D01*
X329399Y14722D01*
X329477Y15112D01*
Y23396D01*
X331862Y25780D01*
X347321D01*
X347711Y25858D01*
X348042Y26079D01*
X356044Y34080D01*
X356295D01*
X356342Y34059D01*
X356529Y34052D01*
X356589Y34046D01*
X356643Y34038D01*
X356685Y34028D01*
X356714Y34020D01*
X356729Y34014D01*
X356739Y34005D01*
X356748Y34002D01*
X356755Y33997D01*
X356772Y33994D01*
X356796Y33986D01*
X357221Y33702D01*
X357800Y33587D01*
X358379Y33702D01*
X358870Y34030D01*
X359198Y34521D01*
X359313Y35100D01*
X359198Y35679D01*
X358870Y36170D01*
X358379Y36498D01*
X357836Y36606D01*
X357690Y36838D01*
X357607Y37085D01*
X357898Y37521D01*
X358013Y38100D01*
X357898Y38679D01*
X357570Y39170D01*
X357079Y39498D01*
X356500Y39613D01*
D02*
G37*
G36*
X44988Y23418D02*
Y19004D01*
X49402D01*
X49298Y19793D01*
X48801Y20994D01*
X48009Y22025D01*
X46978Y22816D01*
X45777Y23314D01*
X44988Y23418D01*
D02*
G37*
G36*
X43988D02*
X43199Y23314D01*
X41998Y22816D01*
X40967Y22025D01*
X40176Y20994D01*
X39678Y19793D01*
X39574Y19004D01*
X43988D01*
Y23418D01*
D02*
G37*
G36*
X8669Y82609D02*
X8089Y82494D01*
X7598Y82166D01*
X7270Y81675D01*
X7155Y81096D01*
X7270Y80517D01*
X7598Y80026D01*
X8089Y79698D01*
X8590Y79598D01*
X8613Y79587D01*
X8627Y79577D01*
X8636Y79576D01*
X8644Y79572D01*
X8658Y79571D01*
X8672Y79564D01*
X8699Y79550D01*
X8735Y79527D01*
X8774Y79498D01*
X8891Y79398D01*
X8956Y79336D01*
X9006Y79316D01*
X10657Y77666D01*
X10664Y77034D01*
X9111Y75481D01*
X9064Y75463D01*
X8926Y75335D01*
X8879Y75297D01*
X8835Y75265D01*
X8799Y75242D01*
X8772Y75228D01*
X8758Y75221D01*
X8744Y75220D01*
X8736Y75216D01*
X8727Y75214D01*
X8713Y75205D01*
X8690Y75194D01*
X8189Y75094D01*
X7698Y74766D01*
X7370Y74275D01*
X7255Y73696D01*
X7370Y73117D01*
X7698Y72626D01*
X8189Y72298D01*
X8768Y72183D01*
X9348Y72298D01*
X9839Y72626D01*
X10167Y73117D01*
X10266Y73618D01*
X10277Y73641D01*
X10287Y73655D01*
X10289Y73664D01*
X10293Y73672D01*
X10294Y73685D01*
X10300Y73700D01*
X10315Y73727D01*
X10338Y73763D01*
X10366Y73802D01*
X10466Y73919D01*
X10528Y73984D01*
X10548Y74034D01*
X12161Y75647D01*
X17376D01*
X20549Y72474D01*
Y47675D01*
X20627Y47284D01*
X20847Y46954D01*
X25542Y42259D01*
X25873Y42038D01*
X26263Y41961D01*
X86198D01*
X87722Y40437D01*
Y23125D01*
X87800Y22735D01*
X88021Y22404D01*
X92400Y18025D01*
X92730Y17804D01*
X93120Y17726D01*
X116102D01*
X116144Y17517D01*
X116472Y17026D01*
X116963Y16698D01*
X117542Y16583D01*
X118121Y16698D01*
X118612Y17026D01*
X118940Y17517D01*
X119055Y18096D01*
X118940Y18675D01*
X118612Y19166D01*
X118568Y19195D01*
Y19797D01*
X118612Y19826D01*
X118940Y20317D01*
X119055Y20896D01*
X118940Y21475D01*
X118612Y21966D01*
X118121Y22294D01*
X117542Y22409D01*
X116963Y22294D01*
X116472Y21966D01*
X116144Y21475D01*
X116102Y21266D01*
X94164D01*
X91261Y24168D01*
Y41480D01*
X91184Y41870D01*
X90963Y42201D01*
X87963Y45201D01*
X87963Y45201D01*
X87632Y45422D01*
X87242Y45500D01*
X27307D01*
X24088Y48718D01*
Y73517D01*
X24011Y73908D01*
X23789Y74238D01*
X19141Y78887D01*
X18810Y79108D01*
X18420Y79186D01*
X12021D01*
X10453Y80753D01*
X10436Y80801D01*
X10308Y80939D01*
X10270Y80985D01*
X10238Y81029D01*
X10215Y81065D01*
X10200Y81092D01*
X10194Y81107D01*
X10193Y81120D01*
X10189Y81128D01*
X10187Y81137D01*
X10177Y81151D01*
X10166Y81174D01*
X10067Y81675D01*
X9739Y82166D01*
X9248Y82494D01*
X8669Y82609D01*
D02*
G37*
G36*
X49402Y18004D02*
X44988D01*
Y13590D01*
X45777Y13694D01*
X46978Y14191D01*
X48009Y14983D01*
X48801Y16014D01*
X49298Y17215D01*
X49402Y18004D01*
D02*
G37*
G36*
X43988D02*
X39574D01*
X39678Y17215D01*
X40176Y16014D01*
X40967Y14983D01*
X41998Y14191D01*
X43199Y13694D01*
X43988Y13590D01*
Y18004D01*
D02*
G37*
G36*
X341000Y23513D02*
X340421Y23398D01*
X339930Y23070D01*
X339602Y22579D01*
X339487Y22000D01*
X339602Y21421D01*
X339886Y20996D01*
X339894Y20972D01*
X339897Y20955D01*
X339902Y20948D01*
X339905Y20939D01*
X339914Y20929D01*
X339920Y20914D01*
X339928Y20885D01*
X339938Y20843D01*
X339945Y20796D01*
X339957Y20642D01*
X339959Y20552D01*
X339980Y20503D01*
Y17922D01*
X340058Y17532D01*
X340279Y17201D01*
X340822Y16658D01*
Y15001D01*
X340801Y14954D01*
X340794Y14766D01*
X340788Y14707D01*
X340779Y14653D01*
X340770Y14611D01*
X340761Y14582D01*
X340756Y14567D01*
X340747Y14557D01*
X340744Y14548D01*
X340739Y14541D01*
X340736Y14524D01*
X340727Y14500D01*
X340444Y14075D01*
X340328Y13496D01*
X340444Y12917D01*
X340772Y12426D01*
X341263Y12098D01*
X341842Y11983D01*
X342421Y12098D01*
X342912Y12426D01*
X343240Y12917D01*
X343355Y13496D01*
X343240Y14075D01*
X342956Y14500D01*
X342948Y14524D01*
X342945Y14541D01*
X342939Y14548D01*
X342936Y14557D01*
X342928Y14567D01*
X342922Y14582D01*
X342913Y14611D01*
X342904Y14653D01*
X342897Y14700D01*
X342884Y14854D01*
X342883Y14944D01*
X342861Y14993D01*
Y17080D01*
X342784Y17470D01*
X342563Y17801D01*
X342020Y18344D01*
Y20495D01*
X342041Y20542D01*
X342048Y20729D01*
X342054Y20789D01*
X342062Y20843D01*
X342072Y20885D01*
X342080Y20914D01*
X342086Y20929D01*
X342095Y20939D01*
X342098Y20948D01*
X342103Y20955D01*
X342106Y20972D01*
X342114Y20996D01*
X342398Y21421D01*
X342513Y22000D01*
X342398Y22579D01*
X342070Y23070D01*
X341579Y23398D01*
X341000Y23513D01*
D02*
G37*
G36*
X317342Y13924D02*
Y11496D01*
X319770D01*
X319734Y11771D01*
X319435Y12493D01*
X318959Y13113D01*
X318339Y13589D01*
X317617Y13888D01*
X317342Y13924D01*
D02*
G37*
G36*
X347342D02*
Y11496D01*
X349770D01*
X349734Y11771D01*
X349435Y12493D01*
X348959Y13113D01*
X348339Y13589D01*
X347617Y13888D01*
X347342Y13924D01*
D02*
G37*
G36*
X346342D02*
X346067Y13888D01*
X345345Y13589D01*
X344725Y13113D01*
X344249Y12493D01*
X343950Y11771D01*
X343913Y11496D01*
X346342D01*
Y13924D01*
D02*
G37*
G36*
X316342D02*
X316067Y13888D01*
X315345Y13589D01*
X314725Y13113D01*
X314249Y12493D01*
X313950Y11771D01*
X313913Y11496D01*
X316342D01*
Y13924D01*
D02*
G37*
G36*
X319770Y10496D02*
X317342D01*
Y8068D01*
X317617Y8104D01*
X318339Y8403D01*
X318959Y8879D01*
X319435Y9499D01*
X319734Y10221D01*
X319770Y10496D01*
D02*
G37*
G36*
X349770D02*
X347342D01*
Y8068D01*
X347617Y8104D01*
X348339Y8403D01*
X348959Y8879D01*
X349435Y9499D01*
X349734Y10221D01*
X349770Y10496D01*
D02*
G37*
G36*
X346342D02*
X343913D01*
X343950Y10221D01*
X344249Y9499D01*
X344725Y8879D01*
X345345Y8403D01*
X346067Y8104D01*
X346342Y8068D01*
Y10496D01*
D02*
G37*
G36*
X316342D02*
X313913D01*
X313950Y10221D01*
X314249Y9499D01*
X314725Y8879D01*
X315345Y8403D01*
X316067Y8104D01*
X316342Y8068D01*
Y10496D01*
D02*
G37*
%LPD*%
G36*
X437252Y406252D02*
X437220Y406204D01*
X437192Y406149D01*
X437167Y406086D01*
X437147Y406017D01*
X437129Y405939D01*
X437116Y405855D01*
X437107Y405763D01*
X437099Y405558D01*
X436099D01*
X436097Y405664D01*
X436082Y405855D01*
X436069Y405939D01*
X436052Y406017D01*
X436031Y406086D01*
X436007Y406149D01*
X435978Y406204D01*
X435946Y406252D01*
X435910Y406293D01*
X437288D01*
X437252Y406252D01*
D02*
G37*
G36*
X437101Y399128D02*
X437116Y398937D01*
X437129Y398853D01*
X437147Y398775D01*
X437167Y398706D01*
X437192Y398643D01*
X437220Y398588D01*
X437252Y398540D01*
X437288Y398499D01*
X435910D01*
X435946Y398540D01*
X435978Y398588D01*
X436007Y398643D01*
X436031Y398706D01*
X436052Y398775D01*
X436069Y398853D01*
X436082Y398937D01*
X436092Y399029D01*
X436099Y399234D01*
X437099D01*
X437101Y399128D01*
D02*
G37*
G36*
X449252Y406452D02*
X449220Y406404D01*
X449192Y406349D01*
X449167Y406286D01*
X449147Y406217D01*
X449129Y406139D01*
X449116Y406055D01*
X449107Y405963D01*
X449099Y405758D01*
X448099D01*
X448097Y405864D01*
X448082Y406055D01*
X448069Y406139D01*
X448052Y406217D01*
X448031Y406286D01*
X448007Y406349D01*
X447978Y406404D01*
X447946Y406452D01*
X447910Y406493D01*
X449288D01*
X449252Y406452D01*
D02*
G37*
G36*
X449101Y398528D02*
X449116Y398337D01*
X449129Y398253D01*
X449147Y398175D01*
X449167Y398106D01*
X449192Y398043D01*
X449220Y397988D01*
X449252Y397940D01*
X449288Y397899D01*
X447910D01*
X447946Y397940D01*
X447978Y397988D01*
X448007Y398043D01*
X448031Y398106D01*
X448052Y398175D01*
X448069Y398253D01*
X448082Y398337D01*
X448092Y398429D01*
X448099Y398634D01*
X449099D01*
X449101Y398528D01*
D02*
G37*
G36*
X366529Y407532D02*
X366541Y407475D01*
X366560Y407416D01*
X366586Y407355D01*
X366621Y407290D01*
X366664Y407224D01*
X366714Y407155D01*
X366772Y407083D01*
X366912Y406932D01*
X366205Y406225D01*
X366129Y406299D01*
X365983Y406424D01*
X365914Y406474D01*
X365847Y406517D01*
X365783Y406551D01*
X365722Y406578D01*
X365662Y406597D01*
X365606Y406608D01*
X365552Y406612D01*
X366526Y407586D01*
X366529Y407532D01*
D02*
G37*
G36*
X371344Y398328D02*
X371359Y398137D01*
X371372Y398053D01*
X371389Y397975D01*
X371410Y397905D01*
X371434Y397843D01*
X371463Y397788D01*
X371495Y397740D01*
X371531Y397699D01*
X370153D01*
X370189Y397740D01*
X370221Y397788D01*
X370249Y397843D01*
X370274Y397905D01*
X370294Y397975D01*
X370311Y398053D01*
X370325Y398137D01*
X370334Y398229D01*
X370342Y398434D01*
X371342D01*
X371344Y398328D01*
D02*
G37*
G36*
X331029Y416492D02*
X330993Y416451D01*
X330961Y416403D01*
X330933Y416348D01*
X330908Y416285D01*
X330887Y416216D01*
X330870Y416138D01*
X330857Y416054D01*
X330848Y415962D01*
X330840Y415757D01*
X329840Y415759D01*
X329838Y415865D01*
X329823Y416056D01*
X329810Y416141D01*
X329793Y416218D01*
X329772Y416288D01*
X329748Y416350D01*
X329719Y416406D01*
X329687Y416454D01*
X329651Y416494D01*
X331029Y416492D01*
D02*
G37*
G36*
X330840Y400637D02*
X330842Y400530D01*
X330857Y400340D01*
X330870Y400255D01*
X330887Y400178D01*
X330908Y400108D01*
X330932Y400045D01*
X330961Y399990D01*
X330993Y399942D01*
X331028Y399901D01*
X329650Y399904D01*
X329686Y399944D01*
X329719Y399992D01*
X329747Y400048D01*
X329772Y400110D01*
X329793Y400180D01*
X329810Y400257D01*
X329823Y400342D01*
X329832Y400433D01*
X329840Y400639D01*
X330840Y400637D01*
D02*
G37*
G36*
X331326Y399135D02*
X331337Y399079D01*
X331356Y399020D01*
X331383Y398958D01*
X331418Y398894D01*
X331460Y398827D01*
X331511Y398758D01*
X331569Y398687D01*
X331709Y398536D01*
X331002Y397829D01*
X330925Y397903D01*
X330780Y398027D01*
X330710Y398078D01*
X330644Y398120D01*
X330580Y398155D01*
X330518Y398182D01*
X330459Y398201D01*
X330402Y398212D01*
X330348Y398215D01*
X331322Y399190D01*
X331326Y399135D01*
D02*
G37*
G36*
X330690Y380681D02*
X330705Y380491D01*
X330718Y380406D01*
X330735Y380329D01*
X330756Y380259D01*
X330781Y380196D01*
X330809Y380141D01*
X330841Y380093D01*
X330877Y380052D01*
X329499D01*
X329535Y380093D01*
X329567Y380141D01*
X329596Y380196D01*
X329620Y380259D01*
X329641Y380329D01*
X329658Y380406D01*
X329671Y380491D01*
X329681Y380582D01*
X329688Y380788D01*
X330688D01*
X330690Y380681D01*
D02*
G37*
G36*
X419680Y379012D02*
X419628Y379007D01*
X419572Y378993D01*
X419514Y378972D01*
X419454Y378944D01*
X419390Y378907D01*
X419324Y378864D01*
X419256Y378812D01*
X419111Y378687D01*
X419034Y378613D01*
X418286Y379279D01*
X418360Y379356D01*
X418483Y379502D01*
X418533Y379571D01*
X418574Y379638D01*
X418607Y379703D01*
X418632Y379765D01*
X418649Y379825D01*
X418658Y379883D01*
X418659Y379938D01*
X419680Y379012D01*
D02*
G37*
G36*
X415033Y374612D02*
X414959Y374535D01*
X414836Y374389D01*
X414787Y374320D01*
X414746Y374253D01*
X414712Y374188D01*
X414687Y374126D01*
X414670Y374066D01*
X414661Y374009D01*
X414661Y373954D01*
X413639Y374879D01*
X413692Y374885D01*
X413747Y374898D01*
X413805Y374919D01*
X413866Y374948D01*
X413929Y374984D01*
X413995Y375027D01*
X414064Y375079D01*
X414209Y375204D01*
X414286Y375278D01*
X415033Y374612D01*
D02*
G37*
G36*
X356802Y361379D02*
X356850Y361346D01*
X356904Y361317D01*
X356967Y361291D01*
X357036Y361270D01*
X357113Y361252D01*
X357197Y361238D01*
X357289Y361229D01*
X357494Y361221D01*
X357465Y360221D01*
X357358Y360219D01*
X357167Y360204D01*
X357083Y360192D01*
X357005Y360175D01*
X356935Y360155D01*
X356872Y360132D01*
X356817Y360104D01*
X356768Y360074D01*
X356727Y360039D01*
X356762Y361417D01*
X356802Y361379D01*
D02*
G37*
G36*
X359422Y360025D02*
X359382Y360062D01*
X359334Y360095D01*
X359279Y360125D01*
X359217Y360150D01*
X359147Y360172D01*
X359070Y360189D01*
X358986Y360203D01*
X358894Y360213D01*
X358689Y360221D01*
X358718Y361221D01*
X358825Y361223D01*
X359016Y361237D01*
X359101Y361250D01*
X359178Y361266D01*
X359248Y361286D01*
X359311Y361310D01*
X359367Y361337D01*
X359415Y361368D01*
X359456Y361403D01*
X359422Y360025D01*
D02*
G37*
G36*
X359439Y356907D02*
X359398Y356943D01*
X359350Y356975D01*
X359295Y357003D01*
X359232Y357028D01*
X359162Y357049D01*
X359085Y357066D01*
X359001Y357079D01*
X358909Y357088D01*
X358703Y357096D01*
Y358096D01*
X358810Y358098D01*
X359001Y358113D01*
X359085Y358126D01*
X359162Y358143D01*
X359232Y358164D01*
X359295Y358189D01*
X359350Y358217D01*
X359398Y358249D01*
X359439Y358285D01*
Y356907D01*
D02*
G37*
G36*
X354285Y358249D02*
X354333Y358217D01*
X354389Y358189D01*
X354451Y358164D01*
X354521Y358143D01*
X354598Y358126D01*
X354683Y358113D01*
X354775Y358103D01*
X354980Y358096D01*
Y357096D01*
X354874Y357094D01*
X354683Y357079D01*
X354598Y357066D01*
X354521Y357049D01*
X354451Y357028D01*
X354389Y357003D01*
X354333Y356975D01*
X354285Y356943D01*
X354245Y356907D01*
Y358285D01*
X354285Y358249D01*
D02*
G37*
G36*
X337056Y314393D02*
X337015Y314355D01*
X336979Y314309D01*
X336947Y314256D01*
X336919Y314195D01*
X336895Y314127D01*
X336876Y314051D01*
X336861Y313968D01*
X336850Y313877D01*
X336842Y313672D01*
X335842Y313791D01*
X335840Y313898D01*
X335817Y314175D01*
X335803Y314253D01*
X335785Y314324D01*
X335765Y314387D01*
X335741Y314443D01*
X335715Y314491D01*
X335685Y314533D01*
X337056Y314393D01*
D02*
G37*
G36*
X336844Y305928D02*
X336859Y305737D01*
X336872Y305653D01*
X336889Y305575D01*
X336910Y305505D01*
X336934Y305443D01*
X336963Y305388D01*
X336995Y305340D01*
X337031Y305299D01*
X335653D01*
X335689Y305340D01*
X335721Y305388D01*
X335749Y305443D01*
X335774Y305505D01*
X335794Y305575D01*
X335811Y305653D01*
X335825Y305737D01*
X335834Y305829D01*
X335842Y306034D01*
X336842D01*
X336844Y305928D01*
D02*
G37*
G36*
X332944D02*
X332959Y305737D01*
X332972Y305653D01*
X332989Y305575D01*
X333010Y305505D01*
X333034Y305443D01*
X333063Y305388D01*
X333095Y305340D01*
X333131Y305299D01*
X331753D01*
X331789Y305340D01*
X331821Y305388D01*
X331849Y305443D01*
X331874Y305505D01*
X331894Y305575D01*
X331911Y305653D01*
X331925Y305737D01*
X331934Y305829D01*
X331942Y306034D01*
X332942D01*
X332944Y305928D01*
D02*
G37*
G36*
X358798Y229655D02*
X358766Y229607D01*
X358737Y229552D01*
X358713Y229489D01*
X358692Y229419D01*
X358676Y229342D01*
X358662Y229257D01*
X358653Y229165D01*
X358645Y228960D01*
X357645Y228956D01*
X357644Y229062D01*
X357628Y229253D01*
X357615Y229337D01*
X357598Y229414D01*
X357577Y229484D01*
X357552Y229547D01*
X357524Y229602D01*
X357491Y229650D01*
X357455Y229691D01*
X358833Y229696D01*
X358798Y229655D01*
D02*
G37*
G36*
X358647Y213947D02*
X358663Y213757D01*
X358676Y213672D01*
X358693Y213595D01*
X358714Y213525D01*
X358738Y213463D01*
X358767Y213407D01*
X358799Y213359D01*
X358835Y213319D01*
X357457Y213314D01*
X357493Y213354D01*
X357525Y213402D01*
X357553Y213458D01*
X357578Y213520D01*
X357598Y213590D01*
X357615Y213668D01*
X357628Y213752D01*
X357638Y213844D01*
X357645Y214050D01*
X358645Y214054D01*
X358647Y213947D01*
D02*
G37*
G36*
X349384Y194108D02*
X349333Y194127D01*
X349277Y194141D01*
X349215Y194148D01*
X349148Y194149D01*
X349075Y194144D01*
X348997Y194132D01*
X348913Y194115D01*
X348824Y194092D01*
X348629Y194027D01*
X348278Y194963D01*
X348377Y195002D01*
X348550Y195083D01*
X348624Y195125D01*
X348691Y195168D01*
X348749Y195212D01*
X348799Y195257D01*
X348841Y195303D01*
X348874Y195350D01*
X348900Y195398D01*
X349384Y194108D01*
D02*
G37*
G36*
X351284Y192108D02*
X351233Y192127D01*
X351177Y192141D01*
X351115Y192148D01*
X351048Y192149D01*
X350975Y192144D01*
X350897Y192132D01*
X350813Y192115D01*
X350724Y192092D01*
X350529Y192027D01*
X350178Y192963D01*
X350277Y193002D01*
X350450Y193083D01*
X350524Y193125D01*
X350591Y193168D01*
X350649Y193212D01*
X350699Y193257D01*
X350741Y193304D01*
X350774Y193350D01*
X350800Y193398D01*
X351284Y192108D01*
D02*
G37*
G36*
X321514Y189652D02*
X321562Y189620D01*
X321618Y189592D01*
X321680Y189568D01*
X321750Y189547D01*
X321827Y189530D01*
X321912Y189517D01*
X322004Y189507D01*
X322209Y189500D01*
X322214Y188500D01*
X322108Y188498D01*
X321917Y188483D01*
X321832Y188470D01*
X321755Y188452D01*
X321685Y188432D01*
X321623Y188407D01*
X321568Y188378D01*
X321520Y188346D01*
X321479Y188310D01*
X321473Y189688D01*
X321514Y189652D01*
D02*
G37*
G36*
X324035Y187652D02*
X324083Y187620D01*
X324138Y187592D01*
X324201Y187568D01*
X324271Y187547D01*
X324348Y187530D01*
X324432Y187517D01*
X324524Y187507D01*
X324730Y187500D01*
X324734Y186500D01*
X324628Y186498D01*
X324437Y186483D01*
X324353Y186470D01*
X324276Y186452D01*
X324206Y186432D01*
X324143Y186407D01*
X324088Y186378D01*
X324040Y186346D01*
X323999Y186310D01*
X323994Y187688D01*
X324035Y187652D01*
D02*
G37*
G36*
X-4647Y160256D02*
X-4679Y160208D01*
X-4707Y160153D01*
X-4732Y160090D01*
X-4753Y160021D01*
X-4770Y159943D01*
X-4783Y159859D01*
X-4792Y159767D01*
X-4800Y159562D01*
X-5800D01*
X-5802Y159668D01*
X-5817Y159859D01*
X-5830Y159943D01*
X-5847Y160021D01*
X-5868Y160090D01*
X-5893Y160153D01*
X-5921Y160208D01*
X-5953Y160256D01*
X-5989Y160297D01*
X-4611D01*
X-4647Y160256D01*
D02*
G37*
G36*
X-7447D02*
X-7479Y160208D01*
X-7507Y160153D01*
X-7532Y160090D01*
X-7553Y160021D01*
X-7570Y159943D01*
X-7583Y159859D01*
X-7592Y159767D01*
X-7600Y159562D01*
X-8600D01*
X-8602Y159668D01*
X-8617Y159859D01*
X-8630Y159943D01*
X-8647Y160021D01*
X-8668Y160090D01*
X-8693Y160153D01*
X-8721Y160208D01*
X-8753Y160256D01*
X-8789Y160297D01*
X-7411D01*
X-7447Y160256D01*
D02*
G37*
G36*
X-10147D02*
X-10179Y160208D01*
X-10207Y160153D01*
X-10232Y160090D01*
X-10253Y160021D01*
X-10270Y159943D01*
X-10283Y159859D01*
X-10292Y159767D01*
X-10300Y159562D01*
X-11300D01*
X-11302Y159668D01*
X-11317Y159859D01*
X-11330Y159943D01*
X-11347Y160021D01*
X-11368Y160090D01*
X-11393Y160153D01*
X-11421Y160208D01*
X-11453Y160256D01*
X-11489Y160297D01*
X-10111D01*
X-10147Y160256D01*
D02*
G37*
G36*
X-4798Y143632D02*
X-4783Y143441D01*
X-4770Y143357D01*
X-4753Y143279D01*
X-4732Y143210D01*
X-4707Y143147D01*
X-4679Y143092D01*
X-4647Y143044D01*
X-4611Y143003D01*
X-5989D01*
X-5953Y143044D01*
X-5921Y143092D01*
X-5893Y143147D01*
X-5868Y143210D01*
X-5847Y143279D01*
X-5830Y143357D01*
X-5817Y143441D01*
X-5808Y143533D01*
X-5800Y143738D01*
X-4800D01*
X-4798Y143632D01*
D02*
G37*
G36*
X-7598Y141332D02*
X-7583Y141141D01*
X-7570Y141057D01*
X-7553Y140979D01*
X-7532Y140910D01*
X-7507Y140847D01*
X-7479Y140792D01*
X-7447Y140744D01*
X-7411Y140703D01*
X-8789D01*
X-8753Y140744D01*
X-8721Y140792D01*
X-8693Y140847D01*
X-8668Y140910D01*
X-8647Y140979D01*
X-8630Y141057D01*
X-8617Y141141D01*
X-8608Y141233D01*
X-8600Y141438D01*
X-7600D01*
X-7598Y141332D01*
D02*
G37*
G36*
X-10298Y139032D02*
X-10283Y138841D01*
X-10270Y138757D01*
X-10253Y138679D01*
X-10232Y138610D01*
X-10207Y138547D01*
X-10179Y138492D01*
X-10147Y138444D01*
X-10111Y138403D01*
X-11489D01*
X-11453Y138444D01*
X-11421Y138492D01*
X-11393Y138547D01*
X-11368Y138610D01*
X-11347Y138679D01*
X-11330Y138757D01*
X-11317Y138841D01*
X-11308Y138933D01*
X-11300Y139138D01*
X-10300D01*
X-10298Y139032D01*
D02*
G37*
G36*
X375429Y168448D02*
X375441Y168391D01*
X375460Y168332D01*
X375486Y168270D01*
X375521Y168206D01*
X375564Y168140D01*
X375614Y168070D01*
X375672Y167999D01*
X375812Y167848D01*
X375105Y167141D01*
X375029Y167215D01*
X374883Y167339D01*
X374814Y167390D01*
X374747Y167432D01*
X374683Y167467D01*
X374622Y167494D01*
X374562Y167513D01*
X374506Y167524D01*
X374452Y167527D01*
X375426Y168502D01*
X375429Y168448D01*
D02*
G37*
G36*
X377426Y162150D02*
X377427Y162043D01*
X377449Y161766D01*
X377463Y161688D01*
X377479Y161617D01*
X377498Y161554D01*
X377520Y161498D01*
X377545Y161450D01*
X377573Y161409D01*
X376207Y161585D01*
X376248Y161622D01*
X376286Y161667D01*
X376319Y161719D01*
X376347Y161779D01*
X376371Y161847D01*
X376391Y161923D01*
X376406Y162006D01*
X376417Y162096D01*
X376424Y162195D01*
X376426Y162301D01*
X377426Y162150D01*
D02*
G37*
G36*
X-23047Y145956D02*
X-23079Y145908D01*
X-23107Y145853D01*
X-23132Y145791D01*
X-23153Y145721D01*
X-23170Y145643D01*
X-23183Y145559D01*
X-23192Y145467D01*
X-23200Y145262D01*
X-24200D01*
X-24202Y145368D01*
X-24217Y145559D01*
X-24230Y145643D01*
X-24247Y145721D01*
X-24268Y145791D01*
X-24293Y145853D01*
X-24321Y145908D01*
X-24353Y145956D01*
X-24389Y145997D01*
X-23011D01*
X-23047Y145956D01*
D02*
G37*
G36*
X-16887Y136297D02*
X-16741Y136172D01*
X-16672Y136122D01*
X-16606Y136080D01*
X-16541Y136045D01*
X-16480Y136018D01*
X-16421Y135999D01*
X-16364Y135988D01*
X-16310Y135984D01*
X-17284Y135010D01*
X-17288Y135064D01*
X-17299Y135121D01*
X-17318Y135180D01*
X-17345Y135241D01*
X-17379Y135306D01*
X-17422Y135372D01*
X-17472Y135441D01*
X-17531Y135513D01*
X-17671Y135663D01*
X-16963Y136371D01*
X-16887Y136297D01*
D02*
G37*
G36*
X415696Y120811D02*
X415655Y120847D01*
X415607Y120879D01*
X415552Y120907D01*
X415489Y120932D01*
X415419Y120953D01*
X415342Y120970D01*
X415258Y120983D01*
X415166Y120992D01*
X414960Y121000D01*
Y122000D01*
X415067Y122002D01*
X415258Y122017D01*
X415342Y122030D01*
X415419Y122047D01*
X415489Y122068D01*
X415552Y122093D01*
X415607Y122121D01*
X415655Y122153D01*
X415696Y122189D01*
Y120811D01*
D02*
G37*
G36*
X393944Y122153D02*
X393992Y122121D01*
X394047Y122093D01*
X394110Y122068D01*
X394179Y122047D01*
X394257Y122030D01*
X394341Y122017D01*
X394433Y122008D01*
X394638Y122000D01*
Y121000D01*
X394532Y120998D01*
X394341Y120983D01*
X394257Y120970D01*
X394179Y120953D01*
X394110Y120932D01*
X394047Y120907D01*
X393992Y120879D01*
X393944Y120847D01*
X393903Y120811D01*
Y122189D01*
X393944Y122153D01*
D02*
G37*
G36*
X415696Y117911D02*
X415655Y117947D01*
X415607Y117979D01*
X415552Y118007D01*
X415489Y118032D01*
X415419Y118053D01*
X415342Y118070D01*
X415258Y118083D01*
X415166Y118092D01*
X414960Y118100D01*
Y119100D01*
X415067Y119102D01*
X415258Y119117D01*
X415342Y119130D01*
X415419Y119147D01*
X415489Y119168D01*
X415552Y119193D01*
X415607Y119221D01*
X415655Y119253D01*
X415696Y119289D01*
Y117911D01*
D02*
G37*
G36*
X393944Y119253D02*
X393992Y119221D01*
X394047Y119193D01*
X394110Y119168D01*
X394179Y119147D01*
X394257Y119130D01*
X394341Y119117D01*
X394433Y119108D01*
X394638Y119100D01*
Y118100D01*
X394532Y118098D01*
X394341Y118083D01*
X394257Y118070D01*
X394179Y118053D01*
X394110Y118032D01*
X394047Y118007D01*
X393992Y117979D01*
X393944Y117947D01*
X393903Y117911D01*
Y119289D01*
X393944Y119253D01*
D02*
G37*
G36*
X415696Y115111D02*
X415655Y115147D01*
X415607Y115179D01*
X415552Y115207D01*
X415489Y115232D01*
X415419Y115253D01*
X415342Y115270D01*
X415258Y115283D01*
X415166Y115292D01*
X414960Y115300D01*
Y116300D01*
X415067Y116302D01*
X415258Y116317D01*
X415342Y116330D01*
X415419Y116347D01*
X415489Y116368D01*
X415552Y116393D01*
X415607Y116421D01*
X415655Y116453D01*
X415696Y116489D01*
Y115111D01*
D02*
G37*
G36*
X393944Y116453D02*
X393992Y116421D01*
X394047Y116393D01*
X394110Y116368D01*
X394179Y116347D01*
X394257Y116330D01*
X394341Y116317D01*
X394433Y116308D01*
X394638Y116300D01*
Y115300D01*
X394532Y115298D01*
X394341Y115283D01*
X394257Y115270D01*
X394179Y115253D01*
X394110Y115232D01*
X394047Y115207D01*
X393992Y115179D01*
X393944Y115147D01*
X393903Y115111D01*
Y116489D01*
X393944Y116453D01*
D02*
G37*
G36*
X415696Y112211D02*
X415655Y112247D01*
X415607Y112279D01*
X415552Y112307D01*
X415489Y112332D01*
X415419Y112353D01*
X415342Y112370D01*
X415258Y112383D01*
X415166Y112392D01*
X414960Y112400D01*
Y113400D01*
X415067Y113402D01*
X415258Y113417D01*
X415342Y113430D01*
X415419Y113447D01*
X415489Y113468D01*
X415552Y113493D01*
X415607Y113521D01*
X415655Y113553D01*
X415696Y113589D01*
Y112211D01*
D02*
G37*
G36*
X393944Y113553D02*
X393992Y113521D01*
X394047Y113493D01*
X394110Y113468D01*
X394179Y113447D01*
X394257Y113430D01*
X394341Y113417D01*
X394433Y113408D01*
X394638Y113400D01*
Y112400D01*
X394532Y112398D01*
X394341Y112383D01*
X394257Y112370D01*
X394179Y112353D01*
X394110Y112332D01*
X394047Y112307D01*
X393992Y112279D01*
X393944Y112247D01*
X393903Y112211D01*
Y113589D01*
X393944Y113553D01*
D02*
G37*
G36*
X289744Y118153D02*
X289792Y118121D01*
X289847Y118093D01*
X289910Y118068D01*
X289979Y118047D01*
X290057Y118030D01*
X290141Y118017D01*
X290233Y118008D01*
X290438Y118000D01*
Y117000D01*
X290332Y116998D01*
X290141Y116983D01*
X290057Y116970D01*
X289979Y116953D01*
X289910Y116932D01*
X289847Y116907D01*
X289792Y116879D01*
X289744Y116847D01*
X289703Y116811D01*
Y118189D01*
X289744Y118153D01*
D02*
G37*
G36*
X286444Y115853D02*
X286492Y115821D01*
X286547Y115793D01*
X286610Y115768D01*
X286679Y115747D01*
X286757Y115730D01*
X286841Y115717D01*
X286933Y115708D01*
X287138Y115700D01*
Y114700D01*
X287032Y114698D01*
X286841Y114683D01*
X286757Y114670D01*
X286679Y114653D01*
X286610Y114632D01*
X286547Y114607D01*
X286492Y114579D01*
X286444Y114547D01*
X286403Y114511D01*
Y115889D01*
X286444Y115853D01*
D02*
G37*
G36*
X288185Y113653D02*
X288233Y113621D01*
X288289Y113593D01*
X288351Y113568D01*
X288421Y113547D01*
X288498Y113530D01*
X288583Y113517D01*
X288675Y113508D01*
X288880Y113500D01*
Y112500D01*
X288774Y112498D01*
X288583Y112483D01*
X288498Y112470D01*
X288421Y112453D01*
X288351Y112432D01*
X288289Y112407D01*
X288233Y112379D01*
X288185Y112347D01*
X288145Y112311D01*
Y113689D01*
X288185Y113653D01*
D02*
G37*
G36*
X342202Y79632D02*
X342217Y79441D01*
X342230Y79357D01*
X342247Y79279D01*
X342268Y79210D01*
X342293Y79147D01*
X342321Y79092D01*
X342353Y79044D01*
X342389Y79003D01*
X341011D01*
X341047Y79044D01*
X341079Y79092D01*
X341107Y79147D01*
X341132Y79210D01*
X341153Y79279D01*
X341170Y79357D01*
X341183Y79441D01*
X341192Y79533D01*
X341200Y79738D01*
X342200D01*
X342202Y79632D01*
D02*
G37*
G36*
X336502Y67732D02*
X336517Y67541D01*
X336530Y67457D01*
X336547Y67379D01*
X336568Y67309D01*
X336593Y67247D01*
X336621Y67192D01*
X336653Y67144D01*
X336689Y67103D01*
X335311D01*
X335347Y67144D01*
X335379Y67192D01*
X335407Y67247D01*
X335432Y67309D01*
X335453Y67379D01*
X335470Y67457D01*
X335483Y67541D01*
X335492Y67633D01*
X335500Y67838D01*
X336500D01*
X336502Y67732D01*
D02*
G37*
G36*
X336602Y44332D02*
X336617Y44141D01*
X336630Y44057D01*
X336647Y43979D01*
X336668Y43909D01*
X336693Y43847D01*
X336721Y43792D01*
X336753Y43744D01*
X336789Y43703D01*
X335411D01*
X335447Y43744D01*
X335479Y43792D01*
X335507Y43847D01*
X335532Y43909D01*
X335553Y43979D01*
X335570Y44057D01*
X335583Y44141D01*
X335592Y44233D01*
X335600Y44438D01*
X336600D01*
X336602Y44332D01*
D02*
G37*
G36*
X290044Y134053D02*
X290092Y134021D01*
X290147Y133993D01*
X290210Y133968D01*
X290279Y133947D01*
X290357Y133930D01*
X290441Y133917D01*
X290533Y133908D01*
X290738Y133900D01*
Y132900D01*
X290632Y132898D01*
X290441Y132883D01*
X290357Y132870D01*
X290279Y132853D01*
X290210Y132832D01*
X290147Y132807D01*
X290092Y132779D01*
X290044Y132747D01*
X290003Y132711D01*
Y134089D01*
X290044Y134053D01*
D02*
G37*
G36*
Y129953D02*
X290092Y129921D01*
X290147Y129893D01*
X290210Y129868D01*
X290279Y129847D01*
X290357Y129830D01*
X290441Y129817D01*
X290533Y129808D01*
X290738Y129800D01*
Y128800D01*
X290632Y128798D01*
X290441Y128783D01*
X290357Y128770D01*
X290279Y128753D01*
X290210Y128732D01*
X290147Y128707D01*
X290092Y128679D01*
X290044Y128647D01*
X290003Y128611D01*
Y129989D01*
X290044Y129953D01*
D02*
G37*
G36*
Y125953D02*
X290092Y125921D01*
X290147Y125893D01*
X290210Y125868D01*
X290279Y125847D01*
X290357Y125830D01*
X290441Y125817D01*
X290533Y125808D01*
X290738Y125800D01*
Y124800D01*
X290632Y124798D01*
X290441Y124783D01*
X290357Y124770D01*
X290279Y124753D01*
X290210Y124732D01*
X290147Y124707D01*
X290092Y124679D01*
X290044Y124647D01*
X290003Y124611D01*
Y125989D01*
X290044Y125953D01*
D02*
G37*
G36*
X289944Y122153D02*
X289992Y122121D01*
X290047Y122093D01*
X290109Y122068D01*
X290179Y122047D01*
X290257Y122030D01*
X290341Y122017D01*
X290433Y122008D01*
X290638Y122000D01*
Y121000D01*
X290532Y120998D01*
X290341Y120983D01*
X290257Y120970D01*
X290179Y120953D01*
X290109Y120932D01*
X290047Y120907D01*
X289992Y120879D01*
X289944Y120847D01*
X289903Y120811D01*
Y122189D01*
X289944Y122153D01*
D02*
G37*
G36*
X338369Y96587D02*
X337079Y96174D01*
X337098Y96220D01*
X337107Y96269D01*
X337105Y96321D01*
X337093Y96378D01*
X337071Y96437D01*
X337038Y96500D01*
X336995Y96567D01*
X336942Y96638D01*
X336878Y96711D01*
X336804Y96789D01*
X337594Y97413D01*
X338369Y96587D01*
D02*
G37*
G36*
X342419Y97011D02*
X342564Y96885D01*
X342633Y96833D01*
X342698Y96789D01*
X342762Y96753D01*
X342822Y96724D01*
X342880Y96703D01*
X342935Y96689D01*
X342987Y96683D01*
X341960Y95765D01*
X341959Y95820D01*
X341950Y95878D01*
X341934Y95938D01*
X341909Y96000D01*
X341876Y96065D01*
X341835Y96132D01*
X341786Y96201D01*
X341728Y96273D01*
X341589Y96424D01*
X342342Y97085D01*
X342419Y97011D01*
D02*
G37*
G36*
X345902Y95632D02*
X345917Y95441D01*
X345930Y95357D01*
X345947Y95279D01*
X345968Y95209D01*
X345993Y95147D01*
X346021Y95092D01*
X346053Y95044D01*
X346089Y95003D01*
X344711D01*
X344747Y95044D01*
X344779Y95092D01*
X344807Y95147D01*
X344832Y95209D01*
X344853Y95279D01*
X344870Y95357D01*
X344883Y95441D01*
X344892Y95533D01*
X344900Y95738D01*
X345900D01*
X345902Y95632D01*
D02*
G37*
G36*
X340944D02*
X340959Y95441D01*
X340972Y95357D01*
X340989Y95279D01*
X341010Y95209D01*
X341034Y95147D01*
X341063Y95092D01*
X341095Y95044D01*
X341131Y95003D01*
X339753D01*
X339789Y95044D01*
X339821Y95092D01*
X339849Y95147D01*
X339874Y95209D01*
X339895Y95279D01*
X339912Y95357D01*
X339925Y95441D01*
X339934Y95533D01*
X339942Y95738D01*
X340942D01*
X340944Y95632D01*
D02*
G37*
G36*
X340776Y162552D02*
X340744Y162504D01*
X340716Y162449D01*
X340691Y162387D01*
X340670Y162317D01*
X340653Y162239D01*
X340640Y162155D01*
X340631Y162063D01*
X340623Y161858D01*
X339623D01*
X339621Y161964D01*
X339606Y162155D01*
X339593Y162239D01*
X339576Y162317D01*
X339555Y162387D01*
X339530Y162449D01*
X339502Y162504D01*
X339470Y162552D01*
X339434Y162593D01*
X340812D01*
X340776Y162552D01*
D02*
G37*
G36*
X340625Y146328D02*
X340640Y146137D01*
X340653Y146053D01*
X340670Y145975D01*
X340691Y145905D01*
X340716Y145843D01*
X340744Y145788D01*
X340776Y145740D01*
X340812Y145699D01*
X339434D01*
X339470Y145740D01*
X339502Y145788D01*
X339530Y145843D01*
X339555Y145905D01*
X339576Y145975D01*
X339593Y146053D01*
X339606Y146137D01*
X339615Y146229D01*
X339623Y146434D01*
X340623D01*
X340625Y146328D01*
D02*
G37*
G36*
X340339Y144036D02*
X340298Y144024D01*
X340253Y144004D01*
X340204Y143978D01*
X340151Y143944D01*
X340094Y143904D01*
X339968Y143801D01*
X339825Y143671D01*
X339748Y143595D01*
X338843Y144104D01*
X338916Y144181D01*
X339036Y144327D01*
X339082Y144396D01*
X339119Y144463D01*
X339147Y144528D01*
X339165Y144590D01*
X339175Y144649D01*
X339176Y144706D01*
X339167Y144761D01*
X340339Y144036D01*
D02*
G37*
G36*
X338589Y138368D02*
X338724Y136670D01*
X338786Y136357D01*
X338859Y136088D01*
X338943Y135864D01*
X339038Y135685D01*
X339145Y135550D01*
X338613D01*
X338614Y135547D01*
X338631Y135470D01*
X338651Y135400D01*
X338676Y135337D01*
X338704Y135282D01*
X338737Y135234D01*
X338772Y135193D01*
X337394D01*
X337430Y135234D01*
X337462Y135282D01*
X337491Y135337D01*
X337515Y135400D01*
X337536Y135470D01*
X337553Y135547D01*
X337554Y135550D01*
X337022D01*
X337129Y135685D01*
X337224Y135864D01*
X337308Y136088D01*
X337381Y136357D01*
X337443Y136670D01*
X337494Y137028D01*
X337561Y137877D01*
X337583Y138905D01*
X338583D01*
X338589Y138368D01*
D02*
G37*
G36*
X353832Y142012D02*
X353778Y142008D01*
X353721Y141997D01*
X353662Y141978D01*
X353600Y141951D01*
X353536Y141917D01*
X353470Y141874D01*
X353400Y141824D01*
X353329Y141765D01*
X353178Y141625D01*
X352471Y142332D01*
X352545Y142409D01*
X352669Y142555D01*
X352720Y142624D01*
X352762Y142690D01*
X352797Y142754D01*
X352824Y142816D01*
X352843Y142875D01*
X352854Y142932D01*
X352857Y142986D01*
X353832Y142012D01*
D02*
G37*
G36*
X351113Y111398D02*
X351128Y111207D01*
X351142Y111122D01*
X351158Y111045D01*
X351179Y110975D01*
X351204Y110912D01*
X351232Y110857D01*
X351264Y110809D01*
X351300Y110768D01*
X349922D01*
X349958Y110809D01*
X349990Y110857D01*
X350019Y110912D01*
X350043Y110975D01*
X350064Y111045D01*
X350081Y111122D01*
X350094Y111207D01*
X350104Y111298D01*
X350111Y111504D01*
X351111D01*
X351113Y111398D01*
D02*
G37*
G36*
X361988Y93436D02*
X361999Y93379D01*
X362018Y93320D01*
X362045Y93259D01*
X362080Y93194D01*
X362122Y93128D01*
X362172Y93059D01*
X362231Y92987D01*
X362371Y92836D01*
X361664Y92129D01*
X361587Y92203D01*
X361441Y92328D01*
X361372Y92378D01*
X361306Y92421D01*
X361241Y92455D01*
X361180Y92482D01*
X361121Y92501D01*
X361064Y92512D01*
X361010Y92516D01*
X361984Y93490D01*
X361988Y93436D01*
D02*
G37*
G36*
X361689Y89589D02*
X361659Y89540D01*
X361633Y89483D01*
X361612Y89420D01*
X361595Y89349D01*
X361581Y89271D01*
X361572Y89186D01*
X361567Y89094D01*
X361570Y88888D01*
X360571Y88839D01*
X360564Y88945D01*
X360540Y89135D01*
X360522Y89219D01*
X360502Y89295D01*
X360477Y89364D01*
X360450Y89425D01*
X360419Y89479D01*
X360384Y89525D01*
X360346Y89564D01*
X361723Y89632D01*
X361689Y89589D01*
D02*
G37*
G36*
X361736Y85555D02*
X361760Y85365D01*
X361778Y85281D01*
X361799Y85205D01*
X361823Y85136D01*
X361850Y85075D01*
X361881Y85021D01*
X361916Y84975D01*
X361954Y84936D01*
X360577Y84868D01*
X360611Y84911D01*
X360641Y84960D01*
X360666Y85017D01*
X360688Y85080D01*
X360705Y85151D01*
X360718Y85229D01*
X360728Y85314D01*
X360733Y85406D01*
X360730Y85612D01*
X361729Y85661D01*
X361736Y85555D01*
D02*
G37*
G36*
X364244Y83828D02*
X364259Y83637D01*
X364272Y83553D01*
X364289Y83475D01*
X364310Y83406D01*
X364334Y83343D01*
X364363Y83288D01*
X364395Y83240D01*
X364431Y83199D01*
X363053D01*
X363089Y83240D01*
X363121Y83288D01*
X363149Y83343D01*
X363174Y83406D01*
X363194Y83475D01*
X363211Y83553D01*
X363225Y83637D01*
X363234Y83729D01*
X363242Y83934D01*
X364242D01*
X364244Y83828D01*
D02*
G37*
G36*
X362353Y116156D02*
X362321Y116108D01*
X362293Y116053D01*
X362268Y115990D01*
X362247Y115921D01*
X362230Y115843D01*
X362217Y115759D01*
X362208Y115667D01*
X362200Y115462D01*
X361200D01*
X361198Y115568D01*
X361183Y115759D01*
X361170Y115843D01*
X361153Y115921D01*
X361132Y115990D01*
X361107Y116053D01*
X361079Y116108D01*
X361047Y116156D01*
X361011Y116197D01*
X362389D01*
X362353Y116156D01*
D02*
G37*
G36*
X370155Y78393D02*
X370301Y78268D01*
X370370Y78218D01*
X370436Y78175D01*
X370500Y78141D01*
X370562Y78114D01*
X370621Y78095D01*
X370678Y78084D01*
X370732Y78080D01*
X369758Y77106D01*
X369754Y77160D01*
X369743Y77217D01*
X369724Y77276D01*
X369697Y77337D01*
X369662Y77402D01*
X369620Y77468D01*
X369569Y77537D01*
X369511Y77609D01*
X369371Y77759D01*
X370078Y78467D01*
X370155Y78393D01*
D02*
G37*
G36*
X-8539Y80064D02*
X-8465Y79924D01*
X-8384Y79790D01*
X-8295Y79663D01*
X-8199Y79541D01*
X-8095Y79426D01*
X-7982Y79317D01*
X-7863Y79214D01*
X-7735Y79117D01*
X-7600Y79027D01*
X-8051Y78129D01*
X-8277Y78265D01*
X-8670Y78467D01*
X-8838Y78532D01*
X-8987Y78573D01*
X-9116Y78591D01*
X-9225Y78584D01*
X-9315Y78554D01*
X-9386Y78500D01*
X-9438Y78422D01*
X-8604Y80209D01*
X-8539Y80064D01*
D02*
G37*
G36*
X-5714Y77845D02*
X-5258Y77604D01*
X-5054Y77516D01*
X-4865Y77449D01*
X-4692Y77404D01*
X-4534Y77380D01*
X-4392Y77377D01*
X-4266Y77396D01*
X-4155Y77436D01*
X-6241Y76405D01*
X-6154Y76461D01*
X-6103Y76528D01*
X-6085Y76604D01*
X-6102Y76691D01*
X-6154Y76789D01*
X-6241Y76896D01*
X-6362Y77013D01*
X-6518Y77140D01*
X-6708Y77278D01*
X-6934Y77425D01*
X-5965Y77997D01*
X-5714Y77845D01*
D02*
G37*
G36*
X-11003Y71886D02*
X-11021Y71979D01*
X-11067Y72062D01*
X-11142Y72136D01*
X-11245Y72199D01*
X-11376Y72253D01*
X-11535Y72298D01*
X-11723Y72332D01*
X-11939Y72356D01*
X-12184Y72371D01*
X-12456Y72376D01*
X-12482Y73376D01*
X-12213Y73381D01*
X-11760Y73420D01*
X-11577Y73454D01*
X-11423Y73499D01*
X-11298Y73553D01*
X-11201Y73616D01*
X-11133Y73690D01*
X-11094Y73773D01*
X-11083Y73866D01*
X-11003Y71886D01*
D02*
G37*
G36*
X3559Y59884D02*
X3505Y59880D01*
X3448Y59869D01*
X3389Y59850D01*
X3327Y59823D01*
X3263Y59789D01*
X3196Y59746D01*
X3127Y59696D01*
X3056Y59637D01*
X2905Y59497D01*
X2198Y60204D01*
X2272Y60281D01*
X2396Y60427D01*
X2447Y60496D01*
X2489Y60562D01*
X2524Y60627D01*
X2551Y60688D01*
X2570Y60747D01*
X2581Y60804D01*
X2584Y60858D01*
X3559Y59884D01*
D02*
G37*
G36*
X405553Y60356D02*
X405521Y60308D01*
X405493Y60253D01*
X405468Y60190D01*
X405447Y60121D01*
X405430Y60043D01*
X405417Y59959D01*
X405408Y59867D01*
X405400Y59662D01*
X404400D01*
X404398Y59768D01*
X404383Y59959D01*
X404370Y60043D01*
X404353Y60121D01*
X404332Y60190D01*
X404307Y60253D01*
X404279Y60308D01*
X404247Y60356D01*
X404211Y60397D01*
X405589D01*
X405553Y60356D01*
D02*
G37*
G36*
X402853D02*
X402821Y60308D01*
X402793Y60253D01*
X402768Y60190D01*
X402747Y60121D01*
X402730Y60043D01*
X402717Y59959D01*
X402708Y59867D01*
X402700Y59662D01*
X401700D01*
X401698Y59768D01*
X401683Y59959D01*
X401670Y60043D01*
X401653Y60121D01*
X401632Y60190D01*
X401607Y60253D01*
X401579Y60308D01*
X401547Y60356D01*
X401511Y60397D01*
X402889D01*
X402853Y60356D01*
D02*
G37*
G36*
X397198Y60276D02*
X397160Y60236D01*
X397126Y60188D01*
X397097Y60134D01*
X397071Y60071D01*
X397049Y60002D01*
X397032Y59925D01*
X397018Y59841D01*
X397008Y59749D01*
X397000Y59544D01*
X396000Y59581D01*
X395998Y59687D01*
X395984Y59878D01*
X395971Y59963D01*
X395955Y60041D01*
X395935Y60111D01*
X395912Y60174D01*
X395885Y60229D01*
X395854Y60278D01*
X395820Y60319D01*
X397198Y60276D01*
D02*
G37*
G36*
X400152Y60263D02*
X400114Y60224D01*
X400079Y60176D01*
X400049Y60122D01*
X400023Y60060D01*
X400001Y59991D01*
X399982Y59915D01*
X399968Y59831D01*
X399958Y59739D01*
X399950Y59534D01*
X398950Y59593D01*
X398948Y59700D01*
X398934Y59891D01*
X398922Y59976D01*
X398907Y60054D01*
X398887Y60124D01*
X398865Y60187D01*
X398839Y60243D01*
X398809Y60292D01*
X398776Y60333D01*
X400152Y60263D01*
D02*
G37*
G36*
X402702Y45032D02*
X402717Y44841D01*
X402730Y44757D01*
X402747Y44679D01*
X402768Y44609D01*
X402793Y44547D01*
X402821Y44492D01*
X402853Y44444D01*
X402889Y44403D01*
X401511D01*
X401547Y44444D01*
X401579Y44492D01*
X401607Y44547D01*
X401632Y44609D01*
X401653Y44679D01*
X401670Y44757D01*
X401683Y44841D01*
X401692Y44933D01*
X401700Y45138D01*
X402700D01*
X402702Y45032D01*
D02*
G37*
G36*
X405402Y42432D02*
X405417Y42241D01*
X405430Y42157D01*
X405447Y42079D01*
X405468Y42009D01*
X405493Y41947D01*
X405521Y41892D01*
X405553Y41844D01*
X405589Y41803D01*
X404211D01*
X404247Y41844D01*
X404279Y41892D01*
X404307Y41947D01*
X404332Y42009D01*
X404353Y42079D01*
X404370Y42157D01*
X404383Y42241D01*
X404392Y42333D01*
X404400Y42538D01*
X405400D01*
X405402Y42432D01*
D02*
G37*
G36*
X397002Y40407D02*
X397017Y40216D01*
X397030Y40131D01*
X397047Y40054D01*
X397068Y39984D01*
X397093Y39922D01*
X397121Y39866D01*
X397153Y39818D01*
X397189Y39778D01*
X395811D01*
X395847Y39818D01*
X395879Y39866D01*
X395907Y39922D01*
X395932Y39984D01*
X395953Y40054D01*
X395970Y40131D01*
X395983Y40216D01*
X395992Y40308D01*
X396000Y40513D01*
X397000D01*
X397002Y40407D01*
D02*
G37*
G36*
X399950Y37307D02*
X399952Y37200D01*
X399966Y37009D01*
X399978Y36924D01*
X399993Y36846D01*
X400013Y36776D01*
X400035Y36713D01*
X400061Y36657D01*
X400091Y36608D01*
X400124Y36567D01*
X398748Y36637D01*
X398786Y36676D01*
X398820Y36724D01*
X398851Y36778D01*
X398877Y36840D01*
X398899Y36909D01*
X398918Y36985D01*
X398932Y37069D01*
X398942Y37161D01*
X398950Y37366D01*
X399950Y37307D01*
D02*
G37*
G36*
X478786Y63603D02*
X478739Y63575D01*
X478693Y63540D01*
X478649Y63496D01*
X478606Y63444D01*
X478565Y63384D01*
X478524Y63316D01*
X478485Y63240D01*
X478448Y63156D01*
X478376Y62963D01*
X477426Y63275D01*
X477458Y63377D01*
X477503Y63563D01*
X477517Y63648D01*
X477525Y63726D01*
X477527Y63799D01*
X477523Y63866D01*
X477514Y63928D01*
X477498Y63983D01*
X477477Y64033D01*
X478786Y63603D01*
D02*
G37*
G36*
X476023Y55806D02*
X475992Y55705D01*
X475947Y55519D01*
X475933Y55434D01*
X475925Y55356D01*
X475923Y55283D01*
X475927Y55215D01*
X475936Y55154D01*
X475952Y55098D01*
X475973Y55049D01*
X474664Y55479D01*
X474711Y55506D01*
X474757Y55542D01*
X474801Y55586D01*
X474844Y55637D01*
X474885Y55697D01*
X474926Y55765D01*
X474964Y55841D01*
X475002Y55926D01*
X475073Y56119D01*
X476023Y55806D01*
D02*
G37*
G36*
X455476Y57777D02*
X455445Y57728D01*
X455418Y57672D01*
X455396Y57608D01*
X455377Y57538D01*
X455363Y57460D01*
X455352Y57376D01*
X455345Y57283D01*
X455344Y57078D01*
X454345Y57047D01*
X454340Y57153D01*
X454319Y57344D01*
X454303Y57428D01*
X454283Y57504D01*
X454260Y57573D01*
X454234Y57635D01*
X454204Y57690D01*
X454170Y57737D01*
X454133Y57776D01*
X455510Y57819D01*
X455476Y57777D01*
D02*
G37*
G36*
X455557Y50264D02*
X455578Y50074D01*
X455594Y49990D01*
X455613Y49913D01*
X455636Y49844D01*
X455663Y49782D01*
X455693Y49728D01*
X455726Y49681D01*
X455763Y49641D01*
X454386Y49599D01*
X454421Y49640D01*
X454452Y49689D01*
X454478Y49745D01*
X454501Y49809D01*
X454519Y49879D01*
X454534Y49957D01*
X454545Y50042D01*
X454551Y50134D01*
X454552Y50339D01*
X455552Y50370D01*
X455557Y50264D01*
D02*
G37*
G36*
X356490Y37116D02*
X356436Y37112D01*
X356379Y37101D01*
X356320Y37082D01*
X356259Y37055D01*
X356194Y37020D01*
X356128Y36978D01*
X356059Y36928D01*
X355987Y36869D01*
X355837Y36729D01*
X355129Y37437D01*
X355203Y37513D01*
X355328Y37659D01*
X355378Y37728D01*
X355420Y37794D01*
X355455Y37859D01*
X355482Y37920D01*
X355501Y37979D01*
X355512Y38036D01*
X355516Y38090D01*
X356490Y37116D01*
D02*
G37*
G36*
X357097Y34411D02*
X357056Y34447D01*
X357008Y34479D01*
X356953Y34507D01*
X356891Y34532D01*
X356821Y34553D01*
X356743Y34570D01*
X356659Y34583D01*
X356567Y34592D01*
X356362Y34600D01*
Y35600D01*
X356468Y35602D01*
X356659Y35617D01*
X356743Y35630D01*
X356821Y35647D01*
X356891Y35668D01*
X356953Y35693D01*
X357008Y35721D01*
X357056Y35753D01*
X357097Y35789D01*
Y34411D01*
D02*
G37*
G36*
X308077Y19475D02*
X308003Y19399D01*
X307879Y19253D01*
X307828Y19184D01*
X307786Y19117D01*
X307751Y19053D01*
X307724Y18992D01*
X307705Y18933D01*
X307694Y18876D01*
X307690Y18822D01*
X306716Y19796D01*
X306770Y19799D01*
X306827Y19811D01*
X306886Y19830D01*
X306948Y19857D01*
X307012Y19891D01*
X307078Y19934D01*
X307147Y19984D01*
X307219Y20042D01*
X307370Y20182D01*
X308077Y19475D01*
D02*
G37*
G36*
X323221Y9168D02*
X323147Y9092D01*
X323023Y8946D01*
X322973Y8877D01*
X322930Y8810D01*
X322895Y8746D01*
X322868Y8685D01*
X322849Y8625D01*
X322838Y8569D01*
X322835Y8515D01*
X321860Y9489D01*
X321915Y9492D01*
X321971Y9504D01*
X322030Y9523D01*
X322092Y9550D01*
X322156Y9584D01*
X322223Y9627D01*
X322292Y9677D01*
X322363Y9736D01*
X322514Y9875D01*
X323221Y9168D01*
D02*
G37*
G36*
X9656Y81032D02*
X9667Y80975D01*
X9686Y80916D01*
X9713Y80854D01*
X9748Y80790D01*
X9791Y80724D01*
X9841Y80655D01*
X9899Y80583D01*
X10039Y80432D01*
X9332Y79725D01*
X9255Y79799D01*
X9110Y79924D01*
X9041Y79974D01*
X8974Y80016D01*
X8910Y80051D01*
X8848Y80078D01*
X8789Y80097D01*
X8732Y80108D01*
X8678Y80112D01*
X9653Y81086D01*
X9656Y81032D01*
D02*
G37*
G36*
X10139Y74360D02*
X10065Y74283D01*
X9941Y74137D01*
X9890Y74068D01*
X9848Y74001D01*
X9813Y73937D01*
X9786Y73876D01*
X9767Y73817D01*
X9756Y73760D01*
X9753Y73706D01*
X8778Y74680D01*
X8833Y74684D01*
X8889Y74695D01*
X8948Y74714D01*
X9010Y74741D01*
X9074Y74775D01*
X9141Y74818D01*
X9210Y74868D01*
X9281Y74927D01*
X9432Y75067D01*
X10139Y74360D01*
D02*
G37*
G36*
X341653Y21256D02*
X341621Y21208D01*
X341593Y21153D01*
X341568Y21091D01*
X341547Y21021D01*
X341530Y20943D01*
X341517Y20859D01*
X341508Y20767D01*
X341500Y20562D01*
X340500D01*
X340498Y20668D01*
X340483Y20859D01*
X340470Y20943D01*
X340453Y21021D01*
X340432Y21091D01*
X340407Y21153D01*
X340379Y21208D01*
X340347Y21256D01*
X340311Y21297D01*
X341689D01*
X341653Y21256D01*
D02*
G37*
G36*
X342344Y14828D02*
X342359Y14637D01*
X342372Y14553D01*
X342389Y14475D01*
X342410Y14405D01*
X342434Y14343D01*
X342463Y14288D01*
X342495Y14240D01*
X342531Y14199D01*
X341153D01*
X341189Y14240D01*
X341221Y14288D01*
X341249Y14343D01*
X341274Y14405D01*
X341295Y14475D01*
X341312Y14553D01*
X341325Y14637D01*
X341334Y14729D01*
X341342Y14934D01*
X342342D01*
X342344Y14828D01*
D02*
G37*
D10*
X-9399Y79569D02*
X-5047Y76828D01*
X-4443Y76448D02*
X-4086Y76223D01*
X-4443Y76448D02*
X-4443D01*
X-5047Y76828D02*
X-4443Y76448D01*
X-9900Y72876D02*
X-9399D01*
X-10831D02*
X-9900D01*
X340282Y145155D02*
X340442Y144996D01*
X338084Y142638D02*
X340442Y144996D01*
X323298Y187000D02*
X335700D01*
X351700Y193000D01*
X320777Y189000D02*
X333800D01*
X349800Y195000D01*
X358145Y212617D02*
X358149Y212613D01*
X358145Y212617D02*
Y230392D01*
X358142Y230396D02*
X358145Y230392D01*
X353542Y357596D02*
X360142D01*
X360117Y360721D02*
X360142Y360696D01*
X356066Y360721D02*
X360117D01*
X356042Y360746D02*
X356066Y360721D01*
X419642Y379927D02*
Y379996D01*
X413678Y373964D02*
X419642Y379927D01*
X413678Y373895D02*
Y373964D01*
X448599Y397196D02*
Y407196D01*
X436599Y397796D02*
Y406996D01*
X365542Y407596D02*
X370842Y402296D01*
Y396996D02*
Y402296D01*
X330340Y417194D02*
X330342Y417196D01*
X330340Y399201D02*
Y417194D01*
X330338Y399200D02*
X330340Y399201D01*
X330338Y399200D02*
X332342Y397196D01*
Y392596D02*
Y397196D01*
X330188Y390442D02*
X332342Y392596D01*
X330188Y379349D02*
Y390442D01*
X26263Y42980D02*
X86620D01*
X26884Y44480D02*
X87242D01*
X-23700Y142400D02*
Y146700D01*
Y142400D02*
X-16300Y135000D01*
X347321Y26800D02*
X355621Y35100D01*
X357800D01*
X361000Y90300D02*
X361300Y84200D01*
X454800Y58500D02*
X455097Y48917D01*
X475099Y54596D02*
X478351Y64486D01*
X393200Y118600D02*
X416399D01*
X393200Y121500D02*
X416399D01*
X393200Y115800D02*
X416399D01*
X393200Y112900D02*
X416399D01*
X331440Y26800D02*
X347321D01*
X346700Y28300D02*
X356500Y38100D01*
X316194Y28300D02*
X346700D01*
X376926Y160926D02*
Y166027D01*
X376800Y160800D02*
X376926Y160926D01*
X374442Y168512D02*
X376926Y166027D01*
X341000Y17922D02*
Y22000D01*
X341842Y13496D02*
Y17080D01*
X341000Y17922D02*
X341842Y17080D01*
X328457Y23818D02*
X331440Y26800D01*
X328457Y15112D02*
Y23818D01*
X321850Y8505D02*
X328457Y15112D01*
X399400Y35900D02*
X399450Y35950D01*
Y60950D01*
X399500Y61000D01*
X402200Y43700D02*
Y61100D01*
X404900Y41100D02*
Y61100D01*
X396500Y39075D02*
Y60969D01*
X396531Y61000D01*
X-10800Y137700D02*
Y161000D01*
X-8100Y140000D02*
Y161000D01*
X-5300Y142300D02*
Y161000D01*
X336000Y66400D02*
Y85116D01*
X321570Y99546D02*
X336000Y85116D01*
X334016Y63012D02*
Y84884D01*
Y63012D02*
X336100Y60928D01*
X321100Y97800D02*
X334016Y84884D01*
X336100Y43000D02*
Y60928D01*
X289300Y133400D02*
X298948D01*
X315648Y116700D02*
X324786D01*
X298948Y133400D02*
X315648Y116700D01*
X345400Y94300D02*
Y96086D01*
X306706Y18812D02*
X316194Y28300D01*
X307319Y97800D02*
X321100D01*
X341700Y78300D02*
Y81538D01*
X292119Y113000D02*
X307319Y97800D01*
X287442Y113000D02*
X292119D01*
X307773Y99546D02*
X321570D01*
X292119Y115200D02*
X307773Y99546D01*
X285700Y115200D02*
X292119D01*
X308338Y101200D02*
X322038D01*
X292038Y117500D02*
X308338Y101200D01*
X289000Y117500D02*
X292038D01*
X322038Y101200D02*
X341700Y81538D01*
X325400Y108900D02*
X337942Y96358D01*
X307700Y108900D02*
X325400D01*
X295100Y121500D02*
X307700Y108900D01*
X325000Y111500D02*
X340442Y96058D01*
X309302Y111500D02*
X325000D01*
X295502Y125300D02*
X309302Y111500D01*
X337942Y95700D02*
Y96358D01*
Y95607D02*
Y95700D01*
X324786Y116700D02*
X345400Y96086D01*
X342942Y95738D02*
Y95778D01*
X340442Y94300D02*
Y96058D01*
X324620Y114100D02*
X342942Y95778D01*
X312019Y114100D02*
X324620D01*
X289200Y121500D02*
X295100D01*
X289300Y125300D02*
X295502D01*
X289300Y129300D02*
X296819D01*
X312019Y114100D01*
X90242Y23746D02*
X93742Y20246D01*
X88742Y23125D02*
X93120Y18746D01*
X90242Y23746D02*
Y41480D01*
X88742Y23125D02*
Y40859D01*
X86620Y42980D02*
X88742Y40859D01*
X87242Y44480D02*
X90242Y41480D01*
X93120Y18746D02*
X116630D01*
X93742Y20246D02*
X116630D01*
X323294Y186996D02*
X323298Y187000D01*
X320773Y188996D02*
X320777Y189000D01*
X361000Y90300D02*
X361022Y90278D01*
X361000Y84500D02*
X361300Y84200D01*
X363742Y82496D02*
Y90758D01*
X361000Y93500D02*
X363742Y90758D01*
X361700Y99738D02*
Y116900D01*
Y99738D02*
X368083Y93355D01*
X21568Y47675D02*
X26263Y42980D01*
X21568Y47675D02*
Y72896D01*
X23068Y48296D02*
X26884Y44480D01*
X23068Y48296D02*
Y73517D01*
X18420Y78166D02*
X23068Y73517D01*
X11598Y78166D02*
X18420D01*
X17798Y76666D02*
X21568Y72896D01*
X11739Y76666D02*
X17798D01*
X8768Y73696D02*
X11739Y76666D01*
X8669Y81096D02*
X11598Y78166D01*
X116630Y18746D02*
X117280Y18096D01*
X117542D01*
X87242Y44480D02*
Y44480D01*
X116630Y20246D02*
X117280Y20896D01*
X117542D01*
X350611Y139766D02*
X353842Y142996D01*
X350611Y110065D02*
Y139766D01*
X-15832Y58715D02*
X-13012Y55896D01*
X338084Y134490D02*
Y142638D01*
X-15832Y70153D02*
X-13109Y72876D01*
X-15832Y58715D02*
Y70153D01*
X-13109Y72876D02*
X-10831D01*
X-1403Y55896D02*
X3568Y60868D01*
X-13012Y55896D02*
X-1403D01*
X368083Y79755D02*
Y93355D01*
X340123Y144996D02*
Y163296D01*
X368083Y79755D02*
X370742Y77096D01*
X336342Y304596D02*
Y315158D01*
X336346Y315162D01*
X332442Y304596D02*
Y314065D01*
X332411Y314096D02*
X332442Y314065D01*
D15*
X377942Y173496D02*
X384842D01*
X376642Y174796D02*
X377942Y173496D01*
X371042Y174796D02*
X376642D01*
D17*
X144866Y401996D02*
X144906Y383996D01*
X144848Y410000D02*
X144866Y401996D01*
X144942Y372058D02*
Y383996D01*
Y372058D02*
X145000Y372000D01*
X390300Y140000D02*
X405000D01*
X390105D02*
X390300D01*
X405000D02*
X408026D01*
X389897Y139797D02*
X390105Y140000D01*
X386101Y136101D02*
X389897Y139797D01*
X338084Y117535D02*
Y134490D01*
Y117535D02*
X339942Y115677D01*
D45*
X316842Y10996D02*
D03*
X346842D02*
D03*
D51*
X44488Y19478D02*
D03*
D84*
X-4700Y89640D02*
D03*
Y86293D02*
D03*
Y82947D02*
D03*
Y79600D02*
D03*
Y76254D02*
D03*
Y72907D02*
D03*
Y69561D02*
D03*
Y66214D02*
D03*
X-10014D02*
D03*
Y69561D02*
D03*
Y72907D02*
D03*
Y76254D02*
D03*
Y79600D02*
D03*
Y82947D02*
D03*
Y86293D02*
D03*
Y89640D02*
D03*
D85*
X-8558Y94955D02*
D03*
Y60899D02*
D03*
D86*
X-21865D02*
D03*
Y94955D02*
D03*
D87*
X155512Y419496D02*
D03*
Y362409D02*
D03*
X37402D02*
D03*
Y419496D02*
D03*
D88*
X111721Y347500D02*
D03*
X287442Y92996D02*
D03*
X207442D02*
D03*
X279442Y347500D02*
D03*
D89*
X111721Y337500D02*
D03*
X101721Y347500D02*
D03*
Y337500D02*
D03*
X91721Y347500D02*
D03*
Y337500D02*
D03*
X-33433Y200496D02*
D03*
Y210496D02*
D03*
Y220496D02*
D03*
Y230496D02*
D03*
Y240496D02*
D03*
X324942Y297996D02*
D03*
X314942D02*
D03*
X324942Y307996D02*
D03*
Y132996D02*
D03*
X314942Y122996D02*
D03*
X324942D02*
D03*
X381599Y74496D02*
D03*
X391599Y84496D02*
D03*
X381599D02*
D03*
X391599Y94496D02*
D03*
X381599D02*
D03*
X391599Y104496D02*
D03*
X381599D02*
D03*
Y223996D02*
D03*
X391599D02*
D03*
X381599Y213996D02*
D03*
X391599D02*
D03*
X381599Y203996D02*
D03*
X391599D02*
D03*
X381599Y193996D02*
D03*
X391598Y343996D02*
D03*
X381598D02*
D03*
Y333996D02*
D03*
X391598D02*
D03*
X381598Y323996D02*
D03*
X391598D02*
D03*
X381598Y313996D02*
D03*
X391598D02*
D03*
X381598Y303996D02*
D03*
X247442Y92996D02*
D03*
Y82996D02*
D03*
X257442D02*
D03*
Y92996D02*
D03*
X267442Y82996D02*
D03*
Y92996D02*
D03*
X277442Y82996D02*
D03*
Y92996D02*
D03*
X287442Y82996D02*
D03*
X207442D02*
D03*
X197442Y92996D02*
D03*
Y82996D02*
D03*
X187442Y92996D02*
D03*
Y82996D02*
D03*
X177442Y92996D02*
D03*
Y82996D02*
D03*
X167442D02*
D03*
Y92996D02*
D03*
X239442Y347500D02*
D03*
Y337500D02*
D03*
X249442D02*
D03*
Y347500D02*
D03*
X259442Y337500D02*
D03*
Y347500D02*
D03*
X269442Y337500D02*
D03*
Y347500D02*
D03*
X279442Y337500D02*
D03*
D90*
X-33433Y190496D02*
D03*
X314942Y307996D02*
D03*
Y132996D02*
D03*
X391599Y74496D02*
D03*
Y193996D02*
D03*
X391598Y303996D02*
D03*
D91*
X381598Y373996D02*
D03*
X391598D02*
D03*
X381598Y353996D02*
D03*
X391598D02*
D03*
Y363996D02*
D03*
X381598D02*
D03*
X217442Y82996D02*
D03*
Y92996D02*
D03*
X237442Y82996D02*
D03*
Y92996D02*
D03*
X227442D02*
D03*
Y82996D02*
D03*
X147442D02*
D03*
Y92996D02*
D03*
X157442D02*
D03*
Y82996D02*
D03*
X137442Y92996D02*
D03*
Y82996D02*
D03*
X209442Y337500D02*
D03*
Y347500D02*
D03*
X229442Y337500D02*
D03*
Y347500D02*
D03*
X219442D02*
D03*
Y337500D02*
D03*
D92*
X44488Y18504D02*
D03*
D93*
X33569Y93396D02*
D03*
X59069Y93896D02*
D03*
Y61896D02*
D03*
X350233Y275000D02*
D03*
X336442D02*
D03*
X321442D02*
D03*
D94*
X27559Y405953D02*
D03*
Y395953D02*
D03*
Y385953D02*
D03*
Y375953D02*
D03*
D95*
X-7500Y377000D02*
D03*
X63942Y341000D02*
D03*
X9300Y358400D02*
D03*
X8200Y407400D02*
D03*
X101000Y367982D02*
D03*
X120740Y368015D02*
D03*
X145000Y372000D02*
D03*
X201608Y388594D02*
D03*
X221478Y388601D02*
D03*
X241349Y388608D02*
D03*
X281089Y388622D02*
D03*
X261219Y388615D02*
D03*
X200572Y419993D02*
D03*
X220442Y420000D02*
D03*
X240312Y420007D02*
D03*
X280052Y420022D02*
D03*
X260182Y420014D02*
D03*
X70000Y416800D02*
D03*
X82000Y421000D02*
D03*
X141610Y421022D02*
D03*
X121740Y421014D02*
D03*
X135759Y368015D02*
D03*
X384842Y173496D02*
D03*
X404083Y161496D02*
D03*
X397599Y156496D02*
D03*
X359000Y189000D02*
D03*
X329792Y396603D02*
D03*
X182664Y409996D02*
D03*
X308942Y417396D02*
D03*
X342542Y413996D02*
D03*
X333242Y413796D02*
D03*
X320942Y413764D02*
D03*
X351410Y411996D02*
D03*
X365542Y407596D02*
D03*
X24488Y3528D02*
D03*
X64488D02*
D03*
X14961Y22346D02*
D03*
Y12347D02*
D03*
Y3528D02*
D03*
X34488D02*
D03*
X74016Y22346D02*
D03*
Y12347D02*
D03*
Y3528D02*
D03*
X54488D02*
D03*
X44488D02*
D03*
X150000Y335000D02*
D03*
X166071Y414500D02*
D03*
X182664Y417000D02*
D03*
X199442Y376455D02*
D03*
X181590Y377976D02*
D03*
X152428D02*
D03*
X182664Y311000D02*
D03*
X188749Y321696D02*
D03*
X89500Y393000D02*
D03*
Y385500D02*
D03*
X89685Y400679D02*
D03*
X158442Y404512D02*
D03*
X124442Y412894D02*
D03*
X370000Y419500D02*
D03*
X172000Y409771D02*
D03*
X42500Y409200D02*
D03*
X169242Y402196D02*
D03*
X145000Y410000D02*
D03*
X-25500Y178600D02*
D03*
X-23000Y201900D02*
D03*
X-54400Y303100D02*
D03*
X-54200Y251500D02*
D03*
Y180200D02*
D03*
X-23000Y236400D02*
D03*
X-13700Y246400D02*
D03*
X-10800Y261996D02*
D03*
X8000Y236500D02*
D03*
Y264000D02*
D03*
Y290000D02*
D03*
X-9300Y309500D02*
D03*
X-23700Y146700D02*
D03*
X-41200Y154900D02*
D03*
X394200Y46732D02*
D03*
Y55840D02*
D03*
X357800Y35100D02*
D03*
X454800Y58500D02*
D03*
X455097Y48917D02*
D03*
X416399Y121500D02*
D03*
Y118600D02*
D03*
Y115800D02*
D03*
Y112900D02*
D03*
X428000Y155496D02*
D03*
X457099Y180996D02*
D03*
X394200Y129830D02*
D03*
X408200D02*
D03*
Y136500D02*
D03*
X394200Y136100D02*
D03*
X375244Y44996D02*
D03*
X49304Y245542D02*
D03*
Y215542D02*
D03*
Y185542D02*
D03*
X216942Y290496D02*
D03*
X245642D02*
D03*
X275442Y291496D02*
D03*
X275642Y254796D02*
D03*
X245642D02*
D03*
X215642D02*
D03*
Y219796D02*
D03*
X245642D02*
D03*
X275642D02*
D03*
X367442Y280996D02*
D03*
Y270996D02*
D03*
X406999Y290396D02*
D03*
Y280396D02*
D03*
X387099Y293496D02*
D03*
Y278496D02*
D03*
X218942Y192496D02*
D03*
X208942D02*
D03*
X188942D02*
D03*
X277242D02*
D03*
X268942D02*
D03*
X258942D02*
D03*
X248942D02*
D03*
X238942D02*
D03*
X228942D02*
D03*
X286288D02*
D03*
X296288D02*
D03*
X316288Y203496D02*
D03*
X133975Y286996D02*
D03*
X103975D02*
D03*
X390300Y140000D02*
D03*
X386101Y136101D02*
D03*
X405000Y140000D02*
D03*
X408200D02*
D03*
X423000Y110500D02*
D03*
X408800Y126100D02*
D03*
X356500Y38100D02*
D03*
X376800Y160800D02*
D03*
X341000Y22000D02*
D03*
X336842Y13496D02*
D03*
X321768D02*
D03*
X331842Y13495D02*
D03*
X341842Y13496D02*
D03*
X321850Y8505D02*
D03*
X409099Y43602D02*
D03*
X404900Y36117D02*
D03*
X388200Y33169D02*
D03*
X376458Y33524D02*
D03*
X371809Y60138D02*
D03*
X380230Y60928D02*
D03*
X391792Y61100D02*
D03*
X391599Y66717D02*
D03*
X402200Y43700D02*
D03*
X399400Y35900D02*
D03*
X404900Y41100D02*
D03*
X396500Y39075D02*
D03*
X404900Y61100D02*
D03*
X402200D02*
D03*
X399500Y61000D02*
D03*
X396531D02*
D03*
X406150Y67500D02*
D03*
X-10800Y161000D02*
D03*
X-8100D02*
D03*
X-5300D02*
D03*
Y142300D02*
D03*
X-8100Y140000D02*
D03*
X-10800Y137700D02*
D03*
X-27698Y156400D02*
D03*
X-13000Y142800D02*
D03*
X-15700Y145900D02*
D03*
X-19000Y149300D02*
D03*
X336000Y66400D02*
D03*
X282300Y87800D02*
D03*
X-35300Y126800D02*
D03*
X-24300D02*
D03*
X-12300D02*
D03*
X-16300Y135000D02*
D03*
X289300Y133400D02*
D03*
X285700Y119500D02*
D03*
Y127300D02*
D03*
Y131330D02*
D03*
X291700Y119500D02*
D03*
X291600Y127300D02*
D03*
X291700Y131300D02*
D03*
X367253Y66232D02*
D03*
X333007Y24327D02*
D03*
X325700Y22800D02*
D03*
X312019Y19496D02*
D03*
X330600Y22800D02*
D03*
X313695Y38488D02*
D03*
X308940Y43012D02*
D03*
Y58796D02*
D03*
X313695Y63496D02*
D03*
X333007Y57496D02*
D03*
X313000Y106700D02*
D03*
X329300Y97000D02*
D03*
X327900Y87800D02*
D03*
X325400Y90300D02*
D03*
X326000Y26100D02*
D03*
X326842Y30496D02*
D03*
X318903Y76442D02*
D03*
X330997Y79225D02*
D03*
X330500Y85300D02*
D03*
X323300Y92400D02*
D03*
X330900Y95200D02*
D03*
X339642Y73092D02*
D03*
X341700Y78300D02*
D03*
X336100Y43000D02*
D03*
X330997Y69520D02*
D03*
X344754Y106700D02*
D03*
X326011Y60512D02*
D03*
X330700Y100600D02*
D03*
X310200Y106700D02*
D03*
X340800Y110500D02*
D03*
X335432Y91700D02*
D03*
X335300Y94496D02*
D03*
X342426Y104000D02*
D03*
X340442Y94300D02*
D03*
X345400D02*
D03*
X342942Y95700D02*
D03*
X337942D02*
D03*
X72900Y129300D02*
D03*
X272130Y87472D02*
D03*
X262560D02*
D03*
X289000Y117500D02*
D03*
X289200Y121500D02*
D03*
X289300Y125300D02*
D03*
Y129300D02*
D03*
X285700Y115200D02*
D03*
X287442Y113000D02*
D03*
X371042Y199996D02*
D03*
X351700Y193000D02*
D03*
X349800Y195000D02*
D03*
X353842Y177796D02*
D03*
X354619Y223996D02*
D03*
X346642Y203496D02*
D03*
X332942Y177190D02*
D03*
X339642Y171096D02*
D03*
X302600Y98800D02*
D03*
X361300Y84200D02*
D03*
X361000Y93500D02*
D03*
Y90300D02*
D03*
X393200Y118600D02*
D03*
Y115800D02*
D03*
Y112900D02*
D03*
Y121500D02*
D03*
X392599Y126496D02*
D03*
X383358D02*
D03*
X361700Y116900D02*
D03*
X364100Y113400D02*
D03*
Y108600D02*
D03*
X171942Y209796D02*
D03*
X161942Y219796D02*
D03*
X166942Y214796D02*
D03*
X151200Y236000D02*
D03*
Y226049D02*
D03*
X158300Y236000D02*
D03*
Y226000D02*
D03*
X226500Y200500D02*
D03*
X242000Y98904D02*
D03*
X222000D02*
D03*
X202000D02*
D03*
X182000D02*
D03*
X161882Y98704D02*
D03*
X98146Y149804D02*
D03*
X204800Y138700D02*
D03*
X224800D02*
D03*
X214800D02*
D03*
X234800D02*
D03*
X244800D02*
D03*
X254800D02*
D03*
X264800D02*
D03*
X275800D02*
D03*
X285800D02*
D03*
X114800D02*
D03*
X134800D02*
D03*
X124800D02*
D03*
X144800D02*
D03*
X154800D02*
D03*
X164800D02*
D03*
X174800D02*
D03*
X184800D02*
D03*
X194800D02*
D03*
X-1000Y129500D02*
D03*
X19000D02*
D03*
X9000D02*
D03*
X29000D02*
D03*
X39000D02*
D03*
X49000D02*
D03*
X90000Y161000D02*
D03*
X80000D02*
D03*
X70000D02*
D03*
X59000D02*
D03*
X49000D02*
D03*
X39000D02*
D03*
X29000D02*
D03*
X9000D02*
D03*
X19000D02*
D03*
X7400Y176100D02*
D03*
Y196100D02*
D03*
Y216100D02*
D03*
X-23000Y211606D02*
D03*
X327600Y98700D02*
D03*
X338084Y107951D02*
D03*
X-18000Y160482D02*
D03*
X-34300Y184100D02*
D03*
X448599Y407196D02*
D03*
Y397196D02*
D03*
X-43400Y146800D02*
D03*
X374942Y163396D02*
D03*
X8768Y73696D02*
D03*
X8669Y81096D02*
D03*
X8468Y77396D02*
D03*
X117542Y18096D02*
D03*
Y20896D02*
D03*
X350611Y110065D02*
D03*
X349894Y83296D02*
D03*
X322842Y148396D02*
D03*
X322942Y160396D02*
D03*
X360142Y360696D02*
D03*
Y357596D02*
D03*
X353542D02*
D03*
X332942Y30496D02*
D03*
X22127Y42400D02*
D03*
X19127Y45800D02*
D03*
X85742Y34996D02*
D03*
X88242Y18996D02*
D03*
X85742Y28996D02*
D03*
X93242Y38996D02*
D03*
Y28996D02*
D03*
Y23996D02*
D03*
X98742Y33996D02*
D03*
Y23996D02*
D03*
Y15996D02*
D03*
X103742D02*
D03*
Y23996D02*
D03*
X103542Y33896D02*
D03*
X25769Y40496D02*
D03*
X19268Y71096D02*
D03*
Y66183D02*
D03*
Y60996D02*
D03*
Y55996D02*
D03*
Y50996D02*
D03*
X25769Y48996D02*
D03*
Y55996D02*
D03*
Y60996D02*
D03*
X64500Y40500D02*
D03*
X57000D02*
D03*
X48500D02*
D03*
X40000D02*
D03*
X351350Y144996D02*
D03*
X364444Y163296D02*
D03*
X343819Y139476D02*
D03*
X330342Y417196D02*
D03*
X140942Y409996D02*
D03*
X127442Y383996D02*
D03*
Y401996D02*
D03*
X372449Y253853D02*
D03*
X361541D02*
D03*
X-31058Y384938D02*
D03*
Y368000D02*
D03*
X63942Y380996D02*
D03*
Y405911D02*
D03*
X338084Y134490D02*
D03*
X318942Y268496D02*
D03*
X324942Y265496D02*
D03*
X309442Y256580D02*
D03*
X309511Y246356D02*
D03*
Y236355D02*
D03*
X314442Y256580D02*
D03*
X314511Y246356D02*
D03*
Y236355D02*
D03*
X319942Y256580D02*
D03*
X320011Y246356D02*
D03*
Y236355D02*
D03*
X333942Y215996D02*
D03*
X328942Y220496D02*
D03*
X325011Y223996D02*
D03*
Y236271D02*
D03*
Y246271D02*
D03*
X341342Y212596D02*
D03*
X158900Y342900D02*
D03*
X343500Y113000D02*
D03*
X220142Y356639D02*
D03*
X230142D02*
D03*
X478351Y106863D02*
D03*
X250142Y356639D02*
D03*
X260142D02*
D03*
X270142D02*
D03*
X280142D02*
D03*
X210142D02*
D03*
X105475Y312496D02*
D03*
X133975Y313496D02*
D03*
X158542Y295996D02*
D03*
X159000Y334900D02*
D03*
X158925Y325364D02*
D03*
X144747Y334900D02*
D03*
X151825Y325364D02*
D03*
X340123Y144996D02*
D03*
X340123Y115496D02*
D03*
X315142Y72197D02*
D03*
X124442Y390996D02*
D03*
Y394679D02*
D03*
X168942Y195996D02*
D03*
X156942Y207996D02*
D03*
X146442Y217996D02*
D03*
X136442Y227996D02*
D03*
X126442Y237996D02*
D03*
X363742Y82496D02*
D03*
X354520Y76442D02*
D03*
X370742Y77096D02*
D03*
X1168Y77396D02*
D03*
X359442Y113496D02*
D03*
X386101Y147453D02*
D03*
X372570Y83682D02*
D03*
X353242Y83296D02*
D03*
X372542Y100096D02*
D03*
X375935Y102996D02*
D03*
X2868Y85148D02*
D03*
X14293D02*
D03*
X348942Y173996D02*
D03*
X358142Y230396D02*
D03*
X358149Y212613D02*
D03*
X144942Y383996D02*
D03*
Y401996D02*
D03*
X340123Y163296D02*
D03*
X374442Y168512D02*
D03*
X330338Y399200D02*
D03*
X329642Y376753D02*
D03*
X330188Y379349D02*
D03*
X362288Y24327D02*
D03*
X310042Y15396D02*
D03*
X315942Y4896D02*
D03*
X339174D02*
D03*
X112242Y28496D02*
D03*
X114442Y16496D02*
D03*
Y23996D02*
D03*
X109444Y9100D02*
D03*
X115661Y7185D02*
D03*
X105000Y4600D02*
D03*
X100300Y9100D02*
D03*
X359442Y108696D02*
D03*
X100242Y46996D02*
D03*
X93742D02*
D03*
X535942Y186496D02*
D03*
Y208996D02*
D03*
X535789Y229177D02*
D03*
X410442Y397496D02*
D03*
X400442D02*
D03*
X390442D02*
D03*
X341942Y332996D02*
D03*
Y344496D02*
D03*
Y354496D02*
D03*
Y364496D02*
D03*
X336442Y315162D02*
D03*
X334542Y332996D02*
D03*
X301942Y329996D02*
D03*
Y339496D02*
D03*
Y349496D02*
D03*
Y359496D02*
D03*
Y382496D02*
D03*
Y379496D02*
D03*
Y389496D02*
D03*
X120942Y16496D02*
D03*
X324642Y53996D02*
D03*
X353842Y142996D02*
D03*
X26768Y80808D02*
D03*
X28998Y83196D02*
D03*
X306706Y18812D02*
D03*
X55027Y99396D02*
D03*
X25069D02*
D03*
X35568Y98896D02*
D03*
X43569Y99396D02*
D03*
X49068D02*
D03*
X112242Y33896D02*
D03*
X87242Y46996D02*
D03*
X536410Y330496D02*
D03*
X336342Y304596D02*
D03*
X332442D02*
D03*
X42169Y67542D02*
D03*
X35315Y76396D02*
D03*
X330997Y65505D02*
D03*
X306036Y63352D02*
D03*
X311053Y26831D02*
D03*
Y29996D02*
D03*
X299958Y25365D02*
D03*
X300442Y16496D02*
D03*
X355842Y21996D02*
D03*
X352908Y290508D02*
D03*
X49068Y76396D02*
D03*
X419642Y379996D02*
D03*
X375444Y71094D02*
D03*
X332342Y315396D02*
D03*
X360860Y140374D02*
D03*
X353042Y150396D02*
D03*
Y167796D02*
D03*
X329942Y262496D02*
D03*
X342942Y280496D02*
D03*
X330942D02*
D03*
X320773Y188996D02*
D03*
X323294Y186996D02*
D03*
X318242Y286296D02*
D03*
X371042Y174796D02*
D03*
X348787Y256412D02*
D03*
X302442Y313996D02*
D03*
X93742Y55896D02*
D03*
X28998Y88196D02*
D03*
X25769Y66183D02*
D03*
Y71096D02*
D03*
Y76096D02*
D03*
X376458Y29307D02*
D03*
X370442Y31600D02*
D03*
X305906Y8496D02*
D03*
X343819Y265796D02*
D03*
X349357Y330274D02*
D03*
X367147Y260996D02*
D03*
X368256Y223455D02*
D03*
X343921Y227827D02*
D03*
X324942Y256496D02*
D03*
X370842Y396996D02*
D03*
X394799Y187996D02*
D03*
X389799Y176996D02*
D03*
X384799D02*
D03*
X360842Y148996D02*
D03*
X293786Y89238D02*
D03*
X386918Y79980D02*
D03*
Y99546D02*
D03*
X413678Y373895D02*
D03*
X478351Y64486D02*
D03*
X510599Y67096D02*
D03*
X418099Y214939D02*
D03*
X417099Y203496D02*
D03*
X414599Y239834D02*
D03*
X496899Y189896D02*
D03*
X495000Y208996D02*
D03*
X496599Y229177D02*
D03*
X440399Y295896D02*
D03*
X438799Y308296D02*
D03*
X475099Y54596D02*
D03*
X380599Y397490D02*
D03*
X406499Y370796D02*
D03*
X406999Y360396D02*
D03*
Y350396D02*
D03*
Y340396D02*
D03*
Y330396D02*
D03*
Y320396D02*
D03*
Y310396D02*
D03*
Y300396D02*
D03*
X424903Y365196D02*
D03*
X424599Y354996D02*
D03*
Y344996D02*
D03*
X518599Y357996D02*
D03*
Y347996D02*
D03*
Y327996D02*
D03*
X528859Y357996D02*
D03*
X528599Y347996D02*
D03*
X525099Y312496D02*
D03*
Y295896D02*
D03*
X454450Y308496D02*
D03*
X464599D02*
D03*
X474599D02*
D03*
X484599D02*
D03*
Y319996D02*
D03*
X474599D02*
D03*
X464599D02*
D03*
X454599D02*
D03*
X421099Y56496D02*
D03*
X412099D02*
D03*
X431099D02*
D03*
X441099Y58096D02*
D03*
X421099Y46996D02*
D03*
X412300Y47000D02*
D03*
X431099Y46996D02*
D03*
X441099Y46596D02*
D03*
X407099Y219496D02*
D03*
Y205996D02*
D03*
Y187496D02*
D03*
X406150Y107500D02*
D03*
Y97500D02*
D03*
Y87500D02*
D03*
Y77500D02*
D03*
X386918Y89238D02*
D03*
X445573Y151496D02*
D03*
X452599Y155496D02*
D03*
X462599D02*
D03*
X472599D02*
D03*
X482599D02*
D03*
X492599D02*
D03*
X502599D02*
D03*
X512599D02*
D03*
X522599D02*
D03*
X532599D02*
D03*
Y140496D02*
D03*
X522599D02*
D03*
X512599D02*
D03*
X502599D02*
D03*
X492599D02*
D03*
X482599D02*
D03*
X472599D02*
D03*
X462599D02*
D03*
X454099Y135496D02*
D03*
X444099Y125496D02*
D03*
X434099Y115496D02*
D03*
X471334Y102096D02*
D03*
X502737Y102596D02*
D03*
X502099Y77096D02*
D03*
X472099D02*
D03*
X409099Y259996D02*
D03*
X432599Y257496D02*
D03*
X447599D02*
D03*
X462599D02*
D03*
X477599D02*
D03*
X436599Y397796D02*
D03*
Y406996D02*
D03*
X464242Y408696D02*
D03*
X478242D02*
D03*
X477099Y396949D02*
D03*
X463099Y396996D02*
D03*
X511099Y283996D02*
D03*
X523699D02*
D03*
Y256496D02*
D03*
X511099D02*
D03*
X483717Y285496D02*
D03*
X376788Y9196D02*
D03*
X384599Y169996D02*
D03*
X389599D02*
D03*
X394599Y180996D02*
D03*
X392599Y161496D02*
D03*
X402599Y151496D02*
D03*
X439446Y144952D02*
D03*
X433300Y138900D02*
D03*
X426600Y130200D02*
D03*
X421652Y126100D02*
D03*
X418099Y135390D02*
D03*
X507699Y383996D02*
D03*
X435269Y377506D02*
D03*
X544242Y360995D02*
D03*
Y341995D02*
D03*
Y321995D02*
D03*
Y301842D02*
D03*
Y285995D02*
D03*
X8641Y85148D02*
D03*
X311942Y404578D02*
D03*
Y394578D02*
D03*
Y384578D02*
D03*
X304536Y58796D02*
D03*
X119242Y93896D02*
D03*
Y83896D02*
D03*
Y73896D02*
D03*
X118642Y63896D02*
D03*
Y53896D02*
D03*
Y43896D02*
D03*
X112242D02*
D03*
Y53896D02*
D03*
Y63896D02*
D03*
X65569Y88896D02*
D03*
X88742D02*
D03*
X98242D02*
D03*
X109742Y88743D02*
D03*
X109700Y98500D02*
D03*
X98200D02*
D03*
X88700D02*
D03*
X65469Y98596D02*
D03*
X64569Y55896D02*
D03*
X82042D02*
D03*
X100142D02*
D03*
X64500Y47000D02*
D03*
X57000D02*
D03*
X140442Y22996D02*
D03*
X160942D02*
D03*
X180942D02*
D03*
X200942D02*
D03*
X219942D02*
D03*
X239958D02*
D03*
X259942D02*
D03*
X279942D02*
D03*
X120442D02*
D03*
X280442Y16496D02*
D03*
X260442D02*
D03*
X240442D02*
D03*
X220442D02*
D03*
X200442D02*
D03*
X180442D02*
D03*
X160442D02*
D03*
X140942D02*
D03*
X40000Y47000D02*
D03*
X48500D02*
D03*
X49698Y55896D02*
D03*
X38168D02*
D03*
X179904Y181996D02*
D03*
X353042Y403028D02*
D03*
X369842Y350081D02*
D03*
X293342Y55935D02*
D03*
X66568Y69896D02*
D03*
Y80136D02*
D03*
X4569Y99396D02*
D03*
X9568D02*
D03*
X14569D02*
D03*
X81000Y368000D02*
D03*
X46721Y372000D02*
D03*
X61000Y368000D02*
D03*
X204442Y302996D02*
D03*
X194442D02*
D03*
X195233Y314996D02*
D03*
X204142Y313996D02*
D03*
X294142D02*
D03*
X284142D02*
D03*
X274142D02*
D03*
X264142D02*
D03*
X254142D02*
D03*
X244142D02*
D03*
X234142D02*
D03*
X224142D02*
D03*
X214142D02*
D03*
X367262Y415138D02*
D03*
X132442Y6685D02*
D03*
X155442D02*
D03*
X178442D02*
D03*
X201442D02*
D03*
X224442D02*
D03*
X247442D02*
D03*
X270442D02*
D03*
X293442D02*
D03*
X131942Y37217D02*
D03*
X154942D02*
D03*
X177942D02*
D03*
X200942D02*
D03*
X223942D02*
D03*
X246942D02*
D03*
X269942D02*
D03*
X52738Y378554D02*
D03*
X362342Y19496D02*
D03*
X320915Y22095D02*
D03*
X315942Y21996D02*
D03*
X381042Y9196D02*
D03*
X381078Y15996D02*
D03*
Y20996D02*
D03*
X353942Y3496D02*
D03*
X363942D02*
D03*
X373942D02*
D03*
X372534Y9196D02*
D03*
X368280D02*
D03*
X44568Y60868D02*
D03*
X49068Y87396D02*
D03*
X40069D02*
D03*
X46069D02*
D03*
X45568Y81396D02*
D03*
Y76396D02*
D03*
X46069Y67542D02*
D03*
X45568Y71396D02*
D03*
X43069Y87396D02*
D03*
Y81396D02*
D03*
Y76396D02*
D03*
Y71396D02*
D03*
X-31058Y350496D02*
D03*
X336042Y265796D02*
D03*
X342942Y273496D02*
D03*
X285942Y200496D02*
D03*
X295942D02*
D03*
X315942Y211496D02*
D03*
X286288Y181996D02*
D03*
X296288D02*
D03*
X316288Y192996D02*
D03*
X332229Y195000D02*
D03*
X277242Y181996D02*
D03*
X268942D02*
D03*
X258942D02*
D03*
X248942D02*
D03*
X238942D02*
D03*
X228942D02*
D03*
X218942D02*
D03*
X208942D02*
D03*
X198942D02*
D03*
X188942D02*
D03*
X276895Y200496D02*
D03*
X268595D02*
D03*
X258595D02*
D03*
X248595D02*
D03*
X238595D02*
D03*
X218595D02*
D03*
X208595D02*
D03*
X198595D02*
D03*
X188595D02*
D03*
X178942D02*
D03*
X151942Y195996D02*
D03*
X161942Y185996D02*
D03*
X131942Y215996D02*
D03*
X121942Y225996D02*
D03*
X111942Y235996D02*
D03*
X146942Y200996D02*
D03*
X156942Y190996D02*
D03*
X36721Y310996D02*
D03*
X46721Y300996D02*
D03*
X81721Y265996D02*
D03*
X91721Y255996D02*
D03*
X101721Y245996D02*
D03*
X51721Y295996D02*
D03*
X86721Y260996D02*
D03*
X76721Y270996D02*
D03*
X106721Y240996D02*
D03*
X96721Y250996D02*
D03*
X108442Y256996D02*
D03*
X118442Y246996D02*
D03*
X88442Y276996D02*
D03*
X98442Y266996D02*
D03*
X68442Y296996D02*
D03*
X78442Y286996D02*
D03*
X32000Y332000D02*
D03*
X73442Y291996D02*
D03*
X113442Y251996D02*
D03*
X103442Y261996D02*
D03*
X93442Y271996D02*
D03*
X83442Y281996D02*
D03*
X58442Y306996D02*
D03*
X37000Y327000D02*
D03*
X27003Y336442D02*
D03*
X279942Y62996D02*
D03*
X251962D02*
D03*
X232442D02*
D03*
X209442D02*
D03*
X186442D02*
D03*
X163442D02*
D03*
X140442D02*
D03*
X360446Y171071D02*
D03*
X361342Y57496D02*
D03*
X381078Y25996D02*
D03*
X214442Y302996D02*
D03*
X224442D02*
D03*
X244442D02*
D03*
X254442D02*
D03*
X274442D02*
D03*
X284442D02*
D03*
X294442D02*
D03*
X302742D02*
D03*
X369842Y328412D02*
D03*
X359093Y404626D02*
D03*
X342542Y373496D02*
D03*
X369842Y372396D02*
D03*
X359693Y394096D02*
D03*
X347943Y399499D02*
D03*
X318142Y334296D02*
D03*
Y344996D02*
D03*
Y354296D02*
D03*
X311942Y374496D02*
D03*
Y364414D02*
D03*
Y354414D02*
D03*
Y344996D02*
D03*
Y334414D02*
D03*
X158442Y245996D02*
D03*
Y255996D02*
D03*
Y265996D02*
D03*
Y285996D02*
D03*
Y305996D02*
D03*
X151342Y245996D02*
D03*
Y256045D02*
D03*
Y265996D02*
D03*
Y285996D02*
D03*
Y295996D02*
D03*
Y305996D02*
D03*
X49300Y399000D02*
D03*
X3568Y60868D02*
D03*
X351990Y233380D02*
D03*
X363700Y372396D02*
D03*
X356042Y360746D02*
D03*
M02*
