G04*
G04 #@! TF.GenerationSoftware,Altium Limited,Altium Designer,20.0.13 (296)*
G04*
G04 Layer_Color=8388736*
%FSLAX25Y25*%
%MOIN*%
G70*
G01*
G75*
%ADD51R,0.62992X0.35100*%
%ADD52R,0.05131X0.03359*%
G04:AMPARAMS|DCode=53|XSize=25.72mil|YSize=63.12mil|CornerRadius=5.95mil|HoleSize=0mil|Usage=FLASHONLY|Rotation=90.000|XOffset=0mil|YOffset=0mil|HoleType=Round|Shape=RoundedRectangle|*
%AMROUNDEDRECTD53*
21,1,0.02572,0.05122,0,0,90.0*
21,1,0.01382,0.06312,0,0,90.0*
1,1,0.01190,0.02561,0.00691*
1,1,0.01190,0.02561,-0.00691*
1,1,0.01190,-0.02561,-0.00691*
1,1,0.01190,-0.02561,0.00691*
%
%ADD53ROUNDEDRECTD53*%
%ADD54R,0.04343X0.03359*%
%ADD55R,0.05131X0.04737*%
%ADD56R,0.04737X0.05131*%
%ADD57R,0.04737X0.06706*%
%ADD58R,0.06706X0.05918*%
%ADD59R,0.05918X0.06706*%
%ADD60R,0.04737X0.02769*%
%ADD61R,0.04737X0.03556*%
G04:AMPARAMS|DCode=62|XSize=51.31mil|YSize=47.37mil|CornerRadius=0mil|HoleSize=0mil|Usage=FLASHONLY|Rotation=210.000|XOffset=0mil|YOffset=0mil|HoleType=Round|Shape=Rectangle|*
%AMROTATEDRECTD62*
4,1,4,0.01037,0.03334,0.03406,-0.00769,-0.01037,-0.03334,-0.03406,0.00769,0.01037,0.03334,0.0*
%
%ADD62ROTATEDRECTD62*%

G04:AMPARAMS|DCode=63|XSize=51.31mil|YSize=47.37mil|CornerRadius=0mil|HoleSize=0mil|Usage=FLASHONLY|Rotation=240.000|XOffset=0mil|YOffset=0mil|HoleType=Round|Shape=Rectangle|*
%AMROTATEDRECTD63*
4,1,4,-0.00769,0.03406,0.03334,0.01037,0.00769,-0.03406,-0.03334,-0.01037,-0.00769,0.03406,0.0*
%
%ADD63ROTATEDRECTD63*%

G04:AMPARAMS|DCode=64|XSize=51.31mil|YSize=47.37mil|CornerRadius=0mil|HoleSize=0mil|Usage=FLASHONLY|Rotation=300.000|XOffset=0mil|YOffset=0mil|HoleType=Round|Shape=Rectangle|*
%AMROTATEDRECTD64*
4,1,4,-0.03334,0.01037,0.00769,0.03406,0.03334,-0.01037,-0.00769,-0.03406,-0.03334,0.01037,0.0*
%
%ADD64ROTATEDRECTD64*%

G04:AMPARAMS|DCode=65|XSize=51.31mil|YSize=47.37mil|CornerRadius=0mil|HoleSize=0mil|Usage=FLASHONLY|Rotation=330.000|XOffset=0mil|YOffset=0mil|HoleType=Round|Shape=Rectangle|*
%AMROTATEDRECTD65*
4,1,4,-0.03406,-0.00769,-0.01037,0.03334,0.03406,0.00769,0.01037,-0.03334,-0.03406,-0.00769,0.0*
%
%ADD65ROTATEDRECTD65*%

%ADD66C,0.04737*%
%ADD67R,0.05524X0.06312*%
%ADD68O,0.09068X0.01981*%
%ADD69O,0.01981X0.09068*%
%ADD70R,0.03800X0.05524*%
%ADD71R,0.05524X0.03800*%
%ADD72O,0.03950X0.03241*%
%ADD73O,0.10642X0.04737*%
%ADD74O,0.07887X0.04737*%
%ADD75O,0.20485X0.06706*%
%ADD76R,0.06706X0.06706*%
%ADD77C,0.06706*%
%ADD78R,0.06706X0.06706*%
%ADD79C,0.06706*%
%ADD80C,0.08674*%
%ADD81C,0.06312*%
%ADD82C,0.06800*%
%ADD83C,0.02769*%
D51*
X44488Y19478D02*
D03*
D52*
X-29576Y150540D02*
D03*
Y146800D02*
D03*
Y143060D02*
D03*
X-39024D02*
D03*
Y146800D02*
D03*
X-39024Y150540D02*
D03*
X154276Y338740D02*
D03*
Y335000D02*
D03*
Y331260D02*
D03*
X163724D02*
D03*
Y335000D02*
D03*
Y338740D02*
D03*
X140966Y405736D02*
D03*
Y401996D02*
D03*
Y398256D02*
D03*
X131517D02*
D03*
Y401996D02*
D03*
Y405736D02*
D03*
Y387736D02*
D03*
Y383996D02*
D03*
Y380256D02*
D03*
X140966D02*
D03*
Y383996D02*
D03*
Y387736D02*
D03*
X334666Y381736D02*
D03*
Y377996D02*
D03*
Y374256D02*
D03*
X325217D02*
D03*
Y377996D02*
D03*
Y381736D02*
D03*
X4844Y81136D02*
D03*
Y77396D02*
D03*
Y73656D02*
D03*
X14293D02*
D03*
Y77396D02*
D03*
Y81136D02*
D03*
X367266Y80336D02*
D03*
Y76596D02*
D03*
Y72856D02*
D03*
X357817D02*
D03*
Y76596D02*
D03*
Y80336D02*
D03*
X345170Y216354D02*
D03*
Y212613D02*
D03*
Y208873D02*
D03*
X354619D02*
D03*
Y212613D02*
D03*
Y216354D02*
D03*
X334666Y401636D02*
D03*
Y397896D02*
D03*
Y394156D02*
D03*
X325217D02*
D03*
Y397896D02*
D03*
Y401636D02*
D03*
X326917Y149236D02*
D03*
Y145496D02*
D03*
Y141756D02*
D03*
X336366D02*
D03*
Y145496D02*
D03*
Y149236D02*
D03*
X336366Y167052D02*
D03*
Y163312D02*
D03*
Y159572D02*
D03*
X326917D02*
D03*
Y163312D02*
D03*
Y167052D02*
D03*
D53*
X343528Y256412D02*
D03*
Y253853D02*
D03*
Y251294D02*
D03*
Y248735D02*
D03*
Y246176D02*
D03*
Y243616D02*
D03*
Y241057D02*
D03*
Y238498D02*
D03*
Y235939D02*
D03*
Y233380D02*
D03*
X366756Y256412D02*
D03*
Y253853D02*
D03*
Y251294D02*
D03*
Y248735D02*
D03*
Y246176D02*
D03*
Y243616D02*
D03*
Y241057D02*
D03*
Y238498D02*
D03*
Y235939D02*
D03*
Y233380D02*
D03*
X152428Y404512D02*
D03*
Y401953D02*
D03*
Y399394D02*
D03*
Y396835D02*
D03*
Y394275D02*
D03*
Y391716D02*
D03*
Y389157D02*
D03*
Y386598D02*
D03*
Y384039D02*
D03*
Y381480D02*
D03*
X175656Y404512D02*
D03*
Y401953D02*
D03*
Y399394D02*
D03*
Y396835D02*
D03*
Y394275D02*
D03*
Y391716D02*
D03*
Y389157D02*
D03*
Y386598D02*
D03*
Y384039D02*
D03*
Y381480D02*
D03*
X346728Y171071D02*
D03*
Y168512D02*
D03*
Y165953D02*
D03*
Y163394D02*
D03*
Y160835D02*
D03*
Y158275D02*
D03*
Y155717D02*
D03*
Y153157D02*
D03*
Y150598D02*
D03*
Y148039D02*
D03*
Y145480D02*
D03*
Y142921D02*
D03*
X369956Y171071D02*
D03*
Y168512D02*
D03*
Y165953D02*
D03*
Y163394D02*
D03*
Y160835D02*
D03*
Y158275D02*
D03*
Y155717D02*
D03*
Y153157D02*
D03*
Y150598D02*
D03*
Y148039D02*
D03*
Y145480D02*
D03*
Y142921D02*
D03*
X365956Y376476D02*
D03*
Y379035D02*
D03*
Y381594D02*
D03*
Y384154D02*
D03*
Y386713D02*
D03*
Y389272D02*
D03*
Y391831D02*
D03*
Y394390D02*
D03*
Y396949D02*
D03*
Y399508D02*
D03*
Y402067D02*
D03*
Y404626D02*
D03*
X342728Y376476D02*
D03*
Y379035D02*
D03*
Y381594D02*
D03*
Y384154D02*
D03*
Y386713D02*
D03*
Y389272D02*
D03*
Y391831D02*
D03*
Y394390D02*
D03*
Y396949D02*
D03*
Y399508D02*
D03*
Y402067D02*
D03*
Y404626D02*
D03*
D54*
X39659Y80136D02*
D03*
Y76396D02*
D03*
Y72656D02*
D03*
X49108D02*
D03*
Y80136D02*
D03*
D55*
X-30454Y161400D02*
D03*
X-37146D02*
D03*
Y166900D02*
D03*
X-30454D02*
D03*
X-37146Y172400D02*
D03*
X-30454D02*
D03*
X-37146Y177900D02*
D03*
X-30454D02*
D03*
X313653Y52600D02*
D03*
X320346D02*
D03*
X-39154Y295996D02*
D03*
X-45846D02*
D03*
X-39654Y273600D02*
D03*
X-46346D02*
D03*
X-27654Y251500D02*
D03*
X-34346D02*
D03*
X313653Y47700D02*
D03*
X320346Y47700D02*
D03*
X331747Y73956D02*
D03*
X325054D02*
D03*
X497446Y285496D02*
D03*
X490753D02*
D03*
X518072Y363996D02*
D03*
X524765D02*
D03*
X518072Y368996D02*
D03*
X524765D02*
D03*
X518072Y373996D02*
D03*
X524765D02*
D03*
X362288Y9996D02*
D03*
X355595D02*
D03*
X4846Y379500D02*
D03*
X-1846D02*
D03*
X4846Y374500D02*
D03*
X-1846D02*
D03*
X10415Y64396D02*
D03*
X3722D02*
D03*
X10415Y89609D02*
D03*
X3722D02*
D03*
X135288Y42496D02*
D03*
X128595D02*
D03*
X158288D02*
D03*
X151595D02*
D03*
X181288D02*
D03*
X174595D02*
D03*
X204288D02*
D03*
X197595D02*
D03*
X227288D02*
D03*
X220595D02*
D03*
X250288D02*
D03*
X243595D02*
D03*
X273288D02*
D03*
X266595D02*
D03*
X296288D02*
D03*
X289595D02*
D03*
X188749Y407895D02*
D03*
X195442D02*
D03*
X203749D02*
D03*
X210442D02*
D03*
X218749D02*
D03*
X225442D02*
D03*
X233749D02*
D03*
X240442D02*
D03*
X248749D02*
D03*
X255442D02*
D03*
X263749D02*
D03*
X270442D02*
D03*
X278749D02*
D03*
X285442D02*
D03*
X293749D02*
D03*
X300442D02*
D03*
X328888Y343396D02*
D03*
X322195D02*
D03*
X328888Y338496D02*
D03*
X322195D02*
D03*
X320346Y42800D02*
D03*
X313653D02*
D03*
X362288Y15096D02*
D03*
X355595D02*
D03*
X313653Y58796D02*
D03*
X320346D02*
D03*
X160378Y409996D02*
D03*
X167071D02*
D03*
X351095Y263096D02*
D03*
X357788D02*
D03*
X363088Y411396D02*
D03*
X356395D02*
D03*
X358695Y177796D02*
D03*
X365388D02*
D03*
X-39654Y268100D02*
D03*
X-46346D02*
D03*
X511946Y363996D02*
D03*
X505253D02*
D03*
X483753Y129096D02*
D03*
X490446D02*
D03*
X490446Y53096D02*
D03*
X483753D02*
D03*
X96888Y78581D02*
D03*
X90195D02*
D03*
X220595Y47496D02*
D03*
X227288D02*
D03*
X135288D02*
D03*
X128595D02*
D03*
X188749Y412894D02*
D03*
X195442D02*
D03*
X210442D02*
D03*
X203749D02*
D03*
X218749D02*
D03*
X225442D02*
D03*
X240442D02*
D03*
X233749D02*
D03*
X248749D02*
D03*
X255442D02*
D03*
X270442D02*
D03*
X263749D02*
D03*
X278749D02*
D03*
X285442D02*
D03*
X300442D02*
D03*
X293749D02*
D03*
X151595Y47496D02*
D03*
X158288D02*
D03*
X181288D02*
D03*
X174595D02*
D03*
X197595D02*
D03*
X204288D02*
D03*
X250288D02*
D03*
X243595D02*
D03*
X266595D02*
D03*
X273288D02*
D03*
X296288Y47417D02*
D03*
X289595D02*
D03*
X-45846Y290216D02*
D03*
X-39154D02*
D03*
X505253Y373996D02*
D03*
X511946D02*
D03*
X439446Y320996D02*
D03*
X432753D02*
D03*
X511946Y368996D02*
D03*
X505253D02*
D03*
D56*
X504599Y300524D02*
D03*
Y293831D02*
D03*
X509599Y300524D02*
D03*
Y293831D02*
D03*
X514599Y300524D02*
D03*
Y293831D02*
D03*
X426099Y321149D02*
D03*
Y327842D02*
D03*
X38269Y66742D02*
D03*
Y60049D02*
D03*
X125800Y339653D02*
D03*
Y346346D02*
D03*
X145000Y339653D02*
D03*
Y346346D02*
D03*
X109742Y76242D02*
D03*
Y69550D02*
D03*
X120800Y339653D02*
D03*
Y346346D02*
D03*
X22268Y70950D02*
D03*
Y77642D02*
D03*
X49883Y66742D02*
D03*
Y60049D02*
D03*
X315942Y26831D02*
D03*
Y33524D02*
D03*
X320942D02*
D03*
Y26831D02*
D03*
X504599Y313342D02*
D03*
Y306649D02*
D03*
X505099Y205649D02*
D03*
Y212342D02*
D03*
X485099Y232342D02*
D03*
Y225649D02*
D03*
X525099Y185650D02*
D03*
Y192342D02*
D03*
Y232342D02*
D03*
Y225649D02*
D03*
X485099Y185650D02*
D03*
Y192342D02*
D03*
Y212342D02*
D03*
Y205649D02*
D03*
X525099D02*
D03*
Y212342D02*
D03*
X449099Y94442D02*
D03*
Y87749D02*
D03*
X525099Y87749D02*
D03*
Y94442D02*
D03*
X135000Y346346D02*
D03*
Y339653D02*
D03*
X514599Y306649D02*
D03*
Y313342D02*
D03*
X497599Y292149D02*
D03*
Y298842D02*
D03*
X509599Y306649D02*
D03*
Y313342D02*
D03*
D57*
X25899Y93396D02*
D03*
X17238D02*
D03*
D58*
X58569Y80136D02*
D03*
Y72656D02*
D03*
D59*
X42928Y93396D02*
D03*
X50409D02*
D03*
D60*
X389448Y115625D02*
D03*
Y118775D02*
D03*
X382755Y115625D02*
D03*
Y118775D02*
D03*
X370842Y90439D02*
D03*
Y93589D02*
D03*
X364149Y90439D02*
D03*
Y93589D02*
D03*
X370188Y357421D02*
D03*
Y360571D02*
D03*
X363495Y357421D02*
D03*
Y360571D02*
D03*
X464246Y199020D02*
D03*
Y202170D02*
D03*
X457553Y199020D02*
D03*
Y202170D02*
D03*
X464246Y216020D02*
D03*
Y219170D02*
D03*
X457553Y216020D02*
D03*
Y219170D02*
D03*
X388146Y50425D02*
D03*
Y53575D02*
D03*
X381453Y50425D02*
D03*
Y53575D02*
D03*
X412646Y115625D02*
D03*
Y118775D02*
D03*
X405954Y115625D02*
D03*
Y118775D02*
D03*
X370188Y336921D02*
D03*
Y340071D02*
D03*
X363495Y336921D02*
D03*
Y340071D02*
D03*
X357888Y90421D02*
D03*
Y93571D02*
D03*
X351195Y90421D02*
D03*
Y93571D02*
D03*
X369788Y208421D02*
D03*
Y211571D02*
D03*
X363095Y208421D02*
D03*
Y211571D02*
D03*
X336288Y247921D02*
D03*
Y251071D02*
D03*
X329595Y247921D02*
D03*
Y251071D02*
D03*
X370188Y317421D02*
D03*
Y320571D02*
D03*
X363495Y317421D02*
D03*
Y320571D02*
D03*
X318788Y144421D02*
D03*
Y147571D02*
D03*
X312095Y144421D02*
D03*
Y147571D02*
D03*
X318788Y160921D02*
D03*
Y164071D02*
D03*
X312095Y160921D02*
D03*
Y164071D02*
D03*
X77106Y382098D02*
D03*
Y385247D02*
D03*
X70413Y382098D02*
D03*
Y385247D02*
D03*
X77106Y400654D02*
D03*
Y403804D02*
D03*
X70413Y400654D02*
D03*
Y403804D02*
D03*
X192688Y351421D02*
D03*
Y354571D02*
D03*
X185995Y351421D02*
D03*
Y354571D02*
D03*
X192688Y336721D02*
D03*
Y339871D02*
D03*
X185995Y336721D02*
D03*
Y339871D02*
D03*
D61*
X389448Y112082D02*
D03*
Y122318D02*
D03*
X382755Y112082D02*
D03*
Y122318D02*
D03*
X370842Y86896D02*
D03*
Y97132D02*
D03*
X364149Y86896D02*
D03*
Y97132D02*
D03*
X370188Y353878D02*
D03*
Y364114D02*
D03*
X363495Y353878D02*
D03*
Y364114D02*
D03*
X464246Y195477D02*
D03*
Y205713D02*
D03*
X457553Y195477D02*
D03*
Y205713D02*
D03*
X464246Y212477D02*
D03*
Y222713D02*
D03*
X457553Y212477D02*
D03*
Y222713D02*
D03*
X388146Y46882D02*
D03*
Y57118D02*
D03*
X381454Y46882D02*
D03*
Y57118D02*
D03*
X412646Y112082D02*
D03*
Y122318D02*
D03*
X405954Y112082D02*
D03*
Y122318D02*
D03*
X370188Y333378D02*
D03*
Y343614D02*
D03*
X363495Y333378D02*
D03*
Y343614D02*
D03*
X357888Y86878D02*
D03*
Y97114D02*
D03*
X351195Y86878D02*
D03*
Y97114D02*
D03*
X369788Y204878D02*
D03*
Y215114D02*
D03*
X363095Y204878D02*
D03*
Y215114D02*
D03*
X336288Y244378D02*
D03*
Y254614D02*
D03*
X329595Y244378D02*
D03*
Y254614D02*
D03*
X370188Y313878D02*
D03*
Y324114D02*
D03*
X363495Y313878D02*
D03*
Y324114D02*
D03*
X318788Y140878D02*
D03*
Y151114D02*
D03*
X312095Y140878D02*
D03*
Y151114D02*
D03*
X318788Y157378D02*
D03*
Y167614D02*
D03*
X312095Y157378D02*
D03*
Y167614D02*
D03*
X77106Y378554D02*
D03*
Y388790D02*
D03*
X70413Y378554D02*
D03*
Y388790D02*
D03*
X77106Y397111D02*
D03*
Y407347D02*
D03*
X70413Y397111D02*
D03*
Y407347D02*
D03*
X192688Y347878D02*
D03*
Y358114D02*
D03*
X185995Y347878D02*
D03*
Y358114D02*
D03*
X192688Y333178D02*
D03*
Y343414D02*
D03*
X185995Y333178D02*
D03*
Y343414D02*
D03*
D62*
X470997Y125678D02*
D03*
X465201Y122332D02*
D03*
X503201Y56514D02*
D03*
X508997Y59860D02*
D03*
D63*
X452517Y107198D02*
D03*
X455864Y112994D02*
D03*
X521681Y74994D02*
D03*
X518335Y69198D02*
D03*
D64*
X455864Y67598D02*
D03*
X452517Y73394D02*
D03*
X518335Y112994D02*
D03*
X521681Y107198D02*
D03*
D65*
X465201Y59860D02*
D03*
X470997Y56514D02*
D03*
X508997Y122332D02*
D03*
X503201Y125678D02*
D03*
D66*
X341842Y8496D02*
D03*
X336842D02*
D03*
X331842D02*
D03*
X326842D02*
D03*
X321842D02*
D03*
X331842Y13496D02*
D03*
X336842D02*
D03*
X341842D02*
D03*
X321842D02*
D03*
X316842Y10996D02*
D03*
X346842D02*
D03*
D67*
X370292Y24327D02*
D03*
X376591D02*
D03*
Y15665D02*
D03*
X370292D02*
D03*
D68*
X330800Y54823D02*
D03*
Y52854D02*
D03*
Y50886D02*
D03*
Y48917D02*
D03*
Y46949D02*
D03*
Y44980D02*
D03*
Y43012D02*
D03*
Y41043D02*
D03*
Y39075D02*
D03*
Y37106D02*
D03*
Y35138D02*
D03*
Y33169D02*
D03*
X363084D02*
D03*
Y35138D02*
D03*
Y37106D02*
D03*
Y39075D02*
D03*
Y41043D02*
D03*
Y43012D02*
D03*
Y44980D02*
D03*
Y46949D02*
D03*
Y48917D02*
D03*
Y50886D02*
D03*
Y52854D02*
D03*
Y54823D02*
D03*
D69*
X336115Y27854D02*
D03*
X338084D02*
D03*
X340052D02*
D03*
X342021D02*
D03*
X343989D02*
D03*
X345957D02*
D03*
X347926D02*
D03*
X349894D02*
D03*
X351863D02*
D03*
X353832D02*
D03*
X355800D02*
D03*
X357769D02*
D03*
Y60138D02*
D03*
X355800D02*
D03*
X353832D02*
D03*
X351863D02*
D03*
X349894D02*
D03*
X347926D02*
D03*
X345957D02*
D03*
X343989D02*
D03*
X342021D02*
D03*
X340052D02*
D03*
X338084D02*
D03*
X336115D02*
D03*
D70*
X483217Y371791D02*
D03*
X497981D02*
D03*
Y396201D02*
D03*
X483217D02*
D03*
X447981Y283791D02*
D03*
X433217D02*
D03*
Y308201D02*
D03*
X447981D02*
D03*
X100924Y39691D02*
D03*
X86160D02*
D03*
Y64101D02*
D03*
X100924D02*
D03*
X254324Y6791D02*
D03*
X239560D02*
D03*
Y31201D02*
D03*
X254324D02*
D03*
X231324Y6791D02*
D03*
X216560D02*
D03*
Y31201D02*
D03*
X231324D02*
D03*
X162324Y6791D02*
D03*
X147560D02*
D03*
Y31201D02*
D03*
X162324D02*
D03*
X139324Y6791D02*
D03*
X124560D02*
D03*
Y31201D02*
D03*
X139324D02*
D03*
X185324Y6791D02*
D03*
X170560D02*
D03*
Y31201D02*
D03*
X185324D02*
D03*
X208324Y6791D02*
D03*
X193560D02*
D03*
Y31201D02*
D03*
X208324D02*
D03*
X277324Y6791D02*
D03*
X262560D02*
D03*
Y31201D02*
D03*
X277324D02*
D03*
X300324Y6791D02*
D03*
X285560D02*
D03*
Y31201D02*
D03*
X300324D02*
D03*
X-23130Y382685D02*
D03*
X-8366D02*
D03*
Y407094D02*
D03*
X-23130D02*
D03*
Y371661D02*
D03*
X-8366D02*
D03*
Y347252D02*
D03*
X-23130D02*
D03*
D71*
X536804Y335378D02*
D03*
Y320614D02*
D03*
X512395D02*
D03*
Y335378D02*
D03*
X424395Y370614D02*
D03*
Y385378D02*
D03*
X448804D02*
D03*
Y370614D02*
D03*
D72*
X-4700Y89640D02*
D03*
Y86293D02*
D03*
Y82947D02*
D03*
Y79600D02*
D03*
Y76254D02*
D03*
Y72907D02*
D03*
Y69561D02*
D03*
Y66214D02*
D03*
X-10014D02*
D03*
Y69561D02*
D03*
Y72907D02*
D03*
Y76254D02*
D03*
Y79600D02*
D03*
Y82947D02*
D03*
Y86293D02*
D03*
Y89640D02*
D03*
D73*
X-8558Y94955D02*
D03*
Y60899D02*
D03*
D74*
X-21865D02*
D03*
Y94955D02*
D03*
D75*
X155512Y419496D02*
D03*
Y362409D02*
D03*
X37402D02*
D03*
Y419496D02*
D03*
D76*
X111721Y347500D02*
D03*
X287442Y92996D02*
D03*
X207442D02*
D03*
X279442Y347500D02*
D03*
D77*
X111721Y337500D02*
D03*
X101721Y347500D02*
D03*
Y337500D02*
D03*
X91721Y347500D02*
D03*
Y337500D02*
D03*
X-33433Y200496D02*
D03*
Y210496D02*
D03*
Y220496D02*
D03*
Y230496D02*
D03*
Y240496D02*
D03*
X324942Y297996D02*
D03*
X314942D02*
D03*
X324942Y307996D02*
D03*
Y132996D02*
D03*
X314942Y122996D02*
D03*
X324942D02*
D03*
X381599Y74496D02*
D03*
X391599Y84496D02*
D03*
X381599D02*
D03*
X391599Y94496D02*
D03*
X381599D02*
D03*
X391599Y104496D02*
D03*
X381599D02*
D03*
Y223996D02*
D03*
X391599D02*
D03*
X381599Y213996D02*
D03*
X391599D02*
D03*
X381599Y203996D02*
D03*
X391599D02*
D03*
X381599Y193996D02*
D03*
X391598Y343996D02*
D03*
X381598D02*
D03*
Y333996D02*
D03*
X391598D02*
D03*
X381598Y323996D02*
D03*
X391598D02*
D03*
X381598Y313996D02*
D03*
X391598D02*
D03*
X381598Y303996D02*
D03*
X247442Y92996D02*
D03*
Y82996D02*
D03*
X257442D02*
D03*
Y92996D02*
D03*
X267442Y82996D02*
D03*
Y92996D02*
D03*
X277442Y82996D02*
D03*
Y92996D02*
D03*
X287442Y82996D02*
D03*
X207442D02*
D03*
X197442Y92996D02*
D03*
Y82996D02*
D03*
X187442Y92996D02*
D03*
Y82996D02*
D03*
X177442Y92996D02*
D03*
Y82996D02*
D03*
X167442D02*
D03*
Y92996D02*
D03*
X239442Y347500D02*
D03*
Y337500D02*
D03*
X249442D02*
D03*
Y347500D02*
D03*
X259442Y337500D02*
D03*
Y347500D02*
D03*
X269442Y337500D02*
D03*
Y347500D02*
D03*
X279442Y337500D02*
D03*
D78*
X-33433Y190496D02*
D03*
X314942Y307996D02*
D03*
Y132996D02*
D03*
X391599Y74496D02*
D03*
Y193996D02*
D03*
X391598Y303996D02*
D03*
D79*
X381598Y373996D02*
D03*
X391598D02*
D03*
X381598Y353996D02*
D03*
X391598D02*
D03*
Y363996D02*
D03*
X381598D02*
D03*
X217442Y82996D02*
D03*
Y92996D02*
D03*
X237442Y82996D02*
D03*
Y92996D02*
D03*
X227442D02*
D03*
Y82996D02*
D03*
X147442D02*
D03*
Y92996D02*
D03*
X157442D02*
D03*
Y82996D02*
D03*
X137442Y92996D02*
D03*
Y82996D02*
D03*
X209442Y337500D02*
D03*
Y347500D02*
D03*
X229442Y337500D02*
D03*
Y347500D02*
D03*
X219442D02*
D03*
Y337500D02*
D03*
D80*
X44488Y18504D02*
D03*
D81*
X33569Y93396D02*
D03*
X59069Y93896D02*
D03*
Y61896D02*
D03*
X350233Y275000D02*
D03*
X336442D02*
D03*
X321442D02*
D03*
D82*
X27559Y405953D02*
D03*
Y395953D02*
D03*
Y385953D02*
D03*
Y375953D02*
D03*
D83*
X336842Y13496D02*
D03*
X321768D02*
D03*
X331842Y13495D02*
D03*
X341842Y13496D02*
D03*
X321850Y8505D02*
D03*
M02*
