G04*
G04 #@! TF.GenerationSoftware,Altium Limited,Altium Designer,20.0.13 (296)*
G04*
G04 Layer_Color=32768*
%FSLAX25Y25*%
%MOIN*%
G70*
G01*
G75*
%ADD10C,0.01000*%
%ADD18C,0.00500*%
%ADD21C,0.00394*%
%ADD99C,0.00197*%
%ADD100C,0.00197*%
D10*
X477599Y323996D02*
X487599D01*
X482599Y318996D02*
Y328996D01*
X487099Y79496D02*
Y99496D01*
X477099Y89496D02*
X497099D01*
X389599Y197996D02*
X502599D01*
X386099Y323996D02*
X473599D01*
X400099Y89496D02*
X468599Y89496D01*
X124942Y66496D02*
X300942D01*
D18*
X-45000Y268100D02*
X-41000D01*
X-43000Y266100D02*
Y270100D01*
X504599Y307996D02*
Y311996D01*
X502599Y309996D02*
X506599D01*
X508599Y361996D02*
Y365996D01*
X506599Y363996D02*
X510599D01*
X505099Y206996D02*
Y210996D01*
X503099Y208996D02*
X507099D01*
X483099Y228996D02*
X487099D01*
X485099Y226996D02*
Y230996D01*
X525099Y186996D02*
Y190996D01*
X523099Y188996D02*
X527099D01*
X523099Y228996D02*
X527099D01*
X525099Y226996D02*
Y230996D01*
X485099Y186996D02*
Y190996D01*
X483099Y188996D02*
X487099D01*
X483099Y208996D02*
X487099D01*
X485099Y206996D02*
Y210996D01*
X525099Y206996D02*
Y210996D01*
X523099Y208996D02*
X527099D01*
X487099Y127096D02*
Y131096D01*
X485099Y129096D02*
X489099D01*
X466367Y123005D02*
X469831Y125005D01*
X467099Y125737D02*
X469099Y122273D01*
X452458Y111096D02*
X455922Y109096D01*
X453190Y108364D02*
X455190Y111828D01*
X449099Y89096D02*
Y93096D01*
X447099Y91096D02*
X451099D01*
X452458Y69496D02*
X455922Y71496D01*
X453190Y72228D02*
X455190Y68764D01*
X466367Y59187D02*
X469831Y57187D01*
X467099Y56455D02*
X469099Y59919D01*
X487099Y51096D02*
Y55096D01*
X485099Y53096D02*
X489099D01*
X504367Y57187D02*
X507831Y59187D01*
X505099Y59919D02*
X507099Y56455D01*
X518276Y73096D02*
X521740Y71096D01*
X519008Y70364D02*
X521008Y73828D01*
X525099Y89096D02*
Y93096D01*
X523099Y91096D02*
X527099D01*
X518276Y109096D02*
X521740Y111096D01*
X519008Y111828D02*
X521008Y108364D01*
X504367Y125005D02*
X507831Y123005D01*
X505099Y122273D02*
X507099Y125737D01*
X133000Y343000D02*
X137000D01*
X135000Y341000D02*
Y345000D01*
X91542Y78581D02*
X95542D01*
X93542Y76581D02*
Y80581D01*
X223942Y45496D02*
Y49496D01*
X221942Y47496D02*
X225942D01*
X129942D02*
X133942D01*
X131942Y45496D02*
Y49496D01*
X192095Y410894D02*
Y414894D01*
X190095Y412894D02*
X194095D01*
X205095D02*
X209095D01*
X207095Y410894D02*
Y414894D01*
X222095Y410894D02*
Y414894D01*
X220095Y412894D02*
X224095D01*
X235095D02*
X239095D01*
X237095Y410894D02*
Y414894D01*
X252095Y410894D02*
Y414894D01*
X250095Y412894D02*
X254095D01*
X265095D02*
X269095D01*
X267095Y410894D02*
Y414894D01*
X282095Y410894D02*
Y414894D01*
X280095Y412894D02*
X284095D01*
X295095D02*
X299095D01*
X297095Y410894D02*
Y414894D01*
X154942Y45496D02*
Y49496D01*
X152942Y47496D02*
X156942D01*
X175942D02*
X179942D01*
X177942Y45496D02*
Y49496D01*
X200942Y45496D02*
Y49496D01*
X198942Y47496D02*
X202942D01*
X244942D02*
X248942D01*
X246942Y45496D02*
Y49496D01*
X269942Y45496D02*
Y49496D01*
X267942Y47496D02*
X271942D01*
X290942Y47417D02*
X294942D01*
X292942Y45417D02*
Y49417D01*
X-44500Y290216D02*
X-40500D01*
X-42500Y288216D02*
Y292216D01*
X514599Y307996D02*
Y311996D01*
X512599Y309996D02*
X516599D01*
X508599Y371996D02*
Y375996D01*
X506599Y373996D02*
X510599D01*
X497599Y293496D02*
Y297496D01*
X495599Y295496D02*
X499599D01*
X436099Y318996D02*
Y322996D01*
X434099Y320996D02*
X438099D01*
X507599Y309996D02*
X511599D01*
X509599Y307996D02*
Y311996D01*
X508599Y366996D02*
Y370996D01*
X506599Y368996D02*
X510599D01*
X487599Y383996D02*
X493599D01*
X490599Y380996D02*
Y386996D01*
X521599Y327996D02*
X527599D01*
X524599Y324996D02*
Y330996D01*
X433599Y377996D02*
X439599D01*
X436599Y374996D02*
Y380996D01*
X440599Y292996D02*
Y298996D01*
X437599Y295996D02*
X443599D01*
X93542Y48896D02*
Y54896D01*
X90542Y51896D02*
X96542D01*
X246942Y15996D02*
Y21996D01*
X243942Y18996D02*
X249942D01*
X223942Y15996D02*
Y21996D01*
X220942Y18996D02*
X226942D01*
X154942Y15996D02*
Y21996D01*
X151942Y18996D02*
X157942D01*
X131942Y15996D02*
Y21996D01*
X128942Y18996D02*
X134942D01*
X177942Y15996D02*
Y21996D01*
X174942Y18996D02*
X180942D01*
X200942Y15996D02*
Y21996D01*
X197942Y18996D02*
X203942D01*
X269942Y15996D02*
Y21996D01*
X266942Y18996D02*
X272942D01*
X292942Y15996D02*
Y21996D01*
X289942Y18996D02*
X295942D01*
X-18748Y394890D02*
X-12748D01*
X-15748Y391890D02*
Y397890D01*
Y356457D02*
Y362457D01*
X-18748Y359457D02*
X-12748D01*
D21*
X-13546Y75959D02*
Y79896D01*
X-15515Y77927D02*
X-11577D01*
X-34300Y144832D02*
Y148768D01*
X-36268Y146800D02*
X-32331D01*
X-42174Y139713D02*
X-26426D01*
X-42174Y153887D02*
X-26426Y153887D01*
X-26426Y139713D02*
X-26426Y153887D01*
X-42174Y139713D02*
Y153887D01*
X151126Y327913D02*
Y342087D01*
X166874Y327913D02*
Y342087D01*
X151126D02*
X166874D01*
X151126Y327913D02*
X166874D01*
X157032Y335000D02*
X160968D01*
X159000Y333032D02*
Y336968D01*
X136242Y400028D02*
Y403965D01*
X134273Y401996D02*
X138210D01*
X128368Y394909D02*
X144116D01*
X128368Y409083D02*
X144116D01*
Y394909D02*
Y409083D01*
X128368Y394909D02*
Y409083D01*
Y376909D02*
Y391083D01*
X144116Y376909D02*
Y391083D01*
X128368D02*
X144116D01*
X128368Y376909D02*
X144116D01*
X134273Y383996D02*
X138210D01*
X136242Y382028D02*
Y385964D01*
X329942Y376027D02*
Y379964D01*
X327973Y377996D02*
X331910D01*
X322068Y370909D02*
X337816D01*
X322068Y385083D02*
X337816D01*
Y370909D02*
Y385083D01*
X322068Y370909D02*
Y385083D01*
X1695Y70309D02*
Y84483D01*
X17443Y70309D02*
Y84483D01*
X1695D02*
X17443D01*
X1695Y70309D02*
X17443D01*
X7600Y77396D02*
X11537D01*
X9568Y75428D02*
Y79365D01*
X362542Y74628D02*
Y78565D01*
X360573Y76596D02*
X364510D01*
X354668Y69509D02*
X370416D01*
X354668Y83683D02*
X370416D01*
Y69509D02*
Y83683D01*
X354668Y69509D02*
Y83683D01*
X342021Y205527D02*
Y219700D01*
X357769Y205527D02*
Y219700D01*
X342021D02*
X357769D01*
X342021Y205527D02*
X357769D01*
X347926Y212613D02*
X351863D01*
X349894Y210645D02*
Y214582D01*
X329942Y395928D02*
Y399865D01*
X327973Y397896D02*
X331910D01*
X322068Y390809D02*
X337816D01*
X322068Y404983D02*
X337816D01*
Y390809D02*
Y404983D01*
X322068Y390809D02*
Y404983D01*
X323768Y138409D02*
Y152583D01*
X339516Y138409D02*
Y152583D01*
X323768D02*
X339516D01*
X323768Y138409D02*
X339516D01*
X329673Y145496D02*
X333610D01*
X331642Y143527D02*
Y147465D01*
X331642Y161343D02*
Y165280D01*
X329673Y163312D02*
X333610D01*
X323768Y156225D02*
X339516D01*
X323768Y170398D02*
X339516D01*
Y156225D02*
Y170398D01*
X323768Y156225D02*
Y170398D01*
X353173Y244896D02*
X357110D01*
X355142Y242928D02*
Y246865D01*
X351673Y245396D02*
X355610D01*
X353642Y243427D02*
Y247364D01*
X352173Y244896D02*
X356110D01*
X354142Y242928D02*
Y246865D01*
X162073Y392996D02*
X166010D01*
X164042Y391027D02*
Y394965D01*
X160573Y393496D02*
X164510D01*
X162542Y391528D02*
Y395464D01*
X161073Y392996D02*
X165010D01*
X163042Y391027D02*
Y394965D01*
X356373Y156996D02*
X360310D01*
X358342Y155027D02*
Y158965D01*
X354342Y388583D02*
Y392520D01*
X352373Y390551D02*
X356310D01*
X42415Y76396D02*
X46352D01*
X44383Y74427D02*
Y78364D01*
X386101Y115232D02*
Y119168D01*
X384133Y117200D02*
X388070D01*
X367495Y90046D02*
Y93983D01*
X365527Y92014D02*
X369464D01*
X366842Y357028D02*
Y360964D01*
X364873Y358996D02*
X368810D01*
X460899Y198627D02*
Y202564D01*
X458931Y200595D02*
X462868D01*
X460899Y215627D02*
Y219564D01*
X458931Y217595D02*
X462868D01*
X384800Y50032D02*
Y53969D01*
X382832Y52000D02*
X386769D01*
X409300Y115232D02*
Y119168D01*
X407332Y117200D02*
X411269D01*
X366842Y336527D02*
Y340464D01*
X364873Y338496D02*
X368810D01*
X354542Y90027D02*
Y93964D01*
X352573Y91996D02*
X356510D01*
X366442Y208028D02*
Y211965D01*
X364473Y209996D02*
X368410D01*
X332942Y247528D02*
Y251465D01*
X330973Y249496D02*
X334910D01*
X366842Y317027D02*
Y320965D01*
X364873Y318996D02*
X368810D01*
X315442Y144027D02*
Y147965D01*
X313473Y145996D02*
X317410D01*
X315442Y160528D02*
Y164464D01*
X313473Y162496D02*
X317410D01*
X73760Y381704D02*
Y385641D01*
X71791Y383672D02*
X75728D01*
X73760Y400261D02*
Y404198D01*
X71791Y402229D02*
X75728D01*
X189342Y351027D02*
Y354964D01*
X187373Y352996D02*
X191310D01*
X189342Y336328D02*
Y340265D01*
X187373Y338296D02*
X191310D01*
X324698Y21752D02*
Y66240D01*
X369186Y21752D02*
Y66240D01*
X324698D02*
X369186D01*
X324698Y21752D02*
X369186D01*
X344973Y43996D02*
X348910D01*
X346942Y42028D02*
Y45965D01*
D99*
X-39542Y57651D02*
Y98006D01*
X-1550Y57651D02*
Y98006D01*
X-39542D02*
X-1550D01*
X-39542Y57651D02*
X-1550D01*
D100*
X339787Y230920D02*
Y258872D01*
X370496Y230920D02*
Y258872D01*
X339787D02*
X370496D01*
X339787Y230920D02*
X370496D01*
X338287Y231420D02*
Y259372D01*
X368996Y231420D02*
Y259372D01*
X338287D02*
X368996D01*
X338287Y231420D02*
X368996D01*
X340165Y231510D02*
Y258282D01*
X368118Y231510D02*
Y258282D01*
X340165D02*
X368118D01*
X340165Y231510D02*
X368118D01*
X148687Y379020D02*
Y406972D01*
X179396Y379020D02*
Y406972D01*
X148687D02*
X179396D01*
X148687Y379020D02*
X179396D01*
X147187Y379520D02*
Y407472D01*
X177896Y379520D02*
Y407472D01*
X147187D02*
X177896D01*
X147187Y379520D02*
X177896D01*
X149065Y379610D02*
Y406382D01*
X177018Y379610D02*
Y406382D01*
X149065D02*
X177018D01*
X149065Y379610D02*
X177018D01*
X342987Y140461D02*
Y173531D01*
X373696Y140461D02*
Y173531D01*
X342987D02*
X373696D01*
X342987Y140461D02*
X373696D01*
X338987Y374016D02*
X369696D01*
X338987Y407087D02*
X369696D01*
Y374016D02*
Y407087D01*
X338987Y374016D02*
Y407087D01*
X51273Y69900D02*
Y82892D01*
X37494Y69900D02*
Y82892D01*
Y69900D02*
X51273D01*
X37494Y82892D02*
X51273D01*
X379841Y110200D02*
X392361D01*
X379841Y124200D02*
X392361Y124200D01*
X379841Y110200D02*
Y124200D01*
X392361Y110200D02*
Y124200D01*
X361235Y85014D02*
X373755D01*
X361235Y99014D02*
X373755Y99014D01*
X361235Y85014D02*
Y99014D01*
X373755Y85014D02*
Y99014D01*
X360582Y351996D02*
X373102D01*
X360582Y365996D02*
X373102Y365996D01*
X360582Y351996D02*
Y365996D01*
X373102Y351996D02*
Y365996D01*
X454639Y193595D02*
X467159D01*
X454639Y207595D02*
X467159Y207595D01*
X454639Y193595D02*
Y207595D01*
X467159Y193595D02*
Y207595D01*
X454639Y210595D02*
X467159D01*
X454639Y224595D02*
X467159Y224595D01*
X454639Y210595D02*
Y224595D01*
X467159Y210595D02*
Y224595D01*
X378540Y45000D02*
X391060D01*
X378540Y59000D02*
X391060Y59000D01*
X378540Y45000D02*
Y59000D01*
X391060Y45000D02*
Y59000D01*
X403040Y110200D02*
X415560D01*
X403040Y124200D02*
X415560Y124200D01*
X403040Y110200D02*
Y124200D01*
X415560Y110200D02*
Y124200D01*
X360582Y331496D02*
X373102D01*
X360582Y345496D02*
X373102Y345496D01*
X360582Y331496D02*
Y345496D01*
X373102Y331496D02*
Y345496D01*
X348282Y84996D02*
X360802D01*
X348282Y98996D02*
X360802Y98996D01*
X348282Y84996D02*
Y98996D01*
X360802Y84996D02*
Y98996D01*
X360182Y202996D02*
X372702D01*
X360182Y216996D02*
X372702Y216996D01*
X360182Y202996D02*
Y216996D01*
X372702Y202996D02*
Y216996D01*
X326682Y242496D02*
X339202D01*
X326682Y256496D02*
X339202Y256496D01*
X326682Y242496D02*
Y256496D01*
X339202Y242496D02*
Y256496D01*
X360582Y311996D02*
X373102D01*
X360582Y325996D02*
X373102Y325996D01*
X360582Y311996D02*
Y325996D01*
X373102Y311996D02*
Y325996D01*
X309182Y138996D02*
X321702D01*
X309182Y152996D02*
X321702Y152996D01*
X309182Y138996D02*
Y152996D01*
X321702Y138996D02*
Y152996D01*
X309182Y155496D02*
X321702D01*
X309182Y169496D02*
X321702Y169496D01*
X309182Y155496D02*
Y169496D01*
X321702Y155496D02*
Y169496D01*
X67500Y376672D02*
X80020D01*
X67500Y390672D02*
X80020Y390672D01*
X67500Y376672D02*
Y390672D01*
X80020Y376672D02*
Y390672D01*
X67500Y395229D02*
X80020D01*
X67500Y409229D02*
X80020Y409229D01*
X67500Y395229D02*
Y409229D01*
X80020Y395229D02*
Y409229D01*
X183082Y345996D02*
X195602D01*
X183082Y359996D02*
X195602Y359996D01*
X183082Y345996D02*
Y359996D01*
X195602Y345996D02*
Y359996D01*
X183082Y331296D02*
X195602D01*
X183082Y345296D02*
X195602Y345296D01*
X183082Y331296D02*
Y345296D01*
X195602Y331296D02*
Y345296D01*
M02*
