G04*
G04 #@! TF.GenerationSoftware,Altium Limited,Altium Designer,20.0.13 (296)*
G04*
G04 Layer_Color=65535*
%FSLAX25Y25*%
%MOIN*%
G70*
G01*
G75*
%ADD10C,0.01000*%
%ADD11C,0.00984*%
%ADD12C,0.02362*%
%ADD13C,0.00800*%
%ADD14C,0.01300*%
%ADD15C,0.02000*%
%ADD16C,0.02400*%
%ADD17C,0.03000*%
%ADD18C,0.00500*%
%ADD19C,0.00787*%
%ADD20C,0.01968*%
%ADD21C,0.00394*%
%ADD22C,0.00787*%
%ADD23C,0.03500*%
%ADD24C,0.01181*%
%ADD25C,0.01200*%
%ADD26C,0.01400*%
%ADD27C,0.01500*%
%ADD28R,0.14000X0.45000*%
%ADD29R,0.13000X0.40000*%
%ADD30R,0.08000X0.30000*%
G36*
X11269Y397671D02*
X7269D01*
Y385171D01*
X-732D01*
Y397671D01*
X-4732D01*
X3269Y405671D01*
X11269Y397671D01*
D02*
G37*
G36*
X404099Y368222D02*
X406099D01*
X402099Y364222D01*
X398099Y368222D01*
X400099D01*
Y371770D01*
X404099D01*
Y368222D01*
D02*
G37*
G36*
X438599Y356996D02*
X441099D01*
X436099Y351996D01*
X431099Y356996D01*
X433599D01*
Y366996D01*
X438599D01*
Y356996D01*
D02*
G37*
G36*
X495099Y358496D02*
X499099D01*
X491099Y350496D01*
X483099Y358496D01*
X487099D01*
Y370996D01*
X495099D01*
Y358496D01*
D02*
G37*
G36*
X7269Y356675D02*
X11269D01*
X3269Y348675D01*
X-4732Y356675D01*
X-732D01*
Y369175D01*
X7269D01*
Y356675D01*
D02*
G37*
G36*
X402099Y349728D02*
X405647D01*
Y345728D01*
X402099D01*
Y343728D01*
X398099Y347728D01*
X402099Y351728D01*
Y349728D01*
D02*
G37*
G36*
X404099Y333496D02*
X406099D01*
X402099Y329496D01*
X398099Y333496D01*
X400099D01*
Y338496D01*
X404099D01*
Y333496D01*
D02*
G37*
G36*
X499099Y331496D02*
X511599D01*
Y323496D01*
X499099Y323496D01*
X499099Y319496D01*
X491099Y327496D01*
X499099Y335496D01*
Y331496D01*
D02*
G37*
G36*
X402099Y325996D02*
X407099D01*
Y321996D01*
X402099D01*
Y319996D01*
X398099Y323996D01*
X402099Y327996D01*
Y325996D01*
D02*
G37*
G36*
X404099Y313496D02*
X406099D01*
X402099Y309496D01*
X398099Y313496D01*
X400099D01*
Y318496D01*
X404099D01*
Y313496D01*
D02*
G37*
G36*
X407599Y303996D02*
X403599Y299996D01*
Y301996D01*
X398599D01*
Y305996D01*
X403599D01*
Y307996D01*
X407599Y303996D01*
D02*
G37*
G36*
X466599Y295496D02*
X461599Y290496D01*
Y292996D01*
X451599D01*
Y297996D01*
X461599D01*
Y300496D01*
X466599Y295496D01*
D02*
G37*
G36*
X522216Y236992D02*
X522000D01*
Y237000D01*
X522216Y236992D01*
D02*
G37*
G36*
X482216D02*
X482000D01*
Y237000D01*
X482216Y236992D01*
D02*
G37*
G36*
X522000Y221216D02*
X520421Y222795D01*
X519285D01*
Y223310D01*
X516599Y225996D01*
Y229175D01*
X516929Y229505D01*
Y232326D01*
X518594Y233991D01*
Y234468D01*
X518823D01*
X521348Y236992D01*
X522000D01*
Y221216D01*
D02*
G37*
G36*
X482000D02*
X480421Y222795D01*
X479285D01*
Y223310D01*
X476599Y225996D01*
Y229175D01*
X476930Y229505D01*
Y232326D01*
X478594Y233991D01*
Y234468D01*
X478823D01*
X481348Y236992D01*
X482000D01*
Y221216D01*
D02*
G37*
G36*
X529777Y235197D02*
X530913Y235197D01*
Y234682D01*
X533599Y231996D01*
Y228817D01*
X533269Y228486D01*
Y225666D01*
X531604Y224001D01*
Y223524D01*
X531375D01*
X528851Y221000D01*
X528198D01*
Y236776D01*
X529777Y235197D01*
D02*
G37*
G36*
X489777D02*
X490913Y235197D01*
Y234682D01*
X493599Y231996D01*
Y228817D01*
X493269Y228486D01*
Y225666D01*
X491604Y224001D01*
Y223524D01*
X491375D01*
X488850Y221000D01*
X488198D01*
Y236776D01*
X489777Y235197D01*
D02*
G37*
G36*
X528198Y220992D02*
X527982Y221000D01*
X528198D01*
Y220992D01*
D02*
G37*
G36*
X488198D02*
X487982Y221000D01*
X488198D01*
Y220992D01*
D02*
G37*
G36*
X522216Y216992D02*
X522000D01*
Y217000D01*
X522216Y216992D01*
D02*
G37*
G36*
X502232D02*
X502016D01*
Y217000D01*
X502232Y216992D01*
D02*
G37*
G36*
X482216D02*
X482000D01*
Y217000D01*
X482216Y216992D01*
D02*
G37*
G36*
X522000Y201216D02*
X520421Y202795D01*
X519285D01*
Y203310D01*
X516599Y205996D01*
Y209175D01*
X516929Y209506D01*
Y212326D01*
X518594Y213991D01*
Y214468D01*
X518823D01*
X521348Y216992D01*
X522000D01*
Y201216D01*
D02*
G37*
G36*
X502016D02*
X500437Y202795D01*
X499301D01*
Y203310D01*
X496615Y205996D01*
Y209175D01*
X496945Y209506D01*
Y212326D01*
X498610Y213991D01*
Y214468D01*
X498839D01*
X501364Y216992D01*
X502016D01*
Y201216D01*
D02*
G37*
G36*
X482000D02*
X480421Y202795D01*
X479285D01*
Y203310D01*
X476599Y205996D01*
Y209175D01*
X476930Y209506D01*
Y212326D01*
X478594Y213991D01*
Y214468D01*
X478823D01*
X481348Y216992D01*
X482000D01*
Y201216D01*
D02*
G37*
G36*
X529777Y215197D02*
X530913Y215197D01*
Y214682D01*
X533599Y211996D01*
Y208817D01*
X533269Y208487D01*
Y205666D01*
X531604Y204001D01*
Y203524D01*
X531375D01*
X528851Y201000D01*
X528198D01*
Y216776D01*
X529777Y215197D01*
D02*
G37*
G36*
X509793D02*
X510929Y215197D01*
Y214682D01*
X513615Y211996D01*
Y208817D01*
X513285Y208487D01*
Y205666D01*
X511620Y204001D01*
Y203524D01*
X511391D01*
X508866Y201000D01*
X508214D01*
Y216776D01*
X509793Y215197D01*
D02*
G37*
G36*
X489777D02*
X490913Y215197D01*
Y214682D01*
X493599Y211996D01*
Y208817D01*
X493269Y208487D01*
Y205666D01*
X491604Y204001D01*
Y203524D01*
X491375D01*
X488850Y201000D01*
X488198D01*
Y216776D01*
X489777Y215197D01*
D02*
G37*
G36*
X528198Y200992D02*
X527982Y201000D01*
X528198D01*
Y200992D01*
D02*
G37*
G36*
X508214D02*
X507998Y201000D01*
X508214D01*
Y200992D01*
D02*
G37*
G36*
X488198D02*
X487982Y201000D01*
X488198D01*
Y200992D01*
D02*
G37*
G36*
X522216Y196992D02*
X522000D01*
Y197000D01*
X522216Y196992D01*
D02*
G37*
G36*
X482216D02*
X482000D01*
Y197000D01*
X482216Y196992D01*
D02*
G37*
G36*
X522000Y181216D02*
X520421Y182795D01*
X519285D01*
Y183310D01*
X516599Y185996D01*
Y189175D01*
X516929Y189506D01*
Y192326D01*
X518594Y193991D01*
Y194467D01*
X518823D01*
X521348Y196992D01*
X522000D01*
Y181216D01*
D02*
G37*
G36*
X482000D02*
X480421Y182795D01*
X479285D01*
Y183310D01*
X476599Y185996D01*
Y189175D01*
X476930Y189506D01*
Y192326D01*
X478594Y193991D01*
Y194467D01*
X478823D01*
X481348Y196992D01*
X482000D01*
Y181216D01*
D02*
G37*
G36*
X529777Y195197D02*
X530913Y195197D01*
Y194682D01*
X533599Y191996D01*
Y188817D01*
X533269Y188487D01*
Y185666D01*
X531604Y184001D01*
Y183525D01*
X531375D01*
X528851Y181000D01*
X528198D01*
Y196776D01*
X529777Y195197D01*
D02*
G37*
G36*
X489777D02*
X490913Y195197D01*
Y194682D01*
X493599Y191996D01*
Y188817D01*
X493269Y188487D01*
Y185666D01*
X491604Y184001D01*
Y183525D01*
X491375D01*
X488850Y181000D01*
X488198D01*
Y196776D01*
X489777Y195197D01*
D02*
G37*
G36*
X528198Y180992D02*
X527982Y181000D01*
X528198D01*
Y180992D01*
D02*
G37*
G36*
X488198D02*
X487982Y181000D01*
X488198D01*
Y180992D01*
D02*
G37*
G36*
X505719Y80846D02*
X498889Y79016D01*
X497058Y85846D01*
X505719Y80846D01*
D02*
G37*
G36*
X475310Y79016D02*
X468480Y80846D01*
X477140Y85846D01*
X475310Y79016D01*
D02*
G37*
G36*
X350346Y14276D02*
X346145D01*
Y18476D01*
X350346Y14276D01*
D02*
G37*
D10*
X174213Y359457D02*
X175232Y359591D01*
X176181Y359984D01*
X176997Y360610D01*
X177622Y361425D01*
X178015Y362375D01*
X178150Y363394D01*
Y418512D02*
X178015Y419531D01*
X177622Y420480D01*
X176997Y421296D01*
X176181Y421921D01*
X175232Y422315D01*
X174213Y422449D01*
X14764Y363394D02*
X14898Y362375D01*
X15291Y361425D01*
X15917Y360610D01*
X16732Y359984D01*
X17682Y359591D01*
X18701Y359457D01*
Y422449D02*
X17682Y422315D01*
X16732Y421921D01*
X15917Y421296D01*
X15291Y420480D01*
X14898Y419531D01*
X14764Y418512D01*
X497489Y383996D02*
X497416Y384999D01*
X497197Y385981D01*
X496838Y386920D01*
X496345Y387797D01*
X495730Y388594D01*
X495006Y389292D01*
X494188Y389877D01*
X493294Y390337D01*
X492342Y390662D01*
X491353Y390844D01*
X490348Y390881D01*
X489348Y390771D01*
X488375Y390517D01*
X487449Y390123D01*
X486590Y389599D01*
X485817Y388956D01*
X485146Y388207D01*
X484591Y387368D01*
X484164Y386457D01*
X483874Y385494D01*
X483728Y384499D01*
Y383493D01*
X483874Y382498D01*
X484164Y381535D01*
X484591Y380624D01*
X485146Y379785D01*
X485817Y379036D01*
X486590Y378393D01*
X487449Y377869D01*
X488375Y377475D01*
X489348Y377221D01*
X490348Y377111D01*
X491353Y377148D01*
X492342Y377330D01*
X493294Y377655D01*
X494188Y378115D01*
X495006Y378700D01*
X495730Y379398D01*
X496345Y380194D01*
X496838Y381072D01*
X497197Y382011D01*
X497416Y382993D01*
X497489Y383996D01*
X531489Y327996D02*
X531416Y328999D01*
X531197Y329981D01*
X530837Y330920D01*
X530345Y331798D01*
X529731Y332594D01*
X529006Y333292D01*
X528188Y333877D01*
X527294Y334337D01*
X526342Y334662D01*
X525353Y334844D01*
X524348Y334881D01*
X523348Y334771D01*
X522375Y334517D01*
X521449Y334123D01*
X520590Y333599D01*
X519817Y332956D01*
X519146Y332207D01*
X518591Y331368D01*
X518164Y330457D01*
X517874Y329494D01*
X517728Y328499D01*
Y327493D01*
X517874Y326498D01*
X518164Y325535D01*
X518591Y324624D01*
X519146Y323785D01*
X519817Y323036D01*
X520590Y322393D01*
X521449Y321869D01*
X522375Y321475D01*
X523348Y321221D01*
X524348Y321111D01*
X525353Y321148D01*
X526342Y321330D01*
X527294Y321655D01*
X528188Y322115D01*
X529006Y322700D01*
X529731Y323398D01*
X530345Y324195D01*
X530837Y325072D01*
X531197Y326011D01*
X531416Y326993D01*
X531489Y327996D01*
X443489Y377996D02*
X443415Y378999D01*
X443197Y379981D01*
X442837Y380920D01*
X442345Y381798D01*
X441730Y382594D01*
X441006Y383292D01*
X440188Y383877D01*
X439294Y384337D01*
X438342Y384662D01*
X437353Y384844D01*
X436348Y384881D01*
X435348Y384771D01*
X434375Y384517D01*
X433449Y384123D01*
X432590Y383599D01*
X431817Y382956D01*
X431146Y382207D01*
X430591Y381368D01*
X430164Y380457D01*
X429874Y379494D01*
X429728Y378499D01*
Y377493D01*
X429874Y376498D01*
X430164Y375535D01*
X430591Y374624D01*
X431146Y373785D01*
X431817Y373036D01*
X432590Y372393D01*
X433449Y371869D01*
X434375Y371475D01*
X435348Y371221D01*
X436348Y371111D01*
X437353Y371148D01*
X438342Y371330D01*
X439294Y371655D01*
X440188Y372115D01*
X441006Y372700D01*
X441730Y373398D01*
X442345Y374195D01*
X442837Y375072D01*
X443197Y376011D01*
X443415Y376993D01*
X443489Y377996D01*
X447489Y295996D02*
X447415Y296999D01*
X447197Y297981D01*
X446838Y298920D01*
X446345Y299798D01*
X445730Y300594D01*
X445006Y301292D01*
X444188Y301877D01*
X443294Y302337D01*
X442342Y302662D01*
X441353Y302844D01*
X440348Y302881D01*
X439348Y302771D01*
X438375Y302517D01*
X437449Y302123D01*
X436590Y301599D01*
X435817Y300956D01*
X435146Y300207D01*
X434591Y299368D01*
X434164Y298457D01*
X433874Y297494D01*
X433728Y296499D01*
Y295493D01*
X433874Y294498D01*
X434164Y293535D01*
X434591Y292624D01*
X435146Y291785D01*
X435817Y291036D01*
X436590Y290393D01*
X437449Y289869D01*
X438375Y289475D01*
X439348Y289221D01*
X440348Y289111D01*
X441353Y289148D01*
X442342Y289330D01*
X443294Y289655D01*
X444188Y290115D01*
X445006Y290700D01*
X445730Y291398D01*
X446345Y292195D01*
X446838Y293072D01*
X447197Y294011D01*
X447415Y294993D01*
X447489Y295996D01*
X100432Y51896D02*
X100358Y52899D01*
X100139Y53881D01*
X99780Y54820D01*
X99288Y55698D01*
X98673Y56494D01*
X97949Y57192D01*
X97131Y57777D01*
X96236Y58237D01*
X95284Y58562D01*
X94295Y58744D01*
X93290Y58781D01*
X92290Y58671D01*
X91317Y58417D01*
X90391Y58023D01*
X89533Y57499D01*
X88760Y56856D01*
X88089Y56107D01*
X87533Y55268D01*
X87107Y54357D01*
X86817Y53394D01*
X86670Y52399D01*
Y51393D01*
X86817Y50398D01*
X87107Y49435D01*
X87533Y48524D01*
X88089Y47685D01*
X88760Y46936D01*
X89533Y46293D01*
X90391Y45769D01*
X91317Y45375D01*
X92290Y45121D01*
X93290Y45011D01*
X94295Y45048D01*
X95284Y45230D01*
X96236Y45555D01*
X97131Y46015D01*
X97949Y46600D01*
X98673Y47298D01*
X99288Y48094D01*
X99780Y48972D01*
X100139Y49911D01*
X100358Y50893D01*
X100432Y51896D01*
X253832Y18996D02*
X253758Y19999D01*
X253539Y20981D01*
X253180Y21920D01*
X252688Y22797D01*
X252073Y23594D01*
X251349Y24292D01*
X250531Y24877D01*
X249636Y25337D01*
X248684Y25662D01*
X247695Y25844D01*
X246690Y25881D01*
X245690Y25771D01*
X244717Y25517D01*
X243791Y25123D01*
X242933Y24599D01*
X242160Y23956D01*
X241489Y23207D01*
X240933Y22368D01*
X240507Y21457D01*
X240217Y20494D01*
X240070Y19499D01*
Y18493D01*
X240217Y17498D01*
X240507Y16535D01*
X240933Y15624D01*
X241489Y14785D01*
X242160Y14036D01*
X242933Y13393D01*
X243791Y12869D01*
X244717Y12475D01*
X245690Y12221D01*
X246690Y12111D01*
X247695Y12148D01*
X248684Y12330D01*
X249636Y12655D01*
X250531Y13115D01*
X251349Y13700D01*
X252073Y14398D01*
X252688Y15194D01*
X253180Y16072D01*
X253539Y17011D01*
X253758Y17993D01*
X253832Y18996D01*
X230832D02*
X230758Y19999D01*
X230539Y20981D01*
X230180Y21920D01*
X229688Y22797D01*
X229073Y23594D01*
X228349Y24292D01*
X227531Y24877D01*
X226636Y25337D01*
X225684Y25662D01*
X224695Y25844D01*
X223690Y25881D01*
X222690Y25771D01*
X221717Y25517D01*
X220791Y25123D01*
X219933Y24599D01*
X219160Y23956D01*
X218489Y23207D01*
X217934Y22368D01*
X217507Y21457D01*
X217217Y20494D01*
X217070Y19499D01*
Y18493D01*
X217217Y17498D01*
X217507Y16535D01*
X217934Y15624D01*
X218489Y14785D01*
X219160Y14036D01*
X219933Y13393D01*
X220791Y12869D01*
X221717Y12475D01*
X222690Y12221D01*
X223690Y12111D01*
X224695Y12148D01*
X225684Y12330D01*
X226636Y12655D01*
X227531Y13115D01*
X228349Y13700D01*
X229073Y14398D01*
X229688Y15194D01*
X230180Y16072D01*
X230539Y17011D01*
X230758Y17993D01*
X230832Y18996D01*
X161831D02*
X161758Y19999D01*
X161539Y20981D01*
X161180Y21920D01*
X160688Y22797D01*
X160073Y23594D01*
X159349Y24292D01*
X158531Y24877D01*
X157636Y25337D01*
X156684Y25662D01*
X155695Y25844D01*
X154690Y25881D01*
X153690Y25771D01*
X152717Y25517D01*
X151791Y25123D01*
X150933Y24599D01*
X150160Y23956D01*
X149488Y23207D01*
X148933Y22368D01*
X148507Y21457D01*
X148217Y20494D01*
X148070Y19499D01*
Y18493D01*
X148217Y17498D01*
X148507Y16535D01*
X148933Y15624D01*
X149488Y14785D01*
X150160Y14036D01*
X150933Y13393D01*
X151791Y12869D01*
X152717Y12475D01*
X153690Y12221D01*
X154690Y12111D01*
X155695Y12148D01*
X156684Y12330D01*
X157636Y12655D01*
X158531Y13115D01*
X159349Y13700D01*
X160073Y14398D01*
X160688Y15194D01*
X161180Y16072D01*
X161539Y17011D01*
X161758Y17993D01*
X161831Y18996D01*
X138831D02*
X138758Y19999D01*
X138539Y20981D01*
X138180Y21920D01*
X137688Y22797D01*
X137073Y23594D01*
X136349Y24292D01*
X135531Y24877D01*
X134636Y25337D01*
X133684Y25662D01*
X132695Y25844D01*
X131690Y25881D01*
X130690Y25771D01*
X129717Y25517D01*
X128791Y25123D01*
X127933Y24599D01*
X127160Y23956D01*
X126488Y23207D01*
X125934Y22368D01*
X125507Y21457D01*
X125217Y20494D01*
X125070Y19499D01*
Y18493D01*
X125217Y17498D01*
X125507Y16535D01*
X125934Y15624D01*
X126488Y14785D01*
X127160Y14036D01*
X127933Y13393D01*
X128791Y12869D01*
X129717Y12475D01*
X130690Y12221D01*
X131690Y12111D01*
X132695Y12148D01*
X133684Y12330D01*
X134636Y12655D01*
X135531Y13115D01*
X136349Y13700D01*
X137073Y14398D01*
X137688Y15194D01*
X138180Y16072D01*
X138539Y17011D01*
X138758Y17993D01*
X138831Y18996D01*
X184832D02*
X184758Y19999D01*
X184539Y20981D01*
X184180Y21920D01*
X183688Y22797D01*
X183073Y23594D01*
X182349Y24292D01*
X181531Y24877D01*
X180636Y25337D01*
X179684Y25662D01*
X178695Y25844D01*
X177690Y25881D01*
X176690Y25771D01*
X175717Y25517D01*
X174791Y25123D01*
X173933Y24599D01*
X173160Y23956D01*
X172488Y23207D01*
X171933Y22368D01*
X171507Y21457D01*
X171217Y20494D01*
X171070Y19499D01*
Y18493D01*
X171217Y17498D01*
X171507Y16535D01*
X171933Y15624D01*
X172488Y14785D01*
X173160Y14036D01*
X173933Y13393D01*
X174791Y12869D01*
X175717Y12475D01*
X176690Y12221D01*
X177690Y12111D01*
X178695Y12148D01*
X179684Y12330D01*
X180636Y12655D01*
X181531Y13115D01*
X182349Y13700D01*
X183073Y14398D01*
X183688Y15194D01*
X184180Y16072D01*
X184539Y17011D01*
X184758Y17993D01*
X184832Y18996D01*
X207832D02*
X207758Y19999D01*
X207539Y20981D01*
X207180Y21920D01*
X206688Y22797D01*
X206073Y23594D01*
X205349Y24292D01*
X204531Y24877D01*
X203636Y25337D01*
X202684Y25662D01*
X201695Y25844D01*
X200690Y25881D01*
X199690Y25771D01*
X198717Y25517D01*
X197791Y25123D01*
X196933Y24599D01*
X196160Y23956D01*
X195489Y23207D01*
X194933Y22368D01*
X194507Y21457D01*
X194217Y20494D01*
X194070Y19499D01*
Y18493D01*
X194217Y17498D01*
X194507Y16535D01*
X194933Y15624D01*
X195489Y14785D01*
X196160Y14036D01*
X196933Y13393D01*
X197791Y12869D01*
X198717Y12475D01*
X199690Y12221D01*
X200690Y12111D01*
X201695Y12148D01*
X202684Y12330D01*
X203636Y12655D01*
X204531Y13115D01*
X205349Y13700D01*
X206073Y14398D01*
X206688Y15194D01*
X207180Y16072D01*
X207539Y17011D01*
X207758Y17993D01*
X207832Y18996D01*
X276832D02*
X276758Y19999D01*
X276539Y20981D01*
X276180Y21920D01*
X275688Y22797D01*
X275073Y23594D01*
X274349Y24292D01*
X273531Y24877D01*
X272636Y25337D01*
X271684Y25662D01*
X270695Y25844D01*
X269690Y25881D01*
X268690Y25771D01*
X267717Y25517D01*
X266791Y25123D01*
X265933Y24599D01*
X265160Y23956D01*
X264489Y23207D01*
X263933Y22368D01*
X263507Y21457D01*
X263217Y20494D01*
X263070Y19499D01*
Y18493D01*
X263217Y17498D01*
X263507Y16535D01*
X263933Y15624D01*
X264489Y14785D01*
X265160Y14036D01*
X265933Y13393D01*
X266791Y12869D01*
X267717Y12475D01*
X268690Y12221D01*
X269690Y12111D01*
X270695Y12148D01*
X271684Y12330D01*
X272636Y12655D01*
X273531Y13115D01*
X274349Y13700D01*
X275073Y14398D01*
X275688Y15194D01*
X276180Y16072D01*
X276539Y17011D01*
X276758Y17993D01*
X276832Y18996D01*
X299832D02*
X299758Y19999D01*
X299539Y20981D01*
X299180Y21920D01*
X298688Y22797D01*
X298073Y23594D01*
X297349Y24292D01*
X296531Y24877D01*
X295636Y25337D01*
X294684Y25662D01*
X293695Y25844D01*
X292690Y25881D01*
X291690Y25771D01*
X290717Y25517D01*
X289791Y25123D01*
X288933Y24599D01*
X288160Y23956D01*
X287489Y23207D01*
X286933Y22368D01*
X286507Y21457D01*
X286217Y20494D01*
X286070Y19499D01*
Y18493D01*
X286217Y17498D01*
X286507Y16535D01*
X286933Y15624D01*
X287489Y14785D01*
X288160Y14036D01*
X288933Y13393D01*
X289791Y12869D01*
X290717Y12475D01*
X291690Y12221D01*
X292690Y12111D01*
X293695Y12148D01*
X294684Y12330D01*
X295636Y12655D01*
X296531Y13115D01*
X297349Y13700D01*
X298073Y14398D01*
X298688Y15194D01*
X299180Y16072D01*
X299539Y17011D01*
X299758Y17993D01*
X299832Y18996D01*
X-8858Y394890D02*
X-8932Y395893D01*
X-9150Y396875D01*
X-9510Y397814D01*
X-10002Y398691D01*
X-10617Y399487D01*
X-11341Y400186D01*
X-12159Y400771D01*
X-13053Y401231D01*
X-14005Y401555D01*
X-14995Y401738D01*
X-16000Y401775D01*
X-16999Y401665D01*
X-17973Y401410D01*
X-18898Y401017D01*
X-19757Y400493D01*
X-20530Y399850D01*
X-21201Y399101D01*
X-21756Y398262D01*
X-22183Y397351D01*
X-22473Y396388D01*
X-22619Y395393D01*
Y394387D01*
X-22473Y393392D01*
X-22183Y392428D01*
X-21756Y391518D01*
X-21201Y390679D01*
X-20530Y389930D01*
X-19757Y389286D01*
X-18898Y388762D01*
X-17973Y388369D01*
X-16999Y388115D01*
X-16000Y388005D01*
X-14995Y388041D01*
X-14005Y388224D01*
X-13053Y388549D01*
X-12159Y389009D01*
X-11341Y389594D01*
X-10617Y390292D01*
X-10002Y391088D01*
X-9510Y391965D01*
X-9150Y392905D01*
X-8932Y393887D01*
X-8858Y394890D01*
Y359457D02*
X-8932Y360460D01*
X-9150Y361442D01*
X-9510Y362381D01*
X-10002Y363258D01*
X-10617Y364054D01*
X-11341Y364753D01*
X-12159Y365338D01*
X-13053Y365798D01*
X-14005Y366122D01*
X-14995Y366305D01*
X-16000Y366342D01*
X-16999Y366232D01*
X-17973Y365977D01*
X-18898Y365584D01*
X-19757Y365060D01*
X-20530Y364417D01*
X-21201Y363667D01*
X-21756Y362829D01*
X-22183Y361918D01*
X-22473Y360955D01*
X-22619Y359960D01*
Y358954D01*
X-22473Y357959D01*
X-22183Y356995D01*
X-21756Y356085D01*
X-21201Y355246D01*
X-20530Y354497D01*
X-19757Y353853D01*
X-18898Y353329D01*
X-17973Y352936D01*
X-16999Y352681D01*
X-16000Y352572D01*
X-14995Y352608D01*
X-14005Y352791D01*
X-13053Y353116D01*
X-12159Y353576D01*
X-11341Y354161D01*
X-10617Y354859D01*
X-10002Y355655D01*
X-9510Y356532D01*
X-9150Y357472D01*
X-8932Y358454D01*
X-8858Y359457D01*
X457599Y338996D02*
X458586Y339018D01*
X459571Y339085D01*
X460552Y339195D01*
X461527Y339350D01*
X462495Y339548D01*
X463452Y339789D01*
X464398Y340073D01*
X465330Y340399D01*
X466246Y340766D01*
X467145Y341175D01*
X468024Y341623D01*
X468883Y342110D01*
X469719Y342635D01*
X470531Y343198D01*
X471316Y343796D01*
X472074Y344428D01*
X472803Y345095D01*
X473501Y345793D01*
X474167Y346521D01*
X474800Y347279D01*
X475398Y348065D01*
X475960Y348876D01*
X476485Y349712D01*
X476972Y350571D01*
X477421Y351451D01*
X477829Y352350D01*
X478196Y353266D01*
X478522Y354198D01*
X478806Y355143D01*
X479048Y356101D01*
X479246Y357068D01*
X479400Y358043D01*
X479511Y359024D01*
X479577Y360009D01*
X479599Y360996D01*
Y316996D02*
X479577Y317983D01*
X479511Y318968D01*
X479400Y319949D01*
X479246Y320924D01*
X479048Y321891D01*
X478806Y322849D01*
X478522Y323794D01*
X478196Y324726D01*
X477829Y325642D01*
X477421Y326541D01*
X476972Y327421D01*
X476485Y328280D01*
X475960Y329116D01*
X475398Y329927D01*
X474799Y330713D01*
X474167Y331471D01*
X473501Y332199D01*
X472803Y332897D01*
X472074Y333564D01*
X471316Y334196D01*
X470531Y334794D01*
X469719Y335357D01*
X468883Y335882D01*
X468024Y336369D01*
X467145Y336817D01*
X466246Y337226D01*
X465329Y337593D01*
X464398Y337919D01*
X463452Y338203D01*
X462495Y338444D01*
X461527Y338643D01*
X460552Y338797D01*
X459571Y338907D01*
X458586Y338974D01*
X457599Y338996D01*
X501599D02*
X500612Y338974D01*
X499627Y338907D01*
X498646Y338797D01*
X497671Y338643D01*
X496704Y338444D01*
X495746Y338203D01*
X494801Y337919D01*
X493869Y337593D01*
X492953Y337226D01*
X492054Y336817D01*
X491174Y336369D01*
X490315Y335882D01*
X489479Y335357D01*
X488668Y334794D01*
X487882Y334196D01*
X487125Y333564D01*
X486396Y332897D01*
X485698Y332199D01*
X485032Y331471D01*
X484399Y330713D01*
X483801Y329927D01*
X483239Y329116D01*
X482713Y328280D01*
X482226Y327421D01*
X481778Y326541D01*
X481370Y325643D01*
X481002Y324726D01*
X480676Y323794D01*
X480392Y322849D01*
X480151Y321891D01*
X479953Y320924D01*
X479798Y319949D01*
X479688Y318968D01*
X479621Y317983D01*
X479599Y316996D01*
Y360996D02*
X479621Y360009D01*
X479688Y359024D01*
X479798Y358043D01*
X479953Y357068D01*
X480151Y356101D01*
X480392Y355143D01*
X480676Y354198D01*
X481002Y353266D01*
X481370Y352349D01*
X481778Y351451D01*
X482226Y350571D01*
X482713Y349712D01*
X483239Y348876D01*
X483801Y348065D01*
X484399Y347279D01*
X485032Y346521D01*
X485698Y345793D01*
X486396Y345094D01*
X487124Y344428D01*
X487882Y343796D01*
X488668Y343198D01*
X489479Y342635D01*
X490315Y342110D01*
X491174Y341623D01*
X492054Y341175D01*
X492953Y340766D01*
X493869Y340399D01*
X494801Y340073D01*
X495746Y339789D01*
X496704Y339548D01*
X497671Y339350D01*
X498646Y339195D01*
X499627Y339085D01*
X500612Y339018D01*
X501599Y338996D01*
X178150Y363394D02*
Y418553D01*
X14764Y363394D02*
Y418512D01*
X18701Y359457D02*
X174213Y359457D01*
X18701Y422449D02*
X174213Y422449D01*
X20669Y416543D02*
X172244D01*
X20669Y365362D02*
Y416543D01*
X172244Y365362D02*
Y416543D01*
X20669Y365362D02*
X172244D01*
X94559Y373053D02*
Y408953D01*
X21654Y365362D02*
X171260D01*
X21654Y416543D02*
X171260D01*
X21654Y365362D02*
Y416543D01*
X82559Y372553D02*
Y408453D01*
X171260Y410953D02*
Y416543D01*
X171358Y365362D02*
Y370953D01*
X480560Y378091D02*
Y389901D01*
X485875Y373957D02*
X495324D01*
X485875Y394035D02*
X495324D01*
X500639Y378091D02*
Y389901D01*
X518694Y317957D02*
X530505D01*
X534639Y323272D02*
Y332720D01*
X514560Y323272D02*
Y332720D01*
X518694Y338035D02*
X530505D01*
X430694Y388035D02*
X442505D01*
X426560Y373272D02*
Y382720D01*
X446639Y373272D02*
Y382720D01*
X430694Y367957D02*
X442505D01*
X430560Y290090D02*
Y301902D01*
X435875Y285957D02*
X445324D01*
X435875Y306035D02*
X445324D01*
X450639Y290090D02*
Y301902D01*
X83502Y45990D02*
Y57802D01*
X88817Y41857D02*
X98266D01*
X88817Y61935D02*
X98266D01*
X103581Y45990D02*
Y57802D01*
X236902Y13091D02*
Y24902D01*
X242217Y8957D02*
X251666D01*
X242217Y29035D02*
X251666D01*
X256981Y13091D02*
Y24902D01*
X213902Y13091D02*
Y24902D01*
X219217Y8957D02*
X228666D01*
X219217Y29035D02*
X228666D01*
X233981Y13091D02*
Y24902D01*
X144902Y13091D02*
Y24902D01*
X150217Y8957D02*
X159666D01*
X150217Y29035D02*
X159666D01*
X164981Y13091D02*
Y24902D01*
X121902Y13091D02*
Y24902D01*
X127217Y8957D02*
X136666D01*
X127217Y29035D02*
X136666D01*
X141981Y13091D02*
Y24902D01*
X167902Y13091D02*
Y24902D01*
X173217Y8957D02*
X182666D01*
X173217Y29035D02*
X182666D01*
X187981Y13091D02*
Y24902D01*
X190902Y13091D02*
Y24902D01*
X196217Y8957D02*
X205666D01*
X196217Y29035D02*
X205666D01*
X210981Y13091D02*
Y24902D01*
X259902Y13091D02*
Y24902D01*
X265217Y8957D02*
X274666D01*
X265217Y29035D02*
X274666D01*
X279981Y13091D02*
Y24902D01*
X282902Y13091D02*
Y24902D01*
X288217Y8957D02*
X297666D01*
X288217Y29035D02*
X297666D01*
X302981Y13091D02*
Y24902D01*
X-25787Y388984D02*
Y400795D01*
X-20472Y384850D02*
X-11024D01*
X-20472Y404929D02*
X-11024D01*
X-5709Y388984D02*
Y400795D01*
Y353551D02*
Y365362D01*
X-20472Y369496D02*
X-11024D01*
X-20472Y349417D02*
X-11024D01*
X-25787Y353551D02*
Y365362D01*
X330514Y138568D02*
X357542D01*
Y117196D02*
Y138568D01*
X330742Y117196D02*
X357542D01*
X329942Y137996D02*
X330514Y138568D01*
X329942Y117996D02*
X330742Y117196D01*
X329942Y292996D02*
X330742Y292196D01*
X329942Y312996D02*
X330514Y313568D01*
X330742Y292196D02*
X357542D01*
Y313568D01*
X330514D02*
X357542D01*
X428889Y355906D02*
Y356001D01*
Y328568D02*
X433080Y324377D01*
X428889Y332473D02*
X436995Y324367D01*
X428889Y336379D02*
X440885Y324382D01*
X428889Y340284D02*
X442794Y326379D01*
X428889Y344190D02*
X442794Y330284D01*
Y340001D02*
Y342095D01*
Y345001D02*
Y346301D01*
X442799Y317062D02*
Y360796D01*
X428889Y348095D02*
X442794Y334190D01*
X428889Y355906D02*
X442794Y342001D01*
X428889Y352001D02*
X442794Y338095D01*
X439468Y353862D02*
X442794Y350393D01*
X428894Y317196D02*
Y360796D01*
X437399Y351696D02*
X442794Y346301D01*
X441395Y355892D02*
X442686Y354602D01*
X439786Y360602D02*
X442695Y357692D01*
X429292Y359891D02*
X431154Y358030D01*
X454499Y338996D02*
X457599D01*
X450299D02*
X452299D01*
X446099D02*
X448099D01*
X441899D02*
X443899D01*
X437699D02*
X439699D01*
X433499D02*
X435499D01*
X429299D02*
X431299D01*
X425099D02*
X427099D01*
X420899D02*
X422899D01*
X479599Y280296D02*
Y282296D01*
Y284496D02*
Y286496D01*
Y288696D02*
Y290696D01*
Y292896D02*
Y294896D01*
Y297096D02*
Y299096D01*
Y301296D02*
Y303296D01*
Y305496D02*
Y307496D01*
Y309696D02*
Y311696D01*
Y313896D02*
Y316996D01*
X536299Y338996D02*
X538299D01*
X532099D02*
X534099D01*
X527899D02*
X529899D01*
X523699D02*
X525699D01*
X519499D02*
X521499D01*
X515299D02*
X517299D01*
X511099D02*
X513099D01*
X506899D02*
X508899D01*
X501599D02*
X504699D01*
X479599Y395696D02*
Y397696D01*
Y391496D02*
Y393496D01*
Y387296D02*
Y389296D01*
Y383096D02*
Y385096D01*
Y378896D02*
Y380896D01*
Y374696D02*
Y376696D01*
Y370496D02*
Y372496D01*
Y366296D02*
Y368296D01*
Y360996D02*
Y364096D01*
X458704Y288689D02*
X460565Y290550D01*
X457994Y299182D02*
X460903Y302092D01*
X462703Y300792D02*
X463994Y302082D01*
X466899Y296796D02*
X472294Y302191D01*
X457799Y288291D02*
X501399D01*
X464734Y298865D02*
X468202Y302191D01*
X466594Y288286D02*
X480500Y302191D01*
X462689Y288286D02*
X476594Y302191D01*
X470500Y288286D02*
X484405Y302191D01*
X457799Y302196D02*
X501533D01*
X472294Y302191D02*
X473594D01*
X476500D02*
X478594D01*
X474405Y288286D02*
X488311Y302191D01*
X478311Y288286D02*
X492216Y302191D01*
X482216Y288286D02*
X494213Y300282D01*
X486122Y288286D02*
X494228Y296392D01*
X490028Y288286D02*
X494218Y292477D01*
X462594Y288286D02*
X462689D01*
X408599Y338996D02*
X417599D01*
X408599Y318996D02*
X417599D01*
X244178Y126874D02*
X284218D01*
Y304784D01*
X244178D02*
X284218D01*
X1402Y126086D02*
X41442D01*
X1402D02*
Y303996D01*
X41442D01*
X400101Y353196D02*
X399101Y354196D01*
Y356195D01*
X400101Y357195D01*
X404100D01*
X405099Y356195D01*
Y354196D01*
X404100Y353196D01*
X400101D01*
X404599Y341496D02*
Y343495D01*
Y342496D01*
X398601D01*
X399601Y341496D01*
X404599Y361496D02*
Y363495D01*
Y362496D01*
X398601D01*
X399601Y361496D01*
X400101Y373196D02*
X399101Y374196D01*
Y376195D01*
X400101Y377195D01*
X404100D01*
X405099Y376195D01*
Y374196D01*
X404100Y373196D01*
X400101D01*
X384642Y15128D02*
Y11129D01*
X385975Y9796D01*
X387308Y11129D01*
X388640Y9796D01*
X389973Y11129D01*
Y15128D01*
X392639D02*
Y11129D01*
X393972Y9796D01*
X395305Y11129D01*
X396638Y9796D01*
X397971Y11129D01*
Y15128D01*
X400636D02*
Y11129D01*
X401969Y9796D01*
X403302Y11129D01*
X404635Y9796D01*
X405968Y11129D01*
Y15128D01*
X408634Y9796D02*
Y11129D01*
X409967D01*
Y9796D01*
X408634D01*
X415299D02*
X419297D01*
X420630Y11129D01*
X419297Y12462D01*
X416631D01*
X415299Y13795D01*
X416631Y15128D01*
X420630D01*
X423296D02*
Y11129D01*
X424629Y9796D01*
X425962Y11129D01*
X427295Y9796D01*
X428627Y11129D01*
Y15128D01*
X431293Y9796D02*
X433959D01*
X432626D01*
Y15128D01*
X431293D01*
X437958Y9796D02*
Y15128D01*
X441957D01*
X443289Y13795D01*
Y9796D01*
X445955D02*
Y11129D01*
X447288D01*
Y9796D01*
X445955D01*
X456618D02*
X453953D01*
X452620Y11129D01*
Y13795D01*
X453953Y15128D01*
X456618D01*
X457951Y13795D01*
Y12462D01*
X452620D01*
X465949Y17793D02*
Y9796D01*
X461950D01*
X460617Y11129D01*
Y13795D01*
X461950Y15128D01*
X465949D01*
X468614D02*
Y11129D01*
X469947Y9796D01*
X473946D01*
Y15128D01*
X476612Y9796D02*
Y11129D01*
X477945D01*
Y9796D01*
X476612D01*
X484609Y15128D02*
X487275D01*
X488608Y13795D01*
Y9796D01*
X484609D01*
X483277Y11129D01*
X484609Y12462D01*
X488608D01*
X491274Y15128D02*
Y11129D01*
X492607Y9796D01*
X496605D01*
Y15128D01*
D11*
X-38532Y153985D02*
X-39270Y154411D01*
Y153559D01*
X-38532Y153985D01*
X154768Y342185D02*
X154030Y342611D01*
Y341759D01*
X154768Y342185D01*
X132009Y409181D02*
X131271Y409607D01*
Y408755D01*
X132009Y409181D01*
Y391181D02*
X131271Y391607D01*
Y390755D01*
X132009Y391181D01*
X325710Y385181D02*
X324971Y385607D01*
Y384755D01*
X325710Y385181D01*
X5336Y84581D02*
X4598Y85007D01*
Y84155D01*
X5336Y84581D01*
X358310Y83781D02*
X357571Y84207D01*
Y83355D01*
X358310Y83781D01*
X345662Y219798D02*
X344924Y220224D01*
Y219372D01*
X345662Y219798D01*
X325710Y405081D02*
X324971Y405507D01*
Y404655D01*
X325710Y405081D01*
X327410Y152681D02*
X326671Y153107D01*
Y152255D01*
X327410Y152681D01*
X327409Y170497D02*
X326671Y170923D01*
Y170071D01*
X327409Y170497D01*
X344020Y259463D02*
X343282Y259889D01*
Y259037D01*
X344020Y259463D01*
X152920Y407563D02*
X152181Y407989D01*
Y407137D01*
X152920Y407563D01*
X347220Y174122D02*
X346481Y174548D01*
Y173696D01*
X347220Y174122D01*
X343220Y407677D02*
X342481Y408103D01*
Y407251D01*
X343220Y407677D01*
X40151Y83581D02*
X39413Y84007D01*
Y83155D01*
X40151Y83581D01*
X331292Y57579D02*
X330554Y58005D01*
Y57152D01*
X331292Y57579D01*
D12*
X352976Y253951D02*
X352532Y254874D01*
X351533Y255103D01*
X350731Y254464D01*
Y253439D01*
X351533Y252800D01*
X352532Y253028D01*
X352976Y253951D01*
X161876Y402051D02*
X161432Y402975D01*
X160433Y403203D01*
X159631Y402564D01*
Y401539D01*
X160433Y400900D01*
X161432Y401128D01*
X161876Y402051D01*
X356176Y168610D02*
X355732Y169534D01*
X354732Y169762D01*
X353931Y169123D01*
Y168098D01*
X354732Y167459D01*
X355732Y167687D01*
X356176Y168610D01*
X352176Y402165D02*
X351732Y403089D01*
X350732Y403317D01*
X349931Y402678D01*
Y401653D01*
X350732Y401014D01*
X351732Y401242D01*
X352176Y402165D01*
X341627Y50492D02*
X341182Y51415D01*
X340183Y51644D01*
X339382Y51004D01*
Y49980D01*
X340183Y49341D01*
X341182Y49569D01*
X341627Y50492D01*
D13*
X37702Y93396D02*
X37582Y94385D01*
X37229Y95317D01*
X36663Y96137D01*
X35917Y96798D01*
X35034Y97261D01*
X34067Y97500D01*
X33070D01*
X32103Y97261D01*
X31220Y96798D01*
X30474Y96137D01*
X29908Y95317D01*
X29555Y94385D01*
X29435Y93396D01*
X29555Y92407D01*
X29908Y91475D01*
X30474Y90655D01*
X31220Y89994D01*
X32103Y89531D01*
X33070Y89292D01*
X34067D01*
X35034Y89531D01*
X35917Y89994D01*
X36663Y90655D01*
X37229Y91475D01*
X37582Y92407D01*
X37702Y93396D01*
X63202Y93896D02*
X63082Y94885D01*
X62729Y95817D01*
X62163Y96637D01*
X61417Y97298D01*
X60534Y97761D01*
X59567Y98000D01*
X58570D01*
X57603Y97761D01*
X56720Y97298D01*
X55974Y96637D01*
X55408Y95817D01*
X55055Y94885D01*
X54935Y93896D01*
X55055Y92907D01*
X55408Y91975D01*
X55974Y91155D01*
X56720Y90494D01*
X57603Y90031D01*
X58570Y89792D01*
X59567D01*
X60534Y90031D01*
X61417Y90494D01*
X62163Y91155D01*
X62729Y91975D01*
X63082Y92907D01*
X63202Y93896D01*
Y61896D02*
X63082Y62885D01*
X62729Y63817D01*
X62163Y64637D01*
X61417Y65298D01*
X60534Y65761D01*
X59567Y66000D01*
X58570D01*
X57603Y65761D01*
X56720Y65298D01*
X55974Y64637D01*
X55408Y63817D01*
X55055Y62885D01*
X54935Y61896D01*
X55055Y60907D01*
X55408Y59975D01*
X55974Y59155D01*
X56720Y58494D01*
X57603Y58031D01*
X58570Y57792D01*
X59567D01*
X60534Y58031D01*
X61417Y58494D01*
X62163Y59155D01*
X62729Y59975D01*
X63082Y60907D01*
X63202Y61896D01*
X354367Y275000D02*
X354247Y275989D01*
X353893Y276921D01*
X353327Y277741D01*
X352581Y278402D01*
X351699Y278865D01*
X350731Y279104D01*
X349735D01*
X348767Y278865D01*
X347885Y278402D01*
X347139Y277741D01*
X346573Y276921D01*
X346219Y275989D01*
X346099Y275000D01*
X346219Y274011D01*
X346573Y273079D01*
X347139Y272259D01*
X347885Y271598D01*
X348767Y271135D01*
X349735Y270896D01*
X350731D01*
X351699Y271135D01*
X352581Y271598D01*
X353327Y272259D01*
X353893Y273079D01*
X354247Y274011D01*
X354367Y275000D01*
X340576D02*
X340456Y275989D01*
X340102Y276921D01*
X339536Y277741D01*
X338790Y278402D01*
X337908Y278865D01*
X336940Y279104D01*
X335943D01*
X334976Y278865D01*
X334093Y278402D01*
X333348Y277741D01*
X332781Y276921D01*
X332428Y275989D01*
X332308Y275000D01*
X332428Y274011D01*
X332781Y273079D01*
X333348Y272259D01*
X334093Y271598D01*
X334976Y271135D01*
X335943Y270896D01*
X336940D01*
X337908Y271135D01*
X338790Y271598D01*
X339536Y272259D01*
X340102Y273079D01*
X340456Y274011D01*
X340576Y275000D01*
X325576D02*
X325455Y275989D01*
X325102Y276921D01*
X324536Y277741D01*
X323790Y278402D01*
X322908Y278865D01*
X321940Y279104D01*
X320943D01*
X319976Y278865D01*
X319093Y278402D01*
X318348Y277741D01*
X317781Y276921D01*
X317428Y275989D01*
X317308Y275000D01*
X317428Y274011D01*
X317781Y273079D01*
X318348Y272259D01*
X319093Y271598D01*
X319976Y271135D01*
X320943Y270896D01*
X321940D01*
X322908Y271135D01*
X323790Y271598D01*
X324536Y272259D01*
X325102Y273079D01*
X325455Y274011D01*
X325576Y275000D01*
X35225Y407285D02*
X34558Y407951D01*
X33226D01*
X32559Y407285D01*
Y406619D01*
X33226Y405952D01*
X34558D01*
X35225Y405286D01*
Y404619D01*
X34558Y403953D01*
X33226D01*
X32559Y404619D01*
X36558Y407951D02*
Y403953D01*
X38557D01*
X39224Y404619D01*
Y407285D01*
X38557Y407951D01*
X36558D01*
X40556Y403953D02*
Y406619D01*
X41889Y407951D01*
X43222Y406619D01*
Y403953D01*
Y405952D01*
X40556D01*
X35225Y397285D02*
X34558Y397952D01*
X33226D01*
X32559Y397285D01*
Y396619D01*
X33226Y395952D01*
X34558D01*
X35225Y395286D01*
Y394619D01*
X34558Y393953D01*
X33226D01*
X32559Y394619D01*
X39224Y397285D02*
X38557Y397952D01*
X37224D01*
X36558Y397285D01*
Y394619D01*
X37224Y393953D01*
X38557D01*
X39224Y394619D01*
X40556Y397952D02*
Y393953D01*
X43222D01*
X32559Y387951D02*
Y385286D01*
X33892Y383953D01*
X35225Y385286D01*
Y387951D01*
X39224Y386619D02*
X37224D01*
X36558Y385952D01*
Y384619D01*
X37224Y383953D01*
X39224D01*
X43222Y386619D02*
X41223D01*
X40556Y385952D01*
Y384619D01*
X41223Y383953D01*
X43222D01*
X35225Y377285D02*
X34558Y377952D01*
X33226D01*
X32559Y377285D01*
Y374619D01*
X33226Y373953D01*
X34558D01*
X35225Y374619D01*
Y375952D01*
X33892D01*
X36558Y373953D02*
Y377952D01*
X39224Y373953D01*
Y377952D01*
X40556D02*
Y373953D01*
X42556D01*
X43222Y374619D01*
Y377285D01*
X42556Y377952D01*
X40556D01*
D14*
X378745Y122318D02*
X378145Y122664D01*
Y121971D01*
X378745Y122318D01*
X359486Y364114D02*
X358886Y364460D01*
Y363768D01*
X359486Y364114D01*
X453543Y205713D02*
X452943Y206060D01*
Y205367D01*
X453543Y205713D01*
Y222713D02*
X452943Y223060D01*
Y222367D01*
X453543Y222713D01*
X377444Y57118D02*
X376844Y57464D01*
Y56771D01*
X377444Y57118D01*
X401944Y122318D02*
X401344Y122664D01*
Y121971D01*
X401944Y122318D01*
X359486Y343614D02*
X358886Y343960D01*
Y343267D01*
X359486Y343614D01*
X347185Y97114D02*
X346585Y97460D01*
Y96767D01*
X347185Y97114D01*
X359085Y215114D02*
X358486Y215460D01*
Y214768D01*
X359085Y215114D01*
X325586Y254614D02*
X324986Y254960D01*
Y254268D01*
X325586Y254614D01*
X359486Y324114D02*
X358886Y324460D01*
Y323767D01*
X359486Y324114D01*
X308085Y151114D02*
X307486Y151460D01*
Y150768D01*
X308085Y151114D01*
Y167614D02*
X307486Y167960D01*
Y167268D01*
X308085Y167614D01*
X66404Y388790D02*
X65804Y389137D01*
Y388444D01*
X66404Y388790D01*
X66404Y407347D02*
X65804Y407693D01*
Y407001D01*
X66404Y407347D01*
X181985Y358114D02*
X181386Y358460D01*
Y357768D01*
X181985Y358114D01*
Y343414D02*
X181386Y343760D01*
Y343068D01*
X181985Y343414D01*
X370842Y28996D02*
X370242Y29342D01*
Y28650D01*
X370842Y28996D01*
D15*
X513599Y208996D02*
X513540Y210001D01*
X513361Y210993D01*
X513067Y211956D01*
X512661Y212877D01*
X512149Y213744D01*
X511538Y214545D01*
X510837Y215268D01*
X510054Y215902D01*
X509203Y216440D01*
X508294Y216873D01*
X507340Y217195D01*
X506354Y217403D01*
X505351Y217492D01*
X504344Y217462D01*
X503348Y217314D01*
X502377Y217048D01*
X501444Y216670D01*
X500562Y216184D01*
X499744Y215596D01*
X499000Y214917D01*
X498343Y214154D01*
X497780Y213318D01*
X497321Y212422D01*
X496970Y211478D01*
X496733Y210500D01*
X496614Y209500D01*
Y208492D01*
X496733Y207492D01*
X496970Y206514D01*
X497321Y205569D01*
X497780Y204674D01*
X498343Y203838D01*
X499000Y203075D01*
X499744Y202396D01*
X500562Y201808D01*
X501444Y201322D01*
X502377Y200944D01*
X503348Y200678D01*
X504344Y200530D01*
X505351Y200500D01*
X506354Y200589D01*
X507340Y200797D01*
X508294Y201119D01*
X509203Y201552D01*
X510054Y202090D01*
X510837Y202724D01*
X511538Y203447D01*
X512149Y204247D01*
X512661Y205115D01*
X513067Y206036D01*
X513361Y206999D01*
X513540Y207991D01*
X513599Y208996D01*
X533599Y228996D02*
X533539Y230001D01*
X533361Y230993D01*
X533067Y231956D01*
X532661Y232877D01*
X532149Y233745D01*
X531538Y234545D01*
X530837Y235268D01*
X530055Y235902D01*
X529203Y236440D01*
X528294Y236873D01*
X527340Y237195D01*
X526354Y237403D01*
X525351Y237492D01*
X524344Y237462D01*
X523348Y237314D01*
X522377Y237048D01*
X521444Y236670D01*
X520562Y236184D01*
X519743Y235596D01*
X519000Y234917D01*
X518343Y234154D01*
X517780Y233318D01*
X517320Y232422D01*
X516970Y231479D01*
X516733Y230500D01*
X516614Y229500D01*
Y228492D01*
X516733Y227492D01*
X516970Y226514D01*
X517320Y225569D01*
X517780Y224674D01*
X518343Y223838D01*
X519000Y223075D01*
X519743Y222395D01*
X520562Y221808D01*
X521444Y221322D01*
X522377Y220944D01*
X523348Y220678D01*
X524344Y220530D01*
X525351Y220500D01*
X526354Y220589D01*
X527340Y220797D01*
X528294Y221119D01*
X529203Y221552D01*
X530055Y222090D01*
X530836Y222724D01*
X531538Y223447D01*
X532149Y224248D01*
X532661Y225115D01*
X533067Y226036D01*
X533361Y226999D01*
X533539Y227991D01*
X533599Y228996D01*
Y208996D02*
X533539Y210001D01*
X533361Y210993D01*
X533067Y211956D01*
X532661Y212877D01*
X532149Y213744D01*
X531538Y214545D01*
X530837Y215268D01*
X530055Y215902D01*
X529203Y216440D01*
X528294Y216873D01*
X527340Y217195D01*
X526354Y217403D01*
X525351Y217492D01*
X524344Y217462D01*
X523348Y217314D01*
X522377Y217048D01*
X521444Y216670D01*
X520562Y216184D01*
X519743Y215596D01*
X519000Y214917D01*
X518343Y214154D01*
X517780Y213318D01*
X517320Y212422D01*
X516970Y211478D01*
X516733Y210500D01*
X516614Y209500D01*
Y208492D01*
X516733Y207492D01*
X516970Y206514D01*
X517320Y205569D01*
X517780Y204674D01*
X518343Y203838D01*
X519000Y203075D01*
X519743Y202396D01*
X520562Y201808D01*
X521444Y201322D01*
X522377Y200944D01*
X523348Y200678D01*
X524344Y200530D01*
X525351Y200500D01*
X526354Y200589D01*
X527340Y200797D01*
X528294Y201119D01*
X529203Y201552D01*
X530055Y202090D01*
X530836Y202724D01*
X531538Y203447D01*
X532149Y204247D01*
X532661Y205115D01*
X533067Y206036D01*
X533361Y206999D01*
X533539Y207991D01*
X533599Y208996D01*
Y188996D02*
X533539Y190001D01*
X533361Y190992D01*
X533067Y191956D01*
X532661Y192877D01*
X532149Y193745D01*
X531538Y194545D01*
X530837Y195268D01*
X530055Y195902D01*
X529203Y196440D01*
X528294Y196873D01*
X527340Y197195D01*
X526354Y197403D01*
X525351Y197492D01*
X524344Y197462D01*
X523348Y197314D01*
X522377Y197048D01*
X521444Y196670D01*
X520562Y196184D01*
X519743Y195596D01*
X519000Y194917D01*
X518343Y194154D01*
X517780Y193318D01*
X517320Y192422D01*
X516970Y191479D01*
X516733Y190499D01*
X516614Y189499D01*
Y188492D01*
X516733Y187492D01*
X516970Y186513D01*
X517320Y185569D01*
X517780Y184674D01*
X518343Y183838D01*
X519000Y183075D01*
X519743Y182396D01*
X520562Y181808D01*
X521444Y181322D01*
X522377Y180944D01*
X523348Y180678D01*
X524344Y180530D01*
X525351Y180500D01*
X526354Y180589D01*
X527340Y180797D01*
X528294Y181119D01*
X529203Y181552D01*
X530055Y182090D01*
X530836Y182724D01*
X531538Y183447D01*
X532149Y184248D01*
X532661Y185115D01*
X533067Y186036D01*
X533361Y186999D01*
X533539Y187991D01*
X533599Y188996D01*
X493599Y188996D02*
X493539Y190001D01*
X493361Y190992D01*
X493067Y191956D01*
X492661Y192877D01*
X492149Y193745D01*
X491538Y194545D01*
X490837Y195268D01*
X490055Y195902D01*
X489203Y196440D01*
X488294Y196873D01*
X487340Y197195D01*
X486354Y197403D01*
X485351Y197492D01*
X484344Y197462D01*
X483348Y197314D01*
X482377Y197048D01*
X481444Y196670D01*
X480562Y196184D01*
X479743Y195596D01*
X479000Y194917D01*
X478343Y194154D01*
X477780Y193318D01*
X477320Y192422D01*
X476970Y191479D01*
X476733Y190499D01*
X476614Y189499D01*
Y188492D01*
X476733Y187492D01*
X476970Y186513D01*
X477320Y185569D01*
X477780Y184674D01*
X478343Y183838D01*
X479000Y183075D01*
X479743Y182396D01*
X480562Y181808D01*
X481444Y181322D01*
X482377Y180944D01*
X483348Y180678D01*
X484344Y180530D01*
X485351Y180500D01*
X486354Y180589D01*
X487340Y180797D01*
X488294Y181119D01*
X489203Y181552D01*
X490055Y182090D01*
X490836Y182724D01*
X491538Y183447D01*
X492149Y184248D01*
X492661Y185115D01*
X493067Y186036D01*
X493361Y186999D01*
X493539Y187991D01*
X493599Y188996D01*
Y208996D02*
X493539Y210001D01*
X493361Y210993D01*
X493067Y211956D01*
X492661Y212877D01*
X492149Y213744D01*
X491538Y214545D01*
X490837Y215268D01*
X490055Y215902D01*
X489203Y216440D01*
X488294Y216873D01*
X487340Y217195D01*
X486354Y217403D01*
X485351Y217492D01*
X484344Y217462D01*
X483348Y217314D01*
X482377Y217048D01*
X481444Y216670D01*
X480562Y216184D01*
X479743Y215596D01*
X479000Y214917D01*
X478343Y214154D01*
X477780Y213318D01*
X477320Y212422D01*
X476970Y211478D01*
X476733Y210500D01*
X476614Y209500D01*
Y208492D01*
X476733Y207492D01*
X476970Y206514D01*
X477320Y205569D01*
X477780Y204674D01*
X478343Y203838D01*
X479000Y203075D01*
X479743Y202396D01*
X480562Y201808D01*
X481444Y201322D01*
X482377Y200944D01*
X483348Y200678D01*
X484344Y200530D01*
X485351Y200500D01*
X486354Y200589D01*
X487340Y200797D01*
X488294Y201119D01*
X489203Y201552D01*
X490055Y202090D01*
X490836Y202724D01*
X491538Y203447D01*
X492149Y204247D01*
X492661Y205115D01*
X493067Y206036D01*
X493361Y206999D01*
X493539Y207991D01*
X493599Y208996D01*
Y228996D02*
X493539Y230001D01*
X493361Y230993D01*
X493067Y231956D01*
X492661Y232877D01*
X492149Y233745D01*
X491538Y234545D01*
X490837Y235268D01*
X490055Y235902D01*
X489203Y236440D01*
X488294Y236873D01*
X487340Y237195D01*
X486354Y237403D01*
X485351Y237492D01*
X484344Y237462D01*
X483348Y237314D01*
X482377Y237048D01*
X481444Y236670D01*
X480562Y236184D01*
X479743Y235596D01*
X479000Y234917D01*
X478343Y234154D01*
X477780Y233318D01*
X477320Y232422D01*
X476970Y231479D01*
X476733Y230500D01*
X476614Y229500D01*
Y228492D01*
X476733Y227492D01*
X476970Y226514D01*
X477320Y225569D01*
X477780Y224674D01*
X478343Y223838D01*
X479000Y223075D01*
X479743Y222395D01*
X480562Y221808D01*
X481444Y221322D01*
X482377Y220944D01*
X483348Y220678D01*
X484344Y220530D01*
X485351Y220500D01*
X486354Y220589D01*
X487340Y220797D01*
X488294Y221119D01*
X489203Y221552D01*
X490055Y222090D01*
X490836Y222724D01*
X491538Y223447D01*
X492149Y224248D01*
X492661Y225115D01*
X493067Y226036D01*
X493361Y226999D01*
X493539Y227991D01*
X493599Y228996D01*
X517099Y91096D02*
X517083Y92098D01*
X517032Y93100D01*
X516949Y94099D01*
X516831Y95095D01*
X516681Y96086D01*
X516498Y97072D01*
X516282Y98051D01*
X516033Y99022D01*
X515752Y99984D01*
X515439Y100937D01*
X515095Y101878D01*
X514719Y102808D01*
X514312Y103724D01*
X513875Y104626D01*
X513408Y105513D01*
X512911Y106385D01*
X512386Y107238D01*
X511833Y108074D01*
X511251Y108891D01*
X510643Y109688D01*
X510009Y110465D01*
X509349Y111220D01*
X508664Y111952D01*
X507955Y112661D01*
X507223Y113346D01*
X506468Y114006D01*
X505692Y114640D01*
X504895Y115248D01*
X504078Y115829D01*
X503242Y116383D01*
X502388Y116908D01*
X501517Y117404D01*
X500630Y117872D01*
X499727Y118309D01*
X498811Y118716D01*
X497881Y119091D01*
X496940Y119436D01*
X495988Y119749D01*
X495025Y120030D01*
X494054Y120279D01*
X493075Y120495D01*
X492089Y120678D01*
X491098Y120828D01*
X490102Y120945D01*
X489103Y121029D01*
X488102Y121079D01*
X487099Y121096D01*
X486097Y121079D01*
X485095Y121029D01*
X484096Y120945D01*
X483101Y120828D01*
X482109Y120678D01*
X481124Y120495D01*
X480145Y120279D01*
X479173Y120030D01*
X478211Y119749D01*
X477258Y119436D01*
X476317Y119091D01*
X475387Y118716D01*
X474471Y118309D01*
X473569Y117872D01*
X472682Y117404D01*
X471811Y116908D01*
X470957Y116383D01*
X470121Y115829D01*
X469304Y115248D01*
X468507Y114640D01*
X467730Y114005D01*
X466976Y113346D01*
X466243Y112661D01*
X465534Y111952D01*
X464850Y111220D01*
X464190Y110465D01*
X463555Y109688D01*
X462947Y108891D01*
X462366Y108074D01*
X461812Y107238D01*
X461287Y106385D01*
X460791Y105514D01*
X460324Y104626D01*
X459887Y103724D01*
X459480Y102808D01*
X459104Y101878D01*
X458759Y100937D01*
X458446Y99984D01*
X458165Y99022D01*
X457916Y98051D01*
X457700Y97072D01*
X457517Y96086D01*
X457367Y95095D01*
X457250Y94099D01*
X457166Y93100D01*
X457116Y92098D01*
X457099Y91096D01*
X457116Y90094D01*
X457166Y89092D01*
X457250Y88093D01*
X457367Y87098D01*
X457517Y86106D01*
X457700Y85120D01*
X457916Y84141D01*
X458165Y83170D01*
X458446Y82208D01*
X458759Y81255D01*
X459104Y80314D01*
X459480Y79384D01*
X459886Y78468D01*
X460324Y77566D01*
X460791Y76679D01*
X461287Y75808D01*
X461812Y74954D01*
X462366Y74118D01*
X462947Y73301D01*
X463555Y72504D01*
X464189Y71727D01*
X464850Y70973D01*
X465534Y70240D01*
X466243Y69531D01*
X466975Y68847D01*
X467730Y68186D01*
X468507Y67552D01*
X469304Y66944D01*
X470121Y66363D01*
X470957Y65809D01*
X471810Y65284D01*
X472682Y64788D01*
X473569Y64320D01*
X474471Y63883D01*
X475387Y63477D01*
X476317Y63101D01*
X477258Y62756D01*
X478211Y62443D01*
X479173Y62162D01*
X480144Y61913D01*
X481123Y61697D01*
X482109Y61514D01*
X483100Y61364D01*
X484096Y61247D01*
X485095Y61163D01*
X486096Y61113D01*
X487099Y61096D01*
X488101Y61113D01*
X489103Y61163D01*
X490102Y61247D01*
X491097Y61364D01*
X492089Y61514D01*
X493075Y61697D01*
X494054Y61913D01*
X495025Y62162D01*
X495987Y62443D01*
X496940Y62756D01*
X497881Y63100D01*
X498811Y63476D01*
X499727Y63883D01*
X500629Y64320D01*
X501516Y64787D01*
X502387Y65284D01*
X503241Y65809D01*
X504077Y66363D01*
X504894Y66944D01*
X505691Y67552D01*
X506468Y68186D01*
X507223Y68846D01*
X507955Y69531D01*
X508664Y70240D01*
X509348Y70972D01*
X510009Y71727D01*
X510643Y72503D01*
X511251Y73300D01*
X511832Y74117D01*
X512386Y74953D01*
X512911Y75807D01*
X513408Y76678D01*
X513875Y77565D01*
X514312Y78468D01*
X514719Y79384D01*
X515095Y80313D01*
X515439Y81255D01*
X515752Y82207D01*
X516033Y83170D01*
X516282Y84141D01*
X516498Y85120D01*
X516681Y86106D01*
X516831Y87097D01*
X516949Y88093D01*
X517032Y89092D01*
X517082Y90093D01*
X517099Y91096D01*
X533099Y91096D02*
X533088Y92096D01*
X533056Y93095D01*
X533001Y94094D01*
X532925Y95091D01*
X532828Y96087D01*
X532708Y97079D01*
X532568Y98070D01*
X532405Y99056D01*
X532221Y100040D01*
X532016Y101018D01*
X531790Y101992D01*
X531543Y102961D01*
X531274Y103925D01*
X530985Y104882D01*
X530675Y105833D01*
X530344Y106777D01*
X529993Y107713D01*
X529622Y108642D01*
X529230Y109562D01*
X528819Y110474D01*
X528388Y111376D01*
X527937Y112269D01*
X527467Y113151D01*
X526978Y114024D01*
X526470Y114885D01*
X525944Y115736D01*
X525399Y116574D01*
X524836Y117401D01*
X524255Y118215D01*
X523657Y119016D01*
X523041Y119804D01*
X522409Y120579D01*
X521759Y121340D01*
X521094Y122086D01*
X520412Y122818D01*
X519714Y123534D01*
X519001Y124236D01*
X518273Y124921D01*
X517531Y125591D01*
X516774Y126245D01*
X516003Y126881D01*
X515218Y127501D01*
X514420Y128104D01*
X513609Y128689D01*
X512785Y129256D01*
X511950Y129806D01*
X511102Y130337D01*
X510243Y130850D01*
X509374Y131343D01*
X508494Y131818D01*
X507603Y132273D01*
X506703Y132710D01*
X505794Y133126D01*
X504876Y133522D01*
X503949Y133899D01*
X503015Y134255D01*
X502073Y134591D01*
X501124Y134906D01*
X500168Y135201D01*
X499206Y135474D01*
X498238Y135727D01*
X497265Y135959D01*
X496288Y136169D01*
X495306Y136358D01*
X494320Y136526D01*
X493331Y136672D01*
X492338Y136797D01*
X491344Y136900D01*
X490347Y136981D01*
X489349Y137041D01*
X488349Y137079D01*
X487349Y137095D01*
X486349Y137090D01*
X485350Y137063D01*
X484351Y137014D01*
X483353Y136943D01*
X482357Y136851D01*
X481364Y136737D01*
X480373Y136601D01*
X479385Y136445D01*
X478401Y136266D01*
X477421Y136066D01*
X476446Y135845D01*
X475476Y135603D01*
X474511Y135340D01*
X473552Y135056D01*
X472599Y134751D01*
X471654Y134425D01*
X470716Y134079D01*
X469785Y133713D01*
X468863Y133327D01*
X467949Y132920D01*
X467044Y132494D01*
X466149Y132048D01*
X465264Y131583D01*
X464389Y131099D01*
X463524Y130596D01*
X462671Y130074D01*
X461830Y129534D01*
X461000Y128975D01*
X460183Y128399D01*
X459378Y127805D01*
X458587Y127193D01*
X457809Y126565D01*
X457044Y125920D01*
X456294Y125258D01*
X455559Y124581D01*
X454839Y123887D01*
X454133Y123178D01*
X453444Y122454D01*
X452770Y121715D01*
X452112Y120961D01*
X451471Y120193D01*
X450847Y119412D01*
X450240Y118617D01*
X449651Y117809D01*
X449079Y116989D01*
X448525Y116156D01*
X447989Y115312D01*
X447472Y114456D01*
X446974Y113589D01*
X446494Y112711D01*
X446034Y111823D01*
X445593Y110926D01*
X445172Y110019D01*
X444770Y109103D01*
X444389Y108178D01*
X444027Y107246D01*
X443686Y106306D01*
X443366Y105358D01*
X443066Y104404D01*
X442787Y103444D01*
X442529Y102477D01*
X442293Y101506D01*
X442077Y100529D01*
X441882Y99548D01*
X441709Y98563D01*
X441558Y97575D01*
X441428Y96583D01*
X441319Y95589D01*
X441232Y94593D01*
X441167Y93595D01*
X441124Y92596D01*
X441102Y91596D01*
Y90596D01*
X441124Y89596D01*
X441167Y88597D01*
X441232Y87599D01*
X441319Y86602D01*
X441428Y85608D01*
X441558Y84617D01*
X441709Y83628D01*
X441883Y82643D01*
X442077Y81662D01*
X442293Y80686D01*
X442530Y79714D01*
X442788Y78748D01*
X443067Y77788D01*
X443366Y76833D01*
X443687Y75886D01*
X444028Y74946D01*
X444389Y74013D01*
X444770Y73089D01*
X445172Y72173D01*
X445593Y71266D01*
X446034Y70368D01*
X446494Y69480D01*
X446974Y68603D01*
X447472Y67736D01*
X447989Y66880D01*
X448525Y66035D01*
X449079Y65203D01*
X449651Y64382D01*
X450241Y63574D01*
X450847Y62780D01*
X451472Y61998D01*
X452113Y61231D01*
X452770Y60477D01*
X453444Y59738D01*
X454134Y59014D01*
X454839Y58305D01*
X455559Y57611D01*
X456295Y56933D01*
X457045Y56272D01*
X457809Y55627D01*
X458587Y54998D01*
X459378Y54387D01*
X460183Y53793D01*
X461000Y53217D01*
X461830Y52658D01*
X462672Y52118D01*
X463525Y51596D01*
X464389Y51093D01*
X465264Y50609D01*
X466149Y50144D01*
X467044Y49698D01*
X467949Y49272D01*
X468863Y48865D01*
X469785Y48479D01*
X470716Y48112D01*
X471654Y47766D01*
X472600Y47441D01*
X473552Y47136D01*
X474511Y46852D01*
X475476Y46589D01*
X476446Y46347D01*
X477422Y46126D01*
X478402Y45926D01*
X479386Y45747D01*
X480373Y45590D01*
X481364Y45455D01*
X482358Y45341D01*
X483354Y45249D01*
X484351Y45178D01*
X485350Y45129D01*
X486350Y45102D01*
X487350Y45097D01*
X488350Y45113D01*
X489349Y45151D01*
X490347Y45211D01*
X491344Y45292D01*
X492339Y45395D01*
X493331Y45520D01*
X494320Y45666D01*
X495306Y45834D01*
X496288Y46023D01*
X497266Y46233D01*
X498239Y46465D01*
X499206Y46718D01*
X500168Y46992D01*
X501124Y47286D01*
X502073Y47601D01*
X503015Y47937D01*
X503950Y48293D01*
X504876Y48670D01*
X505794Y49066D01*
X506704Y49483D01*
X507604Y49919D01*
X508494Y50374D01*
X509374Y50849D01*
X510244Y51343D01*
X511102Y51855D01*
X511950Y52386D01*
X512785Y52936D01*
X513609Y53503D01*
X514420Y54088D01*
X515218Y54691D01*
X516003Y55311D01*
X516774Y55948D01*
X517531Y56601D01*
X518274Y57271D01*
X519002Y57956D01*
X519715Y58658D01*
X520412Y59374D01*
X521094Y60106D01*
X521759Y60852D01*
X522409Y61613D01*
X523041Y62388D01*
X523657Y63176D01*
X524255Y63977D01*
X524836Y64791D01*
X525399Y65618D01*
X525944Y66457D01*
X526470Y67307D01*
X526978Y68168D01*
X527467Y69041D01*
X527937Y69924D01*
X528388Y70816D01*
X528819Y71719D01*
X529230Y72630D01*
X529622Y73550D01*
X529993Y74479D01*
X530344Y75415D01*
X530675Y76359D01*
X530985Y77310D01*
X531274Y78267D01*
X531543Y79231D01*
X531790Y80200D01*
X532016Y81174D01*
X532221Y82152D01*
X532405Y83136D01*
X532568Y84122D01*
X532708Y85113D01*
X532828Y86105D01*
X532925Y87101D01*
X533001Y88098D01*
X533056Y89096D01*
X533088Y90096D01*
X533099Y91096D01*
X-20558Y320996D02*
X304942D01*
X304942D02*
X304942Y109996D01*
X-20558Y320996D02*
X-20558Y109996D01*
X304942D01*
X396599Y74496D02*
X404900D01*
X396599Y84496D02*
X404900D01*
X396599Y94496D02*
X404900D01*
X396599Y104496D02*
X404900D01*
X469099Y244996D02*
X541099Y244996D01*
Y172996D02*
Y244996D01*
X469099Y172996D02*
X541099D01*
X469099D02*
Y244996D01*
X420599Y242864D02*
X435599D01*
Y227864D02*
Y242864D01*
X420599Y227864D02*
X435599D01*
X420599D02*
Y242864D01*
Y210364D02*
Y225364D01*
Y210364D02*
X435599D01*
Y225364D01*
X420599D02*
X435599D01*
X420599Y192864D02*
Y207864D01*
Y192864D02*
X435599D01*
Y207864D01*
X420599D02*
X435599D01*
X420599Y175364D02*
Y190364D01*
Y175364D02*
X435599D01*
Y190364D01*
X420599D02*
X435599D01*
X396000Y214000D02*
X405242D01*
Y213996D02*
X409404Y218157D01*
X420599D01*
X396000Y224000D02*
X403979D01*
Y223996D02*
X415479Y235496D01*
X420467D01*
X415479Y182496D02*
X420467D01*
X403979Y193996D02*
X415479Y182496D01*
X396000Y194000D02*
X403979D01*
X409404Y199835D02*
X420599D01*
X405242Y203996D02*
X409404Y199835D01*
X396000Y204000D02*
X405242D01*
X292442Y68496D02*
Y77996D01*
X272442Y67496D02*
Y77996D01*
X252442Y68496D02*
Y77996D01*
X232442Y66496D02*
Y77996D01*
X192442Y66496D02*
Y77996D01*
X172442Y67496D02*
Y77996D01*
X152442Y68496D02*
Y77996D01*
X132442Y67996D02*
Y77996D01*
X212442Y35720D02*
Y77996D01*
X383599Y417493D02*
X390264D01*
X386931D01*
Y407496D01*
X393596Y414160D02*
Y407496D01*
Y410828D01*
X395262Y412494D01*
X396928Y414160D01*
X398594D01*
X405259D02*
X408591D01*
X410257Y412494D01*
Y407496D01*
X405259D01*
X403593Y409162D01*
X405259Y410828D01*
X410257D01*
X415256Y407496D02*
Y415827D01*
Y412494D01*
X413589D01*
X416922D01*
X415256D01*
Y415827D01*
X416922Y417493D01*
X423586Y407496D02*
Y415827D01*
Y412494D01*
X421920D01*
X425252D01*
X423586D01*
Y415827D01*
X425252Y417493D01*
X430251Y407496D02*
X433583D01*
X431917D01*
Y414160D01*
X430251D01*
X445246D02*
X440248D01*
X438581Y412494D01*
Y409162D01*
X440248Y407496D01*
X445246D01*
X393265Y140031D02*
X391598Y141697D01*
X388266D01*
X386600Y140031D01*
Y138365D01*
X388266Y136698D01*
X391598D01*
X393265Y135032D01*
Y133366D01*
X391598Y131700D01*
X388266D01*
X386600Y133366D01*
X398263Y140031D02*
Y138365D01*
X396597D01*
X399929D01*
X398263D01*
Y133366D01*
X399929Y131700D01*
X409926D02*
X406594D01*
X404927Y133366D01*
Y136698D01*
X406594Y138365D01*
X409926D01*
X411592Y136698D01*
Y135032D01*
X404927D01*
X414924Y128368D02*
Y138365D01*
X419923D01*
X421589Y136698D01*
Y133366D01*
X419923Y131700D01*
X414924D01*
X424921Y128368D02*
Y138365D01*
X429919D01*
X431586Y136698D01*
Y133366D01*
X429919Y131700D01*
X424921D01*
X439916D02*
X436584D01*
X434918Y133366D01*
Y136698D01*
X436584Y138365D01*
X439916D01*
X441582Y136698D01*
Y135032D01*
X434918D01*
X444914Y138365D02*
Y131700D01*
Y135032D01*
X446581Y136698D01*
X448247Y138365D01*
X449913D01*
X386599Y257993D02*
Y247996D01*
X391598D01*
X393264Y249662D01*
Y256327D01*
X391598Y257993D01*
X386599D01*
X396596Y247996D02*
X399928D01*
X398262D01*
Y254661D01*
X396596D01*
X411591D02*
X406593D01*
X404927Y252994D01*
Y249662D01*
X406593Y247996D01*
X411591D01*
X419922D02*
X416589D01*
X414923Y249662D01*
Y252994D01*
X416589Y254661D01*
X419922D01*
X421588Y252994D01*
Y251328D01*
X414923D01*
X38385Y345831D02*
X36719Y347497D01*
X33387D01*
X31721Y345831D01*
Y339166D01*
X33387Y337500D01*
X36719D01*
X38385Y339166D01*
X41717Y337500D02*
X45050D01*
X43384D01*
Y347497D01*
X41717D01*
X51714Y337500D02*
X55047D01*
X56713Y339166D01*
Y342498D01*
X55047Y344164D01*
X51714D01*
X50048Y342498D01*
Y339166D01*
X51714Y337500D01*
X66710Y344164D02*
X61711D01*
X60045Y342498D01*
Y339166D01*
X61711Y337500D01*
X66710D01*
X70042D02*
Y347497D01*
Y340832D02*
X75040Y344164D01*
X70042Y340832D02*
X75040Y337500D01*
D16*
X429299Y235496D02*
X428948Y236345D01*
X428099Y236696D01*
X427251Y236345D01*
X426899Y235496D01*
X427251Y234647D01*
X428099Y234296D01*
X428948Y234647D01*
X429299Y235496D01*
X425900Y221200D02*
X425549Y222048D01*
X424700Y222400D01*
X423851Y222048D01*
X423500Y221200D01*
X423851Y220352D01*
X424700Y220000D01*
X425549Y220352D01*
X425900Y221200D01*
X432700Y203800D02*
X432348Y204648D01*
X431500Y205000D01*
X430652Y204648D01*
X430300Y203800D01*
X430652Y202952D01*
X431500Y202600D01*
X432348Y202952D01*
X432700Y203800D01*
X425900Y182811D02*
X425549Y183660D01*
X424700Y184011D01*
X423851Y183660D01*
X423500Y182811D01*
X423851Y181962D01*
X424700Y181611D01*
X425549Y181962D01*
X425900Y182811D01*
X432700Y214400D02*
X432348Y215248D01*
X431500Y215600D01*
X430652Y215248D01*
X430300Y214400D01*
X430652Y213551D01*
X431500Y213200D01*
X432348Y213551D01*
X432700Y214400D01*
X425900Y197000D02*
X425549Y197848D01*
X424700Y198200D01*
X423851Y197848D01*
X423500Y197000D01*
X423851Y196151D01*
X424700Y195800D01*
X425549Y196151D01*
X425900Y197000D01*
X432700Y182996D02*
X432348Y183844D01*
X431500Y184196D01*
X430652Y183844D01*
X430300Y182996D01*
X430652Y182148D01*
X431500Y181796D01*
X432348Y182148D01*
X432700Y182996D01*
D17*
X500896Y82227D02*
X501409Y83082D01*
X501870Y83967D01*
X502276Y84878D01*
X502626Y85812D01*
X502918Y86765D01*
X503152Y87735D01*
X503327Y88717D01*
X503442Y89708D01*
X503496Y90704D01*
X503489Y91701D01*
X503422Y92696D01*
X503295Y93685D01*
X503107Y94665D01*
X502861Y95632D01*
X502556Y96581D01*
X502194Y97511D01*
X501776Y98416D01*
X501304Y99295D01*
X500779Y100143D01*
X500204Y100958D01*
X499580Y101736D01*
X498911Y102475D01*
X498197Y103172D01*
X497442Y103825D01*
X496650Y104430D01*
X495821Y104986D01*
X494961Y105490D01*
X494071Y105941D01*
X493156Y106338D01*
X492218Y106678D01*
X491262Y106960D01*
X490290Y107184D01*
X489306Y107348D01*
X488314Y107452D01*
X487318Y107496D01*
X486320Y107479D01*
X485326Y107401D01*
X484338Y107263D01*
X483360Y107065D01*
X482397Y106809D01*
X481450Y106494D01*
X480525Y106122D01*
X479624Y105694D01*
X478750Y105213D01*
X477907Y104679D01*
X477099Y104095D01*
X476327Y103464D01*
X475595Y102786D01*
X474906Y102065D01*
X474262Y101304D01*
X473665Y100504D01*
X473118Y99670D01*
X472622Y98804D01*
X472181Y97910D01*
X471794Y96991D01*
X471464Y96050D01*
X471192Y95090D01*
X470978Y94116D01*
X470825Y93130D01*
X470731Y92137D01*
X470698Y91140D01*
X470726Y90143D01*
X470814Y89150D01*
X470962Y88163D01*
X471170Y87188D01*
X471437Y86227D01*
X471762Y85284D01*
X472144Y84362D01*
X472581Y83466D01*
X473072Y82597D01*
X473614Y81760D01*
X87792Y93548D02*
X86946Y93009D01*
X86150Y92398D01*
X85410Y91721D01*
X84732Y90981D01*
X84122Y90185D01*
X83582Y89339D01*
X83119Y88449D01*
X82735Y87522D01*
X82434Y86565D01*
X82216Y85586D01*
X82086Y84591D01*
X82042Y83589D01*
X82086Y82587D01*
X82216Y81592D01*
X82434Y80612D01*
X82735Y79656D01*
X83119Y78729D01*
X83582Y77839D01*
X84122Y76993D01*
X84732Y76197D01*
X85410Y75457D01*
X86150Y74779D01*
X86946Y74169D01*
X87792Y73630D01*
X88682Y73166D01*
X89609Y72782D01*
X90565Y72481D01*
X91545Y72264D01*
X92539Y72133D01*
X93542Y72089D01*
X94544Y72133D01*
X95539Y72264D01*
X96518Y72481D01*
X97475Y72782D01*
X98402Y73166D01*
X99292Y73630D01*
X100138Y74169D01*
X100934Y74779D01*
X101673Y75457D01*
X102351Y76197D01*
X102962Y76993D01*
X103501Y77839D01*
X103964Y78729D01*
X104348Y79656D01*
X104650Y80612D01*
X104867Y81592D01*
X104998Y82587D01*
X105042Y83589D01*
X104998Y84591D01*
X104867Y85586D01*
X104650Y86565D01*
X104348Y87522D01*
X103964Y88449D01*
X103501Y89339D01*
X102962Y90185D01*
X102351Y90981D01*
X101673Y91721D01*
X100934Y92398D01*
X100138Y93009D01*
X99292Y93548D01*
X150025Y353667D02*
X154925D01*
X150025Y331368D02*
Y353667D01*
X130025Y353668D02*
X140025D01*
Y331368D02*
Y353668D01*
X130025Y331868D02*
Y353668D01*
X93542Y83589D02*
Y97589D01*
X125883Y331868D02*
X130025D01*
X140025Y331368D02*
X150025D01*
D18*
X-1946Y60691D02*
Y95927D01*
X380101Y124300D02*
X392101D01*
X380101Y110100D02*
Y124300D01*
Y110100D02*
X392101D01*
Y124300D01*
X361495Y99114D02*
X373495D01*
X361495Y84914D02*
Y99114D01*
Y84914D02*
X373495D01*
Y99114D01*
X360842Y366096D02*
X372842D01*
X360842Y351896D02*
Y366096D01*
Y351896D02*
X372842D01*
Y366096D01*
X454899Y207695D02*
X466899D01*
X454899Y193495D02*
Y207695D01*
Y193495D02*
X466899D01*
Y207695D01*
X454899Y224695D02*
X466899D01*
X454899Y210495D02*
Y224695D01*
Y210495D02*
X466899D01*
Y224695D01*
X378800Y59100D02*
X390800D01*
X378800Y44900D02*
Y59100D01*
Y44900D02*
X390800D01*
Y59100D01*
X403300Y124300D02*
X415300D01*
X403300Y110100D02*
Y124300D01*
Y110100D02*
X415300D01*
Y124300D01*
X360842Y345596D02*
X372842D01*
X360842Y331396D02*
Y345596D01*
Y331396D02*
X372842D01*
Y345596D01*
X348542Y99096D02*
X360542D01*
X348542Y84896D02*
Y99096D01*
Y84896D02*
X360542D01*
Y99096D01*
X360442Y217096D02*
X372442D01*
X360442Y202896D02*
Y217096D01*
Y202896D02*
X372442D01*
Y217096D01*
X326942Y256596D02*
X338942D01*
X326942Y242396D02*
Y256596D01*
Y242396D02*
X338942D01*
Y256596D01*
X360842Y326096D02*
X372842D01*
X360842Y311896D02*
Y326096D01*
Y311896D02*
X372842D01*
Y326096D01*
X309442Y153096D02*
X321442D01*
X309442Y138896D02*
Y153096D01*
Y138896D02*
X321442D01*
Y153096D01*
X309442Y169596D02*
X321442D01*
X309442Y155396D02*
Y169596D01*
Y155396D02*
X321442D01*
Y169596D01*
X67760Y390772D02*
X79760D01*
X67760Y376572D02*
Y390772D01*
Y376572D02*
X79760D01*
Y390772D01*
X67760Y409329D02*
X79760D01*
X67760Y395129D02*
Y409329D01*
Y395129D02*
X79760D01*
Y409329D01*
X183342Y360096D02*
X195342D01*
X183342Y345896D02*
Y360096D01*
Y345896D02*
X195342D01*
Y360096D01*
X183342Y345396D02*
X195342D01*
X183342Y331196D02*
Y345396D01*
Y331196D02*
X195342D01*
Y345396D01*
X346146Y18476D02*
X350346Y14276D01*
X317539Y3516D02*
X346146D01*
X350346Y7716D02*
Y14276D01*
X346146Y3516D02*
X350346Y7716D01*
X313338D02*
X317538Y3516D01*
X313338Y14276D02*
X317538Y18476D01*
X313338Y7716D02*
Y14276D01*
X317538Y18476D02*
X346145D01*
X178413Y371905D02*
Y368906D01*
X177414Y369906D01*
X176414Y368906D01*
Y371905D01*
X175414Y369406D02*
X174915Y368906D01*
X173915D01*
X173415Y369406D01*
Y369906D01*
X173915Y370406D01*
X173415Y370906D01*
Y371406D01*
X173915Y371905D01*
X174915D01*
X175414Y371406D01*
Y370906D01*
X174915Y370406D01*
X175414Y369906D01*
Y369406D01*
X174915Y370406D02*
X173915D01*
X-18733Y160400D02*
Y163399D01*
X-17233D01*
X-16733Y162899D01*
Y161899D01*
X-17233Y161400D01*
X-18733D01*
X-17733D02*
X-16733Y160400D01*
X-14234D02*
Y163399D01*
X-15734Y161899D01*
X-13734D01*
X-10735Y163399D02*
X-12735D01*
Y161899D01*
X-11735Y162399D01*
X-11235D01*
X-10735Y161899D01*
Y160900D01*
X-11235Y160400D01*
X-12235D01*
X-12735Y160900D01*
X-18733Y166350D02*
Y169349D01*
X-17233D01*
X-16733Y168849D01*
Y167850D01*
X-17233Y167350D01*
X-18733D01*
X-17733D02*
X-16733Y166350D01*
X-14234D02*
Y169349D01*
X-15734Y167850D01*
X-13734D01*
X-11235Y166350D02*
Y169349D01*
X-12735Y167850D01*
X-10735D01*
X-18733Y171650D02*
Y174649D01*
X-17233D01*
X-16733Y174149D01*
Y173150D01*
X-17233Y172650D01*
X-18733D01*
X-17733D02*
X-16733Y171650D01*
X-14234D02*
Y174649D01*
X-15734Y173150D01*
X-13734D01*
X-12735Y174149D02*
X-12235Y174649D01*
X-11235D01*
X-10735Y174149D01*
Y173649D01*
X-11235Y173150D01*
X-11735D01*
X-11235D01*
X-10735Y172650D01*
Y172150D01*
X-11235Y171650D01*
X-12235D01*
X-12735Y172150D01*
X-18733Y177250D02*
Y180249D01*
X-17233D01*
X-16733Y179749D01*
Y178750D01*
X-17233Y178250D01*
X-18733D01*
X-17733D02*
X-16733Y177250D01*
X-14234D02*
Y180249D01*
X-15734Y178750D01*
X-13734D01*
X-10735Y177250D02*
X-12735D01*
X-10735Y179249D01*
Y179749D01*
X-11235Y180249D01*
X-12235D01*
X-12735Y179749D01*
X312547Y71494D02*
Y74493D01*
X314047D01*
X314547Y73993D01*
Y72993D01*
X314047Y72493D01*
X312547D01*
X313547D02*
X314547Y71494D01*
X317546D02*
X315546D01*
X317546Y73493D01*
Y73993D01*
X317046Y74493D01*
X316046D01*
X315546Y73993D01*
X318545D02*
X319045Y74493D01*
X320045D01*
X320545Y73993D01*
Y73493D01*
X320045Y72993D01*
X320545Y72493D01*
Y71993D01*
X320045Y71494D01*
X319045D01*
X318545Y71993D01*
Y72493D01*
X319045Y72993D01*
X318545Y73493D01*
Y73993D01*
X319045Y72993D02*
X320045D01*
X314580Y65095D02*
X314081Y65595D01*
X313081D01*
X312581Y65095D01*
Y63096D01*
X313081Y62596D01*
X314081D01*
X314580Y63096D01*
X315580Y65095D02*
X316080Y65595D01*
X317080D01*
X317580Y65095D01*
Y64595D01*
X317080Y64095D01*
X317580Y63596D01*
Y63096D01*
X317080Y62596D01*
X316080D01*
X315580Y63096D01*
Y63596D01*
X316080Y64095D01*
X315580Y64595D01*
Y65095D01*
X316080Y64095D02*
X317080D01*
X-18500Y293929D02*
Y296928D01*
X-17000D01*
X-16501Y296428D01*
Y295429D01*
X-17000Y294929D01*
X-18500D01*
X-17500D02*
X-16501Y293929D01*
X-15501Y296428D02*
X-15001Y296928D01*
X-14001D01*
X-13502Y296428D01*
Y295928D01*
X-14001Y295429D01*
X-14501D01*
X-14001D01*
X-13502Y294929D01*
Y294429D01*
X-14001Y293929D01*
X-15001D01*
X-15501Y294429D01*
X-12502D02*
X-12002Y293929D01*
X-11002D01*
X-10503Y294429D01*
Y296428D01*
X-11002Y296928D01*
X-12002D01*
X-12502Y296428D01*
Y295928D01*
X-12002Y295429D01*
X-10503D01*
X-18300Y291247D02*
Y288248D01*
X-16801D01*
X-16301Y288748D01*
Y290747D01*
X-16801Y291247D01*
X-18300D01*
X-15301Y287748D02*
X-13302D01*
X-12302Y288248D02*
Y291247D01*
X-10802D01*
X-10303Y290747D01*
Y289748D01*
X-10802Y289248D01*
X-12302D01*
X-8803Y290247D02*
X-7803D01*
X-7304Y289748D01*
Y288248D01*
X-8803D01*
X-9303Y288748D01*
X-8803Y289248D01*
X-7304D01*
X-6304Y288248D02*
X-4804D01*
X-4304Y288748D01*
X-4804Y289248D01*
X-5804D01*
X-6304Y289748D01*
X-5804Y290247D01*
X-4304D01*
X-3305Y288248D02*
X-1805D01*
X-1306Y288748D01*
X-1805Y289248D01*
X-2805D01*
X-3305Y289748D01*
X-2805Y290247D01*
X-1306D01*
X-18100Y272500D02*
Y275499D01*
X-16601D01*
X-16101Y274999D01*
Y274000D01*
X-16601Y273500D01*
X-18100D01*
X-17100D02*
X-16101Y272500D01*
X-13601D02*
Y275499D01*
X-15101Y274000D01*
X-13102D01*
X-12102Y272500D02*
X-11102D01*
X-11602D01*
Y275499D01*
X-12102Y274999D01*
X-18100Y269130D02*
Y266131D01*
X-16601D01*
X-16101Y266631D01*
Y268631D01*
X-16601Y269130D01*
X-18100D01*
X-15101Y265632D02*
X-13102D01*
X-10103Y269130D02*
X-12102D01*
Y267631D01*
X-11102D01*
X-12102D01*
Y266131D01*
X-8603Y268131D02*
X-7603D01*
X-7104Y267631D01*
Y266131D01*
X-8603D01*
X-9103Y266631D01*
X-8603Y267131D01*
X-7104D01*
X-6104Y266131D02*
X-5104D01*
X-5604D01*
Y268131D01*
X-6104D01*
X-3605Y266131D02*
X-2605D01*
X-3105D01*
Y269130D01*
X-3605D01*
X-18500Y249433D02*
Y252432D01*
X-17000D01*
X-16501Y251932D01*
Y250933D01*
X-17000Y250433D01*
X-18500D01*
X-17500D02*
X-16501Y249433D01*
X-15501Y251932D02*
X-15001Y252432D01*
X-14001D01*
X-13502Y251932D01*
Y251432D01*
X-14001Y250933D01*
X-14501D01*
X-14001D01*
X-13502Y250433D01*
Y249933D01*
X-14001Y249433D01*
X-15001D01*
X-15501Y249933D01*
X-12502Y252432D02*
X-10503D01*
Y251932D01*
X-12502Y249933D01*
Y249433D01*
X-18600Y147099D02*
X-16601D01*
Y146599D01*
X-18600Y144600D01*
Y144100D01*
X-16601D01*
X-15601D02*
X-14601D01*
X-15101D01*
Y147099D01*
X-15601Y146599D01*
X-13102Y144100D02*
X-12102D01*
X-12602D01*
Y147099D01*
X-13102Y146599D01*
X-18500Y230496D02*
Y233495D01*
X-17000D01*
X-16501Y232995D01*
Y231996D01*
X-17000Y231496D01*
X-18500D01*
X-15501Y230996D02*
X-15001Y230496D01*
X-14001D01*
X-13502Y230996D01*
Y232995D01*
X-14001Y233495D01*
X-15001D01*
X-15501Y232995D01*
Y232495D01*
X-15001Y231996D01*
X-13502D01*
X362100Y100500D02*
Y103499D01*
X363599D01*
X364099Y102999D01*
Y101999D01*
X363599Y101500D01*
X362100D01*
X363100D02*
X364099Y100500D01*
X365099D02*
Y103499D01*
X367098Y100500D01*
Y103499D01*
X368098Y100500D02*
X369098D01*
X368598D01*
Y103499D01*
X368098Y102999D01*
X372597Y103499D02*
X370597D01*
Y101999D01*
X371597Y102499D01*
X372097D01*
X372597Y101999D01*
Y101000D01*
X372097Y100500D01*
X371097D01*
X370597Y101000D01*
X133975Y412180D02*
X135975D01*
Y411680D01*
X133975Y409681D01*
Y409181D01*
X135975D01*
X138474D02*
Y412180D01*
X136974Y410681D01*
X138974D01*
X133975Y394180D02*
X135975D01*
Y393680D01*
X133975Y391681D01*
Y391181D01*
X135975D01*
X136974Y393680D02*
X137474Y394180D01*
X138474D01*
X138974Y393680D01*
Y393180D01*
X138474Y392681D01*
X137974D01*
X138474D01*
X138974Y392181D01*
Y391681D01*
X138474Y391181D01*
X137474D01*
X136974Y391681D01*
X361700Y367000D02*
Y369999D01*
X363199D01*
X363699Y369499D01*
Y368499D01*
X363199Y368000D01*
X361700D01*
X362700D02*
X363699Y367000D01*
X364699D02*
Y369999D01*
X366698Y367000D01*
Y369999D01*
X367698Y367000D02*
X368698D01*
X368198D01*
Y369999D01*
X367698Y369499D01*
X372197Y367000D02*
X370197D01*
X372197Y368999D01*
Y369499D01*
X371697Y369999D01*
X370697D01*
X370197Y369499D01*
X327542Y388595D02*
X329541D01*
Y388095D01*
X327542Y386096D01*
Y385596D01*
X329541D01*
X332540Y388595D02*
X330541D01*
Y387095D01*
X331540Y387595D01*
X332040D01*
X332540Y387095D01*
Y386096D01*
X332040Y385596D01*
X331041D01*
X330541Y386096D01*
X312539Y66827D02*
Y69826D01*
X314039D01*
X314539Y69326D01*
Y68326D01*
X314039Y67826D01*
X312539D01*
X313539D02*
X314539Y66827D01*
X315539Y69326D02*
X316038Y69826D01*
X317038D01*
X317538Y69326D01*
Y68826D01*
X317038Y68326D01*
X316538D01*
X317038D01*
X317538Y67826D01*
Y67326D01*
X317038Y66827D01*
X316038D01*
X315539Y67326D01*
X318537Y66827D02*
X319537D01*
X319037D01*
Y69826D01*
X318537Y69326D01*
X33068Y87495D02*
X31069D01*
Y85996D01*
X32068Y86495D01*
X32568D01*
X33068Y85996D01*
Y84996D01*
X32568Y84496D01*
X31568D01*
X31069Y84996D01*
X34067Y87495D02*
Y85496D01*
X35067Y84496D01*
X36067Y85496D01*
Y87495D01*
X324218Y77772D02*
Y80771D01*
X325718D01*
X326218Y80271D01*
Y79271D01*
X325718Y78771D01*
X324218D01*
X325218D02*
X326218Y77772D01*
X328717D02*
Y80771D01*
X327217Y79271D01*
X329217D01*
X330216Y80271D02*
X330716Y80771D01*
X331716D01*
X332216Y80271D01*
Y78272D01*
X331716Y77772D01*
X330716D01*
X330216Y78272D01*
Y80271D01*
X344442Y178995D02*
Y176496D01*
X344942Y175996D01*
X345941D01*
X346441Y176496D01*
Y178995D01*
X349440Y175996D02*
X347441D01*
X349440Y177995D01*
Y178495D01*
X348940Y178995D01*
X347941D01*
X347441Y178495D01*
X21768Y85395D02*
X21268Y85895D01*
X20268D01*
X19769Y85395D01*
Y83396D01*
X20268Y82896D01*
X21268D01*
X21768Y83396D01*
X22768Y82896D02*
X23767D01*
X23267D01*
Y85895D01*
X22768Y85395D01*
X25267D02*
X25767Y85895D01*
X26766D01*
X27266Y85395D01*
Y84895D01*
X26766Y84395D01*
X26266D01*
X26766D01*
X27266Y83896D01*
Y83396D01*
X26766Y82896D01*
X25767D01*
X25267Y83396D01*
X355242Y4196D02*
Y7195D01*
X356741D01*
X357241Y6695D01*
Y5695D01*
X356741Y5196D01*
X355242D01*
X356241D02*
X357241Y4196D01*
X358241Y6695D02*
X358741Y7195D01*
X359740D01*
X360240Y6695D01*
Y6195D01*
X359740Y5695D01*
X359240D01*
X359740D01*
X360240Y5196D01*
Y4696D01*
X359740Y4196D01*
X358741D01*
X358241Y4696D01*
X361240Y6695D02*
X361740Y7195D01*
X362739D01*
X363239Y6695D01*
Y6195D01*
X362739Y5695D01*
X363239Y5196D01*
Y4696D01*
X362739Y4196D01*
X361740D01*
X361240Y4696D01*
Y5196D01*
X361740Y5695D01*
X361240Y6195D01*
Y6695D01*
X361740Y5695D02*
X362739D01*
X34868Y59296D02*
X31870D01*
Y60795D01*
X32369Y61295D01*
X33369D01*
X33869Y60795D01*
Y59296D01*
Y60296D02*
X34868Y61295D01*
X32369Y62295D02*
X31870Y62795D01*
Y63794D01*
X32369Y64294D01*
X32869D01*
X33369Y63794D01*
Y63295D01*
Y63794D01*
X33869Y64294D01*
X34369D01*
X34868Y63794D01*
Y62795D01*
X34369Y62295D01*
X31870Y67293D02*
Y65294D01*
X33369D01*
X32869Y66294D01*
Y66794D01*
X33369Y67293D01*
X34369D01*
X34868Y66794D01*
Y65794D01*
X34369Y65294D01*
X43569Y61295D02*
X43069Y60795D01*
Y59796D01*
X43569Y59296D01*
X45569D01*
X46069Y59796D01*
Y60795D01*
X45569Y61295D01*
X46069Y62295D02*
Y63295D01*
Y62795D01*
X43069D01*
X43569Y62295D01*
X46069Y66794D02*
Y64794D01*
X44069Y66794D01*
X43569D01*
X43069Y66294D01*
Y65294D01*
X43569Y64794D01*
X64069Y74919D02*
X63569Y74420D01*
Y73420D01*
X64069Y72920D01*
X66069D01*
X66568Y73420D01*
Y74420D01*
X66069Y74919D01*
X66568Y75919D02*
Y76919D01*
Y76419D01*
X63569D01*
X64069Y75919D01*
X66568Y78418D02*
Y79418D01*
Y78918D01*
X63569D01*
X64069Y78418D01*
X44668Y100895D02*
X44168Y101395D01*
X43168D01*
X42669Y100895D01*
Y98896D01*
X43168Y98396D01*
X44168D01*
X44668Y98896D01*
X45667Y98396D02*
X46667D01*
X46167D01*
Y101395D01*
X45667Y100895D01*
X48167D02*
X48667Y101395D01*
X49666D01*
X50166Y100895D01*
Y98896D01*
X49666Y98396D01*
X48667D01*
X48167Y98896D01*
Y100895D01*
X1969Y71195D02*
X3968D01*
Y70695D01*
X1969Y68696D01*
Y68196D01*
X3968D01*
X4967Y68696D02*
X5467Y68196D01*
X6467D01*
X6967Y68696D01*
Y70695D01*
X6467Y71195D01*
X5467D01*
X4967Y70695D01*
Y70195D01*
X5467Y69696D01*
X6967D01*
X42169Y86395D02*
Y83896D01*
X42668Y83396D01*
X43668D01*
X44168Y83896D01*
Y86395D01*
X47167D02*
X46167Y85895D01*
X45167Y84895D01*
Y83896D01*
X45667Y83396D01*
X46667D01*
X47167Y83896D01*
Y84396D01*
X46667Y84895D01*
X45167D01*
X315441Y23176D02*
X314941Y23676D01*
X313942D01*
X313442Y23176D01*
Y21177D01*
X313942Y20677D01*
X314941D01*
X315441Y21177D01*
X316441D02*
X316941Y20677D01*
X317940D01*
X318440Y21177D01*
Y23176D01*
X317940Y23676D01*
X316941D01*
X316441Y23176D01*
Y22676D01*
X316941Y22177D01*
X318440D01*
X54068Y87495D02*
Y85496D01*
X55068Y84496D01*
X56068Y85496D01*
Y87495D01*
X59067D02*
Y84496D01*
X57567D01*
X57068Y84996D01*
Y85996D01*
X57567Y86495D01*
X59067D01*
X62066Y87495D02*
Y84496D01*
X60566D01*
X60067Y84996D01*
Y85996D01*
X60566Y86495D01*
X62066D01*
X57068Y55395D02*
X56568Y55895D01*
X55568D01*
X55068Y55395D01*
Y53396D01*
X55568Y52896D01*
X56568D01*
X57068Y53396D01*
Y54396D01*
X56068D01*
X58068Y52896D02*
Y54895D01*
X59567D01*
X60067Y54396D01*
Y52896D01*
X63066Y55895D02*
Y52896D01*
X61566D01*
X61067Y53396D01*
Y54396D01*
X61566Y54895D01*
X63066D01*
X348199Y284499D02*
X347699Y284999D01*
X346700D01*
X346200Y284499D01*
Y282500D01*
X346700Y282000D01*
X347699D01*
X348199Y282500D01*
Y283500D01*
X347200D01*
X349199Y282000D02*
Y283999D01*
X350698D01*
X351198Y283500D01*
Y282000D01*
X354197Y284999D02*
Y282000D01*
X352698D01*
X352198Y282500D01*
Y283500D01*
X352698Y283999D01*
X354197D01*
X334399Y284499D02*
X333899Y284999D01*
X332900D01*
X332400Y284499D01*
Y283999D01*
X332900Y283500D01*
X333899D01*
X334399Y283000D01*
Y282500D01*
X333899Y282000D01*
X332900D01*
X332400Y282500D01*
X337398Y284499D02*
X336898Y284999D01*
X335899D01*
X335399Y284499D01*
Y282500D01*
X335899Y282000D01*
X336898D01*
X337398Y282500D01*
X338398Y284999D02*
Y282000D01*
X340397D01*
X319399Y284499D02*
X318899Y284999D01*
X317900D01*
X317400Y284499D01*
Y283999D01*
X317900Y283500D01*
X318899D01*
X319399Y283000D01*
Y282500D01*
X318899Y282000D01*
X317900D01*
X317400Y282500D01*
X320399Y284999D02*
Y282000D01*
X321899D01*
X322398Y282500D01*
Y284499D01*
X321899Y284999D01*
X320399D01*
X323398Y282000D02*
Y283999D01*
X324398Y284999D01*
X325397Y283999D01*
Y282000D01*
Y283500D01*
X323398D01*
X298331Y115495D02*
Y112496D01*
X299831D01*
X300331Y112996D01*
Y113496D01*
X299831Y113996D01*
X298331D01*
X299831D01*
X300331Y114495D01*
Y114995D01*
X299831Y115495D01*
X298331D01*
X301330Y112496D02*
X302330D01*
X301830D01*
Y115495D01*
X301330Y114995D01*
X114958Y386956D02*
Y385957D01*
X115457Y385457D01*
X117457D01*
X117957Y385957D01*
Y386956D01*
X117457Y387456D01*
X115457D01*
X114958Y386956D01*
Y388456D02*
X117957D01*
Y390455D01*
X114958Y393454D02*
Y391455D01*
X117957D01*
Y393454D01*
X116457Y391455D02*
Y392455D01*
X114958Y394454D02*
X117957D01*
Y395953D01*
X117457Y396453D01*
X115457D01*
X114958Y395953D01*
Y394454D01*
X361700Y346300D02*
Y349299D01*
X363199D01*
X363699Y348799D01*
Y347799D01*
X363199Y347300D01*
X361700D01*
X362700D02*
X363699Y346300D01*
X364699D02*
Y349299D01*
X366698Y346300D01*
Y349299D01*
X367698Y346300D02*
X368698D01*
X368198D01*
Y349299D01*
X367698Y348799D01*
X372197Y349299D02*
X371197Y348799D01*
X370197Y347799D01*
Y346800D01*
X370697Y346300D01*
X371697D01*
X372197Y346800D01*
Y347300D01*
X371697Y347799D01*
X370197D01*
X358241Y20495D02*
X357741Y20995D01*
X356742D01*
X356242Y20495D01*
Y18496D01*
X356742Y17996D01*
X357741D01*
X358241Y18496D01*
X359241Y20995D02*
X361240D01*
Y20495D01*
X359241Y18496D01*
Y17996D01*
X326399Y27199D02*
X325900Y27699D01*
X324900D01*
X324400Y27199D01*
Y25200D01*
X324900Y24700D01*
X325900D01*
X326399Y25200D01*
X327399Y27199D02*
X327899Y27699D01*
X328899D01*
X329398Y27199D01*
Y26699D01*
X328899Y26199D01*
X328399D01*
X328899D01*
X329398Y25700D01*
Y25200D01*
X328899Y24700D01*
X327899D01*
X327399Y25200D01*
X314605Y77911D02*
X314105Y78411D01*
X313105D01*
X312606Y77911D01*
Y75912D01*
X313105Y75412D01*
X314105D01*
X314605Y75912D01*
X317604Y75412D02*
X315604D01*
X317604Y77411D01*
Y77911D01*
X317104Y78411D01*
X316104D01*
X315604Y77911D01*
X329242Y63511D02*
Y61012D01*
X329742Y60512D01*
X330741D01*
X331241Y61012D01*
Y63511D01*
X332241Y60512D02*
X333240D01*
X332741D01*
Y63511D01*
X332241Y63011D01*
X360042Y68895D02*
X362041D01*
Y68395D01*
X360042Y66396D01*
Y65896D01*
X362041D01*
X363041Y68395D02*
X363541Y68895D01*
X364540D01*
X365040Y68395D01*
Y67895D01*
X364540Y67396D01*
X365040Y66896D01*
Y66396D01*
X364540Y65896D01*
X363541D01*
X363041Y66396D01*
Y66896D01*
X363541Y67396D01*
X363041Y67895D01*
Y68395D01*
X363541Y67396D02*
X364540D01*
X349042Y100600D02*
Y103599D01*
X350541D01*
X351041Y103099D01*
Y102100D01*
X350541Y101600D01*
X349042D01*
X350041D02*
X351041Y100600D01*
X352041D02*
Y103599D01*
X354040Y100600D01*
Y103599D01*
X355040Y100600D02*
X356040D01*
X355540D01*
Y103599D01*
X355040Y103099D01*
X357539D02*
X358039Y103599D01*
X359038D01*
X359538Y103099D01*
Y102599D01*
X359038Y102100D01*
X358539D01*
X359038D01*
X359538Y101600D01*
Y101100D01*
X359038Y100600D01*
X358039D01*
X357539Y101100D01*
X-15282Y102776D02*
Y100277D01*
X-14783Y99777D01*
X-13783D01*
X-13283Y100277D01*
Y102776D01*
X-10284Y102277D02*
X-10784Y102776D01*
X-11784D01*
X-12284Y102277D01*
Y101777D01*
X-11784Y101277D01*
X-10784D01*
X-10284Y100777D01*
Y100277D01*
X-10784Y99777D01*
X-11784D01*
X-12284Y100277D01*
X-9284Y102776D02*
Y99777D01*
X-7785D01*
X-7285Y100277D01*
Y100777D01*
X-7785Y101277D01*
X-9284D01*
X-7785D01*
X-7285Y101777D01*
Y102277D01*
X-7785Y102776D01*
X-9284D01*
X-6285Y99777D02*
X-5286D01*
X-5786D01*
Y102776D01*
X-6285Y102277D01*
X5336Y57802D02*
Y60800D01*
X6836D01*
X7336Y60301D01*
Y59301D01*
X6836Y58801D01*
X5336D01*
X6336D02*
X7336Y57802D01*
X8335Y60301D02*
X8835Y60800D01*
X9835D01*
X10335Y60301D01*
Y59801D01*
X9835Y59301D01*
X9335D01*
X9835D01*
X10335Y58801D01*
Y58301D01*
X9835Y57802D01*
X8835D01*
X8335Y58301D01*
X11334Y60301D02*
X11834Y60800D01*
X12834D01*
X13334Y60301D01*
Y58301D01*
X12834Y57802D01*
X11834D01*
X11334Y58301D01*
Y60301D01*
X3568Y93548D02*
Y96547D01*
X5068D01*
X5568Y96047D01*
Y95048D01*
X5068Y94548D01*
X3568D01*
X4568D02*
X5568Y93548D01*
X8567D02*
X6567D01*
X8567Y95548D01*
Y96047D01*
X8067Y96547D01*
X7067D01*
X6567Y96047D01*
X9567Y94048D02*
X10066Y93548D01*
X11066D01*
X11566Y94048D01*
Y96047D01*
X11066Y96547D01*
X10066D01*
X9567Y96047D01*
Y95548D01*
X10066Y95048D01*
X11566D01*
X21568Y100895D02*
X19568D01*
Y99396D01*
X20568D01*
X19568D01*
Y97896D01*
X22568D02*
X23567D01*
X23067D01*
Y100895D01*
X22568Y100395D01*
X154390Y414491D02*
X153890Y414991D01*
X152890D01*
X152391Y414491D01*
Y412492D01*
X152890Y411992D01*
X153890D01*
X154390Y412492D01*
X157389Y414991D02*
X156389Y414491D01*
X155390Y413491D01*
Y412492D01*
X155889Y411992D01*
X156889D01*
X157389Y412492D01*
Y412992D01*
X156889Y413491D01*
X155390D01*
X341242Y264295D02*
Y261796D01*
X341742Y261296D01*
X342741D01*
X343241Y261796D01*
Y264295D01*
X346240D02*
X344241D01*
Y262795D01*
X345240Y263295D01*
X345740D01*
X346240Y262795D01*
Y261796D01*
X345740Y261296D01*
X344741D01*
X344241Y261796D01*
X354264Y269024D02*
X353764Y269524D01*
X352764D01*
X352265Y269024D01*
Y267025D01*
X352764Y266525D01*
X353764D01*
X354264Y267025D01*
X357263Y269524D02*
X355264D01*
Y268025D01*
X356263Y268524D01*
X356763D01*
X357263Y268025D01*
Y267025D01*
X356763Y266525D01*
X355763D01*
X355264Y267025D01*
X347858Y223695D02*
X349858D01*
Y223195D01*
X347858Y221196D01*
Y220696D01*
X349858D01*
X350857Y223695D02*
X352857D01*
Y223195D01*
X350857Y221196D01*
Y220696D01*
X362618Y217794D02*
Y220793D01*
X364118D01*
X364618Y220293D01*
Y219294D01*
X364118Y218794D01*
X362618D01*
X363618D02*
X364618Y217794D01*
X365617D02*
Y220793D01*
X367617Y217794D01*
Y220793D01*
X368617Y218294D02*
X369116Y217794D01*
X370116D01*
X370616Y218294D01*
Y220293D01*
X370116Y220793D01*
X369116D01*
X368617Y220293D01*
Y219794D01*
X369116Y219294D01*
X370616D01*
X328942Y257888D02*
Y260887D01*
X330441D01*
X330941Y260387D01*
Y259388D01*
X330441Y258888D01*
X328942D01*
X329941D02*
X330941Y257888D01*
X331941D02*
Y260887D01*
X333940Y257888D01*
Y260887D01*
X334940D02*
X336939D01*
Y260387D01*
X334940Y258388D01*
Y257888D01*
X327442Y409101D02*
X329441D01*
Y408602D01*
X327442Y406602D01*
Y406102D01*
X329441D01*
X332440Y409101D02*
X331440Y408602D01*
X330441Y407602D01*
Y406602D01*
X330941Y406102D01*
X331940D01*
X332440Y406602D01*
Y407102D01*
X331940Y407602D01*
X330441D01*
X347058Y410495D02*
Y407996D01*
X347558Y407496D01*
X348558D01*
X349058Y407996D01*
Y410495D01*
X351557Y407496D02*
Y410495D01*
X350057Y408995D01*
X352057D01*
X361800Y326800D02*
Y329799D01*
X363299D01*
X363799Y329299D01*
Y328299D01*
X363299Y327800D01*
X361800D01*
X362800D02*
X363799Y326800D01*
X364799D02*
Y329799D01*
X366798Y326800D01*
Y329799D01*
X367798Y326800D02*
X368798D01*
X368298D01*
Y329799D01*
X367798Y329299D01*
X370297Y326800D02*
X371297D01*
X370797D01*
Y329799D01*
X370297Y329299D01*
X359441Y417595D02*
X358941Y418095D01*
X357942D01*
X357442Y417595D01*
Y415596D01*
X357942Y415096D01*
X358941D01*
X359441Y415596D01*
X361940Y415096D02*
Y418095D01*
X360441Y416596D01*
X362440D01*
X360148Y184363D02*
X359649Y184863D01*
X358649D01*
X358149Y184363D01*
Y182364D01*
X358649Y181864D01*
X359649D01*
X360148Y182364D01*
X361148Y181864D02*
X362148D01*
X361648D01*
Y184863D01*
X361148Y184363D01*
X310200Y170497D02*
Y173496D01*
X311700D01*
X312199Y172996D01*
Y171996D01*
X311700Y171496D01*
X310200D01*
X311200D02*
X312199Y170497D01*
X313199D02*
Y173496D01*
X315198Y170497D01*
Y173496D01*
X318197Y170497D02*
X316198D01*
X318197Y172496D01*
Y172996D01*
X317698Y173496D01*
X316698D01*
X316198Y172996D01*
X310200Y174796D02*
Y177795D01*
X311700D01*
X312199Y177295D01*
Y176295D01*
X311700Y175796D01*
X310200D01*
X311200D02*
X312199Y174796D01*
X313199D02*
Y177795D01*
X315198Y174796D01*
Y177795D01*
X316198Y174796D02*
X317198D01*
X316698D01*
Y177795D01*
X316198Y177295D01*
X329942Y155995D02*
X331941D01*
Y155495D01*
X329942Y153496D01*
Y152996D01*
X331941D01*
X332941D02*
X333940D01*
X333441D01*
Y155995D01*
X332941Y155495D01*
X329442Y174070D02*
X331441D01*
Y173570D01*
X329442Y171571D01*
Y171071D01*
X331441D01*
X334440D02*
X332441D01*
X334440Y173070D01*
Y173570D01*
X333940Y174070D01*
X332941D01*
X332441Y173570D01*
X160695Y377995D02*
Y375496D01*
X161195Y374996D01*
X162195D01*
X162695Y375496D01*
Y377995D01*
X163694Y377495D02*
X164194Y377995D01*
X165194D01*
X165694Y377495D01*
Y376995D01*
X165194Y376496D01*
X164694D01*
X165194D01*
X165694Y375996D01*
Y375496D01*
X165194Y374996D01*
X164194D01*
X163694Y375496D01*
X370263Y10928D02*
Y10428D01*
X371262Y9429D01*
X372262Y10428D01*
Y10928D01*
X371262Y9429D02*
Y7929D01*
X373262D02*
X374261D01*
X373762D01*
Y10928D01*
X373262Y10428D01*
X69400Y391424D02*
Y394423D01*
X70899D01*
X71399Y393923D01*
Y392923D01*
X70899Y392423D01*
X69400D01*
X70400D02*
X71399Y391424D01*
X72399D02*
Y394423D01*
X74398Y391424D01*
Y394423D01*
X75398Y393923D02*
X75898Y394423D01*
X76898D01*
X77397Y393923D01*
Y393423D01*
X76898Y392923D01*
X76398D01*
X76898D01*
X77397Y392423D01*
Y391924D01*
X76898Y391424D01*
X75898D01*
X75398Y391924D01*
X69442Y409920D02*
Y412919D01*
X70941D01*
X71441Y412419D01*
Y411419D01*
X70941Y410919D01*
X69442D01*
X70441D02*
X71441Y409920D01*
X72441D02*
Y412919D01*
X74440Y409920D01*
Y412919D01*
X76939Y409920D02*
Y412919D01*
X75440Y411419D01*
X77439D01*
X333007Y19600D02*
Y22599D01*
X334506D01*
X335006Y22099D01*
Y21100D01*
X334506Y20600D01*
X333007D01*
X336006Y22099D02*
X336506Y22599D01*
X337505D01*
X338005Y22099D01*
Y21599D01*
X337505Y21100D01*
X338005Y20600D01*
Y20100D01*
X337505Y19600D01*
X336506D01*
X336006Y20100D01*
Y20600D01*
X336506Y21100D01*
X336006Y21599D01*
Y22099D01*
X336506Y21100D02*
X337505D01*
X323371Y346696D02*
Y349695D01*
X324870D01*
X325370Y349195D01*
Y348196D01*
X324870Y347696D01*
X323371D01*
X324371D02*
X325370Y346696D01*
X326370D02*
X327370D01*
X326870D01*
Y349695D01*
X326370Y349195D01*
X323542Y332396D02*
Y335395D01*
X325041D01*
X325541Y334895D01*
Y333895D01*
X325041Y333396D01*
X323542D01*
X324541D02*
X325541Y332396D01*
X328540D02*
X326541D01*
X328540Y334395D01*
Y334895D01*
X328040Y335395D01*
X327041D01*
X326541Y334895D01*
D19*
X-28715Y95545D02*
X-27337D01*
X-28715Y60309D02*
Y95545D01*
Y60309D02*
X-27337D01*
D20*
X274442Y350496D02*
Y373558D01*
X264442Y350496D02*
Y378559D01*
X254442Y350496D02*
Y383559D01*
X259442Y388559D02*
Y404996D01*
X274442Y388559D02*
Y404996D01*
X289442Y388559D02*
Y404996D01*
X304442Y388559D02*
Y404996D01*
X284442Y368558D02*
X304442Y388558D01*
X284442Y349996D02*
Y368558D01*
X264442Y378559D02*
X274442Y388559D01*
Y373559D02*
X289442Y388559D01*
X274442Y373558D02*
Y373559D01*
X254442Y383559D02*
X259442Y388559D01*
X229442D02*
X234442Y383559D01*
X214442Y373558D02*
Y373559D01*
X199442Y388559D02*
X214442Y373559D01*
Y388559D02*
X224442Y378559D01*
X329660Y122996D02*
X333542D01*
X329660Y132996D02*
X333542D01*
X329660Y307985D02*
X333542D01*
X329660Y297985D02*
X333542D01*
X458099Y278996D02*
Y398996D01*
X419599Y317496D02*
X539599D01*
X501099Y278996D02*
Y398996D01*
X419599Y360496D02*
X539599Y360496D01*
X304442Y34996D02*
Y56496D01*
X292442Y68496D02*
X304442Y56496D01*
X281442Y35996D02*
Y58496D01*
X272442Y67496D02*
X281442Y58496D01*
X258442Y35996D02*
Y62496D01*
X252442Y68496D02*
X258442Y62496D01*
X235442Y35996D02*
Y63496D01*
X232442Y66496D02*
X235442Y63496D01*
X189442D02*
X192442Y66496D01*
X189442Y35996D02*
Y63496D01*
X166442Y61496D02*
X172442Y67496D01*
X166442Y35996D02*
Y61496D01*
X143442Y59496D02*
X152442Y68496D01*
X143442Y35996D02*
Y59496D01*
X120442Y55996D02*
X132442Y67996D01*
X120442Y34996D02*
Y55996D01*
X204442Y349996D02*
Y368558D01*
X184442Y388558D02*
X204442Y368558D01*
X184442Y388559D02*
Y404996D01*
X199442Y388559D02*
Y404996D01*
X214442Y388559D02*
Y404996D01*
X229442Y388559D02*
Y404996D01*
X234442Y350496D02*
Y383559D01*
X224442Y350496D02*
Y378559D01*
X214442Y350496D02*
Y373558D01*
X244442Y350496D02*
Y405081D01*
D21*
X86721Y332500D02*
Y352500D01*
X116721Y332500D02*
Y352500D01*
X86721Y332500D02*
X116721D01*
X86721Y352500D02*
X116721D01*
X86721D02*
X105887D01*
X-38433Y185496D02*
X-28433D01*
X-38433D02*
Y245496D01*
X-28433D01*
Y185496D02*
Y245496D01*
X329942Y292996D02*
Y312996D01*
X309942D02*
X329942D01*
X309942Y292996D02*
X329942D01*
X309942D02*
Y312996D01*
Y117996D02*
Y137996D01*
Y117996D02*
X329942D01*
X309942Y137996D02*
X329942D01*
Y117996D02*
Y137996D01*
X376599Y109496D02*
X396599D01*
X376599Y69496D02*
X396599D01*
X376599D02*
Y109496D01*
X396599Y69496D02*
Y109496D01*
Y188996D02*
Y228996D01*
X376599Y188996D02*
Y228996D01*
Y188996D02*
X396599D01*
X376599Y228996D02*
X396599D01*
X376598Y378996D02*
X396598D01*
Y298996D02*
Y378996D01*
X376598Y298996D02*
Y378996D01*
Y298996D02*
X396598D01*
X212442Y77996D02*
Y97996D01*
X292442D01*
X212442Y77996D02*
X292442D01*
Y97996D01*
X212442Y77996D02*
Y97996D01*
X132442Y77996D02*
X212442D01*
X132442Y97996D02*
X212442D01*
X132442Y77996D02*
Y97996D01*
X204442Y332500D02*
Y352500D01*
X284442D01*
X204442Y332500D02*
X284442D01*
Y352500D01*
X-33800Y159333D02*
Y163467D01*
Y164833D02*
Y168967D01*
Y170333D02*
Y174467D01*
Y175833D02*
Y179967D01*
X317000Y50533D02*
Y54667D01*
X-42500Y293929D02*
Y298063D01*
X-43000Y271533D02*
Y275667D01*
X-31000Y249433D02*
Y253567D01*
X317000Y45633D02*
Y49767D01*
X328400Y71889D02*
Y76023D01*
X502532Y297177D02*
X506666D01*
X507532D02*
X511666D01*
X512532D02*
X516666D01*
X494099Y283429D02*
Y287563D01*
X521418Y361929D02*
Y366063D01*
Y366929D02*
Y371063D01*
Y371929D02*
Y376063D01*
X424032Y324496D02*
X428166D01*
X358942Y7929D02*
Y12063D01*
X36202Y63396D02*
X40335D01*
X123733Y343000D02*
X127867D01*
X1500Y377433D02*
Y381567D01*
Y372433D02*
Y376567D01*
X142933Y343000D02*
X147067D01*
X107675Y72896D02*
X111809D01*
X7068Y62329D02*
Y66463D01*
Y87542D02*
Y91676D01*
X131942Y40429D02*
Y44563D01*
X154942Y40429D02*
Y44563D01*
X177942Y40429D02*
Y44563D01*
X200942Y40429D02*
Y44563D01*
X223942Y40429D02*
Y44563D01*
X246942Y40429D02*
Y44563D01*
X269942Y40429D02*
Y44563D01*
X292942Y40429D02*
Y44563D01*
X192095Y405828D02*
Y409962D01*
X207095Y405828D02*
Y409962D01*
X222095Y405828D02*
Y409962D01*
X237095Y405828D02*
Y409962D01*
X252095Y405828D02*
Y409962D01*
X267095Y405828D02*
Y409962D01*
X282095Y405828D02*
Y409962D01*
X297095Y405828D02*
Y409962D01*
X325542Y341329D02*
Y345463D01*
Y336429D02*
Y340563D01*
X21568Y90443D02*
Y96349D01*
X317000Y40832D02*
Y44769D01*
X118832Y343000D02*
X122768D01*
X20300Y74296D02*
X24237D01*
X47915Y63396D02*
X51852D01*
X313973Y30177D02*
X317910D01*
X358942Y13127D02*
Y17064D01*
X318973Y30177D02*
X322910D01*
X317000Y56827D02*
Y60764D01*
X163724Y408028D02*
Y411965D01*
X354442Y261127D02*
Y265065D01*
X359742Y409427D02*
Y413365D01*
X362042Y175828D02*
Y179764D01*
X55616Y76396D02*
X61521D01*
X46668Y90443D02*
Y96349D01*
X-49398Y266131D02*
Y270069D01*
X-43000Y266131D02*
Y270069D01*
X502631Y303598D02*
X506568D01*
X502631Y309996D02*
X506568D01*
X508599Y362028D02*
Y365965D01*
X514997Y362028D02*
Y365965D01*
X503131Y215394D02*
X507068D01*
X503131Y208996D02*
X507068D01*
X483131Y228996D02*
X487068D01*
X483131Y235394D02*
X487068D01*
X523131Y195394D02*
X527068D01*
X523131Y188996D02*
X527068D01*
X523131Y228996D02*
X527068D01*
X523131Y235394D02*
X527068D01*
X483131Y195394D02*
X487068D01*
X483131Y188996D02*
X487068D01*
X483131Y208996D02*
X487068D01*
X483131Y215394D02*
X487068D01*
X523131D02*
X527068D01*
X523131Y208996D02*
X527068D01*
X487099Y127128D02*
Y131064D01*
X480702Y127128D02*
Y131064D01*
X461575Y122511D02*
X463543Y119101D01*
X467115Y125710D02*
X469083Y122300D01*
X452486Y111080D02*
X455895Y109112D01*
X449287Y105540D02*
X452696Y103571D01*
X447131Y84698D02*
X451068D01*
X447131Y91096D02*
X451068D01*
X452486Y69512D02*
X455895Y71480D01*
X455684Y63971D02*
X459094Y65940D01*
X472655Y53283D02*
X474624Y56693D01*
X467115Y56482D02*
X469083Y59892D01*
X487099Y51127D02*
Y55064D01*
X493497Y51127D02*
Y55064D01*
X510655Y63091D02*
X512624Y59681D01*
X505115Y59892D02*
X507083Y56482D01*
X518303Y73080D02*
X521713Y71112D01*
X521502Y78621D02*
X524912Y76652D01*
X523131Y97494D02*
X527068D01*
X523131Y91096D02*
X527068D01*
X518303Y109112D02*
X521713Y111080D01*
X515105Y114652D02*
X518514Y116621D01*
X499575Y125499D02*
X501543Y128909D01*
X505115Y122300D02*
X507084Y125710D01*
X133031Y343000D02*
X136969D01*
X133031Y349398D02*
X136969D01*
X87144Y76613D02*
Y80550D01*
X93542Y76613D02*
Y80550D01*
X223942Y45527D02*
Y49464D01*
X217544Y45527D02*
Y49464D01*
X125544Y45527D02*
Y49464D01*
X131942Y45527D02*
Y49464D01*
X192095Y410926D02*
Y414863D01*
X185698Y410926D02*
Y414863D01*
X200698Y410926D02*
Y414863D01*
X207095Y410926D02*
Y414863D01*
X222095Y410926D02*
Y414863D01*
X215698Y410926D02*
Y414863D01*
X230698Y410926D02*
Y414863D01*
X237095Y410926D02*
Y414863D01*
X252095Y410926D02*
Y414863D01*
X245698Y410926D02*
Y414863D01*
X260698Y410926D02*
Y414863D01*
X267095Y410926D02*
Y414863D01*
X282095Y410926D02*
Y414863D01*
X275698Y410926D02*
Y414863D01*
X290698Y410926D02*
Y414863D01*
X297095Y410926D02*
Y414863D01*
X154942Y45527D02*
Y49464D01*
X148544Y45527D02*
Y49464D01*
X171544Y45527D02*
Y49464D01*
X177942Y45527D02*
Y49464D01*
X200942Y45527D02*
Y49464D01*
X194544Y45527D02*
Y49464D01*
X240544Y45527D02*
Y49464D01*
X246942Y45527D02*
Y49464D01*
X269942Y45527D02*
Y49464D01*
X263544Y45527D02*
Y49464D01*
X286544Y45449D02*
Y49386D01*
X292942Y45449D02*
Y49386D01*
X-42500Y288248D02*
Y292185D01*
X-48898Y288248D02*
Y292185D01*
X512631Y309996D02*
X516568D01*
X512631Y303598D02*
X516568D01*
X514997Y372027D02*
Y375964D01*
X508599Y372027D02*
Y375964D01*
X495631Y295496D02*
X499568D01*
X495631Y289098D02*
X499568D01*
X429702Y319027D02*
Y322965D01*
X436099Y319027D02*
Y322965D01*
X378363Y19405D02*
Y20586D01*
X368520Y19504D02*
Y20685D01*
X507631Y309996D02*
X511568D01*
X507631Y303598D02*
X511568D01*
X508599Y367027D02*
Y370965D01*
X514997Y367027D02*
Y370965D01*
D22*
X-32800Y140698D02*
Y152902D01*
X-35800Y140698D02*
Y152902D01*
Y140698D02*
X-32800D01*
X-35800Y152902D02*
X-32800D01*
X157500Y341102D02*
X160500D01*
X157500Y328898D02*
X160500D01*
X157500D02*
Y341102D01*
X160500Y328898D02*
Y341102D01*
X137742Y395894D02*
Y408098D01*
X134742Y395894D02*
Y408098D01*
Y395894D02*
X137742D01*
X134742Y408098D02*
X137742D01*
X134742Y390098D02*
X137742D01*
X134742Y377894D02*
X137742D01*
X134742D02*
Y390098D01*
X137742Y377894D02*
Y390098D01*
X331442Y371894D02*
Y384098D01*
X328442Y371894D02*
Y384098D01*
Y371894D02*
X331442D01*
X328442Y384098D02*
X331442D01*
X8068Y83498D02*
X11068D01*
X8068Y71294D02*
X11068D01*
X8068D02*
Y83498D01*
X11068Y71294D02*
Y83498D01*
X364042Y70494D02*
Y82698D01*
X361042Y70494D02*
Y82698D01*
Y70494D02*
X364042D01*
X361042Y82698D02*
X364042D01*
X348394Y218716D02*
X351395D01*
X348394Y206511D02*
X351395D01*
X348394D02*
Y218716D01*
X351395Y206511D02*
Y218716D01*
X331442Y391794D02*
Y403998D01*
X328442Y391794D02*
Y403998D01*
Y391794D02*
X331442D01*
X328442Y403998D02*
X331442D01*
X330142Y151598D02*
X333142D01*
X330142Y139394D02*
X333142D01*
X330142D02*
Y151598D01*
X333142Y139394D02*
Y151598D01*
X333142Y157209D02*
Y169414D01*
X330142Y157209D02*
Y169414D01*
Y157209D02*
X333142D01*
X330142Y169414D02*
X333142D01*
X347858Y231904D02*
Y257888D01*
X362425Y231904D02*
Y257888D01*
X347858D02*
X362425D01*
X347858Y231904D02*
X362425D01*
X156758Y380004D02*
Y405988D01*
X171325Y380004D02*
Y405988D01*
X156758D02*
X171325D01*
X156758Y380004D02*
X171325D01*
X351058Y141445D02*
Y172547D01*
X365625Y141445D02*
Y172547D01*
X351058D02*
X365625D01*
X351058Y141445D02*
X365625D01*
X347058Y375000D02*
X361625D01*
X347058Y406102D02*
X361625D01*
Y375000D02*
Y406102D01*
X347058Y375000D02*
Y406102D01*
X43005Y82498D02*
X45761D01*
X43005Y70294D02*
X45761D01*
X43005D02*
Y82498D01*
X45761Y70294D02*
Y82498D01*
X336509Y33563D02*
Y54429D01*
X357375Y33563D02*
Y54429D01*
X336509D02*
X357375D01*
X336509Y33563D02*
X357375D01*
D23*
X307619Y4213D02*
Y429134D01*
X375984Y268996D02*
X543307D01*
X375042Y35795D02*
X375042Y429134D01*
X375984Y149996D02*
X543307D01*
X375042Y35795D02*
X543307Y35795D01*
X181242Y325000D02*
Y429134D01*
X115442Y4244D02*
Y103996D01*
D24*
X187248Y155371D02*
X184624D01*
X185936D01*
Y148812D01*
X184624Y147500D01*
X183312D01*
X182000Y148812D01*
X189872Y155371D02*
Y147500D01*
X195119D01*
X202991Y154060D02*
X201679Y155371D01*
X199055D01*
X197743Y154060D01*
Y148812D01*
X199055Y147500D01*
X201679D01*
X202991Y148812D01*
X210862Y155371D02*
X208238D01*
X209550D01*
Y148812D01*
X208238Y147500D01*
X206926D01*
X205614Y148812D01*
X213486Y155371D02*
Y147500D01*
X218734D01*
X226605Y154060D02*
X225293Y155371D01*
X222669D01*
X221357Y154060D01*
Y148812D01*
X222669Y147500D01*
X225293D01*
X226605Y148812D01*
X234476Y155371D02*
X231853D01*
X233165D01*
Y148812D01*
X231853Y147500D01*
X230541D01*
X229229Y148812D01*
X237100Y155371D02*
Y147500D01*
X242348D01*
X250219Y154060D02*
X248908Y155371D01*
X246284D01*
X244972Y154060D01*
Y148812D01*
X246284Y147500D01*
X248908D01*
X250219Y148812D01*
X258091Y155371D02*
X255467D01*
X256779D01*
Y148812D01*
X255467Y147500D01*
X254155D01*
X252843Y148812D01*
X260715Y155371D02*
Y147500D01*
X265962D01*
X273834Y154060D02*
X272522Y155371D01*
X269898D01*
X268586Y154060D01*
Y148812D01*
X269898Y147500D01*
X272522D01*
X273834Y148812D01*
D25*
X-53500Y279500D02*
Y285498D01*
X-50501D01*
X-49501Y284498D01*
Y282499D01*
X-50501Y281499D01*
X-53500D01*
X-46502Y283499D02*
X-44503D01*
X-43503Y282499D01*
Y279500D01*
X-46502D01*
X-47502Y280500D01*
X-46502Y281499D01*
X-43503D01*
X-41504Y279500D02*
X-38505D01*
X-37505Y280500D01*
X-38505Y281499D01*
X-40504D01*
X-41504Y282499D01*
X-40504Y283499D01*
X-37505D01*
X-35506Y279500D02*
X-32507D01*
X-31507Y280500D01*
X-32507Y281499D01*
X-34506D01*
X-35506Y282499D01*
X-34506Y283499D01*
X-31507D01*
X-48001Y261998D02*
X-52000D01*
Y258999D01*
X-50001D01*
X-52000D01*
Y256000D01*
X-45002Y259999D02*
X-43003D01*
X-42003Y258999D01*
Y256000D01*
X-45002D01*
X-46002Y257000D01*
X-45002Y257999D01*
X-42003D01*
X-40004Y256000D02*
X-38004D01*
X-39004D01*
Y259999D01*
X-40004D01*
X-35006Y256000D02*
X-33006D01*
X-34006D01*
Y261998D01*
X-35006D01*
X-57279Y193266D02*
X-53281D01*
X-55280D01*
Y187268D01*
X-51281D02*
Y193266D01*
X-49282Y191266D01*
X-47283Y193266D01*
Y187268D01*
X-41285Y192266D02*
X-42284Y193266D01*
X-44284D01*
X-45283Y192266D01*
Y191266D01*
X-44284Y190267D01*
X-42284D01*
X-41285Y189267D01*
Y188267D01*
X-42284Y187268D01*
X-44284D01*
X-45283Y188267D01*
X-57279Y203266D02*
X-53281D01*
X-55280D01*
Y197268D01*
X-51281Y203266D02*
Y197268D01*
X-48282D01*
X-47283Y198267D01*
Y202266D01*
X-48282Y203266D01*
X-51281D01*
X-45283D02*
X-43284D01*
X-44284D01*
Y197268D01*
X-45283D01*
X-43284D01*
X-57279Y213266D02*
X-53281D01*
X-55280D01*
Y207268D01*
X-51281Y213266D02*
Y207268D01*
X-48282D01*
X-47283Y208267D01*
Y212266D01*
X-48282Y213266D01*
X-51281D01*
X-42284D02*
X-44284D01*
X-45283Y212266D01*
Y208267D01*
X-44284Y207268D01*
X-42284D01*
X-41285Y208267D01*
Y212266D01*
X-42284Y213266D01*
X-57279Y223266D02*
X-53281D01*
X-55280D01*
Y217268D01*
X-47283Y222266D02*
X-48282Y223266D01*
X-50282D01*
X-51281Y222266D01*
Y218267D01*
X-50282Y217268D01*
X-48282D01*
X-47283Y218267D01*
X-45283Y223266D02*
Y217268D01*
Y219267D01*
X-41285Y223266D01*
X-44284Y220267D01*
X-41285Y217268D01*
X-53281Y232266D02*
X-54281Y233266D01*
X-56280D01*
X-57279Y232266D01*
Y228267D01*
X-56280Y227268D01*
X-54281D01*
X-53281Y228267D01*
Y230267D01*
X-55280D01*
X-51281Y227268D02*
Y233266D01*
X-47283Y227268D01*
Y233266D01*
X-45283D02*
Y227268D01*
X-42284D01*
X-41285Y228267D01*
Y232266D01*
X-42284Y233266D01*
X-45283D01*
X-57279Y243266D02*
Y239267D01*
X-55280Y237268D01*
X-53281Y239267D01*
Y243266D01*
X-51281D02*
Y237268D01*
X-48282D01*
X-47283Y238267D01*
Y242266D01*
X-48282Y243266D01*
X-51281D01*
X-45283D02*
Y237268D01*
X-42284D01*
X-41285Y238267D01*
Y242266D01*
X-42284Y243266D01*
X-45283D01*
X415599Y299996D02*
X409601D01*
Y302995D01*
X410601Y303995D01*
X412600D01*
X413600Y302995D01*
Y299996D01*
X409601Y309993D02*
Y305994D01*
X415599D01*
Y309993D01*
X412600Y305994D02*
Y307993D01*
X409601Y311992D02*
X415599D01*
Y314991D01*
X414600Y315991D01*
X410601D01*
X409601Y314991D01*
Y311992D01*
X410601Y324995D02*
X409601Y323995D01*
Y321996D01*
X410601Y320996D01*
X414600D01*
X415599Y321996D01*
Y323995D01*
X414600Y324995D01*
X415599Y326994D02*
X411600D01*
X409601Y328993D01*
X411600Y330993D01*
X415599D01*
X412600D01*
Y326994D01*
X415599Y332992D02*
X409601D01*
Y335991D01*
X410601Y336991D01*
X412600D01*
X413600Y335991D01*
Y332992D01*
Y334992D02*
X415599Y336991D01*
X409101Y342996D02*
X415099D01*
Y346995D01*
X409101Y348994D02*
Y350993D01*
Y349994D01*
X415099D01*
Y348994D01*
Y350993D01*
X410101Y357991D02*
X409101Y356992D01*
Y354992D01*
X410101Y353992D01*
X414100D01*
X415099Y354992D01*
Y356992D01*
X414100Y357991D01*
X412100D01*
Y355992D01*
X409101Y359991D02*
X415099D01*
X412100D01*
Y363989D01*
X409101D01*
X415099D01*
X409101Y365989D02*
Y369987D01*
Y367988D01*
X415099D01*
X410101Y375985D02*
X409101Y374986D01*
Y372986D01*
X410101Y371987D01*
X411100D01*
X412100Y372986D01*
Y374986D01*
X413100Y375985D01*
X414100D01*
X415099Y374986D01*
Y372986D01*
X414100Y371987D01*
X466594Y364746D02*
X460596D01*
X466594Y368745D01*
X460596D01*
X466594Y371744D02*
Y373743D01*
X465595Y374743D01*
X463595D01*
X462596Y373743D01*
Y371744D01*
X463595Y370744D01*
X465595D01*
X466594Y371744D01*
X462596Y376742D02*
X466594D01*
X464595D01*
X463595Y377742D01*
X462596Y378742D01*
Y379741D01*
X461596Y383740D02*
X462596D01*
Y382740D01*
Y384739D01*
Y383740D01*
X465595D01*
X466594Y384739D01*
X460596Y387738D02*
X466594D01*
X463595D01*
X462596Y388738D01*
Y390738D01*
X463595Y391737D01*
X466594D01*
X461596Y403733D02*
X460596Y402734D01*
Y400734D01*
X461596Y399735D01*
X462596D01*
X463595Y400734D01*
Y402734D01*
X464595Y403733D01*
X465595D01*
X466594Y402734D01*
Y400734D01*
X465595Y399735D01*
X461596Y406732D02*
X462596D01*
Y405733D01*
Y407732D01*
Y406732D01*
X465595D01*
X466594Y407732D01*
X509348Y357999D02*
X505349D01*
Y352001D01*
X509348D01*
X505349Y355000D02*
X507349D01*
X512347Y355999D02*
X514346D01*
X515346Y355000D01*
Y352001D01*
X512347D01*
X511347Y353000D01*
X512347Y354000D01*
X515346D01*
X517345Y352001D02*
X520344D01*
X521344Y353000D01*
X520344Y354000D01*
X518345D01*
X517345Y355000D01*
X518345Y355999D01*
X521344D01*
X524343Y356999D02*
Y355999D01*
X523343D01*
X525343D01*
X524343D01*
Y353000D01*
X525343Y352001D01*
X538339Y356999D02*
X537339Y357999D01*
X535339D01*
X534340Y356999D01*
Y355999D01*
X535339Y355000D01*
X537339D01*
X538339Y354000D01*
Y353000D01*
X537339Y352001D01*
X535339D01*
X534340Y353000D01*
X541338Y356999D02*
Y355999D01*
X540338D01*
X542337D01*
X541338D01*
Y353000D01*
X542337Y352001D01*
X389973Y27461D02*
X388640Y28793D01*
X385975D01*
X384642Y27461D01*
Y26128D01*
X385975Y24795D01*
X388640D01*
X389973Y23462D01*
Y22129D01*
X388640Y20796D01*
X385975D01*
X384642Y22129D01*
X392639Y26128D02*
Y22129D01*
X393972Y20796D01*
X395305Y22129D01*
X396638Y20796D01*
X397971Y22129D01*
Y26128D01*
X400636Y20796D02*
X403302D01*
X401969D01*
Y26128D01*
X400636D01*
X407301Y20796D02*
Y26128D01*
X411300D01*
X412633Y24795D01*
Y20796D01*
X415299Y28793D02*
Y20796D01*
X419297D01*
X420630Y22129D01*
Y23462D01*
Y24795D01*
X419297Y26128D01*
X415299D01*
X423296D02*
Y22129D01*
X424629Y20796D01*
X428627D01*
Y26128D01*
X431293D02*
Y20796D01*
Y23462D01*
X432626Y24795D01*
X433959Y26128D01*
X435292D01*
X439291Y20796D02*
Y26128D01*
X443289D01*
X444622Y24795D01*
Y20796D01*
X451287D02*
X448621D01*
X447288Y22129D01*
Y24795D01*
X448621Y26128D01*
X451287D01*
X452620Y24795D01*
Y23462D01*
X447288D01*
X463283Y28793D02*
Y22129D01*
X464616Y20796D01*
X467282D01*
X468614Y22129D01*
Y28793D01*
X471280Y20796D02*
Y26128D01*
X475279D01*
X476612Y24795D01*
Y20796D01*
X479278D02*
X481944D01*
X480611D01*
Y26128D01*
X479278D01*
X485942D02*
X488608Y20796D01*
X491274Y26128D01*
X497938Y20796D02*
X495273D01*
X493940Y22129D01*
Y24795D01*
X495273Y26128D01*
X497938D01*
X499271Y24795D01*
Y23462D01*
X493940D01*
X501937Y26128D02*
Y20796D01*
Y23462D01*
X503270Y24795D01*
X504603Y26128D01*
X505936D01*
X509935Y20796D02*
X513933D01*
X515266Y22129D01*
X513933Y23462D01*
X511267D01*
X509935Y24795D01*
X511267Y26128D01*
X515266D01*
X517932Y20796D02*
X520598D01*
X519265D01*
Y26128D01*
X517932D01*
X525929Y27461D02*
Y26128D01*
X524596D01*
X527262D01*
X525929D01*
Y22129D01*
X527262Y20796D01*
X531261Y26128D02*
Y22129D01*
X532594Y20796D01*
X536592D01*
Y19463D01*
X535260Y18130D01*
X533927D01*
X536592Y20796D02*
Y26128D01*
D26*
X340307Y125538D02*
X339141Y126705D01*
X336808D01*
X335642Y125538D01*
Y120873D01*
X336808Y119707D01*
X339141D01*
X340307Y120873D01*
Y123206D01*
X337974D01*
X342639Y119707D02*
Y124372D01*
X346138D01*
X347305Y123206D01*
Y119707D01*
X354302Y126705D02*
Y119707D01*
X350803D01*
X349637Y120873D01*
Y123206D01*
X350803Y124372D01*
X354302D01*
X335642Y136605D02*
Y131940D01*
X337974Y129607D01*
X340307Y131940D01*
Y136605D01*
X347305D02*
Y129607D01*
X343806D01*
X342639Y130773D01*
Y133106D01*
X343806Y134272D01*
X347305D01*
X354302Y136605D02*
Y129607D01*
X350803D01*
X349637Y130773D01*
Y133106D01*
X350803Y134272D01*
X354302D01*
X335642Y311594D02*
Y306929D01*
X337974Y304596D01*
X340307Y306929D01*
Y311594D01*
X347305D02*
Y304596D01*
X343806D01*
X342639Y305762D01*
Y308095D01*
X343806Y309261D01*
X347305D01*
X354302Y311594D02*
Y304596D01*
X350803D01*
X349637Y305762D01*
Y308095D01*
X350803Y309261D01*
X354302D01*
X340307Y300527D02*
X339141Y301694D01*
X336808D01*
X335642Y300527D01*
Y295862D01*
X336808Y294696D01*
X339141D01*
X340307Y295862D01*
Y298195D01*
X337974D01*
X342639Y294696D02*
Y299361D01*
X346138D01*
X347305Y298195D01*
Y294696D01*
X354302Y301694D02*
Y294696D01*
X350803D01*
X349637Y295862D01*
Y298195D01*
X350803Y299361D01*
X354302D01*
X408599Y100496D02*
Y107994D01*
X412348D01*
X413598Y106744D01*
Y104245D01*
X412348Y102995D01*
X408599D01*
X416097Y107994D02*
Y100496D01*
Y104245D01*
X421095D01*
Y107994D01*
Y100496D01*
X423594Y106744D02*
X424844Y107994D01*
X427343D01*
X428593Y106744D01*
Y101746D01*
X427343Y100496D01*
X424844D01*
X423594Y101746D01*
Y106744D01*
X408599Y90496D02*
Y97994D01*
X412348D01*
X413598Y96744D01*
Y94245D01*
X412348Y92995D01*
X408599D01*
X416097Y97994D02*
Y90496D01*
Y94245D01*
X421095D01*
Y97994D01*
Y90496D01*
X423594D02*
X426094D01*
X424844D01*
Y97994D01*
X423594Y96744D01*
X408599Y80496D02*
Y87994D01*
X412348D01*
X413598Y86744D01*
Y84245D01*
X412348Y82995D01*
X408599D01*
X416097Y87994D02*
Y80496D01*
Y84245D01*
X421095D01*
Y87994D01*
Y80496D01*
X428593D02*
X423594D01*
X428593Y85494D01*
Y86744D01*
X427343Y87994D01*
X424844D01*
X423594Y86744D01*
X408599Y70496D02*
Y77994D01*
X412348D01*
X413598Y76744D01*
Y74245D01*
X412348Y72995D01*
X408599D01*
X416097Y77994D02*
Y70496D01*
Y74245D01*
X421095D01*
Y77994D01*
Y70496D01*
X423594Y76744D02*
X424844Y77994D01*
X427343D01*
X428593Y76744D01*
Y75494D01*
X427343Y74245D01*
X426094D01*
X427343D01*
X428593Y72995D01*
Y71746D01*
X427343Y70496D01*
X424844D01*
X423594Y71746D01*
D27*
X439599Y231343D02*
Y238007D01*
X442932Y241339D01*
X446264Y238007D01*
Y231343D01*
Y236341D01*
X439599D01*
Y223339D02*
Y213342D01*
X444598D01*
X446264Y215009D01*
Y216675D01*
X444598Y218341D01*
X439599D01*
X444598D01*
X446264Y220007D01*
Y221673D01*
X444598Y223339D01*
X439599D01*
X446264Y204673D02*
X444598Y206339D01*
X441265D01*
X439599Y204673D01*
Y198009D01*
X441265Y196343D01*
X444598D01*
X446264Y198009D01*
X439599Y188339D02*
Y178342D01*
X444598D01*
X446264Y180009D01*
Y186673D01*
X444598Y188339D01*
X439599D01*
X38900Y46249D02*
X37567Y47582D01*
X34901D01*
X33569Y46249D01*
Y40918D01*
X34901Y39585D01*
X37567D01*
X38900Y40918D01*
Y43584D01*
X36234D01*
X41566Y39585D02*
Y44917D01*
X45565D01*
X46898Y43584D01*
Y39585D01*
X54895Y47582D02*
Y39585D01*
X50896D01*
X49563Y40918D01*
Y43584D01*
X50896Y44917D01*
X54895D01*
X294442Y398660D02*
X295775Y399993D01*
X298440D01*
X299773Y398660D01*
Y393329D01*
X298440Y391996D01*
X295775D01*
X294442Y393329D01*
Y398660D01*
X280942Y391996D02*
X283608D01*
X282275D01*
Y399993D01*
X280942Y398660D01*
X269773Y391996D02*
X264442D01*
X269773Y397328D01*
Y398660D01*
X268440Y399993D01*
X265775D01*
X264442Y398660D01*
X249442D02*
X250775Y399993D01*
X253440D01*
X254773Y398660D01*
Y397328D01*
X253440Y395995D01*
X252108D01*
X253440D01*
X254773Y394662D01*
Y393329D01*
X253440Y391996D01*
X250775D01*
X249442Y393329D01*
X238440Y391996D02*
Y399993D01*
X234442Y395995D01*
X239773D01*
X224773Y399993D02*
X219442D01*
Y395995D01*
X222108Y397328D01*
X223440D01*
X224773Y395995D01*
Y393329D01*
X223440Y391996D01*
X220775D01*
X219442Y393329D01*
X209773Y399993D02*
X207107Y398660D01*
X204442Y395995D01*
Y393329D01*
X205775Y391996D01*
X208440D01*
X209773Y393329D01*
Y394662D01*
X208440Y395995D01*
X204442D01*
X189942Y399993D02*
X195273D01*
Y398660D01*
X189942Y393329D01*
Y391996D01*
X129942Y59993D02*
X135274D01*
Y58661D01*
X129942Y53329D01*
Y51996D01*
X158274Y59993D02*
X155608Y58661D01*
X152942Y55995D01*
Y53329D01*
X154275Y51996D01*
X156941D01*
X158274Y53329D01*
Y54662D01*
X156941Y55995D01*
X152942D01*
X181274Y59993D02*
X175942D01*
Y55995D01*
X178608Y57328D01*
X179941D01*
X181274Y55995D01*
Y53329D01*
X179941Y51996D01*
X177275D01*
X175942Y53329D01*
X202941Y51996D02*
Y59993D01*
X198942Y55995D01*
X204274D01*
X221942Y58661D02*
X223275Y59993D01*
X225941D01*
X227274Y58661D01*
Y57328D01*
X225941Y55995D01*
X224608D01*
X225941D01*
X227274Y54662D01*
Y53329D01*
X225941Y51996D01*
X223275D01*
X221942Y53329D01*
X250274Y51996D02*
X244942D01*
X250274Y57328D01*
Y58661D01*
X248941Y59993D01*
X246275D01*
X244942Y58661D01*
X268942Y51996D02*
X271608D01*
X270275D01*
Y59993D01*
X268942Y58661D01*
X290942D02*
X292275Y59993D01*
X294941D01*
X296274Y58661D01*
Y53329D01*
X294941Y51996D01*
X292275D01*
X290942Y53329D01*
Y58661D01*
D28*
X113059Y390953D02*
D03*
D29*
X88559D02*
D03*
D30*
X57559Y395453D02*
D03*
M02*
