M48
;Layer_Color=9474304
;FILE_FORMAT=4:4
METRIC,TZ
;TYPE=PLATED
T1F00S00C0.9000
%
T01
X969262Y189220
Y214620
Y240020
Y265420
X994662
Y240020
Y214620
Y189220
Y464810
Y490210
Y515610
X969262
Y490210
Y464810
X825352Y337810
Y312410
X799952
Y337810
X730102Y236210
Y210810
X704702
Y236210
X679302
Y210810
X653902
Y236210
X628502
Y210810
X603102
X577702
Y236210
X603102
X552302
Y210810
X526902
X501502
X476102
Y236210
X501502
X526902
X450702
X425302
X399902
Y210810
X425302
X450702
X374502
X349102
Y236210
X374502
X186034Y238496
X121264Y237226
X186034Y157216
X-84920Y483860
Y509260
Y534660
Y560060
Y585460
Y610860
X232262Y853430
X257662
X283062
Y878830
X257662
X232262
X531982
Y853430
X557382
X582782
Y878830
X608182
Y853430
X633582
Y878830
X658982
Y853430
X684382
Y878830
X709782
Y853430
X799952Y782310
Y756910
X825352
Y782310
X816462Y670560
X557382Y878830
X969262Y886450
X994662
Y861050
Y835650
Y810250
Y784850
Y759450
Y734050
X969262
Y759450
Y784850
Y810250
Y835650
Y861050
Y911850
X994662
X889592Y670560
X854562
X969262Y541010
X994662
X87482Y937250
Y962650
Y988050
Y1013450
M30
