G04*
G04 #@! TF.GenerationSoftware,Altium Limited,Altium Designer,19.1.8 (144)*
G04*
G04 Layer_Color=65535*
%FSLAX25Y25*%
%MOIN*%
G70*
G01*
G75*
%ADD10C,0.00800*%
%ADD11C,0.01968*%
%ADD12C,0.00394*%
%ADD13C,0.00500*%
D10*
X77376Y61896D02*
G03*
X77376Y61896I-4134J0D01*
G01*
Y93896D02*
G03*
X77376Y93896I-4134J0D01*
G01*
X51876Y93396D02*
G03*
X51876Y93396I-4134J0D01*
G01*
X354367Y264000D02*
G03*
X354367Y264000I-4134J0D01*
G01*
X340576D02*
G03*
X340576Y264000I-4134J0D01*
G01*
X325576D02*
G03*
X325576Y264000I-4134J0D01*
G01*
D11*
X293200Y18700D02*
X310569D01*
X293200Y1331D02*
Y18700D01*
Y36069D01*
X114431Y18700D02*
X131800D01*
Y1331D02*
Y18700D01*
X294094D01*
X131800D02*
Y36069D01*
X-9495Y354331D02*
X7874D01*
Y336961D02*
Y354331D01*
X25243D01*
X7874D02*
Y371700D01*
X-9495Y378996D02*
X7874D01*
Y361627D02*
Y378996D01*
X25243D01*
X7874D02*
Y396365D01*
X77631Y51500D02*
X95000D01*
Y34131D02*
Y51500D01*
X112369D01*
X95000D02*
Y68869D01*
X423231Y281000D02*
X440600D01*
Y263631D02*
Y281000D01*
X457969D01*
X440600D02*
Y298369D01*
X507231Y312900D02*
X524600D01*
Y295531D02*
Y312900D01*
X541969D01*
X524600D02*
Y330269D01*
X419331Y362900D02*
X436700D01*
Y345531D02*
Y362900D01*
X454069D01*
X436700D02*
Y380269D01*
X490700Y369000D02*
Y386369D01*
Y369000D02*
X508069D01*
X490700Y351631D02*
Y369000D01*
X473331D02*
X490700D01*
D12*
X-38433Y185496D02*
X-28433D01*
X-38433D02*
Y245496D01*
X-28433D01*
Y185496D02*
Y245496D01*
X329942Y292996D02*
Y312996D01*
X309942D02*
X329942D01*
X309942Y292996D02*
X329942D01*
X309942D02*
Y312996D01*
X329942Y117996D02*
Y137996D01*
X309942D02*
X329942D01*
X309942Y117996D02*
X329942D01*
X309942D02*
Y137996D01*
X292442Y77996D02*
Y97996D01*
X212442Y77996D02*
X292442D01*
X212442Y97996D02*
X292442D01*
X212442Y77996D02*
Y97996D01*
X132442Y77996D02*
Y97996D01*
X212442D01*
X132442Y77996D02*
X212442D01*
Y97996D01*
X376599Y283996D02*
X396599D01*
X376599D02*
Y363996D01*
X396599Y283996D02*
Y363996D01*
X376599D02*
X396599D01*
Y69496D02*
Y109496D01*
X376599Y69496D02*
Y109496D01*
Y69496D02*
X396599D01*
X376599Y109496D02*
X396599D01*
Y177996D02*
Y217996D01*
X376599Y177996D02*
Y217996D01*
Y177996D02*
X396599D01*
X376599Y217996D02*
X396599D01*
X86442Y330996D02*
Y350996D01*
X116442Y330996D02*
Y350996D01*
X86442Y330996D02*
X116442D01*
X86442Y350996D02*
X116442D01*
X86442D02*
X105608D01*
X204442Y330996D02*
Y350996D01*
X284442D01*
X204442Y330996D02*
X284442D01*
Y350996D01*
D13*
X71241Y55395D02*
X70741Y55895D01*
X69742D01*
X69242Y55395D01*
Y53396D01*
X69742Y52896D01*
X70741D01*
X71241Y53396D01*
Y54396D01*
X70241D01*
X72241Y52896D02*
Y54895D01*
X73740D01*
X74240Y54396D01*
Y52896D01*
X77239Y55895D02*
Y52896D01*
X75740D01*
X75240Y53396D01*
Y54396D01*
X75740Y54895D01*
X77239D01*
X68242Y87495D02*
Y85496D01*
X69241Y84496D01*
X70241Y85496D01*
Y87495D01*
X73240D02*
Y84496D01*
X71741D01*
X71241Y84996D01*
Y85996D01*
X71741Y86495D01*
X73240D01*
X76239Y87495D02*
Y84496D01*
X74740D01*
X74240Y84996D01*
Y85996D01*
X74740Y86495D01*
X76239D01*
X47241Y87495D02*
X45242D01*
Y85996D01*
X46241Y86495D01*
X46741D01*
X47241Y85996D01*
Y84996D01*
X46741Y84496D01*
X45742D01*
X45242Y84996D01*
X48241Y87495D02*
Y85496D01*
X49240Y84496D01*
X50240Y85496D01*
Y87495D01*
M02*
