G04*
G04 #@! TF.GenerationSoftware,Altium Limited,Altium Designer,19.1.8 (144)*
G04*
G04 Layer_Color=32896*
%FSLAX25Y25*%
%MOIN*%
G70*
G01*
G75*
%ADD26C,0.03937*%
D26*
X600Y211813D02*
Y251800D01*
X27258D01*
X47252D02*
X60581D01*
X67245Y245135D01*
Y231806D01*
X60581Y225142D01*
X47252D01*
X40587Y231806D01*
Y245135D01*
X47252Y251800D01*
X87239Y225142D02*
X100568D01*
X107232Y231806D01*
Y251800D01*
X87239D01*
X80574Y245135D01*
X87239Y238471D01*
X107232D01*
X147219Y211813D02*
Y251800D01*
X127226D01*
X120561Y245135D01*
Y231806D01*
X127226Y225142D01*
X147219D01*
X207200Y218477D02*
Y225142D01*
X200535D01*
X213864D01*
X207200D01*
Y245135D01*
X213864Y251800D01*
X233858Y211813D02*
Y251800D01*
Y231806D01*
X240522Y225142D01*
X253852D01*
X260516Y231806D01*
Y251800D01*
X273845D02*
X287174D01*
X280509D01*
Y225142D01*
X273845D01*
X307168Y251800D02*
X327161D01*
X333826Y245135D01*
X327161Y238471D01*
X313832D01*
X307168Y231806D01*
X313832Y225142D01*
X333826D01*
X387142Y251800D02*
X407135D01*
X413800Y245135D01*
X407135Y238471D01*
X393806D01*
X387142Y231806D01*
X393806Y225142D01*
X413800D01*
X427129Y251800D02*
X440458D01*
X433793D01*
Y225142D01*
X427129D01*
X487109Y211813D02*
Y251800D01*
X467116D01*
X460451Y245135D01*
Y231806D01*
X467116Y225142D01*
X487109D01*
X520432Y251800D02*
X507103D01*
X500438Y245135D01*
Y231806D01*
X507103Y225142D01*
X520432D01*
X527096Y231806D01*
Y238471D01*
X500438D01*
M02*
