G04*
G04 #@! TF.GenerationSoftware,Altium Limited,Altium Designer,19.1.8 (144)*
G04*
G04 Layer_Color=16711935*
%FSLAX25Y25*%
%MOIN*%
G70*
G01*
G75*
%ADD26C,0.03937*%
D26*
X500542Y369000D02*
G03*
X500542Y369000I-9843J0D01*
G01*
X446543Y362900D02*
G03*
X446543Y362900I-9843J0D01*
G01*
X450443Y281000D02*
G03*
X450443Y281000I-9843J0D01*
G01*
X534443Y312900D02*
G03*
X534443Y312900I-9843J0D01*
G01*
X104842Y51500D02*
G03*
X104842Y51500I-9843J0D01*
G01*
X293200Y8857D02*
G03*
X293200Y28543I0J9843D01*
G01*
X131800D02*
G03*
X131800Y8857I0J-9843D01*
G01*
X-1969Y354331D02*
G03*
X17717Y354331I9843J0D01*
G01*
Y378996D02*
G03*
X-1969Y378996I-9843J0D01*
G01*
X0Y413386D02*
G03*
X-23622Y389764I0J-23622D01*
G01*
X-23622Y110126D02*
G03*
X-31496Y118000I-7874J0D01*
G01*
X-62992Y125874D02*
G03*
X-55118Y118000I7874J0D01*
G01*
Y312992D02*
G03*
X-62992Y305118I0J-7874D01*
G01*
X-31496Y312992D02*
G03*
X-23622Y320866I0J7874D01*
G01*
X547244Y389759D02*
G03*
X523622Y413381I-23622J0D01*
G01*
Y-0D02*
G03*
X547244Y23622I0J23622D01*
G01*
X-23622Y23622D02*
G03*
X0Y0I23622J0D01*
G01*
X131800Y8857D02*
X293200D01*
X131800Y28543D02*
X293200D01*
X17717Y354331D02*
Y378996D01*
X-1969Y354331D02*
Y378996D01*
X-31496Y118000D02*
X-31496Y118000D01*
X-55118Y118000D02*
X-31496D01*
Y312992D02*
X-31496Y312992D01*
X-55118Y312992D02*
X-31496D01*
X-62992Y125874D02*
Y305118D01*
X0Y413386D02*
X523622D01*
X-23622Y23622D02*
Y110126D01*
Y320866D02*
Y389764D01*
X0Y0D02*
X523622D01*
X547244Y23622D02*
Y389759D01*
M02*
