G04*
G04 #@! TF.GenerationSoftware,Altium Limited,Altium Designer,19.1.8 (144)*
G04*
G04 Layer_Physical_Order=2*
G04 Layer_Color=16711680*
%FSLAX25Y25*%
%MOIN*%
G70*
G01*
G75*
%ADD17C,0.01000*%
%ADD38C,0.03937*%
%ADD48O,0.02559X0.02441*%
%ADD49O,0.09449X0.03543*%
%ADD50O,0.06693X0.03543*%
%ADD51C,0.05906*%
%ADD52C,0.01968*%
%ADD53R,0.07520X0.04095*%
G36*
X107248Y-38350D02*
X-8823D01*
Y38350D01*
X107248D01*
Y-38350D01*
D02*
G37*
%LPC*%
G36*
X94500Y34513D02*
X93921Y34398D01*
X93496Y34114D01*
X93472Y34106D01*
X93455Y34103D01*
X93448Y34098D01*
X93439Y34095D01*
X93429Y34086D01*
X93414Y34080D01*
X93385Y34072D01*
X93343Y34062D01*
X93296Y34055D01*
X93142Y34043D01*
X93052Y34041D01*
X93003Y34020D01*
X85500D01*
X85110Y33942D01*
X84779Y33721D01*
X76795Y25737D01*
X76574Y25406D01*
X76496Y25016D01*
Y7438D01*
X75078Y6020D01*
X68160D01*
X68112Y6041D01*
X67936Y6046D01*
X67801Y6057D01*
X67696Y6075D01*
X67622Y6094D01*
X67610Y6099D01*
Y7547D01*
X59090D01*
Y2452D01*
X67610D01*
Y3901D01*
X67622Y3906D01*
X67696Y3925D01*
X67801Y3943D01*
X67936Y3954D01*
X68112Y3959D01*
X68160Y3980D01*
X75500D01*
X75890Y4058D01*
X76221Y4279D01*
X78237Y6295D01*
X78458Y6626D01*
X78535Y7016D01*
Y24593D01*
X85922Y31980D01*
X92995D01*
X93042Y31959D01*
X93229Y31952D01*
X93289Y31946D01*
X93343Y31938D01*
X93385Y31928D01*
X93414Y31920D01*
X93429Y31914D01*
X93439Y31905D01*
X93448Y31902D01*
X93455Y31897D01*
X93472Y31894D01*
X93496Y31886D01*
X93623Y31801D01*
Y31199D01*
X93496Y31114D01*
X93472Y31106D01*
X93455Y31103D01*
X93448Y31098D01*
X93439Y31095D01*
X93429Y31086D01*
X93414Y31080D01*
X93385Y31072D01*
X93343Y31062D01*
X93296Y31055D01*
X93142Y31043D01*
X93052Y31041D01*
X93003Y31020D01*
X87500D01*
X87110Y30942D01*
X86779Y30721D01*
X80779Y24721D01*
X80558Y24390D01*
X80480Y24000D01*
Y5322D01*
X71178Y-3980D01*
X68160D01*
X68112Y-3959D01*
X67936Y-3954D01*
X67801Y-3943D01*
X67696Y-3925D01*
X67622Y-3906D01*
X67610Y-3901D01*
Y-2452D01*
X59090D01*
Y-7547D01*
X67610D01*
Y-6099D01*
X67622Y-6094D01*
X67696Y-6075D01*
X67801Y-6057D01*
X67936Y-6046D01*
X68112Y-6041D01*
X68160Y-6020D01*
X71600D01*
X71990Y-5942D01*
X72321Y-5721D01*
X82221Y4179D01*
X82442Y4510D01*
X82520Y4900D01*
Y23578D01*
X87922Y28980D01*
X92995D01*
X93042Y28959D01*
X93229Y28952D01*
X93289Y28946D01*
X93343Y28938D01*
X93385Y28928D01*
X93414Y28920D01*
X93429Y28914D01*
X93439Y28905D01*
X93448Y28902D01*
X93455Y28897D01*
X93472Y28894D01*
X93496Y28886D01*
X93788Y28690D01*
X93814Y28599D01*
Y28226D01*
X93788Y28135D01*
X93496Y27940D01*
X93472Y27931D01*
X93455Y27928D01*
X93448Y27923D01*
X93439Y27920D01*
X93429Y27911D01*
X93414Y27905D01*
X93385Y27897D01*
X93343Y27887D01*
X93296Y27880D01*
X93142Y27868D01*
X93052Y27866D01*
X93003Y27845D01*
X89325D01*
X88935Y27767D01*
X88604Y27546D01*
X83979Y22921D01*
X83758Y22590D01*
X83680Y22200D01*
Y1622D01*
X68099Y-13959D01*
X67936Y-13954D01*
X67801Y-13943D01*
X67696Y-13925D01*
X67622Y-13906D01*
X67610Y-13901D01*
Y-12453D01*
X59090D01*
Y-17548D01*
X67610D01*
Y-16099D01*
X67622Y-16094D01*
X67696Y-16075D01*
X67801Y-16057D01*
X67936Y-16046D01*
X68112Y-16041D01*
X68160Y-16020D01*
X68500D01*
X68890Y-15942D01*
X69221Y-15721D01*
X85421Y479D01*
X85642Y810D01*
X85720Y1200D01*
Y21778D01*
X89748Y25806D01*
X92995D01*
X93042Y25784D01*
X93229Y25777D01*
X93289Y25771D01*
X93343Y25763D01*
X93385Y25754D01*
X93414Y25745D01*
X93429Y25739D01*
X93439Y25730D01*
X93448Y25727D01*
X93455Y25722D01*
X93472Y25719D01*
X93496Y25711D01*
X93921Y25427D01*
X94500Y25312D01*
X95079Y25427D01*
X95570Y25755D01*
X95898Y26246D01*
X96013Y26825D01*
X95898Y27404D01*
X95570Y27895D01*
X95212Y28135D01*
X95186Y28226D01*
Y28599D01*
X95212Y28690D01*
X95570Y28930D01*
X95898Y29421D01*
X96013Y30000D01*
X95898Y30579D01*
X95570Y31070D01*
X95377Y31199D01*
Y31801D01*
X95570Y31930D01*
X95898Y32421D01*
X96013Y33000D01*
X95898Y33579D01*
X95570Y34070D01*
X95079Y34398D01*
X94500Y34513D01*
D02*
G37*
G36*
X12678Y19446D02*
X10225D01*
Y17528D01*
X14996D01*
X14911Y17953D01*
X14387Y18738D01*
X13603Y19262D01*
X12678Y19446D01*
D02*
G37*
G36*
X9225D02*
X6772D01*
X5847Y19262D01*
X5062Y18738D01*
X4538Y17953D01*
X4453Y17528D01*
X9225D01*
Y19446D01*
D02*
G37*
G36*
X-2008D02*
X-3083D01*
Y17528D01*
X311D01*
X226Y17953D01*
X-298Y18738D01*
X-1082Y19262D01*
X-2008Y19446D01*
D02*
G37*
G36*
X-4082D02*
X-5158D01*
X-6083Y19262D01*
X-6867Y18738D01*
X-7391Y17953D01*
X-7476Y17528D01*
X-4082D01*
Y19446D01*
D02*
G37*
G36*
X97400Y37120D02*
X73000D01*
X72610Y37042D01*
X72279Y36821D01*
X64885Y29427D01*
X64664Y29096D01*
X64586Y28706D01*
Y28098D01*
X64565Y28050D01*
X64560Y27874D01*
X64549Y27739D01*
X64531Y27633D01*
X64512Y27560D01*
X64507Y27547D01*
X59090D01*
Y22453D01*
X67610D01*
Y27547D01*
X66705D01*
X66700Y27559D01*
X66681Y27633D01*
X66663Y27739D01*
X66652Y27874D01*
X66647Y28050D01*
X66626Y28098D01*
Y28284D01*
X73422Y35080D01*
X96978D01*
X97480Y34578D01*
Y18822D01*
X95881Y17223D01*
X95420Y17415D01*
Y18295D01*
X95441Y18342D01*
X95448Y18529D01*
X95454Y18589D01*
X95462Y18643D01*
X95472Y18685D01*
X95480Y18714D01*
X95486Y18729D01*
X95495Y18739D01*
X95498Y18748D01*
X95503Y18755D01*
X95506Y18772D01*
X95514Y18796D01*
X95798Y19221D01*
X95913Y19800D01*
X95798Y20379D01*
X95470Y20870D01*
X94979Y21198D01*
X94400Y21313D01*
X93821Y21198D01*
X93330Y20870D01*
X93002Y20379D01*
X92887Y19800D01*
X93002Y19221D01*
X93286Y18796D01*
X93294Y18772D01*
X93297Y18755D01*
X93302Y18748D01*
X93305Y18739D01*
X93314Y18729D01*
X93320Y18714D01*
X93328Y18685D01*
X93338Y18643D01*
X93345Y18596D01*
X93357Y18442D01*
X93359Y18352D01*
X93380Y18303D01*
Y16844D01*
X87295Y10758D01*
X87074Y10427D01*
X86996Y10037D01*
Y-1520D01*
X66673Y-21843D01*
X66625Y-21861D01*
X66250Y-22209D01*
X66105Y-22326D01*
X65977Y-22415D01*
X65912Y-22453D01*
X65587D01*
X65539Y-22437D01*
X65508Y-22453D01*
X65476D01*
X65457Y-22449D01*
X65453Y-22453D01*
X59090D01*
Y-27547D01*
X67610D01*
Y-24352D01*
X67625Y-24323D01*
X67611Y-24279D01*
X67626Y-24234D01*
X67610Y-24203D01*
Y-23923D01*
X67622Y-23903D01*
X67710Y-23778D01*
X68002Y-23435D01*
X68194Y-23236D01*
X68208Y-23202D01*
X68240Y-23183D01*
X68247Y-23153D01*
X88737Y-2663D01*
X88958Y-2332D01*
X89035Y-1942D01*
Y2104D01*
X89535Y2379D01*
X90000Y2287D01*
X90579Y2402D01*
X91070Y2730D01*
X91398Y3221D01*
X91513Y3800D01*
X91398Y4379D01*
X91114Y4804D01*
X91106Y4828D01*
X91103Y4845D01*
X91098Y4852D01*
X91095Y4861D01*
X91086Y4871D01*
X91080Y4886D01*
X91072Y4915D01*
X91062Y4957D01*
X91055Y5004D01*
X91043Y5158D01*
X91041Y5248D01*
X91020Y5297D01*
Y9478D01*
X99221Y17679D01*
X99442Y18010D01*
X99520Y18400D01*
Y35000D01*
X99442Y35390D01*
X99221Y35721D01*
X98121Y36821D01*
X97790Y37042D01*
X97400Y37120D01*
D02*
G37*
G36*
X67710Y17648D02*
X63850D01*
Y15500D01*
X67710D01*
Y17648D01*
D02*
G37*
G36*
X62850D02*
X58990D01*
Y15500D01*
X62850D01*
Y17648D01*
D02*
G37*
G36*
X14996Y16528D02*
X10225D01*
Y14610D01*
X12678D01*
X13603Y14794D01*
X14387Y15318D01*
X14911Y16103D01*
X14996Y16528D01*
D02*
G37*
G36*
X9225D02*
X4453D01*
X4538Y16103D01*
X5062Y15318D01*
X5847Y14794D01*
X6772Y14610D01*
X9225D01*
Y16528D01*
D02*
G37*
G36*
X311D02*
X-3083D01*
Y14610D01*
X-2008D01*
X-1082Y14794D01*
X-298Y15318D01*
X226Y16103D01*
X311Y16528D01*
D02*
G37*
G36*
X-4082D02*
X-7476D01*
X-7391Y16103D01*
X-6867Y15318D01*
X-6083Y14794D01*
X-5158Y14610D01*
X-4082D01*
Y16528D01*
D02*
G37*
G36*
X67710Y14500D02*
X63850D01*
Y12353D01*
X67710D01*
Y14500D01*
D02*
G37*
G36*
X62850D02*
X58990D01*
Y12353D01*
X62850D01*
Y14500D01*
D02*
G37*
G36*
X8768Y13481D02*
Y12213D01*
X10084D01*
X10042Y12423D01*
X9640Y13025D01*
X9038Y13428D01*
X8768Y13481D01*
D02*
G37*
G36*
X14083D02*
Y12213D01*
X15398D01*
X15356Y12423D01*
X14954Y13025D01*
X14352Y13428D01*
X14083Y13481D01*
D02*
G37*
G36*
X13082D02*
X12813Y13428D01*
X12211Y13025D01*
X11809Y12423D01*
X11767Y12213D01*
X13082D01*
Y13481D01*
D02*
G37*
G36*
X7768D02*
X7499Y13428D01*
X6897Y13025D01*
X6495Y12423D01*
X6453Y12213D01*
X7768D01*
Y13481D01*
D02*
G37*
G36*
X73500Y30013D02*
X72921Y29898D01*
X72430Y29570D01*
X72102Y29079D01*
X71987Y28500D01*
X72102Y27921D01*
X72386Y27496D01*
X72394Y27472D01*
X72397Y27455D01*
X72402Y27448D01*
X72405Y27439D01*
X72414Y27429D01*
X72420Y27414D01*
X72428Y27385D01*
X72438Y27343D01*
X72445Y27296D01*
X72457Y27142D01*
X72459Y27052D01*
X72480Y27003D01*
Y24005D01*
X72459Y23958D01*
X72452Y23771D01*
X72446Y23711D01*
X72438Y23657D01*
X72428Y23615D01*
X72420Y23586D01*
X72414Y23571D01*
X72405Y23561D01*
X72402Y23552D01*
X72397Y23545D01*
X72394Y23528D01*
X72386Y23504D01*
X72102Y23079D01*
X71987Y22500D01*
X72102Y21921D01*
X72386Y21496D01*
X72394Y21472D01*
X72397Y21455D01*
X72402Y21448D01*
X72405Y21439D01*
X72414Y21429D01*
X72420Y21414D01*
X72428Y21385D01*
X72438Y21343D01*
X72445Y21296D01*
X72457Y21142D01*
X72459Y21052D01*
X72480Y21003D01*
Y11505D01*
X72459Y11458D01*
X72452Y11271D01*
X72446Y11211D01*
X72438Y11157D01*
X72428Y11115D01*
X72420Y11086D01*
X72414Y11071D01*
X72405Y11061D01*
X72402Y11052D01*
X72397Y11045D01*
X72394Y11028D01*
X72386Y11004D01*
X72102Y10579D01*
X71987Y10000D01*
X72102Y9421D01*
X72430Y8930D01*
X72921Y8602D01*
X73500Y8487D01*
X74079Y8602D01*
X74570Y8930D01*
X74898Y9421D01*
X75013Y10000D01*
X74898Y10579D01*
X74614Y11004D01*
X74606Y11028D01*
X74603Y11045D01*
X74598Y11052D01*
X74595Y11061D01*
X74586Y11071D01*
X74580Y11086D01*
X74572Y11115D01*
X74562Y11157D01*
X74555Y11204D01*
X74543Y11358D01*
X74541Y11448D01*
X74520Y11497D01*
Y20995D01*
X74541Y21042D01*
X74548Y21229D01*
X74554Y21289D01*
X74562Y21343D01*
X74572Y21385D01*
X74580Y21414D01*
X74586Y21429D01*
X74595Y21439D01*
X74598Y21448D01*
X74603Y21455D01*
X74606Y21472D01*
X74614Y21496D01*
X74898Y21921D01*
X75013Y22500D01*
X74898Y23079D01*
X74614Y23504D01*
X74606Y23528D01*
X74603Y23545D01*
X74598Y23552D01*
X74595Y23561D01*
X74586Y23571D01*
X74580Y23586D01*
X74572Y23615D01*
X74562Y23657D01*
X74555Y23704D01*
X74543Y23858D01*
X74541Y23948D01*
X74520Y23997D01*
Y26995D01*
X74541Y27042D01*
X74548Y27229D01*
X74554Y27289D01*
X74562Y27343D01*
X74572Y27385D01*
X74580Y27414D01*
X74586Y27429D01*
X74595Y27439D01*
X74598Y27448D01*
X74603Y27455D01*
X74606Y27472D01*
X74614Y27496D01*
X74898Y27921D01*
X75013Y28500D01*
X74898Y29079D01*
X74570Y29570D01*
X74079Y29898D01*
X73500Y30013D01*
D02*
G37*
G36*
X10084Y11213D02*
X8269D01*
X6453D01*
X6495Y11003D01*
X6897Y10401D01*
X7077Y10280D01*
Y9679D01*
X6969Y9606D01*
X6851Y9430D01*
X6501Y9408D01*
X6362Y9407D01*
X6262Y9365D01*
X5976Y9308D01*
X5645Y9087D01*
X4779Y8221D01*
X4558Y7890D01*
X4480Y7500D01*
Y-7500D01*
X4558Y-7890D01*
X4779Y-8221D01*
X5645Y-9087D01*
X5976Y-9308D01*
X6258Y-9364D01*
X6357Y-9407D01*
X6636Y-9412D01*
X6835Y-9424D01*
X6848Y-9426D01*
X6969Y-9606D01*
X7077Y-9679D01*
Y-10280D01*
X6897Y-10401D01*
X6495Y-11003D01*
X6453Y-11213D01*
X8269D01*
X10084D01*
X10042Y-11003D01*
X9640Y-10401D01*
X9460Y-10280D01*
X9434Y-10216D01*
X9385Y-10028D01*
X9460Y-9679D01*
X9568Y-9606D01*
X9660Y-9468D01*
X9774Y-9447D01*
X10186Y-9412D01*
X10438Y-9407D01*
X10488Y-9386D01*
X11363D01*
X11413Y-9407D01*
X11672Y-9412D01*
X11889Y-9425D01*
X12070Y-9446D01*
X12191Y-9468D01*
X12283Y-9606D01*
X12391Y-9679D01*
X12466Y-10028D01*
X12417Y-10216D01*
X12391Y-10280D01*
X12211Y-10401D01*
X11809Y-11003D01*
X11767Y-11213D01*
X13582D01*
X15398D01*
X15356Y-11003D01*
X14954Y-10401D01*
X14774Y-10280D01*
Y-9679D01*
X14882Y-9606D01*
X15262Y-9037D01*
X15396Y-8366D01*
X15262Y-7695D01*
X14882Y-7126D01*
X14684Y-6994D01*
Y-6392D01*
X14882Y-6260D01*
X15262Y-5691D01*
X15396Y-5020D01*
X15262Y-4349D01*
X14882Y-3780D01*
X14684Y-3647D01*
Y-3046D01*
X14882Y-2913D01*
X15262Y-2344D01*
X15396Y-1673D01*
X15262Y-1002D01*
X14882Y-433D01*
X14684Y-301D01*
Y301D01*
X14882Y433D01*
X15262Y1002D01*
X15396Y1673D01*
X15262Y2344D01*
X14882Y2913D01*
X14684Y3046D01*
Y3647D01*
X14882Y3780D01*
X15262Y4349D01*
X15396Y5020D01*
X15262Y5691D01*
X14882Y6260D01*
X14684Y6392D01*
Y6994D01*
X14882Y7126D01*
X15262Y7695D01*
X15396Y8366D01*
X15262Y9037D01*
X14882Y9606D01*
X14774Y9679D01*
Y10280D01*
X14954Y10401D01*
X15356Y11003D01*
X15398Y11213D01*
X13582D01*
X11767D01*
X11809Y11003D01*
X12211Y10401D01*
X12391Y10280D01*
X12417Y10216D01*
X12466Y10028D01*
X12391Y9679D01*
X12283Y9606D01*
X12191Y9468D01*
X12077Y9447D01*
X11665Y9412D01*
X11413Y9407D01*
X11363Y9386D01*
X10488D01*
X10438Y9407D01*
X10179Y9412D01*
X9962Y9425D01*
X9781Y9446D01*
X9660Y9468D01*
X9568Y9606D01*
X9460Y9679D01*
X9385Y10028D01*
X9434Y10216D01*
X9460Y10280D01*
X9640Y10401D01*
X10042Y11003D01*
X10084Y11213D01*
D02*
G37*
G36*
Y-12213D02*
X8768D01*
Y-13481D01*
X9038Y-13428D01*
X9640Y-13025D01*
X10042Y-12423D01*
X10084Y-12213D01*
D02*
G37*
G36*
X15398D02*
X14083D01*
Y-13481D01*
X14352Y-13428D01*
X14954Y-13025D01*
X15356Y-12423D01*
X15398Y-12213D01*
D02*
G37*
G36*
X13082D02*
X11767D01*
X11809Y-12423D01*
X12211Y-13025D01*
X12813Y-13428D01*
X13082Y-13481D01*
Y-12213D01*
D02*
G37*
G36*
X7768D02*
X6453D01*
X6495Y-12423D01*
X6897Y-13025D01*
X7499Y-13428D01*
X7768Y-13481D01*
Y-12213D01*
D02*
G37*
G36*
X12678Y-14610D02*
X10225D01*
Y-16528D01*
X14996D01*
X14911Y-16103D01*
X14387Y-15318D01*
X13603Y-14794D01*
X12678Y-14610D01*
D02*
G37*
G36*
X9225D02*
X6772D01*
X5847Y-14794D01*
X5062Y-15318D01*
X4538Y-16103D01*
X4453Y-16528D01*
X9225D01*
Y-14610D01*
D02*
G37*
G36*
X-2008D02*
X-3083D01*
Y-16528D01*
X311D01*
X226Y-16103D01*
X-298Y-15318D01*
X-1082Y-14794D01*
X-2008Y-14610D01*
D02*
G37*
G36*
X-4082D02*
X-5158D01*
X-6083Y-14794D01*
X-6867Y-15318D01*
X-7391Y-16103D01*
X-7476Y-16528D01*
X-4082D01*
Y-14610D01*
D02*
G37*
G36*
X14996Y-17528D02*
X10225D01*
Y-19446D01*
X12678D01*
X13603Y-19262D01*
X14387Y-18738D01*
X14911Y-17953D01*
X14996Y-17528D01*
D02*
G37*
G36*
X9225D02*
X4453D01*
X4538Y-17953D01*
X5062Y-18738D01*
X5847Y-19262D01*
X6772Y-19446D01*
X9225D01*
Y-17528D01*
D02*
G37*
G36*
X311D02*
X-3083D01*
Y-19446D01*
X-2008D01*
X-1082Y-19262D01*
X-298Y-18738D01*
X226Y-17953D01*
X311Y-17528D01*
D02*
G37*
G36*
X-4082D02*
X-7476D01*
X-7391Y-17953D01*
X-6867Y-18738D01*
X-6083Y-19262D01*
X-5158Y-19446D01*
X-4082D01*
Y-17528D01*
D02*
G37*
G36*
X40000Y-12487D02*
X39421Y-12602D01*
X38930Y-12930D01*
X38602Y-13421D01*
X38487Y-14000D01*
X38602Y-14579D01*
X38886Y-15004D01*
X38894Y-15028D01*
X38897Y-15045D01*
X38902Y-15052D01*
X38905Y-15061D01*
X38914Y-15071D01*
X38920Y-15086D01*
X38928Y-15115D01*
X38938Y-15157D01*
X38945Y-15204D01*
X38957Y-15358D01*
X38959Y-15448D01*
X38980Y-15497D01*
Y-24053D01*
X37419Y-25615D01*
X37371Y-25633D01*
X37233Y-25761D01*
X37187Y-25799D01*
X37142Y-25831D01*
X37106Y-25854D01*
X37080Y-25868D01*
X37065Y-25875D01*
X37052Y-25876D01*
X37043Y-25880D01*
X37034Y-25881D01*
X37020Y-25891D01*
X36997Y-25902D01*
X36496Y-26002D01*
X36005Y-26330D01*
X35920Y-26458D01*
X35420Y-26307D01*
Y-22305D01*
X35441Y-22258D01*
X35448Y-22071D01*
X35454Y-22011D01*
X35462Y-21957D01*
X35472Y-21915D01*
X35480Y-21886D01*
X35486Y-21871D01*
X35495Y-21861D01*
X35498Y-21852D01*
X35503Y-21845D01*
X35506Y-21828D01*
X35514Y-21804D01*
X35798Y-21379D01*
X35913Y-20800D01*
X35798Y-20221D01*
X35470Y-19730D01*
X34979Y-19402D01*
X34400Y-19287D01*
X33821Y-19402D01*
X33330Y-19730D01*
X33002Y-20221D01*
X32887Y-20800D01*
X33002Y-21379D01*
X33286Y-21804D01*
X33294Y-21828D01*
X33297Y-21845D01*
X33302Y-21852D01*
X33305Y-21861D01*
X33314Y-21871D01*
X33320Y-21886D01*
X33328Y-21915D01*
X33338Y-21957D01*
X33345Y-22004D01*
X33357Y-22158D01*
X33359Y-22248D01*
X33380Y-22297D01*
Y-29653D01*
X32419Y-30615D01*
X32371Y-30633D01*
X32233Y-30761D01*
X32186Y-30799D01*
X32142Y-30831D01*
X32106Y-30854D01*
X32079Y-30868D01*
X32065Y-30875D01*
X32052Y-30876D01*
X32043Y-30880D01*
X32034Y-30882D01*
X32020Y-30891D01*
X31997Y-30902D01*
X31497Y-31002D01*
X31005Y-31330D01*
X30678Y-31821D01*
X30562Y-32400D01*
X30678Y-32979D01*
X31005Y-33470D01*
X31497Y-33798D01*
X32076Y-33913D01*
X32655Y-33798D01*
X33146Y-33470D01*
X33474Y-32979D01*
X33573Y-32478D01*
X33584Y-32456D01*
X33594Y-32441D01*
X33596Y-32432D01*
X33600Y-32424D01*
X33601Y-32411D01*
X33607Y-32396D01*
X33622Y-32369D01*
X33645Y-32333D01*
X33673Y-32294D01*
X33773Y-32177D01*
X33836Y-32112D01*
X33855Y-32062D01*
X35121Y-30797D01*
X35342Y-30466D01*
X35420Y-30076D01*
Y-28493D01*
X35920Y-28341D01*
X36005Y-28470D01*
X36496Y-28798D01*
X37076Y-28913D01*
X37655Y-28798D01*
X38146Y-28470D01*
X38474Y-27979D01*
X38573Y-27478D01*
X38585Y-27455D01*
X38594Y-27441D01*
X38596Y-27432D01*
X38600Y-27424D01*
X38601Y-27411D01*
X38607Y-27396D01*
X38622Y-27369D01*
X38645Y-27333D01*
X38673Y-27294D01*
X38773Y-27177D01*
X38836Y-27112D01*
X38855Y-27062D01*
X40721Y-25196D01*
X40942Y-24866D01*
X41020Y-24476D01*
Y-15505D01*
X41041Y-15458D01*
X41048Y-15271D01*
X41054Y-15211D01*
X41062Y-15157D01*
X41072Y-15115D01*
X41080Y-15086D01*
X41086Y-15071D01*
X41095Y-15061D01*
X41098Y-15052D01*
X41103Y-15045D01*
X41106Y-15028D01*
X41114Y-15004D01*
X41398Y-14579D01*
X41513Y-14000D01*
X41398Y-13421D01*
X41070Y-12930D01*
X40579Y-12602D01*
X40000Y-12487D01*
D02*
G37*
G36*
X12576Y-27375D02*
Y-29400D01*
X14600D01*
X14578Y-29230D01*
X14319Y-28605D01*
X13907Y-28068D01*
X13371Y-27656D01*
X12746Y-27398D01*
X12576Y-27375D01*
D02*
G37*
G36*
X42576D02*
Y-29400D01*
X44600D01*
X44578Y-29230D01*
X44319Y-28605D01*
X43907Y-28068D01*
X43371Y-27656D01*
X42746Y-27398D01*
X42576Y-27375D01*
D02*
G37*
G36*
X41576D02*
X41405Y-27398D01*
X40780Y-27656D01*
X40244Y-28068D01*
X39832Y-28605D01*
X39573Y-29230D01*
X39551Y-29400D01*
X41576D01*
Y-27375D01*
D02*
G37*
G36*
X11576D02*
X11405Y-27398D01*
X10780Y-27656D01*
X10244Y-28068D01*
X9832Y-28605D01*
X9573Y-29230D01*
X9551Y-29400D01*
X11576D01*
Y-27375D01*
D02*
G37*
G36*
X300Y-27782D02*
Y-30800D01*
X3318D01*
X3261Y-30373D01*
X2903Y-29508D01*
X2334Y-28766D01*
X1592Y-28197D01*
X727Y-27839D01*
X300Y-27782D01*
D02*
G37*
G36*
X-700D02*
X-1127Y-27839D01*
X-1992Y-28197D01*
X-2734Y-28766D01*
X-3303Y-29508D01*
X-3661Y-30373D01*
X-3718Y-30800D01*
X-700D01*
Y-27782D01*
D02*
G37*
G36*
X14600Y-30400D02*
X12576D01*
Y-32425D01*
X12746Y-32402D01*
X13371Y-32144D01*
X13907Y-31732D01*
X14319Y-31195D01*
X14578Y-30571D01*
X14600Y-30400D01*
D02*
G37*
G36*
X44600D02*
X42576D01*
Y-32425D01*
X42746Y-32402D01*
X43371Y-32144D01*
X43907Y-31732D01*
X44319Y-31195D01*
X44578Y-30571D01*
X44600Y-30400D01*
D02*
G37*
G36*
X41576D02*
X39551D01*
X39573Y-30571D01*
X39832Y-31195D01*
X40244Y-31732D01*
X40780Y-32144D01*
X41405Y-32402D01*
X41576Y-32425D01*
Y-30400D01*
D02*
G37*
G36*
X11576D02*
X9551D01*
X9573Y-30571D01*
X9832Y-31195D01*
X10244Y-31732D01*
X10780Y-32144D01*
X11405Y-32402D01*
X11576Y-32425D01*
Y-30400D01*
D02*
G37*
G36*
X37076Y-30887D02*
X36496Y-31002D01*
X36005Y-31330D01*
X35677Y-31821D01*
X35562Y-32400D01*
X35677Y-32979D01*
X36005Y-33470D01*
X36496Y-33798D01*
X37076Y-33913D01*
X37655Y-33798D01*
X38146Y-33470D01*
X38474Y-32979D01*
X38589Y-32400D01*
X38474Y-31821D01*
X38146Y-31330D01*
X37655Y-31002D01*
X37076Y-30887D01*
D02*
G37*
G36*
X27076D02*
X26496Y-31002D01*
X26006Y-31330D01*
X25677Y-31821D01*
X25562Y-32400D01*
X25677Y-32979D01*
X26006Y-33470D01*
X26496Y-33798D01*
X27076Y-33913D01*
X27655Y-33798D01*
X28146Y-33470D01*
X28474Y-32979D01*
X28589Y-32400D01*
X28474Y-31821D01*
X28146Y-31330D01*
X27655Y-31002D01*
X27076Y-30887D01*
D02*
G37*
G36*
X22076D02*
X21497Y-31002D01*
X21005Y-31330D01*
X20677Y-31821D01*
X20562Y-32400D01*
X20677Y-32979D01*
X21005Y-33470D01*
X21497Y-33798D01*
X22076Y-33913D01*
X22655Y-33798D01*
X23146Y-33470D01*
X23474Y-32979D01*
X23589Y-32400D01*
X23474Y-31821D01*
X23146Y-31330D01*
X22655Y-31002D01*
X22076Y-30887D01*
D02*
G37*
G36*
X17076D02*
X16497Y-31002D01*
X16005Y-31330D01*
X15677Y-31821D01*
X15562Y-32400D01*
X15677Y-32979D01*
X16005Y-33470D01*
X16497Y-33798D01*
X17076Y-33913D01*
X17655Y-33798D01*
X18146Y-33470D01*
X18474Y-32979D01*
X18589Y-32400D01*
X18474Y-31821D01*
X18146Y-31330D01*
X17655Y-31002D01*
X17076Y-30887D01*
D02*
G37*
G36*
X3318Y-31800D02*
X300D01*
Y-34818D01*
X727Y-34761D01*
X1592Y-34403D01*
X2334Y-33834D01*
X2903Y-33092D01*
X3261Y-32227D01*
X3318Y-31800D01*
D02*
G37*
G36*
X-700D02*
X-3718D01*
X-3661Y-32227D01*
X-3303Y-33092D01*
X-2734Y-33834D01*
X-1992Y-34403D01*
X-1127Y-34761D01*
X-700Y-34818D01*
Y-31800D01*
D02*
G37*
%LPD*%
G36*
X93797Y32311D02*
X93756Y32347D01*
X93708Y32379D01*
X93653Y32407D01*
X93590Y32432D01*
X93521Y32453D01*
X93443Y32470D01*
X93359Y32483D01*
X93267Y32492D01*
X93062Y32500D01*
Y33500D01*
X93168Y33502D01*
X93359Y33517D01*
X93443Y33530D01*
X93521Y33547D01*
X93590Y33568D01*
X93653Y33593D01*
X93708Y33621D01*
X93756Y33653D01*
X93797Y33689D01*
Y32311D01*
D02*
G37*
G36*
Y29311D02*
X93756Y29347D01*
X93708Y29379D01*
X93653Y29407D01*
X93590Y29432D01*
X93521Y29453D01*
X93443Y29470D01*
X93359Y29483D01*
X93267Y29492D01*
X93062Y29500D01*
Y30500D01*
X93168Y30502D01*
X93359Y30517D01*
X93443Y30530D01*
X93521Y30547D01*
X93590Y30568D01*
X93653Y30593D01*
X93708Y30621D01*
X93756Y30653D01*
X93797Y30689D01*
Y29311D01*
D02*
G37*
G36*
Y26136D02*
X93756Y26172D01*
X93708Y26204D01*
X93653Y26233D01*
X93590Y26257D01*
X93521Y26278D01*
X93443Y26295D01*
X93359Y26308D01*
X93267Y26318D01*
X93062Y26325D01*
Y27325D01*
X93168Y27327D01*
X93359Y27342D01*
X93443Y27355D01*
X93521Y27372D01*
X93590Y27393D01*
X93653Y27418D01*
X93708Y27446D01*
X93756Y27478D01*
X93797Y27514D01*
Y26136D01*
D02*
G37*
G36*
X67096Y5905D02*
X67127Y5820D01*
X67177Y5745D01*
X67248Y5680D01*
X67339Y5625D01*
X67450Y5580D01*
X67582Y5545D01*
X67734Y5520D01*
X67906Y5505D01*
X68098Y5500D01*
Y4500D01*
X67906Y4495D01*
X67734Y4480D01*
X67582Y4455D01*
X67450Y4420D01*
X67339Y4375D01*
X67248Y4320D01*
X67177Y4255D01*
X67127Y4180D01*
X67096Y4095D01*
X67086Y4000D01*
Y6000D01*
X67096Y5905D01*
D02*
G37*
G36*
Y-4095D02*
X67127Y-4180D01*
X67177Y-4255D01*
X67248Y-4320D01*
X67339Y-4375D01*
X67450Y-4420D01*
X67582Y-4455D01*
X67734Y-4480D01*
X67906Y-4495D01*
X68098Y-4500D01*
Y-5500D01*
X67906Y-5505D01*
X67734Y-5520D01*
X67582Y-5545D01*
X67450Y-5580D01*
X67339Y-5625D01*
X67248Y-5680D01*
X67177Y-5745D01*
X67127Y-5820D01*
X67096Y-5905D01*
X67086Y-6000D01*
Y-4000D01*
X67096Y-4095D01*
D02*
G37*
G36*
Y-14095D02*
X67127Y-14180D01*
X67177Y-14255D01*
X67248Y-14320D01*
X67339Y-14375D01*
X67450Y-14420D01*
X67582Y-14455D01*
X67734Y-14480D01*
X67906Y-14495D01*
X68098Y-14500D01*
Y-15500D01*
X67906Y-15505D01*
X67734Y-15520D01*
X67582Y-15545D01*
X67450Y-15580D01*
X67339Y-15625D01*
X67248Y-15680D01*
X67177Y-15745D01*
X67127Y-15820D01*
X67096Y-15905D01*
X67086Y-16000D01*
Y-14000D01*
X67096Y-14095D01*
D02*
G37*
G36*
X66111Y27843D02*
X66126Y27671D01*
X66151Y27519D01*
X66186Y27388D01*
X66231Y27277D01*
X66286Y27185D01*
X66351Y27115D01*
X66426Y27064D01*
X66511Y27034D01*
X66606Y27024D01*
X64606D01*
X64701Y27034D01*
X64786Y27064D01*
X64861Y27115D01*
X64926Y27185D01*
X64981Y27277D01*
X65026Y27388D01*
X65061Y27519D01*
X65086Y27671D01*
X65101Y27843D01*
X65106Y28036D01*
X66106D01*
X66111Y27843D01*
D02*
G37*
G36*
X95053Y19056D02*
X95021Y19008D01*
X94993Y18953D01*
X94968Y18891D01*
X94947Y18821D01*
X94930Y18743D01*
X94917Y18659D01*
X94908Y18567D01*
X94900Y18362D01*
X93900D01*
X93898Y18468D01*
X93883Y18659D01*
X93870Y18743D01*
X93853Y18821D01*
X93832Y18891D01*
X93807Y18953D01*
X93779Y19008D01*
X93747Y19056D01*
X93711Y19097D01*
X95089D01*
X95053Y19056D01*
D02*
G37*
G36*
X90502Y5132D02*
X90517Y4941D01*
X90530Y4857D01*
X90547Y4779D01*
X90568Y4710D01*
X90593Y4647D01*
X90621Y4592D01*
X90653Y4544D01*
X90689Y4503D01*
X89311D01*
X89347Y4544D01*
X89379Y4592D01*
X89407Y4647D01*
X89432Y4710D01*
X89453Y4779D01*
X89470Y4857D01*
X89483Y4941D01*
X89492Y5033D01*
X89500Y5238D01*
X90500D01*
X90502Y5132D01*
D02*
G37*
G36*
X67805Y-22860D02*
X67601Y-23071D01*
X67282Y-23446D01*
X67166Y-23611D01*
X67079Y-23760D01*
X67022Y-23894D01*
X66994Y-24012D01*
X66995Y-24115D01*
X67026Y-24202D01*
X67086Y-24274D01*
X65579Y-22976D01*
X65661Y-23027D01*
X65755Y-23051D01*
X65864Y-23047D01*
X65985Y-23016D01*
X66120Y-22958D01*
X66268Y-22872D01*
X66429Y-22759D01*
X66604Y-22619D01*
X66994Y-22257D01*
X67805Y-22860D01*
D02*
G37*
G36*
X74153Y27756D02*
X74121Y27708D01*
X74093Y27653D01*
X74068Y27591D01*
X74047Y27521D01*
X74030Y27443D01*
X74017Y27359D01*
X74008Y27267D01*
X74000Y27062D01*
X73000D01*
X72998Y27168D01*
X72983Y27359D01*
X72970Y27443D01*
X72953Y27521D01*
X72932Y27591D01*
X72907Y27653D01*
X72879Y27708D01*
X72847Y27756D01*
X72811Y27797D01*
X74189D01*
X74153Y27756D01*
D02*
G37*
G36*
X74002Y23832D02*
X74017Y23641D01*
X74030Y23557D01*
X74047Y23479D01*
X74068Y23410D01*
X74093Y23347D01*
X74121Y23292D01*
X74153Y23244D01*
X74189Y23203D01*
X72811D01*
X72847Y23244D01*
X72879Y23292D01*
X72907Y23347D01*
X72932Y23410D01*
X72953Y23479D01*
X72970Y23557D01*
X72983Y23641D01*
X72992Y23733D01*
X73000Y23938D01*
X74000D01*
X74002Y23832D01*
D02*
G37*
G36*
X74153Y21756D02*
X74121Y21708D01*
X74093Y21653D01*
X74068Y21590D01*
X74047Y21521D01*
X74030Y21443D01*
X74017Y21359D01*
X74008Y21267D01*
X74000Y21062D01*
X73000D01*
X72998Y21168D01*
X72983Y21359D01*
X72970Y21443D01*
X72953Y21521D01*
X72932Y21590D01*
X72907Y21653D01*
X72879Y21708D01*
X72847Y21756D01*
X72811Y21797D01*
X74189D01*
X74153Y21756D01*
D02*
G37*
G36*
X74002Y11332D02*
X74017Y11141D01*
X74030Y11057D01*
X74047Y10979D01*
X74068Y10909D01*
X74093Y10847D01*
X74121Y10792D01*
X74153Y10744D01*
X74189Y10703D01*
X72811D01*
X72847Y10744D01*
X72879Y10792D01*
X72907Y10847D01*
X72932Y10909D01*
X72953Y10979D01*
X72970Y11057D01*
X72983Y11141D01*
X72992Y11233D01*
X73000Y11438D01*
X74000D01*
X74002Y11332D01*
D02*
G37*
G36*
X7175Y7749D02*
X7167Y7771D01*
X7143Y7791D01*
X7102Y7808D01*
X7045Y7824D01*
X6973Y7837D01*
X6884Y7847D01*
X6657Y7861D01*
X6366Y7866D01*
Y8866D01*
X6520Y8867D01*
X6973Y8895D01*
X7045Y8908D01*
X7102Y8923D01*
X7143Y8941D01*
X7167Y8961D01*
X7175Y8983D01*
Y7749D01*
D02*
G37*
G36*
X12849Y7376D02*
X12835Y7469D01*
X12792Y7552D01*
X12720Y7626D01*
X12621Y7689D01*
X12492Y7743D01*
X12335Y7788D01*
X12150Y7822D01*
X11936Y7846D01*
X11693Y7861D01*
X11423Y7866D01*
Y8866D01*
X11693Y8871D01*
X12150Y8910D01*
X12335Y8945D01*
X12492Y8989D01*
X12621Y9043D01*
X12720Y9106D01*
X12792Y9180D01*
X12835Y9263D01*
X12849Y9357D01*
Y7376D01*
D02*
G37*
G36*
X9016Y9263D02*
X9059Y9180D01*
X9131Y9106D01*
X9230Y9043D01*
X9359Y8989D01*
X9516Y8945D01*
X9701Y8910D01*
X9915Y8886D01*
X10158Y8871D01*
X10429Y8866D01*
Y7866D01*
X10158Y7861D01*
X9701Y7822D01*
X9516Y7788D01*
X9359Y7743D01*
X9230Y7689D01*
X9131Y7626D01*
X9059Y7552D01*
X9016Y7469D01*
X9002Y7376D01*
Y9357D01*
X9016Y9263D01*
D02*
G37*
G36*
X9450Y1530D02*
X9409Y1456D01*
X9400Y1374D01*
X9423Y1283D01*
X9479Y1184D01*
X9567Y1076D01*
X9687Y960D01*
X9839Y835D01*
X10024Y701D01*
X10241Y558D01*
X9341Y-57D01*
X9195Y31D01*
X8905Y185D01*
X8760Y251D01*
X8471Y362D01*
X8327Y406D01*
X8038Y473D01*
X7894Y496D01*
X9524Y1595D01*
X9450Y1530D01*
D02*
G37*
G36*
X11948Y-510D02*
X12316Y-695D01*
X12471Y-752D01*
X12607Y-785D01*
X12723Y-795D01*
X12821Y-780D01*
X12900Y-742D01*
X12959Y-681D01*
X12999Y-595D01*
X12468Y-2283D01*
X12432Y-2211D01*
X12383Y-2136D01*
X12320Y-2058D01*
X12243Y-1976D01*
X12152Y-1891D01*
X11930Y-1710D01*
X11799Y-1614D01*
X11494Y-1412D01*
X11736Y-382D01*
X11948Y-510D01*
D02*
G37*
G36*
X7175Y-8983D02*
X7167Y-8961D01*
X7143Y-8941D01*
X7102Y-8923D01*
X7045Y-8908D01*
X6973Y-8895D01*
X6884Y-8885D01*
X6657Y-8871D01*
X6366Y-8866D01*
Y-7866D01*
X6520Y-7865D01*
X6973Y-7837D01*
X7045Y-7824D01*
X7102Y-7808D01*
X7143Y-7791D01*
X7167Y-7771D01*
X7175Y-7749D01*
Y-8983D01*
D02*
G37*
G36*
X12849Y-9357D02*
X12835Y-9263D01*
X12792Y-9180D01*
X12720Y-9106D01*
X12621Y-9043D01*
X12492Y-8989D01*
X12335Y-8945D01*
X12150Y-8910D01*
X11936Y-8886D01*
X11693Y-8871D01*
X11423Y-8866D01*
Y-7866D01*
X11693Y-7861D01*
X12150Y-7822D01*
X12335Y-7788D01*
X12492Y-7743D01*
X12621Y-7689D01*
X12720Y-7626D01*
X12792Y-7552D01*
X12835Y-7469D01*
X12849Y-7376D01*
Y-9357D01*
D02*
G37*
G36*
X9016Y-7469D02*
X9059Y-7552D01*
X9131Y-7626D01*
X9230Y-7689D01*
X9359Y-7743D01*
X9516Y-7788D01*
X9701Y-7822D01*
X9915Y-7846D01*
X10158Y-7861D01*
X10429Y-7866D01*
Y-8866D01*
X10158Y-8871D01*
X9701Y-8910D01*
X9516Y-8945D01*
X9359Y-8989D01*
X9230Y-9043D01*
X9131Y-9106D01*
X9059Y-9180D01*
X9016Y-9263D01*
X9002Y-9357D01*
Y-7376D01*
X9016Y-7469D01*
D02*
G37*
G36*
X40653Y-14744D02*
X40621Y-14792D01*
X40593Y-14847D01*
X40568Y-14909D01*
X40547Y-14979D01*
X40530Y-15057D01*
X40517Y-15141D01*
X40508Y-15233D01*
X40500Y-15438D01*
X39500D01*
X39498Y-15332D01*
X39483Y-15141D01*
X39470Y-15057D01*
X39453Y-14979D01*
X39432Y-14909D01*
X39407Y-14847D01*
X39379Y-14792D01*
X39347Y-14744D01*
X39311Y-14703D01*
X40689D01*
X40653Y-14744D01*
D02*
G37*
G36*
X35053Y-21544D02*
X35021Y-21592D01*
X34993Y-21647D01*
X34968Y-21710D01*
X34947Y-21779D01*
X34930Y-21857D01*
X34917Y-21941D01*
X34908Y-22033D01*
X34900Y-22238D01*
X33900D01*
X33898Y-22132D01*
X33883Y-21941D01*
X33870Y-21857D01*
X33853Y-21779D01*
X33832Y-21710D01*
X33807Y-21647D01*
X33779Y-21592D01*
X33747Y-21544D01*
X33711Y-21503D01*
X35089D01*
X35053Y-21544D01*
D02*
G37*
G36*
X38446Y-26737D02*
X38372Y-26813D01*
X38248Y-26959D01*
X38198Y-27028D01*
X38155Y-27094D01*
X38120Y-27159D01*
X38094Y-27220D01*
X38074Y-27279D01*
X38063Y-27336D01*
X38060Y-27390D01*
X37085Y-26416D01*
X37140Y-26412D01*
X37196Y-26401D01*
X37255Y-26382D01*
X37317Y-26355D01*
X37381Y-26320D01*
X37448Y-26278D01*
X37517Y-26228D01*
X37589Y-26169D01*
X37739Y-26029D01*
X38446Y-26737D01*
D02*
G37*
G36*
X33446Y-31736D02*
X33372Y-31813D01*
X33248Y-31959D01*
X33198Y-32028D01*
X33155Y-32094D01*
X33120Y-32159D01*
X33094Y-32220D01*
X33074Y-32279D01*
X33063Y-32336D01*
X33060Y-32390D01*
X32085Y-31416D01*
X32140Y-31412D01*
X32196Y-31401D01*
X32255Y-31382D01*
X32317Y-31355D01*
X32381Y-31321D01*
X32448Y-31278D01*
X32517Y-31228D01*
X32588Y-31169D01*
X32739Y-31029D01*
X33446Y-31736D01*
D02*
G37*
D17*
X64958Y-25000D02*
X88016Y-1942D01*
Y10037D02*
X94400Y16421D01*
X88016Y-1942D02*
Y10037D01*
X94400Y16421D02*
Y19800D01*
X98500Y18400D02*
Y35000D01*
X90000Y9900D02*
X98500Y18400D01*
X90000Y3800D02*
Y9900D01*
X77516Y25016D02*
X85500Y33000D01*
X77516Y7016D02*
Y25016D01*
X75500Y5000D02*
X77516Y7016D01*
X81500Y24000D02*
X87500Y30000D01*
X81500Y4900D02*
Y24000D01*
X71600Y-5000D02*
X81500Y4900D01*
X65000Y-5000D02*
X71600D01*
X64500Y-15000D02*
X68500D01*
X8059Y1341D02*
X12846Y-1673D01*
X7532Y1673D02*
X8059Y1341D01*
X5500Y7500D02*
X6366Y8366D01*
X5500Y-7500D02*
Y7500D01*
Y-7500D02*
X6366Y-8366D01*
X8269D01*
Y8366D02*
X12846D01*
X6366D02*
X8269D01*
Y-8366D02*
X12846D01*
X65606Y28706D02*
X73000Y36100D01*
X65606Y26020D02*
Y28706D01*
X65000Y5000D02*
X75500D01*
X73000Y36100D02*
X97400D01*
X87500Y30000D02*
X94500D01*
X85500Y33000D02*
X94500D01*
X84700Y1200D02*
Y22200D01*
X97400Y36100D02*
X98500Y35000D01*
X68500Y-15000D02*
X84700Y1200D01*
X89325Y26825D02*
X94500D01*
X84700Y22200D02*
X89325Y26825D01*
X12620Y-1745D02*
X12665Y-1773D01*
X40000Y-24476D02*
Y-14000D01*
X37076Y-27400D02*
X40000Y-24476D01*
X73500Y22500D02*
Y28500D01*
Y10000D02*
Y22500D01*
X34400Y-30076D02*
Y-20800D01*
X32076Y-32400D02*
X34400Y-30076D01*
D38*
X42076Y-29900D02*
D03*
X12076D02*
D03*
D48*
X13582Y11713D02*
D03*
Y8366D02*
D03*
Y5020D02*
D03*
Y1673D02*
D03*
Y-1673D02*
D03*
Y-5020D02*
D03*
Y-8366D02*
D03*
Y-11713D02*
D03*
X8269D02*
D03*
Y-8366D02*
D03*
Y-5020D02*
D03*
Y-1673D02*
D03*
Y1673D02*
D03*
Y5020D02*
D03*
Y8366D02*
D03*
Y11713D02*
D03*
D49*
X9725Y17028D02*
D03*
Y-17028D02*
D03*
D50*
X-3582D02*
D03*
Y17028D02*
D03*
D51*
X-200Y-31300D02*
D03*
D52*
X94400Y19800D02*
D03*
X90400Y16300D02*
D03*
X17076Y-27400D02*
D03*
X79500Y14500D02*
D03*
X102000Y-31000D02*
D03*
Y29000D02*
D03*
Y19000D02*
D03*
Y9000D02*
D03*
Y-1000D02*
D03*
Y-21000D02*
D03*
Y-11000D02*
D03*
X57100Y-9700D02*
D03*
X66600D02*
D03*
X94500Y33000D02*
D03*
Y30000D02*
D03*
Y26825D02*
D03*
X90000Y3800D02*
D03*
X40000Y-14000D02*
D03*
X43000Y10600D02*
D03*
X16143Y100D02*
D03*
X17300Y-10500D02*
D03*
X34200Y-6700D02*
D03*
X20500Y-14600D02*
D03*
X31600Y-18100D02*
D03*
X37500Y-18000D02*
D03*
X42300D02*
D03*
X79000D02*
D03*
X87000Y-32500D02*
D03*
X56500Y28500D02*
D03*
X17076Y-32400D02*
D03*
X42800Y-9500D02*
D03*
X73500Y22500D02*
D03*
Y28500D02*
D03*
X30000Y15500D02*
D03*
X61000Y-29000D02*
D03*
X73800Y-22300D02*
D03*
X34400Y-20800D02*
D03*
X83500Y-14000D02*
D03*
X73500Y10000D02*
D03*
X58300Y-32600D02*
D03*
X13600Y36000D02*
D03*
X45700D02*
D03*
X29781D02*
D03*
X30000Y20500D02*
D03*
X50900Y20600D02*
D03*
X37076Y-32400D02*
D03*
X32076Y-32400D02*
D03*
X27076Y-32400D02*
D03*
X22076D02*
D03*
X37076Y-27400D02*
D03*
X32076D02*
D03*
X27076D02*
D03*
X49100Y-14200D02*
D03*
X43500Y19400D02*
D03*
D53*
X63350Y-25000D02*
D03*
Y-15000D02*
D03*
Y-5000D02*
D03*
Y5000D02*
D03*
Y15000D02*
D03*
Y25000D02*
D03*
M02*
