M48
;Layer_Color=9474304
;FILE_FORMAT=2:5
INCH,TZ
;TYPE=PLATED
T1F00S00C0.01181
T2F00S00C0.01575
T4F00S00C0.02717
T5F00S00C0.03543
%
T01
X17076Y-32400
Y-27400
X22076Y-32400
X27076
Y-27400
X32076
X37076
Y-32400
X32076Y-32400
X34400Y-20800
X31600Y-18100
X37500Y-18000
X42300
X40000Y-14000
X42800Y-9500
X49100Y-14200
X57100Y-9700
X66600
X73800Y-22300
X79000Y-18000
X83500Y-14000
X87000Y-32500
X58300Y-32600
X61000Y-29000
X34200Y-6700
X17300Y-10500
X20500Y-14600
X16143Y100
X30000Y15500
Y20500
X43500Y19400
X50900Y20600
X56500Y28500
X73500
Y22500
Y10000
X79500Y14500
X90400Y16300
X94400Y19800
X94500Y26825
Y30000
Y33000
X90000Y3800
X43000Y10600
X45700Y36000
X29781
X13600
X102000Y29000
Y19000
Y9000
Y-1000
Y-11000
Y-21000
Y-31000
T02
X8269Y-11713
Y-8366
Y-5020
Y-1673
Y1673
Y5020
Y8366
Y11713
X13582
Y8366
Y5020
Y1673
Y-1673
Y-5020
Y-8366
Y-11713
T04
X12076Y-29900
X42076
T05
X-200Y-31300
M30
