G04*
G04 #@! TF.GenerationSoftware,Altium Limited,Altium Designer,19.1.8 (144)*
G04*
G04 Layer_Color=32896*
%FSLAX25Y25*%
%MOIN*%
G70*
G01*
G75*
%ADD10C,0.02000*%
%ADD14C,0.01000*%
%ADD27C,0.01500*%
%ADD94C,0.00700*%
G36*
X73160Y295485D02*
Y295385D01*
Y295285D01*
Y295185D01*
Y295085D01*
Y294985D01*
Y294885D01*
Y294785D01*
Y294685D01*
Y294585D01*
Y294485D01*
Y294385D01*
Y294285D01*
Y294185D01*
Y294085D01*
Y293985D01*
Y293885D01*
Y293785D01*
Y293685D01*
Y293585D01*
Y293485D01*
Y293385D01*
Y293285D01*
Y293185D01*
Y293085D01*
Y292985D01*
Y292885D01*
Y292785D01*
Y292685D01*
Y292585D01*
Y292485D01*
Y292385D01*
Y292285D01*
Y292185D01*
Y292085D01*
Y291985D01*
Y291885D01*
Y291785D01*
Y291685D01*
Y291585D01*
Y291485D01*
Y291385D01*
Y291285D01*
Y291185D01*
Y291085D01*
Y290985D01*
Y290885D01*
Y290785D01*
Y290685D01*
Y290585D01*
Y290485D01*
Y290385D01*
Y290285D01*
Y290185D01*
Y290085D01*
Y289985D01*
Y289885D01*
Y289785D01*
Y289685D01*
Y289585D01*
Y289485D01*
Y289385D01*
Y289285D01*
Y289185D01*
Y289085D01*
Y288985D01*
Y288885D01*
Y288785D01*
Y288685D01*
Y288585D01*
Y288485D01*
Y288385D01*
Y288285D01*
Y288185D01*
Y288085D01*
Y287985D01*
Y287885D01*
Y287785D01*
Y287685D01*
Y287585D01*
Y287485D01*
Y287385D01*
Y287285D01*
Y287185D01*
Y287085D01*
Y286985D01*
Y286885D01*
Y286785D01*
Y286685D01*
Y286585D01*
Y286485D01*
Y286385D01*
Y286285D01*
Y286185D01*
Y286085D01*
Y285985D01*
Y285885D01*
Y285785D01*
Y285685D01*
Y285585D01*
Y285485D01*
Y285385D01*
Y285285D01*
Y285185D01*
Y285085D01*
Y284985D01*
Y284885D01*
Y284785D01*
Y284685D01*
Y284585D01*
Y284485D01*
Y284385D01*
Y284285D01*
Y284185D01*
Y284085D01*
Y283985D01*
Y283885D01*
Y283785D01*
Y283685D01*
Y283585D01*
Y283485D01*
Y283385D01*
Y283285D01*
Y283185D01*
Y283085D01*
Y282985D01*
Y282885D01*
Y282785D01*
Y282685D01*
Y282585D01*
Y282485D01*
Y282385D01*
Y282285D01*
Y282185D01*
Y282085D01*
Y281985D01*
Y281885D01*
Y281785D01*
Y281685D01*
Y281585D01*
Y281485D01*
Y281385D01*
Y281285D01*
Y281185D01*
Y281085D01*
Y280985D01*
Y280885D01*
Y280785D01*
Y280685D01*
Y280585D01*
Y280485D01*
Y280385D01*
Y280285D01*
Y280185D01*
Y280085D01*
Y279985D01*
Y279885D01*
Y279785D01*
Y279685D01*
Y279585D01*
Y279485D01*
Y279385D01*
Y279285D01*
Y279185D01*
Y279085D01*
Y278985D01*
Y278885D01*
Y278785D01*
Y278685D01*
Y278585D01*
Y278485D01*
Y278385D01*
Y278285D01*
Y278185D01*
Y278085D01*
Y277985D01*
Y277885D01*
Y277785D01*
Y277685D01*
Y277585D01*
Y277485D01*
Y277385D01*
Y277285D01*
Y277185D01*
Y277085D01*
Y276985D01*
Y276885D01*
Y276785D01*
Y276685D01*
Y276585D01*
Y276485D01*
Y276385D01*
Y276285D01*
Y276185D01*
Y276085D01*
Y275985D01*
Y275885D01*
Y275785D01*
Y275685D01*
Y275585D01*
Y275485D01*
Y275385D01*
Y275285D01*
Y275185D01*
Y275085D01*
Y274985D01*
Y274885D01*
Y274785D01*
Y274685D01*
Y274585D01*
Y274485D01*
Y274385D01*
Y274285D01*
Y274185D01*
Y274085D01*
Y273985D01*
Y273885D01*
Y273785D01*
Y273685D01*
Y273585D01*
Y273485D01*
Y273385D01*
Y273285D01*
Y273185D01*
Y273085D01*
Y272985D01*
Y272885D01*
Y272785D01*
Y272685D01*
Y272585D01*
Y272485D01*
Y272385D01*
Y272285D01*
Y272185D01*
Y272085D01*
Y271985D01*
Y271885D01*
Y271785D01*
Y271685D01*
Y271585D01*
Y271485D01*
Y271385D01*
Y271285D01*
Y271185D01*
Y271085D01*
Y270985D01*
Y270885D01*
Y270785D01*
Y270685D01*
Y270585D01*
Y270485D01*
Y270385D01*
Y270285D01*
Y270185D01*
Y270085D01*
Y269985D01*
Y269885D01*
Y269785D01*
Y269685D01*
Y269585D01*
Y269485D01*
Y269385D01*
Y269285D01*
Y269185D01*
Y269085D01*
Y268985D01*
Y268885D01*
Y268785D01*
Y268685D01*
Y268585D01*
Y268485D01*
Y268385D01*
Y268285D01*
Y268185D01*
Y268085D01*
Y267985D01*
Y267885D01*
Y267785D01*
Y267685D01*
Y267585D01*
Y267485D01*
Y267385D01*
Y267285D01*
Y267185D01*
Y267085D01*
Y266985D01*
Y266885D01*
Y266785D01*
Y266685D01*
Y266585D01*
Y266485D01*
Y266385D01*
Y266285D01*
Y266185D01*
Y266085D01*
Y265985D01*
Y265885D01*
Y265785D01*
Y265685D01*
Y265585D01*
Y265485D01*
Y265385D01*
Y265285D01*
Y265185D01*
Y265085D01*
Y264985D01*
Y264885D01*
Y264785D01*
Y264685D01*
Y264585D01*
Y264485D01*
Y264385D01*
Y264285D01*
Y264185D01*
Y264085D01*
Y263985D01*
Y263885D01*
Y263785D01*
Y263685D01*
Y263585D01*
Y263485D01*
Y263385D01*
Y263285D01*
Y263185D01*
Y263085D01*
Y262985D01*
Y262885D01*
Y262785D01*
Y262685D01*
Y262585D01*
Y262485D01*
Y262385D01*
Y262285D01*
Y262185D01*
Y262085D01*
Y261985D01*
Y261885D01*
Y261785D01*
Y261685D01*
Y261585D01*
Y261485D01*
Y261385D01*
Y261285D01*
Y261185D01*
Y261085D01*
Y260985D01*
Y260885D01*
Y260785D01*
Y260685D01*
Y260585D01*
Y260485D01*
Y260385D01*
Y260285D01*
Y260185D01*
Y260085D01*
Y259985D01*
Y259885D01*
Y259785D01*
Y259685D01*
Y259585D01*
Y259485D01*
Y259385D01*
Y259285D01*
Y259185D01*
Y259085D01*
Y258985D01*
Y258885D01*
Y258785D01*
Y258685D01*
Y258585D01*
Y258485D01*
Y258385D01*
Y258285D01*
Y258185D01*
Y258085D01*
Y257985D01*
Y257885D01*
Y257785D01*
Y257685D01*
Y257585D01*
Y257485D01*
Y257385D01*
Y257285D01*
Y257185D01*
Y257085D01*
Y256985D01*
Y256885D01*
Y256785D01*
Y256685D01*
Y256585D01*
Y256485D01*
Y256385D01*
Y256285D01*
Y256185D01*
Y256085D01*
Y255985D01*
Y255885D01*
Y255785D01*
Y255685D01*
Y255585D01*
Y255485D01*
Y255385D01*
Y255285D01*
Y255185D01*
Y255085D01*
Y254985D01*
Y254885D01*
Y254785D01*
Y254685D01*
Y254585D01*
Y254485D01*
Y254385D01*
Y254285D01*
Y254185D01*
Y254085D01*
Y253985D01*
Y253885D01*
Y253785D01*
Y253685D01*
Y253585D01*
Y253485D01*
Y253385D01*
Y253285D01*
Y253185D01*
Y253085D01*
Y252985D01*
Y252885D01*
X30260D01*
Y252985D01*
Y253085D01*
Y253185D01*
Y253285D01*
Y253385D01*
Y253485D01*
Y253585D01*
Y253685D01*
Y253785D01*
Y253885D01*
Y253985D01*
Y254085D01*
Y254185D01*
Y254285D01*
Y254385D01*
Y254485D01*
Y254585D01*
Y254685D01*
Y254785D01*
Y254885D01*
Y254985D01*
Y255085D01*
Y255185D01*
Y255285D01*
Y255385D01*
Y255485D01*
Y255585D01*
Y255685D01*
Y255785D01*
Y255885D01*
Y255985D01*
Y256085D01*
Y256185D01*
Y256285D01*
Y256385D01*
Y256485D01*
Y256585D01*
Y256685D01*
Y256785D01*
Y256885D01*
Y256985D01*
Y257085D01*
Y257185D01*
Y257285D01*
Y257385D01*
Y257485D01*
Y257585D01*
Y257685D01*
Y257785D01*
Y257885D01*
Y257985D01*
Y258085D01*
Y258185D01*
Y258285D01*
Y258385D01*
Y258485D01*
Y258585D01*
Y258685D01*
Y258785D01*
Y258885D01*
Y258985D01*
Y259085D01*
Y259185D01*
Y259285D01*
Y259385D01*
Y259485D01*
Y259585D01*
Y259685D01*
Y259785D01*
Y259885D01*
Y259985D01*
Y260085D01*
Y260185D01*
Y260285D01*
Y260385D01*
Y260485D01*
Y260585D01*
Y260685D01*
Y260785D01*
Y260885D01*
Y260985D01*
Y261085D01*
Y261185D01*
Y261285D01*
Y261385D01*
Y261485D01*
Y261585D01*
Y261685D01*
Y261785D01*
Y261885D01*
Y261985D01*
Y262085D01*
Y262185D01*
Y262285D01*
Y262385D01*
Y262485D01*
Y262585D01*
Y262685D01*
Y262785D01*
Y262885D01*
Y262985D01*
Y263085D01*
Y263185D01*
Y263285D01*
Y263385D01*
Y263485D01*
Y263585D01*
Y263685D01*
Y263785D01*
Y263885D01*
Y263985D01*
Y264085D01*
Y264185D01*
Y264285D01*
Y264385D01*
Y264485D01*
Y264585D01*
Y264685D01*
Y264785D01*
Y264885D01*
Y264985D01*
Y265085D01*
Y265185D01*
Y265285D01*
Y265385D01*
Y265485D01*
Y265585D01*
Y265685D01*
Y265785D01*
Y265885D01*
Y265985D01*
Y266085D01*
Y266185D01*
Y266285D01*
Y266385D01*
Y266485D01*
Y266585D01*
Y266685D01*
Y266785D01*
Y266885D01*
Y266985D01*
Y267085D01*
Y267185D01*
Y267285D01*
Y267385D01*
Y267485D01*
Y267585D01*
Y267685D01*
Y267785D01*
Y267885D01*
Y267985D01*
Y268085D01*
Y268185D01*
Y268285D01*
Y268385D01*
Y268485D01*
Y268585D01*
Y268685D01*
Y268785D01*
Y268885D01*
Y268985D01*
Y269085D01*
Y269185D01*
Y269285D01*
Y269385D01*
Y269485D01*
Y269585D01*
Y269685D01*
Y269785D01*
Y269885D01*
Y269985D01*
Y270085D01*
Y270185D01*
Y270285D01*
Y270385D01*
Y270485D01*
Y270585D01*
Y270685D01*
Y270785D01*
Y270885D01*
Y270985D01*
Y271085D01*
Y271185D01*
Y271285D01*
Y271385D01*
Y271485D01*
Y271585D01*
Y271685D01*
Y271785D01*
Y271885D01*
Y271985D01*
Y272085D01*
Y272185D01*
Y272285D01*
Y272385D01*
Y272485D01*
Y272585D01*
Y272685D01*
Y272785D01*
Y272885D01*
Y272985D01*
Y273085D01*
Y273185D01*
Y273285D01*
Y273385D01*
Y273485D01*
Y273585D01*
Y273685D01*
Y273785D01*
Y273885D01*
Y273985D01*
Y274085D01*
Y274185D01*
Y274285D01*
Y274385D01*
Y274485D01*
Y274585D01*
Y274685D01*
Y274785D01*
Y274885D01*
Y274985D01*
Y275085D01*
Y275185D01*
Y275285D01*
Y275385D01*
Y275485D01*
Y275585D01*
Y275685D01*
Y275785D01*
Y275885D01*
Y275985D01*
Y276085D01*
Y276185D01*
Y276285D01*
Y276385D01*
Y276485D01*
Y276585D01*
Y276685D01*
Y276785D01*
Y276885D01*
Y276985D01*
Y277085D01*
Y277185D01*
Y277285D01*
Y277385D01*
Y277485D01*
Y277585D01*
Y277685D01*
Y277785D01*
Y277885D01*
Y277985D01*
Y278085D01*
Y278185D01*
Y278285D01*
Y278385D01*
Y278485D01*
Y278585D01*
Y278685D01*
Y278785D01*
Y278885D01*
Y278985D01*
Y279085D01*
Y279185D01*
Y279285D01*
Y279385D01*
Y279485D01*
Y279585D01*
Y279685D01*
Y279785D01*
Y279885D01*
Y279985D01*
Y280085D01*
Y280185D01*
Y280285D01*
Y280385D01*
Y280485D01*
Y280585D01*
Y280685D01*
Y280785D01*
Y280885D01*
Y280985D01*
Y281085D01*
Y281185D01*
Y281285D01*
Y281385D01*
Y281485D01*
Y281585D01*
Y281685D01*
Y281785D01*
Y281885D01*
Y281985D01*
Y282085D01*
Y282185D01*
Y282285D01*
Y282385D01*
Y282485D01*
Y282585D01*
Y282685D01*
Y282785D01*
Y282885D01*
Y282985D01*
Y283085D01*
Y283185D01*
Y283285D01*
Y283385D01*
Y283485D01*
Y283585D01*
Y283685D01*
Y283785D01*
Y283885D01*
Y283985D01*
Y284085D01*
Y284185D01*
Y284285D01*
Y284385D01*
Y284485D01*
Y284585D01*
Y284685D01*
Y284785D01*
Y284885D01*
Y284985D01*
Y285085D01*
Y285185D01*
Y285285D01*
Y285385D01*
Y285485D01*
Y285585D01*
Y285685D01*
Y285785D01*
Y285885D01*
Y285985D01*
Y286085D01*
Y286185D01*
Y286285D01*
Y286385D01*
Y286485D01*
Y286585D01*
Y286685D01*
Y286785D01*
Y286885D01*
Y286985D01*
Y287085D01*
Y287185D01*
Y287285D01*
Y287385D01*
Y287485D01*
Y287585D01*
Y287685D01*
Y287785D01*
Y287885D01*
Y287985D01*
Y288085D01*
Y288185D01*
Y288285D01*
Y288385D01*
Y288485D01*
Y288585D01*
Y288685D01*
Y288785D01*
Y288885D01*
Y288985D01*
Y289085D01*
Y289185D01*
Y289285D01*
Y289385D01*
Y289485D01*
Y289585D01*
Y289685D01*
Y289785D01*
Y289885D01*
Y289985D01*
Y290085D01*
Y290185D01*
Y290285D01*
Y290385D01*
Y290485D01*
Y290585D01*
Y290685D01*
Y290785D01*
Y290885D01*
Y290985D01*
Y291085D01*
Y291185D01*
Y291285D01*
Y291385D01*
Y291485D01*
Y291585D01*
Y291685D01*
Y291785D01*
Y291885D01*
Y291985D01*
Y292085D01*
Y292185D01*
Y292285D01*
Y292385D01*
Y292485D01*
Y292585D01*
Y292685D01*
Y292785D01*
Y292885D01*
Y292985D01*
Y293085D01*
Y293185D01*
Y293285D01*
Y293385D01*
Y293485D01*
Y293585D01*
Y293685D01*
Y293785D01*
Y293885D01*
Y293985D01*
Y294085D01*
Y294185D01*
Y294285D01*
Y294385D01*
Y294485D01*
Y294585D01*
Y294685D01*
Y294785D01*
Y294885D01*
Y294985D01*
Y295085D01*
Y295185D01*
Y295285D01*
Y295385D01*
Y295485D01*
Y295585D01*
X73160D01*
Y295485D01*
D02*
G37*
G36*
X37412Y236430D02*
X37434Y236407D01*
X37456Y236342D01*
X37828Y234369D01*
Y234347D01*
X37850Y234325D01*
X37872Y234281D01*
X37916Y234259D01*
X39253Y233711D01*
X39385D01*
X41029Y234873D01*
X41094D01*
X41138Y234851D01*
X41182Y234829D01*
X42585Y233470D01*
Y233448D01*
Y233383D01*
Y233361D01*
Y233317D01*
X41467Y231673D01*
Y231651D01*
Y231607D01*
Y231585D01*
Y231519D01*
X42081Y230160D01*
Y230138D01*
X42103Y230117D01*
X42125Y230095D01*
X42169Y230073D01*
X44054Y229744D01*
X44076D01*
X44098Y229722D01*
X44119Y229700D01*
X44141Y229634D01*
Y227661D01*
Y227640D01*
Y227618D01*
X44098Y227574D01*
X44054Y227552D01*
X42212Y227179D01*
X42169D01*
X42147Y227135D01*
X42125Y227092D01*
X41511Y225623D01*
Y225601D01*
Y225557D01*
Y225535D01*
Y225491D01*
X42585Y223913D01*
Y223869D01*
Y223847D01*
Y223826D01*
X41182Y222423D01*
X41160Y222401D01*
X41138D01*
X41072Y222379D01*
X41029Y222423D01*
X39516Y223453D01*
X39385D01*
X38727Y223080D01*
X38683D01*
X38639Y223102D01*
X38618Y223124D01*
X37215Y226478D01*
Y226500D01*
Y226522D01*
X37258Y226609D01*
X37456Y226719D01*
X37478Y226741D01*
X37500Y226763D01*
X37543Y226807D01*
X37565D01*
X37587Y226829D01*
X37697Y226916D01*
X37850Y227048D01*
X38048Y227245D01*
X38223Y227508D01*
X38376Y227815D01*
X38486Y228187D01*
X38530Y228385D01*
Y228604D01*
Y228648D01*
Y228758D01*
X38508Y228933D01*
X38442Y229152D01*
X38376Y229393D01*
X38267Y229656D01*
X38113Y229919D01*
X37894Y230160D01*
X37872Y230182D01*
X37784Y230270D01*
X37653Y230380D01*
X37478Y230489D01*
X37258Y230621D01*
X36995Y230708D01*
X36689Y230796D01*
X36360Y230818D01*
X36206D01*
X36053Y230774D01*
X35834Y230730D01*
X35592Y230664D01*
X35329Y230533D01*
X35066Y230380D01*
X34825Y230160D01*
X34803Y230138D01*
X34738Y230051D01*
X34628Y229919D01*
X34519Y229722D01*
X34387Y229503D01*
X34299Y229240D01*
X34212Y228933D01*
X34190Y228604D01*
Y228582D01*
Y228560D01*
Y228494D01*
X34212Y228407D01*
X34233Y228187D01*
X34321Y227924D01*
X34431Y227640D01*
X34606Y227333D01*
X34847Y227048D01*
X35001Y226916D01*
X35176Y226807D01*
X35198Y226785D01*
X35242Y226741D01*
X35264D01*
X35286Y226719D01*
X35461Y226609D01*
X35483Y226587D01*
X35505Y226478D01*
X34146Y223124D01*
X34102Y223102D01*
X34058Y223080D01*
X33992D01*
X33335Y223453D01*
X33203D01*
X31691Y222423D01*
Y222401D01*
X31647D01*
X31603Y222379D01*
X31559Y222423D01*
X30134Y223826D01*
Y223869D01*
Y223891D01*
Y223913D01*
X31209Y225491D01*
Y225513D01*
Y225557D01*
Y225579D01*
Y225623D01*
X30595Y227092D01*
Y227114D01*
Y227135D01*
X30551Y227157D01*
X30507Y227179D01*
X28666Y227552D01*
X28644D01*
X28622Y227574D01*
X28600Y227596D01*
X28578Y227661D01*
Y229634D01*
Y229656D01*
X28600Y229700D01*
X28622Y229722D01*
X28666Y229744D01*
X30551Y230073D01*
X30573D01*
X30595Y230095D01*
X30639Y230117D01*
X30704Y230160D01*
X31252Y231519D01*
Y231541D01*
Y231607D01*
Y231629D01*
Y231651D01*
Y231673D01*
X30134Y233317D01*
Y233339D01*
Y233383D01*
Y233404D01*
Y233470D01*
X31559Y234829D01*
X31603Y234851D01*
X31691Y234873D01*
X33335Y233711D01*
X33488D01*
X34803Y234259D01*
X34825D01*
X34847Y234281D01*
X34869Y234303D01*
X34891Y234369D01*
X35286Y236342D01*
Y236364D01*
X35308Y236407D01*
X35329Y236430D01*
X35373Y236451D01*
X37368D01*
X37412Y236430D01*
D02*
G37*
%LPC*%
G36*
X61560Y291885D02*
X60060D01*
Y291785D01*
X59860D01*
Y291685D01*
X59960D01*
Y291585D01*
Y291485D01*
Y291385D01*
Y291285D01*
Y291185D01*
Y291085D01*
Y290985D01*
X59860D01*
Y290885D01*
Y290785D01*
Y290685D01*
X59760D01*
Y290585D01*
Y290485D01*
X59660D01*
Y290385D01*
Y290285D01*
Y290185D01*
X59560D01*
Y290085D01*
Y289985D01*
Y289885D01*
X59460D01*
Y289785D01*
Y289685D01*
Y289585D01*
X59360D01*
Y289485D01*
Y289385D01*
X59260D01*
Y289285D01*
Y289185D01*
Y289085D01*
X59160D01*
Y288985D01*
Y288885D01*
Y288785D01*
Y288685D01*
X59060D01*
Y288585D01*
Y288485D01*
X58960D01*
Y288385D01*
Y288285D01*
Y288185D01*
X58860D01*
Y288085D01*
Y287985D01*
Y287885D01*
X58760D01*
Y287785D01*
Y287685D01*
Y287585D01*
X58660D01*
Y287485D01*
Y287385D01*
X58560D01*
Y287285D01*
Y287185D01*
Y287085D01*
X58460D01*
Y286985D01*
Y286885D01*
Y286785D01*
Y286685D01*
X58360D01*
Y286585D01*
Y286485D01*
X58260D01*
Y286385D01*
Y286285D01*
Y286185D01*
X58160D01*
Y286085D01*
Y285985D01*
Y285885D01*
X58060D01*
Y285785D01*
Y285685D01*
Y285585D01*
X57960D01*
Y285485D01*
Y285385D01*
X57860D01*
Y285285D01*
Y285185D01*
Y285085D01*
X57760D01*
Y284985D01*
Y284885D01*
Y284785D01*
X57660D01*
Y284685D01*
Y284585D01*
Y284485D01*
X57560D01*
Y284385D01*
Y284285D01*
X57460D01*
Y284185D01*
X57360D01*
Y284285D01*
Y284385D01*
X57260D01*
Y284485D01*
Y284585D01*
X57160D01*
Y284685D01*
Y284785D01*
Y284885D01*
X57060D01*
Y284985D01*
Y285085D01*
Y285185D01*
X56960D01*
Y285285D01*
Y285385D01*
Y285485D01*
X56860D01*
Y285585D01*
Y285685D01*
X56760D01*
Y285785D01*
Y285885D01*
Y285985D01*
X56660D01*
Y286085D01*
Y286185D01*
Y286285D01*
X56560D01*
Y286385D01*
Y286485D01*
X56460D01*
Y286585D01*
Y286685D01*
Y286785D01*
X56360D01*
Y286885D01*
Y286985D01*
Y287085D01*
X56260D01*
Y287185D01*
Y287285D01*
Y287385D01*
X56160D01*
Y287485D01*
Y287585D01*
X56060D01*
Y287685D01*
Y287785D01*
Y287885D01*
X55960D01*
Y287985D01*
Y288085D01*
Y288185D01*
X55860D01*
Y288285D01*
Y288385D01*
X55760D01*
Y288485D01*
Y288585D01*
X55660D01*
Y288685D01*
Y288785D01*
Y288885D01*
X55560D01*
Y288985D01*
Y289085D01*
Y289185D01*
X55460D01*
Y289285D01*
Y289385D01*
X55360D01*
Y289485D01*
Y289585D01*
Y289685D01*
X55260D01*
Y289785D01*
Y289885D01*
X55360D01*
Y289985D01*
Y290085D01*
Y290185D01*
X55460D01*
Y290285D01*
Y290385D01*
X55560D01*
Y290485D01*
Y290585D01*
X55660D01*
Y290685D01*
Y290785D01*
Y290885D01*
X55760D01*
Y290985D01*
Y291085D01*
X55860D01*
Y291185D01*
Y291285D01*
X55960D01*
Y291385D01*
X56060D01*
Y291485D01*
Y291585D01*
X56260D01*
Y291685D01*
Y291785D01*
X56160D01*
Y291885D01*
X54560D01*
Y291785D01*
X54460D01*
Y291685D01*
X54560D01*
Y291585D01*
Y291485D01*
Y291385D01*
Y291285D01*
Y291185D01*
Y291085D01*
X54460D01*
Y290985D01*
Y290885D01*
Y290785D01*
X54360D01*
Y290685D01*
Y290585D01*
X54260D01*
Y290485D01*
Y290385D01*
Y290285D01*
X54160D01*
Y290185D01*
Y290085D01*
Y289985D01*
X54060D01*
Y289885D01*
Y289785D01*
Y289685D01*
X53960D01*
Y289585D01*
Y289485D01*
X53860D01*
Y289385D01*
Y289285D01*
Y289185D01*
X53760D01*
Y289085D01*
Y288985D01*
Y288885D01*
X53660D01*
Y288785D01*
Y288685D01*
X53560D01*
Y288585D01*
Y288485D01*
Y288385D01*
Y288285D01*
X53460D01*
Y288185D01*
Y288085D01*
Y287985D01*
X53360D01*
Y287885D01*
Y287785D01*
X53260D01*
Y287685D01*
Y287585D01*
Y287485D01*
X53160D01*
Y287385D01*
Y287285D01*
Y287185D01*
X53060D01*
Y287085D01*
Y286985D01*
Y286885D01*
X52960D01*
Y286785D01*
Y286685D01*
X52860D01*
Y286585D01*
Y286485D01*
Y286385D01*
X52760D01*
Y286285D01*
Y286185D01*
Y286085D01*
X52660D01*
Y285985D01*
Y285885D01*
Y285785D01*
X52560D01*
Y285685D01*
Y285585D01*
X52460D01*
Y285485D01*
Y285385D01*
Y285285D01*
X52360D01*
Y285185D01*
Y285085D01*
Y284985D01*
X52260D01*
Y284885D01*
Y284785D01*
X52160D01*
Y284685D01*
Y284585D01*
Y284485D01*
X52060D01*
Y284385D01*
Y284285D01*
Y284185D01*
Y284085D01*
X51960D01*
Y284185D01*
X51860D01*
Y284285D01*
Y284385D01*
X51760D01*
Y284485D01*
Y284585D01*
Y284685D01*
X51660D01*
Y284785D01*
Y284885D01*
Y284985D01*
Y285085D01*
X51560D01*
Y285185D01*
Y285285D01*
X51460D01*
Y285385D01*
Y285485D01*
Y285585D01*
X51360D01*
Y285685D01*
Y285785D01*
Y285885D01*
Y285985D01*
X51260D01*
Y286085D01*
Y286185D01*
Y286285D01*
X51160D01*
Y286385D01*
Y286485D01*
X51060D01*
Y286585D01*
Y286685D01*
Y286785D01*
X50960D01*
Y286885D01*
Y286985D01*
Y287085D01*
Y287185D01*
X50860D01*
Y287285D01*
Y287385D01*
X50760D01*
Y287485D01*
Y287585D01*
Y287685D01*
X50660D01*
Y287785D01*
Y287885D01*
Y287985D01*
X50560D01*
Y288085D01*
Y288185D01*
Y288285D01*
X50460D01*
Y288385D01*
Y288485D01*
X50360D01*
Y288585D01*
Y288685D01*
Y288785D01*
Y288885D01*
X50260D01*
Y288985D01*
Y289085D01*
Y289185D01*
X50160D01*
Y289285D01*
Y289385D01*
Y289485D01*
X50060D01*
Y289585D01*
Y289685D01*
X49960D01*
Y289785D01*
Y289885D01*
Y289985D01*
Y290085D01*
X49860D01*
Y290185D01*
Y290285D01*
Y290385D01*
X49760D01*
Y290485D01*
Y290585D01*
Y290685D01*
X49660D01*
Y290785D01*
Y290885D01*
Y290985D01*
X49560D01*
Y291085D01*
Y291185D01*
Y291285D01*
X49460D01*
Y291385D01*
Y291485D01*
Y291585D01*
X49560D01*
Y291685D01*
Y291785D01*
X49460D01*
Y291885D01*
X48260D01*
Y291785D01*
X48060D01*
Y291685D01*
X48160D01*
Y291585D01*
X48260D01*
Y291485D01*
X48360D01*
Y291385D01*
Y291285D01*
X48460D01*
Y291185D01*
Y291085D01*
X48560D01*
Y290985D01*
Y290885D01*
X48660D01*
Y290785D01*
Y290685D01*
Y290585D01*
X48760D01*
Y290485D01*
Y290385D01*
X48860D01*
Y290285D01*
Y290185D01*
Y290085D01*
Y289985D01*
X48960D01*
Y289885D01*
Y289785D01*
X49060D01*
Y289685D01*
Y289585D01*
Y289485D01*
X49160D01*
Y289385D01*
Y289285D01*
Y289185D01*
X49260D01*
Y289085D01*
Y288985D01*
Y288885D01*
X49360D01*
Y288785D01*
Y288685D01*
X49460D01*
Y288585D01*
Y288485D01*
Y288385D01*
X49560D01*
Y288285D01*
Y288185D01*
Y288085D01*
X49660D01*
Y287985D01*
Y287885D01*
Y287785D01*
X49760D01*
Y287685D01*
Y287585D01*
X49860D01*
Y287485D01*
Y287385D01*
Y287285D01*
X49960D01*
Y287185D01*
Y287085D01*
Y286985D01*
X50060D01*
Y286885D01*
Y286785D01*
Y286685D01*
X50160D01*
Y286585D01*
Y286485D01*
X50260D01*
Y286385D01*
Y286285D01*
Y286185D01*
X50360D01*
Y286085D01*
Y285985D01*
Y285885D01*
X50460D01*
Y285785D01*
Y285685D01*
Y285585D01*
X50560D01*
Y285485D01*
Y285385D01*
Y285285D01*
X50660D01*
Y285185D01*
Y285085D01*
Y284985D01*
X50760D01*
Y284885D01*
Y284785D01*
X50860D01*
Y284685D01*
Y284585D01*
Y284485D01*
X50960D01*
Y284385D01*
Y284285D01*
Y284185D01*
X51060D01*
Y284085D01*
Y283985D01*
Y283885D01*
X51160D01*
Y283785D01*
Y283685D01*
X51260D01*
Y283585D01*
Y283485D01*
Y283385D01*
X51360D01*
Y283285D01*
Y283185D01*
Y283085D01*
X51460D01*
Y282985D01*
Y282885D01*
Y282785D01*
X51560D01*
Y282685D01*
Y282585D01*
X51660D01*
Y282485D01*
Y282385D01*
Y282285D01*
X51760D01*
Y282185D01*
Y282085D01*
Y281985D01*
X51860D01*
Y281885D01*
Y281785D01*
Y281685D01*
X51960D01*
Y281585D01*
Y281485D01*
X52060D01*
Y281385D01*
Y281285D01*
X52160D01*
Y281385D01*
Y281485D01*
X52260D01*
Y281585D01*
Y281685D01*
Y281785D01*
X52360D01*
Y281885D01*
Y281985D01*
X52460D01*
Y282085D01*
Y282185D01*
Y282285D01*
X52560D01*
Y282385D01*
Y282485D01*
Y282585D01*
X52660D01*
Y282685D01*
Y282785D01*
X52760D01*
Y282885D01*
Y282985D01*
Y283085D01*
X52860D01*
Y283185D01*
Y283285D01*
Y283385D01*
X52960D01*
Y283485D01*
Y283585D01*
X53060D01*
Y283685D01*
Y283785D01*
Y283885D01*
X53160D01*
Y283985D01*
Y284085D01*
Y284185D01*
X53260D01*
Y284285D01*
Y284385D01*
Y284485D01*
X53360D01*
Y284585D01*
Y284685D01*
X53460D01*
Y284785D01*
Y284885D01*
Y284985D01*
X53560D01*
Y285085D01*
Y285185D01*
Y285285D01*
X53660D01*
Y285385D01*
Y285485D01*
X53760D01*
Y285585D01*
Y285685D01*
Y285785D01*
X53860D01*
Y285885D01*
Y285985D01*
Y286085D01*
X53960D01*
Y286185D01*
Y286285D01*
Y286385D01*
X54060D01*
Y286485D01*
Y286585D01*
X54160D01*
Y286685D01*
Y286785D01*
Y286885D01*
X54260D01*
Y286985D01*
Y287085D01*
Y287185D01*
X54360D01*
Y287285D01*
Y287385D01*
X54460D01*
Y287485D01*
Y287585D01*
X54560D01*
Y287685D01*
Y287785D01*
Y287885D01*
Y287985D01*
X54660D01*
Y288085D01*
Y288185D01*
X54760D01*
Y288285D01*
Y288385D01*
X54960D01*
Y288285D01*
Y288185D01*
Y288085D01*
X55060D01*
Y287985D01*
Y287885D01*
Y287785D01*
X55160D01*
Y287685D01*
Y287585D01*
X55260D01*
Y287485D01*
Y287385D01*
Y287285D01*
Y287185D01*
X55360D01*
Y287085D01*
Y286985D01*
X55460D01*
Y286885D01*
Y286785D01*
Y286685D01*
X55560D01*
Y286585D01*
Y286485D01*
Y286385D01*
X55660D01*
Y286285D01*
Y286185D01*
Y286085D01*
X55760D01*
Y285985D01*
Y285885D01*
X55860D01*
Y285785D01*
Y285685D01*
Y285585D01*
X55960D01*
Y285485D01*
Y285385D01*
Y285285D01*
X56060D01*
Y285185D01*
Y285085D01*
Y284985D01*
X56160D01*
Y284885D01*
Y284785D01*
X56260D01*
Y284685D01*
Y284585D01*
Y284485D01*
X56360D01*
Y284385D01*
Y284285D01*
Y284185D01*
X56460D01*
Y284085D01*
Y283985D01*
Y283885D01*
X56560D01*
Y283785D01*
Y283685D01*
X56660D01*
Y283585D01*
Y283485D01*
Y283385D01*
X56760D01*
Y283285D01*
Y283185D01*
Y283085D01*
X56860D01*
Y282985D01*
Y282885D01*
X56960D01*
Y282785D01*
Y282685D01*
Y282585D01*
X57060D01*
Y282485D01*
Y282385D01*
Y282285D01*
X57160D01*
Y282185D01*
Y282085D01*
Y281985D01*
X57260D01*
Y281885D01*
Y281785D01*
X57360D01*
Y281685D01*
Y281585D01*
Y281485D01*
X57460D01*
Y281385D01*
Y281285D01*
X57560D01*
Y281385D01*
X57660D01*
Y281485D01*
Y281585D01*
X57760D01*
Y281685D01*
Y281785D01*
Y281885D01*
X57860D01*
Y281985D01*
Y282085D01*
Y282185D01*
X57960D01*
Y282285D01*
Y282385D01*
X58060D01*
Y282485D01*
Y282585D01*
Y282685D01*
X58160D01*
Y282785D01*
Y282885D01*
Y282985D01*
X58260D01*
Y283085D01*
Y283185D01*
Y283285D01*
X58360D01*
Y283385D01*
Y283485D01*
X58460D01*
Y283585D01*
Y283685D01*
Y283785D01*
X58560D01*
Y283885D01*
Y283985D01*
Y284085D01*
X58660D01*
Y284185D01*
Y284285D01*
X58760D01*
Y284385D01*
Y284485D01*
Y284585D01*
X58860D01*
Y284685D01*
Y284785D01*
Y284885D01*
X58960D01*
Y284985D01*
Y285085D01*
Y285185D01*
X59060D01*
Y285285D01*
Y285385D01*
X59160D01*
Y285485D01*
Y285585D01*
Y285685D01*
X59260D01*
Y285785D01*
Y285885D01*
Y285985D01*
X59360D01*
Y286085D01*
Y286185D01*
X59460D01*
Y286285D01*
Y286385D01*
Y286485D01*
X59560D01*
Y286585D01*
Y286685D01*
Y286785D01*
X59660D01*
Y286885D01*
Y286985D01*
X59760D01*
Y287085D01*
Y287185D01*
Y287285D01*
X59860D01*
Y287385D01*
Y287485D01*
X59960D01*
Y287585D01*
Y287685D01*
Y287785D01*
Y287885D01*
X60060D01*
Y287985D01*
Y288085D01*
X60160D01*
Y288185D01*
Y288285D01*
X60260D01*
Y288385D01*
Y288485D01*
Y288585D01*
X60360D01*
Y288685D01*
Y288785D01*
Y288885D01*
X60460D01*
Y288985D01*
Y289085D01*
X60560D01*
Y289185D01*
Y289285D01*
Y289385D01*
X60660D01*
Y289485D01*
Y289585D01*
Y289685D01*
X60760D01*
Y289785D01*
Y289885D01*
Y289985D01*
X60860D01*
Y290085D01*
Y290185D01*
X60960D01*
Y290285D01*
Y290385D01*
Y290485D01*
X61060D01*
Y290585D01*
Y290685D01*
Y290785D01*
X61160D01*
Y290885D01*
Y290985D01*
X61260D01*
Y291085D01*
Y291185D01*
Y291285D01*
X61360D01*
Y291385D01*
Y291485D01*
X61460D01*
Y291585D01*
X61560D01*
Y291685D01*
X61660D01*
Y291785D01*
X61560D01*
Y291885D01*
D02*
G37*
G36*
X45160D02*
X43860D01*
Y291785D01*
X43660D01*
Y291685D01*
X43560D01*
Y291585D01*
X43460D01*
Y291485D01*
Y291385D01*
X43360D01*
Y291285D01*
X43260D01*
Y291185D01*
X43160D01*
Y291085D01*
X43060D01*
Y290985D01*
X42960D01*
Y290885D01*
X42860D01*
Y290785D01*
Y290685D01*
X42760D01*
Y290585D01*
X42660D01*
Y290485D01*
X42560D01*
Y290385D01*
X42460D01*
Y290285D01*
X42360D01*
Y290185D01*
X42260D01*
Y290085D01*
X42160D01*
Y289985D01*
Y289885D01*
X42060D01*
Y289785D01*
X41960D01*
Y289685D01*
X41860D01*
Y289585D01*
X41760D01*
Y289485D01*
X41660D01*
Y289385D01*
X41560D01*
Y289285D01*
X41460D01*
Y289185D01*
Y289085D01*
X41360D01*
Y288985D01*
X41260D01*
Y288885D01*
X41160D01*
Y288785D01*
X41060D01*
Y288685D01*
X40960D01*
Y288585D01*
X40860D01*
Y288485D01*
X40760D01*
Y288385D01*
X40660D01*
Y288285D01*
Y288185D01*
X40560D01*
Y288085D01*
X40460D01*
Y287985D01*
X40360D01*
Y287885D01*
X40260D01*
Y287785D01*
X40160D01*
Y287685D01*
X40060D01*
Y287585D01*
X39960D01*
Y287485D01*
Y287385D01*
X39860D01*
Y287285D01*
X39760D01*
Y287185D01*
X39660D01*
Y287085D01*
X39560D01*
Y286985D01*
X39460D01*
Y286885D01*
X39360D01*
Y286785D01*
X39260D01*
Y286685D01*
Y286585D01*
X39160D01*
Y286485D01*
X39060D01*
Y286385D01*
X38960D01*
Y286285D01*
X38860D01*
Y286185D01*
X38760D01*
Y286085D01*
X38660D01*
Y285985D01*
X38560D01*
Y285885D01*
X38460D01*
Y285785D01*
Y285685D01*
X38360D01*
Y285585D01*
X38260D01*
Y285485D01*
X38160D01*
Y285385D01*
X38060D01*
Y285285D01*
Y285185D01*
X37860D01*
Y285085D01*
Y284985D01*
X37760D01*
Y284885D01*
X37660D01*
Y284785D01*
X37560D01*
Y284685D01*
X37460D01*
Y284585D01*
X37360D01*
Y284485D01*
X37260D01*
Y284385D01*
X37160D01*
Y284285D01*
Y284185D01*
X37060D01*
Y284085D01*
X36960D01*
Y283985D01*
X36860D01*
Y283885D01*
X36760D01*
Y283785D01*
X36660D01*
Y283685D01*
X36560D01*
Y283785D01*
Y283885D01*
Y283985D01*
Y284085D01*
Y284185D01*
Y284285D01*
Y284385D01*
Y284485D01*
Y284585D01*
Y284685D01*
Y284785D01*
Y284885D01*
Y284985D01*
Y285085D01*
Y285185D01*
Y285285D01*
Y285385D01*
Y285485D01*
Y285585D01*
Y285685D01*
Y285785D01*
Y285885D01*
Y285985D01*
Y286085D01*
Y286185D01*
Y286285D01*
Y286385D01*
Y286485D01*
Y286585D01*
Y286685D01*
Y286785D01*
Y286885D01*
Y286985D01*
Y287085D01*
Y287185D01*
Y287285D01*
Y287385D01*
Y287485D01*
Y287585D01*
Y287685D01*
Y287785D01*
Y287885D01*
Y287985D01*
Y288085D01*
Y288185D01*
Y288285D01*
Y288385D01*
Y288485D01*
Y288585D01*
Y288685D01*
Y288785D01*
Y288885D01*
Y288985D01*
Y289085D01*
Y289185D01*
Y289285D01*
Y289385D01*
Y289485D01*
Y289585D01*
Y289685D01*
Y289785D01*
Y289885D01*
Y289985D01*
Y290085D01*
Y290185D01*
Y290285D01*
Y290385D01*
X36460D01*
Y290485D01*
Y290585D01*
Y290685D01*
X36560D01*
Y290785D01*
Y290885D01*
Y290985D01*
Y291085D01*
Y291185D01*
Y291285D01*
Y291385D01*
Y291485D01*
X36660D01*
Y291585D01*
Y291685D01*
Y291785D01*
X36560D01*
Y291885D01*
X35560D01*
Y291785D01*
Y291685D01*
Y291585D01*
Y291485D01*
Y291385D01*
X35660D01*
Y291285D01*
Y291185D01*
Y291085D01*
Y290985D01*
Y290885D01*
Y290785D01*
Y290685D01*
Y290585D01*
Y290485D01*
Y290385D01*
Y290285D01*
Y290185D01*
Y290085D01*
Y289985D01*
Y289885D01*
Y289785D01*
Y289685D01*
Y289585D01*
Y289485D01*
Y289385D01*
Y289285D01*
Y289185D01*
Y289085D01*
Y288985D01*
Y288885D01*
Y288785D01*
Y288685D01*
Y288585D01*
Y288485D01*
Y288385D01*
Y288285D01*
Y288185D01*
Y288085D01*
Y287985D01*
Y287885D01*
Y287785D01*
Y287685D01*
Y287585D01*
Y287485D01*
Y287385D01*
Y287285D01*
Y287185D01*
Y287085D01*
Y286985D01*
Y286885D01*
Y286785D01*
Y286685D01*
Y286585D01*
Y286485D01*
Y286385D01*
Y286285D01*
Y286185D01*
Y286085D01*
Y285985D01*
Y285885D01*
Y285785D01*
Y285685D01*
Y285585D01*
Y285485D01*
Y285385D01*
Y285285D01*
Y285185D01*
Y285085D01*
Y284985D01*
Y284885D01*
Y284785D01*
Y284685D01*
Y284585D01*
Y284485D01*
Y284385D01*
Y284285D01*
Y284185D01*
Y284085D01*
Y283985D01*
Y283885D01*
Y283785D01*
Y283685D01*
Y283585D01*
Y283485D01*
Y283385D01*
Y283285D01*
Y283185D01*
Y283085D01*
Y282985D01*
Y282885D01*
Y282785D01*
Y282685D01*
Y282585D01*
Y282485D01*
Y282385D01*
Y282285D01*
Y282185D01*
Y282085D01*
Y281985D01*
Y281885D01*
Y281785D01*
Y281685D01*
Y281585D01*
Y281485D01*
Y281385D01*
Y281285D01*
Y281185D01*
X35760D01*
Y281285D01*
X35960D01*
Y281385D01*
Y281485D01*
X36060D01*
Y281585D01*
X36160D01*
Y281685D01*
X36260D01*
Y281785D01*
X36360D01*
Y281885D01*
X36460D01*
Y281985D01*
X36560D01*
Y282085D01*
X36660D01*
Y282185D01*
X36760D01*
Y282285D01*
Y282385D01*
X36860D01*
Y282485D01*
X36960D01*
Y282585D01*
X37060D01*
Y282685D01*
X37160D01*
Y282785D01*
X37260D01*
Y282885D01*
X37360D01*
Y282985D01*
X37460D01*
Y283085D01*
X37560D01*
Y283185D01*
X37660D01*
Y283285D01*
X37760D01*
Y283385D01*
Y283485D01*
X37860D01*
Y283585D01*
X37960D01*
Y283685D01*
X38060D01*
Y283785D01*
X38160D01*
Y283885D01*
X38260D01*
Y283985D01*
X38360D01*
Y284085D01*
X38460D01*
Y284185D01*
X38560D01*
Y284285D01*
X38660D01*
Y284385D01*
X38760D01*
Y284485D01*
Y284585D01*
X38860D01*
Y284685D01*
X38960D01*
Y284785D01*
X39060D01*
Y284885D01*
X39160D01*
Y284985D01*
X39260D01*
Y285085D01*
X39360D01*
Y285185D01*
X39460D01*
Y285285D01*
X39560D01*
Y285385D01*
X39660D01*
Y285485D01*
Y285585D01*
X39760D01*
Y285685D01*
X39860D01*
Y285785D01*
X39960D01*
Y285885D01*
X40060D01*
Y285985D01*
X40160D01*
Y286085D01*
X40260D01*
Y286185D01*
X40360D01*
Y286285D01*
X40460D01*
Y286385D01*
X40560D01*
Y286485D01*
X40660D01*
Y286585D01*
Y286685D01*
X40760D01*
Y286785D01*
X40860D01*
Y286885D01*
X40960D01*
Y286985D01*
X41060D01*
Y287085D01*
X41160D01*
Y287185D01*
X41260D01*
Y287285D01*
X41360D01*
Y287385D01*
X41460D01*
Y287485D01*
X41560D01*
Y287585D01*
X41660D01*
Y287685D01*
X41760D01*
Y287785D01*
Y287885D01*
X41860D01*
Y287985D01*
X41960D01*
Y288085D01*
X42060D01*
Y288185D01*
X42160D01*
Y288285D01*
X42260D01*
Y288385D01*
X42360D01*
Y288485D01*
X42460D01*
Y288585D01*
Y288685D01*
X42660D01*
Y288785D01*
X42760D01*
Y288885D01*
Y288985D01*
X42860D01*
Y289085D01*
X42960D01*
Y289185D01*
X43060D01*
Y289285D01*
X43160D01*
Y289385D01*
X43260D01*
Y289485D01*
X43360D01*
Y289585D01*
X43460D01*
Y289685D01*
Y289785D01*
X43560D01*
Y289885D01*
X43660D01*
Y289985D01*
X43760D01*
Y290085D01*
X43860D01*
Y290185D01*
X43960D01*
Y290085D01*
X44060D01*
Y289985D01*
Y289885D01*
Y289785D01*
Y289685D01*
Y289585D01*
Y289485D01*
Y289385D01*
Y289285D01*
Y289185D01*
Y289085D01*
Y288985D01*
Y288885D01*
Y288785D01*
Y288685D01*
Y288585D01*
Y288485D01*
Y288385D01*
Y288285D01*
Y288185D01*
Y288085D01*
Y287985D01*
Y287885D01*
Y287785D01*
Y287685D01*
Y287585D01*
Y287485D01*
Y287385D01*
Y287285D01*
Y287185D01*
Y287085D01*
Y286985D01*
Y286885D01*
Y286785D01*
Y286685D01*
Y286585D01*
Y286485D01*
Y286385D01*
Y286285D01*
Y286185D01*
Y286085D01*
Y285985D01*
Y285885D01*
Y285785D01*
Y285685D01*
Y285585D01*
Y285485D01*
Y285385D01*
Y285285D01*
Y285185D01*
Y285085D01*
Y284985D01*
Y284885D01*
Y284785D01*
Y284685D01*
Y284585D01*
Y284485D01*
Y284385D01*
Y284285D01*
Y284185D01*
Y284085D01*
Y283985D01*
Y283885D01*
Y283785D01*
Y283685D01*
Y283585D01*
Y283485D01*
Y283385D01*
Y283285D01*
Y283185D01*
Y283085D01*
Y282985D01*
Y282885D01*
Y282785D01*
Y282685D01*
Y282585D01*
Y282485D01*
Y282385D01*
Y282285D01*
X43960D01*
Y282185D01*
Y282085D01*
Y281985D01*
Y281885D01*
Y281785D01*
X43860D01*
Y281685D01*
Y281585D01*
Y281485D01*
Y281385D01*
X45060D01*
Y281485D01*
X45160D01*
Y281585D01*
X45060D01*
Y281685D01*
Y281785D01*
X44960D01*
Y281885D01*
Y281985D01*
Y282085D01*
Y282185D01*
Y282285D01*
Y282385D01*
Y282485D01*
Y282585D01*
Y282685D01*
Y282785D01*
Y282885D01*
Y282985D01*
Y283085D01*
Y283185D01*
Y283285D01*
Y283385D01*
Y283485D01*
Y283585D01*
Y283685D01*
Y283785D01*
Y283885D01*
Y283985D01*
Y284085D01*
Y284185D01*
Y284285D01*
Y284385D01*
Y284485D01*
Y284585D01*
Y284685D01*
Y284785D01*
Y284885D01*
Y284985D01*
Y285085D01*
Y285185D01*
Y285285D01*
Y285385D01*
Y285485D01*
Y285585D01*
Y285685D01*
Y285785D01*
Y285885D01*
Y285985D01*
Y286085D01*
Y286185D01*
Y286285D01*
Y286385D01*
Y286485D01*
Y286585D01*
Y286685D01*
Y286785D01*
Y286885D01*
Y286985D01*
Y287085D01*
Y287185D01*
Y287285D01*
Y287385D01*
Y287485D01*
Y287585D01*
Y287685D01*
Y287785D01*
Y287885D01*
Y287985D01*
Y288085D01*
Y288185D01*
Y288285D01*
Y288385D01*
Y288485D01*
Y288585D01*
Y288685D01*
Y288785D01*
Y288885D01*
Y288985D01*
Y289085D01*
Y289185D01*
Y289285D01*
Y289385D01*
Y289485D01*
Y289585D01*
Y289685D01*
Y289785D01*
Y289885D01*
Y289985D01*
Y290085D01*
Y290185D01*
Y290285D01*
Y290385D01*
Y290485D01*
Y290585D01*
Y290685D01*
Y290785D01*
Y290885D01*
Y290985D01*
Y291085D01*
Y291185D01*
Y291285D01*
Y291385D01*
X45060D01*
Y291485D01*
Y291585D01*
X45160D01*
Y291685D01*
X45260D01*
Y291785D01*
X45160D01*
Y291885D01*
D02*
G37*
G36*
X48060Y288785D02*
X46760D01*
Y288685D01*
X46860D01*
Y288585D01*
Y288485D01*
X46960D01*
Y288385D01*
Y288285D01*
Y288185D01*
Y288085D01*
Y287985D01*
Y287885D01*
Y287785D01*
Y287685D01*
Y287585D01*
Y287485D01*
Y287385D01*
Y287285D01*
Y287185D01*
Y287085D01*
Y286985D01*
Y286885D01*
Y286785D01*
Y286685D01*
Y286585D01*
Y286485D01*
Y286385D01*
Y286285D01*
Y286185D01*
Y286085D01*
Y285985D01*
Y285885D01*
Y285785D01*
Y285685D01*
Y285585D01*
Y285485D01*
Y285385D01*
Y285285D01*
Y285185D01*
Y285085D01*
Y284985D01*
Y284885D01*
Y284785D01*
Y284685D01*
Y284585D01*
Y284485D01*
Y284385D01*
Y284285D01*
Y284185D01*
Y284085D01*
Y283985D01*
Y283885D01*
Y283785D01*
Y283685D01*
Y283585D01*
Y283485D01*
Y283385D01*
Y283285D01*
Y283185D01*
Y283085D01*
Y282985D01*
Y282885D01*
Y282785D01*
Y282685D01*
Y282585D01*
Y282485D01*
Y282385D01*
Y282285D01*
Y282185D01*
Y282085D01*
Y281985D01*
Y281885D01*
Y281785D01*
Y281685D01*
X46860D01*
Y281585D01*
Y281485D01*
Y281385D01*
X47960D01*
Y281485D01*
X48060D01*
Y281585D01*
X47960D01*
Y281685D01*
Y281785D01*
X47860D01*
Y281885D01*
Y281985D01*
Y282085D01*
Y282185D01*
Y282285D01*
Y282385D01*
Y282485D01*
Y282585D01*
Y282685D01*
Y282785D01*
Y282885D01*
Y282985D01*
Y283085D01*
Y283185D01*
Y283285D01*
Y283385D01*
Y283485D01*
Y283585D01*
Y283685D01*
Y283785D01*
Y283885D01*
Y283985D01*
Y284085D01*
Y284185D01*
Y284285D01*
Y284385D01*
Y284485D01*
Y284585D01*
Y284685D01*
Y284785D01*
Y284885D01*
Y284985D01*
Y285085D01*
Y285185D01*
Y285285D01*
Y285385D01*
Y285485D01*
Y285585D01*
Y285685D01*
Y285785D01*
Y285885D01*
Y285985D01*
Y286085D01*
Y286185D01*
Y286285D01*
Y286385D01*
Y286485D01*
Y286585D01*
Y286685D01*
Y286785D01*
Y286885D01*
Y286985D01*
Y287085D01*
Y287185D01*
Y287285D01*
Y287385D01*
Y287485D01*
Y287585D01*
Y287685D01*
Y287785D01*
Y287885D01*
Y287985D01*
Y288085D01*
Y288185D01*
Y288285D01*
Y288385D01*
X47960D01*
Y288485D01*
Y288585D01*
X48060D01*
Y288685D01*
Y288785D01*
D02*
G37*
G36*
X65860Y292585D02*
X64660D01*
Y292485D01*
X63660D01*
Y292385D01*
X63160D01*
Y292285D01*
X63060D01*
Y292185D01*
X62960D01*
Y292085D01*
Y291985D01*
Y291885D01*
Y291785D01*
Y291685D01*
Y291585D01*
Y291485D01*
Y291385D01*
Y291285D01*
Y291185D01*
X63160D01*
Y291285D01*
X63260D01*
Y291385D01*
X63460D01*
Y291485D01*
X63560D01*
Y291585D01*
X63860D01*
Y291685D01*
X64260D01*
Y291785D01*
X65060D01*
Y291885D01*
X65360D01*
Y291785D01*
X65860D01*
Y291685D01*
X66160D01*
Y291585D01*
X66460D01*
Y291485D01*
X66560D01*
Y291385D01*
X66760D01*
Y291285D01*
X66860D01*
Y291185D01*
X66960D01*
Y291085D01*
X67060D01*
Y290985D01*
X67160D01*
Y290885D01*
X67260D01*
Y290785D01*
Y290685D01*
X67360D01*
Y290585D01*
Y290485D01*
X67460D01*
Y290385D01*
Y290285D01*
Y290185D01*
Y290085D01*
Y289985D01*
Y289885D01*
Y289785D01*
Y289685D01*
Y289585D01*
X67360D01*
Y289485D01*
Y289385D01*
X67260D01*
Y289285D01*
Y289185D01*
X67160D01*
Y289085D01*
X67060D01*
Y288985D01*
Y288885D01*
X66960D01*
Y288785D01*
X66760D01*
Y288685D01*
X66660D01*
Y288585D01*
X66560D01*
Y288485D01*
X66360D01*
Y288385D01*
X66160D01*
Y288285D01*
X66060D01*
Y288185D01*
X65860D01*
Y288085D01*
X65660D01*
Y287985D01*
X65460D01*
Y287885D01*
X65360D01*
Y287785D01*
X65160D01*
Y287685D01*
X64960D01*
Y287585D01*
X64860D01*
Y287485D01*
X64660D01*
Y287385D01*
X64460D01*
Y287285D01*
X64260D01*
Y287185D01*
X64160D01*
Y287085D01*
X63960D01*
Y286985D01*
X63760D01*
Y286885D01*
X63560D01*
Y286785D01*
X63460D01*
Y286685D01*
X63260D01*
Y286585D01*
X63160D01*
Y286485D01*
X62960D01*
Y286385D01*
X62860D01*
Y286285D01*
X62760D01*
Y286185D01*
X62660D01*
Y286085D01*
X62560D01*
Y285985D01*
X62460D01*
Y285885D01*
X62360D01*
Y285785D01*
Y285685D01*
X62260D01*
Y285585D01*
X62160D01*
Y285485D01*
Y285385D01*
Y285285D01*
X62060D01*
Y285185D01*
Y285085D01*
Y284985D01*
Y284885D01*
X61960D01*
Y284785D01*
Y284685D01*
Y284585D01*
Y284485D01*
Y284385D01*
Y284285D01*
Y284185D01*
Y284085D01*
Y283985D01*
Y283885D01*
Y283785D01*
Y283685D01*
Y283585D01*
Y283485D01*
Y283385D01*
X62060D01*
Y283285D01*
Y283185D01*
Y283085D01*
Y282985D01*
X62160D01*
Y282885D01*
Y282785D01*
X62260D01*
Y282685D01*
X62360D01*
Y282585D01*
Y282485D01*
X62460D01*
Y282385D01*
X62560D01*
Y282285D01*
X62660D01*
Y282185D01*
X62760D01*
Y282085D01*
X62860D01*
Y281985D01*
X63060D01*
Y281885D01*
X63260D01*
Y281785D01*
X63360D01*
Y281685D01*
X63660D01*
Y281585D01*
X63960D01*
Y281485D01*
X64160D01*
Y281385D01*
X64560D01*
Y281285D01*
X65460D01*
Y281185D01*
X67160D01*
Y281285D01*
X68060D01*
Y281385D01*
X68360D01*
Y281485D01*
X68560D01*
Y281585D01*
X68660D01*
Y281685D01*
Y281785D01*
Y281885D01*
Y281985D01*
Y282085D01*
Y282185D01*
Y282285D01*
Y282385D01*
Y282485D01*
Y282585D01*
Y282685D01*
X68460D01*
Y282585D01*
X68360D01*
Y282485D01*
X68260D01*
Y282385D01*
X68060D01*
Y282285D01*
X67760D01*
Y282185D01*
X67560D01*
Y282085D01*
X67060D01*
Y281985D01*
X65260D01*
Y282085D01*
X64760D01*
Y282185D01*
X64560D01*
Y282285D01*
X64360D01*
Y282385D01*
X64160D01*
Y282485D01*
X64060D01*
Y282585D01*
X63860D01*
Y282685D01*
X63760D01*
Y282785D01*
Y282885D01*
X63660D01*
Y282985D01*
X63560D01*
Y283085D01*
Y283185D01*
X63460D01*
Y283285D01*
Y283385D01*
Y283485D01*
X63360D01*
Y283585D01*
Y283685D01*
Y283785D01*
Y283885D01*
Y283985D01*
Y284085D01*
Y284185D01*
Y284285D01*
Y284385D01*
Y284485D01*
Y284585D01*
X63460D01*
Y284685D01*
Y284785D01*
Y284885D01*
X63560D01*
Y284985D01*
Y285085D01*
X63660D01*
Y285185D01*
X63760D01*
Y285285D01*
X63860D01*
Y285385D01*
X63960D01*
Y285485D01*
X64060D01*
Y285585D01*
X64260D01*
Y285685D01*
X64360D01*
Y285785D01*
X64460D01*
Y285885D01*
X64660D01*
Y285985D01*
X64860D01*
Y286085D01*
X64960D01*
Y286185D01*
X65160D01*
Y286285D01*
X65360D01*
Y286385D01*
X65560D01*
Y286485D01*
X65660D01*
Y286585D01*
X65860D01*
Y286685D01*
X66060D01*
Y286785D01*
X66160D01*
Y286885D01*
X66360D01*
Y286985D01*
X66560D01*
Y287085D01*
X66760D01*
Y287185D01*
X66860D01*
Y287285D01*
X67060D01*
Y287385D01*
X67260D01*
Y287485D01*
X67360D01*
Y287585D01*
X67460D01*
Y287685D01*
X67660D01*
Y287785D01*
X67760D01*
Y287885D01*
X67860D01*
Y287985D01*
X67960D01*
Y288085D01*
X68060D01*
Y288185D01*
X68160D01*
Y288285D01*
X68260D01*
Y288385D01*
X68360D01*
Y288485D01*
Y288585D01*
X68460D01*
Y288685D01*
Y288785D01*
X68560D01*
Y288885D01*
Y288985D01*
Y289085D01*
X68660D01*
Y289185D01*
Y289285D01*
Y289385D01*
Y289485D01*
X68760D01*
Y289585D01*
Y289685D01*
Y289785D01*
Y289885D01*
Y289985D01*
Y290085D01*
Y290185D01*
Y290285D01*
X68660D01*
Y290385D01*
Y290485D01*
Y290585D01*
X68560D01*
Y290685D01*
Y290785D01*
Y290885D01*
X68460D01*
Y290985D01*
Y291085D01*
X68360D01*
Y291185D01*
X68260D01*
Y291285D01*
Y291385D01*
X68160D01*
Y291485D01*
X68060D01*
Y291585D01*
X67960D01*
Y291685D01*
X67860D01*
Y291785D01*
X67760D01*
Y291885D01*
X67560D01*
Y291985D01*
X67460D01*
Y292085D01*
X67260D01*
Y292185D01*
X67060D01*
Y292285D01*
X66760D01*
Y292385D01*
X66360D01*
Y292485D01*
X65860D01*
Y292585D01*
D02*
G37*
G36*
X56360Y279585D02*
X54960D01*
Y279485D01*
Y279385D01*
Y279285D01*
X55060D01*
Y279185D01*
Y279085D01*
Y278985D01*
Y278885D01*
Y278785D01*
Y278685D01*
Y278585D01*
Y278485D01*
Y278385D01*
Y278285D01*
Y278185D01*
Y278085D01*
Y277985D01*
Y277885D01*
Y277785D01*
Y277685D01*
Y277585D01*
Y277485D01*
Y277385D01*
Y277285D01*
Y277185D01*
Y277085D01*
Y276985D01*
Y276885D01*
Y276785D01*
Y276685D01*
Y276585D01*
Y276485D01*
Y276385D01*
Y276285D01*
Y276185D01*
Y276085D01*
Y275985D01*
Y275885D01*
Y275785D01*
Y275685D01*
Y275585D01*
Y275485D01*
Y275385D01*
Y275285D01*
Y275185D01*
Y275085D01*
Y274985D01*
Y274885D01*
Y274785D01*
Y274685D01*
Y274585D01*
Y274485D01*
Y274385D01*
Y274285D01*
Y274185D01*
Y274085D01*
Y273985D01*
Y273885D01*
Y273785D01*
Y273685D01*
Y273585D01*
Y273485D01*
Y273385D01*
Y273285D01*
Y273185D01*
Y273085D01*
Y272985D01*
Y272885D01*
Y272785D01*
Y272685D01*
Y272585D01*
Y272485D01*
Y272385D01*
Y272285D01*
Y272185D01*
X54960D01*
Y272085D01*
Y271985D01*
Y271885D01*
Y271785D01*
X54860D01*
Y271685D01*
Y271585D01*
X54760D01*
Y271485D01*
Y271385D01*
X54660D01*
Y271285D01*
Y271185D01*
X54560D01*
Y271085D01*
X54460D01*
Y270985D01*
X54360D01*
Y270885D01*
X54260D01*
Y270785D01*
X54160D01*
Y270685D01*
X54060D01*
Y270585D01*
X53960D01*
Y270485D01*
X53860D01*
Y270385D01*
X53660D01*
Y270285D01*
X53460D01*
Y270185D01*
X53260D01*
Y270085D01*
X52860D01*
Y269985D01*
X52460D01*
Y269885D01*
X51860D01*
Y269985D01*
X51360D01*
Y270085D01*
X51060D01*
Y270185D01*
X50760D01*
Y270285D01*
X50660D01*
Y270385D01*
X50460D01*
Y270485D01*
X50360D01*
Y270585D01*
X50260D01*
Y270685D01*
X50160D01*
Y270785D01*
X50060D01*
Y270885D01*
X49960D01*
Y270985D01*
X49860D01*
Y271085D01*
Y271185D01*
X49760D01*
Y271285D01*
X49660D01*
Y271385D01*
Y271485D01*
X49560D01*
Y271585D01*
Y271685D01*
Y271785D01*
X49460D01*
Y271885D01*
Y271985D01*
Y272085D01*
Y272185D01*
X49360D01*
Y272285D01*
Y272385D01*
Y272485D01*
Y272585D01*
Y272685D01*
Y272785D01*
Y272885D01*
Y272985D01*
Y273085D01*
Y273185D01*
Y273285D01*
Y273385D01*
Y273485D01*
Y273585D01*
Y273685D01*
Y273785D01*
Y273885D01*
Y273985D01*
Y274085D01*
Y274185D01*
Y274285D01*
Y274385D01*
Y274485D01*
Y274585D01*
Y274685D01*
Y274785D01*
Y274885D01*
Y274985D01*
Y275085D01*
Y275185D01*
Y275285D01*
Y275385D01*
Y275485D01*
Y275585D01*
Y275685D01*
Y275785D01*
Y275885D01*
Y275985D01*
Y276085D01*
Y276185D01*
Y276285D01*
Y276385D01*
Y276485D01*
Y276585D01*
Y276685D01*
Y276785D01*
Y276885D01*
Y276985D01*
Y277085D01*
Y277185D01*
Y277285D01*
Y277385D01*
Y277485D01*
Y277585D01*
Y277685D01*
Y277785D01*
Y277885D01*
Y277985D01*
Y278085D01*
Y278185D01*
Y278285D01*
Y278385D01*
Y278485D01*
Y278585D01*
Y278685D01*
Y278785D01*
Y278885D01*
Y278985D01*
Y279085D01*
X49460D01*
Y279185D01*
Y279285D01*
Y279385D01*
Y279485D01*
Y279585D01*
X48060D01*
Y279485D01*
Y279385D01*
X48160D01*
Y279285D01*
Y279185D01*
Y279085D01*
Y278985D01*
Y278885D01*
Y278785D01*
Y278685D01*
Y278585D01*
Y278485D01*
Y278385D01*
Y278285D01*
Y278185D01*
Y278085D01*
Y277985D01*
Y277885D01*
Y277785D01*
Y277685D01*
Y277585D01*
Y277485D01*
Y277385D01*
Y277285D01*
Y277185D01*
Y277085D01*
Y276985D01*
Y276885D01*
Y276785D01*
Y276685D01*
Y276585D01*
Y276485D01*
Y276385D01*
Y276285D01*
Y276185D01*
Y276085D01*
Y275985D01*
Y275885D01*
Y275785D01*
Y275685D01*
Y275585D01*
Y275485D01*
Y275385D01*
Y275285D01*
Y275185D01*
Y275085D01*
Y274985D01*
Y274885D01*
Y274785D01*
Y274685D01*
Y274585D01*
Y274485D01*
Y274385D01*
Y274285D01*
Y274185D01*
Y274085D01*
Y273985D01*
Y273885D01*
Y273785D01*
Y273685D01*
Y273585D01*
Y273485D01*
Y273385D01*
Y273285D01*
Y273185D01*
Y273085D01*
Y272985D01*
Y272885D01*
Y272785D01*
Y272685D01*
Y272585D01*
Y272485D01*
Y272385D01*
Y272285D01*
Y272185D01*
Y272085D01*
Y271985D01*
X48260D01*
Y271885D01*
Y271785D01*
Y271685D01*
Y271585D01*
X48360D01*
Y271485D01*
Y271385D01*
Y271285D01*
X48460D01*
Y271185D01*
Y271085D01*
X48560D01*
Y270985D01*
Y270885D01*
X48660D01*
Y270785D01*
Y270685D01*
X48760D01*
Y270585D01*
X48860D01*
Y270485D01*
Y270385D01*
X48960D01*
Y270285D01*
X49060D01*
Y270185D01*
X49160D01*
Y270085D01*
X49260D01*
Y269985D01*
X49360D01*
Y269885D01*
X49460D01*
Y269785D01*
X49660D01*
Y269685D01*
X49760D01*
Y269585D01*
X49960D01*
Y269485D01*
X50160D01*
Y269385D01*
X50360D01*
Y269285D01*
X50560D01*
Y269185D01*
X50960D01*
Y269085D01*
X51560D01*
Y268985D01*
X52760D01*
Y269085D01*
X53360D01*
Y269185D01*
X53760D01*
Y269285D01*
X53960D01*
Y269385D01*
X54160D01*
Y269485D01*
X54360D01*
Y269585D01*
X54560D01*
Y269685D01*
X54660D01*
Y269785D01*
X54860D01*
Y269885D01*
X54960D01*
Y269985D01*
X55060D01*
Y270085D01*
X55260D01*
Y270185D01*
X55360D01*
Y270285D01*
Y270385D01*
X55460D01*
Y270485D01*
X55560D01*
Y270585D01*
X55660D01*
Y270685D01*
Y270785D01*
X55760D01*
Y270885D01*
X55860D01*
Y270985D01*
Y271085D01*
X55960D01*
Y271185D01*
Y271285D01*
X56060D01*
Y271385D01*
Y271485D01*
Y271585D01*
Y271685D01*
X56160D01*
Y271785D01*
Y271885D01*
Y271985D01*
X56260D01*
Y272085D01*
Y272185D01*
Y272285D01*
Y272385D01*
Y272485D01*
Y272585D01*
Y272685D01*
Y272785D01*
Y272885D01*
Y272985D01*
Y273085D01*
Y273185D01*
Y273285D01*
Y273385D01*
Y273485D01*
Y273585D01*
Y273685D01*
Y273785D01*
Y273885D01*
Y273985D01*
Y274085D01*
Y274185D01*
Y274285D01*
Y274385D01*
Y274485D01*
Y274585D01*
Y274685D01*
Y274785D01*
Y274885D01*
Y274985D01*
Y275085D01*
Y275185D01*
Y275285D01*
Y275385D01*
Y275485D01*
Y275585D01*
Y275685D01*
Y275785D01*
Y275885D01*
Y275985D01*
Y276085D01*
Y276185D01*
Y276285D01*
Y276385D01*
Y276485D01*
Y276585D01*
Y276685D01*
Y276785D01*
Y276885D01*
Y276985D01*
Y277085D01*
Y277185D01*
Y277285D01*
Y277385D01*
Y277485D01*
Y277585D01*
Y277685D01*
Y277785D01*
Y277885D01*
Y277985D01*
Y278085D01*
Y278185D01*
Y278285D01*
Y278385D01*
Y278485D01*
Y278585D01*
Y278685D01*
Y278785D01*
Y278885D01*
Y278985D01*
Y279085D01*
Y279185D01*
Y279285D01*
X56360D01*
Y279385D01*
Y279485D01*
Y279585D01*
D02*
G37*
G36*
X64160D02*
X60660D01*
Y279485D01*
X60260D01*
Y279385D01*
X60060D01*
Y279285D01*
X59860D01*
Y279185D01*
X59660D01*
Y279085D01*
X59560D01*
Y278985D01*
X59460D01*
Y278885D01*
X59360D01*
Y278785D01*
X59260D01*
Y278685D01*
X59160D01*
Y278585D01*
X59060D01*
Y278485D01*
Y278385D01*
X58960D01*
Y278285D01*
X58860D01*
Y278185D01*
Y278085D01*
Y277985D01*
X58760D01*
Y277885D01*
Y277785D01*
Y277685D01*
X58660D01*
Y277585D01*
Y277485D01*
Y277385D01*
X58560D01*
Y277285D01*
Y277185D01*
Y277085D01*
Y276985D01*
Y276885D01*
Y276785D01*
Y276685D01*
Y276585D01*
X58660D01*
Y276485D01*
Y276385D01*
Y276285D01*
X58760D01*
Y276185D01*
Y276085D01*
Y275985D01*
X58860D01*
Y275885D01*
Y275785D01*
X58960D01*
Y275685D01*
X59060D01*
Y275585D01*
X59160D01*
Y275485D01*
X59260D01*
Y275385D01*
X59360D01*
Y275285D01*
X59460D01*
Y275185D01*
X59660D01*
Y275085D01*
X59860D01*
Y274985D01*
X59960D01*
Y274885D01*
Y274785D01*
X59660D01*
Y274685D01*
X59460D01*
Y274585D01*
X59260D01*
Y274485D01*
X59060D01*
Y274385D01*
X58860D01*
Y274285D01*
X58760D01*
Y274185D01*
X58660D01*
Y274085D01*
X58560D01*
Y273985D01*
X58460D01*
Y273885D01*
X58360D01*
Y273785D01*
Y273685D01*
X58260D01*
Y273585D01*
X58160D01*
Y273485D01*
Y273385D01*
Y273285D01*
X58060D01*
Y273185D01*
Y273085D01*
Y272985D01*
X57960D01*
Y272885D01*
Y272785D01*
Y272685D01*
Y272585D01*
Y272485D01*
X57860D01*
Y272385D01*
Y272285D01*
Y272185D01*
Y272085D01*
Y271985D01*
Y271885D01*
Y271785D01*
X57960D01*
Y271685D01*
Y271585D01*
Y271485D01*
Y271385D01*
Y271285D01*
X58060D01*
Y271185D01*
Y271085D01*
Y270985D01*
X58160D01*
Y270885D01*
Y270785D01*
Y270685D01*
X58260D01*
Y270585D01*
X58360D01*
Y270485D01*
Y270385D01*
X58460D01*
Y270285D01*
X58560D01*
Y270185D01*
X58660D01*
Y270085D01*
X58760D01*
Y269985D01*
X58860D01*
Y269885D01*
X58960D01*
Y269785D01*
X59160D01*
Y269685D01*
X59260D01*
Y269585D01*
X59460D01*
Y269485D01*
X59660D01*
Y269385D01*
X59960D01*
Y269285D01*
X60360D01*
Y269185D01*
X64060D01*
Y269285D01*
Y269385D01*
X63960D01*
Y269485D01*
Y269585D01*
Y269685D01*
X63860D01*
Y269785D01*
Y269885D01*
Y269985D01*
Y270085D01*
Y270185D01*
Y270285D01*
Y270385D01*
Y270485D01*
Y270585D01*
Y270685D01*
Y270785D01*
Y270885D01*
Y270985D01*
Y271085D01*
Y271185D01*
Y271285D01*
Y271385D01*
Y271485D01*
Y271585D01*
Y271685D01*
Y271785D01*
Y271885D01*
Y271985D01*
Y272085D01*
Y272185D01*
Y272285D01*
Y272385D01*
Y272485D01*
Y272585D01*
Y272685D01*
Y272785D01*
Y272885D01*
Y272985D01*
Y273085D01*
Y273185D01*
Y273285D01*
Y273385D01*
Y273485D01*
Y273585D01*
Y273685D01*
Y273785D01*
Y273885D01*
Y273985D01*
Y274085D01*
Y274185D01*
Y274285D01*
Y274385D01*
Y274485D01*
Y274585D01*
Y274685D01*
Y274785D01*
Y274885D01*
Y274985D01*
Y275085D01*
Y275185D01*
Y275285D01*
Y275385D01*
Y275485D01*
Y275585D01*
Y275685D01*
Y275785D01*
Y275885D01*
Y275985D01*
Y276085D01*
Y276185D01*
Y276285D01*
Y276385D01*
Y276485D01*
Y276585D01*
Y276685D01*
Y276785D01*
Y276885D01*
Y276985D01*
Y277085D01*
Y277185D01*
Y277285D01*
Y277385D01*
Y277485D01*
Y277585D01*
Y277685D01*
Y277785D01*
Y277885D01*
Y277985D01*
Y278085D01*
Y278185D01*
Y278285D01*
Y278385D01*
Y278485D01*
Y278585D01*
Y278685D01*
Y278785D01*
X63960D01*
Y278885D01*
Y278985D01*
Y279085D01*
Y279185D01*
X64060D01*
Y279285D01*
X64160D01*
Y279385D01*
Y279485D01*
Y279585D01*
D02*
G37*
G36*
X45960D02*
X42360D01*
Y279485D01*
X41860D01*
Y279385D01*
X41660D01*
Y279285D01*
X41460D01*
Y279185D01*
X41260D01*
Y279085D01*
X41160D01*
Y278985D01*
X41060D01*
Y278885D01*
X40960D01*
Y278785D01*
X40860D01*
Y278685D01*
X40760D01*
Y278585D01*
X40660D01*
Y278485D01*
Y278385D01*
X40560D01*
Y278285D01*
Y278185D01*
X40460D01*
Y278085D01*
Y277985D01*
X40360D01*
Y277885D01*
Y277785D01*
Y277685D01*
Y277585D01*
Y277485D01*
Y277385D01*
Y277285D01*
Y277185D01*
Y277085D01*
Y276985D01*
Y276885D01*
Y276785D01*
Y276685D01*
Y276585D01*
Y276485D01*
X40460D01*
Y276385D01*
Y276285D01*
X40560D01*
Y276185D01*
Y276085D01*
X40660D01*
Y275985D01*
Y275885D01*
X40760D01*
Y275785D01*
Y275685D01*
X40860D01*
Y275585D01*
X40960D01*
Y275485D01*
X41060D01*
Y275385D01*
X41160D01*
Y275285D01*
X41260D01*
Y275185D01*
X41360D01*
Y275085D01*
X41560D01*
Y274985D01*
X41660D01*
Y274885D01*
X41960D01*
Y274785D01*
X42360D01*
Y274685D01*
X42860D01*
Y274585D01*
X42960D01*
Y274485D01*
X42760D01*
Y274385D01*
Y274285D01*
X42660D01*
Y274185D01*
X42560D01*
Y274085D01*
X42460D01*
Y273985D01*
X42360D01*
Y273885D01*
X42260D01*
Y273785D01*
X42160D01*
Y273685D01*
X42060D01*
Y273585D01*
Y273485D01*
X41960D01*
Y273385D01*
X41860D01*
Y273285D01*
X41760D01*
Y273185D01*
Y273085D01*
X41660D01*
Y272985D01*
X41560D01*
Y272885D01*
X41460D01*
Y272785D01*
Y272685D01*
X41360D01*
Y272585D01*
X41260D01*
Y272485D01*
X41160D01*
Y272385D01*
X41060D01*
Y272285D01*
X40960D01*
Y272185D01*
Y272085D01*
X40860D01*
Y271985D01*
X40760D01*
Y271885D01*
X40660D01*
Y271785D01*
Y271685D01*
X40560D01*
Y271585D01*
X40460D01*
Y271485D01*
X40360D01*
Y271385D01*
Y271285D01*
X40260D01*
Y271185D01*
X40160D01*
Y271085D01*
X40060D01*
Y270985D01*
X39960D01*
Y270885D01*
X39860D01*
Y270785D01*
Y270685D01*
X39760D01*
Y270585D01*
X39660D01*
Y270485D01*
X39560D01*
Y270385D01*
Y270285D01*
X39460D01*
Y270185D01*
X39360D01*
Y270085D01*
X39260D01*
Y269985D01*
X39160D01*
Y269885D01*
Y269785D01*
X39060D01*
Y269685D01*
X38860D01*
Y269585D01*
X38760D01*
Y269485D01*
X38660D01*
Y269385D01*
X38560D01*
Y269285D01*
X38460D01*
Y269185D01*
X38360D01*
Y269085D01*
X39960D01*
Y269185D01*
X40060D01*
Y269285D01*
X40160D01*
Y269385D01*
X40260D01*
Y269485D01*
Y269585D01*
X40360D01*
Y269685D01*
X40460D01*
Y269785D01*
X40560D01*
Y269885D01*
X40660D01*
Y269985D01*
Y270085D01*
X40760D01*
Y270185D01*
X40860D01*
Y270285D01*
X40960D01*
Y270385D01*
Y270485D01*
X41060D01*
Y270585D01*
X41160D01*
Y270685D01*
X41260D01*
Y270785D01*
Y270885D01*
X41360D01*
Y270985D01*
X41460D01*
Y271085D01*
X41560D01*
Y271185D01*
X41660D01*
Y271285D01*
Y271385D01*
X41760D01*
Y271485D01*
X41860D01*
Y271585D01*
X41960D01*
Y271685D01*
Y271785D01*
X42060D01*
Y271885D01*
X42160D01*
Y271985D01*
X42260D01*
Y272085D01*
X42360D01*
Y272185D01*
Y272285D01*
X42460D01*
Y272385D01*
X42560D01*
Y272485D01*
X42660D01*
Y272585D01*
Y272685D01*
X42760D01*
Y272785D01*
X42860D01*
Y272885D01*
X42960D01*
Y272985D01*
X43060D01*
Y273085D01*
Y273185D01*
X43160D01*
Y273285D01*
X43260D01*
Y273385D01*
X43360D01*
Y273485D01*
Y273585D01*
X43460D01*
Y273685D01*
X43560D01*
Y273785D01*
X43660D01*
Y273885D01*
Y273985D01*
X43760D01*
Y274085D01*
X43860D01*
Y274185D01*
X43960D01*
Y274285D01*
Y274385D01*
X44060D01*
Y274485D01*
X44160D01*
Y274585D01*
X44260D01*
Y274685D01*
Y274785D01*
X44360D01*
Y274885D01*
X44560D01*
Y274785D01*
Y274685D01*
Y274585D01*
Y274485D01*
Y274385D01*
Y274285D01*
Y274185D01*
Y274085D01*
Y273985D01*
Y273885D01*
Y273785D01*
Y273685D01*
Y273585D01*
Y273485D01*
Y273385D01*
Y273285D01*
Y273185D01*
Y273085D01*
Y272985D01*
Y272885D01*
Y272785D01*
Y272685D01*
Y272585D01*
Y272485D01*
Y272385D01*
Y272285D01*
Y272185D01*
Y272085D01*
Y271985D01*
Y271885D01*
Y271785D01*
Y271685D01*
Y271585D01*
Y271485D01*
Y271385D01*
Y271285D01*
Y271185D01*
Y271085D01*
Y270985D01*
Y270885D01*
Y270785D01*
Y270685D01*
Y270585D01*
Y270485D01*
Y270385D01*
Y270285D01*
Y270185D01*
Y270085D01*
Y269985D01*
Y269885D01*
Y269785D01*
Y269685D01*
Y269585D01*
Y269485D01*
X44460D01*
Y269385D01*
Y269285D01*
Y269185D01*
X45960D01*
Y269285D01*
Y269385D01*
X45860D01*
Y269485D01*
Y269585D01*
X45760D01*
Y269685D01*
Y269785D01*
Y269885D01*
Y269985D01*
Y270085D01*
Y270185D01*
Y270285D01*
Y270385D01*
Y270485D01*
Y270585D01*
Y270685D01*
Y270785D01*
Y270885D01*
Y270985D01*
Y271085D01*
Y271185D01*
Y271285D01*
Y271385D01*
Y271485D01*
Y271585D01*
Y271685D01*
Y271785D01*
Y271885D01*
Y271985D01*
Y272085D01*
Y272185D01*
Y272285D01*
Y272385D01*
Y272485D01*
Y272585D01*
Y272685D01*
Y272785D01*
Y272885D01*
Y272985D01*
Y273085D01*
Y273185D01*
Y273285D01*
Y273385D01*
Y273485D01*
Y273585D01*
Y273685D01*
Y273785D01*
Y273885D01*
Y273985D01*
Y274085D01*
Y274185D01*
Y274285D01*
Y274385D01*
Y274485D01*
Y274585D01*
Y274685D01*
Y274785D01*
Y274885D01*
Y274985D01*
Y275085D01*
Y275185D01*
Y275285D01*
Y275385D01*
Y275485D01*
Y275585D01*
Y275685D01*
Y275785D01*
Y275885D01*
Y275985D01*
Y276085D01*
Y276185D01*
Y276285D01*
Y276385D01*
Y276485D01*
Y276585D01*
Y276685D01*
Y276785D01*
Y276885D01*
Y276985D01*
Y277085D01*
Y277185D01*
Y277285D01*
Y277385D01*
Y277485D01*
Y277585D01*
Y277685D01*
Y277785D01*
Y277885D01*
Y277985D01*
Y278085D01*
Y278185D01*
Y278285D01*
Y278385D01*
Y278485D01*
Y278585D01*
Y278685D01*
Y278785D01*
Y278885D01*
X45860D01*
Y278985D01*
Y279085D01*
Y279185D01*
Y279285D01*
X45960D01*
Y279385D01*
Y279485D01*
Y279585D01*
D02*
G37*
G36*
X67060Y263985D02*
X66760D01*
Y263885D01*
X66360D01*
Y263785D01*
X66160D01*
Y263685D01*
X66060D01*
Y263585D01*
Y263485D01*
Y263385D01*
Y263285D01*
Y263185D01*
Y263085D01*
Y262985D01*
Y262885D01*
X65760D01*
Y262985D01*
Y263085D01*
Y263185D01*
X65860D01*
Y263285D01*
Y263385D01*
Y263485D01*
X65760D01*
Y263585D01*
Y263685D01*
X65660D01*
Y263785D01*
X65460D01*
Y263885D01*
X64960D01*
Y263985D01*
X64860D01*
Y263885D01*
Y263785D01*
Y263685D01*
Y263585D01*
Y263485D01*
Y263385D01*
X64760D01*
Y263285D01*
X64860D01*
Y263185D01*
Y263085D01*
Y262985D01*
X64960D01*
Y262885D01*
X65160D01*
Y262785D01*
X65460D01*
Y262685D01*
X65560D01*
Y262585D01*
X65460D01*
Y262485D01*
X65360D01*
Y262585D01*
X65160D01*
Y262685D01*
X64560D01*
Y262585D01*
X64460D01*
Y262485D01*
Y262385D01*
X64360D01*
Y262285D01*
Y262185D01*
X64260D01*
Y262085D01*
Y261985D01*
X64360D01*
Y261885D01*
X64560D01*
Y261785D01*
Y261685D01*
X64760D01*
Y261585D01*
X65060D01*
Y261685D01*
X65260D01*
Y261785D01*
X65360D01*
Y261885D01*
Y261985D01*
X65460D01*
Y262085D01*
X65560D01*
Y262185D01*
X65760D01*
Y262085D01*
Y261985D01*
Y261885D01*
X65660D01*
Y261785D01*
X65560D01*
Y261685D01*
X65460D01*
Y261585D01*
Y261485D01*
Y261385D01*
X65360D01*
Y261285D01*
X65460D01*
Y261185D01*
Y261085D01*
X65560D01*
Y260985D01*
X65660D01*
Y260885D01*
X65760D01*
Y260785D01*
X66160D01*
Y260885D01*
X66260D01*
Y260985D01*
X66360D01*
Y261085D01*
X66460D01*
Y261185D01*
Y261285D01*
Y261385D01*
Y261485D01*
Y261585D01*
X66360D01*
Y261685D01*
Y261785D01*
X66260D01*
Y261885D01*
X66160D01*
Y261985D01*
Y262085D01*
X66360D01*
Y261985D01*
X66460D01*
Y261885D01*
X66560D01*
Y261785D01*
Y261685D01*
X66660D01*
Y261585D01*
X67260D01*
Y261685D01*
X67360D01*
Y261785D01*
X67460D01*
Y261885D01*
X67660D01*
Y261985D01*
X67560D01*
Y262085D01*
Y262185D01*
X67460D01*
Y262285D01*
Y262385D01*
Y262485D01*
X67360D01*
Y262585D01*
X67160D01*
Y262685D01*
X66760D01*
Y262585D01*
X66660D01*
Y262485D01*
X66360D01*
Y262585D01*
Y262685D01*
X66660D01*
Y262785D01*
X66760D01*
Y262885D01*
X66960D01*
Y262985D01*
X67060D01*
Y263085D01*
Y263185D01*
X67160D01*
Y263285D01*
Y263385D01*
Y263485D01*
X67060D01*
Y263585D01*
Y263685D01*
Y263785D01*
Y263885D01*
Y263985D01*
D02*
G37*
G36*
X36760D02*
X36460D01*
Y263885D01*
X36360D01*
Y263785D01*
X36460D01*
Y263685D01*
Y263585D01*
X36360D01*
Y263485D01*
Y263385D01*
Y263285D01*
Y263185D01*
Y263085D01*
X36460D01*
Y262985D01*
X36560D01*
Y262885D01*
X36760D01*
Y262785D01*
X36860D01*
Y262685D01*
X37060D01*
Y262585D01*
X37160D01*
Y262485D01*
X37060D01*
Y262385D01*
X36960D01*
Y262485D01*
X36860D01*
Y262585D01*
X36760D01*
Y262685D01*
X36360D01*
Y262585D01*
X36160D01*
Y262485D01*
Y262385D01*
X36060D01*
Y262285D01*
X35960D01*
Y262185D01*
Y262085D01*
Y261985D01*
X35860D01*
Y261885D01*
X36060D01*
Y261785D01*
X36160D01*
Y261685D01*
X36260D01*
Y261585D01*
X36860D01*
Y261685D01*
X36960D01*
Y261785D01*
Y261885D01*
X37060D01*
Y261985D01*
X37160D01*
Y262085D01*
X37360D01*
Y261985D01*
Y261885D01*
X37260D01*
Y261785D01*
X37160D01*
Y261685D01*
X37060D01*
Y261585D01*
Y261485D01*
Y261385D01*
Y261285D01*
Y261185D01*
Y261085D01*
X37160D01*
Y260985D01*
X37260D01*
Y260885D01*
X37360D01*
Y260785D01*
X37760D01*
Y260885D01*
X37860D01*
Y260985D01*
X37960D01*
Y261085D01*
X38060D01*
Y261185D01*
Y261285D01*
Y261385D01*
Y261485D01*
Y261585D01*
Y261685D01*
X37960D01*
Y261785D01*
X37860D01*
Y261885D01*
X37760D01*
Y261985D01*
Y262085D01*
Y262185D01*
X37960D01*
Y262085D01*
X38060D01*
Y261985D01*
X38160D01*
Y261885D01*
Y261785D01*
X38260D01*
Y261685D01*
X38460D01*
Y261585D01*
X38760D01*
Y261685D01*
X38860D01*
Y261785D01*
X39060D01*
Y261885D01*
X39160D01*
Y261985D01*
Y262085D01*
Y262185D01*
Y262285D01*
Y262385D01*
X39060D01*
Y262485D01*
Y262585D01*
X38960D01*
Y262685D01*
X38360D01*
Y262585D01*
X38160D01*
Y262485D01*
X38060D01*
Y262585D01*
X37960D01*
Y262685D01*
X38060D01*
Y262785D01*
X38360D01*
Y262885D01*
X38560D01*
Y262985D01*
X38660D01*
Y263085D01*
Y263185D01*
X38760D01*
Y263285D01*
Y263385D01*
Y263485D01*
X38660D01*
Y263585D01*
Y263685D01*
Y263785D01*
Y263885D01*
X38060D01*
Y263785D01*
X37860D01*
Y263685D01*
X37760D01*
Y263585D01*
Y263485D01*
X37660D01*
Y263385D01*
Y263285D01*
Y263185D01*
X37760D01*
Y263085D01*
Y262985D01*
Y262885D01*
X37460D01*
Y262985D01*
Y263085D01*
Y263185D01*
Y263285D01*
Y263385D01*
Y263485D01*
Y263585D01*
X37360D01*
Y263685D01*
Y263785D01*
X37160D01*
Y263885D01*
X36760D01*
Y263985D01*
D02*
G37*
G36*
X48560Y267285D02*
X43260D01*
Y267185D01*
Y267085D01*
Y266985D01*
Y266885D01*
Y266785D01*
Y266685D01*
Y266585D01*
Y266485D01*
Y266385D01*
Y266285D01*
X43460D01*
Y266385D01*
X43560D01*
Y266485D01*
X47060D01*
Y266385D01*
X47160D01*
Y266285D01*
Y266185D01*
Y266085D01*
Y265985D01*
Y265885D01*
Y265785D01*
Y265685D01*
Y265585D01*
Y265485D01*
Y265385D01*
Y265285D01*
Y265185D01*
Y265085D01*
Y264985D01*
Y264885D01*
Y264785D01*
Y264685D01*
Y264585D01*
Y264485D01*
Y264385D01*
Y264285D01*
Y264185D01*
Y264085D01*
Y263985D01*
Y263885D01*
Y263785D01*
Y263685D01*
Y263585D01*
Y263485D01*
Y263385D01*
Y263285D01*
Y263185D01*
X47060D01*
Y263085D01*
X43260D01*
Y262985D01*
Y262885D01*
Y262785D01*
Y262685D01*
Y262585D01*
Y262485D01*
Y262385D01*
Y262285D01*
Y262185D01*
X43560D01*
Y262285D01*
X47060D01*
Y262185D01*
Y262085D01*
Y261985D01*
Y261885D01*
Y261785D01*
Y261685D01*
Y261585D01*
Y261485D01*
Y261385D01*
Y261285D01*
Y261185D01*
Y261085D01*
Y260985D01*
Y260885D01*
Y260785D01*
Y260685D01*
Y260585D01*
Y260485D01*
Y260385D01*
Y260285D01*
Y260185D01*
Y260085D01*
Y259985D01*
Y259885D01*
Y259785D01*
Y259685D01*
Y259585D01*
Y259485D01*
Y259385D01*
Y259285D01*
Y259185D01*
Y259085D01*
Y258985D01*
Y258885D01*
Y258785D01*
Y258685D01*
Y258585D01*
Y258485D01*
Y258385D01*
Y258285D01*
Y258185D01*
Y258085D01*
Y257985D01*
Y257885D01*
Y257785D01*
Y257685D01*
X43160D01*
Y257785D01*
X42760D01*
Y257885D01*
X42460D01*
Y257985D01*
X42160D01*
Y257885D01*
Y257785D01*
X42260D01*
Y257685D01*
Y257585D01*
Y257485D01*
X42360D01*
Y257385D01*
Y257285D01*
Y257185D01*
Y257085D01*
X42460D01*
Y256985D01*
Y256885D01*
X48460D01*
Y256985D01*
Y257085D01*
Y257185D01*
X48360D01*
Y257285D01*
Y257385D01*
Y257485D01*
X48260D01*
Y257585D01*
Y257685D01*
Y257785D01*
Y257885D01*
Y257985D01*
Y258085D01*
Y258185D01*
Y258285D01*
Y258385D01*
Y258485D01*
Y258585D01*
Y258685D01*
Y258785D01*
Y258885D01*
Y258985D01*
Y259085D01*
Y259185D01*
Y259285D01*
Y259385D01*
Y259485D01*
Y259585D01*
Y259685D01*
Y259785D01*
Y259885D01*
Y259985D01*
Y260085D01*
Y260185D01*
Y260285D01*
Y260385D01*
Y260485D01*
Y260585D01*
Y260685D01*
Y260785D01*
Y260885D01*
Y260985D01*
Y261085D01*
Y261185D01*
Y261285D01*
Y261385D01*
Y261485D01*
Y261585D01*
Y261685D01*
Y261785D01*
Y261885D01*
Y261985D01*
Y262085D01*
Y262185D01*
Y262285D01*
Y262385D01*
Y262485D01*
Y262585D01*
Y262685D01*
Y262785D01*
Y262885D01*
Y262985D01*
Y263085D01*
Y263185D01*
Y263285D01*
Y263385D01*
Y263485D01*
Y263585D01*
Y263685D01*
Y263785D01*
Y263885D01*
Y263985D01*
Y264085D01*
Y264185D01*
Y264285D01*
Y264385D01*
Y264485D01*
Y264585D01*
Y264685D01*
Y264785D01*
Y264885D01*
Y264985D01*
Y265085D01*
Y265185D01*
Y265285D01*
Y265385D01*
Y265485D01*
Y265585D01*
Y265685D01*
Y265785D01*
Y265885D01*
Y265985D01*
Y266085D01*
Y266185D01*
Y266285D01*
Y266385D01*
Y266485D01*
Y266585D01*
Y266685D01*
X48360D01*
Y266785D01*
Y266885D01*
Y266985D01*
X48460D01*
Y267085D01*
Y267185D01*
X48560D01*
Y267285D01*
D02*
G37*
G36*
X51860Y267385D02*
X50860D01*
Y267285D01*
X50760D01*
Y267185D01*
Y267085D01*
Y266985D01*
X50860D01*
Y266885D01*
Y266785D01*
Y266685D01*
Y266585D01*
Y266485D01*
Y266385D01*
Y266285D01*
Y266185D01*
Y266085D01*
Y265985D01*
Y265885D01*
Y265785D01*
Y265685D01*
Y265585D01*
Y265485D01*
Y265385D01*
Y265285D01*
Y265185D01*
Y265085D01*
Y264985D01*
Y264885D01*
Y264785D01*
Y264685D01*
Y264585D01*
Y264485D01*
Y264385D01*
Y264285D01*
Y264185D01*
Y264085D01*
Y263985D01*
Y263885D01*
Y263785D01*
Y263685D01*
Y263585D01*
Y263485D01*
Y263385D01*
Y263285D01*
Y263185D01*
Y263085D01*
Y262985D01*
Y262885D01*
Y262785D01*
Y262685D01*
Y262585D01*
Y262485D01*
Y262385D01*
Y262285D01*
Y262185D01*
Y262085D01*
Y261985D01*
Y261885D01*
Y261785D01*
Y261685D01*
Y261585D01*
Y261485D01*
Y261385D01*
Y261285D01*
Y261185D01*
Y261085D01*
Y260985D01*
Y260885D01*
Y260785D01*
Y260685D01*
Y260585D01*
Y260485D01*
Y260385D01*
Y260285D01*
Y260185D01*
Y260085D01*
Y259985D01*
Y259885D01*
Y259785D01*
Y259685D01*
Y259585D01*
Y259485D01*
Y259385D01*
Y259285D01*
Y259185D01*
Y259085D01*
Y258985D01*
Y258885D01*
Y258785D01*
Y258685D01*
Y258585D01*
Y258485D01*
Y258385D01*
Y258285D01*
Y258185D01*
Y258085D01*
Y257985D01*
Y257885D01*
Y257785D01*
Y257685D01*
Y257585D01*
Y257485D01*
Y257385D01*
Y257285D01*
Y257185D01*
Y257085D01*
Y256985D01*
Y256885D01*
Y256785D01*
Y256685D01*
X51060D01*
Y256785D01*
X51160D01*
Y256885D01*
X51260D01*
Y256985D01*
X51360D01*
Y257085D01*
X51460D01*
Y257185D01*
X51560D01*
Y257285D01*
X51660D01*
Y257385D01*
Y257485D01*
X51760D01*
Y257585D01*
X51860D01*
Y257685D01*
X51960D01*
Y257785D01*
X52060D01*
Y257885D01*
X52160D01*
Y257985D01*
X52260D01*
Y258085D01*
X52360D01*
Y258185D01*
X52460D01*
Y258285D01*
X52560D01*
Y258385D01*
X52660D01*
Y258485D01*
Y258585D01*
X52760D01*
Y258685D01*
X52860D01*
Y258785D01*
X52960D01*
Y258885D01*
X53060D01*
Y258985D01*
X53160D01*
Y259085D01*
X53260D01*
Y259185D01*
X53360D01*
Y259285D01*
X53460D01*
Y259385D01*
X53560D01*
Y259485D01*
X53660D01*
Y259585D01*
Y259685D01*
X53760D01*
Y259785D01*
X53860D01*
Y259885D01*
X53960D01*
Y259985D01*
X54060D01*
Y260085D01*
X54160D01*
Y260185D01*
X54260D01*
Y260285D01*
X54360D01*
Y260385D01*
X54460D01*
Y260485D01*
X54560D01*
Y260585D01*
X54660D01*
Y260685D01*
Y260785D01*
X54760D01*
Y260885D01*
X54860D01*
Y260985D01*
X54960D01*
Y261085D01*
X55060D01*
Y261185D01*
X55160D01*
Y261285D01*
X55260D01*
Y261385D01*
X55360D01*
Y261485D01*
Y261585D01*
X55560D01*
Y261685D01*
X55660D01*
Y261785D01*
Y261885D01*
X55760D01*
Y261985D01*
X55860D01*
Y262085D01*
X55960D01*
Y262185D01*
X56060D01*
Y262285D01*
X56160D01*
Y262385D01*
X56260D01*
Y262485D01*
X56360D01*
Y262585D01*
Y262685D01*
X56560D01*
Y262785D01*
Y262885D01*
X56660D01*
Y262985D01*
X56760D01*
Y263085D01*
X56860D01*
Y263185D01*
X56960D01*
Y263285D01*
X57060D01*
Y263385D01*
X57160D01*
Y263485D01*
X57260D01*
Y263585D01*
X57360D01*
Y263685D01*
X57460D01*
Y263785D01*
X57560D01*
Y263885D01*
Y263985D01*
X57660D01*
Y264085D01*
X57760D01*
Y264185D01*
X57860D01*
Y264285D01*
X57960D01*
Y264385D01*
X58060D01*
Y264485D01*
X58160D01*
Y264585D01*
X58260D01*
Y264685D01*
X58360D01*
Y264785D01*
X58460D01*
Y264885D01*
Y264985D01*
X58560D01*
Y265085D01*
X58660D01*
Y265185D01*
X58760D01*
Y265285D01*
X58860D01*
Y265385D01*
X58960D01*
Y265485D01*
X59060D01*
Y265585D01*
X59160D01*
Y265685D01*
X59260D01*
Y265585D01*
Y265485D01*
Y265385D01*
Y265285D01*
Y265185D01*
Y265085D01*
Y264985D01*
Y264885D01*
Y264785D01*
Y264685D01*
Y264585D01*
Y264485D01*
Y264385D01*
Y264285D01*
Y264185D01*
Y264085D01*
Y263985D01*
Y263885D01*
Y263785D01*
Y263685D01*
Y263585D01*
Y263485D01*
Y263385D01*
Y263285D01*
Y263185D01*
Y263085D01*
Y262985D01*
Y262885D01*
Y262785D01*
Y262685D01*
Y262585D01*
Y262485D01*
Y262385D01*
Y262285D01*
Y262185D01*
Y262085D01*
Y261985D01*
Y261885D01*
Y261785D01*
Y261685D01*
Y261585D01*
Y261485D01*
Y261385D01*
Y261285D01*
Y261185D01*
Y261085D01*
Y260985D01*
Y260885D01*
Y260785D01*
Y260685D01*
Y260585D01*
Y260485D01*
Y260385D01*
Y260285D01*
Y260185D01*
Y260085D01*
Y259985D01*
Y259885D01*
Y259785D01*
Y259685D01*
Y259585D01*
Y259485D01*
Y259385D01*
Y259285D01*
Y259185D01*
Y259085D01*
Y258985D01*
Y258885D01*
Y258785D01*
Y258685D01*
Y258585D01*
Y258485D01*
Y258385D01*
Y258285D01*
Y258185D01*
Y258085D01*
Y257985D01*
Y257885D01*
Y257785D01*
Y257685D01*
Y257585D01*
Y257485D01*
X59160D01*
Y257385D01*
Y257285D01*
Y257185D01*
Y257085D01*
Y256985D01*
Y256885D01*
X60360D01*
Y256985D01*
Y257085D01*
X60260D01*
Y257185D01*
Y257285D01*
Y257385D01*
Y257485D01*
Y257585D01*
X60160D01*
Y257685D01*
Y257785D01*
Y257885D01*
Y257985D01*
Y258085D01*
Y258185D01*
Y258285D01*
Y258385D01*
Y258485D01*
Y258585D01*
Y258685D01*
Y258785D01*
Y258885D01*
Y258985D01*
Y259085D01*
Y259185D01*
Y259285D01*
Y259385D01*
Y259485D01*
Y259585D01*
Y259685D01*
Y259785D01*
Y259885D01*
Y259985D01*
Y260085D01*
Y260185D01*
Y260285D01*
Y260385D01*
Y260485D01*
Y260585D01*
Y260685D01*
Y260785D01*
Y260885D01*
Y260985D01*
Y261085D01*
Y261185D01*
Y261285D01*
Y261385D01*
Y261485D01*
Y261585D01*
Y261685D01*
Y261785D01*
Y261885D01*
Y261985D01*
Y262085D01*
Y262185D01*
Y262285D01*
Y262385D01*
Y262485D01*
Y262585D01*
Y262685D01*
Y262785D01*
Y262885D01*
Y262985D01*
Y263085D01*
Y263185D01*
Y263285D01*
Y263385D01*
Y263485D01*
Y263585D01*
Y263685D01*
Y263785D01*
Y263885D01*
Y263985D01*
Y264085D01*
Y264185D01*
Y264285D01*
Y264385D01*
Y264485D01*
Y264585D01*
Y264685D01*
Y264785D01*
Y264885D01*
Y264985D01*
Y265085D01*
Y265185D01*
Y265285D01*
Y265385D01*
Y265485D01*
Y265585D01*
Y265685D01*
Y265785D01*
Y265885D01*
Y265985D01*
Y266085D01*
Y266185D01*
Y266285D01*
Y266385D01*
Y266485D01*
Y266585D01*
Y266685D01*
X60260D01*
Y266785D01*
Y266885D01*
Y266985D01*
X60360D01*
Y267085D01*
Y267185D01*
X60460D01*
Y267285D01*
X58960D01*
Y267185D01*
X58860D01*
Y267085D01*
X58760D01*
Y266985D01*
X58660D01*
Y266885D01*
X58560D01*
Y266785D01*
X58460D01*
Y266685D01*
Y266585D01*
X58360D01*
Y266485D01*
X58260D01*
Y266385D01*
X58160D01*
Y266285D01*
X58060D01*
Y266185D01*
X57960D01*
Y266085D01*
X57860D01*
Y265985D01*
Y265885D01*
X57760D01*
Y265785D01*
X57660D01*
Y265685D01*
X57560D01*
Y265585D01*
X57460D01*
Y265485D01*
X57360D01*
Y265385D01*
X57260D01*
Y265285D01*
X57160D01*
Y265185D01*
X57060D01*
Y265085D01*
Y264985D01*
X56960D01*
Y264885D01*
X56860D01*
Y264785D01*
X56760D01*
Y264685D01*
X56660D01*
Y264585D01*
X56560D01*
Y264485D01*
X56460D01*
Y264385D01*
X56360D01*
Y264285D01*
Y264185D01*
X56260D01*
Y264085D01*
X56160D01*
Y263985D01*
X56060D01*
Y263885D01*
X55960D01*
Y263785D01*
X55860D01*
Y263685D01*
X55760D01*
Y263585D01*
X55660D01*
Y263485D01*
Y263385D01*
X55560D01*
Y263285D01*
X55460D01*
Y263185D01*
X55360D01*
Y263085D01*
X55260D01*
Y262985D01*
X55160D01*
Y262885D01*
X55060D01*
Y262785D01*
X54960D01*
Y262685D01*
Y262585D01*
X54860D01*
Y262485D01*
X54760D01*
Y262385D01*
X54660D01*
Y262285D01*
X54560D01*
Y262185D01*
X54460D01*
Y262085D01*
X54360D01*
Y261985D01*
X54260D01*
Y261885D01*
Y261785D01*
X54160D01*
Y261685D01*
X54060D01*
Y261585D01*
X53960D01*
Y261485D01*
X53860D01*
Y261385D01*
X53760D01*
Y261285D01*
X53660D01*
Y261185D01*
X53560D01*
Y261085D01*
Y260985D01*
X53460D01*
Y260885D01*
X53360D01*
Y260785D01*
X53260D01*
Y260685D01*
X53160D01*
Y260585D01*
X53060D01*
Y260485D01*
X52960D01*
Y260385D01*
X52860D01*
Y260285D01*
X52760D01*
Y260185D01*
Y260085D01*
X52660D01*
Y259985D01*
X52560D01*
Y259885D01*
X52460D01*
Y259785D01*
X52360D01*
Y259685D01*
X52260D01*
Y259585D01*
X52160D01*
Y259485D01*
X52060D01*
Y259385D01*
Y259285D01*
X51960D01*
Y259185D01*
X51760D01*
Y259285D01*
Y259385D01*
Y259485D01*
Y259585D01*
Y259685D01*
Y259785D01*
Y259885D01*
Y259985D01*
Y260085D01*
Y260185D01*
Y260285D01*
Y260385D01*
Y260485D01*
Y260585D01*
Y260685D01*
Y260785D01*
Y260885D01*
Y260985D01*
Y261085D01*
Y261185D01*
Y261285D01*
Y261385D01*
Y261485D01*
Y261585D01*
Y261685D01*
Y261785D01*
Y261885D01*
Y261985D01*
Y262085D01*
Y262185D01*
Y262285D01*
Y262385D01*
Y262485D01*
Y262585D01*
Y262685D01*
Y262785D01*
Y262885D01*
Y262985D01*
Y263085D01*
Y263185D01*
Y263285D01*
Y263385D01*
Y263485D01*
Y263585D01*
Y263685D01*
Y263785D01*
Y263885D01*
Y263985D01*
Y264085D01*
Y264185D01*
Y264285D01*
Y264385D01*
Y264485D01*
Y264585D01*
Y264685D01*
Y264785D01*
Y264885D01*
Y264985D01*
Y265085D01*
Y265185D01*
Y265285D01*
Y265385D01*
Y265485D01*
Y265585D01*
Y265685D01*
Y265785D01*
Y265885D01*
Y265985D01*
Y266085D01*
Y266185D01*
Y266285D01*
Y266385D01*
Y266485D01*
Y266585D01*
Y266685D01*
Y266785D01*
X51860D01*
Y266885D01*
Y266985D01*
Y267085D01*
Y267185D01*
Y267285D01*
Y267385D01*
D02*
G37*
%LPD*%
G36*
X62654Y278604D02*
Y278504D01*
Y278404D01*
Y278304D01*
Y278204D01*
Y278104D01*
Y278004D01*
Y277904D01*
Y277804D01*
Y277704D01*
Y277604D01*
Y277504D01*
Y277404D01*
Y277304D01*
Y277204D01*
Y277104D01*
Y277004D01*
Y276904D01*
Y276804D01*
Y276704D01*
Y276604D01*
Y276504D01*
Y276404D01*
Y276304D01*
Y276204D01*
Y276104D01*
Y276004D01*
Y275904D01*
Y275804D01*
Y275704D01*
Y275604D01*
Y275504D01*
Y275404D01*
Y275304D01*
Y275204D01*
Y275104D01*
X62554D01*
Y275004D01*
X61754D01*
Y275104D01*
X60854D01*
Y275204D01*
X60654D01*
Y275304D01*
X60454D01*
Y275404D01*
X60254D01*
Y275504D01*
X60154D01*
Y275604D01*
X60054D01*
Y275704D01*
X59954D01*
Y275804D01*
X59854D01*
Y275904D01*
Y276004D01*
X59754D01*
Y276104D01*
Y276204D01*
Y276304D01*
X59654D01*
Y276404D01*
Y276504D01*
Y276604D01*
Y276704D01*
X59554D01*
Y276804D01*
Y276904D01*
Y277004D01*
Y277104D01*
X59654D01*
Y277204D01*
Y277304D01*
Y277404D01*
Y277504D01*
X59754D01*
Y277604D01*
Y277704D01*
Y277804D01*
X59854D01*
Y277904D01*
Y278004D01*
X59954D01*
Y278104D01*
X60054D01*
Y278204D01*
X60154D01*
Y278304D01*
X60254D01*
Y278404D01*
X60454D01*
Y278504D01*
X60554D01*
Y278604D01*
X60854D01*
Y278704D01*
X62654D01*
Y278604D01*
D02*
G37*
G36*
X62554Y274204D02*
X62654D01*
Y274104D01*
Y274004D01*
Y273904D01*
Y273804D01*
Y273704D01*
Y273604D01*
Y273504D01*
Y273404D01*
Y273304D01*
Y273204D01*
Y273104D01*
Y273004D01*
Y272904D01*
Y272804D01*
Y272704D01*
Y272604D01*
Y272504D01*
Y272404D01*
Y272304D01*
Y272204D01*
Y272104D01*
Y272004D01*
Y271904D01*
Y271804D01*
Y271704D01*
Y271604D01*
Y271504D01*
Y271404D01*
Y271304D01*
Y271204D01*
Y271104D01*
Y271004D01*
Y270904D01*
Y270804D01*
Y270704D01*
Y270604D01*
Y270504D01*
Y270404D01*
Y270304D01*
Y270204D01*
Y270104D01*
Y270004D01*
Y269904D01*
X62554D01*
Y269804D01*
X62254D01*
Y269704D01*
X61254D01*
Y269804D01*
X60754D01*
Y269904D01*
X60554D01*
Y270004D01*
X60254D01*
Y270104D01*
X60054D01*
Y270204D01*
X59854D01*
Y270304D01*
X59754D01*
Y270404D01*
X59654D01*
Y270504D01*
X59554D01*
Y270604D01*
X59454D01*
Y270704D01*
X59354D01*
Y270804D01*
X59254D01*
Y270904D01*
Y271004D01*
X59154D01*
Y271104D01*
Y271204D01*
X59054D01*
Y271304D01*
Y271404D01*
Y271504D01*
X58954D01*
Y271604D01*
Y271704D01*
Y271804D01*
Y271904D01*
Y272004D01*
Y272104D01*
Y272204D01*
Y272304D01*
Y272404D01*
Y272504D01*
X59054D01*
Y272604D01*
Y272704D01*
Y272804D01*
Y272904D01*
X59154D01*
Y273004D01*
Y273104D01*
Y273204D01*
X59254D01*
Y273304D01*
X59354D01*
Y273404D01*
X59454D01*
Y273504D01*
Y273604D01*
X59554D01*
Y273704D01*
X59754D01*
Y273804D01*
X59854D01*
Y273904D01*
X59954D01*
Y274004D01*
X60254D01*
Y274104D01*
X60454D01*
Y274204D01*
X60754D01*
Y274304D01*
X62554D01*
Y274204D01*
D02*
G37*
G36*
X43860Y278885D02*
X44260D01*
Y278785D01*
X44560D01*
Y278685D01*
Y278585D01*
Y278485D01*
Y278385D01*
Y278285D01*
Y278185D01*
Y278085D01*
Y277985D01*
Y277885D01*
Y277785D01*
Y277685D01*
Y277585D01*
Y277485D01*
Y277385D01*
Y277285D01*
Y277185D01*
Y277085D01*
Y276985D01*
Y276885D01*
Y276785D01*
Y276685D01*
Y276585D01*
Y276485D01*
Y276385D01*
Y276285D01*
Y276185D01*
Y276085D01*
Y275985D01*
Y275885D01*
Y275785D01*
Y275685D01*
Y275585D01*
Y275485D01*
Y275385D01*
Y275285D01*
Y275185D01*
X43060D01*
Y275285D01*
X42760D01*
Y275385D01*
X42560D01*
Y275485D01*
X42360D01*
Y275585D01*
X42160D01*
Y275685D01*
X42060D01*
Y275785D01*
X41960D01*
Y275885D01*
X41860D01*
Y275985D01*
X41760D01*
Y276085D01*
Y276185D01*
X41660D01*
Y276285D01*
Y276385D01*
X41560D01*
Y276485D01*
Y276585D01*
Y276685D01*
X41460D01*
Y276785D01*
Y276885D01*
Y276985D01*
Y277085D01*
Y277185D01*
Y277285D01*
Y277385D01*
X41560D01*
Y277485D01*
Y277585D01*
Y277685D01*
Y277785D01*
X41660D01*
Y277885D01*
Y277985D01*
X41760D01*
Y278085D01*
Y278185D01*
X41860D01*
Y278285D01*
X41960D01*
Y278385D01*
X42060D01*
Y278485D01*
X42160D01*
Y278585D01*
X42260D01*
Y278685D01*
X42460D01*
Y278785D01*
X42860D01*
Y278885D01*
X43360D01*
Y278985D01*
X43860D01*
Y278885D01*
D02*
G37*
D10*
X306942Y324996D02*
X306942Y178496D01*
X17442D02*
X306942D01*
X17442D02*
Y324996D01*
X306942D01*
X281777Y282623D02*
X283443Y284289D01*
X286776D01*
X288442Y282623D01*
Y280957D01*
X286776Y279291D01*
X283443D01*
X281777Y277624D01*
Y275958D01*
X283443Y274292D01*
X286776D01*
X288442Y275958D01*
X278445Y284289D02*
Y274292D01*
X275113Y277624D01*
X271780Y274292D01*
Y284289D01*
X268448D02*
X265116D01*
X266782D01*
Y274292D01*
X268448D01*
X265116D01*
X260118D02*
Y284289D01*
X253453Y274292D01*
Y284289D01*
X250121D02*
Y274292D01*
X245122D01*
X243456Y275958D01*
Y277624D01*
X245122Y279291D01*
X250121D01*
X245122D01*
X243456Y280957D01*
Y282623D01*
X245122Y284289D01*
X250121D01*
X240124D02*
Y275958D01*
X238458Y274292D01*
X235126D01*
X233459Y275958D01*
Y284289D01*
X230127Y274292D02*
Y284289D01*
X225129D01*
X223463Y282623D01*
Y279291D01*
X225129Y277624D01*
X230127D01*
X226795D02*
X223463Y274292D01*
X220130D02*
Y284289D01*
X213466Y274292D01*
Y284289D01*
X203469D02*
X210134D01*
Y274292D01*
X203469D01*
X210134Y279291D02*
X206801D01*
X190140Y284289D02*
Y275958D01*
X188474Y274292D01*
X185142D01*
X183476Y275958D01*
Y284289D01*
X180143Y274292D02*
Y284289D01*
X173479Y274292D01*
Y284289D01*
X170147D02*
X166814D01*
X168481D01*
Y274292D01*
X170147D01*
X166814D01*
X161816Y284289D02*
Y277624D01*
X158484Y274292D01*
X155151Y277624D01*
Y284289D01*
X145155D02*
X151819D01*
Y274292D01*
X145155D01*
X151819Y279291D02*
X148487D01*
X141822Y274292D02*
Y284289D01*
X136824D01*
X135158Y282623D01*
Y279291D01*
X136824Y277624D01*
X141822D01*
X138490D02*
X135158Y274292D01*
X125161Y282623D02*
X126827Y284289D01*
X130159D01*
X131826Y282623D01*
Y280957D01*
X130159Y279291D01*
X126827D01*
X125161Y277624D01*
Y275958D01*
X126827Y274292D01*
X130159D01*
X131826Y275958D01*
X121829Y284289D02*
X118497D01*
X120163D01*
Y274292D01*
X121829D01*
X118497D01*
X113498Y284289D02*
X106834D01*
X110166D01*
Y274292D01*
X103501Y284289D02*
Y282623D01*
X100169Y279291D01*
X96837Y282623D01*
Y284289D01*
X100169Y279291D02*
Y274292D01*
X283443Y267493D02*
X286776D01*
X288442Y265827D01*
Y259162D01*
X286776Y257496D01*
X283443D01*
X281777Y259162D01*
Y265827D01*
X283443Y267493D01*
X271780D02*
X278445D01*
Y262494D01*
X275113D01*
X278445D01*
Y257496D01*
X258451Y267493D02*
X251787D01*
X255119D01*
Y257496D01*
X241790Y267493D02*
X248455D01*
Y257496D01*
X241790D01*
X248455Y262494D02*
X245122D01*
X231793Y265827D02*
X233459Y267493D01*
X236792D01*
X238458Y265827D01*
Y259162D01*
X236792Y257496D01*
X233459D01*
X231793Y259162D01*
X228461Y267493D02*
Y257496D01*
Y262494D01*
X221797D01*
Y267493D01*
Y257496D01*
X218464D02*
Y267493D01*
X211800Y257496D01*
Y267493D01*
X203469D02*
X206801D01*
X208468Y265827D01*
Y259162D01*
X206801Y257496D01*
X203469D01*
X201803Y259162D01*
Y265827D01*
X203469Y267493D01*
X198471D02*
Y257496D01*
X191806D01*
X183476Y267493D02*
X186808D01*
X188474Y265827D01*
Y259162D01*
X186808Y257496D01*
X183476D01*
X181809Y259162D01*
Y265827D01*
X183476Y267493D01*
X171813Y265827D02*
X173479Y267493D01*
X176811D01*
X178477Y265827D01*
Y259162D01*
X176811Y257496D01*
X173479D01*
X171813Y259162D01*
Y262494D01*
X175145D01*
X168481Y267493D02*
Y265827D01*
X165148Y262494D01*
X161816Y265827D01*
Y267493D01*
X165148Y262494D02*
Y257496D01*
X288942Y310993D02*
Y300996D01*
X283943D01*
X282277Y302662D01*
Y309327D01*
X283943Y310993D01*
X288942D01*
X278945D02*
X275613D01*
X277279D01*
Y300996D01*
X278945D01*
X275613D01*
X263950Y309327D02*
X265616Y310993D01*
X268948D01*
X270614Y309327D01*
Y302662D01*
X268948Y300996D01*
X265616D01*
X263950Y302662D01*
Y305994D01*
X267282D01*
X260617Y310993D02*
X257285D01*
X258951D01*
Y300996D01*
X260617D01*
X257285D01*
X252287Y310993D02*
X245622D01*
X248955D01*
Y300996D01*
X242290D02*
Y307661D01*
X238958Y310993D01*
X235626Y307661D01*
Y300996D01*
Y305994D01*
X242290D01*
X232293Y310993D02*
Y300996D01*
X225629D01*
X205635Y310993D02*
X212300D01*
Y300996D01*
X205635D01*
X212300Y305994D02*
X208968D01*
X202303Y310993D02*
Y300996D01*
X195639D01*
X185642Y310993D02*
X192306D01*
Y300996D01*
X185642D01*
X192306Y305994D02*
X188974D01*
X175645Y309327D02*
X177311Y310993D01*
X180643D01*
X182309Y309327D01*
Y302662D01*
X180643Y300996D01*
X177311D01*
X175645Y302662D01*
X172313Y310993D02*
X165648D01*
X168981D01*
Y300996D01*
X162316D02*
Y310993D01*
X157318D01*
X155651Y309327D01*
Y305994D01*
X157318Y304328D01*
X162316D01*
X158984D02*
X155651Y300996D01*
X147321Y310993D02*
X150653D01*
X152319Y309327D01*
Y302662D01*
X150653Y300996D01*
X147321D01*
X145655Y302662D01*
Y309327D01*
X147321Y310993D01*
X142322Y300996D02*
Y310993D01*
X135658Y300996D01*
Y310993D01*
X132326D02*
X128993D01*
X130659D01*
Y300996D01*
X132326D01*
X128993D01*
X117331Y309327D02*
X118997Y310993D01*
X122329D01*
X123995Y309327D01*
Y302662D01*
X122329Y300996D01*
X118997D01*
X117331Y302662D01*
X107334Y309327D02*
X109000Y310993D01*
X112332D01*
X113998Y309327D01*
Y307661D01*
X112332Y305994D01*
X109000D01*
X107334Y304328D01*
Y302662D01*
X109000Y300996D01*
X112332D01*
X113998Y302662D01*
X94005Y310993D02*
Y300996D01*
X89006D01*
X87340Y302662D01*
Y309327D01*
X89006Y310993D01*
X94005D01*
X77343D02*
X84008D01*
Y300996D01*
X77343D01*
X84008Y305994D02*
X80676D01*
X67347Y309327D02*
X69013Y310993D01*
X72345D01*
X74011Y309327D01*
Y307661D01*
X72345Y305994D01*
X69013D01*
X67347Y304328D01*
Y302662D01*
X69013Y300996D01*
X72345D01*
X74011Y302662D01*
X64014Y310993D02*
X60682D01*
X62348D01*
Y300996D01*
X64014D01*
X60682D01*
X49019Y309327D02*
X50685Y310993D01*
X54018D01*
X55684Y309327D01*
Y302662D01*
X54018Y300996D01*
X50685D01*
X49019Y302662D01*
Y305994D01*
X52351D01*
X45687Y300996D02*
Y310993D01*
X39022Y300996D01*
Y310993D01*
X346442Y167825D02*
X343109D01*
X344776D01*
Y157828D01*
X346442D01*
X343109D01*
X336445D02*
Y166159D01*
Y162827D01*
X338111D01*
X334779D01*
X336445D01*
Y166159D01*
X334779Y167825D01*
X318117Y157828D02*
Y166159D01*
Y162827D01*
X319784D01*
X316451D01*
X318117D01*
Y166159D01*
X316451Y167825D01*
X309787Y157828D02*
X306455D01*
X304788Y159494D01*
Y162827D01*
X306455Y164493D01*
X309787D01*
X311453Y162827D01*
Y159494D01*
X309787Y157828D01*
X301456Y164493D02*
Y159494D01*
X299790Y157828D01*
X294792D01*
Y164493D01*
X291459Y157828D02*
Y164493D01*
X286461D01*
X284795Y162827D01*
Y157828D01*
X274798Y167825D02*
Y157828D01*
X279797D01*
X281463Y159494D01*
Y162827D01*
X279797Y164493D01*
X274798D01*
X261469Y154496D02*
Y164493D01*
X256471D01*
X254805Y162827D01*
Y159494D01*
X256471Y157828D01*
X261469D01*
X251472D02*
X248140D01*
X249806D01*
Y167825D01*
X251472D01*
X238143Y157828D02*
X241476D01*
X243142Y159494D01*
Y162827D01*
X241476Y164493D01*
X238143D01*
X236477Y162827D01*
Y161161D01*
X243142D01*
X231479Y164493D02*
X228147D01*
X226481Y162827D01*
Y157828D01*
X231479D01*
X233145Y159494D01*
X231479Y161161D01*
X226481D01*
X223148Y157828D02*
X218150D01*
X216484Y159494D01*
X218150Y161161D01*
X221482D01*
X223148Y162827D01*
X221482Y164493D01*
X216484D01*
X208153Y157828D02*
X211485D01*
X213152Y159494D01*
Y162827D01*
X211485Y164493D01*
X208153D01*
X206487Y162827D01*
Y161161D01*
X213152D01*
X186493Y164493D02*
X191492D01*
X193158Y162827D01*
Y159494D01*
X191492Y157828D01*
X186493D01*
X181495Y164493D02*
X178163D01*
X176497Y162827D01*
Y157828D01*
X181495D01*
X183161Y159494D01*
X181495Y161161D01*
X176497D01*
X173164Y157828D02*
X169832D01*
X171498D01*
Y167825D01*
X173164D01*
X164834Y157828D02*
X161502D01*
X163168D01*
Y167825D01*
X164834D01*
X143174Y157828D02*
X146506Y161161D01*
Y164493D01*
X143174Y167825D01*
X138176Y162827D02*
X131511D01*
X134843Y166159D02*
Y159494D01*
X121514Y167825D02*
X124847Y166159D01*
X128179Y162827D01*
Y159494D01*
X126513Y157828D01*
X123180D01*
X121514Y159494D01*
Y161161D01*
X123180Y162827D01*
X128179D01*
X118182Y157828D02*
X114850D01*
X116516D01*
Y167825D01*
X118182Y166159D01*
X109852D02*
X108185Y167825D01*
X104853D01*
X103187Y166159D01*
Y164493D01*
X104853Y162827D01*
X106519D01*
X104853D01*
X103187Y161161D01*
Y159494D01*
X104853Y157828D01*
X108185D01*
X109852Y159494D01*
X99855Y157828D02*
X96522Y161161D01*
Y164493D01*
X99855Y167825D01*
X81527Y159494D02*
X79861Y157828D01*
X76529D01*
X74863Y159494D01*
Y166159D01*
X76529Y167825D01*
X79861D01*
X81527Y166159D01*
Y164493D01*
X79861Y162827D01*
X74863D01*
X64866Y157828D02*
X71531D01*
X64866Y164493D01*
Y166159D01*
X66532Y167825D01*
X69864D01*
X71531Y166159D01*
X61534Y157828D02*
X58201D01*
X59868D01*
Y167825D01*
X61534Y166159D01*
X48205Y157828D02*
Y167825D01*
X53203Y162827D01*
X46539D01*
X33210Y166159D02*
X31543Y167825D01*
X28211D01*
X26545Y166159D01*
Y164493D01*
X28211Y162827D01*
X26545Y161161D01*
Y159494D01*
X28211Y157828D01*
X31543D01*
X33210Y159494D01*
Y161161D01*
X31543Y162827D01*
X33210Y164493D01*
Y166159D01*
X31543Y162827D02*
X28211D01*
X23213Y166159D02*
X21547Y167825D01*
X18214D01*
X16548Y166159D01*
Y164493D01*
X18214Y162827D01*
X19881D01*
X18214D01*
X16548Y161161D01*
Y159494D01*
X18214Y157828D01*
X21547D01*
X23213Y159494D01*
X13216Y157828D02*
X9884D01*
X11550D01*
Y167825D01*
X13216Y166159D01*
X4885Y159494D02*
X3219Y157828D01*
X-113D01*
X-1779Y159494D01*
Y166159D01*
X-113Y167825D01*
X3219D01*
X4885Y166159D01*
Y164493D01*
X3219Y162827D01*
X-1779D01*
D14*
X293107Y389760D02*
X293084Y390758D01*
X293014Y391754D01*
X292898Y392746D01*
X292736Y393731D01*
X292529Y394708D01*
X292276Y395674D01*
X291978Y396627D01*
X291637Y397566D01*
X291252Y398487D01*
X290825Y399390D01*
X290356Y400271D01*
X289847Y401130D01*
X289298Y401964D01*
X288711Y402772D01*
X288087Y403552D01*
X287428Y404302D01*
X286734Y405020D01*
X286008Y405705D01*
X285250Y406356D01*
X284463Y406971D01*
X283649Y407548D01*
X282808Y408087D01*
X281943Y408586D01*
X281056Y409045D01*
X280149Y409462D01*
X279223Y409836D01*
X278281Y410166D01*
X277324Y410453D01*
X276355Y410694D01*
X275376Y410890D01*
X274389Y411041D01*
X273396Y411145D01*
X272399Y411203D01*
X271401Y411215D01*
X270403Y411180D01*
X269408Y411099D01*
X268417Y410971D01*
X267434Y410798D01*
X266460Y410579D01*
X265496Y410315D01*
X264547Y410007D01*
X263613Y409654D01*
X262696Y409259D01*
X261798Y408821D01*
X260922Y408342D01*
X260069Y407823D01*
X259241Y407264D01*
X258440Y406668D01*
X257668Y406035D01*
X256926Y405367D01*
X256216Y404665D01*
X255539Y403931D01*
X254897Y403166D01*
X254292Y402372D01*
X253724Y401550D01*
X253194Y400704D01*
X252705Y399833D01*
X252257Y398941D01*
X251851Y398028D01*
X251488Y397098D01*
X251168Y396152D01*
X250893Y395193D01*
X250663Y394221D01*
X250478Y393240D01*
X250339Y392251D01*
X250246Y391256D01*
X250200Y390259D01*
Y389261D01*
X250246Y388263D01*
X250339Y387269D01*
X250478Y386280D01*
X250663Y385299D01*
X250893Y384327D01*
X251168Y383367D01*
X251488Y382421D01*
X251851Y381491D01*
X252257Y380579D01*
X252705Y379686D01*
X253194Y378816D01*
X253724Y377969D01*
X254292Y377148D01*
X254897Y376354D01*
X255539Y375589D01*
X256216Y374855D01*
X256926Y374153D01*
X257668Y373484D01*
X258440Y372852D01*
X259241Y372255D01*
X260069Y371697D01*
X260922Y371178D01*
X261798Y370699D01*
X262696Y370261D01*
X263613Y369865D01*
X264547Y369513D01*
X265497Y369204D01*
X266460Y368940D01*
X267434Y368722D01*
X268417Y368548D01*
X269408Y368421D01*
X270403Y368339D01*
X271401Y368304D01*
X272399Y368316D01*
X273396Y368374D01*
X274389Y368479D01*
X275376Y368629D01*
X276355Y368825D01*
X277324Y369067D01*
X278281Y369353D01*
X279223Y369684D01*
X280149Y370058D01*
X281056Y370475D01*
X281943Y370933D01*
X282808Y371432D01*
X283649Y371971D01*
X284463Y372549D01*
X285250Y373164D01*
X286008Y373814D01*
X286734Y374500D01*
X287428Y375218D01*
X288087Y375968D01*
X288711Y376747D01*
X289298Y377555D01*
X289847Y378389D01*
X290356Y379248D01*
X290825Y380130D01*
X291252Y381032D01*
X291637Y381954D01*
X291978Y382892D01*
X292276Y383845D01*
X292529Y384811D01*
X292736Y385788D01*
X292898Y386773D01*
X293014Y387765D01*
X293084Y388761D01*
X293107Y389760D01*
X21457Y23617D02*
X21433Y24615D01*
X21364Y25612D01*
X21248Y26603D01*
X21086Y27589D01*
X20878Y28565D01*
X20626Y29531D01*
X20328Y30485D01*
X19986Y31423D01*
X19602Y32344D01*
X19174Y33247D01*
X18706Y34129D01*
X18196Y34988D01*
X17648Y35822D01*
X17061Y36630D01*
X16437Y37409D01*
X15777Y38159D01*
X15084Y38877D01*
X14357Y39563D01*
X13600Y40213D01*
X12813Y40828D01*
X11998Y41406D01*
X11158Y41945D01*
X10293Y42444D01*
X9406Y42902D01*
X8499Y43319D01*
X7573Y43693D01*
X6630Y44024D01*
X5674Y44310D01*
X4705Y44552D01*
X3726Y44748D01*
X2739Y44898D01*
X1746Y45003D01*
X749Y45061D01*
X-250Y45072D01*
X-1248Y45038D01*
X-2243Y44956D01*
X-3233Y44829D01*
X-4217Y44655D01*
X-5191Y44437D01*
X-6154Y44172D01*
X-7103Y43864D01*
X-8038Y43512D01*
X-8955Y43116D01*
X-9852Y42678D01*
X-10728Y42199D01*
X-11581Y41680D01*
X-12409Y41122D01*
X-13210Y40525D01*
X-13982Y39893D01*
X-14725Y39224D01*
X-15435Y38522D01*
X-16111Y37788D01*
X-16753Y37023D01*
X-17359Y36229D01*
X-17927Y35408D01*
X-18456Y34561D01*
X-18945Y33691D01*
X-19393Y32798D01*
X-19799Y31886D01*
X-20163Y30956D01*
X-20482Y30010D01*
X-20757Y29050D01*
X-20988Y28078D01*
X-21173Y27097D01*
X-21312Y26108D01*
X-21404Y25114D01*
X-21451Y24116D01*
Y23118D01*
X-21404Y22120D01*
X-21312Y21126D01*
X-21173Y20137D01*
X-20988Y19156D01*
X-20757Y18184D01*
X-20482Y17225D01*
X-20163Y16279D01*
X-19799Y15349D01*
X-19393Y14436D01*
X-18945Y13544D01*
X-18456Y12673D01*
X-17927Y11827D01*
X-17359Y11005D01*
X-16753Y10211D01*
X-16111Y9446D01*
X-15435Y8712D01*
X-14724Y8010D01*
X-13982Y7342D01*
X-13210Y6709D01*
X-12409Y6113D01*
X-11581Y5554D01*
X-10728Y5035D01*
X-9852Y4556D01*
X-8955Y4118D01*
X-8038Y3723D01*
X-7103Y3370D01*
X-6154Y3062D01*
X-5191Y2798D01*
X-4216Y2579D01*
X-3233Y2406D01*
X-2243Y2278D01*
X-1247Y2197D01*
X-250Y2162D01*
X749Y2174D01*
X1746Y2232D01*
X2739Y2336D01*
X3726Y2486D01*
X4705Y2683D01*
X5674Y2924D01*
X6630Y3211D01*
X7573Y3541D01*
X8499Y3915D01*
X9406Y4332D01*
X10293Y4791D01*
X11158Y5290D01*
X11998Y5829D01*
X12813Y6406D01*
X13600Y7021D01*
X14357Y7672D01*
X15084Y8357D01*
X15777Y9075D01*
X16437Y9825D01*
X17061Y10605D01*
X17648Y11413D01*
X18196Y12247D01*
X18706Y13106D01*
X19174Y13987D01*
X19602Y14890D01*
X19986Y15811D01*
X20328Y16750D01*
X20626Y17703D01*
X20878Y18669D01*
X21086Y19646D01*
X21248Y20631D01*
X21364Y21623D01*
X21433Y22619D01*
X21457Y23617D01*
X545079Y23617D02*
X545055Y24615D01*
X544986Y25612D01*
X544870Y26603D01*
X544708Y27589D01*
X544500Y28565D01*
X544247Y29531D01*
X543950Y30485D01*
X543609Y31423D01*
X543224Y32344D01*
X542796Y33247D01*
X542328Y34129D01*
X541818Y34988D01*
X541270Y35822D01*
X540683Y36630D01*
X540059Y37409D01*
X539399Y38159D01*
X538706Y38877D01*
X537979Y39563D01*
X537222Y40213D01*
X536435Y40828D01*
X535620Y41406D01*
X534780Y41945D01*
X533915Y42444D01*
X533028Y42902D01*
X532121Y43319D01*
X531195Y43693D01*
X530253Y44024D01*
X529296Y44310D01*
X528327Y44552D01*
X527348Y44748D01*
X526361Y44898D01*
X525368Y45003D01*
X524371Y45061D01*
X523372Y45072D01*
X522374Y45038D01*
X521379Y44956D01*
X520389Y44829D01*
X519406Y44655D01*
X518431Y44437D01*
X517468Y44172D01*
X516518Y43864D01*
X515584Y43512D01*
X514667Y43116D01*
X513770Y42678D01*
X512894Y42199D01*
X512041Y41680D01*
X511213Y41122D01*
X510412Y40525D01*
X509640Y39893D01*
X508898Y39224D01*
X508187Y38522D01*
X507511Y37788D01*
X506869Y37023D01*
X506263Y36229D01*
X505695Y35408D01*
X505166Y34561D01*
X504677Y33691D01*
X504229Y32798D01*
X503823Y31886D01*
X503459Y30956D01*
X503140Y30010D01*
X502865Y29050D01*
X502634Y28078D01*
X502449Y27097D01*
X502310Y26108D01*
X502218Y25114D01*
X502171Y24116D01*
Y23118D01*
X502218Y22120D01*
X502310Y21126D01*
X502449Y20137D01*
X502634Y19156D01*
X502865Y18184D01*
X503140Y17225D01*
X503459Y16279D01*
X503823Y15349D01*
X504229Y14436D01*
X504677Y13544D01*
X505166Y12673D01*
X505695Y11827D01*
X506263Y11005D01*
X506869Y10211D01*
X507511Y9446D01*
X508187Y8712D01*
X508898Y8010D01*
X509640Y7342D01*
X510412Y6709D01*
X511213Y6113D01*
X512041Y5554D01*
X512894Y5035D01*
X513770Y4556D01*
X514667Y4118D01*
X515584Y3723D01*
X516519Y3370D01*
X517468Y3062D01*
X518431Y2798D01*
X519406Y2579D01*
X520389Y2406D01*
X521379Y2278D01*
X522374Y2197D01*
X523372Y2162D01*
X524371Y2174D01*
X525368Y2232D01*
X526361Y2336D01*
X527348Y2486D01*
X528327Y2683D01*
X529296Y2924D01*
X530253Y3211D01*
X531195Y3541D01*
X532121Y3915D01*
X533028Y4332D01*
X533915Y4791D01*
X534780Y5290D01*
X535620Y5829D01*
X536435Y6406D01*
X537222Y7021D01*
X537979Y7672D01*
X538706Y8357D01*
X539399Y9075D01*
X540059Y9825D01*
X540683Y10605D01*
X541270Y11413D01*
X541818Y12247D01*
X542328Y13106D01*
X542796Y13987D01*
X543224Y14890D01*
X543609Y15811D01*
X543950Y16750D01*
X544247Y17703D01*
X544500Y18669D01*
X544708Y19646D01*
X544870Y20631D01*
X544986Y21623D01*
X545055Y22619D01*
X545079Y23617D01*
X21457Y389759D02*
X21433Y390757D01*
X21364Y391753D01*
X21248Y392745D01*
X21086Y393730D01*
X20878Y394707D01*
X20626Y395673D01*
X20328Y396626D01*
X19986Y397565D01*
X19602Y398486D01*
X19174Y399389D01*
X18706Y400270D01*
X18196Y401129D01*
X17648Y401964D01*
X17061Y402771D01*
X16437Y403551D01*
X15777Y404301D01*
X15084Y405019D01*
X14357Y405704D01*
X13600Y406355D01*
X12813Y406970D01*
X11998Y407547D01*
X11158Y408086D01*
X10293Y408586D01*
X9406Y409044D01*
X8499Y409461D01*
X7573Y409835D01*
X6630Y410166D01*
X5674Y410452D01*
X4705Y410694D01*
X3726Y410890D01*
X2739Y411040D01*
X1746Y411144D01*
X749Y411203D01*
X-250Y411214D01*
X-1248Y411179D01*
X-2243Y411098D01*
X-3233Y410971D01*
X-4217Y410797D01*
X-5191Y410578D01*
X-6154Y410314D01*
X-7103Y410006D01*
X-8038Y409653D01*
X-8955Y409258D01*
X-9852Y408820D01*
X-10728Y408341D01*
X-11581Y407822D01*
X-12409Y407263D01*
X-13210Y406667D01*
X-13982Y406034D01*
X-14725Y405366D01*
X-15435Y404664D01*
X-16111Y403930D01*
X-16753Y403165D01*
X-17359Y402371D01*
X-17927Y401550D01*
X-18456Y400703D01*
X-18945Y399832D01*
X-19393Y398940D01*
X-19799Y398028D01*
X-20163Y397098D01*
X-20482Y396152D01*
X-20757Y395192D01*
X-20988Y394220D01*
X-21173Y393239D01*
X-21312Y392250D01*
X-21404Y391256D01*
X-21451Y390258D01*
Y389260D01*
X-21404Y388262D01*
X-21312Y387268D01*
X-21173Y386279D01*
X-20988Y385298D01*
X-20757Y384326D01*
X-20482Y383366D01*
X-20163Y382420D01*
X-19799Y381490D01*
X-19393Y380578D01*
X-18945Y379686D01*
X-18456Y378815D01*
X-17927Y377968D01*
X-17359Y377147D01*
X-16753Y376353D01*
X-16111Y375588D01*
X-15435Y374854D01*
X-14724Y374152D01*
X-13982Y373484D01*
X-13210Y372851D01*
X-12409Y372255D01*
X-11581Y371696D01*
X-10728Y371177D01*
X-9852Y370698D01*
X-8955Y370260D01*
X-8038Y369865D01*
X-7103Y369512D01*
X-6154Y369204D01*
X-5191Y368940D01*
X-4216Y368721D01*
X-3233Y368547D01*
X-2243Y368420D01*
X-1247Y368339D01*
X-250Y368304D01*
X749Y368315D01*
X1746Y368373D01*
X2739Y368478D01*
X3726Y368628D01*
X4705Y368825D01*
X5674Y369066D01*
X6630Y369353D01*
X7573Y369683D01*
X8499Y370057D01*
X9406Y370474D01*
X10293Y370932D01*
X11158Y371432D01*
X11998Y371971D01*
X12813Y372548D01*
X13600Y373163D01*
X14357Y373814D01*
X15084Y374499D01*
X15777Y375217D01*
X16437Y375967D01*
X17061Y376747D01*
X17648Y377554D01*
X18196Y378389D01*
X18706Y379247D01*
X19174Y380129D01*
X19602Y381032D01*
X19986Y381953D01*
X20328Y382892D01*
X20626Y383845D01*
X20878Y384811D01*
X21086Y385787D01*
X21248Y386773D01*
X21364Y387765D01*
X21433Y388761D01*
X21457Y389759D01*
X545079Y389759D02*
X545055Y390757D01*
X544986Y391753D01*
X544870Y392745D01*
X544708Y393730D01*
X544500Y394707D01*
X544247Y395673D01*
X543950Y396626D01*
X543609Y397565D01*
X543224Y398486D01*
X542796Y399389D01*
X542328Y400270D01*
X541818Y401129D01*
X541270Y401964D01*
X540683Y402771D01*
X540059Y403551D01*
X539399Y404301D01*
X538706Y405019D01*
X537979Y405704D01*
X537222Y406355D01*
X536435Y406970D01*
X535620Y407547D01*
X534780Y408086D01*
X533915Y408586D01*
X533028Y409044D01*
X532121Y409461D01*
X531195Y409835D01*
X530253Y410166D01*
X529296Y410452D01*
X528327Y410694D01*
X527348Y410890D01*
X526361Y411040D01*
X525368Y411144D01*
X524371Y411203D01*
X523372Y411214D01*
X522374Y411179D01*
X521379Y411098D01*
X520389Y410971D01*
X519406Y410797D01*
X518431Y410578D01*
X517468Y410314D01*
X516518Y410006D01*
X515584Y409653D01*
X514667Y409258D01*
X513770Y408820D01*
X512894Y408341D01*
X512041Y407822D01*
X511213Y407263D01*
X510412Y406667D01*
X509640Y406034D01*
X508898Y405366D01*
X508187Y404664D01*
X507511Y403930D01*
X506869Y403165D01*
X506263Y402371D01*
X505695Y401550D01*
X505166Y400703D01*
X504677Y399832D01*
X504229Y398940D01*
X503823Y398028D01*
X503459Y397098D01*
X503140Y396152D01*
X502865Y395192D01*
X502634Y394220D01*
X502449Y393239D01*
X502310Y392250D01*
X502218Y391256D01*
X502171Y390258D01*
Y389260D01*
X502218Y388262D01*
X502310Y387268D01*
X502449Y386279D01*
X502634Y385298D01*
X502865Y384326D01*
X503140Y383366D01*
X503459Y382420D01*
X503823Y381490D01*
X504229Y380578D01*
X504677Y379686D01*
X505166Y378815D01*
X505695Y377968D01*
X506263Y377147D01*
X506869Y376353D01*
X507511Y375588D01*
X508187Y374854D01*
X508898Y374152D01*
X509640Y373484D01*
X510412Y372851D01*
X511213Y372255D01*
X512041Y371696D01*
X512894Y371177D01*
X513770Y370698D01*
X514667Y370260D01*
X515584Y369865D01*
X516519Y369512D01*
X517468Y369204D01*
X518431Y368940D01*
X519406Y368721D01*
X520389Y368547D01*
X521379Y368420D01*
X522374Y368339D01*
X523372Y368304D01*
X524371Y368315D01*
X525368Y368373D01*
X526361Y368478D01*
X527348Y368628D01*
X528327Y368825D01*
X529296Y369066D01*
X530253Y369353D01*
X531195Y369683D01*
X532121Y370057D01*
X533028Y370474D01*
X533915Y370932D01*
X534780Y371432D01*
X535620Y371971D01*
X536435Y372548D01*
X537222Y373163D01*
X537979Y373814D01*
X538706Y374499D01*
X539399Y375217D01*
X540059Y375967D01*
X540683Y376747D01*
X541270Y377554D01*
X541818Y378389D01*
X542328Y379247D01*
X542796Y380129D01*
X543224Y381032D01*
X543609Y381953D01*
X543950Y382892D01*
X544247Y383845D01*
X544500Y384811D01*
X544708Y385787D01*
X544870Y386773D01*
X544986Y387765D01*
X545055Y388761D01*
X545079Y389759D01*
X293107Y23618D02*
X293084Y24616D01*
X293014Y25612D01*
X292898Y26604D01*
X292736Y27590D01*
X292529Y28566D01*
X292276Y29532D01*
X291978Y30485D01*
X291637Y31424D01*
X291252Y32345D01*
X290825Y33248D01*
X290356Y34130D01*
X289847Y34988D01*
X289298Y35823D01*
X288711Y36630D01*
X288087Y37410D01*
X287428Y38160D01*
X286734Y38878D01*
X286008Y39564D01*
X285250Y40214D01*
X284463Y40829D01*
X283649Y41406D01*
X282808Y41945D01*
X281943Y42445D01*
X281056Y42903D01*
X280149Y43320D01*
X279223Y43694D01*
X278281Y44025D01*
X277324Y44311D01*
X276355Y44552D01*
X275376Y44749D01*
X274389Y44899D01*
X273396Y45004D01*
X272399Y45062D01*
X271401Y45073D01*
X270403Y45038D01*
X269408Y44957D01*
X268417Y44830D01*
X267434Y44656D01*
X266460Y44437D01*
X265496Y44173D01*
X264547Y43865D01*
X263613Y43512D01*
X262696Y43117D01*
X261798Y42679D01*
X260922Y42200D01*
X260069Y41681D01*
X259241Y41122D01*
X258440Y40526D01*
X257668Y39893D01*
X256926Y39225D01*
X256216Y38523D01*
X255539Y37789D01*
X254897Y37024D01*
X254292Y36230D01*
X253724Y35409D01*
X253194Y34562D01*
X252705Y33691D01*
X252257Y32799D01*
X251851Y31887D01*
X251488Y30957D01*
X251168Y30011D01*
X250893Y29051D01*
X250663Y28079D01*
X250478Y27098D01*
X250339Y26109D01*
X250246Y25115D01*
X250200Y24117D01*
Y23119D01*
X250246Y22121D01*
X250339Y21127D01*
X250478Y20138D01*
X250663Y19157D01*
X250893Y18185D01*
X251168Y17225D01*
X251488Y16279D01*
X251851Y15349D01*
X252257Y14437D01*
X252705Y13545D01*
X253194Y12674D01*
X253724Y11827D01*
X254292Y11006D01*
X254897Y10212D01*
X255539Y9447D01*
X256216Y8713D01*
X256926Y8011D01*
X257668Y7343D01*
X258440Y6710D01*
X259241Y6114D01*
X260069Y5555D01*
X260922Y5036D01*
X261798Y4557D01*
X262696Y4119D01*
X263613Y3724D01*
X264547Y3371D01*
X265497Y3063D01*
X266460Y2799D01*
X267434Y2580D01*
X268417Y2406D01*
X269408Y2279D01*
X270403Y2198D01*
X271401Y2163D01*
X272399Y2174D01*
X273396Y2232D01*
X274389Y2337D01*
X275376Y2487D01*
X276355Y2684D01*
X277324Y2925D01*
X278281Y3212D01*
X279223Y3542D01*
X280149Y3916D01*
X281056Y4333D01*
X281943Y4791D01*
X282808Y5291D01*
X283649Y5830D01*
X284463Y6407D01*
X285250Y7022D01*
X286008Y7673D01*
X286734Y8358D01*
X287428Y9076D01*
X288087Y9826D01*
X288711Y10606D01*
X289298Y11413D01*
X289847Y12248D01*
X290356Y13107D01*
X290825Y13988D01*
X291252Y14891D01*
X291637Y15812D01*
X291978Y16750D01*
X292276Y17704D01*
X292529Y18670D01*
X292736Y19646D01*
X292898Y20632D01*
X293014Y21624D01*
X293084Y22620D01*
X293107Y23618D01*
X293107Y206693D02*
X293084Y207691D01*
X293014Y208687D01*
X292898Y209679D01*
X292736Y210664D01*
X292529Y211641D01*
X292276Y212607D01*
X291979Y213560D01*
X291637Y214499D01*
X291252Y215420D01*
X290825Y216323D01*
X290356Y217204D01*
X289847Y218063D01*
X289298Y218898D01*
X288711Y219705D01*
X288087Y220485D01*
X287428Y221235D01*
X286734Y221953D01*
X286008Y222638D01*
X285250Y223289D01*
X284464Y223904D01*
X283649Y224481D01*
X282808Y225020D01*
X281943Y225519D01*
X281056Y225978D01*
X280149Y226395D01*
X279223Y226769D01*
X278281Y227099D01*
X277324Y227386D01*
X276356Y227627D01*
X275376Y227824D01*
X274389Y227974D01*
X273396Y228078D01*
X272399Y228136D01*
X271401Y228148D01*
X270403Y228113D01*
X269408Y228032D01*
X268417Y227905D01*
X267434Y227731D01*
X266460Y227512D01*
X265497Y227248D01*
X264547Y226940D01*
X263613Y226587D01*
X262696Y226192D01*
X261798Y225754D01*
X260922Y225275D01*
X260069Y224756D01*
X259241Y224197D01*
X258440Y223601D01*
X257668Y222968D01*
X256926Y222300D01*
X256216Y221598D01*
X255539Y220864D01*
X254897Y220099D01*
X254292Y219305D01*
X253724Y218483D01*
X253194Y217637D01*
X252705Y216766D01*
X252257Y215874D01*
X251851Y214962D01*
X251488Y214032D01*
X251168Y213086D01*
X250893Y212126D01*
X250663Y211154D01*
X250478Y210173D01*
X250339Y209184D01*
X250246Y208190D01*
X250200Y207192D01*
Y206194D01*
X250246Y205196D01*
X250339Y204202D01*
X250478Y203213D01*
X250663Y202232D01*
X250893Y201260D01*
X251168Y200300D01*
X251488Y199354D01*
X251851Y198424D01*
X252257Y197512D01*
X252705Y196619D01*
X253194Y195749D01*
X253724Y194902D01*
X254292Y194081D01*
X254897Y193287D01*
X255539Y192522D01*
X256216Y191788D01*
X256926Y191086D01*
X257668Y190418D01*
X258440Y189785D01*
X259241Y189188D01*
X260069Y188630D01*
X260922Y188111D01*
X261798Y187632D01*
X262696Y187194D01*
X263613Y186799D01*
X264547Y186446D01*
X265497Y186138D01*
X266460Y185873D01*
X267434Y185655D01*
X268417Y185481D01*
X269408Y185354D01*
X270403Y185273D01*
X271401Y185238D01*
X272399Y185249D01*
X273396Y185307D01*
X274389Y185412D01*
X275376Y185562D01*
X276356Y185758D01*
X277324Y186000D01*
X278281Y186286D01*
X279223Y186617D01*
X280149Y186991D01*
X281056Y187408D01*
X281943Y187866D01*
X282808Y188365D01*
X283649Y188905D01*
X284464Y189482D01*
X285250Y190097D01*
X286008Y190747D01*
X286734Y191433D01*
X287428Y192151D01*
X288087Y192901D01*
X288711Y193680D01*
X289298Y194488D01*
X289847Y195323D01*
X290356Y196181D01*
X290825Y197063D01*
X291252Y197966D01*
X291637Y198887D01*
X291979Y199825D01*
X292276Y200779D01*
X292529Y201745D01*
X292736Y202721D01*
X292898Y203707D01*
X293014Y204698D01*
X293084Y205695D01*
X293107Y206693D01*
X271650Y379760D02*
Y399760D01*
X261650Y389760D02*
X281650D01*
X-10000Y23617D02*
X10000D01*
X0Y13617D02*
Y33617D01*
X513622Y23617D02*
X533622D01*
X523622Y13617D02*
Y33617D01*
X-10000Y389759D02*
X10000D01*
X0Y379759D02*
Y399759D01*
X513622Y389759D02*
X533622D01*
X523622Y379759D02*
Y399759D01*
X261650Y23618D02*
X281650D01*
X271650Y13618D02*
Y33618D01*
X271651Y196693D02*
Y216693D01*
X261650Y206693D02*
X281650D01*
X-13100Y242998D02*
Y239666D01*
X-14766Y238000D01*
X-16432Y239666D01*
Y242998D01*
X-18098Y241332D02*
Y238000D01*
Y239666D01*
X-18931Y240499D01*
X-19764Y241332D01*
X-20598D01*
X-25596Y238000D02*
X-23930D01*
X-23097Y238833D01*
Y240499D01*
X-23930Y241332D01*
X-25596D01*
X-26429Y240499D01*
Y239666D01*
X-23097D01*
X-28928Y238000D02*
Y242165D01*
Y240499D01*
X-28095D01*
X-29761D01*
X-28928D01*
Y242165D01*
X-29761Y242998D01*
X-19298Y232175D02*
X-18465Y233008D01*
X-16799D01*
X-15966Y232175D01*
Y228843D01*
X-16799Y228010D01*
X-18465D01*
X-19298Y228843D01*
Y230509D01*
X-17632D01*
X-20965Y228010D02*
Y231342D01*
X-23464D01*
X-24297Y230509D01*
Y228010D01*
X-29295Y233008D02*
Y228010D01*
X-26796D01*
X-25963Y228843D01*
Y230509D01*
X-26796Y231342D01*
X-29295D01*
X-15966Y223008D02*
X-19298D01*
X-17632D01*
Y218010D01*
X-24297Y222175D02*
X-23464Y223008D01*
X-21798D01*
X-20965Y222175D01*
Y218843D01*
X-21798Y218010D01*
X-23464D01*
X-24297Y218843D01*
X-25963Y223008D02*
Y218010D01*
Y219676D01*
X-29295Y223008D01*
X-26796Y220509D01*
X-29295Y218010D01*
X-15966Y213008D02*
X-19298D01*
X-17632D01*
Y208010D01*
X-20965Y213008D02*
Y208010D01*
X-23464D01*
X-24297Y208843D01*
Y212175D01*
X-23464Y213008D01*
X-20965D01*
X-28462D02*
X-26796D01*
X-25963Y212175D01*
Y208843D01*
X-26796Y208010D01*
X-28462D01*
X-29295Y208843D01*
Y212175D01*
X-28462Y213008D01*
X-15966Y203008D02*
X-19298D01*
X-17632D01*
Y198010D01*
X-20965Y203008D02*
Y198010D01*
X-23464D01*
X-24297Y198843D01*
Y202175D01*
X-23464Y203008D01*
X-20965D01*
X-25963D02*
X-27629D01*
X-26796D01*
Y198010D01*
X-25963D01*
X-27629D01*
X-15966Y193008D02*
X-19298D01*
X-17632D01*
Y188010D01*
X-20965D02*
Y193008D01*
X-22631Y191342D01*
X-24297Y193008D01*
Y188010D01*
X-29295Y192175D02*
X-28462Y193008D01*
X-26796D01*
X-25963Y192175D01*
Y191342D01*
X-26796Y190509D01*
X-28462D01*
X-29295Y189676D01*
Y188843D01*
X-28462Y188010D01*
X-26796D01*
X-25963Y188843D01*
X81442Y188994D02*
Y184995D01*
X79442Y182996D01*
X77443Y184995D01*
Y188994D01*
X72445Y182996D02*
X74444D01*
X75444Y183996D01*
Y185995D01*
X74444Y186995D01*
X72445D01*
X71445Y185995D01*
Y184995D01*
X75444D01*
X69446Y186995D02*
Y182996D01*
Y184995D01*
X68446Y185995D01*
X67446Y186995D01*
X66447D01*
X57450Y184995D02*
X53451D01*
X57450Y186995D02*
X53451D01*
X45453Y187994D02*
X44454Y188994D01*
X42454D01*
X41455Y187994D01*
Y186995D01*
X42454Y185995D01*
X43454D01*
X42454D01*
X41455Y184995D01*
Y183996D01*
X42454Y182996D01*
X44454D01*
X45453Y183996D01*
X39455Y182996D02*
Y183996D01*
X38456D01*
Y182996D01*
X39455D01*
X34457Y187994D02*
X33457Y188994D01*
X31458D01*
X30458Y187994D01*
Y183996D01*
X31458Y182996D01*
X33457D01*
X34457Y183996D01*
Y187994D01*
D27*
X235442Y240330D02*
Y230332D01*
Y240330D02*
X231157D01*
X229729Y239854D01*
X229253Y239378D01*
X228777Y238426D01*
Y237474D01*
X229253Y236521D01*
X229729Y236045D01*
X231157Y235569D01*
X235442D02*
X231157D01*
X229729Y235093D01*
X229253Y234617D01*
X228777Y233665D01*
Y232237D01*
X229253Y231284D01*
X229729Y230808D01*
X231157Y230332D01*
X235442D01*
X220826Y236997D02*
Y230332D01*
Y235569D02*
X221778Y236521D01*
X222730Y236997D01*
X224158D01*
X225111Y236521D01*
X226063Y235569D01*
X226539Y234141D01*
Y233189D01*
X226063Y231760D01*
X225111Y230808D01*
X224158Y230332D01*
X222730D01*
X221778Y230808D01*
X220826Y231760D01*
X212923Y235569D02*
X213399Y236521D01*
X214827Y236997D01*
X216255D01*
X217684Y236521D01*
X218160Y235569D01*
X217684Y234617D01*
X216731Y234141D01*
X214351Y233665D01*
X213399Y233189D01*
X212923Y232237D01*
Y231760D01*
X213399Y230808D01*
X214827Y230332D01*
X216255D01*
X217684Y230808D01*
X218160Y231760D01*
X210828Y234141D02*
X205115D01*
Y235093D01*
X205591Y236045D01*
X206067Y236521D01*
X207019Y236997D01*
X208448D01*
X209400Y236521D01*
X210352Y235569D01*
X210828Y234141D01*
Y233189D01*
X210352Y231760D01*
X209400Y230808D01*
X208448Y230332D01*
X207019D01*
X206067Y230808D01*
X205115Y231760D01*
X197259Y240330D02*
Y230332D01*
Y235569D02*
X198212Y236521D01*
X199164Y236997D01*
X200592D01*
X201544Y236521D01*
X202496Y235569D01*
X202973Y234141D01*
Y233189D01*
X202496Y231760D01*
X201544Y230808D01*
X200592Y230332D01*
X199164D01*
X198212Y230808D01*
X197259Y231760D01*
X184357Y236997D02*
X185310Y236521D01*
X186262Y235569D01*
X186738Y234141D01*
Y233189D01*
X186262Y231760D01*
X185310Y230808D01*
X184357Y230332D01*
X182929D01*
X181977Y230808D01*
X181025Y231760D01*
X180549Y233189D01*
Y234141D01*
X181025Y235569D01*
X181977Y236521D01*
X182929Y236997D01*
X184357D01*
X178359D02*
Y230332D01*
Y235093D02*
X176930Y236521D01*
X175978Y236997D01*
X174550D01*
X173598Y236521D01*
X173122Y235093D01*
Y230332D01*
X156935Y236997D02*
Y230332D01*
Y235569D02*
X157887Y236521D01*
X158839Y236997D01*
X160267D01*
X161220Y236521D01*
X162172Y235569D01*
X162648Y234141D01*
Y233189D01*
X162172Y231760D01*
X161220Y230808D01*
X160267Y230332D01*
X158839D01*
X157887Y230808D01*
X156935Y231760D01*
X140700Y240330D02*
Y230332D01*
Y235569D02*
X141652Y236521D01*
X142604Y236997D01*
X144033D01*
X144985Y236521D01*
X145937Y235569D01*
X146413Y234141D01*
Y233189D01*
X145937Y231760D01*
X144985Y230808D01*
X144033Y230332D01*
X142604D01*
X141652Y230808D01*
X140700Y231760D01*
X138034Y234141D02*
X132321D01*
Y235093D01*
X132797Y236045D01*
X133273Y236521D01*
X134225Y236997D01*
X135654D01*
X136606Y236521D01*
X137558Y235569D01*
X138034Y234141D01*
Y233189D01*
X137558Y231760D01*
X136606Y230808D01*
X135654Y230332D01*
X134225D01*
X133273Y230808D01*
X132321Y231760D01*
X124942Y235569D02*
X125418Y236521D01*
X126846Y236997D01*
X128274D01*
X129702Y236521D01*
X130179Y235569D01*
X129702Y234617D01*
X128750Y234141D01*
X126370Y233665D01*
X125418Y233189D01*
X124942Y232237D01*
Y231760D01*
X125418Y230808D01*
X126846Y230332D01*
X128274D01*
X129702Y230808D01*
X130179Y231760D01*
X121895Y240330D02*
X121418Y239854D01*
X120942Y240330D01*
X121418Y240806D01*
X121895Y240330D01*
X121418Y236997D02*
Y230332D01*
X113468Y236997D02*
Y229380D01*
X113944Y227952D01*
X114420Y227476D01*
X115372Y227000D01*
X116800D01*
X117753Y227476D01*
X113468Y235569D02*
X114420Y236521D01*
X115372Y236997D01*
X116800D01*
X117753Y236521D01*
X118705Y235569D01*
X119181Y234141D01*
Y233189D01*
X118705Y231760D01*
X117753Y230808D01*
X116800Y230332D01*
X115372D01*
X114420Y230808D01*
X113468Y231760D01*
X110802Y236997D02*
Y230332D01*
Y235093D02*
X109373Y236521D01*
X108421Y236997D01*
X106993D01*
X106041Y236521D01*
X105565Y235093D01*
Y230332D01*
X95091Y240330D02*
Y230332D01*
Y235569D02*
X94139Y236521D01*
X93186Y236997D01*
X91758D01*
X90806Y236521D01*
X89854Y235569D01*
X89378Y234141D01*
Y233189D01*
X89854Y231760D01*
X90806Y230808D01*
X91758Y230332D01*
X93186D01*
X94139Y230808D01*
X95091Y231760D01*
X86759Y236997D02*
X83903Y230332D01*
X81046Y236997D02*
X83903Y230332D01*
X84855Y228428D01*
X85807Y227476D01*
X86759Y227000D01*
X87235D01*
X230681Y221400D02*
Y213783D01*
X231157Y212354D01*
X231633Y211878D01*
X232585Y211402D01*
X233537D01*
X234490Y211878D01*
X234966Y212354D01*
X235442Y213783D01*
Y214735D01*
X225729Y218067D02*
X226682Y217591D01*
X227634Y216639D01*
X228110Y215211D01*
Y214259D01*
X227634Y212830D01*
X226682Y211878D01*
X225729Y211402D01*
X224301D01*
X223349Y211878D01*
X222397Y212830D01*
X221921Y214259D01*
Y215211D01*
X222397Y216639D01*
X223349Y217591D01*
X224301Y218067D01*
X225729D01*
X219731D02*
Y211402D01*
Y215211D02*
X219255Y216639D01*
X218302Y217591D01*
X217350Y218067D01*
X215922D01*
X209304Y221400D02*
Y211402D01*
Y216639D02*
X210257Y217591D01*
X211209Y218067D01*
X212637D01*
X213589Y217591D01*
X214541Y216639D01*
X215018Y215211D01*
Y214259D01*
X214541Y212830D01*
X213589Y211878D01*
X212637Y211402D01*
X211209D01*
X210257Y211878D01*
X209304Y212830D01*
X200925Y218067D02*
Y211402D01*
Y216639D02*
X201877Y217591D01*
X202830Y218067D01*
X204258D01*
X205210Y217591D01*
X206162Y216639D01*
X206638Y215211D01*
Y214259D01*
X206162Y212830D01*
X205210Y211878D01*
X204258Y211402D01*
X202830D01*
X201877Y211878D01*
X200925Y212830D01*
X198259Y218067D02*
Y211402D01*
Y216163D02*
X196831Y217591D01*
X195879Y218067D01*
X194450D01*
X193498Y217591D01*
X193022Y216163D01*
Y211402D01*
X182548Y221400D02*
Y211402D01*
Y221400D02*
X178263D01*
X176835Y220924D01*
X176359Y220448D01*
X175883Y219496D01*
Y218544D01*
X176359Y217591D01*
X176835Y217115D01*
X178263Y216639D01*
X182548D02*
X178263D01*
X176835Y216163D01*
X176359Y215687D01*
X175883Y214735D01*
Y213306D01*
X176359Y212354D01*
X176835Y211878D01*
X178263Y211402D01*
X182548D01*
X171265Y218067D02*
X172217Y217591D01*
X173169Y216639D01*
X173645Y215211D01*
Y214259D01*
X173169Y212830D01*
X172217Y211878D01*
X171265Y211402D01*
X169837D01*
X168885Y211878D01*
X167932Y212830D01*
X167456Y214259D01*
Y215211D01*
X167932Y216639D01*
X168885Y217591D01*
X169837Y218067D01*
X171265D01*
X165266Y215211D02*
X159553D01*
Y216163D01*
X160029Y217115D01*
X160505Y217591D01*
X161458Y218067D01*
X162886D01*
X163838Y217591D01*
X164790Y216639D01*
X165266Y215211D01*
Y214259D01*
X164790Y212830D01*
X163838Y211878D01*
X162886Y211402D01*
X161458D01*
X160505Y211878D01*
X159553Y212830D01*
X157411Y221400D02*
Y211402D01*
X152650Y218067D02*
X157411Y213306D01*
X155507Y215211D02*
X152174Y211402D01*
X150603Y215211D02*
X144890D01*
Y216163D01*
X145366Y217115D01*
X145842Y217591D01*
X146794Y218067D01*
X148222D01*
X149174Y217591D01*
X150127Y216639D01*
X150603Y215211D01*
Y214259D01*
X150127Y212830D01*
X149174Y211878D01*
X148222Y211402D01*
X146794D01*
X145842Y211878D01*
X144890Y212830D01*
X142747Y221400D02*
Y211402D01*
X139700Y211878D02*
X140176Y211402D01*
X140653Y211878D01*
X140176Y212354D01*
X139700Y211878D01*
Y210926D01*
X140176Y209974D01*
X140653Y209498D01*
X129655Y221400D02*
Y211402D01*
Y221400D02*
X125370D01*
X123942Y220924D01*
X123466Y220448D01*
X122990Y219496D01*
Y218544D01*
X123466Y217591D01*
X123942Y217115D01*
X125370Y216639D01*
X129655D02*
X125370D01*
X123942Y216163D01*
X123466Y215687D01*
X122990Y214735D01*
Y213306D01*
X123466Y212354D01*
X123942Y211878D01*
X125370Y211402D01*
X129655D01*
X120752Y215211D02*
X115039D01*
Y216163D01*
X115515Y217115D01*
X115991Y217591D01*
X116943Y218067D01*
X118372D01*
X119324Y217591D01*
X120276Y216639D01*
X120752Y215211D01*
Y214259D01*
X120276Y212830D01*
X119324Y211878D01*
X118372Y211402D01*
X116943D01*
X115991Y211878D01*
X115039Y212830D01*
X112897Y218067D02*
Y211402D01*
Y216163D02*
X111468Y217591D01*
X110516Y218067D01*
X109088D01*
X108136Y217591D01*
X107660Y216163D01*
Y211402D01*
X90044Y219020D02*
X90520Y219972D01*
X91473Y220924D01*
X92425Y221400D01*
X94329D01*
X95281Y220924D01*
X96233Y219972D01*
X96710Y219020D01*
X97186Y217591D01*
Y215211D01*
X96710Y213783D01*
X96233Y212830D01*
X95281Y211878D01*
X94329Y211402D01*
X92425D01*
X91473Y211878D01*
X90520Y212830D01*
X90044Y213783D01*
Y215211D01*
X92425D02*
X90044D01*
X87759Y218067D02*
Y211402D01*
Y215211D02*
X87283Y216639D01*
X86331Y217591D01*
X85379Y218067D01*
X83950D01*
X83046Y215211D02*
X77333D01*
Y216163D01*
X77809Y217115D01*
X78285Y217591D01*
X79237Y218067D01*
X80665D01*
X81617Y217591D01*
X82570Y216639D01*
X83046Y215211D01*
Y214259D01*
X82570Y212830D01*
X81617Y211878D01*
X80665Y211402D01*
X79237D01*
X78285Y211878D01*
X77333Y212830D01*
X69477Y218067D02*
Y210450D01*
X69953Y209022D01*
X70429Y208546D01*
X71382Y208069D01*
X72810D01*
X73762Y208546D01*
X69477Y216639D02*
X70429Y217591D01*
X71382Y218067D01*
X72810D01*
X73762Y217591D01*
X74714Y216639D01*
X75190Y215211D01*
Y214259D01*
X74714Y212830D01*
X73762Y211878D01*
X72810Y211402D01*
X71382D01*
X70429Y211878D01*
X69477Y212830D01*
X61098Y218067D02*
Y210450D01*
X61574Y209022D01*
X62050Y208546D01*
X63003Y208069D01*
X64431D01*
X65383Y208546D01*
X61098Y216639D02*
X62050Y217591D01*
X63003Y218067D01*
X64431D01*
X65383Y217591D01*
X66335Y216639D01*
X66811Y215211D01*
Y214259D01*
X66335Y212830D01*
X65383Y211878D01*
X64431Y211402D01*
X63003D01*
X62050Y211878D01*
X61098Y212830D01*
X57480Y211878D02*
X57956Y211402D01*
X58432Y211878D01*
X57956Y212354D01*
X57480Y211878D01*
Y210926D01*
X57956Y209974D01*
X58432Y209498D01*
X235442Y196757D02*
X231157D01*
X229729Y197233D01*
X229253Y197709D01*
X228777Y198661D01*
Y200090D01*
X229253Y201042D01*
X229729Y201518D01*
X231157Y201994D01*
X235442D01*
Y191996D01*
X220826Y198661D02*
Y191996D01*
Y197233D02*
X221778Y198185D01*
X222730Y198661D01*
X224158D01*
X225111Y198185D01*
X226063Y197233D01*
X226539Y195805D01*
Y194852D01*
X226063Y193424D01*
X225111Y192472D01*
X224158Y191996D01*
X222730D01*
X221778Y192472D01*
X220826Y193424D01*
X216731Y201994D02*
Y193900D01*
X216255Y192472D01*
X215303Y191996D01*
X214351D01*
X218160Y198661D02*
X214827D01*
X212923D02*
Y191996D01*
Y195805D02*
X212447Y197233D01*
X211494Y198185D01*
X210542Y198661D01*
X209114D01*
X207257Y201994D02*
X206781Y201518D01*
X206305Y201994D01*
X206781Y202470D01*
X207257Y201994D01*
X206781Y198661D02*
Y191996D01*
X198830Y197233D02*
X199783Y198185D01*
X200735Y198661D01*
X202163D01*
X203115Y198185D01*
X204067Y197233D01*
X204544Y195805D01*
Y194852D01*
X204067Y193424D01*
X203115Y192472D01*
X202163Y191996D01*
X200735D01*
X199783Y192472D01*
X198830Y193424D01*
X196688Y201994D02*
Y191996D01*
X191927Y198661D02*
X196688Y193900D01*
X194784Y195805D02*
X191451Y191996D01*
X174883Y199613D02*
X175359Y200566D01*
X176312Y201518D01*
X177264Y201994D01*
X179168D01*
X180120Y201518D01*
X181072Y200566D01*
X181549Y199613D01*
X182025Y198185D01*
Y195805D01*
X181549Y194376D01*
X181072Y193424D01*
X180120Y192472D01*
X179168Y191996D01*
X177264D01*
X176312Y192472D01*
X175359Y193424D01*
X174883Y194376D01*
X172074Y198661D02*
Y193900D01*
X171598Y192472D01*
X170646Y191996D01*
X169218D01*
X168266Y192472D01*
X166837Y193900D01*
Y198661D02*
Y191996D01*
X164219Y198661D02*
Y191996D01*
Y195805D02*
X163743Y197233D01*
X162791Y198185D01*
X161838Y198661D01*
X160410D01*
X158077Y201994D02*
Y193900D01*
X157601Y192472D01*
X156649Y191996D01*
X155697D01*
X159506Y198661D02*
X156173D01*
X148556D02*
Y191996D01*
Y197233D02*
X149508Y198185D01*
X150460Y198661D01*
X151888D01*
X152840Y198185D01*
X153793Y197233D01*
X154269Y195805D01*
Y194852D01*
X153793Y193424D01*
X152840Y192472D01*
X151888Y191996D01*
X150460D01*
X149508Y192472D01*
X148556Y193424D01*
X144937Y201994D02*
X144461Y201518D01*
X143985Y201994D01*
X144461Y202470D01*
X144937Y201994D01*
X144461Y198661D02*
Y191996D01*
X142224Y198661D02*
Y191996D01*
Y196757D02*
X140795Y198185D01*
X139843Y198661D01*
X138415D01*
X137463Y198185D01*
X136987Y196757D01*
Y191996D01*
D94*
X40679Y221233D02*
X41678D01*
X42178Y220733D01*
Y218733D01*
X41678Y218233D01*
X40679D01*
X40179Y218733D01*
Y220733D01*
X40679Y221233D01*
X37180Y220733D02*
X37680Y221233D01*
X38679D01*
X39179Y220733D01*
Y220233D01*
X38679Y219733D01*
X37680D01*
X37180Y219233D01*
Y218733D01*
X37680Y218233D01*
X38679D01*
X39179Y218733D01*
X36180Y221233D02*
Y218233D01*
Y219733D01*
X34181D01*
Y221233D01*
Y218233D01*
X33181Y221233D02*
Y218233D01*
X32181Y219233D01*
X31182Y218233D01*
Y221233D01*
M02*
