G04*
G04 #@! TF.GenerationSoftware,Altium Limited,Altium Designer,19.1.8 (144)*
G04*
G04 Layer_Color=65535*
%FSLAX25Y25*%
%MOIN*%
G70*
G01*
G75*
%ADD10C,0.02000*%
%ADD11C,0.01300*%
%ADD12C,0.00984*%
%ADD13C,0.02362*%
%ADD14C,0.01000*%
%ADD15C,0.00800*%
%ADD16C,0.02400*%
%ADD17C,0.03000*%
%ADD18C,0.00500*%
%ADD19C,0.00394*%
%ADD20C,0.00787*%
%ADD21C,0.00787*%
%ADD22C,0.01968*%
%ADD23C,0.03500*%
%ADD24C,0.01181*%
%ADD25C,0.01200*%
%ADD26C,0.01400*%
%ADD27C,0.01500*%
%ADD28R,0.14000X0.45000*%
%ADD29R,0.13000X0.40000*%
%ADD30R,0.08000X0.30000*%
G36*
X-3558Y380496D02*
X-7558D01*
Y367996D01*
X-15558D01*
Y380496D01*
X-19558D01*
X-11558Y388496D01*
X-3558Y380496D01*
D02*
G37*
G36*
X404099Y353222D02*
X406099D01*
X402099Y349222D01*
X398099Y353222D01*
X400099D01*
Y356770D01*
X404099D01*
Y353222D01*
D02*
G37*
G36*
X-7558Y352246D02*
X-3558D01*
X-11558Y344246D01*
X-19558Y352246D01*
X-15558D01*
Y364746D01*
X-7558D01*
Y352246D01*
D02*
G37*
G36*
X438599Y341996D02*
X441099D01*
X436099Y336996D01*
X431099Y341996D01*
X433599D01*
Y351996D01*
X438599D01*
Y341996D01*
D02*
G37*
G36*
X495099Y343496D02*
X499099D01*
X491099Y335496D01*
X483099Y343496D01*
X487099D01*
Y355996D01*
X495099D01*
Y343496D01*
D02*
G37*
G36*
X402099Y334728D02*
X405647D01*
Y330728D01*
X402099D01*
Y328728D01*
X398099Y332728D01*
X402099Y336728D01*
Y334728D01*
D02*
G37*
G36*
X404099Y318496D02*
X406099D01*
X402099Y314496D01*
X398099Y318496D01*
X400099D01*
Y323496D01*
X404099D01*
Y318496D01*
D02*
G37*
G36*
X499099Y316496D02*
X511599D01*
Y308496D01*
X499099Y308496D01*
X499099Y304496D01*
X491099Y312496D01*
X499099Y320496D01*
Y316496D01*
D02*
G37*
G36*
X402099Y310996D02*
X407099D01*
Y306996D01*
X402099D01*
Y304996D01*
X398099Y308996D01*
X402099Y312996D01*
Y310996D01*
D02*
G37*
G36*
X404099Y298496D02*
X406099D01*
X402099Y294496D01*
X398099Y298496D01*
X400099D01*
Y303496D01*
X404099D01*
Y298496D01*
D02*
G37*
G36*
X407599Y288996D02*
X403599Y284996D01*
Y286996D01*
X398599D01*
Y290996D01*
X403599D01*
Y292996D01*
X407599Y288996D01*
D02*
G37*
G36*
X466599Y280496D02*
X461599Y275496D01*
Y277996D01*
X451599D01*
Y282996D01*
X461599D01*
Y285496D01*
X466599Y280496D01*
D02*
G37*
G36*
X522216Y225992D02*
X522000D01*
Y226000D01*
X522216Y225992D01*
D02*
G37*
G36*
X482216D02*
X482000D01*
Y226000D01*
X482216Y225992D01*
D02*
G37*
G36*
X522000Y210216D02*
X520421Y211795D01*
X519285D01*
Y212310D01*
X516599Y214996D01*
Y218175D01*
X516929Y218506D01*
Y221326D01*
X518594Y222991D01*
Y223467D01*
X518823D01*
X521348Y225992D01*
X522000D01*
Y210216D01*
D02*
G37*
G36*
X482000D02*
X480421Y211795D01*
X479285D01*
Y212310D01*
X476599Y214996D01*
Y218175D01*
X476930Y218506D01*
Y221326D01*
X478594Y222991D01*
Y223467D01*
X478823D01*
X481348Y225992D01*
X482000D01*
Y210216D01*
D02*
G37*
G36*
X529777Y224197D02*
X530913Y224197D01*
Y223682D01*
X533599Y220996D01*
Y217817D01*
X533269Y217487D01*
Y214666D01*
X531604Y213001D01*
Y212525D01*
X531375D01*
X528851Y210000D01*
X528198D01*
Y225776D01*
X529777Y224197D01*
D02*
G37*
G36*
X489777D02*
X490913Y224197D01*
Y223682D01*
X493599Y220996D01*
Y217817D01*
X493269Y217487D01*
Y214666D01*
X491604Y213001D01*
Y212525D01*
X491375D01*
X488850Y210000D01*
X488198D01*
Y225776D01*
X489777Y224197D01*
D02*
G37*
G36*
X528198Y209992D02*
X527982Y210000D01*
X528198D01*
Y209992D01*
D02*
G37*
G36*
X488198D02*
X487982Y210000D01*
X488198D01*
Y209992D01*
D02*
G37*
G36*
X522216Y205992D02*
X522000D01*
Y206000D01*
X522216Y205992D01*
D02*
G37*
G36*
X502232D02*
X502016D01*
Y206000D01*
X502232Y205992D01*
D02*
G37*
G36*
X482216D02*
X482000D01*
Y206000D01*
X482216Y205992D01*
D02*
G37*
G36*
X522000Y190216D02*
X520421Y191795D01*
X519285D01*
Y192310D01*
X516599Y194996D01*
Y198175D01*
X516929Y198505D01*
Y201326D01*
X518594Y202991D01*
Y203467D01*
X518823D01*
X521348Y205992D01*
X522000D01*
Y190216D01*
D02*
G37*
G36*
X502016D02*
X500437Y191795D01*
X499301D01*
Y192310D01*
X496615Y194996D01*
Y198175D01*
X496945Y198505D01*
Y201326D01*
X498610Y202991D01*
Y203467D01*
X498839D01*
X501364Y205992D01*
X502016D01*
Y190216D01*
D02*
G37*
G36*
X482000D02*
X480421Y191795D01*
X479285D01*
Y192310D01*
X476599Y194996D01*
Y198175D01*
X476930Y198505D01*
Y201326D01*
X478594Y202991D01*
Y203467D01*
X478823D01*
X481348Y205992D01*
X482000D01*
Y190216D01*
D02*
G37*
G36*
X529777Y204197D02*
X530913Y204197D01*
Y203682D01*
X533599Y200996D01*
Y197817D01*
X533269Y197486D01*
Y194666D01*
X531604Y193001D01*
Y192525D01*
X531375D01*
X528851Y190000D01*
X528198D01*
Y205776D01*
X529777Y204197D01*
D02*
G37*
G36*
X509793D02*
X510929Y204197D01*
Y203682D01*
X513615Y200996D01*
Y197817D01*
X513285Y197486D01*
Y194666D01*
X511620Y193001D01*
Y192525D01*
X511391D01*
X508866Y190000D01*
X508214D01*
Y205776D01*
X509793Y204197D01*
D02*
G37*
G36*
X489777D02*
X490913Y204197D01*
Y203682D01*
X493599Y200996D01*
Y197817D01*
X493269Y197486D01*
Y194666D01*
X491604Y193001D01*
Y192525D01*
X491375D01*
X488850Y190000D01*
X488198D01*
Y205776D01*
X489777Y204197D01*
D02*
G37*
G36*
X528198Y189992D02*
X527982Y190000D01*
X528198D01*
Y189992D01*
D02*
G37*
G36*
X508214D02*
X507998Y190000D01*
X508214D01*
Y189992D01*
D02*
G37*
G36*
X488198D02*
X487982Y190000D01*
X488198D01*
Y189992D01*
D02*
G37*
G36*
X522216Y185992D02*
X522000D01*
Y186000D01*
X522216Y185992D01*
D02*
G37*
G36*
X482216D02*
X482000D01*
Y186000D01*
X482216Y185992D01*
D02*
G37*
G36*
X522000Y170216D02*
X520421Y171795D01*
X519285D01*
Y172310D01*
X516599Y174996D01*
Y178175D01*
X516929Y178506D01*
Y181326D01*
X518594Y182991D01*
Y183467D01*
X518823D01*
X521348Y185992D01*
X522000D01*
Y170216D01*
D02*
G37*
G36*
X482000D02*
X480421Y171795D01*
X479285D01*
Y172310D01*
X476599Y174996D01*
Y178175D01*
X476930Y178506D01*
Y181326D01*
X478594Y182991D01*
Y183467D01*
X478823D01*
X481348Y185992D01*
X482000D01*
Y170216D01*
D02*
G37*
G36*
X529777Y184197D02*
X530913Y184197D01*
Y183682D01*
X533599Y180996D01*
Y177817D01*
X533269Y177487D01*
Y174666D01*
X531604Y173001D01*
Y172524D01*
X531375D01*
X528851Y170000D01*
X528198D01*
Y185776D01*
X529777Y184197D01*
D02*
G37*
G36*
X489777D02*
X490913Y184197D01*
Y183682D01*
X493599Y180996D01*
Y177817D01*
X493269Y177487D01*
Y174666D01*
X491604Y173001D01*
Y172524D01*
X491375D01*
X488850Y170000D01*
X488198D01*
Y185776D01*
X489777Y184197D01*
D02*
G37*
G36*
X528198Y169992D02*
X527982Y170000D01*
X528198D01*
Y169992D01*
D02*
G37*
G36*
X488198D02*
X487982Y170000D01*
X488198D01*
Y169992D01*
D02*
G37*
G36*
X505719Y80846D02*
X498889Y79016D01*
X497058Y85846D01*
X505719Y80846D01*
D02*
G37*
G36*
X475310Y79016D02*
X468480Y80846D01*
X477140Y85846D01*
X475310Y79016D01*
D02*
G37*
G36*
X350346Y14276D02*
X346145D01*
Y18476D01*
X350346Y14276D01*
D02*
G37*
D10*
X513599Y197996D02*
X513540Y199001D01*
X513361Y199993D01*
X513067Y200956D01*
X512661Y201877D01*
X512149Y202745D01*
X511538Y203545D01*
X510837Y204268D01*
X510054Y204902D01*
X509203Y205440D01*
X508294Y205873D01*
X507340Y206195D01*
X506354Y206403D01*
X505351Y206492D01*
X504344Y206462D01*
X503348Y206314D01*
X502377Y206048D01*
X501444Y205670D01*
X500562Y205184D01*
X499744Y204596D01*
X499000Y203917D01*
X498343Y203154D01*
X497780Y202319D01*
X497321Y201423D01*
X496970Y200479D01*
X496733Y199499D01*
X496614Y198500D01*
Y197492D01*
X496733Y196492D01*
X496970Y195513D01*
X497321Y194569D01*
X497780Y193674D01*
X498343Y192838D01*
X499000Y192075D01*
X499744Y191395D01*
X500562Y190808D01*
X501444Y190322D01*
X502377Y189944D01*
X503348Y189678D01*
X504344Y189530D01*
X505351Y189500D01*
X506354Y189589D01*
X507340Y189797D01*
X508294Y190119D01*
X509203Y190552D01*
X510054Y191090D01*
X510837Y191724D01*
X511538Y192447D01*
X512149Y193247D01*
X512661Y194115D01*
X513067Y195036D01*
X513361Y195999D01*
X513540Y196991D01*
X513599Y197996D01*
X533599Y217996D02*
X533539Y219001D01*
X533361Y219992D01*
X533067Y220956D01*
X532661Y221877D01*
X532149Y222744D01*
X531538Y223545D01*
X530837Y224268D01*
X530055Y224902D01*
X529203Y225440D01*
X528294Y225873D01*
X527340Y226195D01*
X526354Y226403D01*
X525351Y226492D01*
X524344Y226462D01*
X523348Y226314D01*
X522377Y226048D01*
X521444Y225670D01*
X520562Y225184D01*
X519743Y224596D01*
X519000Y223917D01*
X518343Y223154D01*
X517780Y222319D01*
X517320Y221423D01*
X516970Y220479D01*
X516733Y219499D01*
X516614Y218499D01*
Y217492D01*
X516733Y216492D01*
X516970Y215513D01*
X517320Y214569D01*
X517780Y213673D01*
X518343Y212838D01*
X519000Y212075D01*
X519743Y211396D01*
X520562Y210808D01*
X521444Y210322D01*
X522377Y209944D01*
X523348Y209678D01*
X524344Y209530D01*
X525351Y209500D01*
X526354Y209589D01*
X527340Y209797D01*
X528294Y210119D01*
X529203Y210552D01*
X530055Y211090D01*
X530836Y211724D01*
X531538Y212447D01*
X532149Y213247D01*
X532661Y214115D01*
X533067Y215036D01*
X533361Y215999D01*
X533539Y216991D01*
X533599Y217996D01*
Y197996D02*
X533539Y199001D01*
X533361Y199993D01*
X533067Y200956D01*
X532661Y201877D01*
X532149Y202745D01*
X531538Y203545D01*
X530837Y204268D01*
X530055Y204902D01*
X529203Y205440D01*
X528294Y205873D01*
X527340Y206195D01*
X526354Y206403D01*
X525351Y206492D01*
X524344Y206462D01*
X523348Y206314D01*
X522377Y206048D01*
X521444Y205670D01*
X520562Y205184D01*
X519743Y204596D01*
X519000Y203917D01*
X518343Y203154D01*
X517780Y202319D01*
X517320Y201423D01*
X516970Y200479D01*
X516733Y199499D01*
X516614Y198500D01*
Y197492D01*
X516733Y196492D01*
X516970Y195513D01*
X517320Y194569D01*
X517780Y193674D01*
X518343Y192838D01*
X519000Y192075D01*
X519743Y191395D01*
X520562Y190808D01*
X521444Y190322D01*
X522377Y189944D01*
X523348Y189678D01*
X524344Y189530D01*
X525351Y189500D01*
X526354Y189589D01*
X527340Y189797D01*
X528294Y190119D01*
X529203Y190552D01*
X530055Y191090D01*
X530836Y191724D01*
X531538Y192447D01*
X532149Y193247D01*
X532661Y194115D01*
X533067Y195036D01*
X533361Y195999D01*
X533539Y196991D01*
X533599Y197996D01*
Y177996D02*
X533539Y179001D01*
X533361Y179992D01*
X533067Y180956D01*
X532661Y181877D01*
X532149Y182745D01*
X531538Y183545D01*
X530837Y184268D01*
X530055Y184902D01*
X529203Y185440D01*
X528294Y185873D01*
X527340Y186195D01*
X526354Y186403D01*
X525351Y186492D01*
X524344Y186462D01*
X523348Y186314D01*
X522377Y186048D01*
X521444Y185670D01*
X520562Y185184D01*
X519743Y184596D01*
X519000Y183917D01*
X518343Y183154D01*
X517780Y182318D01*
X517320Y181422D01*
X516970Y180479D01*
X516733Y179499D01*
X516614Y178499D01*
Y177492D01*
X516733Y176492D01*
X516970Y175514D01*
X517320Y174569D01*
X517780Y173673D01*
X518343Y172838D01*
X519000Y172075D01*
X519743Y171396D01*
X520562Y170808D01*
X521444Y170322D01*
X522377Y169944D01*
X523348Y169678D01*
X524344Y169530D01*
X525351Y169500D01*
X526354Y169589D01*
X527340Y169797D01*
X528294Y170119D01*
X529203Y170552D01*
X530055Y171090D01*
X530836Y171724D01*
X531538Y172447D01*
X532149Y173248D01*
X532661Y174115D01*
X533067Y175036D01*
X533361Y175999D01*
X533539Y176991D01*
X533599Y177996D01*
X493599Y177996D02*
X493539Y179001D01*
X493361Y179992D01*
X493067Y180956D01*
X492661Y181877D01*
X492149Y182745D01*
X491538Y183545D01*
X490837Y184268D01*
X490055Y184902D01*
X489203Y185440D01*
X488294Y185873D01*
X487340Y186195D01*
X486354Y186403D01*
X485351Y186492D01*
X484344Y186462D01*
X483348Y186314D01*
X482377Y186048D01*
X481444Y185670D01*
X480562Y185184D01*
X479743Y184596D01*
X479000Y183917D01*
X478343Y183154D01*
X477780Y182318D01*
X477320Y181422D01*
X476970Y180479D01*
X476733Y179499D01*
X476614Y178499D01*
Y177492D01*
X476733Y176492D01*
X476970Y175514D01*
X477320Y174569D01*
X477780Y173673D01*
X478343Y172838D01*
X479000Y172075D01*
X479743Y171396D01*
X480562Y170808D01*
X481444Y170322D01*
X482377Y169944D01*
X483348Y169678D01*
X484344Y169530D01*
X485351Y169500D01*
X486354Y169589D01*
X487340Y169797D01*
X488294Y170119D01*
X489203Y170552D01*
X490055Y171090D01*
X490836Y171724D01*
X491538Y172447D01*
X492149Y173248D01*
X492661Y174115D01*
X493067Y175036D01*
X493361Y175999D01*
X493539Y176991D01*
X493599Y177996D01*
Y197996D02*
X493539Y199001D01*
X493361Y199993D01*
X493067Y200956D01*
X492661Y201877D01*
X492149Y202745D01*
X491538Y203545D01*
X490837Y204268D01*
X490055Y204902D01*
X489203Y205440D01*
X488294Y205873D01*
X487340Y206195D01*
X486354Y206403D01*
X485351Y206492D01*
X484344Y206462D01*
X483348Y206314D01*
X482377Y206048D01*
X481444Y205670D01*
X480562Y205184D01*
X479743Y204596D01*
X479000Y203917D01*
X478343Y203154D01*
X477780Y202319D01*
X477320Y201423D01*
X476970Y200479D01*
X476733Y199499D01*
X476614Y198500D01*
Y197492D01*
X476733Y196492D01*
X476970Y195513D01*
X477320Y194569D01*
X477780Y193674D01*
X478343Y192838D01*
X479000Y192075D01*
X479743Y191395D01*
X480562Y190808D01*
X481444Y190322D01*
X482377Y189944D01*
X483348Y189678D01*
X484344Y189530D01*
X485351Y189500D01*
X486354Y189589D01*
X487340Y189797D01*
X488294Y190119D01*
X489203Y190552D01*
X490055Y191090D01*
X490836Y191724D01*
X491538Y192447D01*
X492149Y193247D01*
X492661Y194115D01*
X493067Y195036D01*
X493361Y195999D01*
X493539Y196991D01*
X493599Y197996D01*
Y217996D02*
X493539Y219001D01*
X493361Y219992D01*
X493067Y220956D01*
X492661Y221877D01*
X492149Y222744D01*
X491538Y223545D01*
X490837Y224268D01*
X490055Y224902D01*
X489203Y225440D01*
X488294Y225873D01*
X487340Y226195D01*
X486354Y226403D01*
X485351Y226492D01*
X484344Y226462D01*
X483348Y226314D01*
X482377Y226048D01*
X481444Y225670D01*
X480562Y225184D01*
X479743Y224596D01*
X479000Y223917D01*
X478343Y223154D01*
X477780Y222319D01*
X477320Y221423D01*
X476970Y220479D01*
X476733Y219499D01*
X476614Y218499D01*
Y217492D01*
X476733Y216492D01*
X476970Y215513D01*
X477320Y214569D01*
X477780Y213673D01*
X478343Y212838D01*
X479000Y212075D01*
X479743Y211396D01*
X480562Y210808D01*
X481444Y210322D01*
X482377Y209944D01*
X483348Y209678D01*
X484344Y209530D01*
X485351Y209500D01*
X486354Y209589D01*
X487340Y209797D01*
X488294Y210119D01*
X489203Y210552D01*
X490055Y211090D01*
X490836Y211724D01*
X491538Y212447D01*
X492149Y213247D01*
X492661Y214115D01*
X493067Y215036D01*
X493361Y215999D01*
X493539Y216991D01*
X493599Y217996D01*
X517099Y91096D02*
X517083Y92098D01*
X517032Y93100D01*
X516949Y94099D01*
X516831Y95095D01*
X516681Y96086D01*
X516498Y97072D01*
X516282Y98051D01*
X516033Y99022D01*
X515752Y99984D01*
X515439Y100937D01*
X515095Y101878D01*
X514719Y102808D01*
X514312Y103724D01*
X513875Y104626D01*
X513408Y105513D01*
X512911Y106385D01*
X512386Y107238D01*
X511833Y108074D01*
X511251Y108891D01*
X510643Y109688D01*
X510009Y110465D01*
X509349Y111220D01*
X508664Y111952D01*
X507955Y112661D01*
X507223Y113346D01*
X506468Y114006D01*
X505692Y114640D01*
X504895Y115248D01*
X504078Y115829D01*
X503242Y116383D01*
X502388Y116908D01*
X501517Y117404D01*
X500630Y117872D01*
X499727Y118309D01*
X498811Y118716D01*
X497881Y119091D01*
X496940Y119436D01*
X495988Y119749D01*
X495025Y120030D01*
X494054Y120279D01*
X493075Y120495D01*
X492089Y120678D01*
X491098Y120828D01*
X490102Y120945D01*
X489103Y121029D01*
X488102Y121079D01*
X487099Y121096D01*
X486097Y121079D01*
X485095Y121029D01*
X484096Y120945D01*
X483101Y120828D01*
X482109Y120678D01*
X481124Y120495D01*
X480145Y120279D01*
X479173Y120030D01*
X478211Y119749D01*
X477258Y119436D01*
X476317Y119091D01*
X475387Y118716D01*
X474471Y118309D01*
X473569Y117872D01*
X472682Y117404D01*
X471811Y116908D01*
X470957Y116383D01*
X470121Y115829D01*
X469304Y115248D01*
X468507Y114640D01*
X467730Y114005D01*
X466976Y113346D01*
X466243Y112661D01*
X465534Y111952D01*
X464850Y111220D01*
X464190Y110465D01*
X463555Y109688D01*
X462947Y108891D01*
X462366Y108074D01*
X461812Y107238D01*
X461287Y106385D01*
X460791Y105514D01*
X460324Y104626D01*
X459887Y103724D01*
X459480Y102808D01*
X459104Y101878D01*
X458759Y100937D01*
X458446Y99984D01*
X458165Y99022D01*
X457916Y98051D01*
X457700Y97072D01*
X457517Y96086D01*
X457367Y95095D01*
X457250Y94099D01*
X457166Y93100D01*
X457116Y92098D01*
X457099Y91096D01*
X457116Y90094D01*
X457166Y89092D01*
X457250Y88093D01*
X457367Y87098D01*
X457517Y86106D01*
X457700Y85120D01*
X457916Y84141D01*
X458165Y83170D01*
X458446Y82208D01*
X458759Y81255D01*
X459104Y80314D01*
X459480Y79384D01*
X459886Y78468D01*
X460324Y77566D01*
X460791Y76679D01*
X461287Y75808D01*
X461812Y74954D01*
X462366Y74118D01*
X462947Y73301D01*
X463555Y72504D01*
X464189Y71727D01*
X464850Y70973D01*
X465534Y70240D01*
X466243Y69531D01*
X466975Y68847D01*
X467730Y68186D01*
X468507Y67552D01*
X469304Y66944D01*
X470121Y66363D01*
X470957Y65809D01*
X471810Y65284D01*
X472682Y64788D01*
X473569Y64320D01*
X474471Y63883D01*
X475387Y63477D01*
X476317Y63101D01*
X477258Y62756D01*
X478211Y62443D01*
X479173Y62162D01*
X480144Y61913D01*
X481123Y61697D01*
X482109Y61514D01*
X483100Y61364D01*
X484096Y61247D01*
X485095Y61163D01*
X486096Y61113D01*
X487099Y61096D01*
X488101Y61113D01*
X489103Y61163D01*
X490102Y61247D01*
X491097Y61364D01*
X492089Y61514D01*
X493075Y61697D01*
X494054Y61913D01*
X495025Y62162D01*
X495987Y62443D01*
X496940Y62756D01*
X497881Y63100D01*
X498811Y63476D01*
X499727Y63883D01*
X500629Y64320D01*
X501516Y64787D01*
X502387Y65284D01*
X503241Y65809D01*
X504077Y66363D01*
X504894Y66944D01*
X505691Y67552D01*
X506468Y68186D01*
X507223Y68846D01*
X507955Y69531D01*
X508664Y70240D01*
X509348Y70972D01*
X510009Y71727D01*
X510643Y72503D01*
X511251Y73300D01*
X511832Y74117D01*
X512386Y74953D01*
X512911Y75807D01*
X513408Y76678D01*
X513875Y77565D01*
X514312Y78468D01*
X514719Y79384D01*
X515095Y80313D01*
X515439Y81255D01*
X515752Y82207D01*
X516033Y83170D01*
X516282Y84141D01*
X516498Y85120D01*
X516681Y86106D01*
X516831Y87097D01*
X516949Y88093D01*
X517032Y89092D01*
X517082Y90093D01*
X517099Y91096D01*
X533099Y91096D02*
X533088Y92096D01*
X533056Y93095D01*
X533001Y94094D01*
X532925Y95091D01*
X532828Y96087D01*
X532708Y97079D01*
X532568Y98070D01*
X532405Y99056D01*
X532221Y100040D01*
X532016Y101018D01*
X531790Y101992D01*
X531543Y102961D01*
X531274Y103925D01*
X530985Y104882D01*
X530675Y105833D01*
X530344Y106777D01*
X529993Y107713D01*
X529622Y108642D01*
X529230Y109562D01*
X528819Y110474D01*
X528388Y111376D01*
X527937Y112269D01*
X527467Y113151D01*
X526978Y114024D01*
X526470Y114885D01*
X525944Y115736D01*
X525399Y116574D01*
X524836Y117401D01*
X524255Y118215D01*
X523657Y119016D01*
X523041Y119804D01*
X522409Y120579D01*
X521759Y121340D01*
X521094Y122086D01*
X520412Y122818D01*
X519714Y123534D01*
X519001Y124236D01*
X518273Y124921D01*
X517531Y125591D01*
X516774Y126245D01*
X516003Y126881D01*
X515218Y127501D01*
X514420Y128104D01*
X513609Y128689D01*
X512785Y129256D01*
X511950Y129806D01*
X511102Y130337D01*
X510243Y130850D01*
X509374Y131343D01*
X508494Y131818D01*
X507603Y132273D01*
X506703Y132710D01*
X505794Y133126D01*
X504876Y133522D01*
X503949Y133899D01*
X503015Y134255D01*
X502073Y134591D01*
X501124Y134906D01*
X500168Y135201D01*
X499206Y135474D01*
X498238Y135727D01*
X497265Y135959D01*
X496288Y136169D01*
X495306Y136358D01*
X494320Y136526D01*
X493331Y136672D01*
X492338Y136797D01*
X491344Y136900D01*
X490347Y136981D01*
X489349Y137041D01*
X488349Y137079D01*
X487349Y137095D01*
X486349Y137090D01*
X485350Y137063D01*
X484351Y137014D01*
X483353Y136943D01*
X482357Y136851D01*
X481364Y136737D01*
X480373Y136601D01*
X479385Y136445D01*
X478401Y136266D01*
X477421Y136066D01*
X476446Y135845D01*
X475476Y135603D01*
X474511Y135340D01*
X473552Y135056D01*
X472599Y134751D01*
X471654Y134425D01*
X470716Y134079D01*
X469785Y133713D01*
X468863Y133327D01*
X467949Y132920D01*
X467044Y132494D01*
X466149Y132048D01*
X465264Y131583D01*
X464389Y131099D01*
X463524Y130596D01*
X462671Y130074D01*
X461830Y129534D01*
X461000Y128975D01*
X460183Y128399D01*
X459378Y127805D01*
X458587Y127193D01*
X457809Y126565D01*
X457044Y125920D01*
X456294Y125258D01*
X455559Y124581D01*
X454839Y123887D01*
X454133Y123178D01*
X453444Y122454D01*
X452770Y121715D01*
X452112Y120961D01*
X451471Y120193D01*
X450847Y119412D01*
X450240Y118617D01*
X449651Y117809D01*
X449079Y116989D01*
X448525Y116156D01*
X447989Y115312D01*
X447472Y114456D01*
X446974Y113589D01*
X446494Y112711D01*
X446034Y111823D01*
X445593Y110926D01*
X445172Y110019D01*
X444770Y109103D01*
X444389Y108178D01*
X444027Y107246D01*
X443686Y106306D01*
X443366Y105358D01*
X443066Y104404D01*
X442787Y103444D01*
X442529Y102477D01*
X442293Y101506D01*
X442077Y100529D01*
X441882Y99548D01*
X441709Y98563D01*
X441558Y97575D01*
X441428Y96583D01*
X441319Y95589D01*
X441232Y94593D01*
X441167Y93595D01*
X441124Y92596D01*
X441102Y91596D01*
Y90596D01*
X441124Y89596D01*
X441167Y88597D01*
X441232Y87599D01*
X441319Y86602D01*
X441428Y85608D01*
X441558Y84617D01*
X441709Y83628D01*
X441883Y82643D01*
X442077Y81662D01*
X442293Y80686D01*
X442530Y79714D01*
X442788Y78748D01*
X443067Y77788D01*
X443366Y76833D01*
X443687Y75886D01*
X444028Y74946D01*
X444389Y74013D01*
X444770Y73089D01*
X445172Y72173D01*
X445593Y71266D01*
X446034Y70368D01*
X446494Y69480D01*
X446974Y68603D01*
X447472Y67736D01*
X447989Y66880D01*
X448525Y66035D01*
X449079Y65203D01*
X449651Y64382D01*
X450241Y63574D01*
X450847Y62780D01*
X451472Y61998D01*
X452113Y61231D01*
X452770Y60477D01*
X453444Y59738D01*
X454134Y59014D01*
X454839Y58305D01*
X455559Y57611D01*
X456295Y56933D01*
X457045Y56272D01*
X457809Y55627D01*
X458587Y54998D01*
X459378Y54387D01*
X460183Y53793D01*
X461000Y53217D01*
X461830Y52658D01*
X462672Y52118D01*
X463525Y51596D01*
X464389Y51093D01*
X465264Y50609D01*
X466149Y50144D01*
X467044Y49698D01*
X467949Y49272D01*
X468863Y48865D01*
X469785Y48479D01*
X470716Y48112D01*
X471654Y47766D01*
X472600Y47441D01*
X473552Y47136D01*
X474511Y46852D01*
X475476Y46589D01*
X476446Y46347D01*
X477422Y46126D01*
X478402Y45926D01*
X479386Y45747D01*
X480373Y45590D01*
X481364Y45455D01*
X482358Y45341D01*
X483354Y45249D01*
X484351Y45178D01*
X485350Y45129D01*
X486350Y45102D01*
X487350Y45097D01*
X488350Y45113D01*
X489349Y45151D01*
X490347Y45211D01*
X491344Y45292D01*
X492339Y45395D01*
X493331Y45520D01*
X494320Y45666D01*
X495306Y45834D01*
X496288Y46023D01*
X497266Y46233D01*
X498239Y46465D01*
X499206Y46718D01*
X500168Y46992D01*
X501124Y47286D01*
X502073Y47601D01*
X503015Y47937D01*
X503950Y48293D01*
X504876Y48670D01*
X505794Y49066D01*
X506704Y49483D01*
X507604Y49919D01*
X508494Y50374D01*
X509374Y50849D01*
X510244Y51343D01*
X511102Y51855D01*
X511950Y52386D01*
X512785Y52936D01*
X513609Y53503D01*
X514420Y54088D01*
X515218Y54691D01*
X516003Y55311D01*
X516774Y55948D01*
X517531Y56601D01*
X518274Y57271D01*
X519002Y57956D01*
X519715Y58658D01*
X520412Y59374D01*
X521094Y60106D01*
X521759Y60852D01*
X522409Y61613D01*
X523041Y62388D01*
X523657Y63176D01*
X524255Y63977D01*
X524836Y64791D01*
X525399Y65618D01*
X525944Y66457D01*
X526470Y67307D01*
X526978Y68168D01*
X527467Y69041D01*
X527937Y69924D01*
X528388Y70816D01*
X528819Y71719D01*
X529230Y72630D01*
X529622Y73550D01*
X529993Y74479D01*
X530344Y75415D01*
X530675Y76359D01*
X530985Y77310D01*
X531274Y78267D01*
X531543Y79231D01*
X531790Y80200D01*
X532016Y81174D01*
X532221Y82152D01*
X532405Y83136D01*
X532568Y84122D01*
X532708Y85113D01*
X532828Y86105D01*
X532925Y87101D01*
X533001Y88098D01*
X533056Y89096D01*
X533088Y90096D01*
X533099Y91096D01*
X396599Y74496D02*
X404900D01*
X396599Y84496D02*
X404900D01*
X396599Y94496D02*
X404900D01*
X396599Y104496D02*
X404900D01*
X-20558Y320996D02*
X304942D01*
X304942D02*
X304942Y109996D01*
X-20558Y320996D02*
X-20558Y109996D01*
X304942D01*
X469099Y233996D02*
X541099Y233996D01*
Y161996D02*
Y233996D01*
X469099Y161996D02*
X541099D01*
X469099D02*
Y233996D01*
X420599Y231864D02*
X435599D01*
Y216864D02*
Y231864D01*
X420599Y216864D02*
X435599D01*
X420599D02*
Y231864D01*
Y199364D02*
Y214364D01*
Y199364D02*
X435599D01*
Y214364D01*
X420599D02*
X435599D01*
X420599Y181864D02*
Y196864D01*
Y181864D02*
X435599D01*
Y196864D01*
X420599D02*
X435599D01*
X420599Y164364D02*
Y179364D01*
Y164364D02*
X435599D01*
Y179364D01*
X420599D02*
X435599D01*
X392599Y202996D02*
X405242D01*
X409404Y207157D01*
X420599D01*
X392599Y212996D02*
X403979D01*
X415479Y224496D01*
X420467D01*
X415479Y171496D02*
X420467D01*
X403979Y182996D02*
X415479Y171496D01*
X392599Y182996D02*
X403979D01*
X409404Y188835D02*
X420599D01*
X405242Y192996D02*
X409404Y188835D01*
X392599Y192996D02*
X405242D01*
X292442Y68496D02*
Y77996D01*
X272442Y67496D02*
Y77996D01*
X252442Y68496D02*
Y77996D01*
X232442Y66496D02*
Y77996D01*
X192442Y66496D02*
Y77996D01*
X172442Y67496D02*
Y77996D01*
X152442Y68496D02*
Y77996D01*
X132442Y67996D02*
Y77996D01*
X212442Y35720D02*
Y77996D01*
X383599Y402493D02*
X390264D01*
X386931D01*
Y392496D01*
X393596Y399161D02*
Y392496D01*
Y395828D01*
X395262Y397494D01*
X396928Y399161D01*
X398594D01*
X405259D02*
X408591D01*
X410257Y397494D01*
Y392496D01*
X405259D01*
X403593Y394162D01*
X405259Y395828D01*
X410257D01*
X415256Y392496D02*
Y400827D01*
Y397494D01*
X413589D01*
X416922D01*
X415256D01*
Y400827D01*
X416922Y402493D01*
X423586Y392496D02*
Y400827D01*
Y397494D01*
X421920D01*
X425252D01*
X423586D01*
Y400827D01*
X425252Y402493D01*
X430251Y392496D02*
X433583D01*
X431917D01*
Y399161D01*
X430251D01*
X445246D02*
X440248D01*
X438581Y397494D01*
Y394162D01*
X440248Y392496D01*
X445246D01*
X393265Y140031D02*
X391598Y141697D01*
X388266D01*
X386600Y140031D01*
Y138365D01*
X388266Y136698D01*
X391598D01*
X393265Y135032D01*
Y133366D01*
X391598Y131700D01*
X388266D01*
X386600Y133366D01*
X398263Y140031D02*
Y138365D01*
X396597D01*
X399929D01*
X398263D01*
Y133366D01*
X399929Y131700D01*
X409926D02*
X406594D01*
X404927Y133366D01*
Y136698D01*
X406594Y138365D01*
X409926D01*
X411592Y136698D01*
Y135032D01*
X404927D01*
X414924Y128368D02*
Y138365D01*
X419923D01*
X421589Y136698D01*
Y133366D01*
X419923Y131700D01*
X414924D01*
X424921Y128368D02*
Y138365D01*
X429919D01*
X431586Y136698D01*
Y133366D01*
X429919Y131700D01*
X424921D01*
X439916D02*
X436584D01*
X434918Y133366D01*
Y136698D01*
X436584Y138365D01*
X439916D01*
X441582Y136698D01*
Y135032D01*
X434918D01*
X444914Y138365D02*
Y131700D01*
Y135032D01*
X446581Y136698D01*
X448247Y138365D01*
X449913D01*
X386599Y246993D02*
Y236996D01*
X391598D01*
X393264Y238662D01*
Y245327D01*
X391598Y246993D01*
X386599D01*
X396596Y236996D02*
X399928D01*
X398262D01*
Y243660D01*
X396596D01*
X411591D02*
X406593D01*
X404927Y241994D01*
Y238662D01*
X406593Y236996D01*
X411591D01*
X419922D02*
X416589D01*
X414923Y238662D01*
Y241994D01*
X416589Y243660D01*
X419922D01*
X421588Y241994D01*
Y240328D01*
X414923D01*
X44106Y346077D02*
X42440Y347743D01*
X39108D01*
X37442Y346077D01*
Y339412D01*
X39108Y337746D01*
X42440D01*
X44106Y339412D01*
X47438Y337746D02*
X50771D01*
X49105D01*
Y347743D01*
X47438D01*
X57435Y337746D02*
X60768D01*
X62434Y339412D01*
Y342744D01*
X60768Y344410D01*
X57435D01*
X55769Y342744D01*
Y339412D01*
X57435Y337746D01*
X72430Y344410D02*
X67432D01*
X65766Y342744D01*
Y339412D01*
X67432Y337746D01*
X72430D01*
X75763D02*
Y347743D01*
Y341078D02*
X80761Y344410D01*
X75763Y341078D02*
X80761Y337746D01*
D11*
X370842Y28996D02*
X370242Y29342D01*
Y28650D01*
X370842Y28996D01*
X379801Y122400D02*
X379201Y122746D01*
Y122054D01*
X379801Y122400D01*
X183042Y343496D02*
X182442Y343842D01*
Y343150D01*
X183042Y343496D01*
Y358196D02*
X182442Y358542D01*
Y357850D01*
X183042Y358196D01*
X71960Y394505D02*
X71360Y394852D01*
Y394159D01*
X71960Y394505D01*
X71960Y375949D02*
X71360Y376295D01*
Y375602D01*
X71960Y375949D01*
X309142Y167696D02*
X308542Y168042D01*
Y167350D01*
X309142Y167696D01*
Y151196D02*
X308542Y151542D01*
Y150850D01*
X309142Y151196D01*
X360542Y309196D02*
X359942Y309542D01*
Y308850D01*
X360542Y309196D01*
X326642Y243696D02*
X326042Y244042D01*
Y243350D01*
X326642Y243696D01*
X360142Y204196D02*
X359542Y204542D01*
Y203850D01*
X360142Y204196D01*
X348242Y97196D02*
X347642Y97542D01*
Y96850D01*
X348242Y97196D01*
X360542Y328696D02*
X359942Y329042D01*
Y328350D01*
X360542Y328696D01*
X403000Y122400D02*
X402400Y122746D01*
Y122054D01*
X403000Y122400D01*
X378500Y57200D02*
X377900Y57546D01*
Y56854D01*
X378500Y57200D01*
X454599Y211795D02*
X453999Y212142D01*
Y211449D01*
X454599Y211795D01*
Y194795D02*
X453999Y195142D01*
Y194449D01*
X454599Y194795D01*
X360542Y349196D02*
X359942Y349542D01*
Y348850D01*
X360542Y349196D01*
X361195Y97214D02*
X360595Y97561D01*
Y96868D01*
X361195Y97214D01*
D12*
X344020Y248463D02*
X343282Y248889D01*
Y248037D01*
X344020Y248463D01*
X331292Y57579D02*
X330554Y58005D01*
Y57152D01*
X331292Y57579D01*
X54324Y83581D02*
X53586Y84007D01*
Y83155D01*
X54324Y83581D01*
X347220Y174122D02*
X346481Y174548D01*
Y173696D01*
X347220Y174122D01*
X-38532Y153985D02*
X-39270Y154411D01*
Y153559D01*
X-38532Y153985D01*
X327409Y170497D02*
X326671Y170923D01*
Y170071D01*
X327409Y170497D01*
X327410Y152681D02*
X326671Y153107D01*
Y152255D01*
X327410Y152681D01*
X325710Y390081D02*
X324971Y390507D01*
Y389655D01*
X325710Y390081D01*
X345662Y208798D02*
X344924Y209225D01*
Y208372D01*
X345662Y208798D01*
X358310Y83781D02*
X357571Y84207D01*
Y83355D01*
X358310Y83781D01*
X19510Y84581D02*
X18771Y85007D01*
Y84155D01*
X19510Y84581D01*
X325710Y370181D02*
X324971Y370607D01*
Y369755D01*
X325710Y370181D01*
X132009Y378181D02*
X131271Y378607D01*
Y377755D01*
X132009Y378181D01*
Y396181D02*
X131271Y396607D01*
Y395755D01*
X132009Y396181D01*
X155209Y345581D02*
X154471Y346007D01*
Y345155D01*
X155209Y345581D01*
X343220Y392677D02*
X342481Y393103D01*
Y392251D01*
X343220Y392677D01*
X152920Y394563D02*
X152181Y394989D01*
Y394137D01*
X152920Y394563D01*
D13*
X352976Y242951D02*
X352532Y243875D01*
X351533Y244103D01*
X350731Y243464D01*
Y242439D01*
X351533Y241800D01*
X352532Y242028D01*
X352976Y242951D01*
X341627Y50492D02*
X341182Y51415D01*
X340183Y51644D01*
X339382Y51004D01*
Y49980D01*
X340183Y49341D01*
X341182Y49569D01*
X341627Y50492D01*
X356176Y168610D02*
X355732Y169534D01*
X354732Y169762D01*
X353931Y169123D01*
Y168098D01*
X354732Y167459D01*
X355732Y167687D01*
X356176Y168610D01*
X352176Y387165D02*
X351732Y388089D01*
X350732Y388317D01*
X349931Y387678D01*
Y386653D01*
X350732Y386014D01*
X351732Y386242D01*
X352176Y387165D01*
X161876Y389051D02*
X161432Y389974D01*
X160433Y390203D01*
X159631Y389564D01*
Y388539D01*
X160433Y387900D01*
X161432Y388128D01*
X161876Y389051D01*
D14*
X14831Y353902D02*
X14758Y354905D01*
X14539Y355886D01*
X14180Y356826D01*
X13688Y357703D01*
X13073Y358499D01*
X12349Y359197D01*
X11531Y359783D01*
X10636Y360243D01*
X9684Y360567D01*
X8695Y360750D01*
X7690Y360787D01*
X6690Y360677D01*
X5717Y360422D01*
X4791Y360029D01*
X3933Y359505D01*
X3160Y358861D01*
X2489Y358112D01*
X1933Y357274D01*
X1507Y356363D01*
X1217Y355399D01*
X1070Y354404D01*
Y353399D01*
X1217Y352403D01*
X1507Y351440D01*
X1933Y350530D01*
X2489Y349691D01*
X3160Y348941D01*
X3933Y348298D01*
X4791Y347774D01*
X5717Y347381D01*
X6690Y347126D01*
X7690Y347016D01*
X8695Y347053D01*
X9684Y347236D01*
X10636Y347561D01*
X11531Y348021D01*
X12349Y348606D01*
X13073Y349304D01*
X13688Y350100D01*
X14180Y350977D01*
X14539Y351917D01*
X14758Y352898D01*
X14831Y353902D01*
X497489Y368996D02*
X497416Y369999D01*
X497197Y370981D01*
X496838Y371920D01*
X496345Y372797D01*
X495730Y373594D01*
X495006Y374292D01*
X494188Y374877D01*
X493294Y375337D01*
X492342Y375662D01*
X491353Y375844D01*
X490348Y375881D01*
X489348Y375771D01*
X488375Y375517D01*
X487449Y375123D01*
X486590Y374599D01*
X485817Y373956D01*
X485146Y373207D01*
X484591Y372368D01*
X484164Y371457D01*
X483874Y370494D01*
X483728Y369499D01*
Y368493D01*
X483874Y367498D01*
X484164Y366535D01*
X484591Y365624D01*
X485146Y364785D01*
X485817Y364036D01*
X486590Y363393D01*
X487449Y362869D01*
X488375Y362475D01*
X489348Y362221D01*
X490348Y362111D01*
X491353Y362148D01*
X492342Y362330D01*
X493294Y362655D01*
X494188Y363115D01*
X495006Y363700D01*
X495730Y364398D01*
X496345Y365195D01*
X496838Y366072D01*
X497197Y367011D01*
X497416Y367993D01*
X497489Y368996D01*
X14831Y378996D02*
X14758Y379999D01*
X14539Y380981D01*
X14180Y381920D01*
X13688Y382798D01*
X13073Y383594D01*
X12349Y384292D01*
X11531Y384877D01*
X10636Y385337D01*
X9684Y385662D01*
X8695Y385844D01*
X7690Y385881D01*
X6690Y385771D01*
X5717Y385517D01*
X4791Y385123D01*
X3933Y384599D01*
X3160Y383956D01*
X2489Y383207D01*
X1933Y382368D01*
X1507Y381457D01*
X1217Y380494D01*
X1070Y379499D01*
Y378493D01*
X1217Y377498D01*
X1507Y376535D01*
X1933Y375624D01*
X2489Y374785D01*
X3160Y374036D01*
X3933Y373393D01*
X4791Y372869D01*
X5717Y372475D01*
X6690Y372221D01*
X7690Y372111D01*
X8695Y372148D01*
X9684Y372330D01*
X10636Y372655D01*
X11531Y373115D01*
X12349Y373700D01*
X13073Y374398D01*
X13688Y375195D01*
X14180Y376072D01*
X14539Y377011D01*
X14758Y377993D01*
X14831Y378996D01*
X443489Y362996D02*
X443415Y363999D01*
X443197Y364981D01*
X442837Y365920D01*
X442345Y366798D01*
X441730Y367594D01*
X441006Y368292D01*
X440188Y368877D01*
X439294Y369337D01*
X438342Y369662D01*
X437353Y369844D01*
X436348Y369881D01*
X435348Y369771D01*
X434375Y369517D01*
X433449Y369123D01*
X432590Y368599D01*
X431817Y367956D01*
X431146Y367207D01*
X430591Y366368D01*
X430164Y365457D01*
X429874Y364494D01*
X429728Y363499D01*
Y362493D01*
X429874Y361498D01*
X430164Y360535D01*
X430591Y359624D01*
X431146Y358785D01*
X431817Y358036D01*
X432590Y357393D01*
X433449Y356869D01*
X434375Y356475D01*
X435348Y356221D01*
X436348Y356111D01*
X437353Y356148D01*
X438342Y356330D01*
X439294Y356655D01*
X440188Y357115D01*
X441006Y357700D01*
X441730Y358398D01*
X442345Y359194D01*
X442837Y360072D01*
X443197Y361011D01*
X443415Y361993D01*
X443489Y362996D01*
X447489Y280996D02*
X447415Y281999D01*
X447197Y282981D01*
X446838Y283920D01*
X446345Y284798D01*
X445730Y285594D01*
X445006Y286292D01*
X444188Y286877D01*
X443294Y287337D01*
X442342Y287662D01*
X441353Y287844D01*
X440348Y287881D01*
X439348Y287771D01*
X438375Y287517D01*
X437449Y287123D01*
X436590Y286599D01*
X435817Y285956D01*
X435146Y285207D01*
X434591Y284368D01*
X434164Y283457D01*
X433874Y282494D01*
X433728Y281499D01*
Y280493D01*
X433874Y279498D01*
X434164Y278535D01*
X434591Y277624D01*
X435146Y276785D01*
X435817Y276036D01*
X436590Y275393D01*
X437449Y274869D01*
X438375Y274475D01*
X439348Y274221D01*
X440348Y274111D01*
X441353Y274148D01*
X442342Y274330D01*
X443294Y274655D01*
X444188Y275115D01*
X445006Y275700D01*
X445730Y276398D01*
X446345Y277194D01*
X446838Y278072D01*
X447197Y279011D01*
X447415Y279993D01*
X447489Y280996D01*
X531489Y312996D02*
X531416Y313999D01*
X531197Y314981D01*
X530837Y315920D01*
X530345Y316797D01*
X529731Y317594D01*
X529006Y318292D01*
X528188Y318877D01*
X527294Y319337D01*
X526342Y319662D01*
X525353Y319844D01*
X524348Y319881D01*
X523348Y319771D01*
X522375Y319517D01*
X521449Y319123D01*
X520590Y318599D01*
X519817Y317956D01*
X519146Y317207D01*
X518591Y316368D01*
X518164Y315457D01*
X517874Y314494D01*
X517728Y313499D01*
Y312493D01*
X517874Y311498D01*
X518164Y310535D01*
X518591Y309624D01*
X519146Y308785D01*
X519817Y308036D01*
X520590Y307393D01*
X521449Y306869D01*
X522375Y306475D01*
X523348Y306221D01*
X524348Y306111D01*
X525353Y306148D01*
X526342Y306330D01*
X527294Y306655D01*
X528188Y307115D01*
X529006Y307700D01*
X529731Y308398D01*
X530345Y309194D01*
X530837Y310072D01*
X531197Y311011D01*
X531416Y311993D01*
X531489Y312996D01*
X138831Y18996D02*
X138758Y19999D01*
X138539Y20981D01*
X138180Y21920D01*
X137688Y22797D01*
X137073Y23594D01*
X136349Y24292D01*
X135531Y24877D01*
X134636Y25337D01*
X133684Y25662D01*
X132695Y25844D01*
X131690Y25881D01*
X130690Y25771D01*
X129717Y25517D01*
X128791Y25123D01*
X127933Y24599D01*
X127160Y23956D01*
X126488Y23207D01*
X125934Y22368D01*
X125507Y21457D01*
X125217Y20494D01*
X125070Y19499D01*
Y18493D01*
X125217Y17498D01*
X125507Y16535D01*
X125934Y15624D01*
X126488Y14785D01*
X127160Y14036D01*
X127933Y13393D01*
X128791Y12869D01*
X129717Y12475D01*
X130690Y12221D01*
X131690Y12111D01*
X132695Y12148D01*
X133684Y12330D01*
X134636Y12655D01*
X135531Y13115D01*
X136349Y13700D01*
X137073Y14398D01*
X137688Y15194D01*
X138180Y16072D01*
X138539Y17011D01*
X138758Y17993D01*
X138831Y18996D01*
X161831D02*
X161758Y19999D01*
X161539Y20981D01*
X161180Y21920D01*
X160688Y22797D01*
X160073Y23594D01*
X159349Y24292D01*
X158531Y24877D01*
X157636Y25337D01*
X156684Y25662D01*
X155695Y25844D01*
X154690Y25881D01*
X153690Y25771D01*
X152717Y25517D01*
X151791Y25123D01*
X150933Y24599D01*
X150160Y23956D01*
X149488Y23207D01*
X148933Y22368D01*
X148507Y21457D01*
X148217Y20494D01*
X148070Y19499D01*
Y18493D01*
X148217Y17498D01*
X148507Y16535D01*
X148933Y15624D01*
X149488Y14785D01*
X150160Y14036D01*
X150933Y13393D01*
X151791Y12869D01*
X152717Y12475D01*
X153690Y12221D01*
X154690Y12111D01*
X155695Y12148D01*
X156684Y12330D01*
X157636Y12655D01*
X158531Y13115D01*
X159349Y13700D01*
X160073Y14398D01*
X160688Y15194D01*
X161180Y16072D01*
X161539Y17011D01*
X161758Y17993D01*
X161831Y18996D01*
X184832D02*
X184758Y19999D01*
X184539Y20981D01*
X184180Y21920D01*
X183688Y22797D01*
X183073Y23594D01*
X182349Y24292D01*
X181531Y24877D01*
X180636Y25337D01*
X179684Y25662D01*
X178695Y25844D01*
X177690Y25881D01*
X176690Y25771D01*
X175717Y25517D01*
X174791Y25123D01*
X173933Y24599D01*
X173160Y23956D01*
X172488Y23207D01*
X171933Y22368D01*
X171507Y21457D01*
X171217Y20494D01*
X171070Y19499D01*
Y18493D01*
X171217Y17498D01*
X171507Y16535D01*
X171933Y15624D01*
X172488Y14785D01*
X173160Y14036D01*
X173933Y13393D01*
X174791Y12869D01*
X175717Y12475D01*
X176690Y12221D01*
X177690Y12111D01*
X178695Y12148D01*
X179684Y12330D01*
X180636Y12655D01*
X181531Y13115D01*
X182349Y13700D01*
X183073Y14398D01*
X183688Y15194D01*
X184180Y16072D01*
X184539Y17011D01*
X184758Y17993D01*
X184832Y18996D01*
X207832D02*
X207758Y19999D01*
X207539Y20981D01*
X207180Y21920D01*
X206688Y22797D01*
X206073Y23594D01*
X205349Y24292D01*
X204531Y24877D01*
X203636Y25337D01*
X202684Y25662D01*
X201695Y25844D01*
X200690Y25881D01*
X199690Y25771D01*
X198717Y25517D01*
X197791Y25123D01*
X196933Y24599D01*
X196160Y23956D01*
X195489Y23207D01*
X194933Y22368D01*
X194507Y21457D01*
X194217Y20494D01*
X194070Y19499D01*
Y18493D01*
X194217Y17498D01*
X194507Y16535D01*
X194933Y15624D01*
X195489Y14785D01*
X196160Y14036D01*
X196933Y13393D01*
X197791Y12869D01*
X198717Y12475D01*
X199690Y12221D01*
X200690Y12111D01*
X201695Y12148D01*
X202684Y12330D01*
X203636Y12655D01*
X204531Y13115D01*
X205349Y13700D01*
X206073Y14398D01*
X206688Y15194D01*
X207180Y16072D01*
X207539Y17011D01*
X207758Y17993D01*
X207832Y18996D01*
X230832D02*
X230758Y19999D01*
X230539Y20981D01*
X230180Y21920D01*
X229688Y22797D01*
X229073Y23594D01*
X228349Y24292D01*
X227531Y24877D01*
X226636Y25337D01*
X225684Y25662D01*
X224695Y25844D01*
X223690Y25881D01*
X222690Y25771D01*
X221717Y25517D01*
X220791Y25123D01*
X219933Y24599D01*
X219160Y23956D01*
X218489Y23207D01*
X217934Y22368D01*
X217507Y21457D01*
X217217Y20494D01*
X217070Y19499D01*
Y18493D01*
X217217Y17498D01*
X217507Y16535D01*
X217934Y15624D01*
X218489Y14785D01*
X219160Y14036D01*
X219933Y13393D01*
X220791Y12869D01*
X221717Y12475D01*
X222690Y12221D01*
X223690Y12111D01*
X224695Y12148D01*
X225684Y12330D01*
X226636Y12655D01*
X227531Y13115D01*
X228349Y13700D01*
X229073Y14398D01*
X229688Y15194D01*
X230180Y16072D01*
X230539Y17011D01*
X230758Y17993D01*
X230832Y18996D01*
X253832D02*
X253758Y19999D01*
X253539Y20981D01*
X253180Y21920D01*
X252688Y22797D01*
X252073Y23594D01*
X251349Y24292D01*
X250531Y24877D01*
X249636Y25337D01*
X248684Y25662D01*
X247695Y25844D01*
X246690Y25881D01*
X245690Y25771D01*
X244717Y25517D01*
X243791Y25123D01*
X242933Y24599D01*
X242160Y23956D01*
X241489Y23207D01*
X240933Y22368D01*
X240507Y21457D01*
X240217Y20494D01*
X240070Y19499D01*
Y18493D01*
X240217Y17498D01*
X240507Y16535D01*
X240933Y15624D01*
X241489Y14785D01*
X242160Y14036D01*
X242933Y13393D01*
X243791Y12869D01*
X244717Y12475D01*
X245690Y12221D01*
X246690Y12111D01*
X247695Y12148D01*
X248684Y12330D01*
X249636Y12655D01*
X250531Y13115D01*
X251349Y13700D01*
X252073Y14398D01*
X252688Y15194D01*
X253180Y16072D01*
X253539Y17011D01*
X253758Y17993D01*
X253832Y18996D01*
X276832D02*
X276758Y19999D01*
X276539Y20981D01*
X276180Y21920D01*
X275688Y22797D01*
X275073Y23594D01*
X274349Y24292D01*
X273531Y24877D01*
X272636Y25337D01*
X271684Y25662D01*
X270695Y25844D01*
X269690Y25881D01*
X268690Y25771D01*
X267717Y25517D01*
X266791Y25123D01*
X265933Y24599D01*
X265160Y23956D01*
X264489Y23207D01*
X263933Y22368D01*
X263507Y21457D01*
X263217Y20494D01*
X263070Y19499D01*
Y18493D01*
X263217Y17498D01*
X263507Y16535D01*
X263933Y15624D01*
X264489Y14785D01*
X265160Y14036D01*
X265933Y13393D01*
X266791Y12869D01*
X267717Y12475D01*
X268690Y12221D01*
X269690Y12111D01*
X270695Y12148D01*
X271684Y12330D01*
X272636Y12655D01*
X273531Y13115D01*
X274349Y13700D01*
X275073Y14398D01*
X275688Y15194D01*
X276180Y16072D01*
X276539Y17011D01*
X276758Y17993D01*
X276832Y18996D01*
X299832D02*
X299758Y19999D01*
X299539Y20981D01*
X299180Y21920D01*
X298688Y22797D01*
X298073Y23594D01*
X297349Y24292D01*
X296531Y24877D01*
X295636Y25337D01*
X294684Y25662D01*
X293695Y25844D01*
X292690Y25881D01*
X291690Y25771D01*
X290717Y25517D01*
X289791Y25123D01*
X288933Y24599D01*
X288160Y23956D01*
X287489Y23207D01*
X286933Y22368D01*
X286507Y21457D01*
X286217Y20494D01*
X286070Y19499D01*
Y18493D01*
X286217Y17498D01*
X286507Y16535D01*
X286933Y15624D01*
X287489Y14785D01*
X288160Y14036D01*
X288933Y13393D01*
X289791Y12869D01*
X290717Y12475D01*
X291690Y12221D01*
X292690Y12111D01*
X293695Y12148D01*
X294684Y12330D01*
X295636Y12655D01*
X296531Y13115D01*
X297349Y13700D01*
X298073Y14398D01*
X298688Y15194D01*
X299180Y16072D01*
X299539Y17011D01*
X299758Y17993D01*
X299832Y18996D01*
X102131Y51896D02*
X102058Y52899D01*
X101839Y53881D01*
X101480Y54820D01*
X100988Y55698D01*
X100373Y56494D01*
X99649Y57192D01*
X98831Y57777D01*
X97936Y58237D01*
X96984Y58562D01*
X95995Y58744D01*
X94990Y58781D01*
X93990Y58671D01*
X93017Y58417D01*
X92091Y58023D01*
X91233Y57499D01*
X90460Y56856D01*
X89789Y56107D01*
X89233Y55268D01*
X88807Y54357D01*
X88517Y53394D01*
X88370Y52399D01*
Y51393D01*
X88517Y50398D01*
X88807Y49435D01*
X89233Y48524D01*
X89789Y47685D01*
X90460Y46936D01*
X91233Y46293D01*
X92091Y45769D01*
X93017Y45375D01*
X93990Y45121D01*
X94990Y45011D01*
X95995Y45048D01*
X96984Y45230D01*
X97936Y45555D01*
X98831Y46015D01*
X99649Y46600D01*
X100373Y47298D01*
X100988Y48094D01*
X101480Y48972D01*
X101839Y49911D01*
X102058Y50893D01*
X102131Y51896D01*
X457599Y323996D02*
X458586Y324018D01*
X459571Y324085D01*
X460552Y324195D01*
X461527Y324349D01*
X462495Y324548D01*
X463452Y324789D01*
X464398Y325073D01*
X465330Y325399D01*
X466246Y325766D01*
X467145Y326175D01*
X468024Y326623D01*
X468883Y327110D01*
X469719Y327635D01*
X470531Y328198D01*
X471316Y328796D01*
X472074Y329429D01*
X472803Y330095D01*
X473501Y330793D01*
X474167Y331521D01*
X474800Y332279D01*
X475398Y333065D01*
X475960Y333876D01*
X476485Y334712D01*
X476972Y335571D01*
X477421Y336451D01*
X477829Y337350D01*
X478196Y338266D01*
X478522Y339198D01*
X478806Y340143D01*
X479048Y341101D01*
X479246Y342068D01*
X479400Y343043D01*
X479511Y344024D01*
X479577Y345009D01*
X479599Y345996D01*
Y301996D02*
X479577Y302983D01*
X479511Y303968D01*
X479400Y304949D01*
X479246Y305924D01*
X479048Y306891D01*
X478806Y307849D01*
X478522Y308794D01*
X478196Y309726D01*
X477829Y310643D01*
X477421Y311541D01*
X476972Y312421D01*
X476485Y313280D01*
X475960Y314116D01*
X475398Y314927D01*
X474799Y315713D01*
X474167Y316471D01*
X473501Y317199D01*
X472803Y317898D01*
X472074Y318564D01*
X471316Y319196D01*
X470531Y319794D01*
X469719Y320357D01*
X468883Y320882D01*
X468024Y321369D01*
X467145Y321817D01*
X466246Y322226D01*
X465329Y322593D01*
X464398Y322919D01*
X463452Y323203D01*
X462495Y323444D01*
X461527Y323642D01*
X460552Y323797D01*
X459571Y323907D01*
X458586Y323974D01*
X457599Y323996D01*
X501599D02*
X500612Y323974D01*
X499627Y323907D01*
X498646Y323797D01*
X497671Y323642D01*
X496704Y323444D01*
X495746Y323203D01*
X494801Y322919D01*
X493869Y322593D01*
X492953Y322226D01*
X492054Y321817D01*
X491174Y321369D01*
X490315Y320882D01*
X489479Y320357D01*
X488668Y319794D01*
X487882Y319196D01*
X487125Y318564D01*
X486396Y317898D01*
X485698Y317199D01*
X485032Y316471D01*
X484399Y315713D01*
X483801Y314927D01*
X483239Y314116D01*
X482713Y313280D01*
X482226Y312421D01*
X481778Y311542D01*
X481370Y310643D01*
X481002Y309726D01*
X480676Y308794D01*
X480392Y307849D01*
X480151Y306891D01*
X479953Y305924D01*
X479798Y304949D01*
X479688Y303968D01*
X479621Y302983D01*
X479599Y301996D01*
Y345996D02*
X479621Y345009D01*
X479688Y344024D01*
X479798Y343043D01*
X479953Y342068D01*
X480151Y341101D01*
X480392Y340143D01*
X480676Y339198D01*
X481002Y338266D01*
X481370Y337350D01*
X481778Y336451D01*
X482226Y335571D01*
X482713Y334712D01*
X483239Y333876D01*
X483801Y333065D01*
X484399Y332279D01*
X485032Y331521D01*
X485698Y330793D01*
X486396Y330095D01*
X487124Y329428D01*
X487882Y328796D01*
X488668Y328198D01*
X489479Y327635D01*
X490315Y327110D01*
X491174Y326623D01*
X492054Y326175D01*
X492953Y325766D01*
X493869Y325399D01*
X494801Y325073D01*
X495746Y324789D01*
X496704Y324548D01*
X497671Y324349D01*
X498646Y324195D01*
X499627Y324085D01*
X500612Y324018D01*
X501599Y323996D01*
X2036Y363941D02*
X13847D01*
X-2098Y349177D02*
Y358626D01*
X17981Y349177D02*
Y358626D01*
X2036Y343862D02*
X13847D01*
X101442Y366096D02*
Y401996D01*
X28536Y360374D02*
X178142D01*
X28536Y407618D02*
X178142D01*
X28536Y360374D02*
Y407618D01*
X89442Y365596D02*
Y401496D01*
X178142Y403996D02*
Y407618D01*
X178241Y360374D02*
Y363996D01*
X480560Y363090D02*
Y374902D01*
X485875Y358957D02*
X495324D01*
X485875Y379035D02*
X495324D01*
X500639Y363090D02*
Y374902D01*
X330514Y138568D02*
X357542D01*
Y117196D02*
Y138568D01*
X330742Y117196D02*
X357542D01*
X329942Y137996D02*
X330514Y138568D01*
X329942Y117996D02*
X330742Y117196D01*
X329942Y292996D02*
X330742Y292196D01*
X329942Y312996D02*
X330514Y313568D01*
X330742Y292196D02*
X357542D01*
Y313568D01*
X330514D02*
X357542D01*
X2036Y368957D02*
X13847D01*
X17981Y374272D02*
Y383720D01*
X-2098Y374272D02*
Y383720D01*
X2036Y389035D02*
X13847D01*
X430694Y373035D02*
X442505D01*
X426560Y358272D02*
Y367720D01*
X446639Y358272D02*
Y367720D01*
X430694Y352957D02*
X442505D01*
X430560Y275091D02*
Y286901D01*
X435875Y270957D02*
X445324D01*
X435875Y291035D02*
X445324D01*
X450639Y275091D02*
Y286901D01*
X518694Y302957D02*
X530505D01*
X534639Y308272D02*
Y317720D01*
X514560Y308272D02*
Y317720D01*
X518694Y323035D02*
X530505D01*
X121902Y13091D02*
Y24902D01*
X127217Y8957D02*
X136666D01*
X127217Y29035D02*
X136666D01*
X141981Y13091D02*
Y24902D01*
X144902Y13091D02*
Y24902D01*
X150217Y8957D02*
X159666D01*
X150217Y29035D02*
X159666D01*
X164981Y13091D02*
Y24902D01*
X167902Y13091D02*
Y24902D01*
X173217Y8957D02*
X182666D01*
X173217Y29035D02*
X182666D01*
X187981Y13091D02*
Y24902D01*
X190902Y13091D02*
Y24902D01*
X196217Y8957D02*
X205666D01*
X196217Y29035D02*
X205666D01*
X210981Y13091D02*
Y24902D01*
X213902Y13091D02*
Y24902D01*
X219217Y8957D02*
X228666D01*
X219217Y29035D02*
X228666D01*
X233981Y13091D02*
Y24902D01*
X236902Y13091D02*
Y24902D01*
X242217Y8957D02*
X251666D01*
X242217Y29035D02*
X251666D01*
X256981Y13091D02*
Y24902D01*
X259902Y13091D02*
Y24902D01*
X265217Y8957D02*
X274666D01*
X265217Y29035D02*
X274666D01*
X279981Y13091D02*
Y24902D01*
X282902Y13091D02*
Y24902D01*
X288217Y8957D02*
X297666D01*
X288217Y29035D02*
X297666D01*
X302981Y13091D02*
Y24902D01*
X85202Y45990D02*
Y57802D01*
X90517Y41857D02*
X99966D01*
X90517Y61935D02*
X99966D01*
X105281Y45990D02*
Y57802D01*
X428889Y340906D02*
Y341001D01*
Y313568D02*
X433080Y309377D01*
X428889Y317473D02*
X436995Y309367D01*
X428889Y321379D02*
X440885Y309382D01*
X428889Y325284D02*
X442794Y311379D01*
X428889Y329190D02*
X442794Y315284D01*
Y325001D02*
Y327095D01*
Y330001D02*
Y331301D01*
X442799Y302062D02*
Y345796D01*
X428889Y333095D02*
X442794Y319190D01*
X428889Y340906D02*
X442794Y327001D01*
X428889Y337001D02*
X442794Y323095D01*
X439468Y338862D02*
X442794Y335393D01*
X428894Y302196D02*
Y345796D01*
X437399Y336696D02*
X442794Y331301D01*
X441395Y340892D02*
X442686Y339602D01*
X439786Y345602D02*
X442695Y342692D01*
X429292Y344891D02*
X431154Y343030D01*
X454499Y323996D02*
X457599D01*
X450299D02*
X452299D01*
X446099D02*
X448099D01*
X441899D02*
X443899D01*
X437699D02*
X439699D01*
X433499D02*
X435499D01*
X429299D02*
X431299D01*
X425099D02*
X427099D01*
X420899D02*
X422899D01*
X479599Y265296D02*
Y267296D01*
Y269496D02*
Y271496D01*
Y273696D02*
Y275696D01*
Y277896D02*
Y279896D01*
Y282096D02*
Y284096D01*
Y286296D02*
Y288296D01*
Y290496D02*
Y292496D01*
Y294696D02*
Y296696D01*
Y298896D02*
Y301996D01*
X536299Y323996D02*
X538299D01*
X532099D02*
X534099D01*
X527899D02*
X529899D01*
X523699D02*
X525699D01*
X519499D02*
X521499D01*
X515299D02*
X517299D01*
X511099D02*
X513099D01*
X506899D02*
X508899D01*
X501599D02*
X504699D01*
X479599Y380696D02*
Y382696D01*
Y376496D02*
Y378496D01*
Y372296D02*
Y374296D01*
Y368096D02*
Y370096D01*
Y363896D02*
Y365896D01*
Y359696D02*
Y361696D01*
Y355496D02*
Y357496D01*
Y351296D02*
Y353296D01*
Y345996D02*
Y349096D01*
X458704Y273689D02*
X460565Y275551D01*
X457994Y284182D02*
X460903Y287092D01*
X462703Y285792D02*
X463994Y287082D01*
X466899Y281796D02*
X472294Y287191D01*
X457799Y273290D02*
X501399D01*
X464734Y283864D02*
X468202Y287191D01*
X466594Y273286D02*
X480500Y287191D01*
X462689Y273286D02*
X476594Y287191D01*
X470500Y273286D02*
X484405Y287191D01*
X457799Y287196D02*
X501533D01*
X472294Y287191D02*
X473594D01*
X476500D02*
X478594D01*
X474405Y273286D02*
X488311Y287191D01*
X478311Y273286D02*
X492216Y287191D01*
X482216Y273286D02*
X494213Y285282D01*
X486122Y273286D02*
X494228Y281392D01*
X490028Y273286D02*
X494218Y277477D01*
X462594Y273286D02*
X462689D01*
X408599Y323996D02*
X417599D01*
X408599Y303996D02*
X417599D01*
X244178Y126874D02*
X284218D01*
Y304784D01*
X244178D02*
X284218D01*
X1402Y126086D02*
X41442D01*
X1402D02*
Y303996D01*
X41442D01*
X-53500Y279500D02*
Y285498D01*
X-50501D01*
X-49501Y284498D01*
Y282499D01*
X-50501Y281499D01*
X-53500D01*
X-46502Y283499D02*
X-44503D01*
X-43503Y282499D01*
Y279500D01*
X-46502D01*
X-47502Y280500D01*
X-46502Y281499D01*
X-43503D01*
X-41504Y279500D02*
X-38505D01*
X-37505Y280500D01*
X-38505Y281499D01*
X-40504D01*
X-41504Y282499D01*
X-40504Y283499D01*
X-37505D01*
X-35506Y279500D02*
X-32507D01*
X-31507Y280500D01*
X-32507Y281499D01*
X-34506D01*
X-35506Y282499D01*
X-34506Y283499D01*
X-31507D01*
X-48001Y261998D02*
X-52000D01*
Y258999D01*
X-50001D01*
X-52000D01*
Y256000D01*
X-45002Y259999D02*
X-43003D01*
X-42003Y258999D01*
Y256000D01*
X-45002D01*
X-46002Y257000D01*
X-45002Y257999D01*
X-42003D01*
X-40004Y256000D02*
X-38004D01*
X-39004D01*
Y259999D01*
X-40004D01*
X-35006Y256000D02*
X-33006D01*
X-34006D01*
Y261998D01*
X-35006D01*
X-57279Y193266D02*
X-53281D01*
X-55280D01*
Y187268D01*
X-51281D02*
Y193266D01*
X-49282Y191266D01*
X-47283Y193266D01*
Y187268D01*
X-41285Y192266D02*
X-42284Y193266D01*
X-44284D01*
X-45283Y192266D01*
Y191266D01*
X-44284Y190267D01*
X-42284D01*
X-41285Y189267D01*
Y188267D01*
X-42284Y187268D01*
X-44284D01*
X-45283Y188267D01*
X-57279Y203266D02*
X-53281D01*
X-55280D01*
Y197268D01*
X-51281Y203266D02*
Y197268D01*
X-48282D01*
X-47283Y198267D01*
Y202266D01*
X-48282Y203266D01*
X-51281D01*
X-45283D02*
X-43284D01*
X-44284D01*
Y197268D01*
X-45283D01*
X-43284D01*
X-57279Y213266D02*
X-53281D01*
X-55280D01*
Y207268D01*
X-51281Y213266D02*
Y207268D01*
X-48282D01*
X-47283Y208267D01*
Y212266D01*
X-48282Y213266D01*
X-51281D01*
X-42284D02*
X-44284D01*
X-45283Y212266D01*
Y208267D01*
X-44284Y207268D01*
X-42284D01*
X-41285Y208267D01*
Y212266D01*
X-42284Y213266D01*
X-57279Y223266D02*
X-53281D01*
X-55280D01*
Y217268D01*
X-47283Y222266D02*
X-48282Y223266D01*
X-50282D01*
X-51281Y222266D01*
Y218267D01*
X-50282Y217268D01*
X-48282D01*
X-47283Y218267D01*
X-45283Y223266D02*
Y217268D01*
Y219267D01*
X-41285Y223266D01*
X-44284Y220267D01*
X-41285Y217268D01*
X-53281Y232266D02*
X-54281Y233266D01*
X-56280D01*
X-57279Y232266D01*
Y228267D01*
X-56280Y227268D01*
X-54281D01*
X-53281Y228267D01*
Y230267D01*
X-55280D01*
X-51281Y227268D02*
Y233266D01*
X-47283Y227268D01*
Y233266D01*
X-45283D02*
Y227268D01*
X-42284D01*
X-41285Y228267D01*
Y232266D01*
X-42284Y233266D01*
X-45283D01*
X-57279Y243266D02*
Y239267D01*
X-55280Y237268D01*
X-53281Y239267D01*
Y243266D01*
X-51281D02*
Y237268D01*
X-48282D01*
X-47283Y238267D01*
Y242266D01*
X-48282Y243266D01*
X-51281D01*
X-45283D02*
Y237268D01*
X-42284D01*
X-41285Y238267D01*
Y242266D01*
X-42284Y243266D01*
X-45283D01*
X340307Y125538D02*
X339141Y126705D01*
X336808D01*
X335642Y125538D01*
Y120873D01*
X336808Y119707D01*
X339141D01*
X340307Y120873D01*
Y123206D01*
X337974D01*
X342639Y119707D02*
Y124372D01*
X346138D01*
X347305Y123206D01*
Y119707D01*
X354302Y126705D02*
Y119707D01*
X350803D01*
X349637Y120873D01*
Y123206D01*
X350803Y124372D01*
X354302D01*
X335642Y136605D02*
Y131940D01*
X337974Y129607D01*
X340307Y131940D01*
Y136605D01*
X347305D02*
Y129607D01*
X343806D01*
X342639Y130773D01*
Y133106D01*
X343806Y134272D01*
X347305D01*
X354302Y136605D02*
Y129607D01*
X350803D01*
X349637Y130773D01*
Y133106D01*
X350803Y134272D01*
X354302D01*
X335642Y311594D02*
Y306929D01*
X337974Y304596D01*
X340307Y306929D01*
Y311594D01*
X347305D02*
Y304596D01*
X343806D01*
X342639Y305762D01*
Y308095D01*
X343806Y309261D01*
X347305D01*
X354302Y311594D02*
Y304596D01*
X350803D01*
X349637Y305762D01*
Y308095D01*
X350803Y309261D01*
X354302D01*
X340307Y300527D02*
X339141Y301694D01*
X336808D01*
X335642Y300527D01*
Y295862D01*
X336808Y294696D01*
X339141D01*
X340307Y295862D01*
Y298195D01*
X337974D01*
X342639Y294696D02*
Y299361D01*
X346138D01*
X347305Y298195D01*
Y294696D01*
X354302Y301694D02*
Y294696D01*
X350803D01*
X349637Y295862D01*
Y298195D01*
X350803Y299361D01*
X354302D01*
X400101Y338196D02*
X399101Y339196D01*
Y341195D01*
X400101Y342195D01*
X404100D01*
X405099Y341195D01*
Y339196D01*
X404100Y338196D01*
X400101D01*
X404599Y326496D02*
Y328495D01*
Y327496D01*
X398601D01*
X399601Y326496D01*
X404599Y346496D02*
Y348495D01*
Y347496D01*
X398601D01*
X399601Y346496D01*
X400101Y358196D02*
X399101Y359196D01*
Y361195D01*
X400101Y362195D01*
X404100D01*
X405099Y361195D01*
Y359196D01*
X404100Y358196D01*
X400101D01*
X384642Y15128D02*
Y11129D01*
X385975Y9796D01*
X387308Y11129D01*
X388640Y9796D01*
X389973Y11129D01*
Y15128D01*
X392639D02*
Y11129D01*
X393972Y9796D01*
X395305Y11129D01*
X396638Y9796D01*
X397971Y11129D01*
Y15128D01*
X400636D02*
Y11129D01*
X401969Y9796D01*
X403302Y11129D01*
X404635Y9796D01*
X405968Y11129D01*
Y15128D01*
X408634Y9796D02*
Y11129D01*
X409967D01*
Y9796D01*
X408634D01*
X415299D02*
X419297D01*
X420630Y11129D01*
X419297Y12462D01*
X416631D01*
X415299Y13795D01*
X416631Y15128D01*
X420630D01*
X423296D02*
Y11129D01*
X424629Y9796D01*
X425962Y11129D01*
X427295Y9796D01*
X428627Y11129D01*
Y15128D01*
X431293Y9796D02*
X433959D01*
X432626D01*
Y15128D01*
X431293D01*
X437958Y9796D02*
Y15128D01*
X441957D01*
X443289Y13795D01*
Y9796D01*
X445955D02*
Y11129D01*
X447288D01*
Y9796D01*
X445955D01*
X456618D02*
X453953D01*
X452620Y11129D01*
Y13795D01*
X453953Y15128D01*
X456618D01*
X457951Y13795D01*
Y12462D01*
X452620D01*
X465949Y17793D02*
Y9796D01*
X461950D01*
X460617Y11129D01*
Y13795D01*
X461950Y15128D01*
X465949D01*
X468614D02*
Y11129D01*
X469947Y9796D01*
X473946D01*
Y15128D01*
X476612Y9796D02*
Y11129D01*
X477945D01*
Y9796D01*
X476612D01*
X484609Y15128D02*
X487275D01*
X488608Y13795D01*
Y9796D01*
X484609D01*
X483277Y11129D01*
X484609Y12462D01*
X488608D01*
X491274Y15128D02*
Y11129D01*
X492607Y9796D01*
X496605D01*
Y15128D01*
D15*
X51876Y93396D02*
X51755Y94385D01*
X51402Y95317D01*
X50836Y96137D01*
X50090Y96798D01*
X49208Y97261D01*
X48240Y97500D01*
X47243D01*
X46276Y97261D01*
X45393Y96798D01*
X44647Y96137D01*
X44081Y95317D01*
X43728Y94385D01*
X43608Y93396D01*
X43728Y92407D01*
X44081Y91475D01*
X44647Y90655D01*
X45393Y89994D01*
X46276Y89531D01*
X47243Y89292D01*
X48240D01*
X49208Y89531D01*
X50090Y89994D01*
X50836Y90655D01*
X51402Y91475D01*
X51755Y92407D01*
X51876Y93396D01*
X77376Y61896D02*
X77255Y62885D01*
X76902Y63817D01*
X76336Y64637D01*
X75590Y65298D01*
X74708Y65761D01*
X73740Y66000D01*
X72743D01*
X71776Y65761D01*
X70893Y65298D01*
X70148Y64637D01*
X69581Y63817D01*
X69228Y62885D01*
X69108Y61896D01*
X69228Y60907D01*
X69581Y59975D01*
X70148Y59155D01*
X70893Y58494D01*
X71776Y58031D01*
X72743Y57792D01*
X73740D01*
X74708Y58031D01*
X75590Y58494D01*
X76336Y59155D01*
X76902Y59975D01*
X77255Y60907D01*
X77376Y61896D01*
Y93896D02*
X77255Y94885D01*
X76902Y95817D01*
X76336Y96637D01*
X75590Y97298D01*
X74708Y97761D01*
X73740Y98000D01*
X72743D01*
X71776Y97761D01*
X70893Y97298D01*
X70148Y96637D01*
X69581Y95817D01*
X69228Y94885D01*
X69108Y93896D01*
X69228Y92907D01*
X69581Y91975D01*
X70148Y91155D01*
X70893Y90494D01*
X71776Y90031D01*
X72743Y89792D01*
X73740D01*
X74708Y90031D01*
X75590Y90494D01*
X76336Y91155D01*
X76902Y91975D01*
X77255Y92907D01*
X77376Y93896D01*
X354367Y264000D02*
X354247Y264989D01*
X353893Y265921D01*
X353327Y266741D01*
X352581Y267402D01*
X351699Y267865D01*
X350731Y268104D01*
X349735D01*
X348767Y267865D01*
X347885Y267402D01*
X347139Y266741D01*
X346573Y265921D01*
X346219Y264989D01*
X346099Y264000D01*
X346219Y263011D01*
X346573Y262079D01*
X347139Y261259D01*
X347885Y260598D01*
X348767Y260135D01*
X349735Y259896D01*
X350731D01*
X351699Y260135D01*
X352581Y260598D01*
X353327Y261259D01*
X353893Y262079D01*
X354247Y263011D01*
X354367Y264000D01*
X325576D02*
X325455Y264989D01*
X325102Y265921D01*
X324536Y266741D01*
X323790Y267402D01*
X322908Y267865D01*
X321940Y268104D01*
X320943D01*
X319976Y267865D01*
X319093Y267402D01*
X318348Y266741D01*
X317781Y265921D01*
X317428Y264989D01*
X317308Y264000D01*
X317428Y263011D01*
X317781Y262079D01*
X318348Y261259D01*
X319093Y260598D01*
X319976Y260135D01*
X320943Y259896D01*
X321940D01*
X322908Y260135D01*
X323790Y260598D01*
X324536Y261259D01*
X325102Y262079D01*
X325455Y263011D01*
X325576Y264000D01*
X340576D02*
X340456Y264989D01*
X340102Y265921D01*
X339536Y266741D01*
X338790Y267402D01*
X337908Y267865D01*
X336940Y268104D01*
X335943D01*
X334976Y267865D01*
X334093Y267402D01*
X333348Y266741D01*
X332781Y265921D01*
X332428Y264989D01*
X332308Y264000D01*
X332428Y263011D01*
X332781Y262079D01*
X333348Y261259D01*
X334093Y260598D01*
X334976Y260135D01*
X335943Y259896D01*
X336940D01*
X337908Y260135D01*
X338790Y260598D01*
X339536Y261259D01*
X340102Y262079D01*
X340456Y263011D01*
X340576Y264000D01*
X42107Y400328D02*
X41441Y400995D01*
X40108D01*
X39442Y400328D01*
Y399662D01*
X40108Y398995D01*
X41441D01*
X42107Y398329D01*
Y397662D01*
X41441Y396996D01*
X40108D01*
X39442Y397662D01*
X43440Y400995D02*
Y396996D01*
X45440D01*
X46106Y397662D01*
Y400328D01*
X45440Y400995D01*
X43440D01*
X47439Y396996D02*
Y399662D01*
X48772Y400995D01*
X50105Y399662D01*
Y396996D01*
Y398995D01*
X47439D01*
X42107Y390328D02*
X41441Y390995D01*
X40108D01*
X39442Y390328D01*
Y389662D01*
X40108Y388995D01*
X41441D01*
X42107Y388329D01*
Y387662D01*
X41441Y386996D01*
X40108D01*
X39442Y387662D01*
X46106Y390328D02*
X45440Y390995D01*
X44107D01*
X43440Y390328D01*
Y387662D01*
X44107Y386996D01*
X45440D01*
X46106Y387662D01*
X47439Y390995D02*
Y386996D01*
X50105D01*
X39442Y380995D02*
Y378329D01*
X40775Y376996D01*
X42107Y378329D01*
Y380995D01*
X46106Y379662D02*
X44107D01*
X43440Y378995D01*
Y377662D01*
X44107Y376996D01*
X46106D01*
X50105Y379662D02*
X48106D01*
X47439Y378995D01*
Y377662D01*
X48106Y376996D01*
X50105D01*
X42107Y370328D02*
X41441Y370995D01*
X40108D01*
X39442Y370328D01*
Y367662D01*
X40108Y366996D01*
X41441D01*
X42107Y367662D01*
Y368995D01*
X40775D01*
X43440Y366996D02*
Y370995D01*
X46106Y366996D01*
Y370995D01*
X47439D02*
Y366996D01*
X49439D01*
X50105Y367662D01*
Y370328D01*
X49439Y370995D01*
X47439D01*
D16*
X429299Y224496D02*
X428948Y225344D01*
X428099Y225696D01*
X427251Y225344D01*
X426899Y224496D01*
X427251Y223647D01*
X428099Y223296D01*
X428948Y223647D01*
X429299Y224496D01*
X425900Y210200D02*
X425549Y211049D01*
X424700Y211400D01*
X423851Y211049D01*
X423500Y210200D01*
X423851Y209351D01*
X424700Y209000D01*
X425549Y209351D01*
X425900Y210200D01*
X432700Y192800D02*
X432348Y193649D01*
X431500Y194000D01*
X430652Y193649D01*
X430300Y192800D01*
X430652Y191952D01*
X431500Y191600D01*
X432348Y191952D01*
X432700Y192800D01*
X425900Y171811D02*
X425549Y172660D01*
X424700Y173011D01*
X423851Y172660D01*
X423500Y171811D01*
X423851Y170962D01*
X424700Y170611D01*
X425549Y170962D01*
X425900Y171811D01*
X432700Y203400D02*
X432348Y204248D01*
X431500Y204600D01*
X430652Y204248D01*
X430300Y203400D01*
X430652Y202552D01*
X431500Y202200D01*
X432348Y202552D01*
X432700Y203400D01*
X425900Y186000D02*
X425549Y186848D01*
X424700Y187200D01*
X423851Y186848D01*
X423500Y186000D01*
X423851Y185152D01*
X424700Y184800D01*
X425549Y185152D01*
X425900Y186000D01*
X432700Y171996D02*
X432348Y172845D01*
X431500Y173196D01*
X430652Y172845D01*
X430300Y171996D01*
X430652Y171148D01*
X431500Y170796D01*
X432348Y171148D01*
X432700Y171996D01*
D17*
X500896Y82227D02*
X501409Y83082D01*
X501870Y83967D01*
X502276Y84878D01*
X502626Y85812D01*
X502918Y86765D01*
X503152Y87735D01*
X503327Y88717D01*
X503442Y89708D01*
X503496Y90704D01*
X503489Y91701D01*
X503422Y92696D01*
X503295Y93685D01*
X503107Y94665D01*
X502861Y95632D01*
X502556Y96581D01*
X502194Y97511D01*
X501776Y98416D01*
X501304Y99295D01*
X500779Y100143D01*
X500204Y100958D01*
X499580Y101736D01*
X498911Y102475D01*
X498197Y103172D01*
X497442Y103825D01*
X496650Y104430D01*
X495821Y104986D01*
X494961Y105490D01*
X494071Y105941D01*
X493156Y106338D01*
X492218Y106678D01*
X491262Y106960D01*
X490290Y107184D01*
X489306Y107348D01*
X488314Y107452D01*
X487318Y107496D01*
X486320Y107479D01*
X485326Y107401D01*
X484338Y107263D01*
X483360Y107065D01*
X482397Y106809D01*
X481450Y106494D01*
X480525Y106122D01*
X479624Y105694D01*
X478750Y105213D01*
X477907Y104679D01*
X477099Y104095D01*
X476327Y103464D01*
X475595Y102786D01*
X474906Y102065D01*
X474262Y101304D01*
X473665Y100504D01*
X473118Y99670D01*
X472622Y98804D01*
X472181Y97910D01*
X471794Y96991D01*
X471464Y96050D01*
X471192Y95090D01*
X470978Y94116D01*
X470825Y93130D01*
X470731Y92137D01*
X470698Y91140D01*
X470726Y90143D01*
X470814Y89150D01*
X470962Y88163D01*
X471170Y87188D01*
X471437Y86227D01*
X471762Y85284D01*
X472144Y84362D01*
X472581Y83466D01*
X473072Y82597D01*
X473614Y81760D01*
X89492Y93548D02*
X88646Y93009D01*
X87850Y92398D01*
X87110Y91721D01*
X86432Y90981D01*
X85821Y90185D01*
X85282Y89339D01*
X84819Y88449D01*
X84435Y87522D01*
X84134Y86565D01*
X83916Y85586D01*
X83785Y84591D01*
X83742Y83589D01*
X83785Y82587D01*
X83916Y81592D01*
X84134Y80612D01*
X84435Y79656D01*
X84819Y78729D01*
X85282Y77839D01*
X85821Y76993D01*
X86432Y76197D01*
X87110Y75457D01*
X87850Y74779D01*
X88646Y74169D01*
X89492Y73630D01*
X90382Y73166D01*
X91308Y72782D01*
X92265Y72481D01*
X93245Y72264D01*
X94239Y72133D01*
X95242Y72089D01*
X96244Y72133D01*
X97239Y72264D01*
X98218Y72481D01*
X99175Y72782D01*
X100102Y73166D01*
X100992Y73630D01*
X101838Y74169D01*
X102634Y74779D01*
X103374Y75457D01*
X104051Y76197D01*
X104662Y76993D01*
X105201Y77839D01*
X105664Y78729D01*
X106048Y79656D01*
X106350Y80612D01*
X106567Y81592D01*
X106698Y82587D01*
X106742Y83589D01*
X106698Y84591D01*
X106567Y85586D01*
X106350Y86565D01*
X106048Y87522D01*
X105664Y88449D01*
X105201Y89339D01*
X104662Y90185D01*
X104051Y90981D01*
X103374Y91721D01*
X102634Y92398D01*
X101838Y93009D01*
X100992Y93548D01*
X95242Y83589D02*
Y97589D01*
X126142Y332177D02*
X130142D01*
X150142D02*
Y352177D01*
X155042D01*
X140142Y332177D02*
X150142D01*
X140142D02*
Y352177D01*
X130142D02*
X140142D01*
X130142Y332177D02*
Y352177D01*
D18*
X346146Y18476D02*
X350346Y14276D01*
X317539Y3516D02*
X346146D01*
X350346Y7716D02*
Y14276D01*
X346146Y3516D02*
X350346Y7716D01*
X313338D02*
X317538Y3516D01*
X313338Y14276D02*
X317538Y18476D01*
X313338Y7716D02*
Y14276D01*
X317538Y18476D02*
X346145D01*
X380601Y124200D02*
X391601D01*
X380601Y110200D02*
Y124200D01*
Y110200D02*
X391601D01*
Y124200D01*
X194842Y331296D02*
Y345296D01*
X183842Y331296D02*
X194842D01*
X183842D02*
Y345296D01*
X194842D01*
X183842Y359996D02*
X194842D01*
X183842Y345996D02*
Y359996D01*
Y345996D02*
X194842D01*
Y359996D01*
X83760Y382305D02*
Y396305D01*
X72760Y382305D02*
X83760D01*
X72760D02*
Y396305D01*
X83760D01*
X72760Y377749D02*
X83760D01*
X72760Y363749D02*
Y377749D01*
Y363749D02*
X83760D01*
Y377749D01*
X320942Y155496D02*
Y169496D01*
X309942Y155496D02*
X320942D01*
X309942D02*
Y169496D01*
X320942D01*
X309942Y152996D02*
X320942D01*
X309942Y138996D02*
Y152996D01*
Y138996D02*
X320942D01*
Y152996D01*
X372342Y296996D02*
Y310996D01*
X361342Y296996D02*
X372342D01*
X361342D02*
Y310996D01*
X372342D01*
X327442Y245496D02*
X338442D01*
X327442Y231496D02*
Y245496D01*
Y231496D02*
X338442D01*
Y245496D01*
X371942Y191996D02*
Y205996D01*
X360942Y191996D02*
X371942D01*
X360942D02*
Y205996D01*
X371942D01*
X349042Y98996D02*
X360042D01*
X349042Y84996D02*
Y98996D01*
Y84996D02*
X360042D01*
Y98996D01*
X372342Y316496D02*
Y330496D01*
X361342Y316496D02*
X372342D01*
X361342D02*
Y330496D01*
X372342D01*
X403800Y124200D02*
X414800D01*
X403800Y110200D02*
Y124200D01*
Y110200D02*
X414800D01*
Y124200D01*
X390300Y45000D02*
Y59000D01*
X379300Y45000D02*
X390300D01*
X379300D02*
Y59000D01*
X390300D01*
X455399Y213595D02*
X466399D01*
X455399Y199595D02*
Y213595D01*
Y199595D02*
X466399D01*
Y213595D01*
Y182595D02*
Y196595D01*
X455399Y182595D02*
X466399D01*
X455399D02*
Y196595D01*
X466399D01*
X361342Y350996D02*
X372342D01*
X361342Y336996D02*
Y350996D01*
Y336996D02*
X372342D01*
Y350996D01*
X372995Y85014D02*
Y99014D01*
X361995Y85014D02*
X372995D01*
X361995D02*
Y99014D01*
X372995D01*
X-18733Y160400D02*
Y163399D01*
X-17233D01*
X-16733Y162899D01*
Y161899D01*
X-17233Y161400D01*
X-18733D01*
X-17733D02*
X-16733Y160400D01*
X-14234D02*
Y163399D01*
X-15734Y161899D01*
X-13734D01*
X-10735Y163399D02*
X-12735D01*
Y161899D01*
X-11735Y162399D01*
X-11235D01*
X-10735Y161899D01*
Y160900D01*
X-11235Y160400D01*
X-12235D01*
X-12735Y160900D01*
X-18733Y166350D02*
Y169349D01*
X-17233D01*
X-16733Y168849D01*
Y167850D01*
X-17233Y167350D01*
X-18733D01*
X-17733D02*
X-16733Y166350D01*
X-14234D02*
Y169349D01*
X-15734Y167850D01*
X-13734D01*
X-11235Y166350D02*
Y169349D01*
X-12735Y167850D01*
X-10735D01*
X-18733Y171650D02*
Y174649D01*
X-17233D01*
X-16733Y174149D01*
Y173150D01*
X-17233Y172650D01*
X-18733D01*
X-17733D02*
X-16733Y171650D01*
X-14234D02*
Y174649D01*
X-15734Y173150D01*
X-13734D01*
X-12735Y174149D02*
X-12235Y174649D01*
X-11235D01*
X-10735Y174149D01*
Y173649D01*
X-11235Y173150D01*
X-11735D01*
X-11235D01*
X-10735Y172650D01*
Y172150D01*
X-11235Y171650D01*
X-12235D01*
X-12735Y172150D01*
X-18733Y177250D02*
Y180249D01*
X-17233D01*
X-16733Y179749D01*
Y178750D01*
X-17233Y178250D01*
X-18733D01*
X-17733D02*
X-16733Y177250D01*
X-14234D02*
Y180249D01*
X-15734Y178750D01*
X-13734D01*
X-10735Y177250D02*
X-12735D01*
X-10735Y179249D01*
Y179749D01*
X-11235Y180249D01*
X-12235D01*
X-12735Y179749D01*
X312547Y71494D02*
Y74493D01*
X314047D01*
X314547Y73993D01*
Y72993D01*
X314047Y72493D01*
X312547D01*
X313547D02*
X314547Y71494D01*
X317546D02*
X315546D01*
X317546Y73493D01*
Y73993D01*
X317046Y74493D01*
X316046D01*
X315546Y73993D01*
X318545D02*
X319045Y74493D01*
X320045D01*
X320545Y73993D01*
Y73493D01*
X320045Y72993D01*
X320545Y72493D01*
Y71993D01*
X320045Y71494D01*
X319045D01*
X318545Y71993D01*
Y72493D01*
X319045Y72993D01*
X318545Y73493D01*
Y73993D01*
X319045Y72993D02*
X320045D01*
X314580Y65095D02*
X314081Y65595D01*
X313081D01*
X312581Y65095D01*
Y63096D01*
X313081Y62596D01*
X314081D01*
X314580Y63096D01*
X315580Y65095D02*
X316080Y65595D01*
X317080D01*
X317580Y65095D01*
Y64595D01*
X317080Y64095D01*
X317580Y63596D01*
Y63096D01*
X317080Y62596D01*
X316080D01*
X315580Y63096D01*
Y63596D01*
X316080Y64095D01*
X315580Y64595D01*
Y65095D01*
X316080Y64095D02*
X317080D01*
X-18500Y293929D02*
Y296928D01*
X-17000D01*
X-16501Y296428D01*
Y295429D01*
X-17000Y294929D01*
X-18500D01*
X-17500D02*
X-16501Y293929D01*
X-15501Y296428D02*
X-15001Y296928D01*
X-14001D01*
X-13502Y296428D01*
Y295928D01*
X-14001Y295429D01*
X-14501D01*
X-14001D01*
X-13502Y294929D01*
Y294429D01*
X-14001Y293929D01*
X-15001D01*
X-15501Y294429D01*
X-12502D02*
X-12002Y293929D01*
X-11002D01*
X-10503Y294429D01*
Y296428D01*
X-11002Y296928D01*
X-12002D01*
X-12502Y296428D01*
Y295928D01*
X-12002Y295429D01*
X-10503D01*
X-18300Y291247D02*
Y288248D01*
X-16801D01*
X-16301Y288748D01*
Y290747D01*
X-16801Y291247D01*
X-18300D01*
X-15301Y287748D02*
X-13302D01*
X-12302Y288248D02*
Y291247D01*
X-10802D01*
X-10303Y290747D01*
Y289748D01*
X-10802Y289248D01*
X-12302D01*
X-8803Y290247D02*
X-7803D01*
X-7304Y289748D01*
Y288248D01*
X-8803D01*
X-9303Y288748D01*
X-8803Y289248D01*
X-7304D01*
X-6304Y288248D02*
X-4804D01*
X-4304Y288748D01*
X-4804Y289248D01*
X-5804D01*
X-6304Y289748D01*
X-5804Y290247D01*
X-4304D01*
X-3305Y288248D02*
X-1805D01*
X-1306Y288748D01*
X-1805Y289248D01*
X-2805D01*
X-3305Y289748D01*
X-2805Y290247D01*
X-1306D01*
X-18100Y272500D02*
Y275499D01*
X-16601D01*
X-16101Y274999D01*
Y274000D01*
X-16601Y273500D01*
X-18100D01*
X-17100D02*
X-16101Y272500D01*
X-13601D02*
Y275499D01*
X-15101Y274000D01*
X-13102D01*
X-12102Y272500D02*
X-11102D01*
X-11602D01*
Y275499D01*
X-12102Y274999D01*
X-18100Y269130D02*
Y266131D01*
X-16601D01*
X-16101Y266631D01*
Y268631D01*
X-16601Y269130D01*
X-18100D01*
X-15101Y265632D02*
X-13102D01*
X-10103Y269130D02*
X-12102D01*
Y267631D01*
X-11102D01*
X-12102D01*
Y266131D01*
X-8603Y268131D02*
X-7603D01*
X-7104Y267631D01*
Y266131D01*
X-8603D01*
X-9103Y266631D01*
X-8603Y267131D01*
X-7104D01*
X-6104Y266131D02*
X-5104D01*
X-5604D01*
Y268131D01*
X-6104D01*
X-3605Y266131D02*
X-2605D01*
X-3105D01*
Y269130D01*
X-3605D01*
X-18500Y249433D02*
Y252432D01*
X-17000D01*
X-16501Y251932D01*
Y250933D01*
X-17000Y250433D01*
X-18500D01*
X-17500D02*
X-16501Y249433D01*
X-15501Y251932D02*
X-15001Y252432D01*
X-14001D01*
X-13502Y251932D01*
Y251432D01*
X-14001Y250933D01*
X-14501D01*
X-14001D01*
X-13502Y250433D01*
Y249933D01*
X-14001Y249433D01*
X-15001D01*
X-15501Y249933D01*
X-12502Y252432D02*
X-10503D01*
Y251932D01*
X-12502Y249933D01*
Y249433D01*
X-18600Y147099D02*
X-16601D01*
Y146599D01*
X-18600Y144600D01*
Y144100D01*
X-16601D01*
X-15601D02*
X-14601D01*
X-15101D01*
Y147099D01*
X-15601Y146599D01*
X-13102Y144100D02*
X-12102D01*
X-12602D01*
Y147099D01*
X-13102Y146599D01*
X-18500Y230496D02*
Y233495D01*
X-17000D01*
X-16501Y232995D01*
Y231996D01*
X-17000Y231496D01*
X-18500D01*
X-15501Y230996D02*
X-15001Y230496D01*
X-14001D01*
X-13502Y230996D01*
Y232995D01*
X-14001Y233495D01*
X-15001D01*
X-15501Y232995D01*
Y232495D01*
X-15001Y231996D01*
X-13502D01*
X362100Y100500D02*
Y103499D01*
X363599D01*
X364099Y102999D01*
Y101999D01*
X363599Y101500D01*
X362100D01*
X363100D02*
X364099Y100500D01*
X365099D02*
Y103499D01*
X367098Y100500D01*
Y103499D01*
X368098Y100500D02*
X369098D01*
X368598D01*
Y103499D01*
X368098Y102999D01*
X372597Y103499D02*
X370597D01*
Y101999D01*
X371597Y102499D01*
X372097D01*
X372597Y101999D01*
Y101000D01*
X372097Y100500D01*
X371097D01*
X370597Y101000D01*
X133975Y399180D02*
X135975D01*
Y398680D01*
X133975Y396681D01*
Y396181D01*
X135975D01*
X138474D02*
Y399180D01*
X136974Y397680D01*
X138974D01*
X133975Y381180D02*
X135975D01*
Y380680D01*
X133975Y378681D01*
Y378181D01*
X135975D01*
X136974Y380680D02*
X137474Y381180D01*
X138474D01*
X138974Y380680D01*
Y380180D01*
X138474Y379680D01*
X137974D01*
X138474D01*
X138974Y379181D01*
Y378681D01*
X138474Y378181D01*
X137474D01*
X136974Y378681D01*
X361700Y352000D02*
Y354999D01*
X363199D01*
X363699Y354499D01*
Y353500D01*
X363199Y353000D01*
X361700D01*
X362700D02*
X363699Y352000D01*
X364699D02*
Y354999D01*
X366698Y352000D01*
Y354999D01*
X367698Y352000D02*
X368698D01*
X368198D01*
Y354999D01*
X367698Y354499D01*
X372197Y352000D02*
X370197D01*
X372197Y353999D01*
Y354499D01*
X371697Y354999D01*
X370697D01*
X370197Y354499D01*
X327542Y373595D02*
X329541D01*
Y373095D01*
X327542Y371096D01*
Y370596D01*
X329541D01*
X332540Y373595D02*
X330541D01*
Y372095D01*
X331540Y372595D01*
X332040D01*
X332540Y372095D01*
Y371096D01*
X332040Y370596D01*
X331041D01*
X330541Y371096D01*
X312539Y66827D02*
Y69826D01*
X314039D01*
X314539Y69326D01*
Y68326D01*
X314039Y67826D01*
X312539D01*
X313539D02*
X314539Y66827D01*
X315539Y69326D02*
X316038Y69826D01*
X317038D01*
X317538Y69326D01*
Y68826D01*
X317038Y68326D01*
X316538D01*
X317038D01*
X317538Y67826D01*
Y67326D01*
X317038Y66827D01*
X316038D01*
X315539Y67326D01*
X318537Y66827D02*
X319537D01*
X319037D01*
Y69826D01*
X318537Y69326D01*
X47241Y87495D02*
X45242D01*
Y85996D01*
X46241Y86495D01*
X46741D01*
X47241Y85996D01*
Y84996D01*
X46741Y84496D01*
X45742D01*
X45242Y84996D01*
X48241Y87495D02*
Y85496D01*
X49240Y84496D01*
X50240Y85496D01*
Y87495D01*
X324218Y77772D02*
Y80771D01*
X325718D01*
X326218Y80271D01*
Y79271D01*
X325718Y78771D01*
X324218D01*
X325218D02*
X326218Y77772D01*
X328717D02*
Y80771D01*
X327217Y79271D01*
X329217D01*
X330216Y80271D02*
X330716Y80771D01*
X331716D01*
X332216Y80271D01*
Y78272D01*
X331716Y77772D01*
X330716D01*
X330216Y78272D01*
Y80271D01*
X344442Y178995D02*
Y176496D01*
X344942Y175996D01*
X345941D01*
X346441Y176496D01*
Y178995D01*
X349440Y175996D02*
X347441D01*
X349440Y177995D01*
Y178495D01*
X348940Y178995D01*
X347941D01*
X347441Y178495D01*
X35941Y85395D02*
X35441Y85895D01*
X34442D01*
X33942Y85395D01*
Y83396D01*
X34442Y82896D01*
X35441D01*
X35941Y83396D01*
X36941Y82896D02*
X37940D01*
X37441D01*
Y85895D01*
X36941Y85395D01*
X39440D02*
X39940Y85895D01*
X40940D01*
X41439Y85395D01*
Y84895D01*
X40940Y84395D01*
X40440D01*
X40940D01*
X41439Y83896D01*
Y83396D01*
X40940Y82896D01*
X39940D01*
X39440Y83396D01*
X355242Y4196D02*
Y7195D01*
X356741D01*
X357241Y6695D01*
Y5695D01*
X356741Y5196D01*
X355242D01*
X356241D02*
X357241Y4196D01*
X358241Y6695D02*
X358741Y7195D01*
X359740D01*
X360240Y6695D01*
Y6195D01*
X359740Y5695D01*
X359240D01*
X359740D01*
X360240Y5196D01*
Y4696D01*
X359740Y4196D01*
X358741D01*
X358241Y4696D01*
X361240Y6695D02*
X361740Y7195D01*
X362739D01*
X363239Y6695D01*
Y6195D01*
X362739Y5695D01*
X363239Y5196D01*
Y4696D01*
X362739Y4196D01*
X361740D01*
X361240Y4696D01*
Y5196D01*
X361740Y5695D01*
X361240Y6195D01*
Y6695D01*
X361740Y5695D02*
X362739D01*
X49042Y59296D02*
X46043D01*
Y60795D01*
X46543Y61295D01*
X47542D01*
X48042Y60795D01*
Y59296D01*
Y60296D02*
X49042Y61295D01*
X46543Y62295D02*
X46043Y62795D01*
Y63794D01*
X46543Y64294D01*
X47042D01*
X47542Y63794D01*
Y63295D01*
Y63794D01*
X48042Y64294D01*
X48542D01*
X49042Y63794D01*
Y62795D01*
X48542Y62295D01*
X46043Y67293D02*
Y65294D01*
X47542D01*
X47042Y66294D01*
Y66794D01*
X47542Y67293D01*
X48542D01*
X49042Y66794D01*
Y65794D01*
X48542Y65294D01*
X57743Y61295D02*
X57243Y60795D01*
Y59796D01*
X57743Y59296D01*
X59742D01*
X60242Y59796D01*
Y60795D01*
X59742Y61295D01*
X60242Y62295D02*
Y63295D01*
Y62795D01*
X57243D01*
X57743Y62295D01*
X60242Y66794D02*
Y64794D01*
X58242Y66794D01*
X57743D01*
X57243Y66294D01*
Y65294D01*
X57743Y64794D01*
X78242Y74919D02*
X77743Y74420D01*
Y73420D01*
X78242Y72920D01*
X80242D01*
X80742Y73420D01*
Y74420D01*
X80242Y74919D01*
X80742Y75919D02*
Y76919D01*
Y76419D01*
X77743D01*
X78242Y75919D01*
X80742Y78418D02*
Y79418D01*
Y78918D01*
X77743D01*
X78242Y78418D01*
X58841Y100895D02*
X58341Y101395D01*
X57342D01*
X56842Y100895D01*
Y98896D01*
X57342Y98396D01*
X58341D01*
X58841Y98896D01*
X59841Y98396D02*
X60840D01*
X60341D01*
Y101395D01*
X59841Y100895D01*
X62340D02*
X62840Y101395D01*
X63840D01*
X64339Y100895D01*
Y98896D01*
X63840Y98396D01*
X62840D01*
X62340Y98896D01*
Y100895D01*
X16142Y71195D02*
X18141D01*
Y70695D01*
X16142Y68696D01*
Y68196D01*
X18141D01*
X19141Y68696D02*
X19641Y68196D01*
X20640D01*
X21140Y68696D01*
Y70695D01*
X20640Y71195D01*
X19641D01*
X19141Y70695D01*
Y70195D01*
X19641Y69696D01*
X21140D01*
X56342Y86395D02*
Y83896D01*
X56842Y83396D01*
X57841D01*
X58341Y83896D01*
Y86395D01*
X61340D02*
X60340Y85895D01*
X59341Y84895D01*
Y83896D01*
X59841Y83396D01*
X60840D01*
X61340Y83896D01*
Y84396D01*
X60840Y84895D01*
X59341D01*
X315441Y23176D02*
X314941Y23676D01*
X313942D01*
X313442Y23176D01*
Y21177D01*
X313942Y20677D01*
X314941D01*
X315441Y21177D01*
X316441D02*
X316941Y20677D01*
X317940D01*
X318440Y21177D01*
Y23176D01*
X317940Y23676D01*
X316941D01*
X316441Y23176D01*
Y22676D01*
X316941Y22177D01*
X318440D01*
X68242Y87495D02*
Y85496D01*
X69241Y84496D01*
X70241Y85496D01*
Y87495D01*
X73240D02*
Y84496D01*
X71741D01*
X71241Y84996D01*
Y85996D01*
X71741Y86495D01*
X73240D01*
X76239Y87495D02*
Y84496D01*
X74740D01*
X74240Y84996D01*
Y85996D01*
X74740Y86495D01*
X76239D01*
X71241Y55395D02*
X70741Y55895D01*
X69742D01*
X69242Y55395D01*
Y53396D01*
X69742Y52896D01*
X70741D01*
X71241Y53396D01*
Y54396D01*
X70241D01*
X72241Y52896D02*
Y54895D01*
X73740D01*
X74240Y54396D01*
Y52896D01*
X77239Y55895D02*
Y52896D01*
X75740D01*
X75240Y53396D01*
Y54396D01*
X75740Y54895D01*
X77239D01*
X348199Y273499D02*
X347699Y273999D01*
X346700D01*
X346200Y273499D01*
Y271500D01*
X346700Y271000D01*
X347699D01*
X348199Y271500D01*
Y272499D01*
X347200D01*
X349199Y271000D02*
Y272999D01*
X350698D01*
X351198Y272499D01*
Y271000D01*
X354197Y273999D02*
Y271000D01*
X352698D01*
X352198Y271500D01*
Y272499D01*
X352698Y272999D01*
X354197D01*
X334399Y273499D02*
X333899Y273999D01*
X332900D01*
X332400Y273499D01*
Y272999D01*
X332900Y272499D01*
X333899D01*
X334399Y272000D01*
Y271500D01*
X333899Y271000D01*
X332900D01*
X332400Y271500D01*
X337398Y273499D02*
X336898Y273999D01*
X335899D01*
X335399Y273499D01*
Y271500D01*
X335899Y271000D01*
X336898D01*
X337398Y271500D01*
X338398Y273999D02*
Y271000D01*
X340397D01*
X319399Y273499D02*
X318899Y273999D01*
X317900D01*
X317400Y273499D01*
Y272999D01*
X317900Y272499D01*
X318899D01*
X319399Y272000D01*
Y271500D01*
X318899Y271000D01*
X317900D01*
X317400Y271500D01*
X320399Y273999D02*
Y271000D01*
X321899D01*
X322398Y271500D01*
Y273499D01*
X321899Y273999D01*
X320399D01*
X323398Y271000D02*
Y272999D01*
X324398Y273999D01*
X325397Y272999D01*
Y271000D01*
Y272499D01*
X323398D01*
X298331Y115495D02*
Y112496D01*
X299831D01*
X300331Y112996D01*
Y113496D01*
X299831Y113996D01*
X298331D01*
X299831D01*
X300331Y114495D01*
Y114995D01*
X299831Y115495D01*
X298331D01*
X301330Y112496D02*
X302330D01*
X301830D01*
Y115495D01*
X301330Y114995D01*
X59941Y365995D02*
X58942D01*
X58442Y365495D01*
Y363496D01*
X58942Y362996D01*
X59941D01*
X60441Y363496D01*
Y365495D01*
X59941Y365995D01*
X61441D02*
Y362996D01*
X63440D01*
X66439Y365995D02*
X64440D01*
Y362996D01*
X66439D01*
X64440Y364495D02*
X65439D01*
X67439Y365995D02*
Y362996D01*
X68938D01*
X69438Y363496D01*
Y365495D01*
X68938Y365995D01*
X67439D01*
X361700Y331300D02*
Y334299D01*
X363199D01*
X363699Y333799D01*
Y332800D01*
X363199Y332300D01*
X361700D01*
X362700D02*
X363699Y331300D01*
X364699D02*
Y334299D01*
X366698Y331300D01*
Y334299D01*
X367698Y331300D02*
X368698D01*
X368198D01*
Y334299D01*
X367698Y333799D01*
X372197Y334299D02*
X371197Y333799D01*
X370197Y332800D01*
Y331800D01*
X370697Y331300D01*
X371697D01*
X372197Y331800D01*
Y332300D01*
X371697Y332800D01*
X370197D01*
X358241Y20495D02*
X357741Y20995D01*
X356742D01*
X356242Y20495D01*
Y18496D01*
X356742Y17996D01*
X357741D01*
X358241Y18496D01*
X359241Y20995D02*
X361240D01*
Y20495D01*
X359241Y18496D01*
Y17996D01*
X326399Y27199D02*
X325900Y27699D01*
X324900D01*
X324400Y27199D01*
Y25200D01*
X324900Y24700D01*
X325900D01*
X326399Y25200D01*
X327399Y27199D02*
X327899Y27699D01*
X328899D01*
X329398Y27199D01*
Y26699D01*
X328899Y26199D01*
X328399D01*
X328899D01*
X329398Y25700D01*
Y25200D01*
X328899Y24700D01*
X327899D01*
X327399Y25200D01*
X314605Y77911D02*
X314105Y78411D01*
X313105D01*
X312606Y77911D01*
Y75912D01*
X313105Y75412D01*
X314105D01*
X314605Y75912D01*
X317604Y75412D02*
X315604D01*
X317604Y77411D01*
Y77911D01*
X317104Y78411D01*
X316104D01*
X315604Y77911D01*
X329242Y63511D02*
Y61012D01*
X329742Y60512D01*
X330741D01*
X331241Y61012D01*
Y63511D01*
X332241Y60512D02*
X333240D01*
X332741D01*
Y63511D01*
X332241Y63011D01*
X360042Y68895D02*
X362041D01*
Y68395D01*
X360042Y66396D01*
Y65896D01*
X362041D01*
X363041Y68395D02*
X363541Y68895D01*
X364540D01*
X365040Y68395D01*
Y67895D01*
X364540Y67396D01*
X365040Y66896D01*
Y66396D01*
X364540Y65896D01*
X363541D01*
X363041Y66396D01*
Y66896D01*
X363541Y67396D01*
X363041Y67895D01*
Y68395D01*
X363541Y67396D02*
X364540D01*
X349042Y100600D02*
Y103599D01*
X350541D01*
X351041Y103099D01*
Y102100D01*
X350541Y101600D01*
X349042D01*
X350041D02*
X351041Y100600D01*
X352041D02*
Y103599D01*
X354040Y100600D01*
Y103599D01*
X355040Y100600D02*
X356040D01*
X355540D01*
Y103599D01*
X355040Y103099D01*
X357539D02*
X358039Y103599D01*
X359038D01*
X359538Y103099D01*
Y102599D01*
X359038Y102100D01*
X358539D01*
X359038D01*
X359538Y101600D01*
Y101100D01*
X359038Y100600D01*
X358039D01*
X357539Y101100D01*
X-6259Y102745D02*
X-7259D01*
X-6759D01*
Y100246D01*
X-7259Y99746D01*
X-7758D01*
X-8258Y100246D01*
X-5259Y102246D02*
X-4759Y102745D01*
X-3760D01*
X-3260Y102246D01*
Y101746D01*
X-3760Y101246D01*
X-3260Y100746D01*
Y100246D01*
X-3760Y99746D01*
X-4759D01*
X-5259Y100246D01*
Y100746D01*
X-4759Y101246D01*
X-5259Y101746D01*
Y102246D01*
X-4759Y101246D02*
X-3760D01*
X19510Y57802D02*
Y60800D01*
X21009D01*
X21509Y60301D01*
Y59301D01*
X21009Y58801D01*
X19510D01*
X20509D02*
X21509Y57802D01*
X22509Y60301D02*
X23008Y60800D01*
X24008D01*
X24508Y60301D01*
Y59801D01*
X24008Y59301D01*
X23508D01*
X24008D01*
X24508Y58801D01*
Y58301D01*
X24008Y57802D01*
X23008D01*
X22509Y58301D01*
X25508Y60301D02*
X26007Y60800D01*
X27007D01*
X27507Y60301D01*
Y58301D01*
X27007Y57802D01*
X26007D01*
X25508Y58301D01*
Y60301D01*
X17742Y93548D02*
Y96547D01*
X19241D01*
X19741Y96047D01*
Y95048D01*
X19241Y94548D01*
X17742D01*
X18741D02*
X19741Y93548D01*
X22740D02*
X20741D01*
X22740Y95548D01*
Y96047D01*
X22240Y96547D01*
X21241D01*
X20741Y96047D01*
X23740Y94048D02*
X24240Y93548D01*
X25239D01*
X25739Y94048D01*
Y96047D01*
X25239Y96547D01*
X24240D01*
X23740Y96047D01*
Y95548D01*
X24240Y95048D01*
X25739D01*
X35741Y100895D02*
X33742D01*
Y99396D01*
X34741D01*
X33742D01*
Y97896D01*
X36741D02*
X37740D01*
X37241D01*
Y100895D01*
X36741Y100395D01*
X169941Y403795D02*
X169441Y404295D01*
X168442D01*
X167942Y403795D01*
Y401796D01*
X168442Y401296D01*
X169441D01*
X169941Y401796D01*
X172940Y404295D02*
X171940Y403795D01*
X170941Y402796D01*
Y401796D01*
X171441Y401296D01*
X172440D01*
X172940Y401796D01*
Y402296D01*
X172440Y402796D01*
X170941D01*
X341242Y253295D02*
Y250796D01*
X341742Y250296D01*
X342741D01*
X343241Y250796D01*
Y253295D01*
X346240D02*
X344241D01*
Y251796D01*
X345240Y252295D01*
X345740D01*
X346240Y251796D01*
Y250796D01*
X345740Y250296D01*
X344741D01*
X344241Y250796D01*
X354264Y258024D02*
X353764Y258524D01*
X352764D01*
X352265Y258024D01*
Y256025D01*
X352764Y255525D01*
X353764D01*
X354264Y256025D01*
X357263Y258524D02*
X355264D01*
Y257025D01*
X356263Y257524D01*
X356763D01*
X357263Y257025D01*
Y256025D01*
X356763Y255525D01*
X355763D01*
X355264Y256025D01*
X347858Y212695D02*
X349858D01*
Y212195D01*
X347858Y210196D01*
Y209696D01*
X349858D01*
X350857Y212695D02*
X352857D01*
Y212195D01*
X350857Y210196D01*
Y209696D01*
X362618Y206794D02*
Y209793D01*
X364118D01*
X364618Y209293D01*
Y208294D01*
X364118Y207794D01*
X362618D01*
X363618D02*
X364618Y206794D01*
X365617D02*
Y209793D01*
X367617Y206794D01*
Y209793D01*
X368617Y207294D02*
X369116Y206794D01*
X370116D01*
X370616Y207294D01*
Y209293D01*
X370116Y209793D01*
X369116D01*
X368617Y209293D01*
Y208793D01*
X369116Y208294D01*
X370616D01*
X328942Y246888D02*
Y249887D01*
X330441D01*
X330941Y249387D01*
Y248388D01*
X330441Y247888D01*
X328942D01*
X329941D02*
X330941Y246888D01*
X331941D02*
Y249887D01*
X333940Y246888D01*
Y249887D01*
X334940D02*
X336939D01*
Y249387D01*
X334940Y247388D01*
Y246888D01*
X327442Y394101D02*
X329441D01*
Y393602D01*
X327442Y391602D01*
Y391102D01*
X329441D01*
X332440Y394101D02*
X331440Y393602D01*
X330441Y392602D01*
Y391602D01*
X330941Y391102D01*
X331940D01*
X332440Y391602D01*
Y392102D01*
X331940Y392602D01*
X330441D01*
X347058Y395495D02*
Y392996D01*
X347558Y392496D01*
X348558D01*
X349058Y392996D01*
Y395495D01*
X351557Y392496D02*
Y395495D01*
X350057Y393995D01*
X352057D01*
X361800Y311800D02*
Y314799D01*
X363299D01*
X363799Y314299D01*
Y313299D01*
X363299Y312800D01*
X361800D01*
X362800D02*
X363799Y311800D01*
X364799D02*
Y314799D01*
X366798Y311800D01*
Y314799D01*
X367798Y311800D02*
X368798D01*
X368298D01*
Y314799D01*
X367798Y314299D01*
X370297Y311800D02*
X371297D01*
X370797D01*
Y314799D01*
X370297Y314299D01*
X359441Y402595D02*
X358941Y403095D01*
X357942D01*
X357442Y402595D01*
Y400596D01*
X357942Y400096D01*
X358941D01*
X359441Y400596D01*
X361940Y400096D02*
Y403095D01*
X360441Y401595D01*
X362440D01*
X360148Y184363D02*
X359649Y184863D01*
X358649D01*
X358149Y184363D01*
Y182364D01*
X358649Y181864D01*
X359649D01*
X360148Y182364D01*
X361148Y181864D02*
X362148D01*
X361648D01*
Y184863D01*
X361148Y184363D01*
X310200Y170497D02*
Y173496D01*
X311700D01*
X312199Y172996D01*
Y171996D01*
X311700Y171496D01*
X310200D01*
X311200D02*
X312199Y170497D01*
X313199D02*
Y173496D01*
X315198Y170497D01*
Y173496D01*
X318197Y170497D02*
X316198D01*
X318197Y172496D01*
Y172996D01*
X317698Y173496D01*
X316698D01*
X316198Y172996D01*
X310200Y174796D02*
Y177795D01*
X311700D01*
X312199Y177295D01*
Y176295D01*
X311700Y175796D01*
X310200D01*
X311200D02*
X312199Y174796D01*
X313199D02*
Y177795D01*
X315198Y174796D01*
Y177795D01*
X316198Y174796D02*
X317198D01*
X316698D01*
Y177795D01*
X316198Y177295D01*
X329942Y155995D02*
X331941D01*
Y155495D01*
X329942Y153496D01*
Y152996D01*
X331941D01*
X332941D02*
X333940D01*
X333441D01*
Y155995D01*
X332941Y155495D01*
X329442Y174070D02*
X331441D01*
Y173570D01*
X329442Y171571D01*
Y171071D01*
X331441D01*
X334440D02*
X332441D01*
X334440Y173070D01*
Y173570D01*
X333940Y174070D01*
X332941D01*
X332441Y173570D01*
X155742Y397895D02*
Y395396D01*
X156242Y394896D01*
X157241D01*
X157741Y395396D01*
Y397895D01*
X158741Y397395D02*
X159241Y397895D01*
X160240D01*
X160740Y397395D01*
Y396895D01*
X160240Y396395D01*
X159740D01*
X160240D01*
X160740Y395896D01*
Y395396D01*
X160240Y394896D01*
X159241D01*
X158741Y395396D01*
X370263Y10928D02*
Y10428D01*
X371262Y9429D01*
X372262Y10428D01*
Y10928D01*
X371262Y9429D02*
Y7929D01*
X373262D02*
X374261D01*
X373762D01*
Y10928D01*
X373262Y10428D01*
X73900Y378500D02*
Y381499D01*
X75400D01*
X75899Y380999D01*
Y379999D01*
X75400Y379500D01*
X73900D01*
X74900D02*
X75899Y378500D01*
X76899D02*
Y381499D01*
X78898Y378500D01*
Y381499D01*
X79898Y380999D02*
X80398Y381499D01*
X81398D01*
X81897Y380999D01*
Y380499D01*
X81398Y379999D01*
X80898D01*
X81398D01*
X81897Y379500D01*
Y379000D01*
X81398Y378500D01*
X80398D01*
X79898Y379000D01*
X73942Y396996D02*
Y399995D01*
X75441D01*
X75941Y399495D01*
Y398496D01*
X75441Y397996D01*
X73942D01*
X74941D02*
X75941Y396996D01*
X76941D02*
Y399995D01*
X78940Y396996D01*
Y399995D01*
X81439Y396996D02*
Y399995D01*
X79940Y398496D01*
X81939D01*
X333007Y19600D02*
Y22599D01*
X334506D01*
X335006Y22099D01*
Y21100D01*
X334506Y20600D01*
X333007D01*
X336006Y22099D02*
X336506Y22599D01*
X337505D01*
X338005Y22099D01*
Y21599D01*
X337505Y21100D01*
X338005Y20600D01*
Y20100D01*
X337505Y19600D01*
X336506D01*
X336006Y20100D01*
Y20600D01*
X336506Y21100D01*
X336006Y21599D01*
Y22099D01*
X336506Y21100D02*
X337505D01*
X323371Y331696D02*
Y334695D01*
X324870D01*
X325370Y334195D01*
Y333195D01*
X324870Y332696D01*
X323371D01*
X324371D02*
X325370Y331696D01*
X326370D02*
X327370D01*
X326870D01*
Y334695D01*
X326370Y334195D01*
X323542Y317396D02*
Y320395D01*
X325041D01*
X325541Y319895D01*
Y318896D01*
X325041Y318396D01*
X323542D01*
X324541D02*
X325541Y317396D01*
X328540D02*
X326541D01*
X328540Y319395D01*
Y319895D01*
X328040Y320395D01*
X327041D01*
X326541Y319895D01*
D19*
X378363Y19405D02*
Y20586D01*
X368520Y19504D02*
Y20685D01*
X35742Y90443D02*
Y96349D01*
X86442Y350996D02*
X105608D01*
X86442D02*
X116442D01*
X86442Y330996D02*
X116442D01*
Y350996D01*
X86442Y330996D02*
Y350996D01*
X69789Y76396D02*
X75695D01*
X329942Y292996D02*
Y312996D01*
X309942D02*
X329942D01*
X309942Y292996D02*
X329942D01*
X309942D02*
Y312996D01*
X376599Y109496D02*
X396599D01*
X376599Y69496D02*
X396599D01*
X376599D02*
Y109496D01*
X396599Y69496D02*
Y109496D01*
X507631Y294996D02*
X511568D01*
X507631Y288598D02*
X511568D01*
X376599Y363996D02*
X396599D01*
Y283996D02*
Y363996D01*
X376599Y283996D02*
Y363996D01*
Y283996D02*
X396599D01*
X-38433Y185496D02*
X-28433D01*
X-38433D02*
Y245496D01*
X-28433D01*
Y185496D02*
Y245496D01*
X-49398Y266131D02*
Y270069D01*
X-43000Y266131D02*
Y270069D01*
X-42500Y288248D02*
Y292185D01*
X-48898Y288248D02*
Y292185D01*
X317000Y40832D02*
Y44769D01*
X-33800Y159333D02*
Y163467D01*
X309942Y117996D02*
Y137996D01*
Y117996D02*
X329942D01*
X309942Y137996D02*
X329942D01*
Y117996D02*
Y137996D01*
X-33800Y164833D02*
Y168967D01*
Y170333D02*
Y174467D01*
Y175833D02*
Y179967D01*
X317000Y50533D02*
Y54667D01*
X-42500Y293929D02*
Y298063D01*
X286544Y45449D02*
Y49386D01*
X292942Y45449D02*
Y49386D01*
X269942Y45527D02*
Y49464D01*
X263544Y45527D02*
Y49464D01*
X240544Y45527D02*
Y49464D01*
X246942Y45527D02*
Y49464D01*
X223942Y45527D02*
Y49464D01*
X217544Y45527D02*
Y49464D01*
X200942Y45527D02*
Y49464D01*
X194544Y45527D02*
Y49464D01*
X171544Y45527D02*
Y49464D01*
X177942Y45527D02*
Y49464D01*
X154942Y45527D02*
Y49464D01*
X148544Y45527D02*
Y49464D01*
X125544Y45527D02*
Y49464D01*
X131942Y45527D02*
Y49464D01*
X88844Y76613D02*
Y80550D01*
X95242Y76613D02*
Y80550D01*
X133173Y341996D02*
X137110D01*
X133173Y348394D02*
X137110D01*
X502631Y288598D02*
X506568D01*
X502631Y294996D02*
X506568D01*
X508599Y347027D02*
Y350964D01*
X514997Y347027D02*
Y350964D01*
X503131Y204394D02*
X507068D01*
X503131Y197996D02*
X507068D01*
X483131Y217996D02*
X487068D01*
X483131Y224394D02*
X487068D01*
X523131Y184394D02*
X527068D01*
X523131Y177996D02*
X527068D01*
X523131Y217996D02*
X527068D01*
X523131Y224394D02*
X527068D01*
X483131Y184394D02*
X487068D01*
X483131Y177996D02*
X487068D01*
X483131Y197996D02*
X487068D01*
X483131Y204394D02*
X487068D01*
X523131D02*
X527068D01*
X523131Y197996D02*
X527068D01*
X290698Y397926D02*
Y401863D01*
X297095Y397926D02*
Y401863D01*
X282095Y397926D02*
Y401863D01*
X275698Y397926D02*
Y401863D01*
X260698Y397926D02*
Y401863D01*
X267095Y397926D02*
Y401863D01*
X252095Y397926D02*
Y401863D01*
X245698Y397926D02*
Y401863D01*
X230698Y397926D02*
Y401863D01*
X237095Y397926D02*
Y401863D01*
X222095Y397926D02*
Y401863D01*
X215698Y397926D02*
Y401863D01*
X200698Y397926D02*
Y401863D01*
X207095Y397926D02*
Y401863D01*
X192095Y397926D02*
Y401863D01*
X185698Y397926D02*
Y401863D01*
X487099Y127128D02*
Y131064D01*
X480702Y127128D02*
Y131064D01*
X461575Y122511D02*
X463543Y119101D01*
X467115Y125710D02*
X469083Y122300D01*
X452486Y111080D02*
X455895Y109112D01*
X449287Y105540D02*
X452696Y103571D01*
X447131Y84698D02*
X451068D01*
X447131Y91096D02*
X451068D01*
X452486Y69512D02*
X455895Y71480D01*
X455684Y63971D02*
X459094Y65940D01*
X472655Y53283D02*
X474624Y56693D01*
X467115Y56482D02*
X469083Y59892D01*
X487099Y51127D02*
Y55064D01*
X493497Y51127D02*
Y55064D01*
X510655Y63091D02*
X512624Y59681D01*
X505115Y59892D02*
X507083Y56482D01*
X518303Y73080D02*
X521713Y71112D01*
X521502Y78621D02*
X524912Y76652D01*
X523131Y97494D02*
X527068D01*
X523131Y91096D02*
X527068D01*
X518303Y109112D02*
X521713Y111080D01*
X515105Y114652D02*
X518514Y116621D01*
X499575Y125499D02*
X501543Y128909D01*
X505115Y122300D02*
X507084Y125710D01*
X-43000Y271533D02*
Y275667D01*
X-31000Y249433D02*
Y253567D01*
X362042Y175828D02*
Y179764D01*
X359742Y394427D02*
Y398364D01*
X354442Y250128D02*
Y254064D01*
X170253Y395027D02*
Y398965D01*
X317000Y56827D02*
Y60764D01*
X318973Y30177D02*
X322910D01*
X358942Y13127D02*
Y17064D01*
X313973Y30177D02*
X317910D01*
X62088Y63396D02*
X66025D01*
X34473Y74296D02*
X38410D01*
X118973Y341996D02*
X122910D01*
X317000Y45633D02*
Y49767D01*
X328400Y71889D02*
Y76023D01*
X508599Y352028D02*
Y355964D01*
X514997Y352028D02*
Y355964D01*
X429702Y304028D02*
Y307964D01*
X436099Y304028D02*
Y307964D01*
X495631Y280496D02*
X499568D01*
X495631Y274098D02*
X499568D01*
X514997Y357028D02*
Y360964D01*
X508599Y357028D02*
Y360964D01*
X512631Y294996D02*
X516568D01*
X512631Y288598D02*
X516568D01*
X502532Y282177D02*
X506666D01*
X507532D02*
X511666D01*
X512532D02*
X516666D01*
X494099Y268429D02*
Y272563D01*
X521418Y346929D02*
Y351063D01*
Y351929D02*
Y356063D01*
Y356929D02*
Y361063D01*
X424032Y309496D02*
X428166D01*
X396599Y177996D02*
Y217996D01*
X376599Y177996D02*
Y217996D01*
Y177996D02*
X396599D01*
X376599Y217996D02*
X396599D01*
X212442Y77996D02*
Y97996D01*
X292442D01*
X212442Y77996D02*
X292442D01*
Y97996D01*
X212442Y77996D02*
Y97996D01*
X132442Y77996D02*
X212442D01*
X132442Y97996D02*
X212442D01*
X132442Y77996D02*
Y97996D01*
X358942Y7929D02*
Y12063D01*
X50375Y63396D02*
X54509D01*
X60842Y90443D02*
Y96349D01*
X21242Y62329D02*
Y66463D01*
Y87542D02*
Y91676D01*
X123875Y341996D02*
X128009D01*
X20942Y395929D02*
Y400063D01*
X107675Y72896D02*
X111809D01*
X143075Y341996D02*
X147209D01*
X20942Y390929D02*
Y395063D01*
X204442Y330996D02*
Y350996D01*
X284442D01*
X204442Y330996D02*
X284442D01*
Y350996D01*
X131942Y40429D02*
Y44563D01*
X154942Y40429D02*
Y44563D01*
X177942Y40429D02*
Y44563D01*
X200942Y40429D02*
Y44563D01*
X223942Y40429D02*
Y44563D01*
X246942Y40429D02*
Y44563D01*
X269942Y40429D02*
Y44563D01*
X292942Y40429D02*
Y44563D01*
X192095Y392828D02*
Y396961D01*
X207095Y392828D02*
Y396961D01*
X222095Y392828D02*
Y396961D01*
X237095Y392828D02*
Y396961D01*
X252095Y392828D02*
Y396961D01*
X267095Y392828D02*
Y396961D01*
X282095Y392828D02*
Y396961D01*
X297095Y392828D02*
Y396961D01*
X325542Y326329D02*
Y330463D01*
Y321429D02*
Y325563D01*
D20*
X347858Y220904D02*
Y246888D01*
X362425Y220904D02*
Y246888D01*
X347858D02*
X362425D01*
X347858Y220904D02*
X362425D01*
X336509Y33563D02*
Y54429D01*
X357375Y33563D02*
Y54429D01*
X336509D02*
X357375D01*
X336509Y33563D02*
X357375D01*
X57179Y82498D02*
X59935D01*
X57179Y70294D02*
X59935D01*
X57179D02*
Y82498D01*
X59935Y70294D02*
Y82498D01*
X351058Y141445D02*
Y172547D01*
X365625Y141445D02*
Y172547D01*
X351058D02*
X365625D01*
X351058Y141445D02*
X365625D01*
X-32800Y140698D02*
Y152902D01*
X-35800Y140698D02*
Y152902D01*
Y140698D02*
X-32800D01*
X-35800Y152902D02*
X-32800D01*
X333142Y157209D02*
Y169414D01*
X330142Y157209D02*
Y169414D01*
Y157209D02*
X333142D01*
X330142Y169414D02*
X333142D01*
X330142Y151598D02*
X333142D01*
X330142Y139394D02*
X333142D01*
X330142D02*
Y151598D01*
X333142Y139394D02*
Y151598D01*
X331442Y376794D02*
Y388998D01*
X328442Y376794D02*
Y388998D01*
Y376794D02*
X331442D01*
X328442Y388998D02*
X331442D01*
X348394Y207716D02*
X351395D01*
X348394Y195511D02*
X351395D01*
X348394D02*
Y207716D01*
X351395Y195511D02*
Y207716D01*
X364042Y70494D02*
Y82698D01*
X361042Y70494D02*
Y82698D01*
Y70494D02*
X364042D01*
X361042Y82698D02*
X364042D01*
X22242Y83498D02*
X25242D01*
X22242Y71294D02*
X25242D01*
X22242D02*
Y83498D01*
X25242Y71294D02*
Y83498D01*
X331442Y356894D02*
Y369098D01*
X328442Y356894D02*
Y369098D01*
Y356894D02*
X331442D01*
X328442Y369098D02*
X331442D01*
X134742Y377098D02*
X137742D01*
X134742Y364894D02*
X137742D01*
X134742D02*
Y377098D01*
X137742Y364894D02*
Y377098D01*
Y382894D02*
Y395098D01*
X134742Y382894D02*
Y395098D01*
Y382894D02*
X137742D01*
X134742Y395098D02*
X137742D01*
X157942Y344498D02*
X160942D01*
X157942Y332294D02*
X160942D01*
X157942D02*
Y344498D01*
X160942Y332294D02*
Y344498D01*
X347058Y360000D02*
X361625D01*
X347058Y391102D02*
X361625D01*
Y360000D02*
Y391102D01*
X347058Y360000D02*
Y391102D01*
X156758Y367004D02*
Y392988D01*
X171325Y367004D02*
Y392988D01*
X156758D02*
X171325D01*
X156758Y367004D02*
X171325D01*
D21*
X-14428Y60278D02*
X-13050D01*
X-14428D02*
Y95514D01*
X-13049D01*
X11793Y60278D02*
Y95514D01*
D22*
X329660Y122996D02*
X333542D01*
X329660Y132996D02*
X333542D01*
X329660Y307985D02*
X333542D01*
X329660Y297985D02*
X333542D01*
X458099Y263996D02*
Y383996D01*
X419599Y302496D02*
X539599D01*
X501099Y263996D02*
Y383996D01*
X419599Y345496D02*
X539599Y345496D01*
X304442Y34996D02*
Y56496D01*
X292442Y68496D02*
X304442Y56496D01*
X281442Y35996D02*
Y58496D01*
X272442Y67496D02*
X281442Y58496D01*
X258442Y35996D02*
Y62496D01*
X252442Y68496D02*
X258442Y62496D01*
X235442Y35996D02*
Y63496D01*
X232442Y66496D02*
X235442Y63496D01*
X189442D02*
X192442Y66496D01*
X189442Y35996D02*
Y63496D01*
X166442Y61496D02*
X172442Y67496D01*
X166442Y35996D02*
Y61496D01*
X143442Y59496D02*
X152442Y68496D01*
X143442Y35996D02*
Y59496D01*
X120442Y55996D02*
X132442Y67996D01*
X120442Y34996D02*
Y55996D01*
X264442Y363496D02*
X274442Y373496D01*
X264442Y350496D02*
Y363496D01*
X274442Y373496D02*
Y391996D01*
X204442Y349996D02*
Y357996D01*
X184442Y377996D02*
X204442Y357996D01*
X184442Y377996D02*
Y391996D01*
X304442Y377996D02*
Y391996D01*
X284442Y357996D02*
X304442Y377996D01*
X284442Y349996D02*
Y357996D01*
X199942Y374996D02*
X212942Y361996D01*
X199442Y375496D02*
Y391996D01*
X214442Y373496D02*
Y391996D01*
X229442Y372996D02*
Y391996D01*
X234442Y350496D02*
Y367996D01*
X224442Y350496D02*
Y363496D01*
X210942Y363996D02*
X214442Y360496D01*
Y350496D02*
Y360496D01*
Y373496D02*
X224442Y363496D01*
X229442Y372996D02*
X234442Y367996D01*
X254442D02*
X259442Y372996D01*
X274442Y350496D02*
Y360496D01*
X277942Y363996D01*
X254442Y350496D02*
Y367996D01*
X244442Y350496D02*
Y391996D01*
X259442Y372996D02*
Y391996D01*
X289442Y375496D02*
Y391996D01*
X275942Y361996D02*
X288942Y374996D01*
D23*
X307619Y3933D02*
Y409445D01*
X375984Y252996D02*
X543307D01*
X375042Y35795D02*
X375042Y409445D01*
X375984Y146996D02*
X543307D01*
X375042Y35795D02*
X543307Y35795D01*
X181242Y327685D02*
Y409445D01*
X115442Y4244D02*
Y103996D01*
D24*
X187248Y155371D02*
X184624D01*
X185936D01*
Y148812D01*
X184624Y147500D01*
X183312D01*
X182000Y148812D01*
X189872Y155371D02*
Y147500D01*
X195119D01*
X202991Y154060D02*
X201679Y155371D01*
X199055D01*
X197743Y154060D01*
Y148812D01*
X199055Y147500D01*
X201679D01*
X202991Y148812D01*
X210862Y155371D02*
X208238D01*
X209550D01*
Y148812D01*
X208238Y147500D01*
X206926D01*
X205614Y148812D01*
X213486Y155371D02*
Y147500D01*
X218734D01*
X226605Y154060D02*
X225293Y155371D01*
X222669D01*
X221357Y154060D01*
Y148812D01*
X222669Y147500D01*
X225293D01*
X226605Y148812D01*
X234476Y155371D02*
X231853D01*
X233165D01*
Y148812D01*
X231853Y147500D01*
X230541D01*
X229229Y148812D01*
X237100Y155371D02*
Y147500D01*
X242348D01*
X250219Y154060D02*
X248908Y155371D01*
X246284D01*
X244972Y154060D01*
Y148812D01*
X246284Y147500D01*
X248908D01*
X250219Y148812D01*
X258091Y155371D02*
X255467D01*
X256779D01*
Y148812D01*
X255467Y147500D01*
X254155D01*
X252843Y148812D01*
X260715Y155371D02*
Y147500D01*
X265962D01*
X273834Y154060D02*
X272522Y155371D01*
X269898D01*
X268586Y154060D01*
Y148812D01*
X269898Y147500D01*
X272522D01*
X273834Y148812D01*
D25*
X415599Y284996D02*
X409601D01*
Y287995D01*
X410601Y288995D01*
X412600D01*
X413600Y287995D01*
Y284996D01*
X409601Y294993D02*
Y290994D01*
X415599D01*
Y294993D01*
X412600Y290994D02*
Y292993D01*
X409601Y296992D02*
X415599D01*
Y299991D01*
X414600Y300991D01*
X410601D01*
X409601Y299991D01*
Y296992D01*
X410601Y309995D02*
X409601Y308995D01*
Y306996D01*
X410601Y305996D01*
X414600D01*
X415599Y306996D01*
Y308995D01*
X414600Y309995D01*
X415599Y311994D02*
X411600D01*
X409601Y313993D01*
X411600Y315993D01*
X415599D01*
X412600D01*
Y311994D01*
X415599Y317992D02*
X409601D01*
Y320991D01*
X410601Y321991D01*
X412600D01*
X413600Y320991D01*
Y317992D01*
Y319991D02*
X415599Y321991D01*
X409101Y327996D02*
X415099D01*
Y331995D01*
X409101Y333994D02*
Y335993D01*
Y334994D01*
X415099D01*
Y333994D01*
Y335993D01*
X410101Y342991D02*
X409101Y341991D01*
Y339992D01*
X410101Y338992D01*
X414100D01*
X415099Y339992D01*
Y341991D01*
X414100Y342991D01*
X412100D01*
Y340992D01*
X409101Y344990D02*
X415099D01*
X412100D01*
Y348989D01*
X409101D01*
X415099D01*
X409101Y350989D02*
Y354987D01*
Y352988D01*
X415099D01*
X410101Y360985D02*
X409101Y359986D01*
Y357986D01*
X410101Y356987D01*
X411100D01*
X412100Y357986D01*
Y359986D01*
X413100Y360985D01*
X414100D01*
X415099Y359986D01*
Y357986D01*
X414100Y356987D01*
X466594Y349746D02*
X460596D01*
X466594Y353745D01*
X460596D01*
X466594Y356744D02*
Y358743D01*
X465595Y359743D01*
X463595D01*
X462596Y358743D01*
Y356744D01*
X463595Y355744D01*
X465595D01*
X466594Y356744D01*
X462596Y361742D02*
X466594D01*
X464595D01*
X463595Y362742D01*
X462596Y363741D01*
Y364741D01*
X461596Y368740D02*
X462596D01*
Y367740D01*
Y369740D01*
Y368740D01*
X465595D01*
X466594Y369740D01*
X460596Y372739D02*
X466594D01*
X463595D01*
X462596Y373738D01*
Y375738D01*
X463595Y376737D01*
X466594D01*
X461596Y388733D02*
X460596Y387734D01*
Y385734D01*
X461596Y384735D01*
X462596D01*
X463595Y385734D01*
Y387734D01*
X464595Y388733D01*
X465595D01*
X466594Y387734D01*
Y385734D01*
X465595Y384735D01*
X461596Y391732D02*
X462596D01*
Y390733D01*
Y392732D01*
Y391732D01*
X465595D01*
X466594Y392732D01*
X509348Y342999D02*
X505349D01*
Y337001D01*
X509348D01*
X505349Y340000D02*
X507349D01*
X512347Y341000D02*
X514346D01*
X515346Y340000D01*
Y337001D01*
X512347D01*
X511347Y338000D01*
X512347Y339000D01*
X515346D01*
X517345Y337001D02*
X520344D01*
X521344Y338000D01*
X520344Y339000D01*
X518345D01*
X517345Y340000D01*
X518345Y341000D01*
X521344D01*
X524343Y341999D02*
Y341000D01*
X523343D01*
X525343D01*
X524343D01*
Y338000D01*
X525343Y337001D01*
X538339Y341999D02*
X537339Y342999D01*
X535339D01*
X534340Y341999D01*
Y341000D01*
X535339Y340000D01*
X537339D01*
X538339Y339000D01*
Y338000D01*
X537339Y337001D01*
X535339D01*
X534340Y338000D01*
X541338Y341999D02*
Y341000D01*
X540338D01*
X542337D01*
X541338D01*
Y338000D01*
X542337Y337001D01*
X389973Y27461D02*
X388640Y28793D01*
X385975D01*
X384642Y27461D01*
Y26128D01*
X385975Y24795D01*
X388640D01*
X389973Y23462D01*
Y22129D01*
X388640Y20796D01*
X385975D01*
X384642Y22129D01*
X392639Y26128D02*
Y22129D01*
X393972Y20796D01*
X395305Y22129D01*
X396638Y20796D01*
X397971Y22129D01*
Y26128D01*
X400636Y20796D02*
X403302D01*
X401969D01*
Y26128D01*
X400636D01*
X407301Y20796D02*
Y26128D01*
X411300D01*
X412633Y24795D01*
Y20796D01*
X415299Y28793D02*
Y20796D01*
X419297D01*
X420630Y22129D01*
Y23462D01*
Y24795D01*
X419297Y26128D01*
X415299D01*
X423296D02*
Y22129D01*
X424629Y20796D01*
X428627D01*
Y26128D01*
X431293D02*
Y20796D01*
Y23462D01*
X432626Y24795D01*
X433959Y26128D01*
X435292D01*
X439291Y20796D02*
Y26128D01*
X443289D01*
X444622Y24795D01*
Y20796D01*
X451287D02*
X448621D01*
X447288Y22129D01*
Y24795D01*
X448621Y26128D01*
X451287D01*
X452620Y24795D01*
Y23462D01*
X447288D01*
X463283Y28793D02*
Y22129D01*
X464616Y20796D01*
X467282D01*
X468614Y22129D01*
Y28793D01*
X471280Y20796D02*
Y26128D01*
X475279D01*
X476612Y24795D01*
Y20796D01*
X479278D02*
X481944D01*
X480611D01*
Y26128D01*
X479278D01*
X485942D02*
X488608Y20796D01*
X491274Y26128D01*
X497938Y20796D02*
X495273D01*
X493940Y22129D01*
Y24795D01*
X495273Y26128D01*
X497938D01*
X499271Y24795D01*
Y23462D01*
X493940D01*
X501937Y26128D02*
Y20796D01*
Y23462D01*
X503270Y24795D01*
X504603Y26128D01*
X505936D01*
X509935Y20796D02*
X513933D01*
X515266Y22129D01*
X513933Y23462D01*
X511267D01*
X509935Y24795D01*
X511267Y26128D01*
X515266D01*
X517932Y20796D02*
X520598D01*
X519265D01*
Y26128D01*
X517932D01*
X525929Y27461D02*
Y26128D01*
X524596D01*
X527262D01*
X525929D01*
Y22129D01*
X527262Y20796D01*
X531261Y26128D02*
Y22129D01*
X532594Y20796D01*
X536592D01*
Y19463D01*
X535260Y18130D01*
X533927D01*
X536592Y20796D02*
Y26128D01*
D26*
X439599Y220342D02*
Y227007D01*
X442932Y230339D01*
X446264Y227007D01*
Y220342D01*
Y225341D01*
X439599D01*
Y212339D02*
Y202343D01*
X444598D01*
X446264Y204009D01*
Y205675D01*
X444598Y207341D01*
X439599D01*
X444598D01*
X446264Y209007D01*
Y210673D01*
X444598Y212339D01*
X439599D01*
X446264Y193673D02*
X444598Y195339D01*
X441265D01*
X439599Y193673D01*
Y187009D01*
X441265Y185343D01*
X444598D01*
X446264Y187009D01*
X439599Y177339D02*
Y167342D01*
X444598D01*
X446264Y169009D01*
Y175673D01*
X444598Y177339D01*
X439599D01*
X408599Y100496D02*
Y107994D01*
X412348D01*
X413598Y106744D01*
Y104245D01*
X412348Y102995D01*
X408599D01*
X416097Y107994D02*
Y100496D01*
Y104245D01*
X421095D01*
Y107994D01*
Y100496D01*
X423594Y106744D02*
X424844Y107994D01*
X427343D01*
X428593Y106744D01*
Y101746D01*
X427343Y100496D01*
X424844D01*
X423594Y101746D01*
Y106744D01*
X408599Y90496D02*
Y97994D01*
X412348D01*
X413598Y96744D01*
Y94245D01*
X412348Y92995D01*
X408599D01*
X416097Y97994D02*
Y90496D01*
Y94245D01*
X421095D01*
Y97994D01*
Y90496D01*
X423594D02*
X426094D01*
X424844D01*
Y97994D01*
X423594Y96744D01*
X408599Y80496D02*
Y87994D01*
X412348D01*
X413598Y86744D01*
Y84245D01*
X412348Y82995D01*
X408599D01*
X416097Y87994D02*
Y80496D01*
Y84245D01*
X421095D01*
Y87994D01*
Y80496D01*
X428593D02*
X423594D01*
X428593Y85494D01*
Y86744D01*
X427343Y87994D01*
X424844D01*
X423594Y86744D01*
X408599Y70496D02*
Y77994D01*
X412348D01*
X413598Y76744D01*
Y74245D01*
X412348Y72995D01*
X408599D01*
X416097Y77994D02*
Y70496D01*
Y74245D01*
X421095D01*
Y77994D01*
Y70496D01*
X423594Y76744D02*
X424844Y77994D01*
X427343D01*
X428593Y76744D01*
Y75494D01*
X427343Y74245D01*
X426094D01*
X427343D01*
X428593Y72995D01*
Y71746D01*
X427343Y70496D01*
X424844D01*
X423594Y71746D01*
X294442Y385661D02*
X295775Y386993D01*
X298440D01*
X299773Y385661D01*
Y380329D01*
X298440Y378996D01*
X295775D01*
X294442Y380329D01*
Y385661D01*
X280942Y378996D02*
X283608D01*
X282275D01*
Y386993D01*
X280942Y385661D01*
X269773Y378996D02*
X264442D01*
X269773Y384328D01*
Y385661D01*
X268440Y386993D01*
X265775D01*
X264442Y385661D01*
X249442D02*
X250775Y386993D01*
X253440D01*
X254773Y385661D01*
Y384328D01*
X253440Y382995D01*
X252108D01*
X253440D01*
X254773Y381662D01*
Y380329D01*
X253440Y378996D01*
X250775D01*
X249442Y380329D01*
X238440Y378996D02*
Y386993D01*
X234442Y382995D01*
X239773D01*
X224773Y386993D02*
X219442D01*
Y382995D01*
X222108Y384328D01*
X223440D01*
X224773Y382995D01*
Y380329D01*
X223440Y378996D01*
X220775D01*
X219442Y380329D01*
X209773Y386993D02*
X207107Y385661D01*
X204442Y382995D01*
Y380329D01*
X205775Y378996D01*
X208440D01*
X209773Y380329D01*
Y381662D01*
X208440Y382995D01*
X204442D01*
X189942Y386993D02*
X195273D01*
Y385661D01*
X189942Y380329D01*
Y378996D01*
X129942Y59993D02*
X135274D01*
Y58661D01*
X129942Y53329D01*
Y51996D01*
X158274Y59993D02*
X155608Y58661D01*
X152942Y55995D01*
Y53329D01*
X154275Y51996D01*
X156941D01*
X158274Y53329D01*
Y54662D01*
X156941Y55995D01*
X152942D01*
X181274Y59993D02*
X175942D01*
Y55995D01*
X178608Y57328D01*
X179941D01*
X181274Y55995D01*
Y53329D01*
X179941Y51996D01*
X177275D01*
X175942Y53329D01*
X202941Y51996D02*
Y59993D01*
X198942Y55995D01*
X204274D01*
X221942Y58661D02*
X223275Y59993D01*
X225941D01*
X227274Y58661D01*
Y57328D01*
X225941Y55995D01*
X224608D01*
X225941D01*
X227274Y54662D01*
Y53329D01*
X225941Y51996D01*
X223275D01*
X221942Y53329D01*
X250274Y51996D02*
X244942D01*
X250274Y57328D01*
Y58661D01*
X248941Y59993D01*
X246275D01*
X244942Y58661D01*
X268942Y51996D02*
X271608D01*
X270275D01*
Y59993D01*
X268942Y58661D01*
X290942D02*
X292275Y59993D01*
X294941D01*
X296274Y58661D01*
Y53329D01*
X294941Y51996D01*
X292275D01*
X290942Y53329D01*
Y58661D01*
D27*
X46973Y46760D02*
X45640Y48093D01*
X42975D01*
X41642Y46760D01*
Y41429D01*
X42975Y40096D01*
X45640D01*
X46973Y41429D01*
Y44095D01*
X44308D01*
X49639Y40096D02*
Y45428D01*
X53638D01*
X54971Y44095D01*
Y40096D01*
X62968Y48093D02*
Y40096D01*
X58969D01*
X57636Y41429D01*
Y44095D01*
X58969Y45428D01*
X62968D01*
D28*
X119942Y383996D02*
D03*
D29*
X95442D02*
D03*
D30*
X64442Y388496D02*
D03*
M02*
