G04*
G04 #@! TF.GenerationSoftware,Altium Limited,Altium Designer,19.1.8 (144)*
G04*
G04 Layer_Color=32768*
%FSLAX25Y25*%
%MOIN*%
G70*
G01*
G75*
%ADD14C,0.01000*%
%ADD18C,0.00500*%
%ADD19C,0.00394*%
%ADD97C,0.00197*%
%ADD98C,0.00197*%
D14*
X477599Y323996D02*
X487599D01*
X482599Y318996D02*
Y328996D01*
X487099Y79496D02*
Y99496D01*
X477099Y89496D02*
X497099D01*
X389599Y197996D02*
X502599D01*
X386099Y323996D02*
X473599D01*
X400099Y89496D02*
X468599Y89496D01*
X124942Y66496D02*
X300942D01*
D18*
X7942Y350902D02*
Y356902D01*
X4942Y353902D02*
X10942D01*
X487599Y368996D02*
X493599D01*
X490599Y365996D02*
Y371996D01*
X507599Y294996D02*
X511599D01*
X509599Y292996D02*
Y296996D01*
X-45000Y268100D02*
X-41000D01*
X-43000Y266100D02*
Y270100D01*
X-44500Y290216D02*
X-40500D01*
X-42500Y288216D02*
Y292216D01*
X290942Y47417D02*
X294942D01*
X292942Y45417D02*
Y49417D01*
X269942Y45496D02*
Y49496D01*
X267942Y47496D02*
X271942D01*
X244942D02*
X248942D01*
X246942Y45496D02*
Y49496D01*
X223942Y45496D02*
Y49496D01*
X221942Y47496D02*
X225942D01*
X200942Y45496D02*
Y49496D01*
X198942Y47496D02*
X202942D01*
X175942D02*
X179942D01*
X177942Y45496D02*
Y49496D01*
X154942Y45496D02*
Y49496D01*
X152942Y47496D02*
X156942D01*
X129942D02*
X133942D01*
X131942Y45496D02*
Y49496D01*
X93242Y78581D02*
X97242D01*
X95242Y76581D02*
Y80581D01*
X133142Y341996D02*
X137142D01*
X135142Y339996D02*
Y343996D01*
X504599Y292996D02*
Y296996D01*
X502599Y294996D02*
X506599D01*
X508599Y346996D02*
Y350996D01*
X506599Y348996D02*
X510599D01*
X505099Y195996D02*
Y199996D01*
X503099Y197996D02*
X507099D01*
X483099Y217996D02*
X487099D01*
X485099Y215996D02*
Y219996D01*
X525099Y175996D02*
Y179996D01*
X523099Y177996D02*
X527099D01*
X523099Y217996D02*
X527099D01*
X525099Y215996D02*
Y219996D01*
X485099Y175996D02*
Y179996D01*
X483099Y177996D02*
X487099D01*
X483099Y197996D02*
X487099D01*
X485099Y195996D02*
Y199996D01*
X525099Y195996D02*
Y199996D01*
X523099Y197996D02*
X527099D01*
X295095Y399894D02*
X299095D01*
X297095Y397895D02*
Y401895D01*
X282095Y397895D02*
Y401895D01*
X280095Y399894D02*
X284095D01*
X265095D02*
X269095D01*
X267095Y397895D02*
Y401895D01*
X252095Y397895D02*
Y401895D01*
X250095Y399894D02*
X254095D01*
X235095D02*
X239095D01*
X237095Y397895D02*
Y401895D01*
X222095Y397895D02*
Y401895D01*
X220095Y399894D02*
X224095D01*
X205095D02*
X209095D01*
X207095Y397895D02*
Y401895D01*
X192095Y397895D02*
Y401895D01*
X190095Y399894D02*
X194095D01*
X487099Y127096D02*
Y131096D01*
X485099Y129096D02*
X489099D01*
X466367Y123005D02*
X469831Y125005D01*
X467099Y125737D02*
X469099Y122273D01*
X452458Y111096D02*
X455922Y109096D01*
X453190Y108364D02*
X455190Y111828D01*
X449099Y89096D02*
Y93096D01*
X447099Y91096D02*
X451099D01*
X452458Y69496D02*
X455922Y71496D01*
X453190Y72228D02*
X455190Y68764D01*
X466367Y59187D02*
X469831Y57187D01*
X467099Y56455D02*
X469099Y59919D01*
X487099Y51096D02*
Y55096D01*
X485099Y53096D02*
X489099D01*
X504367Y57187D02*
X507831Y59187D01*
X505099Y59919D02*
X507099Y56455D01*
X518276Y73096D02*
X521740Y71096D01*
X519008Y70364D02*
X521008Y73828D01*
X525099Y89096D02*
Y93096D01*
X523099Y91096D02*
X527099D01*
X518276Y109096D02*
X521740Y111096D01*
X519008Y111828D02*
X521008Y108364D01*
X504367Y125005D02*
X507831Y123005D01*
X505099Y122273D02*
X507099Y125737D01*
X4942Y378996D02*
X10942D01*
X7942Y375996D02*
Y381996D01*
X433599Y362996D02*
X439599D01*
X436599Y359996D02*
Y365996D01*
X440599Y277996D02*
Y283996D01*
X437599Y280996D02*
X443599D01*
X521599Y312996D02*
X527599D01*
X524599Y309996D02*
Y315996D01*
X131942Y15996D02*
Y21996D01*
X128942Y18996D02*
X134942D01*
X154942Y15996D02*
Y21996D01*
X151942Y18996D02*
X157942D01*
X177942Y15996D02*
Y21996D01*
X174942Y18996D02*
X180942D01*
X200942Y15996D02*
Y21996D01*
X197942Y18996D02*
X203942D01*
X223942Y15996D02*
Y21996D01*
X220942Y18996D02*
X226942D01*
X246942Y15996D02*
Y21996D01*
X243942Y18996D02*
X249942D01*
X269942Y15996D02*
Y21996D01*
X266942Y18996D02*
X272942D01*
X292942Y15996D02*
Y21996D01*
X289942Y18996D02*
X295942D01*
X95242Y48896D02*
Y54896D01*
X92242Y51896D02*
X98242D01*
X508599Y351996D02*
Y355996D01*
X506599Y353996D02*
X510599D01*
X436099Y303996D02*
Y307996D01*
X434099Y305996D02*
X438099D01*
X497599Y278496D02*
Y282496D01*
X495599Y280496D02*
X499599D01*
X508599Y356996D02*
Y360996D01*
X506599Y358996D02*
X510599D01*
X514599Y292996D02*
Y296996D01*
X512599Y294996D02*
X516599D01*
D19*
X353173Y233896D02*
X357110D01*
X355142Y231927D02*
Y235864D01*
X351673Y234396D02*
X355610D01*
X353642Y232428D02*
Y236365D01*
X352173Y233896D02*
X356110D01*
X354142Y231927D02*
Y235864D01*
X-6258Y75928D02*
Y79865D01*
X-8227Y77896D02*
X-4290D01*
X324698Y21752D02*
Y66240D01*
X369186Y21752D02*
Y66240D01*
X324698D02*
X369186D01*
X324698Y21752D02*
X369186D01*
X344973Y43996D02*
X348910D01*
X346942Y42028D02*
Y45965D01*
X56588Y76396D02*
X60525D01*
X58557Y74427D02*
Y78364D01*
X356373Y156996D02*
X360310D01*
X358342Y155027D02*
Y158965D01*
X-34300Y144832D02*
Y148768D01*
X-36268Y146800D02*
X-32331D01*
X-42174Y139713D02*
X-26426D01*
X-42174Y153887D02*
X-26426Y153887D01*
X-26426Y139713D02*
X-26426Y153887D01*
X-42174Y139713D02*
Y153887D01*
X384133Y117200D02*
X388070D01*
X386101Y115232D02*
Y119168D01*
X189342Y336328D02*
Y340265D01*
X187373Y338296D02*
X191310D01*
X187373Y352996D02*
X191310D01*
X189342Y351027D02*
Y354964D01*
X78260Y387337D02*
Y391274D01*
X76291Y389305D02*
X80228D01*
X76291Y370749D02*
X80228D01*
X78260Y368780D02*
Y372717D01*
X315442Y160528D02*
Y164464D01*
X313473Y162496D02*
X317410D01*
X313473Y145996D02*
X317410D01*
X315442Y144027D02*
Y147965D01*
X366842Y302028D02*
Y305964D01*
X364873Y303996D02*
X368810D01*
X330973Y238496D02*
X334910D01*
X332942Y236527D02*
Y240464D01*
X366442Y197028D02*
Y200964D01*
X364473Y198996D02*
X368410D01*
X352573Y91996D02*
X356510D01*
X354542Y90027D02*
Y93964D01*
X366842Y321528D02*
Y325465D01*
X364873Y323496D02*
X368810D01*
X407332Y117200D02*
X411269D01*
X409300Y115232D02*
Y119168D01*
X384800Y50032D02*
Y53969D01*
X382832Y52000D02*
X386769D01*
X458931Y206595D02*
X462868D01*
X460899Y204627D02*
Y208564D01*
Y187627D02*
Y191564D01*
X458931Y189595D02*
X462868D01*
X364873Y343996D02*
X368810D01*
X366842Y342027D02*
Y345965D01*
X367495Y90046D02*
Y93983D01*
X365527Y92014D02*
X369464D01*
X331642Y161343D02*
Y165280D01*
X329673Y163312D02*
X333610D01*
X323768Y156225D02*
X339516D01*
X323768Y170398D02*
X339516D01*
Y156225D02*
Y170398D01*
X323768Y156225D02*
Y170398D01*
X323768Y138409D02*
Y152583D01*
X339516Y138409D02*
Y152583D01*
X323768D02*
X339516D01*
X323768Y138409D02*
X339516D01*
X329673Y145496D02*
X333610D01*
X331642Y143527D02*
Y147465D01*
X329942Y380927D02*
Y384864D01*
X327973Y382896D02*
X331910D01*
X322068Y375809D02*
X337816D01*
X322068Y389983D02*
X337816D01*
Y375809D02*
Y389983D01*
X322068Y375809D02*
Y389983D01*
X342021Y194527D02*
Y208700D01*
X357769Y194527D02*
Y208700D01*
X342021D02*
X357769D01*
X342021Y194527D02*
X357769D01*
X347926Y201613D02*
X351863D01*
X349894Y199645D02*
Y203582D01*
X362542Y74628D02*
Y78565D01*
X360573Y76596D02*
X364510D01*
X354668Y69509D02*
X370416D01*
X354668Y83683D02*
X370416D01*
Y69509D02*
Y83683D01*
X354668Y69509D02*
Y83683D01*
X15868Y70309D02*
Y84483D01*
X31616Y70309D02*
Y84483D01*
X15868D02*
X31616D01*
X15868Y70309D02*
X31616D01*
X21773Y77396D02*
X25710D01*
X23742Y75428D02*
Y79365D01*
X329942Y361028D02*
Y364965D01*
X327973Y362996D02*
X331910D01*
X322068Y355909D02*
X337816D01*
X322068Y370083D02*
X337816D01*
Y355909D02*
Y370083D01*
X322068Y355909D02*
Y370083D01*
X128368Y363909D02*
Y378083D01*
X144116Y363909D02*
Y378083D01*
X128368D02*
X144116D01*
X128368Y363909D02*
X144116D01*
X134273Y370996D02*
X138210D01*
X136242Y369027D02*
Y372965D01*
Y387028D02*
Y390965D01*
X134273Y388996D02*
X138210D01*
X128368Y381909D02*
X144116D01*
X128368Y396083D02*
X144116D01*
Y381909D02*
Y396083D01*
X128368Y381909D02*
Y396083D01*
X151568Y331309D02*
Y345483D01*
X167316Y331309D02*
Y345483D01*
X151568D02*
X167316D01*
X151568Y331309D02*
X167316D01*
X157473Y338396D02*
X161410D01*
X159442Y336427D02*
Y340365D01*
X354342Y373583D02*
Y377520D01*
X352373Y375551D02*
X356310D01*
X162073Y379996D02*
X166010D01*
X164042Y378028D02*
Y381964D01*
X160573Y380496D02*
X164510D01*
X162542Y378527D02*
Y382465D01*
X161073Y379996D02*
X165010D01*
X163042Y378028D02*
Y381964D01*
D97*
X339787Y219920D02*
Y247872D01*
X370496Y219920D02*
Y247872D01*
X339787D02*
X370496D01*
X339787Y219920D02*
X370496D01*
X338287Y220420D02*
Y248372D01*
X368996Y220420D02*
Y248372D01*
X338287D02*
X368996D01*
X338287Y220420D02*
X368996D01*
X340165Y220510D02*
Y247282D01*
X368118Y220510D02*
Y247282D01*
X340165D02*
X368118D01*
X340165Y220510D02*
X368118D01*
X65446Y69900D02*
Y82892D01*
X51667Y69900D02*
Y82892D01*
Y69900D02*
X65446D01*
X51667Y82892D02*
X65446D01*
X342987Y140461D02*
Y173531D01*
X373696Y140461D02*
Y173531D01*
X342987D02*
X373696D01*
X342987Y140461D02*
X373696D01*
X380826Y110113D02*
Y124287D01*
X391377Y110113D02*
Y124287D01*
X380826D02*
X391377D01*
X380826Y110113D02*
X391377D01*
X184066Y331209D02*
X194617D01*
X184066Y345383D02*
X194617D01*
Y331209D02*
Y345383D01*
X184066Y331209D02*
Y345383D01*
Y345909D02*
Y360083D01*
X194617Y345909D02*
Y360083D01*
X184066D02*
X194617D01*
X184066Y345909D02*
X194617D01*
X72984Y382219D02*
X83535D01*
X72984Y396392D02*
X83535D01*
Y382219D02*
Y396392D01*
X72984Y382219D02*
Y396392D01*
X72984Y363662D02*
Y377835D01*
X83535Y363662D02*
Y377835D01*
X72984D02*
X83535D01*
X72984Y363662D02*
X83535D01*
X310166Y155409D02*
X320717D01*
X310166Y169583D02*
X320717D01*
Y155409D02*
Y169583D01*
X310166Y155409D02*
Y169583D01*
Y138909D02*
Y153083D01*
X320717Y138909D02*
Y153083D01*
X310166D02*
X320717D01*
X310166Y138909D02*
X320717D01*
X361566Y296909D02*
X372117D01*
X361566Y311083D02*
X372117D01*
Y296909D02*
Y311083D01*
X361566Y296909D02*
Y311083D01*
X327666Y231409D02*
Y245583D01*
X338217Y231409D02*
Y245583D01*
X327666D02*
X338217D01*
X327666Y231409D02*
X338217D01*
X361166Y191909D02*
X371717D01*
X361166Y206083D02*
X371717D01*
Y191909D02*
Y206083D01*
X361166Y191909D02*
Y206083D01*
X349266Y84909D02*
Y99083D01*
X359817Y84909D02*
Y99083D01*
X349266D02*
X359817D01*
X349266Y84909D02*
X359817D01*
X361566Y316409D02*
X372117D01*
X361566Y330583D02*
X372117D01*
Y316409D02*
Y330583D01*
X361566Y316409D02*
Y330583D01*
X404024Y110113D02*
Y124287D01*
X414576Y110113D02*
Y124287D01*
X404024D02*
X414576D01*
X404024Y110113D02*
X414576D01*
X379524Y44913D02*
X390076D01*
X379524Y59087D02*
X390076D01*
Y44913D02*
Y59087D01*
X379524Y44913D02*
Y59087D01*
X455624Y199509D02*
Y213682D01*
X466175Y199509D02*
Y213682D01*
X455624D02*
X466175D01*
X455624Y199509D02*
X466175D01*
X455624Y182509D02*
X466175D01*
X455624Y196682D02*
X466175D01*
Y182509D02*
Y196682D01*
X455624Y182509D02*
Y196682D01*
X361566Y336909D02*
Y351083D01*
X372117Y336909D02*
Y351083D01*
X361566D02*
X372117D01*
X361566Y336909D02*
X372117D01*
X362220Y84927D02*
X372771D01*
X362220Y99101D02*
X372771D01*
Y84927D02*
Y99101D01*
X362220Y84927D02*
Y99101D01*
X338987Y359016D02*
X369696D01*
X338987Y392087D02*
X369696D01*
Y359016D02*
Y392087D01*
X338987Y359016D02*
Y392087D01*
X148687Y366020D02*
Y393972D01*
X179396Y366020D02*
Y393972D01*
X148687D02*
X179396D01*
X148687Y366020D02*
X179396D01*
X147187Y366520D02*
Y394472D01*
X177896Y366520D02*
Y394472D01*
X147187D02*
X177896D01*
X147187Y366520D02*
X177896D01*
X149065Y366610D02*
Y393382D01*
X177018Y366610D02*
Y393382D01*
X149065D02*
X177018D01*
X149065Y366610D02*
X177018D01*
D98*
X-25254Y57620D02*
X12738D01*
X-25254Y97975D02*
X12738D01*
Y57620D02*
Y97975D01*
X-25254Y57620D02*
Y97975D01*
M02*
