G04*
G04 #@! TF.GenerationSoftware,Altium Limited,Altium Designer,19.1.8 (144)*
G04*
G04 Layer_Color=16711935*
%FSLAX25Y25*%
%MOIN*%
G70*
G01*
G75*
%ADD14C,0.01000*%
D14*
X-23622Y110126D02*
X-23689Y111154D01*
X-23890Y112164D01*
X-24221Y113139D01*
X-24677Y114063D01*
X-25249Y114919D01*
X-25928Y115694D01*
X-26703Y116373D01*
X-27559Y116945D01*
X-28483Y117401D01*
X-29458Y117732D01*
X-30468Y117932D01*
X-31496Y118000D01*
X-62992Y125874D02*
X-62925Y124846D01*
X-62724Y123836D01*
X-62393Y122861D01*
X-61937Y121937D01*
X-61365Y121081D01*
X-60686Y120306D01*
X-59912Y119627D01*
X-59055Y119055D01*
X-58131Y118599D01*
X-57156Y118268D01*
X-56146Y118067D01*
X-55118Y118000D01*
Y312992D02*
X-56146Y312925D01*
X-57156Y312724D01*
X-58131Y312393D01*
X-59055Y311937D01*
X-59912Y311365D01*
X-60686Y310686D01*
X-61365Y309911D01*
X-61937Y309055D01*
X-62393Y308131D01*
X-62724Y307156D01*
X-62925Y306146D01*
X-62992Y305118D01*
X-31496Y312992D02*
X-30468Y313059D01*
X-29458Y313260D01*
X-28483Y313592D01*
X-27559Y314047D01*
X-26703Y314619D01*
X-25928Y315298D01*
X-25249Y316073D01*
X-24677Y316929D01*
X-24221Y317853D01*
X-23890Y318828D01*
X-23689Y319838D01*
X-23622Y320866D01*
X547244Y389759D02*
X547223Y390761D01*
X547159Y391762D01*
X547053Y392759D01*
X546904Y393751D01*
X546714Y394736D01*
X546482Y395711D01*
X546209Y396676D01*
X545895Y397628D01*
X545541Y398567D01*
X545147Y399489D01*
X544715Y400394D01*
X544244Y401279D01*
X543737Y402144D01*
X543193Y402987D01*
X542614Y403805D01*
X542001Y404599D01*
X541355Y405366D01*
X540676Y406104D01*
X539967Y406813D01*
X539228Y407491D01*
X538462Y408138D01*
X537669Y408751D01*
X536850Y409330D01*
X536007Y409874D01*
X535142Y410381D01*
X534257Y410852D01*
X533352Y411284D01*
X532430Y411678D01*
X531492Y412032D01*
X530539Y412346D01*
X529574Y412619D01*
X528599Y412851D01*
X527614Y413041D01*
X526622Y413190D01*
X525625Y413296D01*
X524625Y413360D01*
X523622Y413381D01*
Y-0D02*
X524625Y21D01*
X525625Y85D01*
X526622Y191D01*
X527614Y340D01*
X528599Y530D01*
X529574Y762D01*
X530539Y1035D01*
X531492Y1349D01*
X532430Y1703D01*
X533352Y2097D01*
X534257Y2529D01*
X535142Y3000D01*
X536007Y3507D01*
X536850Y4051D01*
X537669Y4630D01*
X538462Y5243D01*
X539228Y5890D01*
X539967Y6568D01*
X540676Y7277D01*
X541355Y8016D01*
X542001Y8782D01*
X542614Y9576D01*
X543193Y10394D01*
X543737Y11237D01*
X544244Y12102D01*
X544715Y12987D01*
X545147Y13892D01*
X545541Y14814D01*
X545895Y15753D01*
X546209Y16705D01*
X546482Y17670D01*
X546714Y18645D01*
X546904Y19630D01*
X547053Y20622D01*
X547159Y21619D01*
X547223Y22619D01*
X547244Y23622D01*
X-23622Y23622D02*
X-23601Y22619D01*
X-23537Y21619D01*
X-23431Y20622D01*
X-23282Y19630D01*
X-23092Y18645D01*
X-22860Y17670D01*
X-22587Y16705D01*
X-22273Y15753D01*
X-21919Y14814D01*
X-21525Y13892D01*
X-21093Y12987D01*
X-20622Y12102D01*
X-20115Y11237D01*
X-19571Y10394D01*
X-18992Y9576D01*
X-18379Y8782D01*
X-17732Y8016D01*
X-17054Y7277D01*
X-16345Y6568D01*
X-15607Y5890D01*
X-14840Y5243D01*
X-14046Y4630D01*
X-13228Y4051D01*
X-12385Y3507D01*
X-11520Y3000D01*
X-10635Y2529D01*
X-9730Y2097D01*
X-8808Y1703D01*
X-7869Y1349D01*
X-6917Y1035D01*
X-5952Y762D01*
X-4977Y530D01*
X-3992Y340D01*
X-3000Y191D01*
X-2003Y85D01*
X-1003Y21D01*
X0Y0D01*
Y413386D02*
X-1003Y413365D01*
X-2003Y413301D01*
X-3000Y413195D01*
X-3992Y413046D01*
X-4977Y412856D01*
X-5952Y412624D01*
X-6917Y412350D01*
X-7869Y412037D01*
X-8808Y411682D01*
X-9730Y411289D01*
X-10635Y410856D01*
X-11520Y410386D01*
X-12385Y409879D01*
X-13228Y409335D01*
X-14047Y408756D01*
X-14840Y408143D01*
X-15607Y407496D01*
X-16345Y406818D01*
X-17054Y406109D01*
X-17732Y405370D01*
X-18379Y404604D01*
X-18992Y403810D01*
X-19571Y402991D01*
X-20115Y402149D01*
X-20622Y401284D01*
X-21093Y400398D01*
X-21525Y399494D01*
X-21919Y398571D01*
X-22273Y397633D01*
X-22587Y396681D01*
X-22860Y395716D01*
X-23092Y394740D01*
X-23282Y393756D01*
X-23431Y392764D01*
X-23537Y391767D01*
X-23601Y390766D01*
X-23622Y389764D01*
X-55118Y118000D02*
X-31496D01*
X-62992Y305118D02*
X-62992Y125874D01*
X-23622Y23622D02*
Y110126D01*
X-55118Y312992D02*
X-31496D01*
X-23622Y320866D02*
Y389764D01*
X0Y413386D02*
X523622Y413386D01*
X0Y0D02*
X523622Y-0D01*
X547244Y23622D02*
Y389759D01*
M02*
