G04*
G04 #@! TF.GenerationSoftware,Altium Limited,Altium Designer,19.1.8 (144)*
G04*
G04 Layer_Color=255*
%FSLAX25Y25*%
%MOIN*%
G70*
G01*
G75*
%ADD31C,0.03937*%
%ADD83O,0.06693X0.03543*%
%ADD84O,0.09449X0.03543*%
%ADD85O,0.02559X0.02441*%
%ADD86C,0.05906*%
%ADD87R,0.05906X0.05906*%
%ADD88C,0.06000*%
%ADD89R,0.05906X0.05906*%
%ADD90C,0.05906*%
%ADD91C,0.05512*%
%ADD92C,0.07874*%
D31*
X316842Y10996D02*
D03*
X346842D02*
D03*
D83*
X-7577Y94924D02*
D03*
Y60868D02*
D03*
D84*
X5730D02*
D03*
Y94924D02*
D03*
D85*
X4274Y89609D02*
D03*
Y86262D02*
D03*
Y82916D02*
D03*
Y79569D02*
D03*
Y76223D02*
D03*
Y72876D02*
D03*
Y69530D02*
D03*
Y66183D02*
D03*
X9588D02*
D03*
Y69530D02*
D03*
Y72876D02*
D03*
Y76223D02*
D03*
Y79569D02*
D03*
Y82916D02*
D03*
Y86262D02*
D03*
Y89609D02*
D03*
D86*
X91442Y335996D02*
D03*
Y345996D02*
D03*
X101442Y335996D02*
D03*
Y345996D02*
D03*
X111442Y335996D02*
D03*
X324942Y297996D02*
D03*
X314942D02*
D03*
X324942Y307996D02*
D03*
X381599Y74496D02*
D03*
X391599Y84496D02*
D03*
X381599D02*
D03*
X391599Y94496D02*
D03*
X381599D02*
D03*
X391599Y104496D02*
D03*
X381599D02*
D03*
X391599Y328996D02*
D03*
X381599D02*
D03*
Y318996D02*
D03*
X391599D02*
D03*
X381599Y308996D02*
D03*
X391599D02*
D03*
X381599Y298996D02*
D03*
X391599D02*
D03*
X381599Y288996D02*
D03*
X-33433Y200496D02*
D03*
Y210496D02*
D03*
Y220496D02*
D03*
Y230496D02*
D03*
Y240496D02*
D03*
X324942Y132996D02*
D03*
X314942Y122996D02*
D03*
X324942D02*
D03*
X381599Y212996D02*
D03*
X391599D02*
D03*
X381599Y202996D02*
D03*
X391599D02*
D03*
X381599Y192996D02*
D03*
X391599D02*
D03*
X381599Y182996D02*
D03*
X247442Y92996D02*
D03*
Y82996D02*
D03*
X257442D02*
D03*
Y92996D02*
D03*
X267442Y82996D02*
D03*
Y92996D02*
D03*
X277442Y82996D02*
D03*
Y92996D02*
D03*
X287442Y82996D02*
D03*
X207442D02*
D03*
X197442Y92996D02*
D03*
Y82996D02*
D03*
X187442Y92996D02*
D03*
Y82996D02*
D03*
X177442Y92996D02*
D03*
Y82996D02*
D03*
X167442D02*
D03*
Y92996D02*
D03*
X239442Y345996D02*
D03*
Y335996D02*
D03*
X249442D02*
D03*
Y345996D02*
D03*
X259442Y335996D02*
D03*
Y345996D02*
D03*
X269442Y335996D02*
D03*
Y345996D02*
D03*
X279442Y335996D02*
D03*
D87*
X111442Y345996D02*
D03*
X287442Y92996D02*
D03*
X207442D02*
D03*
X279442Y345996D02*
D03*
D88*
X34442Y398996D02*
D03*
Y388996D02*
D03*
Y378996D02*
D03*
Y368996D02*
D03*
D89*
X314942Y307996D02*
D03*
X391599Y74496D02*
D03*
Y288996D02*
D03*
X-33433Y190496D02*
D03*
X314942Y132996D02*
D03*
X391599Y182996D02*
D03*
D90*
X381599Y358996D02*
D03*
X391599D02*
D03*
X381599Y338996D02*
D03*
X391599D02*
D03*
Y348996D02*
D03*
X381599D02*
D03*
X217442Y82996D02*
D03*
Y92996D02*
D03*
X237442Y82996D02*
D03*
Y92996D02*
D03*
X227442D02*
D03*
Y82996D02*
D03*
X147442D02*
D03*
Y92996D02*
D03*
X157442D02*
D03*
Y82996D02*
D03*
X137442Y92996D02*
D03*
Y82996D02*
D03*
X209442Y335996D02*
D03*
Y345996D02*
D03*
X229442Y335996D02*
D03*
Y345996D02*
D03*
X219442D02*
D03*
Y335996D02*
D03*
D91*
X47742Y93396D02*
D03*
X73242Y61896D02*
D03*
Y93896D02*
D03*
X350233Y264000D02*
D03*
X321442D02*
D03*
X336442D02*
D03*
D92*
X52342Y18496D02*
D03*
M02*
