G04*
G04 #@! TF.GenerationSoftware,Altium Limited,Altium Designer,19.1.8 (144)*
G04*
G04 Layer_Color=16711935*
%FSLAX25Y25*%
%MOIN*%
G70*
G01*
G75*
%ADD19C,0.00394*%
%ADD96C,0.00394*%
D19*
X351795Y243345D02*
X351532Y244329D01*
X350811Y245050D01*
X349827Y245313D01*
X348843Y245050D01*
X348122Y244329D01*
X347858Y243345D01*
X348122Y242361D01*
X348843Y241640D01*
X349827Y241376D01*
X350811Y241640D01*
X351532Y242361D01*
X351795Y243345D01*
X350295Y243845D02*
X350032Y244829D01*
X349311Y245550D01*
X348327Y245813D01*
X347342Y245550D01*
X346622Y244829D01*
X346358Y243845D01*
X346622Y242861D01*
X347342Y242140D01*
X348327Y241876D01*
X349311Y242140D01*
X350032Y242861D01*
X350295Y243845D01*
X350795Y243345D02*
X350532Y244329D01*
X349811Y245050D01*
X348827Y245313D01*
X347843Y245050D01*
X347122Y244329D01*
X346858Y243345D01*
X347122Y242360D01*
X347843Y241640D01*
X348827Y241376D01*
X349811Y241640D01*
X350532Y242360D01*
X350795Y243345D01*
X338674Y54232D02*
X338410Y55216D01*
X337690Y55937D01*
X336705Y56201D01*
X335721Y55937D01*
X335001Y55216D01*
X334737Y54232D01*
X335001Y53248D01*
X335721Y52527D01*
X336705Y52264D01*
X337690Y52527D01*
X338410Y53248D01*
X338674Y54232D01*
X354995Y169004D02*
X354731Y169988D01*
X354011Y170709D01*
X353027Y170972D01*
X352043Y170709D01*
X351322Y169988D01*
X351058Y169004D01*
X351322Y168020D01*
X352043Y167299D01*
X353027Y167035D01*
X354011Y167299D01*
X354731Y168020D01*
X354995Y169004D01*
X350995Y387559D02*
X350731Y388543D01*
X350011Y389264D01*
X349027Y389528D01*
X348042Y389264D01*
X347322Y388543D01*
X347058Y387559D01*
X347322Y386575D01*
X348042Y385854D01*
X349027Y385591D01*
X350011Y385854D01*
X350731Y386575D01*
X350995Y387559D01*
X160695Y389445D02*
X160432Y390429D01*
X159711Y391150D01*
X158727Y391413D01*
X157743Y391150D01*
X157022Y390429D01*
X156758Y389445D01*
X157022Y388461D01*
X157743Y387740D01*
X158727Y387476D01*
X159711Y387740D01*
X160432Y388461D01*
X160695Y389445D01*
X159195Y389945D02*
X158932Y390929D01*
X158211Y391650D01*
X157227Y391913D01*
X156243Y391650D01*
X155522Y390929D01*
X155258Y389945D01*
X155522Y388961D01*
X156243Y388240D01*
X157227Y387976D01*
X158211Y388240D01*
X158932Y388961D01*
X159195Y389945D01*
X159695Y389445D02*
X159432Y390429D01*
X158711Y391150D01*
X157727Y391413D01*
X156743Y391150D01*
X156022Y390429D01*
X155758Y389445D01*
X156022Y388460D01*
X156743Y387740D01*
X157727Y387476D01*
X158711Y387740D01*
X159432Y388460D01*
X159695Y389445D01*
X346284Y220904D02*
Y246888D01*
X364000Y220904D02*
Y246888D01*
X346284D02*
X364000D01*
X346284Y220904D02*
X364000D01*
X344783Y221404D02*
Y247388D01*
X362500Y221404D02*
Y247388D01*
X344783D02*
X362500D01*
X344783Y221404D02*
X362500D01*
X345284Y220904D02*
Y246888D01*
X363000Y220904D02*
Y246888D01*
X345284D02*
X363000D01*
X345284Y220904D02*
X363000D01*
X333162Y30216D02*
Y57775D01*
X360721Y30216D02*
Y57775D01*
X333162D02*
X360721D01*
X333162Y30216D02*
X360721D01*
X62100Y70294D02*
Y82498D01*
X55013Y70294D02*
Y82498D01*
Y70294D02*
X62100D01*
X55013Y82498D02*
X62100D01*
X349483Y141445D02*
Y172547D01*
X367200Y141445D02*
Y172547D01*
X349483D02*
X367200D01*
X349483Y141445D02*
X367200D01*
X-37843Y140698D02*
X-30757D01*
X-37843Y152902D02*
X-30757D01*
Y140698D02*
Y152902D01*
X-37843Y140698D02*
Y152902D01*
X382656Y123893D02*
X389546D01*
X382656Y120743D02*
Y123893D01*
Y120743D02*
X384822D01*
Y119956D02*
Y120743D01*
X382656Y119956D02*
X384822D01*
X382656Y117594D02*
Y119956D01*
Y117594D02*
X384822D01*
Y116806D02*
Y117594D01*
X382656Y116806D02*
X384822D01*
X382656Y114444D02*
Y116806D01*
Y114444D02*
X384822D01*
X384822Y113657D01*
X382656D02*
X384822D01*
X382656Y110507D02*
Y113657D01*
X382656Y110507D02*
X389546D01*
Y120743D02*
Y123893D01*
X387381Y120743D02*
X389546D01*
X387381Y119956D02*
Y120743D01*
Y119956D02*
X389546D01*
Y117594D02*
Y119956D01*
X387381Y117594D02*
X389546D01*
X387381Y116806D02*
Y117594D01*
Y116806D02*
X389546D01*
Y114444D02*
Y116806D01*
X387381Y114444D02*
X389546D01*
X387381Y113657D02*
Y114444D01*
Y113657D02*
X389546D01*
Y110507D02*
Y113657D01*
X192787Y331603D02*
Y334753D01*
X190621D02*
X192787D01*
X190621D02*
Y335540D01*
X192787D01*
Y337902D01*
X190621D02*
X192787D01*
X190621D02*
Y338690D01*
X192787D01*
Y341052D01*
X190621D02*
X192787D01*
X190621D02*
Y341839D01*
X192787D01*
Y344989D01*
X185897Y331603D02*
X192787D01*
X185897D02*
Y334753D01*
X188062D01*
X188062Y335540D02*
X188062Y334753D01*
X185897Y335540D02*
X188062D01*
X185897D02*
Y337902D01*
X188062D01*
Y338690D01*
X185897D02*
X188062D01*
X185897D02*
Y341052D01*
X188062D01*
Y341839D01*
X185897D02*
X188062D01*
X185897D02*
Y344989D01*
X185897D02*
X192787D01*
X185897Y359689D02*
X192787D01*
X185897Y356539D02*
Y359689D01*
Y356539D02*
X188062D01*
Y355752D02*
Y356539D01*
X185897Y355752D02*
X188062D01*
X185897Y353390D02*
Y355752D01*
Y353390D02*
X188062D01*
Y352602D02*
Y353390D01*
X185897Y352602D02*
X188062D01*
X185897Y350240D02*
Y352602D01*
Y350240D02*
X188062D01*
X188062Y349453D01*
X185897D02*
X188062D01*
X185897Y346303D02*
Y349453D01*
X185897Y346303D02*
X192787D01*
Y356539D02*
Y359689D01*
X190621Y356539D02*
X192787D01*
X190621Y355752D02*
Y356539D01*
Y355752D02*
X192787D01*
Y353390D02*
Y355752D01*
X190621Y353390D02*
X192787D01*
X190621Y352602D02*
Y353390D01*
Y352602D02*
X192787D01*
Y350240D02*
Y352602D01*
X190621Y350240D02*
X192787D01*
X190621Y349453D02*
Y350240D01*
Y349453D02*
X192787D01*
Y346303D02*
Y349453D01*
X81705Y382612D02*
Y385762D01*
X79539D02*
X81705D01*
X79539D02*
Y386549D01*
X81705D01*
Y388912D01*
X79539D02*
X81705D01*
X79539D02*
Y389699D01*
X81705D01*
Y392061D01*
X79539D02*
X81705D01*
X79539D02*
Y392849D01*
X81705D01*
Y395998D01*
X74815Y382612D02*
X81705D01*
X74815D02*
Y385762D01*
X76980D01*
X76980Y386549D02*
X76980Y385762D01*
X74815Y386549D02*
X76980D01*
X74815D02*
Y388912D01*
X76980D01*
Y389699D01*
X74815D02*
X76980D01*
X74815D02*
Y392061D01*
X76980D01*
Y392849D01*
X74815D02*
X76980D01*
X74815D02*
Y395998D01*
X74815D02*
X81705D01*
X74815Y377442D02*
X81705D01*
X74815Y374292D02*
Y377442D01*
Y374292D02*
X76980D01*
Y373504D02*
Y374292D01*
X74815Y373504D02*
X76980D01*
X74815Y371142D02*
Y373504D01*
Y371142D02*
X76980D01*
Y370355D02*
Y371142D01*
X74815Y370355D02*
X76980D01*
X74815Y367993D02*
Y370355D01*
Y367993D02*
X76980D01*
X76980Y367205D01*
X74815D02*
X76980D01*
X74815Y364056D02*
Y367205D01*
X74815Y364056D02*
X81705D01*
Y374292D02*
Y377442D01*
X79539Y374292D02*
X81705D01*
X79539Y373504D02*
Y374292D01*
Y373504D02*
X81705D01*
Y371142D02*
Y373504D01*
X79539Y371142D02*
X81705D01*
X79539Y370355D02*
Y371142D01*
Y370355D02*
X81705D01*
Y367993D02*
Y370355D01*
X79539Y367993D02*
X81705D01*
X79539Y367205D02*
Y367993D01*
Y367205D02*
X81705D01*
Y364056D02*
Y367205D01*
X318887Y155803D02*
Y158953D01*
X316721D02*
X318887D01*
X316721D02*
Y159740D01*
X318887D01*
Y162102D01*
X316721D02*
X318887D01*
X316721D02*
Y162890D01*
X318887D01*
Y165252D01*
X316721D02*
X318887D01*
X316721D02*
Y166039D01*
X318887D01*
Y169189D01*
X311997Y155803D02*
X318887D01*
X311997D02*
Y158953D01*
X314162D01*
X314162Y159740D02*
X314162Y158953D01*
X311997Y159740D02*
X314162D01*
X311997D02*
Y162102D01*
X314162D01*
Y162890D01*
X311997D02*
X314162D01*
X311997D02*
Y165252D01*
X314162D01*
Y166039D01*
X311997D02*
X314162D01*
X311997D02*
Y169189D01*
X311997D02*
X318887D01*
X311997Y152689D02*
X318887D01*
X311997Y149539D02*
Y152689D01*
Y149539D02*
X314162D01*
Y148752D02*
Y149539D01*
X311997Y148752D02*
X314162D01*
X311997Y146390D02*
Y148752D01*
Y146390D02*
X314162D01*
Y145602D02*
Y146390D01*
X311997Y145602D02*
X314162D01*
X311997Y143240D02*
Y145602D01*
Y143240D02*
X314162D01*
X314162Y142453D01*
X311997D02*
X314162D01*
X311997Y139303D02*
Y142453D01*
X311997Y139303D02*
X318887D01*
Y149539D02*
Y152689D01*
X316721Y149539D02*
X318887D01*
X316721Y148752D02*
Y149539D01*
Y148752D02*
X318887D01*
Y146390D02*
Y148752D01*
X316721Y146390D02*
X318887D01*
X316721Y145602D02*
Y146390D01*
Y145602D02*
X318887D01*
Y143240D02*
Y145602D01*
X316721Y143240D02*
X318887D01*
X316721Y142453D02*
Y143240D01*
Y142453D02*
X318887D01*
Y139303D02*
Y142453D01*
X370287Y297303D02*
Y300453D01*
X368121D02*
X370287D01*
X368121D02*
Y301240D01*
X370287D01*
Y303602D01*
X368121D02*
X370287D01*
X368121D02*
Y304390D01*
X370287D01*
Y306752D01*
X368121D02*
X370287D01*
X368121D02*
Y307539D01*
X370287D01*
Y310689D01*
X363397Y297303D02*
X370287D01*
X363397D02*
Y300453D01*
X365562D01*
X365562Y301240D02*
X365562Y300453D01*
X363397Y301240D02*
X365562D01*
X363397D02*
Y303602D01*
X365562D01*
Y304390D01*
X363397D02*
X365562D01*
X363397D02*
Y306752D01*
X365562D01*
Y307539D01*
X363397D02*
X365562D01*
X363397D02*
Y310689D01*
X363397D02*
X370287D01*
X329497Y245189D02*
X336387D01*
X329497Y242039D02*
Y245189D01*
Y242039D02*
X331662D01*
Y241252D02*
Y242039D01*
X329497Y241252D02*
X331662D01*
X329497Y238890D02*
Y241252D01*
Y238890D02*
X331662D01*
Y238102D02*
Y238890D01*
X329497Y238102D02*
X331662D01*
X329497Y235740D02*
Y238102D01*
Y235740D02*
X331662D01*
X331662Y234953D01*
X329497D02*
X331662D01*
X329497Y231803D02*
Y234953D01*
X329497Y231803D02*
X336387D01*
Y242039D02*
Y245189D01*
X334221Y242039D02*
X336387D01*
X334221Y241252D02*
Y242039D01*
Y241252D02*
X336387D01*
Y238890D02*
Y241252D01*
X334221Y238890D02*
X336387D01*
X334221Y238102D02*
Y238890D01*
Y238102D02*
X336387D01*
Y235740D02*
Y238102D01*
X334221Y235740D02*
X336387D01*
X334221Y234953D02*
Y235740D01*
Y234953D02*
X336387D01*
Y231803D02*
Y234953D01*
X369887Y192303D02*
Y195453D01*
X367721D02*
X369887D01*
X367721D02*
Y196240D01*
X369887D01*
Y198602D01*
X367721D02*
X369887D01*
X367721D02*
Y199390D01*
X369887D01*
Y201752D01*
X367721D02*
X369887D01*
X367721D02*
Y202539D01*
X369887D01*
Y205689D01*
X362997Y192303D02*
X369887D01*
X362997D02*
Y195453D01*
X365162D01*
X365162Y196240D02*
X365162Y195453D01*
X362997Y196240D02*
X365162D01*
X362997D02*
Y198602D01*
X365162D01*
Y199390D01*
X362997D02*
X365162D01*
X362997D02*
Y201752D01*
X365162D01*
Y202539D01*
X362997D02*
X365162D01*
X362997D02*
Y205689D01*
X362997D02*
X369887D01*
X351097Y98689D02*
X357987D01*
X351097Y95539D02*
Y98689D01*
Y95539D02*
X353262D01*
Y94752D02*
Y95539D01*
X351097Y94752D02*
X353262D01*
X351097Y92390D02*
Y94752D01*
Y92390D02*
X353262D01*
Y91602D02*
Y92390D01*
X351097Y91602D02*
X353262D01*
X351097Y89240D02*
Y91602D01*
Y89240D02*
X353262D01*
X353262Y88453D01*
X351097D02*
X353262D01*
X351097Y85303D02*
Y88453D01*
X351097Y85303D02*
X357987D01*
Y95539D02*
Y98689D01*
X355821Y95539D02*
X357987D01*
X355821Y94752D02*
Y95539D01*
Y94752D02*
X357987D01*
Y92390D02*
Y94752D01*
X355821Y92390D02*
X357987D01*
X355821Y91602D02*
Y92390D01*
Y91602D02*
X357987D01*
Y89240D02*
Y91602D01*
X355821Y89240D02*
X357987D01*
X355821Y88453D02*
Y89240D01*
Y88453D02*
X357987D01*
Y85303D02*
Y88453D01*
X370287Y316803D02*
Y319953D01*
X368121D02*
X370287D01*
X368121D02*
Y320740D01*
X370287D01*
Y323102D01*
X368121D02*
X370287D01*
X368121D02*
Y323890D01*
X370287D01*
Y326252D01*
X368121D02*
X370287D01*
X368121D02*
Y327039D01*
X370287D01*
Y330189D01*
X363397Y316803D02*
X370287D01*
X363397D02*
Y319953D01*
X365562D01*
X365562Y320740D02*
X365562Y319953D01*
X363397Y320740D02*
X365562D01*
X363397D02*
Y323102D01*
X365562D01*
Y323890D01*
X363397D02*
X365562D01*
X363397D02*
Y326252D01*
X365562D01*
Y327039D01*
X363397D02*
X365562D01*
X363397D02*
Y330189D01*
X363397D02*
X370287D01*
X405855Y123893D02*
X412745D01*
X405855Y120743D02*
Y123893D01*
Y120743D02*
X408020Y120743D01*
Y119956D02*
Y120743D01*
X405855Y119956D02*
X408020D01*
X405855Y117594D02*
Y119956D01*
Y117594D02*
X408020Y117594D01*
Y116806D02*
Y117594D01*
X405855Y116806D02*
X408020D01*
X405855Y114444D02*
Y116806D01*
Y114444D02*
X408020D01*
X408020Y113657D01*
X405855D02*
X408020D01*
X405855Y110507D02*
Y113657D01*
X405855Y110507D02*
X412745Y110507D01*
Y120743D02*
Y123893D01*
X410579Y120743D02*
X412745Y120743D01*
X410579Y120743D02*
X410580Y119956D01*
X412745D01*
Y117594D02*
Y119956D01*
X410579Y117594D02*
X412745Y117594D01*
X410579Y117594D02*
X410580Y116806D01*
X412745D01*
Y114444D02*
Y116806D01*
X410579Y114444D02*
X412745D01*
X410579D02*
X410580Y113657D01*
X412745D01*
Y110507D02*
Y113657D01*
X388245Y45307D02*
Y48457D01*
X386080D02*
X388245D01*
X386080D02*
Y49244D01*
X388245D01*
Y51606D01*
X386080D02*
X388245D01*
X386080D02*
Y52394D01*
X388245D01*
Y54756D01*
X386080D02*
X388245D01*
X386080D02*
Y55543D01*
X388245D01*
Y58693D01*
X381355Y45307D02*
X388245D01*
X381355D02*
Y48457D01*
X383521D01*
X383521Y49244D02*
X383521Y48457D01*
X381355Y49244D02*
X383521D01*
X381355D02*
Y51606D01*
X383521D01*
Y52394D01*
X381355D02*
X383521D01*
X381355D02*
Y54756D01*
X383521D01*
Y55543D01*
X381355D02*
X383521D01*
X381355D02*
Y58693D01*
X381355D02*
X388245D01*
X457454Y213288D02*
X464344D01*
X457454Y210139D02*
Y213288D01*
Y210139D02*
X459620D01*
Y209351D02*
Y210139D01*
X457454Y209351D02*
X459620D01*
X457454Y206989D02*
Y209351D01*
Y206989D02*
X459620D01*
Y206202D02*
Y206989D01*
X457454Y206202D02*
X459620D01*
X457454Y203839D02*
Y206202D01*
Y203839D02*
X459620D01*
X459620Y203052D01*
X457454D02*
X459620D01*
X457454Y199902D02*
Y203052D01*
X457454Y199902D02*
X464344D01*
Y210139D02*
Y213288D01*
X462179Y210139D02*
X464344D01*
X462179Y209351D02*
Y210139D01*
Y209351D02*
X464344D01*
Y206989D02*
Y209351D01*
X462179Y206989D02*
X464344D01*
X462179Y206202D02*
Y206989D01*
Y206202D02*
X464344D01*
Y203839D02*
Y206202D01*
X462179Y203839D02*
X464344D01*
X462179Y203052D02*
Y203839D01*
Y203052D02*
X464344D01*
Y199902D02*
Y203052D01*
Y182902D02*
Y186052D01*
X462179D02*
X464344D01*
X462179D02*
Y186839D01*
X464344D01*
Y189201D01*
X462179D02*
X464344D01*
X462179D02*
Y189989D01*
X464344D01*
Y192351D01*
X462179D02*
X464344D01*
X462179D02*
Y193139D01*
X464344D01*
Y196288D01*
X457454Y182902D02*
X464344D01*
X457454D02*
Y186052D01*
X459620D01*
X459620Y186839D02*
X459620Y186052D01*
X457454Y186839D02*
X459620D01*
X457454D02*
Y189201D01*
X459620D01*
Y189989D01*
X457454D02*
X459620D01*
X457454D02*
Y192351D01*
X459620D01*
Y193139D01*
X457454D02*
X459620D01*
X457454D02*
Y196288D01*
X457454D02*
X464344D01*
X363397Y350689D02*
X370287D01*
X363397Y347539D02*
Y350689D01*
Y347539D02*
X365562D01*
Y346752D02*
Y347539D01*
X363397Y346752D02*
X365562D01*
X363397Y344390D02*
Y346752D01*
Y344390D02*
X365562D01*
Y343602D02*
Y344390D01*
X363397Y343602D02*
X365562D01*
X363397Y341240D02*
Y343602D01*
Y341240D02*
X365562D01*
X365562Y340453D01*
X363397D02*
X365562D01*
X363397Y337303D02*
Y340453D01*
X363397Y337303D02*
X370287D01*
Y347539D02*
Y350689D01*
X368121Y347539D02*
X370287D01*
X368121Y346752D02*
Y347539D01*
Y346752D02*
X370287D01*
Y344390D02*
Y346752D01*
X368121Y344390D02*
X370287D01*
X368121Y343602D02*
Y344390D01*
Y343602D02*
X370287D01*
Y341240D02*
Y343602D01*
X368121Y341240D02*
X370287D01*
X368121Y340453D02*
Y341240D01*
Y340453D02*
X370287D01*
Y337303D02*
Y340453D01*
X370940Y85321D02*
Y88471D01*
X368775D02*
X370940D01*
X368775D02*
Y89258D01*
X370940D01*
Y91620D01*
X368775D02*
X370940D01*
X368775D02*
Y92408D01*
X370940D01*
Y94770D01*
X368775D02*
X370940D01*
X368775D02*
Y95557D01*
X370940D01*
Y98707D01*
X364050Y85321D02*
X370940D01*
X364050D02*
Y88471D01*
X366216D01*
X366216Y89258D02*
X366216Y88471D01*
X364050Y89258D02*
X366216D01*
X364050D02*
Y91620D01*
X366216D01*
Y92408D01*
X364050D02*
X366216D01*
X364050D02*
Y94770D01*
X366216D01*
Y95557D01*
X364050D02*
X366216D01*
X364050D02*
Y98707D01*
X364050D02*
X370940D01*
X328098Y157209D02*
X335185D01*
X328098Y169414D02*
X335185D01*
Y157209D02*
Y169414D01*
X328098Y157209D02*
Y169414D01*
X328098Y139394D02*
Y151598D01*
X335185Y139394D02*
Y151598D01*
X328098D02*
X335185D01*
X328098Y139394D02*
X335185D01*
X326398Y376794D02*
X333485D01*
X326398Y388998D02*
X333485D01*
Y376794D02*
Y388998D01*
X326398Y376794D02*
Y388998D01*
X346351Y195511D02*
Y207716D01*
X353438Y195511D02*
Y207716D01*
X346351D02*
X353438D01*
X346351Y195511D02*
X353438D01*
X358998Y70494D02*
X366085D01*
X358998Y82698D02*
X366085D01*
Y70494D02*
Y82698D01*
X358998Y70494D02*
Y82698D01*
X20198Y71294D02*
Y83498D01*
X27285Y71294D02*
Y83498D01*
X20198D02*
X27285D01*
X20198Y71294D02*
X27285D01*
X326398Y356894D02*
X333485D01*
X326398Y369098D02*
X333485D01*
Y356894D02*
Y369098D01*
X326398Y356894D02*
Y369098D01*
X132698Y364894D02*
Y377098D01*
X139785Y364894D02*
Y377098D01*
X132698D02*
X139785D01*
X132698Y364894D02*
X139785D01*
X132698Y382894D02*
X139785D01*
X132698Y395098D02*
X139785D01*
Y382894D02*
Y395098D01*
X132698Y382894D02*
Y395098D01*
X155898Y332294D02*
Y344498D01*
X162985Y332294D02*
Y344498D01*
X155898D02*
X162985D01*
X155898Y332294D02*
X162985D01*
X345483Y360000D02*
X363200D01*
X345483Y391102D02*
X363200D01*
Y360000D02*
Y391102D01*
X345483Y360000D02*
Y391102D01*
X155183Y367004D02*
Y392988D01*
X172900Y367004D02*
Y392988D01*
X155183D02*
X172900D01*
X155183Y367004D02*
X172900D01*
X153683Y367504D02*
Y393488D01*
X171400Y367504D02*
Y393488D01*
X153683D02*
X171400D01*
X153683Y367504D02*
X171400D01*
X154183Y367004D02*
Y392988D01*
X171900Y367004D02*
Y392988D01*
X154183D02*
X171900D01*
X154183Y367004D02*
X171900D01*
D96*
X-24309Y95514D02*
X11793D01*
X-24309Y60278D02*
X11793D01*
X-24309D02*
Y95514D01*
X11793Y60278D02*
Y95514D01*
M02*
