G04*
G04 #@! TF.GenerationSoftware,Altium Limited,Altium Designer,19.1.8 (144)*
G04*
G04 Layer_Physical_Order=2*
G04 Layer_Color=16711680*
%FSLAX25Y25*%
%MOIN*%
G70*
G01*
G75*
%ADD10C,0.02000*%
%ADD14C,0.01000*%
%ADD17C,0.03000*%
%ADD31C,0.03937*%
%ADD51R,0.62992X0.35100*%
%ADD83O,0.06693X0.03543*%
%ADD84O,0.09449X0.03543*%
%ADD85O,0.02559X0.02441*%
%ADD86C,0.05906*%
%ADD87R,0.05906X0.05906*%
%ADD88C,0.06000*%
%ADD89R,0.05906X0.05906*%
%ADD90C,0.05906*%
%ADD91C,0.05512*%
%ADD92C,0.07874*%
%ADD93C,0.01968*%
G36*
X523618Y411856D02*
X524704Y411852D01*
X526868Y411639D01*
X528997Y411215D01*
X531074Y410585D01*
X533079Y409755D01*
X534994Y408731D01*
X536798Y407525D01*
X538477Y406148D01*
X540011Y404613D01*
X541389Y402935D01*
X542594Y401131D01*
X543618Y399216D01*
X544448Y397211D01*
X545079Y395134D01*
X545502Y393005D01*
X545715Y390844D01*
Y389759D01*
Y23622D01*
Y22537D01*
X545502Y20376D01*
X545079Y18247D01*
X544448Y16170D01*
X543618Y14165D01*
X542594Y12250D01*
X541389Y10446D01*
X540011Y8768D01*
X538477Y7233D01*
X536798Y5855D01*
X534994Y4650D01*
X533079Y3626D01*
X531074Y2796D01*
X528997Y2166D01*
X526868Y1742D01*
X524707Y1529D01*
X523622D01*
X0Y1529D01*
X-1085D01*
X-3246Y1742D01*
X-5375Y2166D01*
X-7452Y2796D01*
X-9457Y3626D01*
X-11372Y4650D01*
X-13176Y5856D01*
X-14854Y7233D01*
X-16389Y8768D01*
X-17766Y10446D01*
X-18972Y12250D01*
X-19996Y14165D01*
X-20826Y16170D01*
X-21456Y18248D01*
X-21880Y20376D01*
X-22093Y22537D01*
Y23622D01*
Y110126D01*
X-22100Y110163D01*
X-22095Y110201D01*
X-22132Y110973D01*
X-22160Y111083D01*
Y111196D01*
X-22461Y112710D01*
X-22519Y112849D01*
X-22548Y112997D01*
X-23139Y114423D01*
X-23223Y114548D01*
X-23280Y114687D01*
X-24138Y115971D01*
X-24244Y116077D01*
X-24328Y116202D01*
X-25419Y117294D01*
X-25545Y117378D01*
X-25651Y117484D01*
X-26935Y118342D01*
X-27074Y118399D01*
X-27199Y118483D01*
X-28625Y119074D01*
X-28773Y119103D01*
X-28912Y119161D01*
X-30426Y119462D01*
X-30539D01*
X-30649Y119489D01*
X-31421Y119527D01*
X-31459Y119522D01*
X-31496Y119529D01*
X-55743D01*
X-56969Y119773D01*
X-58123Y120251D01*
X-59163Y120946D01*
X-60046Y121829D01*
X-60741Y122869D01*
X-61219Y124023D01*
X-61463Y125249D01*
Y125874D01*
X-61463Y305118D01*
X-61463Y305743D01*
X-61219Y306969D01*
X-60741Y308123D01*
X-60046Y309163D01*
X-59163Y310046D01*
X-58123Y310741D01*
X-56969Y311219D01*
X-55743Y311463D01*
X-31496D01*
X-31459Y311470D01*
X-31421Y311465D01*
X-30649Y311503D01*
X-30539Y311530D01*
X-30426D01*
X-28912Y311831D01*
X-28773Y311889D01*
X-28625Y311918D01*
X-27199Y312509D01*
X-27074Y312593D01*
X-26935Y312650D01*
X-25651Y313508D01*
X-25545Y313614D01*
X-25419Y313698D01*
X-24328Y314790D01*
X-24244Y314915D01*
X-24138Y315021D01*
X-23280Y316305D01*
X-23223Y316444D01*
X-23139Y316569D01*
X-22548Y317995D01*
X-22519Y318143D01*
X-22461Y318282D01*
X-22160Y319796D01*
Y319909D01*
X-22132Y320019D01*
X-22095Y320791D01*
X-22100Y320829D01*
X-22093Y320866D01*
Y389764D01*
Y390849D01*
X-21880Y393009D01*
X-21456Y395138D01*
X-20826Y397216D01*
X-19996Y399221D01*
X-18972Y401135D01*
X-17766Y402940D01*
X-16389Y404618D01*
X-14854Y406153D01*
X-13176Y407530D01*
X-11372Y408736D01*
X-9457Y409760D01*
X-7452Y410590D01*
X-5375Y411220D01*
X-3246Y411644D01*
X-1085Y411857D01*
X0D01*
X523618Y411856D01*
D02*
G37*
%LPC*%
G36*
X144842Y401935D02*
X144839Y401935D01*
X144837Y401935D01*
X144546Y401876D01*
X144061Y401780D01*
X144059Y401778D01*
X144057Y401778D01*
X143798Y401604D01*
X143400Y401338D01*
X143398Y401336D01*
X143397Y401334D01*
X143208Y401051D01*
X142958Y400676D01*
X142957Y400674D01*
X142956Y400672D01*
X142884Y400303D01*
X142803Y399896D01*
Y399896D01*
X142803Y399893D01*
X142803Y399891D01*
X142827Y388991D01*
X142867Y370991D01*
X142903Y355093D01*
X143060Y354313D01*
X143503Y353652D01*
X144166Y353212D01*
X144946Y353058D01*
X145726Y353215D01*
X146387Y353659D01*
X146827Y354321D01*
X146981Y355102D01*
X146945Y371001D01*
X146905Y389000D01*
X146881Y399900D01*
X146807Y400267D01*
X146726Y400676D01*
X146724Y400678D01*
X146724Y400680D01*
X146535Y400962D01*
X146284Y401338D01*
X146281Y401339D01*
X146280Y401341D01*
X146020Y401514D01*
X145622Y401780D01*
X145619Y401781D01*
X145618Y401782D01*
X145325Y401839D01*
X144842Y401935D01*
D02*
G37*
G36*
X34442Y402526D02*
X33528Y402406D01*
X32677Y402053D01*
X31945Y401492D01*
X31385Y400761D01*
X31032Y399910D01*
X30911Y398996D01*
X31032Y398082D01*
X31385Y397231D01*
X31945Y396500D01*
X32677Y395939D01*
X33528Y395586D01*
X34442Y395466D01*
X35355Y395586D01*
X36207Y395939D01*
X36938Y396500D01*
X37499Y397231D01*
X37852Y398082D01*
X37972Y398996D01*
X37852Y399910D01*
X37499Y400761D01*
X36938Y401492D01*
X36207Y402053D01*
X35355Y402406D01*
X34442Y402526D01*
D02*
G37*
G36*
Y392526D02*
X33528Y392406D01*
X32677Y392053D01*
X31945Y391492D01*
X31385Y390761D01*
X31032Y389910D01*
X30911Y388996D01*
X31032Y388082D01*
X31385Y387231D01*
X31945Y386500D01*
X32677Y385939D01*
X33528Y385586D01*
X34442Y385466D01*
X35355Y385586D01*
X36207Y385939D01*
X36938Y386500D01*
X37499Y387231D01*
X37852Y388082D01*
X37972Y388996D01*
X37852Y389910D01*
X37499Y390761D01*
X36938Y391492D01*
X36207Y392053D01*
X35355Y392406D01*
X34442Y392526D01*
D02*
G37*
G36*
X436599Y393509D02*
X436020Y393394D01*
X435529Y393066D01*
X435201Y392575D01*
X435086Y391996D01*
X435201Y391417D01*
X435485Y390992D01*
X435493Y390968D01*
X435496Y390951D01*
X435501Y390944D01*
X435504Y390935D01*
X435513Y390925D01*
X435519Y390910D01*
X435528Y390881D01*
X435537Y390839D01*
X435544Y390792D01*
X435557Y390638D01*
X435558Y390548D01*
X435580Y390499D01*
Y384301D01*
X435558Y384254D01*
X435552Y384067D01*
X435545Y384007D01*
X435537Y383953D01*
X435528Y383911D01*
X435519Y383882D01*
X435513Y383867D01*
X435504Y383857D01*
X435501Y383848D01*
X435496Y383841D01*
X435493Y383824D01*
X435485Y383800D01*
X435201Y383375D01*
X435086Y382796D01*
X435201Y382217D01*
X435529Y381726D01*
X436020Y381398D01*
X436599Y381283D01*
X437178Y381398D01*
X437669Y381726D01*
X437997Y382217D01*
X438112Y382796D01*
X437997Y383375D01*
X437714Y383800D01*
X437705Y383824D01*
X437702Y383841D01*
X437697Y383848D01*
X437694Y383857D01*
X437685Y383867D01*
X437679Y383882D01*
X437671Y383911D01*
X437662Y383953D01*
X437654Y384000D01*
X437642Y384154D01*
X437640Y384244D01*
X437619Y384293D01*
Y390491D01*
X437640Y390538D01*
X437647Y390725D01*
X437653Y390785D01*
X437662Y390839D01*
X437671Y390881D01*
X437679Y390910D01*
X437685Y390925D01*
X437694Y390935D01*
X437697Y390944D01*
X437702Y390951D01*
X437705Y390968D01*
X437714Y390992D01*
X437997Y391417D01*
X438112Y391996D01*
X437997Y392575D01*
X437669Y393066D01*
X437178Y393394D01*
X436599Y393509D01*
D02*
G37*
G36*
X448599Y393709D02*
X448020Y393594D01*
X447529Y393266D01*
X447201Y392775D01*
X447086Y392196D01*
X447201Y391617D01*
X447485Y391192D01*
X447493Y391168D01*
X447496Y391151D01*
X447501Y391144D01*
X447504Y391135D01*
X447513Y391125D01*
X447519Y391110D01*
X447528Y391081D01*
X447537Y391039D01*
X447544Y390992D01*
X447556Y390838D01*
X447558Y390748D01*
X447580Y390699D01*
Y383701D01*
X447558Y383654D01*
X447551Y383467D01*
X447545Y383407D01*
X447537Y383353D01*
X447528Y383311D01*
X447519Y383282D01*
X447513Y383267D01*
X447504Y383257D01*
X447501Y383248D01*
X447496Y383241D01*
X447493Y383224D01*
X447485Y383200D01*
X447201Y382775D01*
X447086Y382196D01*
X447201Y381617D01*
X447529Y381126D01*
X448020Y380798D01*
X448599Y380683D01*
X449178Y380798D01*
X449669Y381126D01*
X449997Y381617D01*
X450112Y382196D01*
X449997Y382775D01*
X449714Y383200D01*
X449705Y383224D01*
X449702Y383241D01*
X449697Y383248D01*
X449694Y383257D01*
X449685Y383267D01*
X449679Y383282D01*
X449671Y383311D01*
X449661Y383353D01*
X449654Y383400D01*
X449642Y383554D01*
X449640Y383644D01*
X449619Y383693D01*
Y390691D01*
X449640Y390738D01*
X449647Y390925D01*
X449653Y390985D01*
X449661Y391039D01*
X449671Y391081D01*
X449679Y391110D01*
X449685Y391125D01*
X449694Y391135D01*
X449697Y391144D01*
X449702Y391151D01*
X449705Y391168D01*
X449714Y391192D01*
X449997Y391617D01*
X450112Y392196D01*
X449997Y392775D01*
X449669Y393266D01*
X449178Y393594D01*
X448599Y393709D01*
D02*
G37*
G36*
X365542Y394109D02*
X364963Y393994D01*
X364472Y393666D01*
X364144Y393175D01*
X364028Y392596D01*
X364144Y392017D01*
X364472Y391526D01*
X364963Y391198D01*
X365463Y391098D01*
X365486Y391087D01*
X365501Y391077D01*
X365509Y391076D01*
X365518Y391072D01*
X365531Y391071D01*
X365546Y391064D01*
X365572Y391050D01*
X365609Y391027D01*
X365648Y390998D01*
X365765Y390898D01*
X365829Y390836D01*
X365880Y390816D01*
X369822Y386874D01*
Y383501D01*
X369801Y383454D01*
X369794Y383266D01*
X369788Y383207D01*
X369779Y383153D01*
X369770Y383111D01*
X369761Y383082D01*
X369756Y383067D01*
X369747Y383057D01*
X369744Y383048D01*
X369739Y383041D01*
X369736Y383024D01*
X369727Y383000D01*
X369444Y382575D01*
X369328Y381996D01*
X369444Y381417D01*
X369772Y380926D01*
X370263Y380598D01*
X370842Y380483D01*
X371421Y380598D01*
X371912Y380926D01*
X372240Y381417D01*
X372355Y381996D01*
X372240Y382575D01*
X371956Y383000D01*
X371948Y383024D01*
X371944Y383041D01*
X371939Y383048D01*
X371936Y383057D01*
X371928Y383067D01*
X371922Y383082D01*
X371913Y383111D01*
X371904Y383153D01*
X371897Y383200D01*
X371884Y383354D01*
X371883Y383444D01*
X371861Y383493D01*
Y387296D01*
X371784Y387686D01*
X371563Y388017D01*
X367327Y392253D01*
X367309Y392301D01*
X367181Y392439D01*
X367143Y392485D01*
X367111Y392529D01*
X367088Y392565D01*
X367073Y392592D01*
X367067Y392607D01*
X367066Y392620D01*
X367062Y392628D01*
X367060Y392637D01*
X367051Y392652D01*
X367039Y392674D01*
X366940Y393175D01*
X366612Y393666D01*
X366121Y393994D01*
X365542Y394109D01*
D02*
G37*
G36*
X34442Y382526D02*
X33528Y382406D01*
X32677Y382053D01*
X31945Y381492D01*
X31385Y380761D01*
X31032Y379910D01*
X30911Y378996D01*
X31032Y378082D01*
X31385Y377231D01*
X31945Y376500D01*
X32677Y375939D01*
X33528Y375586D01*
X34442Y375466D01*
X35355Y375586D01*
X36207Y375939D01*
X36938Y376500D01*
X37499Y377231D01*
X37852Y378082D01*
X37972Y378996D01*
X37852Y379910D01*
X37499Y380761D01*
X36938Y381492D01*
X36207Y382053D01*
X35355Y382406D01*
X34442Y382526D01*
D02*
G37*
G36*
X34942Y372965D02*
Y369496D01*
X38410D01*
X38339Y370040D01*
X37936Y371013D01*
X37295Y371849D01*
X36459Y372490D01*
X35486Y372893D01*
X34942Y372965D01*
D02*
G37*
G36*
X33942D02*
X33397Y372893D01*
X32425Y372490D01*
X31589Y371849D01*
X30948Y371013D01*
X30545Y370040D01*
X30473Y369496D01*
X33942D01*
Y372965D01*
D02*
G37*
G36*
X38410Y368496D02*
X34942D01*
Y365027D01*
X35486Y365099D01*
X36459Y365502D01*
X37295Y366143D01*
X37936Y366979D01*
X38339Y367952D01*
X38410Y368496D01*
D02*
G37*
G36*
X33942D02*
X30473D01*
X30545Y367952D01*
X30948Y366979D01*
X31589Y366143D01*
X32425Y365502D01*
X33397Y365099D01*
X33942Y365027D01*
Y368496D01*
D02*
G37*
G36*
X330342Y403709D02*
X329763Y403594D01*
X329272Y403266D01*
X328944Y402775D01*
X328828Y402196D01*
X328944Y401617D01*
X329223Y401199D01*
X329232Y401172D01*
X329235Y401155D01*
X329240Y401148D01*
X329243Y401139D01*
X329252Y401129D01*
X329258Y401113D01*
X329267Y401084D01*
X329276Y401042D01*
X329283Y400994D01*
X329295Y400840D01*
X329297Y400750D01*
X329319Y400701D01*
Y385704D01*
X329297Y385658D01*
X329291Y385470D01*
X329284Y385410D01*
X329276Y385356D01*
X329267Y385314D01*
X329258Y385285D01*
X329252Y385270D01*
X329243Y385261D01*
X329240Y385252D01*
X329235Y385244D01*
X329232Y385227D01*
X329224Y385203D01*
X328940Y384779D01*
X328825Y384200D01*
X328940Y383620D01*
X329268Y383129D01*
X329759Y382801D01*
X330260Y382702D01*
X330283Y382691D01*
X330297Y382681D01*
X330306Y382679D01*
X330314Y382675D01*
X330327Y382674D01*
X330342Y382668D01*
X330369Y382653D01*
X330405Y382630D01*
X330444Y382602D01*
X330561Y382502D01*
X330626Y382439D01*
X330676Y382420D01*
X331075Y382021D01*
Y374971D01*
X329467Y373363D01*
X329246Y373033D01*
X329169Y372642D01*
Y365854D01*
X329147Y365808D01*
X329140Y365620D01*
X329134Y365560D01*
X329126Y365506D01*
X329117Y365464D01*
X329108Y365435D01*
X329102Y365420D01*
X329093Y365410D01*
X329090Y365402D01*
X329085Y365394D01*
X329082Y365377D01*
X329074Y365353D01*
X328790Y364929D01*
X328675Y364350D01*
X328790Y363770D01*
X329118Y363279D01*
X329609Y362951D01*
X330188Y362836D01*
X330767Y362951D01*
X331258Y363279D01*
X331586Y363770D01*
X331701Y364350D01*
X331586Y364929D01*
X331303Y365353D01*
X331294Y365377D01*
X331291Y365394D01*
X331286Y365402D01*
X331283Y365410D01*
X331274Y365420D01*
X331268Y365435D01*
X331260Y365464D01*
X331251Y365506D01*
X331243Y365554D01*
X331231Y365708D01*
X331229Y365797D01*
X331208Y365847D01*
Y372220D01*
X332816Y373828D01*
X333037Y374159D01*
X333114Y374549D01*
Y382443D01*
X333037Y382833D01*
X332816Y383164D01*
X332123Y383857D01*
X332105Y383904D01*
X331977Y384042D01*
X331940Y384089D01*
X331907Y384133D01*
X331884Y384169D01*
X331870Y384196D01*
X331863Y384210D01*
X331862Y384224D01*
X331858Y384232D01*
X331857Y384241D01*
X331847Y384255D01*
X331836Y384278D01*
X331736Y384779D01*
X331453Y385203D01*
X331444Y385227D01*
X331441Y385244D01*
X331436Y385252D01*
X331433Y385261D01*
X331424Y385270D01*
X331418Y385285D01*
X331410Y385314D01*
X331400Y385356D01*
X331393Y385404D01*
X331381Y385558D01*
X331379Y385648D01*
X331358Y385697D01*
Y400689D01*
X331379Y400736D01*
X331386Y400923D01*
X331392Y400983D01*
X331401Y401037D01*
X331410Y401078D01*
X331418Y401107D01*
X331424Y401122D01*
X331433Y401131D01*
X331436Y401140D01*
X331441Y401148D01*
X331444Y401164D01*
X331452Y401185D01*
X331740Y401617D01*
X331855Y402196D01*
X331740Y402775D01*
X331412Y403266D01*
X330921Y403594D01*
X330342Y403709D01*
D02*
G37*
G36*
X419642Y366509D02*
X419063Y366394D01*
X418572Y366066D01*
X418244Y365575D01*
X418128Y364996D01*
X418142Y364926D01*
X418139Y364916D01*
X418135Y364909D01*
X418133Y364907D01*
X418133Y364905D01*
X418127Y364895D01*
X418126Y364881D01*
X418122Y364872D01*
X418122Y364868D01*
X418122Y364867D01*
X418112Y364846D01*
X418093Y364814D01*
X418069Y364780D01*
X417974Y364667D01*
X417914Y364603D01*
X417904Y364578D01*
X417880Y364565D01*
X417870Y364529D01*
X414021Y360680D01*
X413973Y360662D01*
X413835Y360534D01*
X413789Y360496D01*
X413745Y360464D01*
X413709Y360441D01*
X413682Y360427D01*
X413667Y360420D01*
X413654Y360420D01*
X413646Y360415D01*
X413637Y360414D01*
X413623Y360404D01*
X413600Y360393D01*
X413099Y360293D01*
X412608Y359965D01*
X412280Y359474D01*
X412165Y358895D01*
X412280Y358316D01*
X412608Y357825D01*
X413099Y357497D01*
X413678Y357382D01*
X414257Y357497D01*
X414748Y357825D01*
X415076Y358316D01*
X415176Y358817D01*
X415187Y358840D01*
X415196Y358854D01*
X415198Y358863D01*
X415202Y358871D01*
X415203Y358884D01*
X415210Y358899D01*
X415224Y358926D01*
X415247Y358962D01*
X415275Y359001D01*
X415376Y359118D01*
X415438Y359183D01*
X415458Y359233D01*
X419419Y363195D01*
X419470Y363215D01*
X419540Y363283D01*
X419596Y363333D01*
X419706Y363423D01*
X419741Y363447D01*
X419773Y363466D01*
X419794Y363476D01*
X419799Y363479D01*
X419814Y363481D01*
X419821Y363485D01*
X419829Y363488D01*
X419842Y363498D01*
X419900Y363534D01*
X420221Y363598D01*
X420712Y363926D01*
X421040Y364417D01*
X421155Y364996D01*
X421040Y365575D01*
X420712Y366066D01*
X420221Y366394D01*
X419642Y366509D01*
D02*
G37*
G36*
X391599Y362478D02*
X390698Y362360D01*
X389858Y362012D01*
X389137Y361458D01*
X388583Y360737D01*
X388235Y359897D01*
X388117Y358996D01*
X388235Y358095D01*
X388583Y357255D01*
X389137Y356534D01*
X389858Y355980D01*
X390698Y355632D01*
X391599Y355514D01*
X392501Y355632D01*
X393340Y355980D01*
X394062Y356534D01*
X394615Y357255D01*
X394963Y358095D01*
X395082Y358996D01*
X394963Y359897D01*
X394615Y360737D01*
X394062Y361458D01*
X393340Y362012D01*
X392501Y362360D01*
X391599Y362478D01*
D02*
G37*
G36*
X381599D02*
X380698Y362360D01*
X379858Y362012D01*
X379137Y361458D01*
X378583Y360737D01*
X378235Y359897D01*
X378117Y358996D01*
X378235Y358095D01*
X378583Y357255D01*
X379137Y356534D01*
X379858Y355980D01*
X380698Y355632D01*
X381599Y355514D01*
X382501Y355632D01*
X383341Y355980D01*
X384062Y356534D01*
X384615Y357255D01*
X384963Y358095D01*
X385082Y358996D01*
X384963Y359897D01*
X384615Y360737D01*
X384062Y361458D01*
X383341Y362012D01*
X382501Y362360D01*
X381599Y362478D01*
D02*
G37*
G36*
X391599Y352479D02*
X390698Y352360D01*
X389858Y352012D01*
X389137Y351459D01*
X388583Y350737D01*
X388235Y349897D01*
X388117Y348996D01*
X388235Y348095D01*
X388583Y347255D01*
X389137Y346533D01*
X389858Y345980D01*
X390698Y345632D01*
X391599Y345514D01*
X392501Y345632D01*
X393340Y345980D01*
X394062Y346533D01*
X394615Y347255D01*
X394963Y348095D01*
X395082Y348996D01*
X394963Y349897D01*
X394615Y350737D01*
X394062Y351459D01*
X393340Y352012D01*
X392501Y352360D01*
X391599Y352479D01*
D02*
G37*
G36*
X381599D02*
X380698Y352360D01*
X379858Y352012D01*
X379137Y351459D01*
X378583Y350737D01*
X378235Y349897D01*
X378117Y348996D01*
X378235Y348095D01*
X378583Y347255D01*
X379137Y346533D01*
X379858Y345980D01*
X380698Y345632D01*
X381599Y345514D01*
X382501Y345632D01*
X383341Y345980D01*
X384062Y346533D01*
X384615Y347255D01*
X384963Y348095D01*
X385082Y348996D01*
X384963Y349897D01*
X384615Y350737D01*
X384062Y351459D01*
X383341Y352012D01*
X382501Y352360D01*
X381599Y352479D01*
D02*
G37*
G36*
X356042Y347259D02*
X355463Y347144D01*
X354972Y346816D01*
X354644Y346325D01*
X354528Y345746D01*
X354644Y345166D01*
X354972Y344675D01*
X355463Y344348D01*
X356042Y344232D01*
X356621Y344348D01*
X356960Y344574D01*
X357016Y344590D01*
X357032Y344593D01*
X357038Y344597D01*
X357047Y344599D01*
X357059Y344609D01*
X357061Y344610D01*
X357080Y344617D01*
X357113Y344625D01*
X357158Y344635D01*
X357209Y344642D01*
X357366Y344653D01*
X357458Y344655D01*
X357507Y344676D01*
X358637D01*
X358683Y344655D01*
X358871Y344648D01*
X358931Y344642D01*
X358985Y344634D01*
X359027Y344624D01*
X359056Y344616D01*
X359071Y344610D01*
X359081Y344601D01*
X359090Y344598D01*
X359097Y344593D01*
X359114Y344590D01*
X359138Y344582D01*
X359370Y344427D01*
Y343865D01*
X359138Y343710D01*
X359114Y343702D01*
X359097Y343699D01*
X359090Y343694D01*
X359081Y343691D01*
X359071Y343682D01*
X359056Y343676D01*
X359027Y343668D01*
X358985Y343658D01*
X358937Y343651D01*
X358784Y343639D01*
X358694Y343637D01*
X358644Y343616D01*
X355046D01*
X355000Y343637D01*
X354812Y343644D01*
X354752Y343650D01*
X354699Y343658D01*
X354657Y343668D01*
X354627Y343676D01*
X354613Y343682D01*
X354603Y343691D01*
X354594Y343694D01*
X354586Y343699D01*
X354569Y343702D01*
X354545Y343710D01*
X354121Y343994D01*
X353542Y344109D01*
X352963Y343994D01*
X352472Y343666D01*
X352144Y343175D01*
X352028Y342596D01*
X352144Y342017D01*
X352472Y341526D01*
X352963Y341198D01*
X353542Y341083D01*
X354121Y341198D01*
X354545Y341482D01*
X354569Y341490D01*
X354586Y341493D01*
X354594Y341498D01*
X354603Y341501D01*
X354613Y341510D01*
X354628Y341516D01*
X354657Y341524D01*
X354699Y341534D01*
X354746Y341541D01*
X354900Y341553D01*
X354990Y341555D01*
X355039Y341576D01*
X358637D01*
X358683Y341555D01*
X358871Y341548D01*
X358931Y341542D01*
X358985Y341534D01*
X359027Y341524D01*
X359056Y341516D01*
X359071Y341510D01*
X359081Y341501D01*
X359090Y341498D01*
X359097Y341493D01*
X359114Y341490D01*
X359138Y341482D01*
X359563Y341198D01*
X360142Y341083D01*
X360721Y341198D01*
X361212Y341526D01*
X361540Y342017D01*
X361655Y342596D01*
X361540Y343175D01*
X361212Y343666D01*
X360914Y343865D01*
Y344427D01*
X361212Y344626D01*
X361540Y345117D01*
X361655Y345696D01*
X361540Y346275D01*
X361212Y346766D01*
X360721Y347094D01*
X360142Y347209D01*
X359563Y347094D01*
X359138Y346810D01*
X359114Y346802D01*
X359097Y346799D01*
X359090Y346794D01*
X359081Y346791D01*
X359071Y346782D01*
X359056Y346776D01*
X359027Y346767D01*
X358985Y346758D01*
X358937Y346751D01*
X358784Y346739D01*
X358694Y346737D01*
X358644Y346716D01*
X357582D01*
X357539Y346736D01*
X357534Y346734D01*
X357529Y346737D01*
X357343Y346744D01*
X357286Y346750D01*
X357235Y346759D01*
X357196Y346768D01*
X357170Y346777D01*
X357162Y346780D01*
X357156Y346786D01*
X357147Y346790D01*
X357138Y346796D01*
X357122Y346800D01*
X357112Y346816D01*
X356621Y347144D01*
X356042Y347259D01*
D02*
G37*
G36*
X282894Y349449D02*
X275989D01*
Y342543D01*
X282894D01*
Y349449D01*
D02*
G37*
G36*
X114894D02*
X107989D01*
Y342543D01*
X114894D01*
Y349449D01*
D02*
G37*
G36*
X269442Y349479D02*
X268540Y349360D01*
X267701Y349012D01*
X266979Y348459D01*
X266426Y347737D01*
X266078Y346897D01*
X265959Y345996D01*
X266078Y345095D01*
X266426Y344255D01*
X266979Y343533D01*
X267701Y342980D01*
X268540Y342632D01*
X269442Y342513D01*
X270343Y342632D01*
X271183Y342980D01*
X271904Y343533D01*
X272458Y344255D01*
X272806Y345095D01*
X272924Y345996D01*
X272806Y346897D01*
X272458Y347737D01*
X271904Y348459D01*
X271183Y349012D01*
X270343Y349360D01*
X269442Y349479D01*
D02*
G37*
G36*
X259442D02*
X258540Y349360D01*
X257700Y349012D01*
X256979Y348459D01*
X256426Y347737D01*
X256078Y346897D01*
X255959Y345996D01*
X256078Y345095D01*
X256426Y344255D01*
X256979Y343533D01*
X257700Y342980D01*
X258540Y342632D01*
X259442Y342513D01*
X260343Y342632D01*
X261183Y342980D01*
X261904Y343533D01*
X262458Y344255D01*
X262806Y345095D01*
X262924Y345996D01*
X262806Y346897D01*
X262458Y347737D01*
X261904Y348459D01*
X261183Y349012D01*
X260343Y349360D01*
X259442Y349479D01*
D02*
G37*
G36*
X249442D02*
X248540Y349360D01*
X247701Y349012D01*
X246979Y348459D01*
X246426Y347737D01*
X246078Y346897D01*
X245959Y345996D01*
X246078Y345095D01*
X246426Y344255D01*
X246979Y343533D01*
X247701Y342980D01*
X248540Y342632D01*
X249442Y342513D01*
X250343Y342632D01*
X251183Y342980D01*
X251904Y343533D01*
X252458Y344255D01*
X252806Y345095D01*
X252924Y345996D01*
X252806Y346897D01*
X252458Y347737D01*
X251904Y348459D01*
X251183Y349012D01*
X250343Y349360D01*
X249442Y349479D01*
D02*
G37*
G36*
X239442D02*
X238540Y349360D01*
X237701Y349012D01*
X236979Y348459D01*
X236426Y347737D01*
X236078Y346897D01*
X235959Y345996D01*
X236078Y345095D01*
X236426Y344255D01*
X236979Y343533D01*
X237701Y342980D01*
X238540Y342632D01*
X239442Y342513D01*
X240343Y342632D01*
X241183Y342980D01*
X241904Y343533D01*
X242458Y344255D01*
X242806Y345095D01*
X242924Y345996D01*
X242806Y346897D01*
X242458Y347737D01*
X241904Y348459D01*
X241183Y349012D01*
X240343Y349360D01*
X239442Y349479D01*
D02*
G37*
G36*
X229442D02*
X228540Y349360D01*
X227700Y349012D01*
X226979Y348459D01*
X226426Y347737D01*
X226078Y346897D01*
X225959Y345996D01*
X226078Y345095D01*
X226426Y344255D01*
X226979Y343533D01*
X227700Y342980D01*
X228540Y342632D01*
X229442Y342513D01*
X230343Y342632D01*
X231183Y342980D01*
X231904Y343533D01*
X232458Y344255D01*
X232806Y345095D01*
X232924Y345996D01*
X232806Y346897D01*
X232458Y347737D01*
X231904Y348459D01*
X231183Y349012D01*
X230343Y349360D01*
X229442Y349479D01*
D02*
G37*
G36*
X219442D02*
X218540Y349360D01*
X217701Y349012D01*
X216979Y348459D01*
X216426Y347737D01*
X216078Y346897D01*
X215959Y345996D01*
X216078Y345095D01*
X216426Y344255D01*
X216979Y343533D01*
X217701Y342980D01*
X218540Y342632D01*
X219442Y342513D01*
X220343Y342632D01*
X221183Y342980D01*
X221904Y343533D01*
X222458Y344255D01*
X222806Y345095D01*
X222924Y345996D01*
X222806Y346897D01*
X222458Y347737D01*
X221904Y348459D01*
X221183Y349012D01*
X220343Y349360D01*
X219442Y349479D01*
D02*
G37*
G36*
X209442D02*
X208540Y349360D01*
X207700Y349012D01*
X206979Y348459D01*
X206426Y347737D01*
X206078Y346897D01*
X205959Y345996D01*
X206078Y345095D01*
X206426Y344255D01*
X206979Y343533D01*
X207700Y342980D01*
X208540Y342632D01*
X209442Y342513D01*
X210343Y342632D01*
X211183Y342980D01*
X211904Y343533D01*
X212458Y344255D01*
X212806Y345095D01*
X212924Y345996D01*
X212806Y346897D01*
X212458Y347737D01*
X211904Y348459D01*
X211183Y349012D01*
X210343Y349360D01*
X209442Y349479D01*
D02*
G37*
G36*
X101442D02*
X100540Y349360D01*
X99700Y349012D01*
X98979Y348459D01*
X98426Y347737D01*
X98078Y346897D01*
X97959Y345996D01*
X98078Y345095D01*
X98426Y344255D01*
X98979Y343533D01*
X99700Y342980D01*
X100540Y342632D01*
X101442Y342513D01*
X102343Y342632D01*
X103183Y342980D01*
X103904Y343533D01*
X104458Y344255D01*
X104806Y345095D01*
X104924Y345996D01*
X104806Y346897D01*
X104458Y347737D01*
X103904Y348459D01*
X103183Y349012D01*
X102343Y349360D01*
X101442Y349479D01*
D02*
G37*
G36*
X91442D02*
X90540Y349360D01*
X89701Y349012D01*
X88979Y348459D01*
X88426Y347737D01*
X88078Y346897D01*
X87959Y345996D01*
X88078Y345095D01*
X88426Y344255D01*
X88979Y343533D01*
X89701Y342980D01*
X90540Y342632D01*
X91442Y342513D01*
X92343Y342632D01*
X93183Y342980D01*
X93904Y343533D01*
X94458Y344255D01*
X94806Y345095D01*
X94924Y345996D01*
X94806Y346897D01*
X94458Y347737D01*
X93904Y348459D01*
X93183Y349012D01*
X92343Y349360D01*
X91442Y349479D01*
D02*
G37*
G36*
X391599Y342478D02*
X390698Y342360D01*
X389858Y342012D01*
X389137Y341459D01*
X388583Y340737D01*
X388235Y339897D01*
X388117Y338996D01*
X388235Y338095D01*
X388583Y337255D01*
X389137Y336533D01*
X389858Y335980D01*
X390698Y335632D01*
X391599Y335513D01*
X392501Y335632D01*
X393340Y335980D01*
X394062Y336533D01*
X394615Y337255D01*
X394963Y338095D01*
X395082Y338996D01*
X394963Y339897D01*
X394615Y340737D01*
X394062Y341459D01*
X393340Y342012D01*
X392501Y342360D01*
X391599Y342478D01*
D02*
G37*
G36*
X381599D02*
X380698Y342360D01*
X379858Y342012D01*
X379137Y341459D01*
X378583Y340737D01*
X378235Y339897D01*
X378117Y338996D01*
X378235Y338095D01*
X378583Y337255D01*
X379137Y336533D01*
X379858Y335980D01*
X380698Y335632D01*
X381599Y335513D01*
X382501Y335632D01*
X383341Y335980D01*
X384062Y336533D01*
X384615Y337255D01*
X384963Y338095D01*
X385082Y338996D01*
X384963Y339897D01*
X384615Y340737D01*
X384062Y341459D01*
X383341Y342012D01*
X382501Y342360D01*
X381599Y342478D01*
D02*
G37*
G36*
X279442Y339478D02*
X278540Y339360D01*
X277700Y339012D01*
X276979Y338458D01*
X276426Y337737D01*
X276078Y336897D01*
X275959Y335996D01*
X276078Y335095D01*
X276426Y334255D01*
X276979Y333534D01*
X277700Y332980D01*
X278540Y332632D01*
X279442Y332513D01*
X280343Y332632D01*
X281183Y332980D01*
X281904Y333534D01*
X282458Y334255D01*
X282806Y335095D01*
X282924Y335996D01*
X282806Y336897D01*
X282458Y337737D01*
X281904Y338458D01*
X281183Y339012D01*
X280343Y339360D01*
X279442Y339478D01*
D02*
G37*
G36*
X269442D02*
X268540Y339360D01*
X267701Y339012D01*
X266979Y338458D01*
X266426Y337737D01*
X266078Y336897D01*
X265959Y335996D01*
X266078Y335095D01*
X266426Y334255D01*
X266979Y333534D01*
X267701Y332980D01*
X268540Y332632D01*
X269442Y332513D01*
X270343Y332632D01*
X271183Y332980D01*
X271904Y333534D01*
X272458Y334255D01*
X272806Y335095D01*
X272924Y335996D01*
X272806Y336897D01*
X272458Y337737D01*
X271904Y338458D01*
X271183Y339012D01*
X270343Y339360D01*
X269442Y339478D01*
D02*
G37*
G36*
X259442D02*
X258540Y339360D01*
X257700Y339012D01*
X256979Y338458D01*
X256426Y337737D01*
X256078Y336897D01*
X255959Y335996D01*
X256078Y335095D01*
X256426Y334255D01*
X256979Y333534D01*
X257700Y332980D01*
X258540Y332632D01*
X259442Y332513D01*
X260343Y332632D01*
X261183Y332980D01*
X261904Y333534D01*
X262458Y334255D01*
X262806Y335095D01*
X262924Y335996D01*
X262806Y336897D01*
X262458Y337737D01*
X261904Y338458D01*
X261183Y339012D01*
X260343Y339360D01*
X259442Y339478D01*
D02*
G37*
G36*
X249442D02*
X248540Y339360D01*
X247701Y339012D01*
X246979Y338458D01*
X246426Y337737D01*
X246078Y336897D01*
X245959Y335996D01*
X246078Y335095D01*
X246426Y334255D01*
X246979Y333534D01*
X247701Y332980D01*
X248540Y332632D01*
X249442Y332513D01*
X250343Y332632D01*
X251183Y332980D01*
X251904Y333534D01*
X252458Y334255D01*
X252806Y335095D01*
X252924Y335996D01*
X252806Y336897D01*
X252458Y337737D01*
X251904Y338458D01*
X251183Y339012D01*
X250343Y339360D01*
X249442Y339478D01*
D02*
G37*
G36*
X239442D02*
X238540Y339360D01*
X237701Y339012D01*
X236979Y338458D01*
X236426Y337737D01*
X236078Y336897D01*
X235959Y335996D01*
X236078Y335095D01*
X236426Y334255D01*
X236979Y333534D01*
X237701Y332980D01*
X238540Y332632D01*
X239442Y332513D01*
X240343Y332632D01*
X241183Y332980D01*
X241904Y333534D01*
X242458Y334255D01*
X242806Y335095D01*
X242924Y335996D01*
X242806Y336897D01*
X242458Y337737D01*
X241904Y338458D01*
X241183Y339012D01*
X240343Y339360D01*
X239442Y339478D01*
D02*
G37*
G36*
X229442D02*
X228540Y339360D01*
X227700Y339012D01*
X226979Y338458D01*
X226426Y337737D01*
X226078Y336897D01*
X225959Y335996D01*
X226078Y335095D01*
X226426Y334255D01*
X226979Y333534D01*
X227700Y332980D01*
X228540Y332632D01*
X229442Y332513D01*
X230343Y332632D01*
X231183Y332980D01*
X231904Y333534D01*
X232458Y334255D01*
X232806Y335095D01*
X232924Y335996D01*
X232806Y336897D01*
X232458Y337737D01*
X231904Y338458D01*
X231183Y339012D01*
X230343Y339360D01*
X229442Y339478D01*
D02*
G37*
G36*
X219442D02*
X218540Y339360D01*
X217701Y339012D01*
X216979Y338458D01*
X216426Y337737D01*
X216078Y336897D01*
X215959Y335996D01*
X216078Y335095D01*
X216426Y334255D01*
X216979Y333534D01*
X217701Y332980D01*
X218540Y332632D01*
X219442Y332513D01*
X220343Y332632D01*
X221183Y332980D01*
X221904Y333534D01*
X222458Y334255D01*
X222806Y335095D01*
X222924Y335996D01*
X222806Y336897D01*
X222458Y337737D01*
X221904Y338458D01*
X221183Y339012D01*
X220343Y339360D01*
X219442Y339478D01*
D02*
G37*
G36*
X209442D02*
X208540Y339360D01*
X207700Y339012D01*
X206979Y338458D01*
X206426Y337737D01*
X206078Y336897D01*
X205959Y335996D01*
X206078Y335095D01*
X206426Y334255D01*
X206979Y333534D01*
X207700Y332980D01*
X208540Y332632D01*
X209442Y332513D01*
X210343Y332632D01*
X211183Y332980D01*
X211904Y333534D01*
X212458Y334255D01*
X212806Y335095D01*
X212924Y335996D01*
X212806Y336897D01*
X212458Y337737D01*
X211904Y338458D01*
X211183Y339012D01*
X210343Y339360D01*
X209442Y339478D01*
D02*
G37*
G36*
X111442D02*
X110540Y339360D01*
X109701Y339012D01*
X108979Y338458D01*
X108426Y337737D01*
X108078Y336897D01*
X107959Y335996D01*
X108078Y335095D01*
X108426Y334255D01*
X108979Y333534D01*
X109701Y332980D01*
X110540Y332632D01*
X111442Y332513D01*
X112343Y332632D01*
X113183Y332980D01*
X113904Y333534D01*
X114458Y334255D01*
X114806Y335095D01*
X114924Y335996D01*
X114806Y336897D01*
X114458Y337737D01*
X113904Y338458D01*
X113183Y339012D01*
X112343Y339360D01*
X111442Y339478D01*
D02*
G37*
G36*
X101442D02*
X100540Y339360D01*
X99700Y339012D01*
X98979Y338458D01*
X98426Y337737D01*
X98078Y336897D01*
X97959Y335996D01*
X98078Y335095D01*
X98426Y334255D01*
X98979Y333534D01*
X99700Y332980D01*
X100540Y332632D01*
X101442Y332513D01*
X102343Y332632D01*
X103183Y332980D01*
X103904Y333534D01*
X104458Y334255D01*
X104806Y335095D01*
X104924Y335996D01*
X104806Y336897D01*
X104458Y337737D01*
X103904Y338458D01*
X103183Y339012D01*
X102343Y339360D01*
X101442Y339478D01*
D02*
G37*
G36*
X91442D02*
X90540Y339360D01*
X89701Y339012D01*
X88979Y338458D01*
X88426Y337737D01*
X88078Y336897D01*
X87959Y335996D01*
X88078Y335095D01*
X88426Y334255D01*
X88979Y333534D01*
X89701Y332980D01*
X90540Y332632D01*
X91442Y332513D01*
X92343Y332632D01*
X93183Y332980D01*
X93904Y333534D01*
X94458Y334255D01*
X94806Y335095D01*
X94924Y335996D01*
X94806Y336897D01*
X94458Y337737D01*
X93904Y338458D01*
X93183Y339012D01*
X92343Y339360D01*
X91442Y339478D01*
D02*
G37*
G36*
X391599Y332478D02*
X390698Y332360D01*
X389858Y332012D01*
X389137Y331458D01*
X388583Y330737D01*
X388235Y329897D01*
X388117Y328996D01*
X388235Y328095D01*
X388583Y327255D01*
X389137Y326534D01*
X389858Y325980D01*
X390698Y325632D01*
X391599Y325514D01*
X392501Y325632D01*
X393340Y325980D01*
X394062Y326534D01*
X394615Y327255D01*
X394963Y328095D01*
X395082Y328996D01*
X394963Y329897D01*
X394615Y330737D01*
X394062Y331458D01*
X393340Y332012D01*
X392501Y332360D01*
X391599Y332478D01*
D02*
G37*
G36*
X381599D02*
X380698Y332360D01*
X379858Y332012D01*
X379137Y331458D01*
X378583Y330737D01*
X378235Y329897D01*
X378117Y328996D01*
X378235Y328095D01*
X378583Y327255D01*
X379137Y326534D01*
X379858Y325980D01*
X380698Y325632D01*
X381599Y325514D01*
X382501Y325632D01*
X383341Y325980D01*
X384062Y326534D01*
X384615Y327255D01*
X384963Y328095D01*
X385082Y328996D01*
X384963Y329897D01*
X384615Y330737D01*
X384062Y331458D01*
X383341Y332012D01*
X382501Y332360D01*
X381599Y332478D01*
D02*
G37*
G36*
X391599Y322479D02*
X390698Y322360D01*
X389858Y322012D01*
X389137Y321459D01*
X388583Y320737D01*
X388235Y319897D01*
X388117Y318996D01*
X388235Y318095D01*
X388583Y317255D01*
X389137Y316533D01*
X389858Y315980D01*
X390698Y315632D01*
X391599Y315513D01*
X392501Y315632D01*
X393340Y315980D01*
X394062Y316533D01*
X394615Y317255D01*
X394963Y318095D01*
X395082Y318996D01*
X394963Y319897D01*
X394615Y320737D01*
X394062Y321459D01*
X393340Y322012D01*
X392501Y322360D01*
X391599Y322479D01*
D02*
G37*
G36*
X381599D02*
X380698Y322360D01*
X379858Y322012D01*
X379137Y321459D01*
X378583Y320737D01*
X378235Y319897D01*
X378117Y318996D01*
X378235Y318095D01*
X378583Y317255D01*
X379137Y316533D01*
X379858Y315980D01*
X380698Y315632D01*
X381599Y315513D01*
X382501Y315632D01*
X383341Y315980D01*
X384062Y316533D01*
X384615Y317255D01*
X384963Y318095D01*
X385082Y318996D01*
X384963Y319897D01*
X384615Y320737D01*
X384062Y321459D01*
X383341Y322012D01*
X382501Y322360D01*
X381599Y322479D01*
D02*
G37*
G36*
X391599Y312478D02*
X390698Y312360D01*
X389858Y312012D01*
X389137Y311458D01*
X388583Y310737D01*
X388235Y309897D01*
X388117Y308996D01*
X388235Y308095D01*
X388583Y307255D01*
X389137Y306534D01*
X389858Y305980D01*
X390698Y305632D01*
X391599Y305514D01*
X392501Y305632D01*
X393340Y305980D01*
X394062Y306534D01*
X394615Y307255D01*
X394963Y308095D01*
X395082Y308996D01*
X394963Y309897D01*
X394615Y310737D01*
X394062Y311458D01*
X393340Y312012D01*
X392501Y312360D01*
X391599Y312478D01*
D02*
G37*
G36*
X381599D02*
X380698Y312360D01*
X379858Y312012D01*
X379137Y311458D01*
X378583Y310737D01*
X378235Y309897D01*
X378117Y308996D01*
X378235Y308095D01*
X378583Y307255D01*
X379137Y306534D01*
X379858Y305980D01*
X380698Y305632D01*
X381599Y305514D01*
X382501Y305632D01*
X383341Y305980D01*
X384062Y306534D01*
X384615Y307255D01*
X384963Y308095D01*
X385082Y308996D01*
X384963Y309897D01*
X384615Y310737D01*
X384062Y311458D01*
X383341Y312012D01*
X382501Y312360D01*
X381599Y312478D01*
D02*
G37*
G36*
X318394Y311449D02*
X311489D01*
Y304543D01*
X318394D01*
Y311449D01*
D02*
G37*
G36*
X324942Y311478D02*
X324040Y311360D01*
X323200Y311012D01*
X322479Y310458D01*
X321926Y309737D01*
X321578Y308897D01*
X321459Y307996D01*
X321578Y307095D01*
X321926Y306255D01*
X322479Y305534D01*
X323200Y304980D01*
X324040Y304632D01*
X324942Y304514D01*
X325843Y304632D01*
X326683Y304980D01*
X327404Y305534D01*
X327958Y306255D01*
X328306Y307095D01*
X328424Y307996D01*
X328306Y308897D01*
X327958Y309737D01*
X327404Y310458D01*
X326683Y311012D01*
X325843Y311360D01*
X324942Y311478D01*
D02*
G37*
G36*
X336442Y316675D02*
X335863Y316560D01*
X335372Y316232D01*
X335044Y315741D01*
X334928Y315162D01*
X335044Y314583D01*
X335223Y314315D01*
X335238Y314248D01*
X335240Y314231D01*
X335244Y314224D01*
X335246Y314216D01*
X335255Y314204D01*
X335257Y314198D01*
X335264Y314176D01*
X335273Y314140D01*
X335280Y314104D01*
X335299Y313871D01*
X335301Y313783D01*
X335322Y313733D01*
Y306101D01*
X335301Y306054D01*
X335294Y305867D01*
X335288Y305807D01*
X335279Y305753D01*
X335270Y305711D01*
X335262Y305682D01*
X335256Y305667D01*
X335247Y305657D01*
X335244Y305648D01*
X335239Y305641D01*
X335236Y305624D01*
X335227Y305600D01*
X334944Y305175D01*
X334828Y304596D01*
X334944Y304017D01*
X335272Y303526D01*
X335763Y303198D01*
X336342Y303083D01*
X336921Y303198D01*
X337412Y303526D01*
X337740Y304017D01*
X337855Y304596D01*
X337740Y305175D01*
X337456Y305600D01*
X337448Y305624D01*
X337444Y305641D01*
X337439Y305648D01*
X337437Y305657D01*
X337428Y305667D01*
X337422Y305682D01*
X337413Y305711D01*
X337404Y305753D01*
X337397Y305800D01*
X337384Y305954D01*
X337383Y306044D01*
X337361Y306093D01*
Y313576D01*
X337379Y313608D01*
X337373Y313630D01*
X337383Y313650D01*
X337390Y313834D01*
X337397Y313889D01*
X337405Y313937D01*
X337414Y313972D01*
X337422Y313994D01*
X337422Y313994D01*
X337425Y313997D01*
X337429Y314006D01*
X337438Y314017D01*
X337441Y314028D01*
X337442Y314029D01*
X337442Y314032D01*
X337445Y314040D01*
X337449Y314050D01*
X337512Y314092D01*
X337840Y314583D01*
X337955Y315162D01*
X337840Y315741D01*
X337512Y316232D01*
X337021Y316560D01*
X336442Y316675D01*
D02*
G37*
G36*
X332342Y316909D02*
X331763Y316794D01*
X331272Y316466D01*
X330944Y315975D01*
X330828Y315396D01*
X330944Y314817D01*
X331272Y314326D01*
X331417Y314229D01*
X331391Y314096D01*
X331422Y313939D01*
Y306101D01*
X331401Y306054D01*
X331394Y305867D01*
X331388Y305807D01*
X331379Y305753D01*
X331370Y305711D01*
X331362Y305682D01*
X331356Y305667D01*
X331347Y305657D01*
X331344Y305648D01*
X331339Y305641D01*
X331335Y305624D01*
X331327Y305600D01*
X331044Y305175D01*
X330928Y304596D01*
X331044Y304017D01*
X331372Y303526D01*
X331863Y303198D01*
X332442Y303083D01*
X333021Y303198D01*
X333512Y303526D01*
X333840Y304017D01*
X333955Y304596D01*
X333840Y305175D01*
X333556Y305600D01*
X333548Y305624D01*
X333544Y305641D01*
X333540Y305648D01*
X333537Y305657D01*
X333528Y305667D01*
X333522Y305682D01*
X333513Y305711D01*
X333504Y305753D01*
X333497Y305800D01*
X333484Y305954D01*
X333483Y306044D01*
X333461Y306093D01*
Y314065D01*
X333410Y314324D01*
X333412Y314326D01*
X333740Y314817D01*
X333855Y315396D01*
X333740Y315975D01*
X333412Y316466D01*
X332921Y316794D01*
X332342Y316909D01*
D02*
G37*
G36*
X325442Y301917D02*
Y298496D01*
X328863D01*
X328793Y299028D01*
X328395Y299989D01*
X327761Y300815D01*
X326935Y301449D01*
X325974Y301847D01*
X325442Y301917D01*
D02*
G37*
G36*
X315442D02*
Y298496D01*
X318863D01*
X318793Y299028D01*
X318394Y299989D01*
X317761Y300815D01*
X316935Y301449D01*
X315974Y301847D01*
X315442Y301917D01*
D02*
G37*
G36*
X324442D02*
X323910Y301847D01*
X322948Y301449D01*
X322123Y300815D01*
X321489Y299989D01*
X321091Y299028D01*
X321021Y298496D01*
X324442D01*
Y301917D01*
D02*
G37*
G36*
X314442D02*
X313910Y301847D01*
X312948Y301449D01*
X312123Y300815D01*
X311489Y299989D01*
X311091Y299028D01*
X311021Y298496D01*
X314442D01*
Y301917D01*
D02*
G37*
G36*
X391599Y302479D02*
X390698Y302360D01*
X389858Y302012D01*
X389137Y301459D01*
X388583Y300737D01*
X388235Y299897D01*
X388117Y298996D01*
X388235Y298095D01*
X388583Y297255D01*
X389137Y296533D01*
X389858Y295980D01*
X390698Y295632D01*
X391599Y295514D01*
X392501Y295632D01*
X393340Y295980D01*
X394062Y296533D01*
X394615Y297255D01*
X394963Y298095D01*
X395082Y298996D01*
X394963Y299897D01*
X394615Y300737D01*
X394062Y301459D01*
X393340Y302012D01*
X392501Y302360D01*
X391599Y302479D01*
D02*
G37*
G36*
X381599D02*
X380698Y302360D01*
X379858Y302012D01*
X379137Y301459D01*
X378583Y300737D01*
X378235Y299897D01*
X378117Y298996D01*
X378235Y298095D01*
X378583Y297255D01*
X379137Y296533D01*
X379858Y295980D01*
X380698Y295632D01*
X381599Y295514D01*
X382501Y295632D01*
X383341Y295980D01*
X384062Y296533D01*
X384615Y297255D01*
X384963Y298095D01*
X385082Y298996D01*
X384963Y299897D01*
X384615Y300737D01*
X384062Y301459D01*
X383341Y302012D01*
X382501Y302360D01*
X381599Y302479D01*
D02*
G37*
G36*
X328863Y297496D02*
X325442D01*
Y294075D01*
X325974Y294145D01*
X326935Y294543D01*
X327761Y295177D01*
X328395Y296003D01*
X328793Y296964D01*
X328863Y297496D01*
D02*
G37*
G36*
X318863D02*
X315442D01*
Y294075D01*
X315974Y294145D01*
X316935Y294543D01*
X317761Y295177D01*
X318394Y296003D01*
X318793Y296964D01*
X318863Y297496D01*
D02*
G37*
G36*
X324442D02*
X321021D01*
X321091Y296964D01*
X321489Y296003D01*
X322123Y295177D01*
X322948Y294543D01*
X323910Y294145D01*
X324442Y294075D01*
Y297496D01*
D02*
G37*
G36*
X314442D02*
X311021D01*
X311091Y296964D01*
X311489Y296003D01*
X312123Y295177D01*
X312948Y294543D01*
X313910Y294145D01*
X314442Y294075D01*
Y297496D01*
D02*
G37*
G36*
X395052Y292449D02*
X388146D01*
Y285543D01*
X395052D01*
Y292449D01*
D02*
G37*
G36*
X381599Y292478D02*
X380698Y292360D01*
X379858Y292012D01*
X379137Y291459D01*
X378583Y290737D01*
X378235Y289897D01*
X378117Y288996D01*
X378235Y288095D01*
X378583Y287255D01*
X379137Y286533D01*
X379858Y285980D01*
X380698Y285632D01*
X381599Y285513D01*
X382501Y285632D01*
X383341Y285980D01*
X384062Y286533D01*
X384615Y287255D01*
X384963Y288095D01*
X385082Y288996D01*
X384963Y289897D01*
X384615Y290737D01*
X384062Y291459D01*
X383341Y292012D01*
X382501Y292360D01*
X381599Y292478D01*
D02*
G37*
G36*
X350733Y267723D02*
Y264500D01*
X353956D01*
X353892Y264981D01*
X353514Y265894D01*
X352912Y266679D01*
X352127Y267281D01*
X351214Y267659D01*
X350733Y267723D01*
D02*
G37*
G36*
X349733D02*
X349253Y267659D01*
X348339Y267281D01*
X347554Y266679D01*
X346952Y265894D01*
X346574Y264981D01*
X346511Y264500D01*
X349733D01*
Y267723D01*
D02*
G37*
G36*
X336442Y267284D02*
X335592Y267172D01*
X334800Y266844D01*
X334120Y266322D01*
X333598Y265642D01*
X333270Y264850D01*
X333158Y264000D01*
X333270Y263150D01*
X333598Y262358D01*
X334120Y261678D01*
X334800Y261156D01*
X335592Y260828D01*
X336442Y260716D01*
X337292Y260828D01*
X338084Y261156D01*
X338764Y261678D01*
X339286Y262358D01*
X339614Y263150D01*
X339726Y264000D01*
X339614Y264850D01*
X339286Y265642D01*
X338764Y266322D01*
X338084Y266844D01*
X337292Y267172D01*
X336442Y267284D01*
D02*
G37*
G36*
X321442D02*
X320592Y267172D01*
X319800Y266844D01*
X319120Y266322D01*
X318598Y265642D01*
X318270Y264850D01*
X318158Y264000D01*
X318270Y263150D01*
X318598Y262358D01*
X319120Y261678D01*
X319800Y261156D01*
X320592Y260828D01*
X321442Y260716D01*
X322292Y260828D01*
X323084Y261156D01*
X323764Y261678D01*
X324286Y262358D01*
X324614Y263150D01*
X324726Y264000D01*
X324614Y264850D01*
X324286Y265642D01*
X323764Y266322D01*
X323084Y266844D01*
X322292Y267172D01*
X321442Y267284D01*
D02*
G37*
G36*
X353956Y263500D02*
X350733D01*
Y260278D01*
X351214Y260341D01*
X352127Y260719D01*
X352912Y261321D01*
X353514Y262106D01*
X353892Y263019D01*
X353956Y263500D01*
D02*
G37*
G36*
X349733D02*
X346511D01*
X346574Y263019D01*
X346952Y262106D01*
X347554Y261321D01*
X348339Y260719D01*
X349253Y260341D01*
X349733Y260278D01*
Y263500D01*
D02*
G37*
G36*
X-33433Y243979D02*
X-34334Y243860D01*
X-35174Y243512D01*
X-35896Y242958D01*
X-36449Y242237D01*
X-36797Y241397D01*
X-36916Y240496D01*
X-36797Y239595D01*
X-36449Y238755D01*
X-35896Y238034D01*
X-35174Y237480D01*
X-34334Y237132D01*
X-33433Y237014D01*
X-32532Y237132D01*
X-31692Y237480D01*
X-30970Y238034D01*
X-30417Y238755D01*
X-30069Y239595D01*
X-29950Y240496D01*
X-30069Y241397D01*
X-30417Y242237D01*
X-30970Y242958D01*
X-31692Y243512D01*
X-32532Y243860D01*
X-33433Y243979D01*
D02*
G37*
G36*
X-32933Y234417D02*
Y230996D01*
X-29512D01*
X-29582Y231528D01*
X-29980Y232489D01*
X-30614Y233315D01*
X-31440Y233949D01*
X-32401Y234347D01*
X-32933Y234417D01*
D02*
G37*
G36*
X-33933D02*
X-34465Y234347D01*
X-35427Y233949D01*
X-36252Y233315D01*
X-36886Y232489D01*
X-37284Y231528D01*
X-37354Y230996D01*
X-33933D01*
Y234417D01*
D02*
G37*
G36*
X-29512Y229996D02*
X-32933D01*
Y226575D01*
X-32401Y226645D01*
X-31440Y227043D01*
X-30614Y227677D01*
X-29980Y228503D01*
X-29582Y229464D01*
X-29512Y229996D01*
D02*
G37*
G36*
X-33933D02*
X-37354D01*
X-37284Y229464D01*
X-36886Y228503D01*
X-36252Y227677D01*
X-35427Y227043D01*
X-34465Y226645D01*
X-33933Y226575D01*
Y229996D01*
D02*
G37*
G36*
X-33433Y223978D02*
X-34334Y223860D01*
X-35174Y223512D01*
X-35896Y222958D01*
X-36449Y222237D01*
X-36797Y221397D01*
X-36916Y220496D01*
X-36797Y219595D01*
X-36449Y218755D01*
X-35896Y218034D01*
X-35174Y217480D01*
X-34334Y217132D01*
X-33433Y217014D01*
X-32532Y217132D01*
X-31692Y217480D01*
X-30970Y218034D01*
X-30417Y218755D01*
X-30069Y219595D01*
X-29950Y220496D01*
X-30069Y221397D01*
X-30417Y222237D01*
X-30970Y222958D01*
X-31692Y223512D01*
X-32532Y223860D01*
X-33433Y223978D01*
D02*
G37*
G36*
X391599Y216478D02*
X390698Y216360D01*
X389858Y216012D01*
X389137Y215458D01*
X388583Y214737D01*
X388235Y213897D01*
X388117Y212996D01*
X388235Y212095D01*
X388583Y211255D01*
X389137Y210533D01*
X389858Y209980D01*
X390698Y209632D01*
X391599Y209513D01*
X392501Y209632D01*
X393340Y209980D01*
X394062Y210533D01*
X394615Y211255D01*
X394963Y212095D01*
X395082Y212996D01*
X394963Y213897D01*
X394615Y214737D01*
X394062Y215458D01*
X393340Y216012D01*
X392501Y216360D01*
X391599Y216478D01*
D02*
G37*
G36*
X381599D02*
X380698Y216360D01*
X379858Y216012D01*
X379137Y215458D01*
X378583Y214737D01*
X378235Y213897D01*
X378117Y212996D01*
X378235Y212095D01*
X378583Y211255D01*
X379137Y210533D01*
X379858Y209980D01*
X380698Y209632D01*
X381599Y209513D01*
X382501Y209632D01*
X383341Y209980D01*
X384062Y210533D01*
X384615Y211255D01*
X384963Y212095D01*
X385082Y212996D01*
X384963Y213897D01*
X384615Y214737D01*
X384062Y215458D01*
X383341Y216012D01*
X382501Y216360D01*
X381599Y216478D01*
D02*
G37*
G36*
X-33433Y213979D02*
X-34334Y213860D01*
X-35174Y213512D01*
X-35896Y212959D01*
X-36449Y212237D01*
X-36797Y211397D01*
X-36916Y210496D01*
X-36797Y209595D01*
X-36449Y208755D01*
X-35896Y208033D01*
X-35174Y207480D01*
X-34334Y207132D01*
X-33433Y207014D01*
X-32532Y207132D01*
X-31692Y207480D01*
X-30970Y208033D01*
X-30417Y208755D01*
X-30069Y209595D01*
X-29950Y210496D01*
X-30069Y211397D01*
X-30417Y212237D01*
X-30970Y212959D01*
X-31692Y213512D01*
X-32532Y213860D01*
X-33433Y213979D01*
D02*
G37*
G36*
X358142Y220909D02*
X357563Y220794D01*
X357072Y220466D01*
X356744Y219975D01*
X356628Y219396D01*
X356744Y218817D01*
X357032Y218385D01*
X357039Y218365D01*
X357043Y218347D01*
X357048Y218340D01*
X357051Y218331D01*
X357059Y218321D01*
X357065Y218307D01*
X357074Y218278D01*
X357083Y218236D01*
X357090Y218189D01*
X357103Y218036D01*
X357104Y217946D01*
X357126Y217896D01*
Y203116D01*
X357105Y203069D01*
X357098Y202881D01*
X357092Y202821D01*
X357083Y202767D01*
X357074Y202725D01*
X357065Y202696D01*
X357059Y202680D01*
X357050Y202670D01*
X357047Y202661D01*
X357043Y202654D01*
X357039Y202637D01*
X357030Y202610D01*
X356751Y202192D01*
X356636Y201613D01*
X356751Y201034D01*
X357079Y200543D01*
X357570Y200215D01*
X358149Y200100D01*
X358728Y200215D01*
X359219Y200543D01*
X359547Y201034D01*
X359662Y201613D01*
X359547Y202192D01*
X359259Y202624D01*
X359252Y202645D01*
X359248Y202662D01*
X359243Y202669D01*
X359240Y202678D01*
X359231Y202688D01*
X359226Y202702D01*
X359217Y202731D01*
X359208Y202773D01*
X359200Y202820D01*
X359188Y202974D01*
X359187Y203064D01*
X359165Y203113D01*
Y217894D01*
X359186Y217940D01*
X359193Y218128D01*
X359199Y218188D01*
X359208Y218242D01*
X359217Y218284D01*
X359226Y218314D01*
X359232Y218329D01*
X359241Y218339D01*
X359243Y218348D01*
X359248Y218355D01*
X359252Y218372D01*
X359261Y218399D01*
X359540Y218817D01*
X359655Y219396D01*
X359540Y219975D01*
X359212Y220466D01*
X358721Y220794D01*
X358142Y220909D01*
D02*
G37*
G36*
X391599Y206479D02*
X390698Y206360D01*
X389858Y206012D01*
X389137Y205458D01*
X388583Y204737D01*
X388235Y203897D01*
X388117Y202996D01*
X388235Y202095D01*
X388583Y201255D01*
X389137Y200534D01*
X389858Y199980D01*
X390698Y199632D01*
X391599Y199513D01*
X392501Y199632D01*
X393340Y199980D01*
X394062Y200534D01*
X394615Y201255D01*
X394963Y202095D01*
X395082Y202996D01*
X394963Y203897D01*
X394615Y204737D01*
X394062Y205458D01*
X393340Y206012D01*
X392501Y206360D01*
X391599Y206479D01*
D02*
G37*
G36*
X381599D02*
X380698Y206360D01*
X379858Y206012D01*
X379137Y205458D01*
X378583Y204737D01*
X378235Y203897D01*
X378117Y202996D01*
X378235Y202095D01*
X378583Y201255D01*
X379137Y200534D01*
X379858Y199980D01*
X380698Y199632D01*
X381599Y199513D01*
X382501Y199632D01*
X383341Y199980D01*
X384062Y200534D01*
X384615Y201255D01*
X384963Y202095D01*
X385082Y202996D01*
X384963Y203897D01*
X384615Y204737D01*
X384062Y205458D01*
X383341Y206012D01*
X382501Y206360D01*
X381599Y206479D01*
D02*
G37*
G36*
X-33433Y203978D02*
X-34334Y203860D01*
X-35174Y203512D01*
X-35896Y202958D01*
X-36449Y202237D01*
X-36797Y201397D01*
X-36916Y200496D01*
X-36797Y199595D01*
X-36449Y198755D01*
X-35896Y198033D01*
X-35174Y197480D01*
X-34334Y197132D01*
X-33433Y197013D01*
X-32532Y197132D01*
X-31692Y197480D01*
X-30970Y198033D01*
X-30417Y198755D01*
X-30069Y199595D01*
X-29950Y200496D01*
X-30069Y201397D01*
X-30417Y202237D01*
X-30970Y202958D01*
X-31692Y203512D01*
X-32532Y203860D01*
X-33433Y203978D01*
D02*
G37*
G36*
X344800Y190513D02*
X344221Y190398D01*
X343796Y190114D01*
X343772Y190106D01*
X343755Y190103D01*
X343748Y190098D01*
X343739Y190095D01*
X343729Y190086D01*
X343714Y190080D01*
X343685Y190072D01*
X343643Y190062D01*
X343596Y190055D01*
X343442Y190043D01*
X343352Y190041D01*
X343303Y190020D01*
X322275D01*
X322229Y190041D01*
X322041Y190048D01*
X321981Y190054D01*
X321927Y190062D01*
X321885Y190071D01*
X321855Y190080D01*
X321840Y190086D01*
X321830Y190095D01*
X321821Y190098D01*
X321814Y190103D01*
X321797Y190106D01*
X321769Y190115D01*
X321352Y190394D01*
X320773Y190509D01*
X320194Y190394D01*
X319703Y190066D01*
X319375Y189575D01*
X319260Y188996D01*
X319375Y188417D01*
X319703Y187926D01*
X320194Y187598D01*
X320773Y187483D01*
X321352Y187598D01*
X321396Y187627D01*
X321846Y187326D01*
X321780Y186996D01*
X321896Y186417D01*
X322224Y185926D01*
X322715Y185598D01*
X323294Y185483D01*
X323873Y185598D01*
X324305Y185887D01*
X324325Y185894D01*
X324343Y185897D01*
X324350Y185902D01*
X324359Y185906D01*
X324369Y185914D01*
X324383Y185920D01*
X324412Y185928D01*
X324454Y185938D01*
X324501Y185945D01*
X324654Y185957D01*
X324744Y185959D01*
X324794Y185980D01*
X345195D01*
X345242Y185959D01*
X345429Y185952D01*
X345489Y185946D01*
X345543Y185938D01*
X345585Y185928D01*
X345614Y185920D01*
X345629Y185914D01*
X345639Y185905D01*
X345648Y185902D01*
X345655Y185897D01*
X345672Y185894D01*
X345696Y185886D01*
X346121Y185602D01*
X346700Y185487D01*
X347279Y185602D01*
X347770Y185930D01*
X348098Y186421D01*
X348213Y187000D01*
X348098Y187579D01*
X347770Y188070D01*
X347279Y188398D01*
X346700Y188513D01*
X346302Y188944D01*
X346313Y189000D01*
X346198Y189579D01*
X345870Y190070D01*
X345379Y190398D01*
X344800Y190513D01*
D02*
G37*
G36*
X391599Y196478D02*
X390698Y196360D01*
X389858Y196012D01*
X389137Y195458D01*
X388583Y194737D01*
X388235Y193897D01*
X388117Y192996D01*
X388235Y192095D01*
X388583Y191255D01*
X389137Y190533D01*
X389858Y189980D01*
X390698Y189632D01*
X391599Y189513D01*
X392501Y189632D01*
X393340Y189980D01*
X394062Y190533D01*
X394615Y191255D01*
X394963Y192095D01*
X395082Y192996D01*
X394963Y193897D01*
X394615Y194737D01*
X394062Y195458D01*
X393340Y196012D01*
X392501Y196360D01*
X391599Y196478D01*
D02*
G37*
G36*
X381599D02*
X380698Y196360D01*
X379858Y196012D01*
X379137Y195458D01*
X378583Y194737D01*
X378235Y193897D01*
X378117Y192996D01*
X378235Y192095D01*
X378583Y191255D01*
X379137Y190533D01*
X379858Y189980D01*
X380698Y189632D01*
X381599Y189513D01*
X382501Y189632D01*
X383341Y189980D01*
X384062Y190533D01*
X384615Y191255D01*
X384963Y192095D01*
X385082Y192996D01*
X384963Y193897D01*
X384615Y194737D01*
X384062Y195458D01*
X383341Y196012D01*
X382501Y196360D01*
X381599Y196478D01*
D02*
G37*
G36*
X-29980Y193949D02*
X-36886D01*
Y187043D01*
X-29980D01*
Y193949D01*
D02*
G37*
G36*
X395052Y186449D02*
X388146D01*
Y179543D01*
X395052D01*
Y186449D01*
D02*
G37*
G36*
X381599Y186478D02*
X380698Y186360D01*
X379858Y186012D01*
X379137Y185459D01*
X378583Y184737D01*
X378235Y183897D01*
X378117Y182996D01*
X378235Y182095D01*
X378583Y181255D01*
X379137Y180534D01*
X379858Y179980D01*
X380698Y179632D01*
X381599Y179513D01*
X382501Y179632D01*
X383341Y179980D01*
X384062Y180534D01*
X384615Y181255D01*
X384963Y182095D01*
X385082Y182996D01*
X384963Y183897D01*
X384615Y184737D01*
X384062Y185459D01*
X383341Y186012D01*
X382501Y186360D01*
X381599Y186478D01*
D02*
G37*
G36*
X376642Y176325D02*
X371042D01*
X370457Y176209D01*
X369960Y175877D01*
X369629Y175381D01*
X369512Y174796D01*
X369629Y174211D01*
X369960Y173715D01*
X370457Y173383D01*
X371042Y173267D01*
X376008D01*
X376860Y172415D01*
X377357Y172083D01*
X377942Y171967D01*
X384842D01*
X385427Y172083D01*
X385923Y172415D01*
X386255Y172911D01*
X386371Y173496D01*
X386255Y174081D01*
X385923Y174577D01*
X385427Y174909D01*
X384842Y175025D01*
X378575D01*
X377723Y175877D01*
X377227Y176209D01*
X376642Y176325D01*
D02*
G37*
G36*
X-5300Y162513D02*
X-5879Y162398D01*
X-6370Y162070D01*
X-6399Y162026D01*
X-7001D01*
X-7030Y162070D01*
X-7521Y162398D01*
X-8100Y162513D01*
X-8679Y162398D01*
X-9170Y162070D01*
X-9200Y162025D01*
X-9700D01*
X-9730Y162070D01*
X-10221Y162398D01*
X-10800Y162513D01*
X-11379Y162398D01*
X-11870Y162070D01*
X-12198Y161579D01*
X-12313Y161000D01*
X-12198Y160421D01*
X-11914Y159996D01*
X-11906Y159972D01*
X-11903Y159955D01*
X-11898Y159948D01*
X-11895Y159939D01*
X-11886Y159929D01*
X-11880Y159914D01*
X-11872Y159885D01*
X-11862Y159843D01*
X-11855Y159796D01*
X-11843Y159642D01*
X-11841Y159552D01*
X-11820Y159503D01*
Y139205D01*
X-11841Y139158D01*
X-11848Y138971D01*
X-11854Y138911D01*
X-11862Y138857D01*
X-11872Y138815D01*
X-11880Y138786D01*
X-11886Y138771D01*
X-11895Y138761D01*
X-11898Y138752D01*
X-11903Y138745D01*
X-11906Y138728D01*
X-11914Y138704D01*
X-12198Y138279D01*
X-12313Y137700D01*
X-12198Y137121D01*
X-11870Y136630D01*
X-11379Y136302D01*
X-10800Y136187D01*
X-10221Y136302D01*
X-9730Y136630D01*
X-9402Y137121D01*
X-9287Y137700D01*
X-9402Y138279D01*
X-9517Y138452D01*
X-9483Y138566D01*
X-8905Y138753D01*
X-8679Y138602D01*
X-8100Y138487D01*
X-7521Y138602D01*
X-7030Y138930D01*
X-6702Y139421D01*
X-6587Y140000D01*
X-6702Y140579D01*
X-6924Y140911D01*
X-6900Y141124D01*
X-6417Y141242D01*
X-6370Y141230D01*
X-5879Y140902D01*
X-5300Y140787D01*
X-4721Y140902D01*
X-4230Y141230D01*
X-3902Y141721D01*
X-3787Y142300D01*
X-3902Y142879D01*
X-4186Y143304D01*
X-4194Y143328D01*
X-4197Y143345D01*
X-4202Y143352D01*
X-4205Y143361D01*
X-4214Y143371D01*
X-4220Y143386D01*
X-4228Y143415D01*
X-4238Y143457D01*
X-4245Y143504D01*
X-4257Y143658D01*
X-4259Y143748D01*
X-4280Y143797D01*
Y159495D01*
X-4259Y159542D01*
X-4252Y159729D01*
X-4246Y159789D01*
X-4238Y159843D01*
X-4228Y159885D01*
X-4220Y159914D01*
X-4214Y159929D01*
X-4205Y159939D01*
X-4202Y159948D01*
X-4197Y159955D01*
X-4194Y159972D01*
X-4186Y159996D01*
X-3902Y160421D01*
X-3787Y161000D01*
X-3902Y161579D01*
X-4230Y162070D01*
X-4721Y162398D01*
X-5300Y162513D01*
D02*
G37*
G36*
X374442Y170025D02*
X373863Y169910D01*
X373372Y169582D01*
X373044Y169091D01*
X372928Y168512D01*
X373044Y167933D01*
X373372Y167442D01*
X373863Y167114D01*
X374363Y167014D01*
X374386Y167003D01*
X374401Y166993D01*
X374409Y166991D01*
X374418Y166987D01*
X374431Y166987D01*
X374446Y166980D01*
X374472Y166966D01*
X374509Y166943D01*
X374548Y166914D01*
X374665Y166814D01*
X374729Y166752D01*
X374780Y166732D01*
X375906Y165605D01*
Y162408D01*
X375891Y162382D01*
X375900Y162346D01*
X375885Y162312D01*
X375883Y162219D01*
X375878Y162147D01*
X375871Y162087D01*
X375862Y162040D01*
X375853Y162007D01*
X375848Y161990D01*
X375847Y161990D01*
X375843Y161982D01*
X375833Y161969D01*
X375830Y161958D01*
X375827Y161955D01*
X375826Y161947D01*
X375825Y161944D01*
X375818Y161929D01*
X375730Y161870D01*
X375402Y161379D01*
X375287Y160800D01*
X375402Y160221D01*
X375730Y159730D01*
X376221Y159402D01*
X376800Y159287D01*
X377379Y159402D01*
X377870Y159730D01*
X378198Y160221D01*
X378313Y160800D01*
X378198Y161379D01*
X378041Y161614D01*
X378028Y161680D01*
X378026Y161699D01*
X378022Y161706D01*
X378021Y161714D01*
X378012Y161726D01*
X378010Y161733D01*
X378002Y161757D01*
X377994Y161794D01*
X377987Y161833D01*
X377968Y162068D01*
X377967Y162157D01*
X377946Y162208D01*
Y166027D01*
X377868Y166418D01*
X377647Y166748D01*
X376227Y168169D01*
X376209Y168217D01*
X376081Y168354D01*
X376043Y168401D01*
X376011Y168445D01*
X375988Y168481D01*
X375973Y168508D01*
X375967Y168523D01*
X375966Y168536D01*
X375962Y168544D01*
X375960Y168553D01*
X375951Y168567D01*
X375939Y168590D01*
X375840Y169091D01*
X375512Y169582D01*
X375021Y169910D01*
X374442Y170025D01*
D02*
G37*
G36*
X408026Y142039D02*
X390105D01*
X389728Y141964D01*
X389350Y141894D01*
X389339Y141887D01*
X389325Y141884D01*
X389005Y141670D01*
X388683Y141461D01*
X384679Y137562D01*
X384228Y136907D01*
X384062Y136128D01*
X384207Y135346D01*
X384640Y134679D01*
X385296Y134228D01*
X386074Y134062D01*
X386856Y134207D01*
X387524Y134640D01*
X390934Y137961D01*
X408026D01*
X408807Y138116D01*
X409468Y138558D01*
X409910Y139220D01*
X410066Y140000D01*
X409910Y140780D01*
X409468Y141442D01*
X408807Y141884D01*
X408026Y142039D01*
D02*
G37*
G36*
X-23700Y148213D02*
X-24279Y148098D01*
X-24770Y147770D01*
X-25098Y147279D01*
X-25213Y146700D01*
X-25098Y146121D01*
X-24814Y145696D01*
X-24806Y145672D01*
X-24803Y145655D01*
X-24798Y145648D01*
X-24795Y145639D01*
X-24786Y145629D01*
X-24780Y145614D01*
X-24772Y145585D01*
X-24762Y145543D01*
X-24755Y145496D01*
X-24743Y145342D01*
X-24741Y145252D01*
X-24720Y145203D01*
Y142400D01*
X-24642Y142010D01*
X-24421Y141679D01*
X-18085Y135343D01*
X-18067Y135295D01*
X-17939Y135158D01*
X-17901Y135111D01*
X-17869Y135067D01*
X-17846Y135031D01*
X-17832Y135004D01*
X-17825Y134989D01*
X-17824Y134976D01*
X-17820Y134968D01*
X-17819Y134959D01*
X-17809Y134944D01*
X-17798Y134922D01*
X-17698Y134421D01*
X-17370Y133930D01*
X-16879Y133602D01*
X-16300Y133487D01*
X-15721Y133602D01*
X-15230Y133930D01*
X-14902Y134421D01*
X-14787Y135000D01*
X-14902Y135579D01*
X-15230Y136070D01*
X-15721Y136398D01*
X-16222Y136498D01*
X-16244Y136509D01*
X-16259Y136519D01*
X-16268Y136520D01*
X-16276Y136524D01*
X-16289Y136525D01*
X-16304Y136532D01*
X-16331Y136546D01*
X-16367Y136569D01*
X-16406Y136598D01*
X-16523Y136698D01*
X-16588Y136760D01*
X-16638Y136780D01*
X-22680Y142822D01*
Y145195D01*
X-22659Y145242D01*
X-22652Y145429D01*
X-22646Y145489D01*
X-22638Y145543D01*
X-22628Y145585D01*
X-22620Y145614D01*
X-22614Y145629D01*
X-22605Y145639D01*
X-22602Y145648D01*
X-22597Y145655D01*
X-22594Y145672D01*
X-22586Y145696D01*
X-22302Y146121D01*
X-22187Y146700D01*
X-22302Y147279D01*
X-22630Y147770D01*
X-23121Y148098D01*
X-23700Y148213D01*
D02*
G37*
G36*
X318394Y136449D02*
X311489D01*
Y129543D01*
X318394D01*
Y136449D01*
D02*
G37*
G36*
X324942Y136478D02*
X324040Y136360D01*
X323200Y136012D01*
X322479Y135459D01*
X321926Y134737D01*
X321578Y133897D01*
X321459Y132996D01*
X321578Y132095D01*
X321926Y131255D01*
X322479Y130534D01*
X323200Y129980D01*
X324040Y129632D01*
X324942Y129513D01*
X325843Y129632D01*
X326683Y129980D01*
X327404Y130534D01*
X327958Y131255D01*
X328306Y132095D01*
X328424Y132996D01*
X328306Y133897D01*
X327958Y134737D01*
X327404Y135459D01*
X326683Y136012D01*
X325843Y136360D01*
X324942Y136478D01*
D02*
G37*
G36*
X325442Y126917D02*
Y123496D01*
X328863D01*
X328793Y124028D01*
X328395Y124989D01*
X327761Y125815D01*
X326935Y126449D01*
X325974Y126847D01*
X325442Y126917D01*
D02*
G37*
G36*
X315442D02*
Y123496D01*
X318863D01*
X318793Y124028D01*
X318394Y124989D01*
X317761Y125815D01*
X316935Y126449D01*
X315974Y126847D01*
X315442Y126917D01*
D02*
G37*
G36*
X324442D02*
X323910Y126847D01*
X322948Y126449D01*
X322123Y125815D01*
X321489Y124989D01*
X321091Y124028D01*
X321021Y123496D01*
X324442D01*
Y126917D01*
D02*
G37*
G36*
X416399Y123013D02*
X415820Y122898D01*
X415395Y122614D01*
X415371Y122606D01*
X415354Y122603D01*
X415347Y122598D01*
X415338Y122595D01*
X415328Y122586D01*
X415313Y122580D01*
X415284Y122572D01*
X415242Y122562D01*
X415194Y122555D01*
X415040Y122543D01*
X414951Y122541D01*
X414901Y122520D01*
X394705D01*
X394658Y122541D01*
X394471Y122548D01*
X394411Y122554D01*
X394357Y122562D01*
X394315Y122572D01*
X394286Y122580D01*
X394271Y122586D01*
X394261Y122595D01*
X394252Y122598D01*
X394245Y122603D01*
X394228Y122606D01*
X394204Y122614D01*
X393779Y122898D01*
X393200Y123013D01*
X392621Y122898D01*
X392130Y122570D01*
X391802Y122079D01*
X391687Y121500D01*
X391802Y120921D01*
X392130Y120430D01*
X392249Y120351D01*
Y119749D01*
X392130Y119670D01*
X391802Y119179D01*
X391687Y118600D01*
X391802Y118021D01*
X392130Y117530D01*
X392174Y117501D01*
Y116899D01*
X392130Y116870D01*
X391802Y116379D01*
X391687Y115800D01*
X391802Y115221D01*
X392130Y114730D01*
X392249Y114651D01*
Y114049D01*
X392130Y113970D01*
X391802Y113479D01*
X391687Y112900D01*
X391802Y112321D01*
X392130Y111830D01*
X392621Y111502D01*
X393200Y111387D01*
X393779Y111502D01*
X394204Y111786D01*
X394228Y111794D01*
X394245Y111797D01*
X394252Y111802D01*
X394261Y111805D01*
X394271Y111814D01*
X394286Y111820D01*
X394315Y111828D01*
X394357Y111838D01*
X394404Y111845D01*
X394558Y111857D01*
X394648Y111859D01*
X394697Y111880D01*
X414894D01*
X414941Y111859D01*
X415128Y111852D01*
X415188Y111846D01*
X415242Y111838D01*
X415284Y111828D01*
X415313Y111820D01*
X415328Y111814D01*
X415338Y111805D01*
X415347Y111802D01*
X415354Y111797D01*
X415371Y111794D01*
X415395Y111786D01*
X415820Y111502D01*
X416399Y111387D01*
X416978Y111502D01*
X417469Y111830D01*
X417797Y112321D01*
X417912Y112900D01*
X417797Y113479D01*
X417469Y113970D01*
X417350Y114049D01*
Y114651D01*
X417469Y114730D01*
X417797Y115221D01*
X417912Y115800D01*
X417797Y116379D01*
X417469Y116870D01*
X417425Y116899D01*
Y117501D01*
X417469Y117530D01*
X417797Y118021D01*
X417912Y118600D01*
X417797Y119179D01*
X417469Y119670D01*
X417350Y119749D01*
Y120351D01*
X417469Y120430D01*
X417797Y120921D01*
X417912Y121500D01*
X417797Y122079D01*
X417469Y122570D01*
X416978Y122898D01*
X416399Y123013D01*
D02*
G37*
G36*
X328863Y122496D02*
X325442D01*
Y119075D01*
X325974Y119145D01*
X326935Y119543D01*
X327761Y120177D01*
X328395Y121003D01*
X328793Y121964D01*
X328863Y122496D01*
D02*
G37*
G36*
X324442D02*
X321021D01*
X321091Y121964D01*
X321489Y121003D01*
X322123Y120177D01*
X322948Y119543D01*
X323910Y119145D01*
X324442Y119075D01*
Y122496D01*
D02*
G37*
G36*
X289000Y119013D02*
X288421Y118898D01*
X287930Y118570D01*
X287602Y118079D01*
X287487Y117500D01*
X287602Y116921D01*
X287736Y116720D01*
X287469Y116220D01*
X287205D01*
X287158Y116241D01*
X286971Y116248D01*
X286911Y116254D01*
X286857Y116262D01*
X286815Y116272D01*
X286786Y116280D01*
X286771Y116286D01*
X286761Y116295D01*
X286752Y116298D01*
X286745Y116303D01*
X286728Y116306D01*
X286704Y116314D01*
X286279Y116598D01*
X285700Y116713D01*
X285121Y116598D01*
X284630Y116270D01*
X284302Y115779D01*
X284187Y115200D01*
X284302Y114621D01*
X284630Y114130D01*
X285121Y113802D01*
X285598Y113707D01*
X285706Y113676D01*
X285974Y113232D01*
X285928Y113000D01*
X286044Y112421D01*
X286372Y111930D01*
X286863Y111602D01*
X287442Y111487D01*
X288021Y111602D01*
X288445Y111886D01*
X288469Y111894D01*
X288486Y111897D01*
X288494Y111902D01*
X288503Y111905D01*
X288512Y111914D01*
X288528Y111920D01*
X288557Y111928D01*
X288599Y111938D01*
X288646Y111945D01*
X288800Y111957D01*
X288890Y111959D01*
X288939Y111980D01*
X291697D01*
X306598Y97079D01*
X306929Y96858D01*
X307319Y96780D01*
X320678D01*
X332996Y84462D01*
Y63012D01*
X333074Y62622D01*
X333295Y62291D01*
X335080Y60506D01*
Y44505D01*
X335059Y44458D01*
X335052Y44271D01*
X335046Y44211D01*
X335038Y44157D01*
X335028Y44115D01*
X335020Y44086D01*
X335014Y44071D01*
X335005Y44061D01*
X335002Y44052D01*
X334997Y44045D01*
X334994Y44028D01*
X334986Y44004D01*
X334702Y43579D01*
X334587Y43000D01*
X334702Y42421D01*
X335030Y41930D01*
X335521Y41602D01*
X336100Y41487D01*
X336679Y41602D01*
X337170Y41930D01*
X337498Y42421D01*
X337613Y43000D01*
X337498Y43579D01*
X337214Y44004D01*
X337206Y44028D01*
X337203Y44045D01*
X337198Y44052D01*
X337195Y44061D01*
X337186Y44071D01*
X337180Y44086D01*
X337172Y44115D01*
X337162Y44157D01*
X337155Y44204D01*
X337143Y44358D01*
X337141Y44448D01*
X337120Y44497D01*
Y60928D01*
X337042Y61318D01*
X336821Y61649D01*
X335035Y63435D01*
Y64704D01*
X335535Y64979D01*
X336000Y64887D01*
X336579Y65002D01*
X337070Y65330D01*
X337398Y65821D01*
X337513Y66400D01*
X337398Y66979D01*
X337114Y67404D01*
X337106Y67428D01*
X337103Y67445D01*
X337098Y67452D01*
X337095Y67461D01*
X337086Y67471D01*
X337080Y67486D01*
X337072Y67515D01*
X337062Y67557D01*
X337055Y67604D01*
X337043Y67758D01*
X337041Y67848D01*
X337020Y67897D01*
Y84123D01*
X337481Y84314D01*
X340680Y81115D01*
Y79805D01*
X340659Y79758D01*
X340652Y79571D01*
X340646Y79511D01*
X340638Y79457D01*
X340628Y79415D01*
X340620Y79386D01*
X340614Y79371D01*
X340605Y79361D01*
X340602Y79352D01*
X340597Y79345D01*
X340594Y79328D01*
X340586Y79304D01*
X340302Y78879D01*
X340187Y78300D01*
X340302Y77721D01*
X340630Y77230D01*
X341121Y76902D01*
X341700Y76787D01*
X342279Y76902D01*
X342770Y77230D01*
X343098Y77721D01*
X343213Y78300D01*
X343098Y78879D01*
X342814Y79304D01*
X342806Y79328D01*
X342803Y79345D01*
X342798Y79352D01*
X342795Y79361D01*
X342786Y79371D01*
X342780Y79386D01*
X342772Y79415D01*
X342762Y79457D01*
X342755Y79504D01*
X342743Y79658D01*
X342741Y79748D01*
X342720Y79797D01*
Y81538D01*
X342642Y81928D01*
X342421Y82259D01*
X322759Y101921D01*
X322428Y102142D01*
X322038Y102220D01*
X308760D01*
X292759Y118221D01*
X292428Y118442D01*
X292038Y118520D01*
X290505D01*
X290458Y118541D01*
X290271Y118548D01*
X290211Y118554D01*
X290157Y118562D01*
X290115Y118572D01*
X290086Y118580D01*
X290071Y118586D01*
X290061Y118595D01*
X290052Y118598D01*
X290045Y118603D01*
X290028Y118606D01*
X290004Y118614D01*
X289579Y118898D01*
X289000Y119013D01*
D02*
G37*
G36*
X289300Y134913D02*
X288721Y134798D01*
X288230Y134470D01*
X287902Y133979D01*
X287787Y133400D01*
X287902Y132821D01*
X288230Y132330D01*
X288721Y132002D01*
X289300Y131887D01*
X289879Y132002D01*
X290304Y132286D01*
X290328Y132294D01*
X290345Y132297D01*
X290352Y132302D01*
X290361Y132305D01*
X290371Y132314D01*
X290386Y132320D01*
X290415Y132328D01*
X290457Y132338D01*
X290504Y132345D01*
X290658Y132357D01*
X290748Y132359D01*
X290797Y132380D01*
X298525D01*
X314927Y115979D01*
X315258Y115758D01*
X315648Y115680D01*
X323909D01*
X323949Y115620D01*
X323682Y115120D01*
X312441D01*
X297540Y130021D01*
X297209Y130242D01*
X296819Y130320D01*
X290805D01*
X290758Y130341D01*
X290571Y130348D01*
X290511Y130354D01*
X290457Y130362D01*
X290415Y130372D01*
X290386Y130380D01*
X290371Y130386D01*
X290361Y130395D01*
X290352Y130398D01*
X290345Y130403D01*
X290328Y130406D01*
X290304Y130414D01*
X289879Y130698D01*
X289300Y130813D01*
X288721Y130698D01*
X288230Y130370D01*
X287902Y129879D01*
X287787Y129300D01*
X287902Y128721D01*
X288230Y128230D01*
X288721Y127902D01*
X289300Y127787D01*
X289879Y127902D01*
X290304Y128186D01*
X290328Y128194D01*
X290345Y128197D01*
X290352Y128202D01*
X290361Y128205D01*
X290371Y128214D01*
X290386Y128220D01*
X290415Y128228D01*
X290457Y128238D01*
X290504Y128245D01*
X290658Y128257D01*
X290748Y128259D01*
X290797Y128280D01*
X296397D01*
X311298Y113379D01*
X311629Y113158D01*
X312019Y113080D01*
X323796D01*
X323837Y113020D01*
X323570Y112520D01*
X309724D01*
X296223Y126021D01*
X295892Y126242D01*
X295502Y126320D01*
X290805D01*
X290758Y126341D01*
X290571Y126348D01*
X290511Y126354D01*
X290457Y126362D01*
X290415Y126372D01*
X290386Y126380D01*
X290371Y126386D01*
X290361Y126395D01*
X290352Y126398D01*
X290345Y126403D01*
X290328Y126406D01*
X290304Y126414D01*
X289879Y126698D01*
X289300Y126813D01*
X288721Y126698D01*
X288230Y126370D01*
X287902Y125879D01*
X287787Y125300D01*
X287902Y124721D01*
X288230Y124230D01*
X288721Y123902D01*
X289300Y123787D01*
X289879Y123902D01*
X290304Y124186D01*
X290328Y124194D01*
X290345Y124197D01*
X290352Y124202D01*
X290361Y124205D01*
X290371Y124214D01*
X290386Y124220D01*
X290415Y124228D01*
X290457Y124238D01*
X290504Y124245D01*
X290658Y124257D01*
X290748Y124259D01*
X290797Y124280D01*
X295080D01*
X308581Y110779D01*
X308912Y110558D01*
X309302Y110480D01*
X324176D01*
X324217Y110420D01*
X323950Y109920D01*
X308122D01*
X295821Y122221D01*
X295490Y122442D01*
X295100Y122520D01*
X290705D01*
X290658Y122541D01*
X290471Y122548D01*
X290411Y122554D01*
X290357Y122562D01*
X290315Y122572D01*
X290286Y122580D01*
X290271Y122586D01*
X290261Y122595D01*
X290252Y122598D01*
X290245Y122603D01*
X290228Y122606D01*
X290204Y122614D01*
X289779Y122898D01*
X289200Y123013D01*
X288621Y122898D01*
X288130Y122570D01*
X287802Y122079D01*
X287687Y121500D01*
X287802Y120921D01*
X288130Y120430D01*
X288621Y120102D01*
X289200Y119987D01*
X289779Y120102D01*
X290204Y120386D01*
X290228Y120394D01*
X290245Y120397D01*
X290252Y120402D01*
X290261Y120405D01*
X290271Y120414D01*
X290286Y120420D01*
X290315Y120428D01*
X290357Y120438D01*
X290404Y120445D01*
X290558Y120457D01*
X290648Y120459D01*
X290697Y120480D01*
X294678D01*
X306979Y108179D01*
X307310Y107958D01*
X307700Y107880D01*
X324978D01*
X336370Y96488D01*
X336380Y96453D01*
X336403Y96440D01*
X336413Y96415D01*
X336477Y96347D01*
X336521Y96297D01*
X336542Y96270D01*
X336428Y95700D01*
X336544Y95121D01*
X336872Y94630D01*
X337363Y94302D01*
X337942Y94187D01*
X338459Y94290D01*
X338538Y94291D01*
X338986Y94011D01*
X339044Y93721D01*
X339372Y93230D01*
X339863Y92902D01*
X340442Y92787D01*
X341021Y92902D01*
X341512Y93230D01*
X341840Y93721D01*
X341898Y94011D01*
X342346Y94291D01*
X342424Y94290D01*
X342942Y94187D01*
X343419Y94282D01*
X343542Y94287D01*
X343949Y93987D01*
X344002Y93721D01*
X344330Y93230D01*
X344821Y92902D01*
X345400Y92787D01*
X345979Y92902D01*
X346470Y93230D01*
X346798Y93721D01*
X346913Y94300D01*
X346798Y94879D01*
X346514Y95304D01*
X346506Y95328D01*
X346503Y95345D01*
X346498Y95352D01*
X346495Y95361D01*
X346486Y95371D01*
X346480Y95386D01*
X346472Y95415D01*
X346462Y95457D01*
X346455Y95504D01*
X346443Y95658D01*
X346441Y95748D01*
X346420Y95797D01*
Y96086D01*
X346342Y96476D01*
X346121Y96807D01*
X325507Y117421D01*
X325176Y117642D01*
X324786Y117720D01*
X316070D01*
X315245Y118545D01*
X315424Y119073D01*
X315974Y119145D01*
X316935Y119543D01*
X317761Y120177D01*
X318394Y121003D01*
X318793Y121964D01*
X318863Y122496D01*
X314942D01*
Y122996D01*
X314442D01*
Y126917D01*
X313910Y126847D01*
X312948Y126449D01*
X312123Y125815D01*
X311489Y124989D01*
X311091Y124028D01*
X311018Y123478D01*
X310490Y123299D01*
X299669Y134121D01*
X299338Y134342D01*
X298948Y134420D01*
X290805D01*
X290758Y134441D01*
X290571Y134448D01*
X290511Y134454D01*
X290457Y134462D01*
X290415Y134472D01*
X290386Y134480D01*
X290371Y134486D01*
X290361Y134495D01*
X290352Y134498D01*
X290345Y134503D01*
X290328Y134506D01*
X290304Y134514D01*
X289879Y134798D01*
X289300Y134913D01*
D02*
G37*
G36*
X340123Y164809D02*
X339544Y164694D01*
X339053Y164366D01*
X338725Y163875D01*
X338610Y163296D01*
X338725Y162717D01*
X339009Y162292D01*
X339017Y162268D01*
X339020Y162251D01*
X339025Y162244D01*
X339028Y162235D01*
X339037Y162225D01*
X339043Y162210D01*
X339051Y162181D01*
X339061Y162139D01*
X339068Y162092D01*
X339080Y161938D01*
X339082Y161848D01*
X339103Y161799D01*
Y146501D01*
X339082Y146454D01*
X339075Y146266D01*
X339069Y146207D01*
X339061Y146153D01*
X339051Y146111D01*
X339043Y146082D01*
X339037Y146067D01*
X339028Y146057D01*
X339025Y146048D01*
X339020Y146041D01*
X339017Y146024D01*
X339009Y146000D01*
X338725Y145575D01*
X338610Y144996D01*
X338655Y144769D01*
X338650Y144751D01*
X338648Y144747D01*
X338648Y144747D01*
X338648Y144747D01*
X338641Y144736D01*
X338638Y144721D01*
X338634Y144711D01*
X338634Y144707D01*
X338633Y144702D01*
X338619Y144678D01*
X338600Y144649D01*
X338511Y144540D01*
X338452Y144478D01*
X338433Y144429D01*
X338382Y144378D01*
X338371Y144370D01*
X338371Y144367D01*
X337363Y143359D01*
X337141Y143028D01*
X337064Y142638D01*
Y138965D01*
X337042Y138917D01*
X337020Y137904D01*
X336955Y137087D01*
X336909Y136760D01*
X336854Y136480D01*
X336793Y136255D01*
X336730Y136088D01*
X336674Y135983D01*
X336598Y135886D01*
X336588Y135853D01*
X336199Y135271D01*
X336044Y134490D01*
Y117535D01*
X336199Y116755D01*
X336642Y116094D01*
X338500Y114235D01*
X339161Y113793D01*
X339942Y113638D01*
X340722Y113793D01*
X341384Y114235D01*
X341826Y114897D01*
X341981Y115677D01*
X341826Y116458D01*
X341384Y117119D01*
X340123Y118380D01*
Y134490D01*
X339967Y135271D01*
X339579Y135853D01*
X339569Y135886D01*
X339493Y135983D01*
X339437Y136088D01*
X339374Y136255D01*
X339313Y136480D01*
X339261Y136744D01*
X339130Y138393D01*
X339125Y138910D01*
X339103Y138961D01*
Y142215D01*
X340076Y143188D01*
X340127Y143209D01*
X340198Y143278D01*
X340321Y143391D01*
X340422Y143473D01*
X340453Y143495D01*
X340477Y143510D01*
X340486Y143515D01*
X340494Y143517D01*
X340498Y143520D01*
X340512Y143526D01*
X340537Y143552D01*
X340558Y143569D01*
X340702Y143598D01*
X341193Y143926D01*
X341521Y144417D01*
X341636Y144996D01*
X341521Y145575D01*
X341237Y146000D01*
X341229Y146024D01*
X341226Y146041D01*
X341221Y146048D01*
X341218Y146057D01*
X341209Y146067D01*
X341203Y146082D01*
X341195Y146111D01*
X341185Y146153D01*
X341178Y146200D01*
X341166Y146354D01*
X341164Y146444D01*
X341143Y146493D01*
Y161791D01*
X341164Y161838D01*
X341171Y162025D01*
X341177Y162085D01*
X341185Y162139D01*
X341195Y162181D01*
X341203Y162210D01*
X341209Y162225D01*
X341218Y162235D01*
X341221Y162244D01*
X341226Y162251D01*
X341229Y162268D01*
X341237Y162292D01*
X341521Y162717D01*
X341636Y163296D01*
X341521Y163875D01*
X341193Y164366D01*
X340702Y164694D01*
X340123Y164809D01*
D02*
G37*
G36*
X353842Y144509D02*
X353263Y144394D01*
X352772Y144066D01*
X352444Y143575D01*
X352344Y143074D01*
X352333Y143052D01*
X352323Y143037D01*
X352322Y143028D01*
X352317Y143020D01*
X352317Y143007D01*
X352310Y142992D01*
X352296Y142965D01*
X352273Y142929D01*
X352244Y142890D01*
X352144Y142773D01*
X352082Y142708D01*
X352062Y142658D01*
X349890Y140487D01*
X349669Y140156D01*
X349592Y139766D01*
Y111570D01*
X349570Y111524D01*
X349564Y111336D01*
X349557Y111276D01*
X349549Y111222D01*
X349540Y111180D01*
X349531Y111151D01*
X349525Y111136D01*
X349517Y111126D01*
X349513Y111118D01*
X349508Y111110D01*
X349505Y111093D01*
X349497Y111069D01*
X349213Y110645D01*
X349098Y110065D01*
X349213Y109486D01*
X349541Y108995D01*
X350032Y108667D01*
X350611Y108552D01*
X351190Y108667D01*
X351681Y108995D01*
X352009Y109486D01*
X352125Y110065D01*
X352009Y110645D01*
X351726Y111069D01*
X351717Y111093D01*
X351714Y111110D01*
X351709Y111118D01*
X351706Y111126D01*
X351697Y111136D01*
X351692Y111151D01*
X351683Y111180D01*
X351674Y111222D01*
X351666Y111270D01*
X351654Y111424D01*
X351652Y111513D01*
X351631Y111563D01*
Y139343D01*
X353499Y141211D01*
X353547Y141229D01*
X353684Y141357D01*
X353731Y141395D01*
X353775Y141427D01*
X353811Y141450D01*
X353838Y141464D01*
X353853Y141471D01*
X353866Y141472D01*
X353874Y141476D01*
X353883Y141478D01*
X353897Y141487D01*
X353920Y141498D01*
X354421Y141598D01*
X354912Y141926D01*
X355240Y142417D01*
X355355Y142996D01*
X355240Y143575D01*
X354912Y144066D01*
X354421Y144394D01*
X353842Y144509D01*
D02*
G37*
G36*
X391599Y107978D02*
X390698Y107860D01*
X389858Y107512D01*
X389137Y106958D01*
X388583Y106237D01*
X388235Y105397D01*
X388117Y104496D01*
X388235Y103595D01*
X388583Y102755D01*
X389137Y102033D01*
X389858Y101480D01*
X390698Y101132D01*
X391599Y101014D01*
X392501Y101132D01*
X393340Y101480D01*
X394062Y102033D01*
X394615Y102755D01*
X394963Y103595D01*
X395082Y104496D01*
X394963Y105397D01*
X394615Y106237D01*
X394062Y106958D01*
X393340Y107512D01*
X392501Y107860D01*
X391599Y107978D01*
D02*
G37*
G36*
X381599D02*
X380698Y107860D01*
X379858Y107512D01*
X379137Y106958D01*
X378583Y106237D01*
X378235Y105397D01*
X378117Y104496D01*
X378235Y103595D01*
X378583Y102755D01*
X379137Y102033D01*
X379858Y101480D01*
X380698Y101132D01*
X381599Y101014D01*
X382501Y101132D01*
X383341Y101480D01*
X384062Y102033D01*
X384615Y102755D01*
X384963Y103595D01*
X385082Y104496D01*
X384963Y105397D01*
X384615Y106237D01*
X384062Y106958D01*
X383341Y107512D01*
X382501Y107860D01*
X381599Y107978D01*
D02*
G37*
G36*
X8683Y97719D02*
X6230D01*
Y95424D01*
X11412D01*
X11383Y95648D01*
X11104Y96322D01*
X10660Y96901D01*
X10080Y97345D01*
X9406Y97624D01*
X8683Y97719D01*
D02*
G37*
G36*
X5230D02*
X2777D01*
X2053Y97624D01*
X1379Y97345D01*
X800Y96901D01*
X356Y96322D01*
X77Y95648D01*
X47Y95424D01*
X5230D01*
Y97719D01*
D02*
G37*
G36*
X-6002Y97240D02*
X-9152D01*
X-10039Y97064D01*
X-10790Y96562D01*
X-11292Y95810D01*
X-11468Y94924D01*
X-11292Y94038D01*
X-10790Y93286D01*
X-10039Y92784D01*
X-9152Y92608D01*
X-6002D01*
X-5116Y92784D01*
X-4365Y93286D01*
X-3863Y94038D01*
X-3686Y94924D01*
X-3863Y95810D01*
X-4365Y96562D01*
X-5116Y97064D01*
X-6002Y97240D01*
D02*
G37*
G36*
X391599Y97979D02*
X390698Y97860D01*
X389858Y97512D01*
X389137Y96959D01*
X388583Y96237D01*
X388235Y95397D01*
X388117Y94496D01*
X388235Y93595D01*
X388583Y92755D01*
X389137Y92033D01*
X389858Y91480D01*
X390698Y91132D01*
X391599Y91013D01*
X392501Y91132D01*
X393340Y91480D01*
X394062Y92033D01*
X394615Y92755D01*
X394963Y93595D01*
X395082Y94496D01*
X394963Y95397D01*
X394615Y96237D01*
X394062Y96959D01*
X393340Y97512D01*
X392501Y97860D01*
X391599Y97979D01*
D02*
G37*
G36*
X381599D02*
X380698Y97860D01*
X379858Y97512D01*
X379137Y96959D01*
X378583Y96237D01*
X378235Y95397D01*
X378117Y94496D01*
X378235Y93595D01*
X378583Y92755D01*
X379137Y92033D01*
X379858Y91480D01*
X380698Y91132D01*
X381599Y91013D01*
X382501Y91132D01*
X383341Y91480D01*
X384062Y92033D01*
X384615Y92755D01*
X384963Y93595D01*
X385082Y94496D01*
X384963Y95397D01*
X384615Y96237D01*
X384062Y96959D01*
X383341Y97512D01*
X382501Y97860D01*
X381599Y97979D01*
D02*
G37*
G36*
X73242Y97180D02*
X72392Y97068D01*
X71600Y96740D01*
X70920Y96218D01*
X70398Y95538D01*
X70070Y94746D01*
X69958Y93896D01*
X70070Y93046D01*
X70398Y92254D01*
X70920Y91574D01*
X71600Y91052D01*
X72392Y90724D01*
X73242Y90612D01*
X74092Y90724D01*
X74884Y91052D01*
X75564Y91574D01*
X76086Y92254D01*
X76414Y93046D01*
X76526Y93896D01*
X76414Y94746D01*
X76086Y95538D01*
X75564Y96218D01*
X74884Y96740D01*
X74092Y97068D01*
X73242Y97180D01*
D02*
G37*
G36*
X47742Y96680D02*
X46892Y96568D01*
X46100Y96240D01*
X45420Y95718D01*
X44898Y95038D01*
X44570Y94246D01*
X44458Y93396D01*
X44570Y92546D01*
X44898Y91754D01*
X45420Y91074D01*
X46100Y90552D01*
X46892Y90224D01*
X47742Y90112D01*
X48592Y90224D01*
X49384Y90552D01*
X50064Y91074D01*
X50586Y91754D01*
X50914Y92546D01*
X51026Y93396D01*
X50914Y94246D01*
X50586Y95038D01*
X50064Y95718D01*
X49384Y96240D01*
X48592Y96568D01*
X47742Y96680D01*
D02*
G37*
G36*
X11412Y94424D02*
X47D01*
X77Y94200D01*
X356Y93526D01*
X800Y92947D01*
X1379Y92503D01*
X2053Y92224D01*
X2777Y92129D01*
X3132D01*
X3240Y91629D01*
X2614Y91210D01*
X2123Y90475D01*
X2050Y90109D01*
X4274D01*
X6497D01*
X6424Y90475D01*
X5934Y91210D01*
X5307Y91629D01*
X5416Y92129D01*
X8446D01*
X8554Y91629D01*
X7928Y91210D01*
X7437Y90475D01*
X7364Y90109D01*
X9588D01*
X11811D01*
X11738Y90475D01*
X11248Y91210D01*
X10513Y91701D01*
X9795Y91843D01*
X9742Y92363D01*
X10080Y92503D01*
X10660Y92947D01*
X11104Y93526D01*
X11383Y94200D01*
X11412Y94424D01*
D02*
G37*
G36*
X290895Y96449D02*
X283989D01*
Y89543D01*
X290895D01*
Y96449D01*
D02*
G37*
G36*
X210894D02*
X203989D01*
Y89543D01*
X210894D01*
Y96449D01*
D02*
G37*
G36*
X277442Y96478D02*
X276540Y96360D01*
X275700Y96012D01*
X274979Y95459D01*
X274426Y94737D01*
X274078Y93897D01*
X273959Y92996D01*
X274078Y92095D01*
X274426Y91255D01*
X274979Y90534D01*
X275700Y89980D01*
X276540Y89632D01*
X277442Y89513D01*
X278343Y89632D01*
X279183Y89980D01*
X279904Y90534D01*
X280458Y91255D01*
X280806Y92095D01*
X280924Y92996D01*
X280806Y93897D01*
X280458Y94737D01*
X279904Y95459D01*
X279183Y96012D01*
X278343Y96360D01*
X277442Y96478D01*
D02*
G37*
G36*
X267442D02*
X266540Y96360D01*
X265701Y96012D01*
X264979Y95459D01*
X264426Y94737D01*
X264078Y93897D01*
X263959Y92996D01*
X264078Y92095D01*
X264426Y91255D01*
X264979Y90534D01*
X265701Y89980D01*
X266540Y89632D01*
X267442Y89513D01*
X268343Y89632D01*
X269183Y89980D01*
X269904Y90534D01*
X270458Y91255D01*
X270806Y92095D01*
X270924Y92996D01*
X270806Y93897D01*
X270458Y94737D01*
X269904Y95459D01*
X269183Y96012D01*
X268343Y96360D01*
X267442Y96478D01*
D02*
G37*
G36*
X257442D02*
X256540Y96360D01*
X255700Y96012D01*
X254979Y95459D01*
X254426Y94737D01*
X254078Y93897D01*
X253959Y92996D01*
X254078Y92095D01*
X254426Y91255D01*
X254979Y90534D01*
X255700Y89980D01*
X256540Y89632D01*
X257442Y89513D01*
X258343Y89632D01*
X259183Y89980D01*
X259904Y90534D01*
X260458Y91255D01*
X260806Y92095D01*
X260924Y92996D01*
X260806Y93897D01*
X260458Y94737D01*
X259904Y95459D01*
X259183Y96012D01*
X258343Y96360D01*
X257442Y96478D01*
D02*
G37*
G36*
X247442D02*
X246540Y96360D01*
X245701Y96012D01*
X244979Y95459D01*
X244426Y94737D01*
X244078Y93897D01*
X243959Y92996D01*
X244078Y92095D01*
X244426Y91255D01*
X244979Y90534D01*
X245701Y89980D01*
X246540Y89632D01*
X247442Y89513D01*
X248343Y89632D01*
X249183Y89980D01*
X249904Y90534D01*
X250458Y91255D01*
X250806Y92095D01*
X250924Y92996D01*
X250806Y93897D01*
X250458Y94737D01*
X249904Y95459D01*
X249183Y96012D01*
X248343Y96360D01*
X247442Y96478D01*
D02*
G37*
G36*
X237442D02*
X236540Y96360D01*
X235700Y96012D01*
X234979Y95459D01*
X234426Y94737D01*
X234078Y93897D01*
X233959Y92996D01*
X234078Y92095D01*
X234426Y91255D01*
X234979Y90534D01*
X235700Y89980D01*
X236540Y89632D01*
X237442Y89513D01*
X238343Y89632D01*
X239183Y89980D01*
X239904Y90534D01*
X240458Y91255D01*
X240806Y92095D01*
X240924Y92996D01*
X240806Y93897D01*
X240458Y94737D01*
X239904Y95459D01*
X239183Y96012D01*
X238343Y96360D01*
X237442Y96478D01*
D02*
G37*
G36*
X227442D02*
X226540Y96360D01*
X225700Y96012D01*
X224979Y95459D01*
X224426Y94737D01*
X224078Y93897D01*
X223959Y92996D01*
X224078Y92095D01*
X224426Y91255D01*
X224979Y90534D01*
X225700Y89980D01*
X226540Y89632D01*
X227442Y89513D01*
X228343Y89632D01*
X229183Y89980D01*
X229904Y90534D01*
X230458Y91255D01*
X230806Y92095D01*
X230924Y92996D01*
X230806Y93897D01*
X230458Y94737D01*
X229904Y95459D01*
X229183Y96012D01*
X228343Y96360D01*
X227442Y96478D01*
D02*
G37*
G36*
X217442D02*
X216540Y96360D01*
X215701Y96012D01*
X214979Y95459D01*
X214426Y94737D01*
X214078Y93897D01*
X213959Y92996D01*
X214078Y92095D01*
X214426Y91255D01*
X214979Y90534D01*
X215701Y89980D01*
X216540Y89632D01*
X217442Y89513D01*
X218343Y89632D01*
X219183Y89980D01*
X219904Y90534D01*
X220458Y91255D01*
X220806Y92095D01*
X220924Y92996D01*
X220806Y93897D01*
X220458Y94737D01*
X219904Y95459D01*
X219183Y96012D01*
X218343Y96360D01*
X217442Y96478D01*
D02*
G37*
G36*
X197442D02*
X196540Y96360D01*
X195701Y96012D01*
X194979Y95459D01*
X194426Y94737D01*
X194078Y93897D01*
X193959Y92996D01*
X194078Y92095D01*
X194426Y91255D01*
X194979Y90534D01*
X195701Y89980D01*
X196540Y89632D01*
X197442Y89513D01*
X198343Y89632D01*
X199183Y89980D01*
X199904Y90534D01*
X200458Y91255D01*
X200806Y92095D01*
X200924Y92996D01*
X200806Y93897D01*
X200458Y94737D01*
X199904Y95459D01*
X199183Y96012D01*
X198343Y96360D01*
X197442Y96478D01*
D02*
G37*
G36*
X187442D02*
X186540Y96360D01*
X185701Y96012D01*
X184979Y95459D01*
X184426Y94737D01*
X184078Y93897D01*
X183959Y92996D01*
X184078Y92095D01*
X184426Y91255D01*
X184979Y90534D01*
X185701Y89980D01*
X186540Y89632D01*
X187442Y89513D01*
X188343Y89632D01*
X189183Y89980D01*
X189904Y90534D01*
X190458Y91255D01*
X190806Y92095D01*
X190924Y92996D01*
X190806Y93897D01*
X190458Y94737D01*
X189904Y95459D01*
X189183Y96012D01*
X188343Y96360D01*
X187442Y96478D01*
D02*
G37*
G36*
X177442D02*
X176540Y96360D01*
X175700Y96012D01*
X174979Y95459D01*
X174426Y94737D01*
X174078Y93897D01*
X173959Y92996D01*
X174078Y92095D01*
X174426Y91255D01*
X174979Y90534D01*
X175700Y89980D01*
X176540Y89632D01*
X177442Y89513D01*
X178343Y89632D01*
X179183Y89980D01*
X179904Y90534D01*
X180458Y91255D01*
X180806Y92095D01*
X180924Y92996D01*
X180806Y93897D01*
X180458Y94737D01*
X179904Y95459D01*
X179183Y96012D01*
X178343Y96360D01*
X177442Y96478D01*
D02*
G37*
G36*
X167442D02*
X166540Y96360D01*
X165700Y96012D01*
X164979Y95459D01*
X164426Y94737D01*
X164078Y93897D01*
X163959Y92996D01*
X164078Y92095D01*
X164426Y91255D01*
X164979Y90534D01*
X165700Y89980D01*
X166540Y89632D01*
X167442Y89513D01*
X168343Y89632D01*
X169183Y89980D01*
X169904Y90534D01*
X170458Y91255D01*
X170806Y92095D01*
X170924Y92996D01*
X170806Y93897D01*
X170458Y94737D01*
X169904Y95459D01*
X169183Y96012D01*
X168343Y96360D01*
X167442Y96478D01*
D02*
G37*
G36*
X157442D02*
X156540Y96360D01*
X155701Y96012D01*
X154979Y95459D01*
X154426Y94737D01*
X154078Y93897D01*
X153959Y92996D01*
X154078Y92095D01*
X154426Y91255D01*
X154979Y90534D01*
X155701Y89980D01*
X156540Y89632D01*
X157442Y89513D01*
X158343Y89632D01*
X159183Y89980D01*
X159904Y90534D01*
X160458Y91255D01*
X160806Y92095D01*
X160924Y92996D01*
X160806Y93897D01*
X160458Y94737D01*
X159904Y95459D01*
X159183Y96012D01*
X158343Y96360D01*
X157442Y96478D01*
D02*
G37*
G36*
X147442D02*
X146540Y96360D01*
X145701Y96012D01*
X144979Y95459D01*
X144426Y94737D01*
X144078Y93897D01*
X143959Y92996D01*
X144078Y92095D01*
X144426Y91255D01*
X144979Y90534D01*
X145701Y89980D01*
X146540Y89632D01*
X147442Y89513D01*
X148343Y89632D01*
X149183Y89980D01*
X149904Y90534D01*
X150458Y91255D01*
X150806Y92095D01*
X150924Y92996D01*
X150806Y93897D01*
X150458Y94737D01*
X149904Y95459D01*
X149183Y96012D01*
X148343Y96360D01*
X147442Y96478D01*
D02*
G37*
G36*
X137442D02*
X136540Y96360D01*
X135701Y96012D01*
X134979Y95459D01*
X134426Y94737D01*
X134078Y93897D01*
X133959Y92996D01*
X134078Y92095D01*
X134426Y91255D01*
X134979Y90534D01*
X135701Y89980D01*
X136540Y89632D01*
X137442Y89513D01*
X138343Y89632D01*
X139183Y89980D01*
X139904Y90534D01*
X140458Y91255D01*
X140806Y92095D01*
X140924Y92996D01*
X140806Y93897D01*
X140458Y94737D01*
X139904Y95459D01*
X139183Y96012D01*
X138343Y96360D01*
X137442Y96478D01*
D02*
G37*
G36*
X391599Y87979D02*
X390698Y87860D01*
X389858Y87512D01*
X389137Y86958D01*
X388583Y86237D01*
X388235Y85397D01*
X388117Y84496D01*
X388235Y83595D01*
X388583Y82755D01*
X389137Y82033D01*
X389858Y81480D01*
X390698Y81132D01*
X391599Y81014D01*
X392501Y81132D01*
X393340Y81480D01*
X394062Y82033D01*
X394615Y82755D01*
X394963Y83595D01*
X395082Y84496D01*
X394963Y85397D01*
X394615Y86237D01*
X394062Y86958D01*
X393340Y87512D01*
X392501Y87860D01*
X391599Y87979D01*
D02*
G37*
G36*
X381599D02*
X380698Y87860D01*
X379858Y87512D01*
X379137Y86958D01*
X378583Y86237D01*
X378235Y85397D01*
X378117Y84496D01*
X378235Y83595D01*
X378583Y82755D01*
X379137Y82033D01*
X379858Y81480D01*
X380698Y81132D01*
X381599Y81014D01*
X382501Y81132D01*
X383341Y81480D01*
X384062Y82033D01*
X384615Y82755D01*
X384963Y83595D01*
X385082Y84496D01*
X384963Y85397D01*
X384615Y86237D01*
X384062Y86958D01*
X383341Y87512D01*
X382501Y87860D01*
X381599Y87979D01*
D02*
G37*
G36*
X361000Y95013D02*
X360421Y94898D01*
X359930Y94570D01*
X359602Y94079D01*
X359487Y93500D01*
X359602Y92921D01*
X359930Y92430D01*
X360307Y92178D01*
X360343Y92026D01*
Y91774D01*
X360307Y91622D01*
X359930Y91370D01*
X359602Y90879D01*
X359487Y90300D01*
X359602Y89721D01*
X359930Y89230D01*
X359946Y89219D01*
X359946Y89219D01*
X359950Y89202D01*
X359955Y89195D01*
X359959Y89187D01*
X359968Y89177D01*
X359974Y89162D01*
X359984Y89134D01*
X359996Y89092D01*
X360006Y89045D01*
X360025Y88892D01*
X360031Y88803D01*
X360055Y88754D01*
X360208Y85653D01*
X360189Y85605D01*
X360191Y85417D01*
X360188Y85357D01*
X360182Y85303D01*
X360175Y85261D01*
X360168Y85231D01*
X360163Y85216D01*
X360154Y85206D01*
X360152Y85197D01*
X360147Y85189D01*
X360145Y85172D01*
X360130Y85120D01*
X359902Y84779D01*
X359787Y84200D01*
X359902Y83621D01*
X360230Y83130D01*
X360721Y82802D01*
X361300Y82687D01*
X361775Y82781D01*
X362110Y82570D01*
X362239Y82441D01*
X362344Y81917D01*
X362672Y81426D01*
X363163Y81098D01*
X363742Y80983D01*
X364321Y81098D01*
X364812Y81426D01*
X365140Y81917D01*
X365255Y82496D01*
X365140Y83075D01*
X364856Y83500D01*
X364848Y83524D01*
X364844Y83541D01*
X364840Y83548D01*
X364837Y83557D01*
X364828Y83567D01*
X364822Y83582D01*
X364813Y83611D01*
X364804Y83653D01*
X364797Y83700D01*
X364784Y83854D01*
X364783Y83944D01*
X364761Y83993D01*
Y90758D01*
X364684Y91149D01*
X364463Y91479D01*
X362785Y93157D01*
X362767Y93205D01*
X362639Y93343D01*
X362601Y93389D01*
X362569Y93433D01*
X362546Y93469D01*
X362532Y93496D01*
X362525Y93511D01*
X362524Y93524D01*
X362520Y93532D01*
X362519Y93541D01*
X362509Y93555D01*
X362498Y93578D01*
X362398Y94079D01*
X362070Y94570D01*
X361579Y94898D01*
X361000Y95013D01*
D02*
G37*
G36*
X287442Y86479D02*
X286540Y86360D01*
X285700Y86012D01*
X284979Y85458D01*
X284426Y84737D01*
X284078Y83897D01*
X283959Y82996D01*
X284078Y82095D01*
X284426Y81255D01*
X284979Y80533D01*
X285700Y79980D01*
X286540Y79632D01*
X287442Y79514D01*
X288343Y79632D01*
X289183Y79980D01*
X289904Y80533D01*
X290458Y81255D01*
X290806Y82095D01*
X290924Y82996D01*
X290806Y83897D01*
X290458Y84737D01*
X289904Y85458D01*
X289183Y86012D01*
X288343Y86360D01*
X287442Y86479D01*
D02*
G37*
G36*
X277442D02*
X276540Y86360D01*
X275700Y86012D01*
X274979Y85458D01*
X274426Y84737D01*
X274078Y83897D01*
X273959Y82996D01*
X274078Y82095D01*
X274426Y81255D01*
X274979Y80533D01*
X275700Y79980D01*
X276540Y79632D01*
X277442Y79514D01*
X278343Y79632D01*
X279183Y79980D01*
X279904Y80533D01*
X280458Y81255D01*
X280806Y82095D01*
X280924Y82996D01*
X280806Y83897D01*
X280458Y84737D01*
X279904Y85458D01*
X279183Y86012D01*
X278343Y86360D01*
X277442Y86479D01*
D02*
G37*
G36*
X267442D02*
X266540Y86360D01*
X265701Y86012D01*
X264979Y85458D01*
X264426Y84737D01*
X264078Y83897D01*
X263959Y82996D01*
X264078Y82095D01*
X264426Y81255D01*
X264979Y80533D01*
X265701Y79980D01*
X266540Y79632D01*
X267442Y79514D01*
X268343Y79632D01*
X269183Y79980D01*
X269904Y80533D01*
X270458Y81255D01*
X270806Y82095D01*
X270924Y82996D01*
X270806Y83897D01*
X270458Y84737D01*
X269904Y85458D01*
X269183Y86012D01*
X268343Y86360D01*
X267442Y86479D01*
D02*
G37*
G36*
X257442D02*
X256540Y86360D01*
X255700Y86012D01*
X254979Y85458D01*
X254426Y84737D01*
X254078Y83897D01*
X253959Y82996D01*
X254078Y82095D01*
X254426Y81255D01*
X254979Y80533D01*
X255700Y79980D01*
X256540Y79632D01*
X257442Y79514D01*
X258343Y79632D01*
X259183Y79980D01*
X259904Y80533D01*
X260458Y81255D01*
X260806Y82095D01*
X260924Y82996D01*
X260806Y83897D01*
X260458Y84737D01*
X259904Y85458D01*
X259183Y86012D01*
X258343Y86360D01*
X257442Y86479D01*
D02*
G37*
G36*
X247442D02*
X246540Y86360D01*
X245701Y86012D01*
X244979Y85458D01*
X244426Y84737D01*
X244078Y83897D01*
X243959Y82996D01*
X244078Y82095D01*
X244426Y81255D01*
X244979Y80533D01*
X245701Y79980D01*
X246540Y79632D01*
X247442Y79514D01*
X248343Y79632D01*
X249183Y79980D01*
X249904Y80533D01*
X250458Y81255D01*
X250806Y82095D01*
X250924Y82996D01*
X250806Y83897D01*
X250458Y84737D01*
X249904Y85458D01*
X249183Y86012D01*
X248343Y86360D01*
X247442Y86479D01*
D02*
G37*
G36*
X237442D02*
X236540Y86360D01*
X235700Y86012D01*
X234979Y85458D01*
X234426Y84737D01*
X234078Y83897D01*
X233959Y82996D01*
X234078Y82095D01*
X234426Y81255D01*
X234979Y80533D01*
X235700Y79980D01*
X236540Y79632D01*
X237442Y79514D01*
X238343Y79632D01*
X239183Y79980D01*
X239904Y80533D01*
X240458Y81255D01*
X240806Y82095D01*
X240924Y82996D01*
X240806Y83897D01*
X240458Y84737D01*
X239904Y85458D01*
X239183Y86012D01*
X238343Y86360D01*
X237442Y86479D01*
D02*
G37*
G36*
X227442D02*
X226540Y86360D01*
X225700Y86012D01*
X224979Y85458D01*
X224426Y84737D01*
X224078Y83897D01*
X223959Y82996D01*
X224078Y82095D01*
X224426Y81255D01*
X224979Y80533D01*
X225700Y79980D01*
X226540Y79632D01*
X227442Y79514D01*
X228343Y79632D01*
X229183Y79980D01*
X229904Y80533D01*
X230458Y81255D01*
X230806Y82095D01*
X230924Y82996D01*
X230806Y83897D01*
X230458Y84737D01*
X229904Y85458D01*
X229183Y86012D01*
X228343Y86360D01*
X227442Y86479D01*
D02*
G37*
G36*
X217442D02*
X216540Y86360D01*
X215701Y86012D01*
X214979Y85458D01*
X214426Y84737D01*
X214078Y83897D01*
X213959Y82996D01*
X214078Y82095D01*
X214426Y81255D01*
X214979Y80533D01*
X215701Y79980D01*
X216540Y79632D01*
X217442Y79514D01*
X218343Y79632D01*
X219183Y79980D01*
X219904Y80533D01*
X220458Y81255D01*
X220806Y82095D01*
X220924Y82996D01*
X220806Y83897D01*
X220458Y84737D01*
X219904Y85458D01*
X219183Y86012D01*
X218343Y86360D01*
X217442Y86479D01*
D02*
G37*
G36*
X207442D02*
X206540Y86360D01*
X205700Y86012D01*
X204979Y85458D01*
X204426Y84737D01*
X204078Y83897D01*
X203959Y82996D01*
X204078Y82095D01*
X204426Y81255D01*
X204979Y80533D01*
X205700Y79980D01*
X206540Y79632D01*
X207442Y79514D01*
X208343Y79632D01*
X209183Y79980D01*
X209904Y80533D01*
X210458Y81255D01*
X210806Y82095D01*
X210924Y82996D01*
X210806Y83897D01*
X210458Y84737D01*
X209904Y85458D01*
X209183Y86012D01*
X208343Y86360D01*
X207442Y86479D01*
D02*
G37*
G36*
X197442D02*
X196540Y86360D01*
X195701Y86012D01*
X194979Y85458D01*
X194426Y84737D01*
X194078Y83897D01*
X193959Y82996D01*
X194078Y82095D01*
X194426Y81255D01*
X194979Y80533D01*
X195701Y79980D01*
X196540Y79632D01*
X197442Y79514D01*
X198343Y79632D01*
X199183Y79980D01*
X199904Y80533D01*
X200458Y81255D01*
X200806Y82095D01*
X200924Y82996D01*
X200806Y83897D01*
X200458Y84737D01*
X199904Y85458D01*
X199183Y86012D01*
X198343Y86360D01*
X197442Y86479D01*
D02*
G37*
G36*
X187442D02*
X186540Y86360D01*
X185701Y86012D01*
X184979Y85458D01*
X184426Y84737D01*
X184078Y83897D01*
X183959Y82996D01*
X184078Y82095D01*
X184426Y81255D01*
X184979Y80533D01*
X185701Y79980D01*
X186540Y79632D01*
X187442Y79514D01*
X188343Y79632D01*
X189183Y79980D01*
X189904Y80533D01*
X190458Y81255D01*
X190806Y82095D01*
X190924Y82996D01*
X190806Y83897D01*
X190458Y84737D01*
X189904Y85458D01*
X189183Y86012D01*
X188343Y86360D01*
X187442Y86479D01*
D02*
G37*
G36*
X177442D02*
X176540Y86360D01*
X175700Y86012D01*
X174979Y85458D01*
X174426Y84737D01*
X174078Y83897D01*
X173959Y82996D01*
X174078Y82095D01*
X174426Y81255D01*
X174979Y80533D01*
X175700Y79980D01*
X176540Y79632D01*
X177442Y79514D01*
X178343Y79632D01*
X179183Y79980D01*
X179904Y80533D01*
X180458Y81255D01*
X180806Y82095D01*
X180924Y82996D01*
X180806Y83897D01*
X180458Y84737D01*
X179904Y85458D01*
X179183Y86012D01*
X178343Y86360D01*
X177442Y86479D01*
D02*
G37*
G36*
X167442D02*
X166540Y86360D01*
X165700Y86012D01*
X164979Y85458D01*
X164426Y84737D01*
X164078Y83897D01*
X163959Y82996D01*
X164078Y82095D01*
X164426Y81255D01*
X164979Y80533D01*
X165700Y79980D01*
X166540Y79632D01*
X167442Y79514D01*
X168343Y79632D01*
X169183Y79980D01*
X169904Y80533D01*
X170458Y81255D01*
X170806Y82095D01*
X170924Y82996D01*
X170806Y83897D01*
X170458Y84737D01*
X169904Y85458D01*
X169183Y86012D01*
X168343Y86360D01*
X167442Y86479D01*
D02*
G37*
G36*
X157442D02*
X156540Y86360D01*
X155701Y86012D01*
X154979Y85458D01*
X154426Y84737D01*
X154078Y83897D01*
X153959Y82996D01*
X154078Y82095D01*
X154426Y81255D01*
X154979Y80533D01*
X155701Y79980D01*
X156540Y79632D01*
X157442Y79514D01*
X158343Y79632D01*
X159183Y79980D01*
X159904Y80533D01*
X160458Y81255D01*
X160806Y82095D01*
X160924Y82996D01*
X160806Y83897D01*
X160458Y84737D01*
X159904Y85458D01*
X159183Y86012D01*
X158343Y86360D01*
X157442Y86479D01*
D02*
G37*
G36*
X147442D02*
X146540Y86360D01*
X145701Y86012D01*
X144979Y85458D01*
X144426Y84737D01*
X144078Y83897D01*
X143959Y82996D01*
X144078Y82095D01*
X144426Y81255D01*
X144979Y80533D01*
X145701Y79980D01*
X146540Y79632D01*
X147442Y79514D01*
X148343Y79632D01*
X149183Y79980D01*
X149904Y80533D01*
X150458Y81255D01*
X150806Y82095D01*
X150924Y82996D01*
X150806Y83897D01*
X150458Y84737D01*
X149904Y85458D01*
X149183Y86012D01*
X148343Y86360D01*
X147442Y86479D01*
D02*
G37*
G36*
X137442D02*
X136540Y86360D01*
X135701Y86012D01*
X134979Y85458D01*
X134426Y84737D01*
X134078Y83897D01*
X133959Y82996D01*
X134078Y82095D01*
X134426Y81255D01*
X134979Y80533D01*
X135701Y79980D01*
X136540Y79632D01*
X137442Y79514D01*
X138343Y79632D01*
X139183Y79980D01*
X139904Y80533D01*
X140458Y81255D01*
X140806Y82095D01*
X140924Y82996D01*
X140806Y83897D01*
X140458Y84737D01*
X139904Y85458D01*
X139183Y86012D01*
X138343Y86360D01*
X137442Y86479D01*
D02*
G37*
G36*
X361700Y118413D02*
X361121Y118298D01*
X360630Y117970D01*
X360302Y117479D01*
X360187Y116900D01*
X360302Y116321D01*
X360586Y115896D01*
X360594Y115872D01*
X360597Y115855D01*
X360602Y115848D01*
X360605Y115839D01*
X360614Y115829D01*
X360620Y115814D01*
X360628Y115785D01*
X360638Y115743D01*
X360645Y115696D01*
X360657Y115542D01*
X360659Y115452D01*
X360680Y115403D01*
Y99738D01*
X360758Y99348D01*
X360979Y99017D01*
X367063Y92932D01*
Y79755D01*
X367141Y79365D01*
X367362Y79034D01*
X368957Y77439D01*
X368975Y77391D01*
X369103Y77254D01*
X369140Y77207D01*
X369173Y77163D01*
X369196Y77127D01*
X369210Y77100D01*
X369217Y77085D01*
X369217Y77072D01*
X369221Y77064D01*
X369223Y77055D01*
X369233Y77040D01*
X369244Y77018D01*
X369344Y76517D01*
X369672Y76026D01*
X370163Y75698D01*
X370742Y75583D01*
X371321Y75698D01*
X371812Y76026D01*
X372140Y76517D01*
X372255Y77096D01*
X372140Y77675D01*
X371812Y78166D01*
X371321Y78494D01*
X370820Y78594D01*
X370797Y78605D01*
X370783Y78614D01*
X370774Y78616D01*
X370766Y78620D01*
X370753Y78621D01*
X370738Y78628D01*
X370711Y78642D01*
X370675Y78665D01*
X370636Y78694D01*
X370519Y78794D01*
X370454Y78856D01*
X370404Y78876D01*
X369103Y80177D01*
Y93355D01*
X369025Y93745D01*
X368804Y94076D01*
X362720Y100160D01*
Y115395D01*
X362741Y115442D01*
X362748Y115629D01*
X362754Y115689D01*
X362762Y115743D01*
X362772Y115785D01*
X362780Y115814D01*
X362786Y115829D01*
X362795Y115839D01*
X362798Y115848D01*
X362803Y115855D01*
X362806Y115872D01*
X362814Y115896D01*
X363098Y116321D01*
X363213Y116900D01*
X363098Y117479D01*
X362770Y117970D01*
X362279Y118298D01*
X361700Y118413D01*
D02*
G37*
G36*
X395052Y77949D02*
X388146D01*
Y71043D01*
X395052D01*
Y77949D01*
D02*
G37*
G36*
X381599Y77978D02*
X380698Y77860D01*
X379858Y77512D01*
X379137Y76959D01*
X378583Y76237D01*
X378235Y75397D01*
X378117Y74496D01*
X378235Y73595D01*
X378583Y72755D01*
X379137Y72034D01*
X379858Y71480D01*
X380698Y71132D01*
X381599Y71013D01*
X382501Y71132D01*
X383341Y71480D01*
X384062Y72034D01*
X384615Y72755D01*
X384963Y73595D01*
X385082Y74496D01*
X384963Y75397D01*
X384615Y76237D01*
X384062Y76959D01*
X383341Y77512D01*
X382501Y77860D01*
X381599Y77978D01*
D02*
G37*
G36*
X6497Y89109D02*
X4274D01*
X2050D01*
X2123Y88743D01*
X2614Y88008D01*
X2757Y87913D01*
X2819Y87270D01*
X2594Y86933D01*
X2461Y86262D01*
X2594Y85591D01*
X2974Y85022D01*
X3172Y84890D01*
Y84288D01*
X2974Y84156D01*
X2594Y83587D01*
X2461Y82916D01*
X2594Y82245D01*
X2974Y81676D01*
X3173Y81543D01*
Y80942D01*
X2974Y80809D01*
X2594Y80240D01*
X2461Y79569D01*
X2594Y78898D01*
X2974Y78329D01*
X3172Y78197D01*
Y77595D01*
X2974Y77463D01*
X2594Y76894D01*
X2461Y76223D01*
X2594Y75552D01*
X2974Y74983D01*
X3173Y74850D01*
X3240Y74488D01*
X3233Y74419D01*
X3166Y74253D01*
X3157Y74249D01*
X3151Y74235D01*
X2974Y74116D01*
X2882Y73978D01*
X2768Y73957D01*
X2357Y73922D01*
X2104Y73917D01*
X2055Y73896D01*
X1064D01*
X674Y73818D01*
X343Y73597D01*
X-2379Y70874D01*
X-2600Y70544D01*
X-2678Y70153D01*
Y58715D01*
X-2600Y58325D01*
X-2379Y57994D01*
X440Y55175D01*
X771Y54954D01*
X1161Y54876D01*
X12770D01*
X13160Y54954D01*
X13491Y55175D01*
X17399Y59083D01*
X17447Y59101D01*
X17584Y59229D01*
X17631Y59267D01*
X17675Y59299D01*
X17711Y59322D01*
X17738Y59336D01*
X17753Y59343D01*
X17766Y59344D01*
X17774Y59348D01*
X17783Y59350D01*
X17797Y59359D01*
X17820Y59370D01*
X18321Y59470D01*
X18812Y59798D01*
X19140Y60289D01*
X19255Y60868D01*
X19140Y61447D01*
X18812Y61938D01*
X18321Y62266D01*
X17742Y62381D01*
X17163Y62266D01*
X16672Y61938D01*
X16344Y61447D01*
X16244Y60946D01*
X16233Y60923D01*
X16223Y60909D01*
X16221Y60900D01*
X16217Y60892D01*
X16217Y60879D01*
X16210Y60864D01*
X16196Y60837D01*
X16173Y60801D01*
X16144Y60762D01*
X16044Y60645D01*
X15982Y60580D01*
X15962Y60530D01*
X12347Y56916D01*
X1584D01*
X-639Y59138D01*
Y69731D01*
X1487Y71856D01*
X2055D01*
X2104Y71835D01*
X2363Y71830D01*
X2580Y71817D01*
X2761Y71796D01*
X2882Y71774D01*
X2974Y71636D01*
X3151Y71517D01*
X3157Y71503D01*
X3165Y71500D01*
X3232Y71331D01*
X3240Y71263D01*
X3172Y70902D01*
X2974Y70770D01*
X2594Y70201D01*
X2461Y69530D01*
X2594Y68859D01*
X2819Y68522D01*
X2757Y67879D01*
X2614Y67784D01*
X2123Y67049D01*
X2050Y66683D01*
X4274D01*
X6497D01*
X6424Y67049D01*
X5934Y67784D01*
X5791Y67879D01*
X5729Y68522D01*
X5953Y68859D01*
X6087Y69530D01*
X5953Y70201D01*
X5573Y70770D01*
X5376Y70902D01*
Y71504D01*
X5573Y71636D01*
X5953Y72205D01*
X6087Y72876D01*
X5953Y73547D01*
X5573Y74116D01*
X5375Y74249D01*
Y74850D01*
X5573Y74983D01*
X5953Y75552D01*
X6087Y76223D01*
X5953Y76894D01*
X5796Y77129D01*
X6153Y77496D01*
X7166Y76858D01*
X7167Y76855D01*
X7183Y76847D01*
X7239Y76812D01*
X7269Y76767D01*
X7469Y76636D01*
X7626Y76522D01*
X7748Y76422D01*
X7803Y76368D01*
X7774Y76223D01*
X7798Y76104D01*
X7794Y76089D01*
X7805Y76068D01*
X7908Y75552D01*
X8288Y74983D01*
X8486Y74850D01*
Y74249D01*
X8288Y74116D01*
X7908Y73547D01*
X7774Y72876D01*
X7908Y72205D01*
X8288Y71636D01*
X8486Y71504D01*
Y70902D01*
X8288Y70770D01*
X7908Y70201D01*
X7774Y69530D01*
X7908Y68859D01*
X8133Y68522D01*
X8071Y67879D01*
X7928Y67784D01*
X7437Y67049D01*
X7364Y66683D01*
X9588D01*
X11811D01*
X11738Y67049D01*
X11248Y67784D01*
X11105Y67879D01*
X11043Y68522D01*
X11267Y68859D01*
X11401Y69530D01*
X11267Y70201D01*
X10887Y70770D01*
X10690Y70902D01*
Y71504D01*
X10887Y71636D01*
X11267Y72205D01*
X11401Y72876D01*
X11267Y73547D01*
X10887Y74116D01*
X10689Y74249D01*
Y74850D01*
X10887Y74983D01*
X11267Y75552D01*
X11401Y76223D01*
X11267Y76894D01*
X10887Y77463D01*
X10690Y77595D01*
Y78197D01*
X10887Y78329D01*
X11267Y78898D01*
X11401Y79569D01*
X11267Y80240D01*
X10887Y80809D01*
X10689Y80942D01*
Y81543D01*
X10887Y81676D01*
X11267Y82245D01*
X11401Y82916D01*
X11267Y83587D01*
X10887Y84156D01*
X10690Y84288D01*
Y84890D01*
X10887Y85022D01*
X11267Y85591D01*
X11401Y86262D01*
X11267Y86933D01*
X11043Y87270D01*
X11105Y87913D01*
X11248Y88008D01*
X11738Y88743D01*
X11811Y89109D01*
X9588D01*
X7364D01*
X7437Y88743D01*
X7928Y88008D01*
X8071Y87913D01*
X8133Y87270D01*
X7908Y86933D01*
X7774Y86262D01*
X7908Y85591D01*
X8288Y85022D01*
X8486Y84890D01*
Y84288D01*
X8288Y84156D01*
X7908Y83587D01*
X7774Y82916D01*
X7908Y82245D01*
X8288Y81676D01*
X8486Y81543D01*
Y80942D01*
X8288Y80809D01*
X7908Y80240D01*
X7774Y79569D01*
X7796Y79462D01*
X7347Y79153D01*
X6711Y79554D01*
X6681Y79599D01*
X6547Y79686D01*
X6313Y79863D01*
X6223Y79941D01*
X6141Y80022D01*
X6070Y80100D01*
X6010Y80176D01*
X5960Y80249D01*
X5920Y80318D01*
X5879Y80407D01*
X5784Y80494D01*
X5573Y80809D01*
X5375Y80942D01*
Y81543D01*
X5573Y81676D01*
X5953Y82245D01*
X6087Y82916D01*
X5953Y83587D01*
X5573Y84156D01*
X5376Y84288D01*
Y84890D01*
X5573Y85022D01*
X5953Y85591D01*
X6087Y86262D01*
X5953Y86933D01*
X5729Y87270D01*
X5791Y87913D01*
X5934Y88008D01*
X6424Y88743D01*
X6497Y89109D01*
D02*
G37*
G36*
Y65683D02*
X4774D01*
Y64007D01*
X5199Y64091D01*
X5934Y64582D01*
X6424Y65317D01*
X6497Y65683D01*
D02*
G37*
G36*
X11811D02*
X10088D01*
Y64007D01*
X10513Y64091D01*
X11248Y64582D01*
X11738Y65317D01*
X11811Y65683D01*
D02*
G37*
G36*
X9088D02*
X7364D01*
X7437Y65317D01*
X7928Y64582D01*
X8662Y64091D01*
X9088Y64007D01*
Y65683D01*
D02*
G37*
G36*
X3774D02*
X2050D01*
X2123Y65317D01*
X2614Y64582D01*
X3348Y64091D01*
X3774Y64007D01*
Y65683D01*
D02*
G37*
G36*
X73742Y65618D02*
Y62396D01*
X76964D01*
X76901Y62876D01*
X76522Y63790D01*
X75920Y64575D01*
X75136Y65177D01*
X74222Y65555D01*
X73742Y65618D01*
D02*
G37*
G36*
X72742D02*
X72261Y65555D01*
X71348Y65177D01*
X70563Y64575D01*
X69961Y63790D01*
X69582Y62876D01*
X69519Y62396D01*
X72742D01*
Y65618D01*
D02*
G37*
G36*
X404900Y62613D02*
X404321Y62498D01*
X403859Y62189D01*
X403717Y62125D01*
X403383D01*
X403241Y62189D01*
X402779Y62498D01*
X402200Y62613D01*
X401621Y62498D01*
X401130Y62170D01*
X401063Y62070D01*
X400570D01*
X400079Y62398D01*
X399500Y62513D01*
X398921Y62398D01*
X398430Y62070D01*
X398316Y61900D01*
X397715D01*
X397601Y62070D01*
X397110Y62398D01*
X396531Y62513D01*
X395952Y62398D01*
X395461Y62070D01*
X395133Y61579D01*
X395018Y61000D01*
X395133Y60421D01*
X395380Y60051D01*
X395394Y60005D01*
X395397Y59989D01*
X395401Y59982D01*
X395404Y59974D01*
X395413Y59962D01*
X395413Y59961D01*
X395420Y59943D01*
X395429Y59912D01*
X395438Y59868D01*
X395446Y59818D01*
X395457Y59662D01*
X395459Y59571D01*
X395480Y59522D01*
Y40579D01*
X395459Y40533D01*
X395452Y40345D01*
X395446Y40285D01*
X395438Y40232D01*
X395428Y40189D01*
X395420Y40161D01*
X395414Y40145D01*
X395405Y40136D01*
X395402Y40127D01*
X395397Y40119D01*
X395394Y40102D01*
X395386Y40078D01*
X395102Y39654D01*
X394987Y39075D01*
X395102Y38496D01*
X395430Y38005D01*
X395921Y37677D01*
X396500Y37561D01*
X397079Y37677D01*
X397570Y38005D01*
X397898Y38496D01*
X397930Y38658D01*
X398430Y38609D01*
Y37440D01*
X398410Y37398D01*
X398412Y37393D01*
X398409Y37387D01*
X398402Y37201D01*
X398396Y37144D01*
X398387Y37093D01*
X398378Y37054D01*
X398370Y37029D01*
X398366Y37021D01*
X398360Y37014D01*
X398356Y37005D01*
X398349Y36996D01*
X398346Y36981D01*
X398330Y36970D01*
X398002Y36479D01*
X397887Y35900D01*
X398002Y35321D01*
X398330Y34830D01*
X398821Y34502D01*
X399400Y34387D01*
X399979Y34502D01*
X400470Y34830D01*
X400798Y35321D01*
X400913Y35900D01*
X400798Y36479D01*
X400572Y36818D01*
X400556Y36873D01*
X400553Y36889D01*
X400549Y36896D01*
X400547Y36905D01*
X400537Y36916D01*
X400536Y36919D01*
X400529Y36938D01*
X400520Y36971D01*
X400511Y37016D01*
X400504Y37067D01*
X400493Y37224D01*
X400491Y37316D01*
X400470Y37365D01*
Y42718D01*
X400970Y42870D01*
X401130Y42630D01*
X401621Y42302D01*
X402200Y42187D01*
X402779Y42302D01*
X403270Y42630D01*
X403380Y42795D01*
X403413Y42785D01*
X403700Y42639D01*
X403794Y42162D01*
X403785Y42103D01*
X403502Y41679D01*
X403387Y41100D01*
X403502Y40521D01*
X403830Y40030D01*
X404321Y39702D01*
X404900Y39587D01*
X405479Y39702D01*
X405970Y40030D01*
X406298Y40521D01*
X406413Y41100D01*
X406298Y41679D01*
X406014Y42104D01*
X406006Y42128D01*
X406003Y42145D01*
X405998Y42152D01*
X405995Y42161D01*
X405986Y42171D01*
X405980Y42186D01*
X405972Y42215D01*
X405962Y42257D01*
X405955Y42304D01*
X405943Y42458D01*
X405941Y42548D01*
X405920Y42597D01*
Y59595D01*
X405941Y59642D01*
X405948Y59829D01*
X405954Y59889D01*
X405962Y59943D01*
X405972Y59985D01*
X405980Y60014D01*
X405986Y60029D01*
X405995Y60039D01*
X405998Y60048D01*
X406003Y60055D01*
X406006Y60072D01*
X406014Y60096D01*
X406298Y60521D01*
X406413Y61100D01*
X406298Y61679D01*
X405970Y62170D01*
X405479Y62498D01*
X404900Y62613D01*
D02*
G37*
G36*
X8683Y63184D02*
X2777D01*
X1891Y63008D01*
X1139Y62506D01*
X637Y61754D01*
X461Y60868D01*
X637Y59982D01*
X1139Y59230D01*
X1891Y58728D01*
X2777Y58552D01*
X8683D01*
X9569Y58728D01*
X10321Y59230D01*
X10823Y59982D01*
X10999Y60868D01*
X10823Y61754D01*
X10321Y62506D01*
X9569Y63008D01*
X8683Y63184D01*
D02*
G37*
G36*
X-6002D02*
X-9152D01*
X-10039Y63008D01*
X-10790Y62506D01*
X-11292Y61754D01*
X-11468Y60868D01*
X-11292Y59982D01*
X-10790Y59230D01*
X-10039Y58728D01*
X-9152Y58552D01*
X-6002D01*
X-5116Y58728D01*
X-4365Y59230D01*
X-3863Y59982D01*
X-3686Y60868D01*
X-3863Y61754D01*
X-4365Y62506D01*
X-5116Y63008D01*
X-6002Y63184D01*
D02*
G37*
G36*
X76964Y61396D02*
X73742D01*
Y58174D01*
X74222Y58237D01*
X75136Y58615D01*
X75920Y59217D01*
X76522Y60002D01*
X76901Y60915D01*
X76964Y61396D01*
D02*
G37*
G36*
X72742D02*
X69519D01*
X69582Y60915D01*
X69961Y60002D01*
X70563Y59217D01*
X71348Y58615D01*
X72261Y58237D01*
X72742Y58174D01*
Y61396D01*
D02*
G37*
G36*
X478351Y65999D02*
X477772Y65884D01*
X477281Y65556D01*
X476953Y65065D01*
X476837Y64486D01*
X476953Y63907D01*
X476979Y63867D01*
X476979Y63855D01*
X476977Y63838D01*
X476979Y63829D01*
X476979Y63820D01*
X476984Y63808D01*
X476985Y63792D01*
X476985Y63761D01*
X476980Y63719D01*
X476972Y63671D01*
X476936Y63521D01*
X476909Y63435D01*
X476914Y63382D01*
X474601Y56344D01*
X474566Y56306D01*
X474501Y56130D01*
X474476Y56075D01*
X474451Y56027D01*
X474430Y55990D01*
X474412Y55965D01*
X474402Y55952D01*
X474391Y55946D01*
X474385Y55938D01*
X474378Y55933D01*
X474369Y55918D01*
X474332Y55869D01*
X474029Y55666D01*
X473701Y55175D01*
X473586Y54596D01*
X473701Y54017D01*
X474029Y53526D01*
X474520Y53198D01*
X475099Y53083D01*
X475678Y53198D01*
X476169Y53526D01*
X476497Y54017D01*
X476613Y54596D01*
X476497Y55175D01*
X476471Y55214D01*
X476471Y55227D01*
X476473Y55244D01*
X476471Y55252D01*
X476471Y55262D01*
X476465Y55274D01*
X476465Y55290D01*
X476465Y55320D01*
X476470Y55363D01*
X476477Y55411D01*
X476514Y55561D01*
X476541Y55646D01*
X476536Y55700D01*
X478849Y62738D01*
X478884Y62775D01*
X478949Y62951D01*
X478974Y63007D01*
X478999Y63055D01*
X479020Y63092D01*
X479038Y63117D01*
X479048Y63129D01*
X479059Y63136D01*
X479065Y63143D01*
X479072Y63149D01*
X479080Y63164D01*
X479118Y63213D01*
X479421Y63416D01*
X479749Y63907D01*
X479864Y64486D01*
X479749Y65065D01*
X479421Y65556D01*
X478930Y65884D01*
X478351Y65999D01*
D02*
G37*
G36*
X454800Y60013D02*
X454221Y59898D01*
X453730Y59570D01*
X453402Y59079D01*
X453287Y58500D01*
X453402Y57921D01*
X453727Y57434D01*
X453730Y57422D01*
X453735Y57414D01*
X453739Y57406D01*
X453748Y57396D01*
X453754Y57381D01*
X453763Y57353D01*
X453774Y57311D01*
X453783Y57263D01*
X453800Y57110D01*
X453804Y57020D01*
X453827Y56972D01*
X454031Y50390D01*
X454011Y50343D01*
X454010Y50155D01*
X454006Y50095D01*
X453999Y50041D01*
X453991Y49999D01*
X453983Y49969D01*
X453978Y49954D01*
X453969Y49944D01*
X453967Y49935D01*
X453962Y49927D01*
X453959Y49910D01*
X453946Y49866D01*
X453698Y49496D01*
X453583Y48917D01*
X453698Y48338D01*
X454027Y47847D01*
X454518Y47519D01*
X455097Y47404D01*
X455676Y47519D01*
X456167Y47847D01*
X456495Y48338D01*
X456610Y48917D01*
X456495Y49496D01*
X456170Y49983D01*
X456167Y49995D01*
X456161Y50003D01*
X456158Y50012D01*
X456149Y50021D01*
X456143Y50036D01*
X456133Y50065D01*
X456123Y50106D01*
X456114Y50154D01*
X456097Y50307D01*
X456093Y50397D01*
X456069Y50445D01*
X455866Y57028D01*
X455886Y57075D01*
X455887Y57262D01*
X455891Y57322D01*
X455898Y57377D01*
X455905Y57419D01*
X455913Y57448D01*
X455919Y57463D01*
X455927Y57473D01*
X455930Y57482D01*
X455935Y57490D01*
X455937Y57507D01*
X455951Y57551D01*
X456198Y57921D01*
X456313Y58500D01*
X456198Y59079D01*
X455870Y59570D01*
X455379Y59898D01*
X454800Y60013D01*
D02*
G37*
G36*
X356500Y39613D02*
X355921Y39498D01*
X355430Y39170D01*
X355102Y38679D01*
X355002Y38178D01*
X354991Y38155D01*
X354981Y38141D01*
X354980Y38132D01*
X354976Y38124D01*
X354975Y38111D01*
X354968Y38096D01*
X354954Y38069D01*
X354931Y38033D01*
X354902Y37994D01*
X354802Y37877D01*
X354740Y37812D01*
X354720Y37762D01*
X346278Y29320D01*
X316194D01*
X315804Y29242D01*
X315473Y29021D01*
X307049Y20597D01*
X307001Y20579D01*
X306864Y20451D01*
X306817Y20413D01*
X306773Y20381D01*
X306737Y20358D01*
X306710Y20344D01*
X306695Y20337D01*
X306682Y20336D01*
X306674Y20332D01*
X306665Y20330D01*
X306651Y20321D01*
X306628Y20310D01*
X306127Y20210D01*
X305636Y19882D01*
X305308Y19391D01*
X305193Y18812D01*
X305308Y18233D01*
X305636Y17742D01*
X306127Y17414D01*
X306706Y17299D01*
X307285Y17414D01*
X307776Y17742D01*
X308104Y18233D01*
X308204Y18734D01*
X308215Y18756D01*
X308225Y18771D01*
X308226Y18779D01*
X308230Y18788D01*
X308231Y18801D01*
X308238Y18816D01*
X308252Y18843D01*
X308275Y18879D01*
X308304Y18918D01*
X308404Y19035D01*
X308466Y19100D01*
X308486Y19150D01*
X316617Y27280D01*
X329825D01*
X330016Y26818D01*
X327736Y24539D01*
X327516Y24208D01*
X327438Y23818D01*
Y15534D01*
X322194Y10290D01*
X322146Y10272D01*
X322008Y10144D01*
X321961Y10106D01*
X321917Y10074D01*
X321881Y10051D01*
X321854Y10036D01*
X321840Y10030D01*
X321827Y10029D01*
X321818Y10025D01*
X321809Y10023D01*
X321795Y10014D01*
X321772Y10003D01*
X321271Y9903D01*
X320780Y9575D01*
X320452Y9084D01*
X320337Y8505D01*
X320452Y7926D01*
X320780Y7435D01*
X321271Y7107D01*
X321850Y6991D01*
X322430Y7107D01*
X322921Y7435D01*
X323249Y7926D01*
X323348Y8427D01*
X323359Y8449D01*
X323369Y8464D01*
X323371Y8472D01*
X323375Y8481D01*
X323376Y8494D01*
X323382Y8509D01*
X323397Y8535D01*
X323420Y8572D01*
X323448Y8610D01*
X323548Y8728D01*
X323611Y8793D01*
X323630Y8843D01*
X329178Y14391D01*
X329399Y14722D01*
X329477Y15112D01*
Y23396D01*
X331862Y25780D01*
X347321D01*
X347711Y25858D01*
X348042Y26079D01*
X356044Y34080D01*
X356295D01*
X356342Y34059D01*
X356529Y34052D01*
X356589Y34046D01*
X356643Y34038D01*
X356685Y34028D01*
X356714Y34020D01*
X356729Y34014D01*
X356739Y34005D01*
X356748Y34002D01*
X356755Y33997D01*
X356772Y33994D01*
X356796Y33986D01*
X357221Y33702D01*
X357800Y33587D01*
X358379Y33702D01*
X358870Y34030D01*
X359198Y34521D01*
X359313Y35100D01*
X359198Y35679D01*
X358870Y36170D01*
X358379Y36498D01*
X357836Y36606D01*
X357690Y36838D01*
X357607Y37085D01*
X357898Y37521D01*
X358013Y38100D01*
X357898Y38679D01*
X357570Y39170D01*
X357079Y39498D01*
X356500Y39613D01*
D02*
G37*
G36*
X52842Y23410D02*
Y18996D01*
X57256D01*
X57152Y19785D01*
X56654Y20986D01*
X55863Y22017D01*
X54831Y22808D01*
X53631Y23306D01*
X52842Y23410D01*
D02*
G37*
G36*
X51842D02*
X51053Y23306D01*
X49852Y22808D01*
X48821Y22017D01*
X48029Y20986D01*
X47532Y19785D01*
X47428Y18996D01*
X51842D01*
Y23410D01*
D02*
G37*
G36*
X22842Y82609D02*
X22263Y82494D01*
X21772Y82166D01*
X21444Y81675D01*
X21328Y81096D01*
X21444Y80517D01*
X21772Y80026D01*
X22263Y79698D01*
X22763Y79598D01*
X22786Y79587D01*
X22801Y79577D01*
X22809Y79576D01*
X22818Y79572D01*
X22831Y79571D01*
X22846Y79564D01*
X22872Y79550D01*
X22908Y79527D01*
X22948Y79498D01*
X23065Y79398D01*
X23129Y79336D01*
X23180Y79316D01*
X25051Y77445D01*
X25069Y77265D01*
X23285Y75481D01*
X23237Y75463D01*
X23099Y75335D01*
X23053Y75297D01*
X23009Y75265D01*
X22972Y75242D01*
X22946Y75228D01*
X22931Y75221D01*
X22918Y75220D01*
X22909Y75216D01*
X22901Y75214D01*
X22886Y75205D01*
X22863Y75194D01*
X22363Y75094D01*
X21872Y74766D01*
X21544Y74275D01*
X21428Y73696D01*
X21544Y73117D01*
X21872Y72626D01*
X22363Y72298D01*
X22942Y72183D01*
X23521Y72298D01*
X24012Y72626D01*
X24340Y73117D01*
X24440Y73618D01*
X24451Y73641D01*
X24460Y73655D01*
X24462Y73664D01*
X24466Y73672D01*
X24467Y73685D01*
X24473Y73700D01*
X24488Y73727D01*
X24511Y73763D01*
X24539Y73802D01*
X24639Y73919D01*
X24702Y73984D01*
X24722Y74034D01*
X26334Y75647D01*
X31549D01*
X34722Y72474D01*
Y47675D01*
X34800Y47284D01*
X35021Y46954D01*
X39715Y42259D01*
X40046Y42038D01*
X40436Y41961D01*
X87898D01*
X89422Y40437D01*
Y23125D01*
X89500Y22735D01*
X89721Y22404D01*
X94099Y18025D01*
X94430Y17804D01*
X94820Y17726D01*
X116102D01*
X116144Y17517D01*
X116472Y17026D01*
X116963Y16698D01*
X117542Y16583D01*
X118121Y16698D01*
X118612Y17026D01*
X118940Y17517D01*
X119055Y18096D01*
X118940Y18675D01*
X118612Y19166D01*
X118568Y19195D01*
Y19797D01*
X118612Y19826D01*
X118940Y20317D01*
X119055Y20896D01*
X118940Y21475D01*
X118612Y21966D01*
X118121Y22294D01*
X117542Y22409D01*
X116963Y22294D01*
X116472Y21966D01*
X116144Y21475D01*
X116102Y21266D01*
X95864D01*
X92961Y24168D01*
Y41480D01*
X92884Y41870D01*
X92663Y42201D01*
X89663Y45201D01*
X89663Y45201D01*
X89332Y45422D01*
X88942Y45500D01*
X41480D01*
X38261Y48718D01*
Y73517D01*
X38184Y73908D01*
X37963Y74238D01*
X33314Y78887D01*
X32983Y79108D01*
X32593Y79186D01*
X26194D01*
X24627Y80753D01*
X24609Y80801D01*
X24481Y80939D01*
X24443Y80985D01*
X24411Y81029D01*
X24388Y81065D01*
X24373Y81092D01*
X24367Y81107D01*
X24366Y81120D01*
X24362Y81128D01*
X24360Y81137D01*
X24351Y81151D01*
X24340Y81174D01*
X24240Y81675D01*
X23912Y82166D01*
X23421Y82494D01*
X22842Y82609D01*
D02*
G37*
G36*
X57256Y17996D02*
X52842D01*
Y13582D01*
X53631Y13686D01*
X54831Y14184D01*
X55863Y14975D01*
X56654Y16006D01*
X57152Y17207D01*
X57256Y17996D01*
D02*
G37*
G36*
X51842D02*
X47428D01*
X47532Y17207D01*
X48029Y16006D01*
X48821Y14975D01*
X49852Y14184D01*
X51053Y13686D01*
X51842Y13582D01*
Y17996D01*
D02*
G37*
G36*
X341000Y23513D02*
X340421Y23398D01*
X339930Y23070D01*
X339602Y22579D01*
X339487Y22000D01*
X339602Y21421D01*
X339886Y20996D01*
X339894Y20972D01*
X339897Y20955D01*
X339902Y20948D01*
X339905Y20939D01*
X339914Y20929D01*
X339920Y20914D01*
X339928Y20885D01*
X339938Y20843D01*
X339945Y20796D01*
X339957Y20642D01*
X339959Y20552D01*
X339980Y20503D01*
Y17922D01*
X340058Y17532D01*
X340279Y17201D01*
X340822Y16658D01*
Y15001D01*
X340801Y14954D01*
X340794Y14766D01*
X340788Y14707D01*
X340779Y14653D01*
X340770Y14611D01*
X340761Y14582D01*
X340756Y14567D01*
X340747Y14557D01*
X340744Y14548D01*
X340739Y14541D01*
X340736Y14524D01*
X340727Y14500D01*
X340444Y14075D01*
X340328Y13496D01*
X340444Y12917D01*
X340772Y12426D01*
X341263Y12098D01*
X341842Y11983D01*
X342421Y12098D01*
X342912Y12426D01*
X343240Y12917D01*
X343355Y13496D01*
X343240Y14075D01*
X342956Y14500D01*
X342948Y14524D01*
X342945Y14541D01*
X342939Y14548D01*
X342936Y14557D01*
X342928Y14567D01*
X342922Y14582D01*
X342913Y14611D01*
X342904Y14653D01*
X342897Y14700D01*
X342884Y14854D01*
X342883Y14944D01*
X342861Y14993D01*
Y17080D01*
X342784Y17470D01*
X342563Y17801D01*
X342020Y18344D01*
Y20495D01*
X342041Y20542D01*
X342048Y20729D01*
X342054Y20789D01*
X342062Y20843D01*
X342072Y20885D01*
X342080Y20914D01*
X342086Y20929D01*
X342095Y20939D01*
X342098Y20948D01*
X342103Y20955D01*
X342106Y20972D01*
X342114Y20996D01*
X342398Y21421D01*
X342513Y22000D01*
X342398Y22579D01*
X342070Y23070D01*
X341579Y23398D01*
X341000Y23513D01*
D02*
G37*
G36*
X317342Y13924D02*
Y11496D01*
X319770D01*
X319734Y11771D01*
X319435Y12493D01*
X318959Y13113D01*
X318339Y13589D01*
X317617Y13888D01*
X317342Y13924D01*
D02*
G37*
G36*
X347342D02*
Y11496D01*
X349770D01*
X349734Y11771D01*
X349435Y12493D01*
X348959Y13113D01*
X348339Y13589D01*
X347617Y13888D01*
X347342Y13924D01*
D02*
G37*
G36*
X346342D02*
X346067Y13888D01*
X345345Y13589D01*
X344725Y13113D01*
X344249Y12493D01*
X343950Y11771D01*
X343913Y11496D01*
X346342D01*
Y13924D01*
D02*
G37*
G36*
X316342D02*
X316067Y13888D01*
X315345Y13589D01*
X314725Y13113D01*
X314249Y12493D01*
X313950Y11771D01*
X313913Y11496D01*
X316342D01*
Y13924D01*
D02*
G37*
G36*
X319770Y10496D02*
X317342D01*
Y8068D01*
X317617Y8104D01*
X318339Y8403D01*
X318959Y8879D01*
X319435Y9499D01*
X319734Y10221D01*
X319770Y10496D01*
D02*
G37*
G36*
X349770D02*
X347342D01*
Y8068D01*
X347617Y8104D01*
X348339Y8403D01*
X348959Y8879D01*
X349435Y9499D01*
X349734Y10221D01*
X349770Y10496D01*
D02*
G37*
G36*
X346342D02*
X343913D01*
X343950Y10221D01*
X344249Y9499D01*
X344725Y8879D01*
X345345Y8403D01*
X346067Y8104D01*
X346342Y8068D01*
Y10496D01*
D02*
G37*
G36*
X316342D02*
X313913D01*
X313950Y10221D01*
X314249Y9499D01*
X314725Y8879D01*
X315345Y8403D01*
X316067Y8104D01*
X316342Y8068D01*
Y10496D01*
D02*
G37*
%LPD*%
G36*
X437252Y391252D02*
X437220Y391204D01*
X437192Y391149D01*
X437167Y391087D01*
X437147Y391017D01*
X437129Y390939D01*
X437116Y390855D01*
X437107Y390763D01*
X437099Y390558D01*
X436099D01*
X436097Y390664D01*
X436082Y390855D01*
X436069Y390939D01*
X436052Y391017D01*
X436031Y391087D01*
X436007Y391149D01*
X435978Y391204D01*
X435946Y391252D01*
X435910Y391293D01*
X437288D01*
X437252Y391252D01*
D02*
G37*
G36*
X437101Y384128D02*
X437116Y383937D01*
X437129Y383853D01*
X437147Y383775D01*
X437167Y383705D01*
X437192Y383643D01*
X437220Y383588D01*
X437252Y383540D01*
X437288Y383499D01*
X435910D01*
X435946Y383540D01*
X435978Y383588D01*
X436007Y383643D01*
X436031Y383705D01*
X436052Y383775D01*
X436069Y383853D01*
X436082Y383937D01*
X436092Y384029D01*
X436099Y384234D01*
X437099D01*
X437101Y384128D01*
D02*
G37*
G36*
X449252Y391452D02*
X449220Y391404D01*
X449192Y391349D01*
X449167Y391286D01*
X449147Y391217D01*
X449129Y391139D01*
X449116Y391055D01*
X449107Y390963D01*
X449099Y390758D01*
X448099D01*
X448097Y390864D01*
X448082Y391055D01*
X448069Y391139D01*
X448052Y391217D01*
X448031Y391286D01*
X448007Y391349D01*
X447978Y391404D01*
X447946Y391452D01*
X447910Y391493D01*
X449288D01*
X449252Y391452D01*
D02*
G37*
G36*
X449101Y383528D02*
X449116Y383337D01*
X449129Y383253D01*
X449147Y383175D01*
X449167Y383105D01*
X449192Y383043D01*
X449220Y382988D01*
X449252Y382940D01*
X449288Y382899D01*
X447910D01*
X447946Y382940D01*
X447978Y382988D01*
X448007Y383043D01*
X448031Y383105D01*
X448052Y383175D01*
X448069Y383253D01*
X448082Y383337D01*
X448092Y383429D01*
X448099Y383634D01*
X449099D01*
X449101Y383528D01*
D02*
G37*
G36*
X366529Y392532D02*
X366541Y392475D01*
X366560Y392416D01*
X366586Y392355D01*
X366621Y392290D01*
X366664Y392224D01*
X366714Y392155D01*
X366772Y392083D01*
X366912Y391933D01*
X366205Y391225D01*
X366129Y391299D01*
X365983Y391424D01*
X365914Y391474D01*
X365847Y391516D01*
X365783Y391551D01*
X365722Y391578D01*
X365662Y391597D01*
X365606Y391608D01*
X365552Y391612D01*
X366526Y392586D01*
X366529Y392532D01*
D02*
G37*
G36*
X371344Y383328D02*
X371359Y383137D01*
X371372Y383053D01*
X371389Y382975D01*
X371410Y382906D01*
X371434Y382843D01*
X371463Y382788D01*
X371495Y382740D01*
X371531Y382699D01*
X370153D01*
X370189Y382740D01*
X370221Y382788D01*
X370249Y382843D01*
X370274Y382906D01*
X370294Y382975D01*
X370311Y383053D01*
X370325Y383137D01*
X370334Y383229D01*
X370342Y383434D01*
X371342D01*
X371344Y383328D01*
D02*
G37*
G36*
X331028Y401491D02*
X330992Y401450D01*
X330960Y401402D01*
X330931Y401347D01*
X330907Y401284D01*
X330886Y401214D01*
X330869Y401137D01*
X330855Y401053D01*
X330846Y400961D01*
X330838Y400756D01*
X329838Y400760D01*
X329836Y400866D01*
X329821Y401057D01*
X329808Y401142D01*
X329791Y401219D01*
X329770Y401289D01*
X329746Y401351D01*
X329718Y401407D01*
X329686Y401455D01*
X329650Y401496D01*
X331028Y401491D01*
D02*
G37*
G36*
X330840Y385531D02*
X330855Y385341D01*
X330868Y385256D01*
X330885Y385179D01*
X330906Y385109D01*
X330931Y385046D01*
X330959Y384991D01*
X330991Y384943D01*
X331027Y384902D01*
X329649D01*
X329685Y384943D01*
X329717Y384991D01*
X329746Y385046D01*
X329770Y385109D01*
X329791Y385179D01*
X329808Y385256D01*
X329821Y385341D01*
X329831Y385432D01*
X329838Y385638D01*
X330838D01*
X330840Y385531D01*
D02*
G37*
G36*
X331326Y384136D02*
X331337Y384079D01*
X331356Y384020D01*
X331383Y383958D01*
X331418Y383894D01*
X331460Y383827D01*
X331511Y383758D01*
X331569Y383687D01*
X331709Y383536D01*
X331002Y382829D01*
X330925Y382903D01*
X330780Y383027D01*
X330710Y383078D01*
X330644Y383120D01*
X330580Y383155D01*
X330518Y383182D01*
X330459Y383201D01*
X330402Y383212D01*
X330348Y383215D01*
X331322Y384190D01*
X331326Y384136D01*
D02*
G37*
G36*
X330690Y365682D02*
X330705Y365491D01*
X330718Y365406D01*
X330735Y365329D01*
X330756Y365259D01*
X330781Y365196D01*
X330809Y365141D01*
X330841Y365093D01*
X330877Y365052D01*
X329499D01*
X329535Y365093D01*
X329567Y365141D01*
X329596Y365196D01*
X329620Y365259D01*
X329641Y365329D01*
X329658Y365406D01*
X329671Y365491D01*
X329681Y365582D01*
X329688Y365788D01*
X330688D01*
X330690Y365682D01*
D02*
G37*
G36*
X419729Y364016D02*
X419678Y364007D01*
X419625Y363992D01*
X419569Y363969D01*
X419509Y363939D01*
X419447Y363901D01*
X419382Y363857D01*
X419243Y363744D01*
X419170Y363677D01*
X419093Y363603D01*
X418304Y364229D01*
X418378Y364305D01*
X418500Y364451D01*
X418548Y364521D01*
X418588Y364588D01*
X418620Y364653D01*
X418643Y364716D01*
X418658Y364776D01*
X418665Y364834D01*
X418663Y364889D01*
X419729Y364016D01*
D02*
G37*
G36*
X415049Y359559D02*
X414975Y359482D01*
X414850Y359336D01*
X414800Y359267D01*
X414757Y359201D01*
X414723Y359137D01*
X414696Y359075D01*
X414677Y359016D01*
X414666Y358959D01*
X414662Y358905D01*
X413688Y359879D01*
X413742Y359883D01*
X413799Y359894D01*
X413858Y359913D01*
X413919Y359940D01*
X413983Y359975D01*
X414050Y360017D01*
X414119Y360068D01*
X414191Y360126D01*
X414341Y360266D01*
X415049Y359559D01*
D02*
G37*
G36*
X356818Y346360D02*
X356865Y346325D01*
X356919Y346295D01*
X356981Y346269D01*
X357050Y346247D01*
X357127Y346228D01*
X357211Y346214D01*
X357302Y346204D01*
X357507Y346196D01*
X357449Y345196D01*
X357342Y345194D01*
X357151Y345180D01*
X357066Y345168D01*
X356988Y345152D01*
X356918Y345133D01*
X356855Y345111D01*
X356799Y345085D01*
X356750Y345055D01*
X356709Y345022D01*
X356779Y346398D01*
X356818Y346360D01*
D02*
G37*
G36*
X359439Y345007D02*
X359398Y345043D01*
X359350Y345075D01*
X359295Y345103D01*
X359232Y345128D01*
X359162Y345149D01*
X359085Y345166D01*
X359001Y345179D01*
X358909Y345188D01*
X358703Y345196D01*
Y346196D01*
X358810Y346198D01*
X359001Y346213D01*
X359085Y346226D01*
X359162Y346243D01*
X359232Y346264D01*
X359295Y346289D01*
X359350Y346317D01*
X359398Y346349D01*
X359439Y346385D01*
Y345007D01*
D02*
G37*
G36*
Y341907D02*
X359398Y341943D01*
X359350Y341975D01*
X359295Y342003D01*
X359232Y342028D01*
X359162Y342049D01*
X359085Y342066D01*
X359001Y342079D01*
X358909Y342088D01*
X358703Y342096D01*
Y343096D01*
X358810Y343098D01*
X359001Y343113D01*
X359085Y343126D01*
X359162Y343143D01*
X359232Y343164D01*
X359295Y343189D01*
X359350Y343217D01*
X359398Y343249D01*
X359439Y343285D01*
Y341907D01*
D02*
G37*
G36*
X354285Y343249D02*
X354333Y343217D01*
X354389Y343189D01*
X354451Y343164D01*
X354521Y343143D01*
X354598Y343126D01*
X354683Y343113D01*
X354775Y343104D01*
X354980Y343096D01*
Y342096D01*
X354874Y342094D01*
X354683Y342079D01*
X354598Y342066D01*
X354521Y342049D01*
X354451Y342028D01*
X354389Y342003D01*
X354333Y341975D01*
X354285Y341943D01*
X354245Y341907D01*
Y343285D01*
X354285Y343249D01*
D02*
G37*
G36*
X337056Y314393D02*
X337015Y314355D01*
X336979Y314309D01*
X336947Y314256D01*
X336919Y314195D01*
X336895Y314127D01*
X336876Y314051D01*
X336861Y313968D01*
X336850Y313877D01*
X336842Y313672D01*
X335842Y313791D01*
X335840Y313898D01*
X335817Y314175D01*
X335803Y314253D01*
X335785Y314324D01*
X335765Y314387D01*
X335741Y314443D01*
X335715Y314491D01*
X335685Y314533D01*
X337056Y314393D01*
D02*
G37*
G36*
X336844Y305928D02*
X336859Y305737D01*
X336872Y305653D01*
X336889Y305575D01*
X336910Y305505D01*
X336934Y305443D01*
X336963Y305388D01*
X336995Y305340D01*
X337031Y305299D01*
X335653D01*
X335689Y305340D01*
X335721Y305388D01*
X335749Y305443D01*
X335774Y305505D01*
X335794Y305575D01*
X335811Y305653D01*
X335825Y305737D01*
X335834Y305829D01*
X335842Y306034D01*
X336842D01*
X336844Y305928D01*
D02*
G37*
G36*
X332944D02*
X332959Y305737D01*
X332972Y305653D01*
X332989Y305575D01*
X333010Y305505D01*
X333034Y305443D01*
X333063Y305388D01*
X333095Y305340D01*
X333131Y305299D01*
X331753D01*
X331789Y305340D01*
X331821Y305388D01*
X331849Y305443D01*
X331874Y305505D01*
X331894Y305575D01*
X331911Y305653D01*
X331925Y305737D01*
X331934Y305829D01*
X331942Y306034D01*
X332942D01*
X332944Y305928D01*
D02*
G37*
G36*
X358798Y218655D02*
X358766Y218607D01*
X358737Y218551D01*
X358713Y218489D01*
X358692Y218419D01*
X358676Y218342D01*
X358662Y218257D01*
X358653Y218165D01*
X358645Y217960D01*
X357645Y217955D01*
X357644Y218062D01*
X357628Y218253D01*
X357615Y218337D01*
X357598Y218414D01*
X357577Y218484D01*
X357552Y218547D01*
X357524Y218602D01*
X357491Y218650D01*
X357455Y218690D01*
X358833Y218696D01*
X358798Y218655D01*
D02*
G37*
G36*
X358647Y202947D02*
X358663Y202757D01*
X358676Y202672D01*
X358693Y202595D01*
X358714Y202525D01*
X358738Y202463D01*
X358767Y202407D01*
X358799Y202359D01*
X358835Y202319D01*
X357457Y202314D01*
X357493Y202354D01*
X357525Y202402D01*
X357553Y202458D01*
X357578Y202520D01*
X357598Y202590D01*
X357615Y202668D01*
X357628Y202752D01*
X357638Y202844D01*
X357645Y203049D01*
X358645Y203054D01*
X358647Y202947D01*
D02*
G37*
G36*
X344097Y188311D02*
X344056Y188347D01*
X344008Y188379D01*
X343953Y188407D01*
X343891Y188432D01*
X343821Y188453D01*
X343743Y188470D01*
X343659Y188483D01*
X343567Y188492D01*
X343362Y188500D01*
Y189500D01*
X343468Y189502D01*
X343659Y189517D01*
X343743Y189530D01*
X343821Y189547D01*
X343891Y189568D01*
X343953Y189593D01*
X344008Y189621D01*
X344056Y189653D01*
X344097Y189689D01*
Y188311D01*
D02*
G37*
G36*
X321514Y189652D02*
X321562Y189620D01*
X321618Y189592D01*
X321680Y189568D01*
X321750Y189547D01*
X321827Y189530D01*
X321912Y189517D01*
X322004Y189507D01*
X322209Y189500D01*
X322214Y188500D01*
X322108Y188498D01*
X321917Y188483D01*
X321832Y188470D01*
X321755Y188452D01*
X321685Y188432D01*
X321623Y188407D01*
X321568Y188378D01*
X321520Y188346D01*
X321479Y188310D01*
X321473Y189688D01*
X321514Y189652D01*
D02*
G37*
G36*
X345997Y186311D02*
X345956Y186347D01*
X345908Y186379D01*
X345853Y186407D01*
X345791Y186432D01*
X345721Y186453D01*
X345643Y186470D01*
X345559Y186483D01*
X345467Y186492D01*
X345262Y186500D01*
Y187500D01*
X345368Y187502D01*
X345559Y187517D01*
X345643Y187530D01*
X345721Y187547D01*
X345791Y187568D01*
X345853Y187593D01*
X345908Y187621D01*
X345956Y187653D01*
X345997Y187689D01*
Y186311D01*
D02*
G37*
G36*
X324035Y187652D02*
X324083Y187620D01*
X324138Y187592D01*
X324201Y187568D01*
X324271Y187547D01*
X324348Y187530D01*
X324432Y187517D01*
X324524Y187507D01*
X324730Y187500D01*
X324734Y186500D01*
X324628Y186498D01*
X324437Y186483D01*
X324353Y186470D01*
X324276Y186452D01*
X324206Y186432D01*
X324143Y186407D01*
X324088Y186378D01*
X324040Y186346D01*
X323999Y186310D01*
X323994Y187688D01*
X324035Y187652D01*
D02*
G37*
G36*
X-4647Y160256D02*
X-4679Y160208D01*
X-4707Y160153D01*
X-4732Y160090D01*
X-4753Y160021D01*
X-4770Y159943D01*
X-4783Y159859D01*
X-4792Y159767D01*
X-4800Y159562D01*
X-5800D01*
X-5802Y159668D01*
X-5817Y159859D01*
X-5830Y159943D01*
X-5847Y160021D01*
X-5868Y160090D01*
X-5893Y160153D01*
X-5921Y160208D01*
X-5953Y160256D01*
X-5989Y160297D01*
X-4611D01*
X-4647Y160256D01*
D02*
G37*
G36*
X-7447D02*
X-7479Y160208D01*
X-7507Y160153D01*
X-7532Y160090D01*
X-7553Y160021D01*
X-7570Y159943D01*
X-7583Y159859D01*
X-7592Y159767D01*
X-7600Y159562D01*
X-8600D01*
X-8602Y159668D01*
X-8617Y159859D01*
X-8630Y159943D01*
X-8647Y160021D01*
X-8668Y160090D01*
X-8693Y160153D01*
X-8721Y160208D01*
X-8753Y160256D01*
X-8789Y160297D01*
X-7411D01*
X-7447Y160256D01*
D02*
G37*
G36*
X-10147D02*
X-10179Y160208D01*
X-10207Y160153D01*
X-10232Y160090D01*
X-10253Y160021D01*
X-10270Y159943D01*
X-10283Y159859D01*
X-10292Y159767D01*
X-10300Y159562D01*
X-11300D01*
X-11302Y159668D01*
X-11317Y159859D01*
X-11330Y159943D01*
X-11347Y160021D01*
X-11368Y160090D01*
X-11393Y160153D01*
X-11421Y160208D01*
X-11453Y160256D01*
X-11489Y160297D01*
X-10111D01*
X-10147Y160256D01*
D02*
G37*
G36*
X-4798Y143632D02*
X-4783Y143441D01*
X-4770Y143357D01*
X-4753Y143279D01*
X-4732Y143210D01*
X-4707Y143147D01*
X-4679Y143092D01*
X-4647Y143044D01*
X-4611Y143003D01*
X-5989D01*
X-5953Y143044D01*
X-5921Y143092D01*
X-5893Y143147D01*
X-5868Y143210D01*
X-5847Y143279D01*
X-5830Y143357D01*
X-5817Y143441D01*
X-5808Y143533D01*
X-5800Y143738D01*
X-4800D01*
X-4798Y143632D01*
D02*
G37*
G36*
X-7598Y141332D02*
X-7583Y141141D01*
X-7570Y141057D01*
X-7553Y140979D01*
X-7532Y140910D01*
X-7507Y140847D01*
X-7479Y140792D01*
X-7447Y140744D01*
X-7411Y140703D01*
X-8789D01*
X-8753Y140744D01*
X-8721Y140792D01*
X-8693Y140847D01*
X-8668Y140910D01*
X-8647Y140979D01*
X-8630Y141057D01*
X-8617Y141141D01*
X-8608Y141233D01*
X-8600Y141438D01*
X-7600D01*
X-7598Y141332D01*
D02*
G37*
G36*
X-10298Y139032D02*
X-10283Y138841D01*
X-10270Y138757D01*
X-10253Y138679D01*
X-10232Y138610D01*
X-10207Y138547D01*
X-10179Y138492D01*
X-10147Y138444D01*
X-10111Y138403D01*
X-11489D01*
X-11453Y138444D01*
X-11421Y138492D01*
X-11393Y138547D01*
X-11368Y138610D01*
X-11347Y138679D01*
X-11330Y138757D01*
X-11317Y138841D01*
X-11308Y138933D01*
X-11300Y139138D01*
X-10300D01*
X-10298Y139032D01*
D02*
G37*
G36*
X375429Y168448D02*
X375441Y168391D01*
X375460Y168332D01*
X375486Y168270D01*
X375521Y168206D01*
X375564Y168140D01*
X375614Y168070D01*
X375672Y167999D01*
X375812Y167848D01*
X375105Y167141D01*
X375029Y167215D01*
X374883Y167339D01*
X374814Y167390D01*
X374747Y167432D01*
X374683Y167467D01*
X374622Y167494D01*
X374562Y167513D01*
X374506Y167524D01*
X374452Y167527D01*
X375426Y168502D01*
X375429Y168448D01*
D02*
G37*
G36*
X377426Y162150D02*
X377427Y162043D01*
X377449Y161766D01*
X377463Y161688D01*
X377479Y161617D01*
X377498Y161554D01*
X377520Y161498D01*
X377545Y161450D01*
X377573Y161409D01*
X376207Y161585D01*
X376248Y161622D01*
X376286Y161667D01*
X376319Y161719D01*
X376347Y161779D01*
X376371Y161847D01*
X376391Y161923D01*
X376406Y162006D01*
X376417Y162096D01*
X376424Y162195D01*
X376426Y162301D01*
X377426Y162150D01*
D02*
G37*
G36*
X-23047Y145956D02*
X-23079Y145908D01*
X-23107Y145853D01*
X-23132Y145791D01*
X-23153Y145721D01*
X-23170Y145643D01*
X-23183Y145559D01*
X-23192Y145467D01*
X-23200Y145262D01*
X-24200D01*
X-24202Y145368D01*
X-24217Y145559D01*
X-24230Y145643D01*
X-24247Y145721D01*
X-24268Y145791D01*
X-24293Y145853D01*
X-24321Y145908D01*
X-24353Y145956D01*
X-24389Y145997D01*
X-23011D01*
X-23047Y145956D01*
D02*
G37*
G36*
X-16887Y136297D02*
X-16741Y136172D01*
X-16672Y136122D01*
X-16606Y136080D01*
X-16541Y136045D01*
X-16480Y136018D01*
X-16421Y135999D01*
X-16364Y135988D01*
X-16310Y135984D01*
X-17284Y135010D01*
X-17288Y135064D01*
X-17299Y135121D01*
X-17318Y135180D01*
X-17345Y135241D01*
X-17379Y135306D01*
X-17422Y135372D01*
X-17472Y135441D01*
X-17531Y135513D01*
X-17671Y135663D01*
X-16963Y136371D01*
X-16887Y136297D01*
D02*
G37*
G36*
X415696Y120811D02*
X415655Y120847D01*
X415607Y120879D01*
X415552Y120907D01*
X415489Y120932D01*
X415419Y120953D01*
X415342Y120970D01*
X415258Y120983D01*
X415166Y120992D01*
X414960Y121000D01*
Y122000D01*
X415067Y122002D01*
X415258Y122017D01*
X415342Y122030D01*
X415419Y122047D01*
X415489Y122068D01*
X415552Y122093D01*
X415607Y122121D01*
X415655Y122153D01*
X415696Y122189D01*
Y120811D01*
D02*
G37*
G36*
X393944Y122153D02*
X393992Y122121D01*
X394047Y122093D01*
X394110Y122068D01*
X394179Y122047D01*
X394257Y122030D01*
X394341Y122017D01*
X394433Y122008D01*
X394638Y122000D01*
Y121000D01*
X394532Y120998D01*
X394341Y120983D01*
X394257Y120970D01*
X394179Y120953D01*
X394110Y120932D01*
X394047Y120907D01*
X393992Y120879D01*
X393944Y120847D01*
X393903Y120811D01*
Y122189D01*
X393944Y122153D01*
D02*
G37*
G36*
X415696Y117911D02*
X415655Y117947D01*
X415607Y117979D01*
X415552Y118007D01*
X415489Y118032D01*
X415419Y118053D01*
X415342Y118070D01*
X415258Y118083D01*
X415166Y118092D01*
X414960Y118100D01*
Y119100D01*
X415067Y119102D01*
X415258Y119117D01*
X415342Y119130D01*
X415419Y119147D01*
X415489Y119168D01*
X415552Y119193D01*
X415607Y119221D01*
X415655Y119253D01*
X415696Y119289D01*
Y117911D01*
D02*
G37*
G36*
X393944Y119253D02*
X393992Y119221D01*
X394047Y119193D01*
X394110Y119168D01*
X394179Y119147D01*
X394257Y119130D01*
X394341Y119117D01*
X394433Y119108D01*
X394638Y119100D01*
Y118100D01*
X394532Y118098D01*
X394341Y118083D01*
X394257Y118070D01*
X394179Y118053D01*
X394110Y118032D01*
X394047Y118007D01*
X393992Y117979D01*
X393944Y117947D01*
X393903Y117911D01*
Y119289D01*
X393944Y119253D01*
D02*
G37*
G36*
X415696Y115111D02*
X415655Y115147D01*
X415607Y115179D01*
X415552Y115207D01*
X415489Y115232D01*
X415419Y115253D01*
X415342Y115270D01*
X415258Y115283D01*
X415166Y115292D01*
X414960Y115300D01*
Y116300D01*
X415067Y116302D01*
X415258Y116317D01*
X415342Y116330D01*
X415419Y116347D01*
X415489Y116368D01*
X415552Y116393D01*
X415607Y116421D01*
X415655Y116453D01*
X415696Y116489D01*
Y115111D01*
D02*
G37*
G36*
X393944Y116453D02*
X393992Y116421D01*
X394047Y116393D01*
X394110Y116368D01*
X394179Y116347D01*
X394257Y116330D01*
X394341Y116317D01*
X394433Y116308D01*
X394638Y116300D01*
Y115300D01*
X394532Y115298D01*
X394341Y115283D01*
X394257Y115270D01*
X394179Y115253D01*
X394110Y115232D01*
X394047Y115207D01*
X393992Y115179D01*
X393944Y115147D01*
X393903Y115111D01*
Y116489D01*
X393944Y116453D01*
D02*
G37*
G36*
X415696Y112211D02*
X415655Y112247D01*
X415607Y112279D01*
X415552Y112307D01*
X415489Y112332D01*
X415419Y112353D01*
X415342Y112370D01*
X415258Y112383D01*
X415166Y112392D01*
X414960Y112400D01*
Y113400D01*
X415067Y113402D01*
X415258Y113417D01*
X415342Y113430D01*
X415419Y113447D01*
X415489Y113468D01*
X415552Y113493D01*
X415607Y113521D01*
X415655Y113553D01*
X415696Y113589D01*
Y112211D01*
D02*
G37*
G36*
X393944Y113553D02*
X393992Y113521D01*
X394047Y113493D01*
X394110Y113468D01*
X394179Y113447D01*
X394257Y113430D01*
X394341Y113417D01*
X394433Y113408D01*
X394638Y113400D01*
Y112400D01*
X394532Y112398D01*
X394341Y112383D01*
X394257Y112370D01*
X394179Y112353D01*
X394110Y112332D01*
X394047Y112307D01*
X393992Y112279D01*
X393944Y112247D01*
X393903Y112211D01*
Y113589D01*
X393944Y113553D01*
D02*
G37*
G36*
X289744Y118153D02*
X289792Y118121D01*
X289847Y118093D01*
X289910Y118068D01*
X289979Y118047D01*
X290057Y118030D01*
X290141Y118017D01*
X290233Y118008D01*
X290438Y118000D01*
Y117000D01*
X290332Y116998D01*
X290141Y116983D01*
X290057Y116970D01*
X289979Y116953D01*
X289910Y116932D01*
X289847Y116907D01*
X289792Y116879D01*
X289744Y116847D01*
X289703Y116811D01*
Y118189D01*
X289744Y118153D01*
D02*
G37*
G36*
X286444Y115853D02*
X286492Y115821D01*
X286547Y115793D01*
X286610Y115768D01*
X286679Y115747D01*
X286757Y115730D01*
X286841Y115717D01*
X286933Y115708D01*
X287138Y115700D01*
Y114700D01*
X287032Y114698D01*
X286841Y114683D01*
X286757Y114670D01*
X286679Y114653D01*
X286610Y114632D01*
X286547Y114607D01*
X286492Y114579D01*
X286444Y114547D01*
X286403Y114511D01*
Y115889D01*
X286444Y115853D01*
D02*
G37*
G36*
X288185Y113653D02*
X288233Y113621D01*
X288289Y113593D01*
X288351Y113568D01*
X288421Y113547D01*
X288498Y113530D01*
X288583Y113517D01*
X288675Y113508D01*
X288880Y113500D01*
Y112500D01*
X288774Y112498D01*
X288583Y112483D01*
X288498Y112470D01*
X288421Y112453D01*
X288351Y112432D01*
X288289Y112407D01*
X288233Y112379D01*
X288185Y112347D01*
X288145Y112311D01*
Y113689D01*
X288185Y113653D01*
D02*
G37*
G36*
X342202Y79632D02*
X342217Y79441D01*
X342230Y79357D01*
X342247Y79279D01*
X342268Y79210D01*
X342293Y79147D01*
X342321Y79092D01*
X342353Y79044D01*
X342389Y79003D01*
X341011D01*
X341047Y79044D01*
X341079Y79092D01*
X341107Y79147D01*
X341132Y79210D01*
X341153Y79279D01*
X341170Y79357D01*
X341183Y79441D01*
X341192Y79533D01*
X341200Y79738D01*
X342200D01*
X342202Y79632D01*
D02*
G37*
G36*
X336502Y67732D02*
X336517Y67541D01*
X336530Y67457D01*
X336547Y67379D01*
X336568Y67309D01*
X336593Y67247D01*
X336621Y67192D01*
X336653Y67144D01*
X336689Y67103D01*
X335311D01*
X335347Y67144D01*
X335379Y67192D01*
X335407Y67247D01*
X335432Y67309D01*
X335453Y67379D01*
X335470Y67457D01*
X335483Y67541D01*
X335492Y67633D01*
X335500Y67838D01*
X336500D01*
X336502Y67732D01*
D02*
G37*
G36*
X336602Y44332D02*
X336617Y44141D01*
X336630Y44057D01*
X336647Y43979D01*
X336668Y43909D01*
X336693Y43847D01*
X336721Y43792D01*
X336753Y43744D01*
X336789Y43703D01*
X335411D01*
X335447Y43744D01*
X335479Y43792D01*
X335507Y43847D01*
X335532Y43909D01*
X335553Y43979D01*
X335570Y44057D01*
X335583Y44141D01*
X335592Y44233D01*
X335600Y44438D01*
X336600D01*
X336602Y44332D01*
D02*
G37*
G36*
X290044Y134053D02*
X290092Y134021D01*
X290147Y133993D01*
X290210Y133968D01*
X290279Y133947D01*
X290357Y133930D01*
X290441Y133917D01*
X290533Y133908D01*
X290738Y133900D01*
Y132900D01*
X290632Y132898D01*
X290441Y132883D01*
X290357Y132870D01*
X290279Y132853D01*
X290210Y132832D01*
X290147Y132807D01*
X290092Y132779D01*
X290044Y132747D01*
X290003Y132711D01*
Y134089D01*
X290044Y134053D01*
D02*
G37*
G36*
Y129953D02*
X290092Y129921D01*
X290147Y129893D01*
X290210Y129868D01*
X290279Y129847D01*
X290357Y129830D01*
X290441Y129817D01*
X290533Y129808D01*
X290738Y129800D01*
Y128800D01*
X290632Y128798D01*
X290441Y128783D01*
X290357Y128770D01*
X290279Y128753D01*
X290210Y128732D01*
X290147Y128707D01*
X290092Y128679D01*
X290044Y128647D01*
X290003Y128611D01*
Y129989D01*
X290044Y129953D01*
D02*
G37*
G36*
Y125953D02*
X290092Y125921D01*
X290147Y125893D01*
X290210Y125868D01*
X290279Y125847D01*
X290357Y125830D01*
X290441Y125817D01*
X290533Y125808D01*
X290738Y125800D01*
Y124800D01*
X290632Y124798D01*
X290441Y124783D01*
X290357Y124770D01*
X290279Y124753D01*
X290210Y124732D01*
X290147Y124707D01*
X290092Y124679D01*
X290044Y124647D01*
X290003Y124611D01*
Y125989D01*
X290044Y125953D01*
D02*
G37*
G36*
X289944Y122153D02*
X289992Y122121D01*
X290047Y122093D01*
X290109Y122068D01*
X290179Y122047D01*
X290257Y122030D01*
X290341Y122017D01*
X290433Y122008D01*
X290638Y122000D01*
Y121000D01*
X290532Y120998D01*
X290341Y120983D01*
X290257Y120970D01*
X290179Y120953D01*
X290109Y120932D01*
X290047Y120907D01*
X289992Y120879D01*
X289944Y120847D01*
X289903Y120811D01*
Y122189D01*
X289944Y122153D01*
D02*
G37*
G36*
X338369Y96587D02*
X337079Y96174D01*
X337098Y96220D01*
X337107Y96269D01*
X337105Y96321D01*
X337093Y96378D01*
X337071Y96437D01*
X337038Y96500D01*
X336995Y96567D01*
X336942Y96638D01*
X336878Y96711D01*
X336804Y96789D01*
X337594Y97413D01*
X338369Y96587D01*
D02*
G37*
G36*
X342419Y97011D02*
X342564Y96885D01*
X342633Y96833D01*
X342698Y96789D01*
X342762Y96753D01*
X342822Y96724D01*
X342880Y96703D01*
X342935Y96689D01*
X342987Y96683D01*
X341960Y95765D01*
X341959Y95820D01*
X341950Y95878D01*
X341934Y95938D01*
X341909Y96000D01*
X341876Y96065D01*
X341835Y96132D01*
X341786Y96201D01*
X341728Y96273D01*
X341589Y96424D01*
X342342Y97085D01*
X342419Y97011D01*
D02*
G37*
G36*
X345902Y95632D02*
X345917Y95441D01*
X345930Y95357D01*
X345947Y95279D01*
X345968Y95209D01*
X345993Y95147D01*
X346021Y95092D01*
X346053Y95044D01*
X346089Y95003D01*
X344711D01*
X344747Y95044D01*
X344779Y95092D01*
X344807Y95147D01*
X344832Y95209D01*
X344853Y95279D01*
X344870Y95357D01*
X344883Y95441D01*
X344892Y95533D01*
X344900Y95738D01*
X345900D01*
X345902Y95632D01*
D02*
G37*
G36*
X340944D02*
X340959Y95441D01*
X340972Y95357D01*
X340989Y95279D01*
X341010Y95209D01*
X341034Y95147D01*
X341063Y95092D01*
X341095Y95044D01*
X341131Y95003D01*
X339753D01*
X339789Y95044D01*
X339821Y95092D01*
X339849Y95147D01*
X339874Y95209D01*
X339895Y95279D01*
X339912Y95357D01*
X339925Y95441D01*
X339934Y95533D01*
X339942Y95738D01*
X340942D01*
X340944Y95632D01*
D02*
G37*
G36*
X340776Y162552D02*
X340744Y162504D01*
X340716Y162449D01*
X340691Y162387D01*
X340670Y162317D01*
X340653Y162239D01*
X340640Y162155D01*
X340631Y162063D01*
X340623Y161858D01*
X339623D01*
X339621Y161964D01*
X339606Y162155D01*
X339593Y162239D01*
X339576Y162317D01*
X339555Y162387D01*
X339530Y162449D01*
X339502Y162504D01*
X339470Y162552D01*
X339434Y162593D01*
X340812D01*
X340776Y162552D01*
D02*
G37*
G36*
X340625Y146328D02*
X340640Y146137D01*
X340653Y146053D01*
X340670Y145975D01*
X340691Y145905D01*
X340716Y145843D01*
X340744Y145788D01*
X340776Y145740D01*
X340812Y145699D01*
X339434D01*
X339470Y145740D01*
X339502Y145788D01*
X339530Y145843D01*
X339555Y145905D01*
X339576Y145975D01*
X339593Y146053D01*
X339606Y146137D01*
X339615Y146229D01*
X339623Y146434D01*
X340623D01*
X340625Y146328D01*
D02*
G37*
G36*
X340339Y144036D02*
X340298Y144024D01*
X340253Y144004D01*
X340204Y143978D01*
X340151Y143944D01*
X340094Y143904D01*
X339968Y143801D01*
X339825Y143671D01*
X339748Y143595D01*
X338843Y144104D01*
X338916Y144181D01*
X339036Y144327D01*
X339082Y144396D01*
X339119Y144463D01*
X339147Y144528D01*
X339165Y144590D01*
X339175Y144649D01*
X339176Y144706D01*
X339167Y144761D01*
X340339Y144036D01*
D02*
G37*
G36*
X338589Y138368D02*
X338724Y136670D01*
X338786Y136357D01*
X338859Y136088D01*
X338943Y135864D01*
X339038Y135685D01*
X339145Y135550D01*
X338613D01*
X338614Y135547D01*
X338631Y135470D01*
X338651Y135400D01*
X338676Y135337D01*
X338704Y135282D01*
X338737Y135234D01*
X338772Y135193D01*
X337394D01*
X337430Y135234D01*
X337462Y135282D01*
X337491Y135337D01*
X337515Y135400D01*
X337536Y135470D01*
X337553Y135547D01*
X337554Y135550D01*
X337022D01*
X337129Y135685D01*
X337224Y135864D01*
X337308Y136088D01*
X337381Y136357D01*
X337443Y136670D01*
X337494Y137028D01*
X337561Y137877D01*
X337583Y138905D01*
X338583D01*
X338589Y138368D01*
D02*
G37*
G36*
X353832Y142012D02*
X353778Y142008D01*
X353721Y141997D01*
X353662Y141978D01*
X353600Y141951D01*
X353536Y141917D01*
X353470Y141874D01*
X353400Y141824D01*
X353329Y141765D01*
X353178Y141625D01*
X352471Y142332D01*
X352545Y142409D01*
X352669Y142555D01*
X352720Y142624D01*
X352762Y142690D01*
X352797Y142754D01*
X352824Y142816D01*
X352843Y142875D01*
X352854Y142932D01*
X352857Y142986D01*
X353832Y142012D01*
D02*
G37*
G36*
X351113Y111398D02*
X351128Y111207D01*
X351142Y111122D01*
X351158Y111045D01*
X351179Y110975D01*
X351204Y110912D01*
X351232Y110857D01*
X351264Y110809D01*
X351300Y110768D01*
X349922D01*
X349958Y110809D01*
X349990Y110857D01*
X350019Y110912D01*
X350043Y110975D01*
X350064Y111045D01*
X350081Y111122D01*
X350094Y111207D01*
X350104Y111298D01*
X350111Y111504D01*
X351111D01*
X351113Y111398D01*
D02*
G37*
G36*
X361988Y93436D02*
X361999Y93379D01*
X362018Y93320D01*
X362045Y93259D01*
X362080Y93194D01*
X362122Y93128D01*
X362172Y93059D01*
X362231Y92987D01*
X362371Y92836D01*
X361664Y92129D01*
X361587Y92203D01*
X361441Y92328D01*
X361372Y92378D01*
X361306Y92421D01*
X361241Y92455D01*
X361180Y92482D01*
X361121Y92501D01*
X361064Y92512D01*
X361010Y92516D01*
X361984Y93490D01*
X361988Y93436D01*
D02*
G37*
G36*
X361689Y89589D02*
X361659Y89540D01*
X361633Y89483D01*
X361612Y89420D01*
X361595Y89349D01*
X361581Y89271D01*
X361572Y89186D01*
X361567Y89094D01*
X361570Y88888D01*
X360571Y88839D01*
X360564Y88945D01*
X360540Y89135D01*
X360522Y89219D01*
X360502Y89295D01*
X360477Y89364D01*
X360450Y89425D01*
X360419Y89479D01*
X360384Y89525D01*
X360346Y89564D01*
X361723Y89632D01*
X361689Y89589D01*
D02*
G37*
G36*
X361736Y85555D02*
X361760Y85365D01*
X361778Y85281D01*
X361799Y85205D01*
X361823Y85136D01*
X361850Y85075D01*
X361881Y85021D01*
X361916Y84975D01*
X361954Y84936D01*
X360577Y84868D01*
X360611Y84911D01*
X360641Y84960D01*
X360666Y85017D01*
X360688Y85080D01*
X360705Y85151D01*
X360718Y85229D01*
X360728Y85314D01*
X360733Y85406D01*
X360730Y85612D01*
X361729Y85661D01*
X361736Y85555D01*
D02*
G37*
G36*
X364244Y83828D02*
X364259Y83637D01*
X364272Y83553D01*
X364289Y83475D01*
X364310Y83406D01*
X364334Y83343D01*
X364363Y83288D01*
X364395Y83240D01*
X364431Y83199D01*
X363053D01*
X363089Y83240D01*
X363121Y83288D01*
X363149Y83343D01*
X363174Y83406D01*
X363194Y83475D01*
X363211Y83553D01*
X363225Y83637D01*
X363234Y83729D01*
X363242Y83934D01*
X364242D01*
X364244Y83828D01*
D02*
G37*
G36*
X362353Y116156D02*
X362321Y116108D01*
X362293Y116053D01*
X362268Y115990D01*
X362247Y115921D01*
X362230Y115843D01*
X362217Y115759D01*
X362208Y115667D01*
X362200Y115462D01*
X361200D01*
X361198Y115568D01*
X361183Y115759D01*
X361170Y115843D01*
X361153Y115921D01*
X361132Y115990D01*
X361107Y116053D01*
X361079Y116108D01*
X361047Y116156D01*
X361011Y116197D01*
X362389D01*
X362353Y116156D01*
D02*
G37*
G36*
X370155Y78393D02*
X370301Y78268D01*
X370370Y78218D01*
X370436Y78175D01*
X370500Y78141D01*
X370562Y78114D01*
X370621Y78095D01*
X370678Y78084D01*
X370732Y78080D01*
X369758Y77106D01*
X369754Y77160D01*
X369743Y77217D01*
X369724Y77276D01*
X369697Y77337D01*
X369662Y77402D01*
X369620Y77468D01*
X369569Y77537D01*
X369511Y77609D01*
X369371Y77759D01*
X370078Y78467D01*
X370155Y78393D01*
D02*
G37*
G36*
X5439Y80069D02*
X5501Y79962D01*
X5573Y79855D01*
X5657Y79750D01*
X5751Y79646D01*
X5856Y79544D01*
X5971Y79442D01*
X6235Y79244D01*
X6383Y79146D01*
X6044Y78178D01*
X5824Y78311D01*
X5442Y78505D01*
X5280Y78566D01*
X5138Y78603D01*
X5015Y78617D01*
X4911Y78606D01*
X4826Y78572D01*
X4761Y78514D01*
X4715Y78432D01*
X5388Y80178D01*
X5439Y80069D01*
D02*
G37*
G36*
X8482Y77828D02*
X8769Y77676D01*
X8907Y77614D01*
X9169Y77518D01*
X9295Y77485D01*
X9416Y77461D01*
X9533Y77447D01*
X9647Y77442D01*
X8331Y76157D01*
X8388Y76231D01*
X8416Y76312D01*
X8414Y76401D01*
X8382Y76497D01*
X8321Y76599D01*
X8229Y76709D01*
X8108Y76826D01*
X7958Y76950D01*
X7777Y77081D01*
X7566Y77220D01*
X8333Y77919D01*
X8482Y77828D01*
D02*
G37*
G36*
X3540Y71886D02*
X3526Y71979D01*
X3483Y72062D01*
X3412Y72136D01*
X3312Y72199D01*
X3184Y72253D01*
X3027Y72298D01*
X2841Y72332D01*
X2627Y72356D01*
X2385Y72371D01*
X2114Y72376D01*
Y73376D01*
X2385Y73381D01*
X2841Y73420D01*
X3027Y73454D01*
X3184Y73499D01*
X3312Y73553D01*
X3412Y73616D01*
X3483Y73690D01*
X3526Y73773D01*
X3540Y73866D01*
Y71886D01*
D02*
G37*
G36*
X17732Y59884D02*
X17678Y59880D01*
X17621Y59869D01*
X17562Y59850D01*
X17500Y59823D01*
X17436Y59789D01*
X17370Y59746D01*
X17300Y59696D01*
X17229Y59637D01*
X17078Y59497D01*
X16371Y60204D01*
X16445Y60281D01*
X16569Y60427D01*
X16620Y60496D01*
X16662Y60562D01*
X16697Y60627D01*
X16724Y60688D01*
X16743Y60747D01*
X16754Y60804D01*
X16758Y60858D01*
X17732Y59884D01*
D02*
G37*
G36*
X405553Y60356D02*
X405521Y60308D01*
X405493Y60253D01*
X405468Y60190D01*
X405447Y60121D01*
X405430Y60043D01*
X405417Y59959D01*
X405408Y59867D01*
X405400Y59662D01*
X404400D01*
X404398Y59768D01*
X404383Y59959D01*
X404370Y60043D01*
X404353Y60121D01*
X404332Y60190D01*
X404307Y60253D01*
X404279Y60308D01*
X404247Y60356D01*
X404211Y60397D01*
X405589D01*
X405553Y60356D01*
D02*
G37*
G36*
X402853D02*
X402821Y60308D01*
X402793Y60253D01*
X402768Y60190D01*
X402747Y60121D01*
X402730Y60043D01*
X402717Y59959D01*
X402708Y59867D01*
X402700Y59662D01*
X401700D01*
X401698Y59768D01*
X401683Y59959D01*
X401670Y60043D01*
X401653Y60121D01*
X401632Y60190D01*
X401607Y60253D01*
X401579Y60308D01*
X401547Y60356D01*
X401511Y60397D01*
X402889D01*
X402853Y60356D01*
D02*
G37*
G36*
X397198Y60276D02*
X397160Y60236D01*
X397126Y60188D01*
X397097Y60134D01*
X397071Y60071D01*
X397049Y60002D01*
X397032Y59925D01*
X397018Y59841D01*
X397008Y59749D01*
X397000Y59544D01*
X396000Y59581D01*
X395998Y59687D01*
X395984Y59878D01*
X395971Y59963D01*
X395955Y60041D01*
X395935Y60111D01*
X395912Y60174D01*
X395885Y60229D01*
X395854Y60278D01*
X395820Y60319D01*
X397198Y60276D01*
D02*
G37*
G36*
X400152Y60263D02*
X400114Y60224D01*
X400079Y60176D01*
X400049Y60122D01*
X400023Y60060D01*
X400001Y59991D01*
X399982Y59915D01*
X399968Y59831D01*
X399958Y59739D01*
X399950Y59534D01*
X398950Y59593D01*
X398948Y59700D01*
X398934Y59891D01*
X398922Y59976D01*
X398907Y60054D01*
X398887Y60124D01*
X398865Y60187D01*
X398839Y60243D01*
X398809Y60292D01*
X398776Y60333D01*
X400152Y60263D01*
D02*
G37*
G36*
X402702Y45032D02*
X402717Y44841D01*
X402730Y44757D01*
X402747Y44679D01*
X402768Y44609D01*
X402793Y44547D01*
X402821Y44492D01*
X402853Y44444D01*
X402889Y44403D01*
X401511D01*
X401547Y44444D01*
X401579Y44492D01*
X401607Y44547D01*
X401632Y44609D01*
X401653Y44679D01*
X401670Y44757D01*
X401683Y44841D01*
X401692Y44933D01*
X401700Y45138D01*
X402700D01*
X402702Y45032D01*
D02*
G37*
G36*
X405402Y42432D02*
X405417Y42241D01*
X405430Y42157D01*
X405447Y42079D01*
X405468Y42009D01*
X405493Y41947D01*
X405521Y41892D01*
X405553Y41844D01*
X405589Y41803D01*
X404211D01*
X404247Y41844D01*
X404279Y41892D01*
X404307Y41947D01*
X404332Y42009D01*
X404353Y42079D01*
X404370Y42157D01*
X404383Y42241D01*
X404392Y42333D01*
X404400Y42538D01*
X405400D01*
X405402Y42432D01*
D02*
G37*
G36*
X397002Y40407D02*
X397017Y40216D01*
X397030Y40131D01*
X397047Y40054D01*
X397068Y39984D01*
X397093Y39922D01*
X397121Y39866D01*
X397153Y39818D01*
X397189Y39778D01*
X395811D01*
X395847Y39818D01*
X395879Y39866D01*
X395907Y39922D01*
X395932Y39984D01*
X395953Y40054D01*
X395970Y40131D01*
X395983Y40216D01*
X395992Y40308D01*
X396000Y40513D01*
X397000D01*
X397002Y40407D01*
D02*
G37*
G36*
X399950Y37307D02*
X399952Y37200D01*
X399966Y37009D01*
X399978Y36924D01*
X399993Y36846D01*
X400013Y36776D01*
X400035Y36713D01*
X400061Y36657D01*
X400091Y36608D01*
X400124Y36567D01*
X398748Y36637D01*
X398786Y36676D01*
X398820Y36724D01*
X398851Y36778D01*
X398877Y36840D01*
X398899Y36909D01*
X398918Y36985D01*
X398932Y37069D01*
X398942Y37161D01*
X398950Y37366D01*
X399950Y37307D01*
D02*
G37*
G36*
X478786Y63603D02*
X478739Y63575D01*
X478693Y63540D01*
X478649Y63496D01*
X478606Y63444D01*
X478565Y63384D01*
X478524Y63316D01*
X478485Y63240D01*
X478448Y63156D01*
X478376Y62963D01*
X477426Y63275D01*
X477458Y63377D01*
X477503Y63563D01*
X477517Y63648D01*
X477525Y63726D01*
X477527Y63799D01*
X477523Y63866D01*
X477514Y63928D01*
X477498Y63983D01*
X477477Y64033D01*
X478786Y63603D01*
D02*
G37*
G36*
X476023Y55806D02*
X475992Y55705D01*
X475947Y55519D01*
X475933Y55434D01*
X475925Y55356D01*
X475923Y55283D01*
X475927Y55215D01*
X475936Y55154D01*
X475952Y55098D01*
X475973Y55049D01*
X474664Y55479D01*
X474711Y55506D01*
X474757Y55542D01*
X474801Y55586D01*
X474844Y55637D01*
X474885Y55697D01*
X474926Y55765D01*
X474964Y55841D01*
X475002Y55926D01*
X475073Y56119D01*
X476023Y55806D01*
D02*
G37*
G36*
X455476Y57777D02*
X455445Y57728D01*
X455418Y57672D01*
X455396Y57608D01*
X455377Y57538D01*
X455363Y57460D01*
X455352Y57376D01*
X455345Y57283D01*
X455344Y57078D01*
X454345Y57047D01*
X454340Y57153D01*
X454319Y57344D01*
X454303Y57428D01*
X454283Y57504D01*
X454260Y57573D01*
X454234Y57635D01*
X454204Y57690D01*
X454170Y57737D01*
X454133Y57776D01*
X455510Y57819D01*
X455476Y57777D01*
D02*
G37*
G36*
X455557Y50264D02*
X455578Y50074D01*
X455594Y49990D01*
X455613Y49913D01*
X455636Y49844D01*
X455663Y49782D01*
X455693Y49728D01*
X455726Y49681D01*
X455763Y49641D01*
X454386Y49599D01*
X454421Y49640D01*
X454452Y49689D01*
X454478Y49745D01*
X454501Y49809D01*
X454519Y49879D01*
X454534Y49957D01*
X454545Y50042D01*
X454551Y50134D01*
X454552Y50339D01*
X455552Y50370D01*
X455557Y50264D01*
D02*
G37*
G36*
X356490Y37116D02*
X356436Y37112D01*
X356379Y37101D01*
X356320Y37082D01*
X356259Y37055D01*
X356194Y37020D01*
X356128Y36978D01*
X356059Y36928D01*
X355987Y36869D01*
X355837Y36729D01*
X355129Y37437D01*
X355203Y37513D01*
X355328Y37659D01*
X355378Y37728D01*
X355420Y37794D01*
X355455Y37859D01*
X355482Y37920D01*
X355501Y37979D01*
X355512Y38036D01*
X355516Y38090D01*
X356490Y37116D01*
D02*
G37*
G36*
X357097Y34411D02*
X357056Y34447D01*
X357008Y34479D01*
X356953Y34507D01*
X356891Y34532D01*
X356821Y34553D01*
X356743Y34570D01*
X356659Y34583D01*
X356567Y34592D01*
X356362Y34600D01*
Y35600D01*
X356468Y35602D01*
X356659Y35617D01*
X356743Y35630D01*
X356821Y35647D01*
X356891Y35668D01*
X356953Y35693D01*
X357008Y35721D01*
X357056Y35753D01*
X357097Y35789D01*
Y34411D01*
D02*
G37*
G36*
X308077Y19475D02*
X308003Y19399D01*
X307879Y19253D01*
X307828Y19184D01*
X307786Y19117D01*
X307751Y19053D01*
X307724Y18992D01*
X307705Y18933D01*
X307694Y18876D01*
X307690Y18822D01*
X306716Y19796D01*
X306770Y19799D01*
X306827Y19811D01*
X306886Y19830D01*
X306948Y19857D01*
X307012Y19891D01*
X307078Y19934D01*
X307147Y19984D01*
X307219Y20042D01*
X307370Y20182D01*
X308077Y19475D01*
D02*
G37*
G36*
X323221Y9168D02*
X323147Y9092D01*
X323023Y8946D01*
X322973Y8877D01*
X322930Y8810D01*
X322895Y8746D01*
X322868Y8685D01*
X322849Y8625D01*
X322838Y8569D01*
X322835Y8515D01*
X321860Y9489D01*
X321915Y9492D01*
X321971Y9504D01*
X322030Y9523D01*
X322092Y9550D01*
X322156Y9584D01*
X322223Y9627D01*
X322292Y9677D01*
X322363Y9736D01*
X322514Y9875D01*
X323221Y9168D01*
D02*
G37*
G36*
X23829Y81032D02*
X23841Y80975D01*
X23860Y80916D01*
X23887Y80854D01*
X23921Y80790D01*
X23964Y80724D01*
X24014Y80655D01*
X24072Y80583D01*
X24212Y80432D01*
X23505Y79725D01*
X23429Y79799D01*
X23283Y79924D01*
X23214Y79974D01*
X23147Y80016D01*
X23083Y80051D01*
X23021Y80078D01*
X22962Y80097D01*
X22906Y80108D01*
X22852Y80112D01*
X23826Y81086D01*
X23829Y81032D01*
D02*
G37*
G36*
X24312Y74360D02*
X24238Y74283D01*
X24114Y74137D01*
X24064Y74068D01*
X24021Y74001D01*
X23987Y73937D01*
X23960Y73876D01*
X23941Y73817D01*
X23929Y73760D01*
X23926Y73706D01*
X22952Y74680D01*
X23006Y74684D01*
X23062Y74695D01*
X23122Y74714D01*
X23183Y74741D01*
X23247Y74775D01*
X23314Y74818D01*
X23383Y74868D01*
X23455Y74927D01*
X23605Y75067D01*
X24312Y74360D01*
D02*
G37*
G36*
X341653Y21256D02*
X341621Y21208D01*
X341593Y21153D01*
X341568Y21091D01*
X341547Y21021D01*
X341530Y20943D01*
X341517Y20859D01*
X341508Y20767D01*
X341500Y20562D01*
X340500D01*
X340498Y20668D01*
X340483Y20859D01*
X340470Y20943D01*
X340453Y21021D01*
X340432Y21091D01*
X340407Y21153D01*
X340379Y21208D01*
X340347Y21256D01*
X340311Y21297D01*
X341689D01*
X341653Y21256D01*
D02*
G37*
G36*
X342344Y14828D02*
X342359Y14637D01*
X342372Y14553D01*
X342389Y14475D01*
X342410Y14405D01*
X342434Y14343D01*
X342463Y14288D01*
X342495Y14240D01*
X342531Y14199D01*
X341153D01*
X341189Y14240D01*
X341221Y14288D01*
X341249Y14343D01*
X341274Y14405D01*
X341295Y14475D01*
X341312Y14553D01*
X341325Y14637D01*
X341334Y14729D01*
X341342Y14934D01*
X342342D01*
X342344Y14828D01*
D02*
G37*
D10*
X376642Y174796D02*
X377942Y173496D01*
X371042Y174796D02*
X376642D01*
X377942Y173496D02*
X384842D01*
D14*
X-23700Y142400D02*
Y146700D01*
Y142400D02*
X-16300Y135000D01*
X9730Y76448D02*
X10088Y76223D01*
X4774Y79569D02*
X9730Y76448D01*
X347321Y26800D02*
X355621Y35100D01*
X357800D01*
X340282Y145155D02*
X340442Y144996D01*
X338084Y142638D02*
X340442Y144996D01*
X358145Y201617D02*
X358149Y201613D01*
X358145Y201617D02*
Y219392D01*
X361000Y90300D02*
X361300Y84200D01*
X454800Y58500D02*
X455097Y48917D01*
X475099Y54596D02*
X478351Y64486D01*
X393200Y118600D02*
X416399D01*
X393200Y121500D02*
X416399D01*
X393200Y115800D02*
X416399D01*
X393200Y112900D02*
X416399D01*
X331440Y26800D02*
X347321D01*
X346700Y28300D02*
X356500Y38100D01*
X316194Y28300D02*
X346700D01*
X376926Y160926D02*
Y166027D01*
X376800Y160800D02*
X376926Y160926D01*
X374442Y168512D02*
X376926Y166027D01*
X341000Y17922D02*
Y22000D01*
X341842Y13496D02*
Y17080D01*
X341000Y17922D02*
X341842Y17080D01*
X328457Y23818D02*
X331440Y26800D01*
X328457Y15112D02*
Y23818D01*
X321850Y8505D02*
X328457Y15112D01*
X399400Y35900D02*
X399450Y35950D01*
Y60950D01*
X399500Y61000D01*
X402200Y43700D02*
Y61100D01*
X404900Y41100D02*
Y61100D01*
X396500Y39075D02*
Y60969D01*
X396531Y61000D01*
X-10800Y137700D02*
Y161000D01*
X-8100Y140000D02*
Y161000D01*
X-5300Y142300D02*
Y161000D01*
X336000Y66400D02*
Y85116D01*
X321570Y99546D02*
X336000Y85116D01*
X334016Y63012D02*
Y84884D01*
Y63012D02*
X336100Y60928D01*
X321100Y97800D02*
X334016Y84884D01*
X336100Y43000D02*
Y60928D01*
X289300Y133400D02*
X298948D01*
X315648Y116700D02*
X324786D01*
X298948Y133400D02*
X315648Y116700D01*
X345400Y94300D02*
Y96086D01*
X306706Y18812D02*
X316194Y28300D01*
X307319Y97800D02*
X321100D01*
X341700Y78300D02*
Y81538D01*
X292119Y113000D02*
X307319Y97800D01*
X287442Y113000D02*
X292119D01*
X307773Y99546D02*
X321570D01*
X292119Y115200D02*
X307773Y99546D01*
X285700Y115200D02*
X292119D01*
X308338Y101200D02*
X322038D01*
X292038Y117500D02*
X308338Y101200D01*
X289000Y117500D02*
X292038D01*
X322038Y101200D02*
X341700Y81538D01*
X325400Y108900D02*
X337942Y96358D01*
X307700Y108900D02*
X325400D01*
X295100Y121500D02*
X307700Y108900D01*
X325000Y111500D02*
X340442Y96058D01*
X309302Y111500D02*
X325000D01*
X295502Y125300D02*
X309302Y111500D01*
X337942Y95700D02*
Y96358D01*
Y95607D02*
Y95700D01*
X324786Y116700D02*
X345400Y96086D01*
X342942Y95738D02*
Y95778D01*
X340442Y94300D02*
Y96058D01*
X324620Y114100D02*
X342942Y95778D01*
X312019Y114100D02*
X324620D01*
X289200Y121500D02*
X295100D01*
X289300Y125300D02*
X295502D01*
X289300Y129300D02*
X296819D01*
X312019Y114100D01*
X91942Y23746D02*
X95442Y20246D01*
X90442Y23125D02*
X94820Y18746D01*
X91942Y23746D02*
Y41480D01*
X90442Y23125D02*
Y40859D01*
X88320Y42980D02*
X90442Y40859D01*
X88942Y44480D02*
X91942Y41480D01*
X94820Y18746D02*
X116630D01*
X95442Y20246D02*
X116630D01*
X323298Y187000D02*
X346700D01*
X323294Y186996D02*
X323298Y187000D01*
X320777Y189000D02*
X344800D01*
X320773Y188996D02*
X320777Y189000D01*
X361000Y90300D02*
X361022Y90278D01*
X361000Y84500D02*
X361300Y84200D01*
X363742Y82496D02*
Y90758D01*
X361000Y93500D02*
X363742Y90758D01*
X361700Y99738D02*
Y116900D01*
Y99738D02*
X368083Y93355D01*
X448599Y382196D02*
Y392196D01*
X40436Y42980D02*
X88320D01*
X35742Y47675D02*
X40436Y42980D01*
X35742Y47675D02*
Y72896D01*
X41058Y44480D02*
X88942D01*
X37242Y48296D02*
X41058Y44480D01*
X37242Y48296D02*
Y73517D01*
X32593Y78166D02*
X37242Y73517D01*
X25772Y78166D02*
X32593D01*
X31972Y76666D02*
X35742Y72896D01*
X25912Y76666D02*
X31972D01*
X22942Y73696D02*
X25912Y76666D01*
X22842Y81096D02*
X25772Y78166D01*
X116630Y18746D02*
X117280Y18096D01*
X117542D01*
X88942Y44480D02*
Y44480D01*
X116630Y20246D02*
X117280Y20896D01*
X117542D01*
X350611Y139766D02*
X353842Y142996D01*
X350611Y110065D02*
Y139766D01*
X356091Y345696D02*
X360142D01*
X356042Y345746D02*
X356091Y345696D01*
X353542Y342596D02*
X360142D01*
X-1658Y58715D02*
X1161Y55896D01*
X9730Y76448D02*
X9730D01*
X332095Y374549D02*
Y382443D01*
X330188Y372642D02*
X332095Y374549D01*
X330188Y364350D02*
Y372642D01*
X330338Y384200D02*
Y402192D01*
X330342Y402196D01*
X338084Y134490D02*
Y142638D01*
X-1658Y70153D02*
X1064Y72876D01*
X-1658Y58715D02*
Y70153D01*
X4274Y72876D02*
X4774D01*
X1064D02*
X4274D01*
X12770Y55896D02*
X17742Y60868D01*
X1161Y55896D02*
X12770D01*
X368083Y79755D02*
Y93355D01*
X340123Y144996D02*
Y163296D01*
X368083Y79755D02*
X370742Y77096D01*
X358142Y219396D02*
X358145Y219392D01*
X330338Y384200D02*
X332095Y382443D01*
X336342Y304596D02*
Y315158D01*
X336346Y315162D01*
X332442Y304596D02*
Y314065D01*
X413678Y358895D02*
X419642Y364859D01*
Y364996D01*
X332411Y314096D02*
X332442Y314065D01*
X370842Y381996D02*
Y387296D01*
X365542Y392596D02*
X370842Y387296D01*
X436599Y382796D02*
Y391996D01*
D17*
X390300Y140000D02*
X405000D01*
X390105D02*
X390300D01*
X144866Y388996D02*
X144906Y370996D01*
X144942Y355097D01*
X144842Y399896D02*
Y399896D01*
Y399896D02*
X144866Y388996D01*
X405000Y140000D02*
X408026D01*
X389897Y139797D02*
X390105Y140000D01*
X386101Y136101D02*
X389897Y139797D01*
X338084Y117535D02*
Y134490D01*
Y117535D02*
X339942Y115677D01*
D31*
X316842Y10996D02*
D03*
X346842D02*
D03*
D51*
X52342Y19470D02*
D03*
D83*
X-7577Y94924D02*
D03*
Y60868D02*
D03*
D84*
X5730D02*
D03*
Y94924D02*
D03*
D85*
X4274Y89609D02*
D03*
Y86262D02*
D03*
Y82916D02*
D03*
Y79569D02*
D03*
Y76223D02*
D03*
Y72876D02*
D03*
Y69530D02*
D03*
Y66183D02*
D03*
X9588D02*
D03*
Y69530D02*
D03*
Y72876D02*
D03*
Y76223D02*
D03*
Y79569D02*
D03*
Y82916D02*
D03*
Y86262D02*
D03*
Y89609D02*
D03*
D86*
X91442Y335996D02*
D03*
Y345996D02*
D03*
X101442Y335996D02*
D03*
Y345996D02*
D03*
X111442Y335996D02*
D03*
X324942Y297996D02*
D03*
X314942D02*
D03*
X324942Y307996D02*
D03*
X381599Y74496D02*
D03*
X391599Y84496D02*
D03*
X381599D02*
D03*
X391599Y94496D02*
D03*
X381599D02*
D03*
X391599Y104496D02*
D03*
X381599D02*
D03*
X391599Y328996D02*
D03*
X381599D02*
D03*
Y318996D02*
D03*
X391599D02*
D03*
X381599Y308996D02*
D03*
X391599D02*
D03*
X381599Y298996D02*
D03*
X391599D02*
D03*
X381599Y288996D02*
D03*
X-33433Y200496D02*
D03*
Y210496D02*
D03*
Y220496D02*
D03*
Y230496D02*
D03*
Y240496D02*
D03*
X324942Y132996D02*
D03*
X314942Y122996D02*
D03*
X324942D02*
D03*
X381599Y212996D02*
D03*
X391599D02*
D03*
X381599Y202996D02*
D03*
X391599D02*
D03*
X381599Y192996D02*
D03*
X391599D02*
D03*
X381599Y182996D02*
D03*
X247442Y92996D02*
D03*
Y82996D02*
D03*
X257442D02*
D03*
Y92996D02*
D03*
X267442Y82996D02*
D03*
Y92996D02*
D03*
X277442Y82996D02*
D03*
Y92996D02*
D03*
X287442Y82996D02*
D03*
X207442D02*
D03*
X197442Y92996D02*
D03*
Y82996D02*
D03*
X187442Y92996D02*
D03*
Y82996D02*
D03*
X177442Y92996D02*
D03*
Y82996D02*
D03*
X167442D02*
D03*
Y92996D02*
D03*
X239442Y345996D02*
D03*
Y335996D02*
D03*
X249442D02*
D03*
Y345996D02*
D03*
X259442Y335996D02*
D03*
Y345996D02*
D03*
X269442Y335996D02*
D03*
Y345996D02*
D03*
X279442Y335996D02*
D03*
D87*
X111442Y345996D02*
D03*
X287442Y92996D02*
D03*
X207442D02*
D03*
X279442Y345996D02*
D03*
D88*
X34442Y398996D02*
D03*
Y388996D02*
D03*
Y378996D02*
D03*
Y368996D02*
D03*
D89*
X314942Y307996D02*
D03*
X391599Y74496D02*
D03*
Y288996D02*
D03*
X-33433Y190496D02*
D03*
X314942Y132996D02*
D03*
X391599Y182996D02*
D03*
D90*
X381599Y358996D02*
D03*
X391599D02*
D03*
X381599Y338996D02*
D03*
X391599D02*
D03*
Y348996D02*
D03*
X381599D02*
D03*
X217442Y82996D02*
D03*
Y92996D02*
D03*
X237442Y82996D02*
D03*
Y92996D02*
D03*
X227442D02*
D03*
Y82996D02*
D03*
X147442D02*
D03*
Y92996D02*
D03*
X157442D02*
D03*
Y82996D02*
D03*
X137442Y92996D02*
D03*
Y82996D02*
D03*
X209442Y335996D02*
D03*
Y345996D02*
D03*
X229442Y335996D02*
D03*
Y345996D02*
D03*
X219442D02*
D03*
Y335996D02*
D03*
D91*
X47742Y93396D02*
D03*
X73242Y61896D02*
D03*
Y93896D02*
D03*
X350233Y264000D02*
D03*
X321442D02*
D03*
X336442D02*
D03*
D92*
X52342Y18496D02*
D03*
D93*
X32342Y3520D02*
D03*
X72342D02*
D03*
X22814Y22339D02*
D03*
Y12338D02*
D03*
Y3520D02*
D03*
X42342D02*
D03*
X81869Y22339D02*
D03*
Y12338D02*
D03*
Y3520D02*
D03*
X62342D02*
D03*
X52342D02*
D03*
X-25500Y178600D02*
D03*
X-23000Y201900D02*
D03*
X-54400Y303100D02*
D03*
X-54200Y251500D02*
D03*
Y180200D02*
D03*
X-53200Y127200D02*
D03*
X-23000Y236400D02*
D03*
X-13700Y246400D02*
D03*
X-10800Y261996D02*
D03*
X8000Y236500D02*
D03*
Y264000D02*
D03*
Y290000D02*
D03*
X-9300Y309500D02*
D03*
X-23700Y146700D02*
D03*
X-41200Y154900D02*
D03*
X394200Y46732D02*
D03*
Y55840D02*
D03*
X357800Y35100D02*
D03*
X454800Y58500D02*
D03*
X455097Y48917D02*
D03*
X416399Y121500D02*
D03*
Y118600D02*
D03*
Y115800D02*
D03*
Y112900D02*
D03*
X428000Y155496D02*
D03*
X457099Y169996D02*
D03*
X394200Y129830D02*
D03*
X408200D02*
D03*
Y136500D02*
D03*
X394200Y136100D02*
D03*
X375244Y44996D02*
D03*
X49304Y245542D02*
D03*
Y215542D02*
D03*
Y185542D02*
D03*
X216942Y290496D02*
D03*
X245642D02*
D03*
X275442Y291496D02*
D03*
X275642Y254796D02*
D03*
X245642D02*
D03*
X215642D02*
D03*
Y219796D02*
D03*
X245642D02*
D03*
X275642D02*
D03*
X367442Y279996D02*
D03*
Y269996D02*
D03*
Y259996D02*
D03*
X406999Y275396D02*
D03*
Y265396D02*
D03*
X387099Y278496D02*
D03*
Y263496D02*
D03*
X218942Y192496D02*
D03*
X208942D02*
D03*
X188942D02*
D03*
X277242D02*
D03*
X268942D02*
D03*
X258942D02*
D03*
X248942D02*
D03*
X238942D02*
D03*
X228942D02*
D03*
X286288D02*
D03*
X296288D02*
D03*
X316288D02*
D03*
X133975Y286996D02*
D03*
X103975D02*
D03*
X390300Y140000D02*
D03*
X386101Y136101D02*
D03*
X405000Y140000D02*
D03*
X408200D02*
D03*
X423000Y110500D02*
D03*
X408800Y126100D02*
D03*
X356500Y38100D02*
D03*
X376800Y160800D02*
D03*
X341000Y22000D02*
D03*
X336842Y13496D02*
D03*
X321768D02*
D03*
X331842Y13495D02*
D03*
X341842Y13496D02*
D03*
X321850Y8505D02*
D03*
X409099Y43602D02*
D03*
X404900Y36117D02*
D03*
X388200Y33169D02*
D03*
X376458Y33524D02*
D03*
X371809Y60138D02*
D03*
X380230Y60928D02*
D03*
X391792Y61100D02*
D03*
X391599Y66717D02*
D03*
X402200Y43700D02*
D03*
X399400Y35900D02*
D03*
X404900Y41100D02*
D03*
X396500Y39075D02*
D03*
X404900Y61100D02*
D03*
X402200D02*
D03*
X399500Y61000D02*
D03*
X396531D02*
D03*
X406150Y67500D02*
D03*
X-10800Y161000D02*
D03*
X-8100D02*
D03*
X-5300D02*
D03*
Y142300D02*
D03*
X-8100Y140000D02*
D03*
X-10800Y137700D02*
D03*
X-27698Y156400D02*
D03*
X-13000Y142800D02*
D03*
X-15700Y145900D02*
D03*
X-19000Y149300D02*
D03*
X336000Y66400D02*
D03*
X282300Y87800D02*
D03*
X-35300Y126800D02*
D03*
X-24300D02*
D03*
X-12300D02*
D03*
X-16300Y135000D02*
D03*
X289300Y133400D02*
D03*
X285700Y119500D02*
D03*
Y127300D02*
D03*
Y131330D02*
D03*
X291700Y119500D02*
D03*
X291600Y127300D02*
D03*
X291700Y131300D02*
D03*
X367253Y66232D02*
D03*
X333007Y24327D02*
D03*
X325700Y22800D02*
D03*
X312019Y19496D02*
D03*
X330600Y22800D02*
D03*
X313695Y38488D02*
D03*
X308940Y43012D02*
D03*
Y58796D02*
D03*
X313695Y63496D02*
D03*
X333007Y57496D02*
D03*
X313000Y106700D02*
D03*
X329300Y97000D02*
D03*
X327900Y87800D02*
D03*
X325400Y90300D02*
D03*
X326000Y26100D02*
D03*
X326842Y30496D02*
D03*
X318903Y76442D02*
D03*
X330997Y79225D02*
D03*
X330500Y85300D02*
D03*
X323300Y92400D02*
D03*
X330900Y95200D02*
D03*
X339642Y73092D02*
D03*
X341700Y78300D02*
D03*
X336100Y43000D02*
D03*
X330997Y69520D02*
D03*
X344754Y106700D02*
D03*
X326011Y60512D02*
D03*
X330700Y100600D02*
D03*
X310200Y106700D02*
D03*
X340800Y110500D02*
D03*
X335432Y91700D02*
D03*
X335300Y94496D02*
D03*
X342426Y104000D02*
D03*
X340442Y94300D02*
D03*
X345400D02*
D03*
X342942Y95700D02*
D03*
X337942D02*
D03*
X72900Y129300D02*
D03*
X272130Y87472D02*
D03*
X262560D02*
D03*
X289000Y117500D02*
D03*
X289200Y121500D02*
D03*
X289300Y125300D02*
D03*
Y129300D02*
D03*
X285700Y115200D02*
D03*
X287442Y113000D02*
D03*
X371042Y188996D02*
D03*
X346700Y187000D02*
D03*
X344800Y189000D02*
D03*
X353842Y177796D02*
D03*
X351990Y182996D02*
D03*
X354619Y212996D02*
D03*
X346642Y192496D02*
D03*
X332942Y177190D02*
D03*
X339642Y171096D02*
D03*
X302600Y98800D02*
D03*
X361300Y84200D02*
D03*
X361000Y93500D02*
D03*
Y90300D02*
D03*
X393200Y118600D02*
D03*
Y115800D02*
D03*
Y112900D02*
D03*
Y121500D02*
D03*
X392599Y126496D02*
D03*
X383358D02*
D03*
X361700Y116900D02*
D03*
X364100Y113400D02*
D03*
Y108600D02*
D03*
X171942Y209796D02*
D03*
X161942Y219796D02*
D03*
X166942Y214796D02*
D03*
X151200Y236000D02*
D03*
Y226049D02*
D03*
X158300Y236000D02*
D03*
Y226000D02*
D03*
X226500Y200500D02*
D03*
X242000Y98904D02*
D03*
X222000D02*
D03*
X202000D02*
D03*
X182000D02*
D03*
X161882Y98704D02*
D03*
X98146Y149804D02*
D03*
X204800Y138700D02*
D03*
X224800D02*
D03*
X214800D02*
D03*
X234800D02*
D03*
X244800D02*
D03*
X254800D02*
D03*
X264800D02*
D03*
X275800D02*
D03*
X285800D02*
D03*
X114800D02*
D03*
X134800D02*
D03*
X124800D02*
D03*
X144800D02*
D03*
X154800D02*
D03*
X164800D02*
D03*
X174800D02*
D03*
X184800D02*
D03*
X194800D02*
D03*
X-1000Y129500D02*
D03*
X19000D02*
D03*
X9000D02*
D03*
X29000D02*
D03*
X39000D02*
D03*
X49000D02*
D03*
X90000Y161000D02*
D03*
X80000D02*
D03*
X70000D02*
D03*
X59000D02*
D03*
X49000D02*
D03*
X39000D02*
D03*
X29000D02*
D03*
X9000D02*
D03*
X19000D02*
D03*
X7400Y176100D02*
D03*
Y196100D02*
D03*
Y216100D02*
D03*
X-23000Y211606D02*
D03*
X327600Y98700D02*
D03*
X338084Y107951D02*
D03*
X-18000Y160482D02*
D03*
X-34300Y184100D02*
D03*
X448599Y392196D02*
D03*
Y382196D02*
D03*
X-43400Y146800D02*
D03*
X374942Y163396D02*
D03*
X22942Y73696D02*
D03*
X22842Y81096D02*
D03*
X22642Y77396D02*
D03*
X117542Y18096D02*
D03*
Y20896D02*
D03*
X350611Y110065D02*
D03*
X349894Y83296D02*
D03*
X322842Y148396D02*
D03*
X322942Y160396D02*
D03*
X360142Y345696D02*
D03*
Y342596D02*
D03*
X353542D02*
D03*
X332942Y30496D02*
D03*
X36300Y42400D02*
D03*
X33300Y45800D02*
D03*
X87442Y34996D02*
D03*
X89942Y18996D02*
D03*
X87442Y28996D02*
D03*
X94942Y38996D02*
D03*
Y28996D02*
D03*
X95442Y23996D02*
D03*
X100442Y33996D02*
D03*
Y23996D02*
D03*
Y15996D02*
D03*
X105442D02*
D03*
Y23996D02*
D03*
X105242Y33896D02*
D03*
X39942Y40496D02*
D03*
X33442Y71096D02*
D03*
Y66183D02*
D03*
Y60996D02*
D03*
Y55996D02*
D03*
Y50996D02*
D03*
X39942Y48996D02*
D03*
Y55996D02*
D03*
Y60996D02*
D03*
X82442Y40496D02*
D03*
X72442D02*
D03*
X64942D02*
D03*
X52442D02*
D03*
X351350Y144996D02*
D03*
X364444Y163296D02*
D03*
X343819Y139476D02*
D03*
X330342Y402196D02*
D03*
X157442Y358413D02*
D03*
Y363996D02*
D03*
X162742Y396996D02*
D03*
X140942D02*
D03*
X148442D02*
D03*
X141442Y363996D02*
D03*
X148442D02*
D03*
Y358496D02*
D03*
X141442D02*
D03*
X127442Y370996D02*
D03*
Y388996D02*
D03*
X90942Y372496D02*
D03*
Y387679D02*
D03*
X144942Y399896D02*
D03*
Y355068D02*
D03*
X124442Y351496D02*
D03*
X85942Y379996D02*
D03*
X372449Y242853D02*
D03*
X361541D02*
D03*
X-4676Y366996D02*
D03*
X-4558Y376938D02*
D03*
Y353496D02*
D03*
X63942Y367996D02*
D03*
Y392911D02*
D03*
X50942Y368496D02*
D03*
X44942D02*
D03*
X338084Y134490D02*
D03*
X318942Y257496D02*
D03*
X324942Y254496D02*
D03*
X309442Y245580D02*
D03*
X309511Y235355D02*
D03*
Y225356D02*
D03*
X314442Y245580D02*
D03*
X314511Y235355D02*
D03*
Y225356D02*
D03*
X319942Y245580D02*
D03*
X320011Y235355D02*
D03*
Y225356D02*
D03*
X333942Y204996D02*
D03*
X328942Y209496D02*
D03*
X325011Y212996D02*
D03*
Y225271D02*
D03*
Y235271D02*
D03*
X341342Y201596D02*
D03*
X159642Y338296D02*
D03*
X150642Y338396D02*
D03*
X343500Y113000D02*
D03*
X169242Y389196D02*
D03*
X220142Y356639D02*
D03*
X230142D02*
D03*
X240142D02*
D03*
X250142D02*
D03*
X260142D02*
D03*
X270142D02*
D03*
X280142D02*
D03*
X210142D02*
D03*
X105475Y312496D02*
D03*
X133975Y313496D02*
D03*
X158542Y295996D02*
D03*
Y325996D02*
D03*
Y315996D02*
D03*
X151442Y325996D02*
D03*
Y315996D02*
D03*
X340123Y144996D02*
D03*
X340123Y115496D02*
D03*
X315142Y72197D02*
D03*
X124442Y358496D02*
D03*
X131442D02*
D03*
X182664Y396996D02*
D03*
X124442Y377996D02*
D03*
Y381679D02*
D03*
X168942Y195996D02*
D03*
X156942Y207996D02*
D03*
X146442Y217996D02*
D03*
X136442Y227996D02*
D03*
X126442Y237996D02*
D03*
X363742Y82496D02*
D03*
X354520Y76442D02*
D03*
X370742Y77096D02*
D03*
X15342Y77396D02*
D03*
X359442Y113496D02*
D03*
X386101Y147453D02*
D03*
X372570Y83682D02*
D03*
X353242Y83296D02*
D03*
X372542Y100096D02*
D03*
X375935Y102996D02*
D03*
X17042Y85148D02*
D03*
X28466D02*
D03*
X348942Y173996D02*
D03*
X358142Y219396D02*
D03*
X358149Y201613D02*
D03*
X144942Y370996D02*
D03*
Y388996D02*
D03*
X340123Y163296D02*
D03*
X374442Y168512D02*
D03*
X365242Y182996D02*
D03*
X329792Y381604D02*
D03*
X330338Y384200D02*
D03*
X329642Y361754D02*
D03*
X330188Y364350D02*
D03*
X362288Y24327D02*
D03*
X310042Y15396D02*
D03*
X315942Y4896D02*
D03*
X339174D02*
D03*
X112242Y28496D02*
D03*
X114442Y16496D02*
D03*
Y23996D02*
D03*
X108118Y12246D02*
D03*
X115661Y7185D02*
D03*
X105442Y4496D02*
D03*
X98942Y10996D02*
D03*
X359442Y108696D02*
D03*
X101942Y46996D02*
D03*
X95442D02*
D03*
X535942Y175496D02*
D03*
Y197996D02*
D03*
X535789Y218177D02*
D03*
X410442Y382496D02*
D03*
X400442D02*
D03*
X390442D02*
D03*
X341942Y317996D02*
D03*
Y329496D02*
D03*
Y339496D02*
D03*
Y349496D02*
D03*
X336442Y315162D02*
D03*
X334542Y317996D02*
D03*
X301942Y329996D02*
D03*
Y339496D02*
D03*
Y349496D02*
D03*
Y359496D02*
D03*
Y369496D02*
D03*
Y379496D02*
D03*
Y389496D02*
D03*
X120942Y16496D02*
D03*
X324642Y53996D02*
D03*
X353842Y142996D02*
D03*
X40942Y80808D02*
D03*
X43171Y83196D02*
D03*
X306706Y18812D02*
D03*
X69200Y99396D02*
D03*
X39242D02*
D03*
X49742Y98896D02*
D03*
X57742Y99396D02*
D03*
X63242D02*
D03*
X112242Y33896D02*
D03*
X88942Y46996D02*
D03*
X536410Y315496D02*
D03*
X336342Y304596D02*
D03*
X332442D02*
D03*
X56342Y67542D02*
D03*
X49488Y76396D02*
D03*
X330997Y65505D02*
D03*
X306036Y63352D02*
D03*
X311053Y26831D02*
D03*
Y29996D02*
D03*
X299958Y25365D02*
D03*
X300442Y16496D02*
D03*
X355842Y21996D02*
D03*
X352908Y290508D02*
D03*
X63242Y76396D02*
D03*
X419642Y364996D02*
D03*
X375444Y71094D02*
D03*
X384842Y173496D02*
D03*
X332342Y315396D02*
D03*
X360860Y140374D02*
D03*
X353042Y150396D02*
D03*
Y167796D02*
D03*
X329942Y251496D02*
D03*
X342942Y269496D02*
D03*
X330942D02*
D03*
X320773Y188996D02*
D03*
X323294Y186996D02*
D03*
X318242Y286296D02*
D03*
X371042Y174796D02*
D03*
X348787Y245412D02*
D03*
X365542Y392596D02*
D03*
X302442Y313996D02*
D03*
X95442Y55896D02*
D03*
X43171Y88196D02*
D03*
X39942Y66183D02*
D03*
Y71096D02*
D03*
Y76096D02*
D03*
X376458Y29307D02*
D03*
X370442Y31600D02*
D03*
X305906Y8496D02*
D03*
X343819Y254796D02*
D03*
X349357Y315274D02*
D03*
X367147Y249996D02*
D03*
X368256Y212455D02*
D03*
X343921Y216827D02*
D03*
X324942Y245496D02*
D03*
X370842Y381996D02*
D03*
X394799Y176996D02*
D03*
X389799D02*
D03*
X384799D02*
D03*
X360842Y148996D02*
D03*
X293786Y89238D02*
D03*
X386918Y79980D02*
D03*
Y99546D02*
D03*
X413678Y358895D02*
D03*
X478351Y64486D02*
D03*
X510599Y67096D02*
D03*
X418099Y203939D02*
D03*
X417099Y192496D02*
D03*
X414599Y228835D02*
D03*
X496899Y178896D02*
D03*
X495000Y197996D02*
D03*
X496599Y218177D02*
D03*
X440399Y280896D02*
D03*
X438799Y293296D02*
D03*
X475099Y54596D02*
D03*
X380599Y382490D02*
D03*
X406499Y355796D02*
D03*
X406999Y345396D02*
D03*
Y335396D02*
D03*
Y325396D02*
D03*
Y315396D02*
D03*
Y305396D02*
D03*
Y295396D02*
D03*
Y285396D02*
D03*
X424903Y350196D02*
D03*
X424599Y339996D02*
D03*
Y329996D02*
D03*
X518599Y342996D02*
D03*
Y332996D02*
D03*
Y312996D02*
D03*
X528859Y342996D02*
D03*
X528599Y332996D02*
D03*
X525099Y297496D02*
D03*
Y280896D02*
D03*
X454450Y293496D02*
D03*
X464599D02*
D03*
X474599D02*
D03*
X484599D02*
D03*
Y304996D02*
D03*
X474599D02*
D03*
X464599D02*
D03*
X454599D02*
D03*
X421099Y56496D02*
D03*
X412099D02*
D03*
X431099D02*
D03*
X441099Y58096D02*
D03*
X421099Y46996D02*
D03*
X412300Y47000D02*
D03*
X431099Y46996D02*
D03*
X441099Y46596D02*
D03*
X407099Y208496D02*
D03*
Y194996D02*
D03*
Y176496D02*
D03*
Y162496D02*
D03*
X406150Y107500D02*
D03*
Y97500D02*
D03*
Y87500D02*
D03*
Y77500D02*
D03*
X386918Y89238D02*
D03*
X445573Y151496D02*
D03*
X452599Y155496D02*
D03*
X462599D02*
D03*
X472599D02*
D03*
X482599D02*
D03*
X492599D02*
D03*
X502599D02*
D03*
X512599D02*
D03*
X522599D02*
D03*
X532599D02*
D03*
Y140496D02*
D03*
X522599D02*
D03*
X512599D02*
D03*
X502599D02*
D03*
X492599D02*
D03*
X482599D02*
D03*
X472599D02*
D03*
X462599D02*
D03*
X454099Y135496D02*
D03*
X444099Y125496D02*
D03*
X434099Y115496D02*
D03*
X471334Y102096D02*
D03*
X502737Y102596D02*
D03*
X502099Y77096D02*
D03*
X472099D02*
D03*
X389600Y249700D02*
D03*
X409099Y248996D02*
D03*
X432599Y246496D02*
D03*
X447599D02*
D03*
X462599D02*
D03*
X477599D02*
D03*
X436599Y382796D02*
D03*
Y391996D02*
D03*
X464242Y393696D02*
D03*
X478242D02*
D03*
X477099Y381949D02*
D03*
X463099Y381996D02*
D03*
X511099Y268996D02*
D03*
X523699D02*
D03*
Y256496D02*
D03*
X511099D02*
D03*
X483717Y270496D02*
D03*
X376788Y9196D02*
D03*
X384599Y169996D02*
D03*
X389599D02*
D03*
X394599D02*
D03*
X392599Y161496D02*
D03*
X397599Y156496D02*
D03*
X402599Y151496D02*
D03*
X439446Y144952D02*
D03*
X433300Y138900D02*
D03*
X426600Y130200D02*
D03*
X421652Y126100D02*
D03*
X418099Y135390D02*
D03*
X507699Y368996D02*
D03*
X435269Y362506D02*
D03*
X544242Y345995D02*
D03*
Y326995D02*
D03*
Y306995D02*
D03*
Y286842D02*
D03*
Y270995D02*
D03*
X22814Y85148D02*
D03*
X311942Y389578D02*
D03*
Y379578D02*
D03*
Y369578D02*
D03*
X308942Y402396D02*
D03*
X304536Y58796D02*
D03*
X119242Y93896D02*
D03*
Y83896D02*
D03*
Y73896D02*
D03*
X118642Y63896D02*
D03*
Y53896D02*
D03*
Y43896D02*
D03*
X112242D02*
D03*
Y53896D02*
D03*
Y63896D02*
D03*
X79742Y88896D02*
D03*
X88742D02*
D03*
X98242D02*
D03*
X109742Y88743D02*
D03*
X109700Y98500D02*
D03*
X98200D02*
D03*
X88700D02*
D03*
X79642Y98596D02*
D03*
X78742Y55896D02*
D03*
X83742D02*
D03*
X101842D02*
D03*
X78942Y46996D02*
D03*
X71442D02*
D03*
X140442Y22996D02*
D03*
X160942D02*
D03*
X180942D02*
D03*
X200942D02*
D03*
X219942D02*
D03*
X239958D02*
D03*
X259942D02*
D03*
X279942D02*
D03*
X120442D02*
D03*
X280442Y16496D02*
D03*
X260442D02*
D03*
X240442D02*
D03*
X220442D02*
D03*
X200442D02*
D03*
X180442D02*
D03*
X160442D02*
D03*
X140942D02*
D03*
X52442Y47496D02*
D03*
X64942Y46996D02*
D03*
X63872Y55896D02*
D03*
X52342D02*
D03*
X179904Y181996D02*
D03*
X342542Y398996D02*
D03*
X353042Y388028D02*
D03*
X369842Y335081D02*
D03*
X293342Y55935D02*
D03*
X80742Y69896D02*
D03*
Y80136D02*
D03*
X18742Y99396D02*
D03*
X23742D02*
D03*
X28742D02*
D03*
X104642Y351496D02*
D03*
X109642D02*
D03*
Y358496D02*
D03*
X73942Y351996D02*
D03*
X78942D02*
D03*
X68942D02*
D03*
X63942D02*
D03*
X48942Y358496D02*
D03*
X53942Y353496D02*
D03*
X58942Y351996D02*
D03*
X182664Y400996D02*
D03*
X178756Y396996D02*
D03*
X204442Y302996D02*
D03*
X194442D02*
D03*
X188749Y307996D02*
D03*
X195233Y314996D02*
D03*
X204142Y313996D02*
D03*
X294142D02*
D03*
X284142D02*
D03*
X274142D02*
D03*
X264142D02*
D03*
X254142D02*
D03*
X244142D02*
D03*
X234142D02*
D03*
X224142D02*
D03*
X214142D02*
D03*
X367262Y400138D02*
D03*
X132442Y6685D02*
D03*
X155442D02*
D03*
X178442D02*
D03*
X201442D02*
D03*
X224442D02*
D03*
X247442D02*
D03*
X270442D02*
D03*
X293442D02*
D03*
X131942Y37217D02*
D03*
X154942D02*
D03*
X177942D02*
D03*
X200942D02*
D03*
X223942D02*
D03*
X246942D02*
D03*
X269942D02*
D03*
X94642Y358496D02*
D03*
X99642D02*
D03*
X94642Y351496D02*
D03*
X119642D02*
D03*
X114642D02*
D03*
X99642D02*
D03*
X104642Y358496D02*
D03*
X114642D02*
D03*
X119642D02*
D03*
X50942Y373496D02*
D03*
X44942D02*
D03*
X52442Y363996D02*
D03*
X55942Y360496D02*
D03*
X45041Y363496D02*
D03*
X78942Y357996D02*
D03*
X73942D02*
D03*
X68942D02*
D03*
X63942D02*
D03*
X35942Y405996D02*
D03*
X362342Y19496D02*
D03*
X320915Y22095D02*
D03*
X315942Y21996D02*
D03*
X381042Y9196D02*
D03*
X381078Y15996D02*
D03*
Y20996D02*
D03*
X353942Y3496D02*
D03*
X363942D02*
D03*
X373942D02*
D03*
X372534Y9196D02*
D03*
X368280D02*
D03*
X58742Y60868D02*
D03*
X63242Y87396D02*
D03*
X54242D02*
D03*
X60242D02*
D03*
X59742Y81396D02*
D03*
Y76396D02*
D03*
X60242Y67542D02*
D03*
X59742Y71396D02*
D03*
X57242Y87396D02*
D03*
Y81396D02*
D03*
Y76396D02*
D03*
Y71396D02*
D03*
X2942Y363496D02*
D03*
X-4558Y342496D02*
D03*
X2942Y381789D02*
D03*
X59072Y357989D02*
D03*
X336042Y254796D02*
D03*
X342942Y262496D02*
D03*
X285942Y200496D02*
D03*
X295942D02*
D03*
X315942D02*
D03*
X286288Y181996D02*
D03*
X296288D02*
D03*
X316288D02*
D03*
X326288D02*
D03*
X277242D02*
D03*
X268942D02*
D03*
X258942D02*
D03*
X248942D02*
D03*
X238942D02*
D03*
X228942D02*
D03*
X218942D02*
D03*
X208942D02*
D03*
X198942D02*
D03*
X188942D02*
D03*
X276895Y200496D02*
D03*
X268595D02*
D03*
X258595D02*
D03*
X248595D02*
D03*
X238595D02*
D03*
X218595D02*
D03*
X208595D02*
D03*
X198595D02*
D03*
X188595D02*
D03*
X178942D02*
D03*
X151942Y195996D02*
D03*
X161942Y185996D02*
D03*
X131942Y215996D02*
D03*
X121942Y225996D02*
D03*
X111942Y235996D02*
D03*
X146942Y200996D02*
D03*
X156942Y190996D02*
D03*
X36721Y310996D02*
D03*
X46721Y300996D02*
D03*
X81721Y265996D02*
D03*
X91721Y255996D02*
D03*
X101721Y245996D02*
D03*
X51721Y295996D02*
D03*
X31721Y315996D02*
D03*
X86721Y260996D02*
D03*
X76721Y270996D02*
D03*
X106721Y240996D02*
D03*
X96721Y250996D02*
D03*
X108442Y256996D02*
D03*
X118442Y246996D02*
D03*
X88442Y276996D02*
D03*
X98442Y266996D02*
D03*
X68442Y296996D02*
D03*
X78442Y286996D02*
D03*
X43442Y321996D02*
D03*
X73442Y291996D02*
D03*
X113442Y251996D02*
D03*
X103442Y261996D02*
D03*
X93442Y271996D02*
D03*
X83442Y281996D02*
D03*
X58442Y306996D02*
D03*
X48442Y316996D02*
D03*
X37486Y330996D02*
D03*
Y354996D02*
D03*
X279942Y62996D02*
D03*
X251962D02*
D03*
X232442D02*
D03*
X209442D02*
D03*
X186442D02*
D03*
X163442D02*
D03*
X140442D02*
D03*
X360446Y171071D02*
D03*
X361342Y57496D02*
D03*
X381078Y25996D02*
D03*
X214442Y302996D02*
D03*
X224442D02*
D03*
X244442D02*
D03*
X254442D02*
D03*
X274442D02*
D03*
X284442D02*
D03*
X294442D02*
D03*
X302742D02*
D03*
X369842Y313412D02*
D03*
X320942Y398764D02*
D03*
X333242Y398796D02*
D03*
X351410Y396996D02*
D03*
X359093Y389626D02*
D03*
X342542Y358496D02*
D03*
X369842Y357396D02*
D03*
X359693Y379096D02*
D03*
X347943Y384499D02*
D03*
X318142Y319296D02*
D03*
Y329996D02*
D03*
Y339296D02*
D03*
X311942Y359496D02*
D03*
Y349414D02*
D03*
Y339414D02*
D03*
Y329996D02*
D03*
Y319414D02*
D03*
X158442Y245996D02*
D03*
Y255996D02*
D03*
Y265996D02*
D03*
Y285996D02*
D03*
Y305996D02*
D03*
X151342Y245996D02*
D03*
Y256045D02*
D03*
Y265996D02*
D03*
Y285996D02*
D03*
Y295996D02*
D03*
Y305996D02*
D03*
X144942Y351496D02*
D03*
X46721Y393055D02*
D03*
X17742Y60868D02*
D03*
X351990Y222380D02*
D03*
X363700Y357396D02*
D03*
X356042Y345746D02*
D03*
M02*
