M48
;Layer_Color=9474304
;FILE_FORMAT=2:5
INCH,TZ
;TYPE=PLATED
T1F00S00C0.01181
T2F00S00C0.01575
T4F00S00C0.02756
T5F00S00C0.03543
T6F00S00C0.03937
%
T01
X22814Y3520
Y12338
Y22339
X32342Y3520
X42342
X52342
X62342
X72342
X81869
Y12338
Y22339
X89942Y18996
X95442Y23996
X100442
X105442
Y15996
X100442
X98942Y10996
X108118Y12246
X105442Y4496
X115661Y7185
X114442Y16496
X117542Y18096
Y20896
X120442Y22996
X114442Y23996
X112242Y28496
Y33896
X105242
X100442Y33996
X94942Y38996
X95442Y46996
X101942
X88942
X78942
X71442
X64942
Y40496
X72442
X82442
X87442Y34996
Y28996
X94942
X112242Y43896
X118642
X131942Y37217
X140442Y22996
X140942Y16496
X132442Y6685
X120942Y16496
X160442
X160942Y22996
X154942Y37217
X177942
X178442Y6685
X155442
X52442Y40496
Y47496
X39942Y48996
Y40496
X36300Y42400
X33300Y45800
X180942Y22996
X180442Y16496
X200442
X200942Y22996
Y37217
X223942
X219942Y22996
X220442Y16496
X224442Y6685
X201442
X247442
X240442Y16496
X239958Y22996
X259942
X260442Y16496
X270442Y6685
X280442Y16496
X279942Y22996
X299958Y25365
X300442Y16496
X306706Y18812
X312019Y19496
X310042Y15396
X305906Y8496
X315942Y4896
X321850Y8505
X321768Y13496
X320915Y22095
X315942Y21996
X311053Y26831
Y29996
X313695Y38488
X308940Y43012
X326842Y30496
X326000Y26100
X325700Y22800
X330600
X333007Y24327
X332942Y30496
X331842Y13495
X293442Y6685
X269942Y37217
X246942
X336100Y43000
X356500Y38100
X357800Y35100
X355842Y21996
X362288Y24327
X362342Y19496
X368280Y9196
X372534
X376788
X381042
X381078Y15996
Y20996
Y25996
X376458Y29307
Y33524
X370442Y31600
X375244Y44996
X394200Y46732
X396500Y39075
X399400Y35900
X404900Y36117
Y41100
X402200Y43700
X409099Y43602
X412300Y47000
X421099Y46996
X431099
X441099Y46596
X455097Y48917
X388200Y33169
X373942Y3496
X363942
X353942
X339174Y4896
X336842Y13496
X341842
X341000Y22000
X510599Y67096
X502099Y77096
X502737Y102596
X502599Y140496
X512599
X522599
X532599
Y155496
X522599
X512599
X502599
X492599
Y140496
X496899Y178896
X495000Y197996
X535942
Y175496
X482599Y155496
X472599
X462599
X452599
X445573Y151496
X439446Y144952
X433300Y138900
X426600Y130200
X421652Y126100
X416399Y121500
Y118600
Y115800
Y112900
X423000Y110500
X434099Y115496
X444099Y125496
X454099Y135496
X462599Y140496
X472599
X482599
X471334Y102096
X472099Y77096
X478351Y64486
X475099Y54596
X454800Y58500
X441099Y58096
X431099Y56496
X421099
X412099
X404900Y61100
X402200
X399500Y61000
X396531
X391792Y61100
X391599Y66717
X394200Y55840
X380230Y60928
X371809Y60138
X367253Y66232
X375444Y71094
X370742Y77096
X372570Y83682
X363742Y82496
X361300Y84200
X361000Y90300
Y93500
X345400Y94300
X342942Y95700
X340442Y94300
X337942Y95700
X335300Y94496
X335432Y91700
X338084Y107951
X340800Y110500
X343500Y113000
X340123Y115496
X344754Y106700
X342426Y104000
X350611Y110065
X359442Y108696
X364100Y108600
Y113400
X359442Y113496
X361700Y116900
X360860Y140374
X360842Y148996
X353042Y150396
X351350Y144996
X353842Y142996
X343819Y139476
X340123Y144996
X338084Y134490
X340123Y163296
X339642Y171096
X348942Y173996
X353842Y177796
X351990Y182996
X346700Y187000
X344800Y189000
X346642Y192496
X341342Y201596
X358149Y201613
X371042Y188996
X365242Y182996
X371042Y174796
X374442Y168512
X374942Y163396
X376800Y160800
X364444Y163296
X360446Y171071
X353042Y167796
X384599Y169996
X384842Y173496
X384799Y176996
X389799
X394799
X394599Y169996
X389599
X392599Y161496
X397599Y156496
X402599Y151496
X405000Y140000
X408200
Y136500
Y129830
X408800Y126100
X392599Y126496
X394200Y129830
Y136100
X390300Y140000
X386101Y136101
Y147453
X383358Y126496
X393200Y121500
Y118600
Y115800
Y112900
X406150Y107500
Y97500
Y87500
Y77500
Y67500
X386918Y79980
Y89238
Y99546
X375935Y102996
X372542Y100096
X353242Y83296
X349894
X354520Y76442
X341700Y78300
X339642Y73092
X336000Y66400
X361342Y57496
X418099Y135390
X428000Y155496
X407099Y162496
Y176496
Y194996
X417099Y192496
X418099Y203939
X457099Y169996
X332942Y177190
X326288Y181996
X323294Y186996
X320773Y188996
X316288Y192496
X315942Y200496
X316288Y181996
X296288
X286288
X277242
X268942
X258942
X248942
X238942
X228942
X218942
X208942
X198942
X188942
X179904
X178942Y200496
X188595
X188942Y192496
X198595Y200496
X208595
X208942Y192496
X218942
X218595Y200496
X226500Y200500
X228942Y192496
X238942
X238595Y200496
X248595
X248942Y192496
X258942
X258595Y200496
X268595
X276895
X277242Y192496
X268942
X286288
X285942Y200496
X295942
X296288Y192496
X333942Y204996
X322942Y160396
X322842Y148396
X285800Y138700
X285700Y131330
Y127300
X289300Y125300
X289200Y121500
X289000Y117500
X291700Y119500
X285700
Y115200
X287442Y113000
X289300Y129300
Y133400
X291700Y131300
X291600Y127300
X275800Y138700
X264800
X254800
X244800
X234800
X224800
X214800
X204800
X194800
X184800
X182000Y98904
X202000
X222000
X242000
X262560Y87472
X272130
X282300Y87800
X293786Y89238
X302600Y98800
X310200Y106700
X313000
X327600Y98700
X329300Y97000
X330900Y95200
X330700Y100600
X330500Y85300
X327900Y87800
X325400Y90300
X323300Y92400
X318903Y76442
X315142Y72197
X313695Y63496
X306036Y63352
X304536Y58796
X308940
X293342Y55935
X279942Y62996
X251962
X232442
X209442
X186442
X326011Y60512
X324642Y53996
X333007Y57496
X330997Y65505
Y69520
Y79225
X163442Y62996
X140442
X118642Y63896
X112242
Y53896
X118642
X101842Y55896
X95442
X83742
X78742
X63872
X58742Y60868
X60242Y67542
X56342
X57242Y71396
X59742
Y76396
X57242
Y81396
X59742
X60242Y87396
X63242
X57242
X54242
X43171Y88196
Y83196
X40942Y80808
X39942Y76096
Y71096
Y66183
Y60996
Y55996
X33442
Y60996
Y66183
Y71096
X22942Y73696
X22842Y81096
X22814Y85148
X28466
X28742Y99396
X23742
X39242
X49742Y98896
X57742Y99396
X63242
X69200
X79642Y98596
X88700Y98500
X98200
X98242Y88896
X88742
X79742
X80742Y80136
Y69896
X63242Y76396
X49488
X52342Y55896
X33442Y50996
X29000Y129500
X39000
X49000
X72900Y129300
X70000Y161000
X80000
X90000
X98146Y149804
X114800Y138700
X124800
X134800
X144800
X154800
X164800
X174800
X161882Y98704
X119242Y93896
Y83896
Y73896
X109742Y88743
X109700Y98500
X59000Y161000
X49000
X39000
X29000
X49304Y185542
X151942Y195996
X146942Y200996
X156942Y190996
X161942Y185996
X168942Y195996
X7400Y196100
Y176100
X9000Y161000
X19000
X-5300
X-8100
X-10800
X-18000Y160482
X-19000Y149300
X-15700Y145900
X-13000Y142800
X-10800Y137700
X-8100Y140000
X-5300Y142300
X-1000Y129500
X9000
X19000
X18742Y99396
X17042Y85148
X15342Y77396
X22642
X17742Y60868
X-12300Y126800
X-24300
X-35300
X-53200Y127200
X-43400Y146800
X-41200Y154900
X-27698Y156400
X-23700Y146700
X-16300Y135000
X-25500Y178600
X-34300Y184100
X-54200Y180200
X-23000Y201900
Y211606
Y236400
X-13700Y246400
X-10800Y261996
X8000Y264000
Y290000
X-9300Y309500
X-4558Y342496
Y353496
X-54400Y303100
X-54200Y251500
X8000Y236500
X7400Y216100
X49304Y215542
Y245542
X81721Y265996
X86721Y260996
X91721Y255996
X96721Y250996
X101721Y245996
X106721Y240996
X111942Y235996
X126442Y237996
X121942Y225996
X136442Y227996
X131942Y215996
X146442Y217996
X151200Y226049
X158300Y226000
X161942Y219796
X166942Y214796
X171942Y209796
X156942Y207996
X158300Y236000
X151200
X151342Y245996
X158442
Y255996
X151342Y256045
Y265996
X158442
Y285996
X151342
Y295996
X158542
X158442Y305996
X151342
X151442Y315996
X158542
Y325996
X151442
X150642Y338396
X159642Y338296
X157442Y358413
X148442Y358496
X144942Y355068
Y351496
X141442Y358496
X131442
X124442
X119642
X114642
X109642
X104642
X99642
X94642
Y351496
X99642
X104642
X109642
X114642
X119642
X124442
X78942Y351996
X73942
X68942
X63942
X58942
X59072Y357989
X63942Y357996
X68942
X73942
X78942
X55942Y360496
X48942Y358496
X53942Y353496
X37486Y354996
Y330996
X43442Y321996
X48442Y316996
X36721Y310996
X31721Y315996
X46721Y300996
X51721Y295996
X68442Y296996
X73442Y291996
X78442Y286996
X83442Y281996
X88442Y276996
X93442Y271996
X98442Y266996
X103442Y261996
X108442Y256996
X113442Y251996
X118442Y246996
X103975Y286996
X105475Y312496
X133975Y313496
Y286996
X76721Y270996
X58442Y306996
X188749Y307996
X194442Y302996
X204442
X214442
X224442
X224142Y313996
X234142
X244142
X254142
X264142
X274142
X284142
X294142
X302442
X302742Y302996
X294442
X284442
X274442
X275442Y291496
X245642Y290496
X244442Y302996
X254442
X216942Y290496
X214142Y313996
X204142
X195233Y314996
X210142Y356639
X220142
X230142
X240142
X250142
X260142
X270142
X280142
X301942Y359496
Y349496
Y339496
Y329996
X311942
X318142
Y339296
X311942Y339414
Y349414
Y359496
X329642Y361754
X334542Y317996
X332342Y315396
X332442Y304596
X318142Y319296
X311942Y319414
X318242Y286296
X318942Y257496
X324942Y254496
X329942Y251496
X324942Y245496
X319942Y245580
X314442
X309442
X309511Y235355
X314511
X320011
X325011Y235271
Y225271
X320011Y225356
X314511
X309511
X325011Y212996
X328942Y209496
X330942Y269496
X275642Y254796
X245642
X215642
Y219796
X245642
X275642
X343921Y216827
X351990Y222380
X358142Y219396
X354619Y212996
X368256Y212455
X372449Y242853
X361541
X367147Y249996
X367442Y259996
Y269996
Y279996
X387099Y278496
Y263496
X389600Y249700
X409099Y248996
X406999Y265396
Y275396
Y285396
Y295396
Y305396
Y315396
Y325396
Y335396
Y345396
X406499Y355796
X413678Y358895
X424903Y350196
X424599Y339996
Y329996
X435269Y362506
X369842Y357396
X363700
X360142Y345696
Y342596
X353542
X356042Y345746
X341942Y349496
X342542Y358496
X341942Y339496
Y329496
Y317996
X336442Y315162
X336342Y304596
X349357Y315274
X369842Y313412
Y335081
X352908Y290508
X342942Y269496
Y262496
X343819Y254796
X336042
X348787Y245412
X414599Y228835
X407099Y208496
X432599Y246496
X447599
X462599
X477599
X483717Y270496
X484599Y293496
X474599
X464599
X454450
X454599Y304996
X464599
X474599
X484599
X438799Y293296
X440399Y280896
X511099Y268996
Y256496
X523699
Y268996
X525099Y280896
Y297496
X518599Y312996
Y332996
Y342996
X528859
X528599Y332996
X544242Y326995
Y345995
X536410Y315496
X544242Y306995
Y286842
Y270995
X535789Y218177
X496599
X507699Y368996
X477099Y381949
X478242Y393696
X464242
X463099Y381996
X448599Y382196
Y392196
X436599Y391996
Y382796
X410442Y382496
X400442
X390442
X380599Y382490
X370842Y381996
X359693Y379096
X359093Y389626
X353042Y388028
X347943Y384499
X351410Y396996
X342542Y398996
X367262Y400138
X365542Y392596
X419642Y364996
X330188Y364350
X329792Y381604
X330338Y384200
X333242Y398796
X330342Y402196
X320942Y398764
X308942Y402396
X311942Y389578
Y379578
Y369578
X301942Y369496
Y379496
Y389496
X182664Y396996
Y400996
X178756Y396996
X162742
X148442
X144942Y399896
X140942Y396996
X144942Y388996
X127442
X124442Y381679
Y377996
X127442Y370996
X144942
X141442Y363996
X148442
X157442
X169242Y389196
X90942Y387679
X85942Y379996
X90942Y372496
X63942Y367996
X50942Y368496
Y373496
X44942
Y368496
X45041Y363496
X52442Y363996
X46721Y393055
X63942Y392911
X35942Y405996
X2942Y381789
X-4558Y376938
X-4676Y366996
X2942Y363496
T02
X4274Y66183
Y69530
Y72876
Y76223
Y79569
Y82916
Y86262
Y89609
X9588
Y86262
Y82916
Y79569
Y76223
Y72876
Y69530
Y66183
T04
X316842Y10996
X346842
T05
X381599Y74496
X391599
Y84496
X381599
Y94496
X391599
Y104496
X381599
Y182996
Y192996
Y202996
X391599
Y192996
Y182996
X324942Y132996
X314942
Y122996
X324942
X287442Y92996
X277442
X267442
X257442
X247442
X237442
Y82996
X247442
X257442
X267442
X277442
X287442
X227442
X217442
Y92996
X227442
X207442
Y82996
X197442
Y92996
X187442
Y82996
X177442
Y92996
X167442
Y82996
X157442
X147442
Y92996
X157442
X137442
Y82996
X73242Y93896
X47742Y93396
X73242Y61896
X-33433Y190496
Y200496
Y210496
Y220496
Y230496
Y240496
X91442Y335996
Y345996
X101442
Y335996
X111442
Y345996
X209442
Y335996
X219442
X229442
Y345996
X239442
Y335996
X249442
Y345996
X259442
Y335996
X269442
Y345996
X279442
Y335996
X314942Y307996
Y297996
X324942
Y307996
X321442Y264000
X219442Y345996
X381599Y348996
Y358996
X391599
Y348996
Y338996
X381599
Y328996
X391599
Y318996
X381599
Y308996
X391599
Y298996
X381599
Y288996
X391599
X350233Y264000
X336442
X381599Y212996
X391599
X34442Y368996
Y378996
Y388996
Y398996
T06
X52342Y18496
M30
