G04*
G04 #@! TF.GenerationSoftware,Altium Limited,Altium Designer,19.1.8 (144)*
G04*
G04 Layer_Color=8421504*
%FSLAX25Y25*%
%MOIN*%
G70*
G01*
G75*
%ADD31C,0.03937*%
%ADD32R,0.04724X0.05512*%
G04:AMPARAMS|DCode=33|XSize=17.72mil|YSize=55.12mil|CornerRadius=1.95mil|HoleSize=0mil|Usage=FLASHONLY|Rotation=90.000|XOffset=0mil|YOffset=0mil|HoleType=Round|Shape=RoundedRectangle|*
%AMROUNDEDRECTD33*
21,1,0.01772,0.05122,0,0,90.0*
21,1,0.01382,0.05512,0,0,90.0*
1,1,0.00390,0.02561,0.00691*
1,1,0.00390,0.02561,-0.00691*
1,1,0.00390,-0.02561,-0.00691*
1,1,0.00390,-0.02561,0.00691*
%
%ADD33ROUNDEDRECTD33*%
%ADD34R,0.03937X0.05906*%
%ADD35O,0.08268X0.01181*%
%ADD36O,0.01181X0.08268*%
%ADD37R,0.04724X0.03000*%
%ADD38R,0.03543X0.02559*%
%ADD39R,0.05906X0.05118*%
%ADD40R,0.03000X0.04724*%
%ADD41R,0.03937X0.04331*%
%ADD42R,0.04331X0.02559*%
%ADD43R,0.03347X0.02559*%
%ADD44R,0.03347X0.01772*%
%ADD45R,0.04331X0.03937*%
G04:AMPARAMS|DCode=46|XSize=43.31mil|YSize=39.37mil|CornerRadius=0mil|HoleSize=0mil|Usage=FLASHONLY|Rotation=210.000|XOffset=0mil|YOffset=0mil|HoleType=Round|Shape=Rectangle|*
%AMROTATEDRECTD46*
4,1,4,0.00891,0.02788,0.02859,-0.00622,-0.00891,-0.02788,-0.02859,0.00622,0.00891,0.02788,0.0*
%
%ADD46ROTATEDRECTD46*%

G04:AMPARAMS|DCode=47|XSize=43.31mil|YSize=39.37mil|CornerRadius=0mil|HoleSize=0mil|Usage=FLASHONLY|Rotation=240.000|XOffset=0mil|YOffset=0mil|HoleType=Round|Shape=Rectangle|*
%AMROTATEDRECTD47*
4,1,4,-0.00622,0.02859,0.02788,0.00891,0.00622,-0.02859,-0.02788,-0.00891,-0.00622,0.02859,0.0*
%
%ADD47ROTATEDRECTD47*%

G04:AMPARAMS|DCode=48|XSize=43.31mil|YSize=39.37mil|CornerRadius=0mil|HoleSize=0mil|Usage=FLASHONLY|Rotation=300.000|XOffset=0mil|YOffset=0mil|HoleType=Round|Shape=Rectangle|*
%AMROTATEDRECTD48*
4,1,4,-0.02788,0.00891,0.00622,0.02859,0.02788,-0.00891,-0.00622,-0.02859,-0.02788,0.00891,0.0*
%
%ADD48ROTATEDRECTD48*%

G04:AMPARAMS|DCode=49|XSize=43.31mil|YSize=39.37mil|CornerRadius=0mil|HoleSize=0mil|Usage=FLASHONLY|Rotation=330.000|XOffset=0mil|YOffset=0mil|HoleType=Round|Shape=Rectangle|*
%AMROTATEDRECTD49*
4,1,4,-0.02859,-0.00622,-0.00891,0.02788,0.02859,0.00622,0.00891,-0.02788,-0.02859,-0.00622,0.0*
%
%ADD49ROTATEDRECTD49*%

%ADD50R,0.05118X0.05906*%
D31*
X341842Y8496D02*
D03*
X336842D02*
D03*
X331842D02*
D03*
X326842D02*
D03*
X321842D02*
D03*
X331842Y13496D02*
D03*
X336842D02*
D03*
X341842D02*
D03*
X321842D02*
D03*
D32*
X370292Y24327D02*
D03*
X376591D02*
D03*
Y15665D02*
D03*
X370292D02*
D03*
D33*
X343528Y245412D02*
D03*
Y242853D02*
D03*
Y240294D02*
D03*
Y237735D02*
D03*
Y235175D02*
D03*
Y232616D02*
D03*
Y230057D02*
D03*
Y227498D02*
D03*
Y224939D02*
D03*
Y222380D02*
D03*
X366756Y245412D02*
D03*
Y242853D02*
D03*
Y240294D02*
D03*
Y237735D02*
D03*
Y235175D02*
D03*
Y232616D02*
D03*
Y230057D02*
D03*
Y227498D02*
D03*
Y224939D02*
D03*
Y222380D02*
D03*
X346728Y171071D02*
D03*
Y168512D02*
D03*
Y165953D02*
D03*
Y163394D02*
D03*
Y160835D02*
D03*
Y158275D02*
D03*
Y155717D02*
D03*
Y153157D02*
D03*
Y150598D02*
D03*
Y148039D02*
D03*
Y145480D02*
D03*
Y142921D02*
D03*
X369956Y171071D02*
D03*
Y168512D02*
D03*
Y165953D02*
D03*
Y163394D02*
D03*
Y160835D02*
D03*
Y158275D02*
D03*
Y155717D02*
D03*
Y153157D02*
D03*
Y150598D02*
D03*
Y148039D02*
D03*
Y145480D02*
D03*
Y142921D02*
D03*
X365956Y361476D02*
D03*
Y364035D02*
D03*
Y366595D02*
D03*
Y369153D02*
D03*
Y371713D02*
D03*
Y374272D02*
D03*
Y376831D02*
D03*
Y379390D02*
D03*
Y381949D02*
D03*
Y384508D02*
D03*
Y387067D02*
D03*
Y389626D02*
D03*
X342728Y361476D02*
D03*
Y364035D02*
D03*
Y366595D02*
D03*
Y369153D02*
D03*
Y371713D02*
D03*
Y374272D02*
D03*
Y376831D02*
D03*
Y379390D02*
D03*
Y381949D02*
D03*
Y384508D02*
D03*
Y387067D02*
D03*
Y389626D02*
D03*
X152428Y391512D02*
D03*
Y388953D02*
D03*
Y386394D02*
D03*
Y383835D02*
D03*
Y381276D02*
D03*
Y378716D02*
D03*
Y376157D02*
D03*
Y373598D02*
D03*
Y371039D02*
D03*
Y368480D02*
D03*
X175656Y391512D02*
D03*
Y388953D02*
D03*
Y386394D02*
D03*
Y383835D02*
D03*
Y381276D02*
D03*
Y378716D02*
D03*
Y376157D02*
D03*
Y373598D02*
D03*
Y371039D02*
D03*
Y368480D02*
D03*
D34*
X40072Y93396D02*
D03*
X31411D02*
D03*
D35*
X330800Y54823D02*
D03*
Y52854D02*
D03*
Y50886D02*
D03*
Y48917D02*
D03*
Y46949D02*
D03*
Y44980D02*
D03*
Y43012D02*
D03*
Y41043D02*
D03*
Y39075D02*
D03*
Y37106D02*
D03*
Y35138D02*
D03*
Y33169D02*
D03*
X363084D02*
D03*
Y35138D02*
D03*
Y37106D02*
D03*
Y39075D02*
D03*
Y41043D02*
D03*
Y43012D02*
D03*
Y44980D02*
D03*
Y46949D02*
D03*
Y48917D02*
D03*
Y50886D02*
D03*
Y52854D02*
D03*
Y54823D02*
D03*
D36*
X336115Y27854D02*
D03*
X338084D02*
D03*
X340052D02*
D03*
X342021D02*
D03*
X343989D02*
D03*
X345957D02*
D03*
X347926D02*
D03*
X349894D02*
D03*
X351863D02*
D03*
X353832D02*
D03*
X355800D02*
D03*
X357769D02*
D03*
Y60138D02*
D03*
X355800D02*
D03*
X353832D02*
D03*
X351863D02*
D03*
X349894D02*
D03*
X347926D02*
D03*
X345957D02*
D03*
X343989D02*
D03*
X342021D02*
D03*
X340052D02*
D03*
X338084D02*
D03*
X336115D02*
D03*
D37*
X-4263Y361283D02*
D03*
Y346520D02*
D03*
X20146D02*
D03*
Y361283D02*
D03*
Y386378D02*
D03*
Y371614D02*
D03*
X-4263D02*
D03*
Y386378D02*
D03*
X424395Y355614D02*
D03*
Y370378D02*
D03*
X448804D02*
D03*
Y355614D02*
D03*
X536804Y320378D02*
D03*
Y305614D02*
D03*
X512395D02*
D03*
Y320378D02*
D03*
D38*
X53832Y80136D02*
D03*
Y76396D02*
D03*
Y72656D02*
D03*
X63281D02*
D03*
Y80136D02*
D03*
D39*
X72742Y80136D02*
D03*
Y72656D02*
D03*
D40*
X483217Y356791D02*
D03*
X497981D02*
D03*
Y381201D02*
D03*
X483217D02*
D03*
X447981Y268791D02*
D03*
X433217D02*
D03*
Y293201D02*
D03*
X447981D02*
D03*
X139324Y6791D02*
D03*
X124560D02*
D03*
Y31201D02*
D03*
X139324D02*
D03*
X162324Y6791D02*
D03*
X147560D02*
D03*
Y31201D02*
D03*
X162324D02*
D03*
X185324Y6791D02*
D03*
X170560D02*
D03*
Y31201D02*
D03*
X185324D02*
D03*
X208324Y6791D02*
D03*
X193560D02*
D03*
Y31201D02*
D03*
X208324D02*
D03*
X231324Y6791D02*
D03*
X216560D02*
D03*
Y31201D02*
D03*
X231324D02*
D03*
X254324Y6791D02*
D03*
X239560D02*
D03*
Y31201D02*
D03*
X254324D02*
D03*
X277324Y6791D02*
D03*
X262560D02*
D03*
Y31201D02*
D03*
X277324D02*
D03*
X300324Y6791D02*
D03*
X285560D02*
D03*
Y31201D02*
D03*
X300324D02*
D03*
X102624Y39691D02*
D03*
X87860D02*
D03*
Y64101D02*
D03*
X102624D02*
D03*
D41*
X509599Y291650D02*
D03*
Y298342D02*
D03*
X135142Y345342D02*
D03*
Y338650D02*
D03*
X504599Y298342D02*
D03*
Y291650D02*
D03*
X505099Y194650D02*
D03*
Y201342D02*
D03*
X485099Y221342D02*
D03*
Y214650D02*
D03*
X525099Y174650D02*
D03*
Y181342D02*
D03*
Y221342D02*
D03*
Y214650D02*
D03*
X485099Y174650D02*
D03*
Y181342D02*
D03*
Y201342D02*
D03*
Y194650D02*
D03*
X525099D02*
D03*
Y201342D02*
D03*
X449099Y94442D02*
D03*
Y87749D02*
D03*
X525099Y87749D02*
D03*
Y94442D02*
D03*
X320942Y33524D02*
D03*
Y26831D02*
D03*
X315942D02*
D03*
Y33524D02*
D03*
X64057Y66742D02*
D03*
Y60049D02*
D03*
X36442Y70950D02*
D03*
Y77642D02*
D03*
X120942Y338650D02*
D03*
Y345342D02*
D03*
X497599Y277150D02*
D03*
Y283842D02*
D03*
X514599Y291650D02*
D03*
Y298342D02*
D03*
X504599Y285524D02*
D03*
Y278831D02*
D03*
X509599Y285524D02*
D03*
Y278831D02*
D03*
X514599Y285524D02*
D03*
Y278831D02*
D03*
X426099Y306150D02*
D03*
Y312842D02*
D03*
X52442Y66742D02*
D03*
Y60049D02*
D03*
X125942Y338650D02*
D03*
Y345342D02*
D03*
X109742Y76242D02*
D03*
Y69550D02*
D03*
X145142Y338650D02*
D03*
Y345342D02*
D03*
D42*
X-29576Y150540D02*
D03*
Y146800D02*
D03*
Y143060D02*
D03*
X-39024D02*
D03*
Y146800D02*
D03*
X-39024Y150540D02*
D03*
X336366Y167052D02*
D03*
Y163312D02*
D03*
Y159572D02*
D03*
X326917D02*
D03*
Y163312D02*
D03*
Y167052D02*
D03*
X326917Y149236D02*
D03*
Y145496D02*
D03*
Y141756D02*
D03*
X336366D02*
D03*
Y145496D02*
D03*
Y149236D02*
D03*
X334666Y386636D02*
D03*
Y382896D02*
D03*
Y379156D02*
D03*
X325217D02*
D03*
Y382896D02*
D03*
Y386636D02*
D03*
X345170Y205353D02*
D03*
Y201613D02*
D03*
Y197873D02*
D03*
X354619D02*
D03*
Y201613D02*
D03*
Y205353D02*
D03*
X367266Y80336D02*
D03*
Y76596D02*
D03*
Y72856D02*
D03*
X357817D02*
D03*
Y76596D02*
D03*
Y80336D02*
D03*
X19017Y81136D02*
D03*
Y77396D02*
D03*
Y73656D02*
D03*
X28466D02*
D03*
Y77396D02*
D03*
Y81136D02*
D03*
X334666Y366736D02*
D03*
Y362996D02*
D03*
Y359256D02*
D03*
X325217D02*
D03*
Y362996D02*
D03*
Y366736D02*
D03*
X131517Y374736D02*
D03*
Y370996D02*
D03*
Y367256D02*
D03*
X140966D02*
D03*
Y370996D02*
D03*
Y374736D02*
D03*
Y392736D02*
D03*
Y388996D02*
D03*
Y385256D02*
D03*
X131517D02*
D03*
Y388996D02*
D03*
Y392736D02*
D03*
X154717Y342136D02*
D03*
Y338396D02*
D03*
Y334656D02*
D03*
X164166D02*
D03*
Y338396D02*
D03*
Y342136D02*
D03*
D43*
X382952Y122318D02*
D03*
Y112082D02*
D03*
X389251Y122318D02*
D03*
Y112082D02*
D03*
X192491Y333178D02*
D03*
Y343414D02*
D03*
X186192Y333178D02*
D03*
Y343414D02*
D03*
Y358114D02*
D03*
Y347878D02*
D03*
X192491Y358114D02*
D03*
Y347878D02*
D03*
X81410Y384187D02*
D03*
Y394424D02*
D03*
X75110Y384187D02*
D03*
Y394424D02*
D03*
X75110Y375867D02*
D03*
Y365631D02*
D03*
X81409Y375867D02*
D03*
Y365631D02*
D03*
X318591Y157378D02*
D03*
Y167614D02*
D03*
X312292Y157378D02*
D03*
Y167614D02*
D03*
Y151114D02*
D03*
Y140878D02*
D03*
X318591Y151114D02*
D03*
Y140878D02*
D03*
X369991Y298878D02*
D03*
Y309114D02*
D03*
X363692Y298878D02*
D03*
Y309114D02*
D03*
X329792Y243614D02*
D03*
Y233378D02*
D03*
X336091Y243614D02*
D03*
Y233378D02*
D03*
X369591Y193878D02*
D03*
Y204114D02*
D03*
X363292Y193878D02*
D03*
Y204114D02*
D03*
X351392Y97114D02*
D03*
Y86878D02*
D03*
X357691Y97114D02*
D03*
Y86878D02*
D03*
X369991Y318378D02*
D03*
Y328614D02*
D03*
X363692Y318378D02*
D03*
Y328614D02*
D03*
X406150Y122318D02*
D03*
Y112082D02*
D03*
X412450Y122318D02*
D03*
Y112082D02*
D03*
X387950Y46882D02*
D03*
Y57118D02*
D03*
X381650Y46882D02*
D03*
Y57118D02*
D03*
X457750Y211713D02*
D03*
Y201477D02*
D03*
X464049Y211713D02*
D03*
Y201477D02*
D03*
Y184477D02*
D03*
Y194713D02*
D03*
X457750Y184477D02*
D03*
Y194713D02*
D03*
X363692Y349114D02*
D03*
Y338878D02*
D03*
X369991Y349114D02*
D03*
Y338878D02*
D03*
X370645Y86896D02*
D03*
Y97132D02*
D03*
X364346Y86896D02*
D03*
Y97132D02*
D03*
D44*
X382952Y118775D02*
D03*
Y115625D02*
D03*
X389251Y118775D02*
D03*
Y115625D02*
D03*
X192491Y336721D02*
D03*
Y339871D02*
D03*
X186192Y336721D02*
D03*
Y339871D02*
D03*
Y354571D02*
D03*
Y351421D02*
D03*
X192491Y354571D02*
D03*
Y351421D02*
D03*
X81410Y387731D02*
D03*
Y390880D02*
D03*
X75110Y387731D02*
D03*
Y390880D02*
D03*
X75110Y372323D02*
D03*
Y369174D02*
D03*
X81409Y372323D02*
D03*
Y369174D02*
D03*
X318591Y160921D02*
D03*
Y164071D02*
D03*
X312292Y160921D02*
D03*
Y164071D02*
D03*
Y147571D02*
D03*
Y144421D02*
D03*
X318591Y147571D02*
D03*
Y144421D02*
D03*
X369991Y302421D02*
D03*
Y305571D02*
D03*
X363692Y302421D02*
D03*
Y305571D02*
D03*
X329792Y240071D02*
D03*
Y236921D02*
D03*
X336091Y240071D02*
D03*
Y236921D02*
D03*
X369591Y197421D02*
D03*
Y200571D02*
D03*
X363292Y197421D02*
D03*
Y200571D02*
D03*
X351392Y93571D02*
D03*
Y90421D02*
D03*
X357691Y93571D02*
D03*
Y90421D02*
D03*
X369991Y321921D02*
D03*
Y325071D02*
D03*
X363692Y321921D02*
D03*
Y325071D02*
D03*
X406150Y118775D02*
D03*
Y115625D02*
D03*
X412450Y118775D02*
D03*
X412450Y115625D02*
D03*
X387950Y50425D02*
D03*
Y53575D02*
D03*
X381650Y50425D02*
D03*
Y53575D02*
D03*
X457750Y208170D02*
D03*
Y205020D02*
D03*
X464049Y208170D02*
D03*
Y205020D02*
D03*
Y188020D02*
D03*
Y191170D02*
D03*
X457750Y188020D02*
D03*
Y191170D02*
D03*
X363692Y345571D02*
D03*
Y342421D02*
D03*
X369991Y345571D02*
D03*
Y342421D02*
D03*
X370645Y90439D02*
D03*
Y93589D02*
D03*
X364346Y90439D02*
D03*
Y93589D02*
D03*
D45*
X-39654Y268100D02*
D03*
X-46346D02*
D03*
X-45846Y290216D02*
D03*
X-39154D02*
D03*
X320346Y42800D02*
D03*
X313653D02*
D03*
X-30454Y161400D02*
D03*
X-37146D02*
D03*
Y166900D02*
D03*
X-30454D02*
D03*
X-37146Y172400D02*
D03*
X-30454D02*
D03*
X-37146Y177900D02*
D03*
X-30454D02*
D03*
X313653Y52600D02*
D03*
X320346D02*
D03*
X-39154Y295996D02*
D03*
X-45846D02*
D03*
X296288Y47417D02*
D03*
X289595D02*
D03*
X266595Y47496D02*
D03*
X273288D02*
D03*
X250288D02*
D03*
X243595D02*
D03*
X220595D02*
D03*
X227288D02*
D03*
X197595D02*
D03*
X204288D02*
D03*
X181288D02*
D03*
X174595D02*
D03*
X151595D02*
D03*
X158288D02*
D03*
X135288D02*
D03*
X128595D02*
D03*
X98588Y78581D02*
D03*
X91895D02*
D03*
X511946Y348996D02*
D03*
X505253D02*
D03*
X300442Y399894D02*
D03*
X293749D02*
D03*
X278749D02*
D03*
X285442D02*
D03*
X270442D02*
D03*
X263749D02*
D03*
X248749D02*
D03*
X255442D02*
D03*
X240442D02*
D03*
X233749D02*
D03*
X218749D02*
D03*
X225442D02*
D03*
X210442D02*
D03*
X203749D02*
D03*
X188749D02*
D03*
X195442D02*
D03*
X483753Y129096D02*
D03*
X490446D02*
D03*
X490446Y53096D02*
D03*
X483753D02*
D03*
X-39654Y273600D02*
D03*
X-46346D02*
D03*
X-27654Y251500D02*
D03*
X-34346D02*
D03*
X358695Y177796D02*
D03*
X365388D02*
D03*
X363088Y396396D02*
D03*
X356395D02*
D03*
X351095Y252096D02*
D03*
X357788D02*
D03*
X166906Y396996D02*
D03*
X173599D02*
D03*
X313653Y58796D02*
D03*
X320346D02*
D03*
X362288Y15096D02*
D03*
X355595D02*
D03*
X313653Y47700D02*
D03*
X320346Y47700D02*
D03*
X331747Y73956D02*
D03*
X325054D02*
D03*
X511946Y353996D02*
D03*
X505253D02*
D03*
X439446Y305996D02*
D03*
X432753D02*
D03*
X505253Y358996D02*
D03*
X511946D02*
D03*
X497446Y270496D02*
D03*
X490753D02*
D03*
X518072Y348996D02*
D03*
X524765D02*
D03*
X518072Y353996D02*
D03*
X524765D02*
D03*
X518072Y358996D02*
D03*
X524765D02*
D03*
X362288Y9996D02*
D03*
X355595D02*
D03*
X24588Y64396D02*
D03*
X17895D02*
D03*
X24588Y89609D02*
D03*
X17895D02*
D03*
X24288Y397996D02*
D03*
X17595D02*
D03*
X24288Y392996D02*
D03*
X17595D02*
D03*
X135288Y42496D02*
D03*
X128595D02*
D03*
X158288D02*
D03*
X151595D02*
D03*
X181288D02*
D03*
X174595D02*
D03*
X204288D02*
D03*
X197595D02*
D03*
X227288D02*
D03*
X220595D02*
D03*
X250288D02*
D03*
X243595D02*
D03*
X273288D02*
D03*
X266595D02*
D03*
X296288D02*
D03*
X289595D02*
D03*
X188749Y394895D02*
D03*
X195442D02*
D03*
X203749D02*
D03*
X210442D02*
D03*
X218749D02*
D03*
X225442D02*
D03*
X233749D02*
D03*
X240442D02*
D03*
X248749D02*
D03*
X255442D02*
D03*
X263749D02*
D03*
X270442D02*
D03*
X278749D02*
D03*
X285442D02*
D03*
X293749D02*
D03*
X300442D02*
D03*
X328888Y328396D02*
D03*
X322195D02*
D03*
X328888Y323496D02*
D03*
X322195D02*
D03*
D46*
X470997Y125678D02*
D03*
X465201Y122332D02*
D03*
X503201Y56514D02*
D03*
X508997Y59860D02*
D03*
D47*
X452517Y107198D02*
D03*
X455864Y112994D02*
D03*
X521681Y74994D02*
D03*
X518335Y69198D02*
D03*
D48*
X455864Y67598D02*
D03*
X452517Y73394D02*
D03*
X518335Y112994D02*
D03*
X521681Y107198D02*
D03*
D49*
X465201Y59860D02*
D03*
X470997Y56514D02*
D03*
X508997Y122332D02*
D03*
X503201Y125678D02*
D03*
D50*
X57102Y93396D02*
D03*
X64582D02*
D03*
M02*
