G04*
G04 #@! TF.GenerationSoftware,Altium Limited,Altium Designer,20.0.13 (296)*
G04*
G04 Layer_Color=16711935*
%FSLAX25Y25*%
%MOIN*%
G70*
G01*
G75*
%ADD51R,0.62992X0.35100*%
%ADD66C,0.04737*%
%ADD72O,0.03950X0.03241*%
%ADD73O,0.10642X0.04737*%
%ADD74O,0.07887X0.04737*%
%ADD75O,0.20485X0.06706*%
%ADD76R,0.06706X0.06706*%
%ADD77C,0.06706*%
%ADD78R,0.06706X0.06706*%
%ADD79C,0.06706*%
%ADD80C,0.08674*%
%ADD81C,0.06312*%
%ADD82C,0.06800*%
D51*
X44488Y19478D02*
D03*
D66*
X316842Y10996D02*
D03*
X346842D02*
D03*
D72*
X-4700Y89640D02*
D03*
Y86293D02*
D03*
Y82947D02*
D03*
Y79600D02*
D03*
Y76254D02*
D03*
Y72907D02*
D03*
Y69561D02*
D03*
Y66214D02*
D03*
X-10014D02*
D03*
Y69561D02*
D03*
Y72907D02*
D03*
Y76254D02*
D03*
Y79600D02*
D03*
Y82947D02*
D03*
Y86293D02*
D03*
Y89640D02*
D03*
D73*
X-8558Y94955D02*
D03*
Y60899D02*
D03*
D74*
X-21865D02*
D03*
Y94955D02*
D03*
D75*
X155512Y419496D02*
D03*
Y362409D02*
D03*
X37402D02*
D03*
Y419496D02*
D03*
D76*
X111721Y347500D02*
D03*
X287442Y92996D02*
D03*
X207442D02*
D03*
X279442Y347500D02*
D03*
D77*
X111721Y337500D02*
D03*
X101721Y347500D02*
D03*
Y337500D02*
D03*
X91721Y347500D02*
D03*
Y337500D02*
D03*
X-33433Y200496D02*
D03*
Y210496D02*
D03*
Y220496D02*
D03*
Y230496D02*
D03*
Y240496D02*
D03*
X324942Y297996D02*
D03*
X314942D02*
D03*
X324942Y307996D02*
D03*
Y132996D02*
D03*
X314942Y122996D02*
D03*
X324942D02*
D03*
X381599Y74496D02*
D03*
X391599Y84496D02*
D03*
X381599D02*
D03*
X391599Y94496D02*
D03*
X381599D02*
D03*
X391599Y104496D02*
D03*
X381599D02*
D03*
Y223996D02*
D03*
X391599D02*
D03*
X381599Y213996D02*
D03*
X391599D02*
D03*
X381599Y203996D02*
D03*
X391599D02*
D03*
X381599Y193996D02*
D03*
X391598Y343996D02*
D03*
X381598D02*
D03*
Y333996D02*
D03*
X391598D02*
D03*
X381598Y323996D02*
D03*
X391598D02*
D03*
X381598Y313996D02*
D03*
X391598D02*
D03*
X381598Y303996D02*
D03*
X247442Y92996D02*
D03*
Y82996D02*
D03*
X257442D02*
D03*
Y92996D02*
D03*
X267442Y82996D02*
D03*
Y92996D02*
D03*
X277442Y82996D02*
D03*
Y92996D02*
D03*
X287442Y82996D02*
D03*
X207442D02*
D03*
X197442Y92996D02*
D03*
Y82996D02*
D03*
X187442Y92996D02*
D03*
Y82996D02*
D03*
X177442Y92996D02*
D03*
Y82996D02*
D03*
X167442D02*
D03*
Y92996D02*
D03*
X239442Y347500D02*
D03*
Y337500D02*
D03*
X249442D02*
D03*
Y347500D02*
D03*
X259442Y337500D02*
D03*
Y347500D02*
D03*
X269442Y337500D02*
D03*
Y347500D02*
D03*
X279442Y337500D02*
D03*
D78*
X-33433Y190496D02*
D03*
X314942Y307996D02*
D03*
Y132996D02*
D03*
X391599Y74496D02*
D03*
Y193996D02*
D03*
X391598Y303996D02*
D03*
D79*
X381598Y373996D02*
D03*
X391598D02*
D03*
X381598Y353996D02*
D03*
X391598D02*
D03*
Y363996D02*
D03*
X381598D02*
D03*
X217442Y82996D02*
D03*
Y92996D02*
D03*
X237442Y82996D02*
D03*
Y92996D02*
D03*
X227442D02*
D03*
Y82996D02*
D03*
X147442D02*
D03*
Y92996D02*
D03*
X157442D02*
D03*
Y82996D02*
D03*
X137442Y92996D02*
D03*
Y82996D02*
D03*
X209442Y337500D02*
D03*
Y347500D02*
D03*
X229442Y337500D02*
D03*
Y347500D02*
D03*
X219442D02*
D03*
Y337500D02*
D03*
D80*
X44488Y18504D02*
D03*
D81*
X33569Y93396D02*
D03*
X59069Y93896D02*
D03*
Y61896D02*
D03*
X350233Y275000D02*
D03*
X336442D02*
D03*
X321442D02*
D03*
D82*
X27559Y405953D02*
D03*
Y395953D02*
D03*
Y385953D02*
D03*
Y375953D02*
D03*
M02*
