G04*
G04 #@! TF.GenerationSoftware,Altium Limited,Altium Designer,20.0.13 (296)*
G04*
G04 Layer_Color=16711935*
%FSLAX25Y25*%
%MOIN*%
G70*
G01*
G75*
%ADD10C,0.01000*%
%ADD18C,0.00500*%
%ADD97C,0.00600*%
D10*
X-13283Y72927D02*
Y82927D01*
X-18282Y77927D02*
X-8282D01*
X243937Y409449D02*
X263937D01*
X253937Y399449D02*
Y419449D01*
X253937Y13618D02*
Y33618D01*
X243937Y23618D02*
X263937D01*
X523622Y13617D02*
Y33617D01*
X513622Y23617D02*
X533622D01*
X523622Y399449D02*
Y419449D01*
X513622Y409449D02*
X533622D01*
X243937Y206693D02*
X263937D01*
X253937Y196693D02*
Y216693D01*
X-15748Y399449D02*
Y419449D01*
X-25748Y409449D02*
X-5748D01*
X-15748Y13617D02*
Y33617D01*
X-25748Y23617D02*
X-5748D01*
X96457Y381110D02*
Y390953D01*
X86614D02*
X96457D01*
Y400795D01*
Y390953D02*
X106299D01*
X-38058Y122996D02*
X321942D01*
X-38058Y307996D02*
X321942D01*
X-38058Y132996D02*
X321942D01*
X304842Y316596D02*
X304942Y316696D01*
X-38058Y297996D02*
X321942D01*
X141942Y195496D02*
Y235496D01*
X121942Y215496D02*
X161942D01*
X351099Y89496D02*
X386099D01*
X116542Y19496D02*
X122842D01*
X352599Y197996D02*
X386599D01*
X357099Y358996D02*
X386599D01*
X364599Y303996D02*
X386599D01*
X-81000Y133858D02*
X-79000Y127858D01*
X-83000D02*
X-81000Y133858D01*
X-83000Y6000D02*
X-81000Y0D01*
X-79000Y6000D01*
X-81000Y83424D02*
Y133858D01*
Y0D02*
Y47234D01*
X-82000Y133858D02*
X-56618D01*
X-82000Y0D02*
X-17248D01*
X-81000Y433071D02*
X-79000Y427071D01*
X-83000D02*
X-81000Y433071D01*
X-83000Y318126D02*
X-81000Y312126D01*
X-79000Y318126D01*
X-81000Y389093D02*
Y433071D01*
Y312126D02*
Y352904D01*
X-82000Y433071D02*
X-63992D01*
X-82000Y312126D02*
X-48744D01*
X-68992Y99000D02*
X-62992Y101000D01*
X-68992Y103000D02*
X-62992Y101000D01*
X-39370D02*
X-33370Y103000D01*
X-39370Y101000D02*
X-33370Y99000D01*
X-72992Y101000D02*
X-62992D01*
X-39370D02*
X-29370D01*
X-39370Y100000D02*
Y124484D01*
X-62992Y100000D02*
Y140232D01*
X213942Y215496D02*
X215942Y209496D01*
X211942D02*
X213942Y215496D01*
X211942Y138996D02*
X213942Y132996D01*
X215942Y138996D01*
X213942Y187742D02*
Y215496D01*
Y132996D02*
Y157550D01*
X163060Y215496D02*
X214942D01*
X212942Y132996D02*
X314942D01*
X211942Y221496D02*
X213942Y215496D01*
X215942Y221496D01*
X213942Y297996D02*
X215942Y291996D01*
X211942D02*
X213942Y297996D01*
Y215496D02*
Y240050D01*
Y270242D02*
Y297996D01*
X163060Y215496D02*
X214942D01*
X212942Y297996D02*
X314942D01*
X295942D02*
X297942Y291996D01*
X293942D02*
X295942Y297996D01*
X293942Y138996D02*
X295942Y132996D01*
X297942Y138996D01*
X295942Y228492D02*
Y297996D01*
Y132996D02*
Y199300D01*
X294942Y297996D02*
X314942D01*
X294942Y132996D02*
X314942D01*
X-62992Y457000D02*
X-56992Y459000D01*
X-62992Y457000D02*
X-56992Y455000D01*
X541244D02*
X547244Y457000D01*
X541244Y459000D02*
X547244Y457000D01*
X-62992D02*
X222931D01*
X258121D02*
X547244D01*
X-62992Y305752D02*
Y458000D01*
X547244Y410949D02*
Y458000D01*
X-97600Y433071D02*
X-95600Y427071D01*
X-99600D02*
X-97600Y433071D01*
X-99600Y6000D02*
X-97600Y0D01*
X-95600Y6000D01*
X-97600Y232030D02*
Y433071D01*
Y0D02*
Y197840D01*
X-98600Y433071D02*
X-17248D01*
X-98600Y0D02*
X-17248D01*
D18*
X24803D02*
X64173D01*
D97*
X-53558Y215496D02*
X121942D01*
X-82399Y48834D02*
X-83399Y49834D01*
Y51833D01*
X-82399Y52833D01*
X-81400D01*
X-80400Y51833D01*
Y50834D01*
Y51833D01*
X-79400Y52833D01*
X-78401D01*
X-77401Y51833D01*
Y49834D01*
X-78401Y48834D01*
X-77401Y57832D02*
X-83399D01*
X-80400Y54833D01*
Y58831D01*
X-77401Y60831D02*
X-78401D01*
Y61830D01*
X-77401D01*
Y60831D01*
X-82399Y65829D02*
X-83399Y66829D01*
Y68828D01*
X-82399Y69828D01*
X-78401D01*
X-77401Y68828D01*
Y66829D01*
X-78401Y65829D01*
X-82399D01*
Y71827D02*
X-83399Y72827D01*
Y74826D01*
X-82399Y75826D01*
X-78401D01*
X-77401Y74826D01*
Y72827D01*
X-78401Y71827D01*
X-82399D01*
Y77825D02*
X-83399Y78825D01*
Y80824D01*
X-82399Y81824D01*
X-78401D01*
X-77401Y80824D01*
Y78825D01*
X-78401Y77825D01*
X-82399D01*
Y354504D02*
X-83399Y355503D01*
Y357503D01*
X-82399Y358503D01*
X-81400D01*
X-80400Y357503D01*
Y356503D01*
Y357503D01*
X-79400Y358503D01*
X-78401D01*
X-77401Y357503D01*
Y355503D01*
X-78401Y354504D01*
X-82399Y360502D02*
X-83399Y361502D01*
Y363501D01*
X-82399Y364500D01*
X-78401D01*
X-77401Y363501D01*
Y361502D01*
X-78401Y360502D01*
X-82399D01*
X-77401Y366500D02*
X-78401D01*
Y367499D01*
X-77401D01*
Y366500D01*
X-83399Y371498D02*
Y375497D01*
X-82399D01*
X-78401Y371498D01*
X-77401D01*
Y381495D02*
Y377496D01*
X-81400Y381495D01*
X-82399D01*
X-83399Y380495D01*
Y378496D01*
X-82399Y377496D01*
Y383494D02*
X-83399Y384494D01*
Y386493D01*
X-82399Y387493D01*
X-78401D01*
X-77401Y386493D01*
Y384494D01*
X-78401Y383494D01*
X-82399D01*
X-56280Y92602D02*
X-58279Y91602D01*
X-60279Y89603D01*
Y87604D01*
X-59279Y86604D01*
X-57280D01*
X-56280Y87604D01*
Y88603D01*
X-57280Y89603D01*
X-60279D01*
X-54281Y86604D02*
Y87604D01*
X-53281D01*
Y86604D01*
X-54281D01*
X-49282Y91602D02*
X-48283Y92602D01*
X-46283D01*
X-45283Y91602D01*
Y87604D01*
X-46283Y86604D01*
X-48283D01*
X-49282Y87604D01*
Y91602D01*
X212542Y159150D02*
X211543Y160150D01*
Y162149D01*
X212542Y163149D01*
X216541D01*
X217541Y162149D01*
Y160150D01*
X216541Y159150D01*
X212542D01*
X217541Y165148D02*
X216541D01*
Y166148D01*
X217541D01*
Y165148D01*
X212542Y170147D02*
X211543Y171147D01*
Y173146D01*
X212542Y174145D01*
X213542D01*
X214542Y173146D01*
X215541Y174145D01*
X216541D01*
X217541Y173146D01*
Y171147D01*
X216541Y170147D01*
X215541D01*
X214542Y171147D01*
X213542Y170147D01*
X212542D01*
X214542Y171147D02*
Y173146D01*
X217541Y180144D02*
Y176145D01*
X213542Y180144D01*
X212542D01*
X211543Y179144D01*
Y177145D01*
X212542Y176145D01*
X211543Y186142D02*
Y182143D01*
X214542D01*
X213542Y184142D01*
Y185142D01*
X214542Y186142D01*
X216541D01*
X217541Y185142D01*
Y183143D01*
X216541Y182143D01*
X212542Y241650D02*
X211543Y242650D01*
Y244649D01*
X212542Y245649D01*
X216541D01*
X217541Y244649D01*
Y242650D01*
X216541Y241650D01*
X212542D01*
X217541Y247648D02*
X216541D01*
Y248648D01*
X217541D01*
Y247648D01*
X212542Y252647D02*
X211543Y253646D01*
Y255646D01*
X212542Y256645D01*
X213542D01*
X214542Y255646D01*
X215541Y256645D01*
X216541D01*
X217541Y255646D01*
Y253646D01*
X216541Y252647D01*
X215541D01*
X214542Y253646D01*
X213542Y252647D01*
X212542D01*
X214542Y253646D02*
Y255646D01*
X217541Y262644D02*
Y258645D01*
X213542Y262644D01*
X212542D01*
X211543Y261644D01*
Y259645D01*
X212542Y258645D01*
X211543Y268642D02*
Y264643D01*
X214542D01*
X213542Y266642D01*
Y267642D01*
X214542Y268642D01*
X216541D01*
X217541Y267642D01*
Y265643D01*
X216541Y264643D01*
X299541Y200900D02*
Y202900D01*
Y201900D01*
X293543D01*
X294542Y200900D01*
X299541Y205899D02*
X298541D01*
Y206898D01*
X299541D01*
Y205899D01*
X293543Y214896D02*
X294542Y212896D01*
X296542Y210897D01*
X298541D01*
X299541Y211897D01*
Y213896D01*
X298541Y214896D01*
X297541D01*
X296542Y213896D01*
Y210897D01*
X293543Y220894D02*
Y216895D01*
X296542D01*
X295542Y218894D01*
Y219894D01*
X296542Y220894D01*
X298541D01*
X299541Y219894D01*
Y217895D01*
X298541Y216895D01*
X294542Y222893D02*
X293543Y223893D01*
Y225892D01*
X294542Y226892D01*
X298541D01*
X299541Y225892D01*
Y223893D01*
X298541Y222893D01*
X294542D01*
X224531Y453401D02*
X226531D01*
X225531D01*
Y459399D01*
X224531Y458399D01*
X233528Y459399D02*
X229530D01*
Y456400D01*
X231529Y457400D01*
X232528D01*
X233528Y456400D01*
Y454401D01*
X232528Y453401D01*
X230529D01*
X229530Y454401D01*
X239526Y459399D02*
X235528D01*
Y456400D01*
X237527Y457400D01*
X238527D01*
X239526Y456400D01*
Y454401D01*
X238527Y453401D01*
X236527D01*
X235528Y454401D01*
X241526Y453401D02*
Y454401D01*
X242525D01*
Y453401D01*
X241526D01*
X246524Y458399D02*
X247524Y459399D01*
X249523D01*
X250523Y458399D01*
Y454401D01*
X249523Y453401D01*
X247524D01*
X246524Y454401D01*
Y458399D01*
X252522D02*
X253522Y459399D01*
X255521D01*
X256521Y458399D01*
Y454401D01*
X255521Y453401D01*
X253522D01*
X252522Y454401D01*
Y458399D01*
X-94001Y199441D02*
Y201440D01*
Y200440D01*
X-99999D01*
X-98999Y199441D01*
X-94001Y204439D02*
Y206438D01*
Y205438D01*
X-99999D01*
X-98999Y204439D01*
Y209437D02*
X-99999Y210437D01*
Y212436D01*
X-98999Y213436D01*
X-95001D01*
X-94001Y212436D01*
Y210437D01*
X-95001Y209437D01*
X-98999D01*
X-94001Y215435D02*
X-95001D01*
Y216435D01*
X-94001D01*
Y215435D01*
X-98999Y220434D02*
X-99999Y221433D01*
Y223433D01*
X-98999Y224432D01*
X-95001D01*
X-94001Y223433D01*
Y221433D01*
X-95001Y220434D01*
X-98999D01*
Y226432D02*
X-99999Y227431D01*
Y229431D01*
X-98999Y230430D01*
X-95001D01*
X-94001Y229431D01*
Y227431D01*
X-95001Y226432D01*
X-98999D01*
M02*
