M48
;Layer_Color=9474304
;FILE_FORMAT=2:5
INCH,TZ
;TYPE=PLATED
T1F00S00C0.01181
T2F00S00C0.01575
T4F00S00C0.02756
T5F00S00C0.03543
T6F00S00C0.03937
;TYPE=NON_PLATED
%
T01
X14961Y3528
Y12347
Y22346
X22127Y42400
X19127Y45800
X25769Y48996
Y40496
X40000Y40500
Y47000
X48500
Y40500
X57000
Y47000
X64500
Y40500
X85742Y34996
Y28996
X93242
Y23996
X98742
X103742
Y15996
X98742
X100300Y9100
X109444
X115661Y7185
X114442Y16496
X117542Y18096
Y20896
X120442Y22996
X114442Y23996
X112242Y28496
Y33896
X103542
X98742Y33996
X93242Y38996
X93742Y46996
X100242
X87242
X112242Y43896
X118642
X131942Y37217
X140442Y22996
X140942Y16496
X132442Y6685
X120942Y16496
X105000Y4600
X88242Y18996
X74016Y22346
Y12347
Y3528
X64488
X54488
X44488
X34488
X24488
X155442Y6685
X160442Y16496
X160942Y22996
X154942Y37217
X177942
X178442Y6685
X180442Y16496
X180942Y22996
X200942
X200442Y16496
X201442Y6685
X224442
X220442Y16496
X219942Y22996
X223942Y37217
X200942
X246942
X239958Y22996
X240442Y16496
X247442Y6685
X260442Y16496
X259942Y22996
X279942
X280442Y16496
X270442Y6685
X293442
X305906Y8496
X310042Y15396
X312019Y19496
X306706Y18812
X300442Y16496
X299958Y25365
X311053Y26831
Y29996
X313695Y38488
X308940Y43012
X315942Y21996
X320915Y22095
X325700Y22800
X326000Y26100
X326842Y30496
X332942
X333007Y24327
X330600Y22800
X331842Y13495
X321768Y13496
X321850Y8505
X315942Y4896
X269942Y37217
X336100Y43000
X356500Y38100
X357800Y35100
X355842Y21996
X362288Y24327
X362342Y19496
X368280Y9196
X372534
X376788
X381042
X381078Y15996
Y20996
Y25996
X376458Y29307
Y33524
X370442Y31600
X375244Y44996
X394200Y46732
X396500Y39075
X399400Y35900
X404900Y36117
Y41100
X402200Y43700
X409099Y43602
X412300Y47000
X421099Y46996
X431099
X441099Y46596
X455097Y48917
X388200Y33169
X373942Y3496
X363942
X353942
X339174Y4896
X336842Y13496
X341842
X341000Y22000
X510599Y67096
X502099Y77096
X502737Y102596
X502599Y140496
X512599
X522599
X532599
Y155496
X522599
X512599
X502599
X492599
Y140496
X496899Y189896
X535942Y186496
X457099Y180996
X452599Y155496
X462599
X472599
X482599
Y140496
X472599
X462599
X454099Y135496
X444099Y125496
X434099Y115496
X423000Y110500
X416399Y112900
Y115800
Y118600
Y121500
X421652Y126100
X426600Y130200
X418099Y135390
X408200Y136500
Y140000
X405000
X408200Y129830
X408800Y126100
X392599Y126496
X394200Y129830
Y136100
X390300Y140000
X386101Y136101
Y147453
X397599Y156496
X392599Y161496
X404083
X402599Y151496
X428000Y155496
X445573Y151496
X439446Y144952
X433300Y138900
X393200Y121500
Y118600
Y115800
Y112900
X406150Y107500
Y97500
Y87500
Y77500
Y67500
X404900Y61100
X402200
X399500Y61000
X396531
X391792Y61100
X391599Y66717
X394200Y55840
X412099Y56496
X421099
X431099
X441099Y58096
X454800Y58500
X475099Y54596
X478351Y64486
X472099Y77096
X471334Y102096
X478351Y106863
X386918Y99546
Y89238
Y79980
X372570Y83682
X370742Y77096
X375444Y71094
X367253Y66232
X371809Y60138
X380230Y60928
X361342Y57496
X354520Y76442
X353242Y83296
X349894
X361300Y84200
X363742Y82496
X361000Y90300
Y93500
X345400Y94300
X342942Y95700
X340442Y94300
X337942Y95700
X335300Y94496
X335432Y91700
X338084Y107951
X340800Y110500
X343500Y113000
X340123Y115496
X344754Y106700
X342426Y104000
X350611Y110065
X359442Y108696
X364100Y108600
Y113400
X359442Y113496
X361700Y116900
X360860Y140374
X360842Y148996
X353042Y150396
X351350Y144996
X353842Y142996
X343819Y139476
X340123Y144996
X338084Y134490
X340123Y163296
X339642Y171096
X348942Y173996
X353842Y177796
X353042Y167796
X360446Y171071
X364444Y163296
X374942Y163396
X376800Y160800
X374442Y168512
X371042Y174796
X384842Y173496
X384799Y176996
X389799
X389599Y169996
X384599
X394599Y180996
X394799Y187996
X407099Y187496
Y205996
X417099Y203496
X371042Y199996
X359000Y189000
X351700Y193000
X349800Y195000
X346642Y203496
X383358Y126496
X375935Y102996
X372542Y100096
X341700Y78300
X339642Y73092
X336000Y66400
X330997Y65505
Y69520
Y79225
X330500Y85300
X327900Y87800
X325400Y90300
X323300Y92400
X330900Y95200
X329300Y97000
X327600Y98700
X330700Y100600
X313000Y106700
X310200
X302600Y98800
X293786Y89238
X282300Y87800
X272130Y87472
X262560
X242000Y98904
X222000
X202000
X182000
X186442Y62996
X209442
X232442
X251962
X279942
X293342Y55935
X304536Y58796
X308940
X306036Y63352
X313695Y63496
X315142Y72197
X318903Y76442
X326011Y60512
X324642Y53996
X333007Y57496
X322842Y148396
X322942Y160396
X332942Y177190
X332229Y195000
X323294Y186996
X320773Y188996
X316288Y192996
Y203496
X295942Y200496
X296288Y192496
X286288
X285942Y200496
X276895
X268595
X268942Y192496
X277242
Y181996
X268942
X258942
X248942
X238942
X228942
X218942
X208942
X198942
X188942
X179904
X178942Y200496
X188595
X188942Y192496
X198595Y200496
X208595
X208942Y192496
X218942
X218595Y200496
X226500Y200500
X228942Y192496
X238942
X238595Y200496
X248595
X248942Y192496
X258942
X258595Y200496
X286288Y181996
X296288
X285800Y138700
X285700Y131330
Y127300
X289300Y125300
X289200Y121500
X289000Y117500
X291700Y119500
X285700
Y115200
X287442Y113000
X289300Y129300
Y133400
X291700Y131300
X291600Y127300
X275800Y138700
X264800
X254800
X244800
X234800
X224800
X214800
X204800
X194800
X184800
X174800
X164800
X154800
X144800
X134800
X124800
X114800
X98146Y149804
X90000Y161000
X80000
X70000
X59000
X49000
X39000
X29000
Y129500
X39000
X49000
X72900Y129300
X65469Y98596
X65569Y88896
X66568Y80136
Y69896
X64569Y55896
X49698
X44568Y60868
X46069Y67542
X42169
X43069Y71396
X45568
Y76396
X43069
Y81396
X45568
X46069Y87396
X49068
X43069
X40069
X28998Y88196
Y83196
X26768Y80808
X25769Y76096
Y71096
Y66183
Y60996
Y55996
X38168Y55896
X35315Y76396
X49068
Y99396
X43569
X35568Y98896
X25069Y99396
X55027
X88700Y98500
X98200
X98242Y88896
X88742
X109742Y88743
X109700Y98500
X119242Y93896
Y83896
Y73896
X118642Y63896
X112242
Y53896
X118642
X100142Y55896
X93742
X82042
X140442Y62996
X163442
X161882Y98704
X161942Y185996
X156942Y190996
X151942Y195996
X146942Y200996
X168942Y195996
X49304Y185542
X7400Y176100
X9000Y161000
X19000
X-5300
X-8100
X-10800
X-18000Y160482
X-19000Y149300
X-15700Y145900
X-13000Y142800
X-10800Y137700
X-8100Y140000
X-5300Y142300
X-1000Y129500
X9000
X19000
X-12300Y126800
X-24300
X-35300
X-16300Y135000
X-23700Y146700
X-27698Y156400
X-41200Y154900
X-43400Y146800
X-54200Y180200
X-34300Y184100
X-25500Y178600
X-23000Y201900
X7400Y196100
X9568Y99396
X4569
X14569
X14293Y85148
X8641
X8669Y81096
X8468Y77396
X8768Y73696
X1168Y77396
X2868Y85148
X3568Y60868
X19268Y60996
Y55996
Y50996
Y66183
Y71096
X7400Y216100
X8000Y236500
Y264000
X-10800Y261996
X-13700Y246400
X-23000Y236400
Y211606
X-54200Y251500
X-54400Y303100
X-9300Y309500
X8000Y290000
X9300Y358400
X-31058Y350496
X27003Y336442
X32000Y332000
X37000Y327000
X36721Y310996
X46721Y300996
X51721Y295996
X68442Y296996
X73442Y291996
X78442Y286996
X83442Y281996
X88442Y276996
X93442Y271996
X98442Y266996
X103442Y261996
X108442Y256996
X113442Y251996
X118442Y246996
X126442Y237996
X121942Y225996
X136442Y227996
X131942Y215996
X146442Y217996
X151200Y226049
X158300Y226000
X161942Y219796
X166942Y214796
X171942Y209796
X156942Y207996
X158300Y236000
X151200
X151342Y245996
X158442
Y255996
X151342Y256045
Y265996
X158442
Y285996
X151342
Y295996
X158542
X158442Y305996
X151342
X151825Y325364
X158925
X159000Y334900
X158900Y342900
X150000Y335000
X144747Y334900
X133975Y313496
Y286996
X103975
X105475Y312496
X58442Y306996
X63942Y341000
X76721Y270996
X81721Y265996
X86721Y260996
X91721Y255996
X96721Y250996
X101721Y245996
X106721Y240996
X111942Y235996
X49304Y245542
Y215542
X215642Y219796
X245642
X275642
Y254796
X245642
X215642
X216942Y290496
X214442Y302996
X204442
X194442
X195233Y314996
X204142Y313996
X214142
X224142
X234142
X244142
X254142
X264142
X274142
X284142
X294142
X302442
X302742Y302996
X294442
X284442
X274442
X275442Y291496
X245642Y290496
X244442Y302996
X254442
X224442
X182664Y311000
X188749Y321696
X210142Y356639
X220142
X230142
X250142
X260142
X270142
X280142
X301942Y359496
Y349496
Y339496
Y329996
X311942Y334414
X318142Y334296
Y344996
X311942
Y354414
X318142Y354296
X334542Y332996
X332342Y315396
X332442Y304596
X330942Y280496
X318242Y286296
X318942Y268496
X324942Y265496
X329942Y262496
X324942Y256496
X319942Y256580
X314442
X309442
X309511Y246356
X314511
X320011
X325011Y246271
Y236271
X320011Y236355
X314511
X309511
X325011Y223996
X328942Y220496
X333942Y215996
X315942Y211496
X341342Y212596
X358149Y212613
X354619Y223996
X358142Y230396
X351990Y233380
X343921Y227827
X368256Y223455
X372449Y253853
X361541
X367147Y260996
X367442Y270996
Y280996
X387099Y278496
Y293496
X406999Y290396
Y280396
Y300396
Y310396
Y320396
Y330396
Y340396
Y350396
Y360396
X424599Y354996
Y344996
X438799Y308296
X440399Y295896
X454450Y308496
X464599
X474599
X484599
Y319996
X474599
X464599
X454599
X483717Y285496
X477599Y257496
X462599
X447599
X432599
X409099Y259996
X414599Y239834
X407099Y219496
X418099Y214939
X348787Y256412
X343819Y265796
X336042
X342942Y273496
Y280496
X352908Y290508
X336342Y304596
X336442Y315162
X341942Y332996
X349357Y330274
X341942Y344496
Y354496
X353542Y357596
X356042Y360746
X360142Y360696
Y357596
X369842Y350081
Y328412
X518599Y327996
Y347996
Y357996
X528859
X528599Y347996
X544242Y341995
Y360995
X536410Y330496
X544242Y321995
Y301842
Y285995
X523699Y283996
X511099
X525099Y295896
Y312496
X523699Y256496
X511099
X496599Y229177
X495000Y208996
X535942
X535789Y229177
X507699Y383996
X477099Y396949
X478242Y408696
X464242
X463099Y396996
X448599Y397196
Y407196
X436599Y406996
Y397796
X435269Y377506
X419642Y379996
X413678Y373895
X406499Y370796
X424903Y365196
X410442Y397496
X400442
X390442
X380599Y397490
X370842Y396996
X359693Y394096
X359093Y404626
X353042Y403028
X347943Y399499
X351410Y411996
X342542Y413996
X367262Y415138
X370000Y419500
X365542Y407596
X363700Y372396
X369842
X342542Y373496
X341942Y364496
X329642Y376753
X330188Y379349
X329792Y396603
X330338Y399200
X333242Y413796
X330342Y417196
X320942Y413764
X308942Y417396
X311942Y404578
Y394578
Y384578
Y374496
Y364414
X301942Y379496
Y382496
Y389496
X281089Y388622
X261219Y388615
X241349Y388608
X221478Y388601
X201608Y388594
X199442Y376455
X181590Y377976
X182664Y409996
Y417000
X200572Y419993
X220442Y420000
X240312Y420007
X260182Y420014
X280052Y420022
X172000Y409771
X169242Y402196
X158442Y404512
X144942Y401996
X145000Y410000
X140942Y409996
X141610Y421022
X121740Y421014
X124442Y412894
X127442Y401996
X124442Y394679
Y390996
X127442Y383996
X144942
X145000Y372000
X135759Y368015
X120740
X101000Y367982
X81000Y368000
X61000
X63942Y380996
X52738Y378554
X46721Y372000
X49300Y399000
X42500Y409200
X63942Y405911
X70000Y416800
X82000Y421000
X89685Y400679
X89500Y393000
Y385500
X152428Y377976
X166071Y414500
X8200Y407400
X-7500Y377000
X-31058Y384938
Y368000
T02
X-10014Y66214
Y69561
Y72907
Y76254
Y79600
Y82947
Y86293
Y89640
X-4700
Y86293
Y82947
Y79600
Y76254
Y72907
Y69561
Y66214
T04
X316842Y10996
X346842
T05
X381599Y74496
X391599
Y84496
X381599
Y94496
X391599
Y104496
X381599
Y193996
Y203996
X391599
Y193996
X324942Y132996
X314942
Y122996
X324942
X287442Y92996
X277442
X267442
X257442
X247442
X237442
Y82996
X247442
X257442
X267442
X277442
X287442
X227442
X217442
Y92996
X227442
X207442
Y82996
X197442
Y92996
X187442
Y82996
X177442
Y92996
X167442
Y82996
X157442
X147442
Y92996
X157442
X137442
Y82996
X59069Y93896
X33569Y93396
X59069Y61896
X-33433Y190496
Y200496
Y210496
Y220496
Y230496
Y240496
X91721Y337500
X101721
X111721
Y347500
X101721
X91721
X209442
Y337500
X219442
X229442
Y347500
X239442
Y337500
X249442
Y347500
X259442
Y337500
X269442
Y347500
X279442
Y337500
X314942Y307996
Y297996
X324942
Y307996
X321442Y275000
X219442Y347500
X381598Y343996
Y353996
X391598
Y343996
Y333996
X381598
Y323996
X391598
Y313996
X381598
Y303996
X391598
X350233Y275000
X336442
X381599Y223996
X391599
Y213996
X381599
X381598Y363996
Y373996
X391598
Y363996
X27559Y375953
Y385953
Y395953
Y405953
T06
X44488Y18504
M30
