G04*
G04 #@! TF.GenerationSoftware,Altium Limited,Altium Designer,20.0.13 (296)*
G04*
G04 Layer_Color=16711935*
%FSLAX25Y25*%
%MOIN*%
G70*
G01*
G75*
%ADD10C,0.01000*%
D10*
X-55118Y312126D02*
X-56146Y312059D01*
X-57156Y311858D01*
X-58131Y311527D01*
X-59055Y311071D01*
X-59912Y310499D01*
X-60686Y309820D01*
X-61365Y309045D01*
X-61937Y308189D01*
X-62393Y307265D01*
X-62724Y306290D01*
X-62925Y305280D01*
X-62992Y304252D01*
X-47244Y312126D02*
X-46216Y312193D01*
X-45206Y312394D01*
X-44231Y312725D01*
X-43307Y313181D01*
X-42451Y313753D01*
X-41676Y314432D01*
X-40997Y315207D01*
X-40425Y316063D01*
X-39969Y316987D01*
X-39638Y317962D01*
X-39437Y318972D01*
X-39370Y320000D01*
Y125984D02*
X-39437Y127012D01*
X-39638Y128022D01*
X-39969Y128998D01*
X-40425Y129921D01*
X-40997Y130778D01*
X-41676Y131552D01*
X-42451Y132231D01*
X-43307Y132803D01*
X-44231Y133259D01*
X-45206Y133590D01*
X-46216Y133791D01*
X-47244Y133858D01*
X-62992Y141732D02*
X-62925Y140705D01*
X-62724Y139694D01*
X-62393Y138719D01*
X-61937Y137795D01*
X-61365Y136939D01*
X-60686Y136164D01*
X-59912Y135485D01*
X-59055Y134913D01*
X-58131Y134458D01*
X-57156Y134127D01*
X-56146Y133926D01*
X-55118Y133858D01*
X547244Y409449D02*
X547223Y410451D01*
X547159Y411452D01*
X547053Y412449D01*
X546904Y413441D01*
X546714Y414426D01*
X546482Y415401D01*
X546209Y416366D01*
X545895Y417318D01*
X545541Y418257D01*
X545147Y419179D01*
X544715Y420084D01*
X544244Y420969D01*
X543737Y421834D01*
X543193Y422677D01*
X542614Y423495D01*
X542001Y424289D01*
X541355Y425055D01*
X540676Y425794D01*
X539967Y426503D01*
X539228Y427181D01*
X538462Y427828D01*
X537669Y428441D01*
X536850Y429020D01*
X536007Y429564D01*
X535142Y430071D01*
X534257Y430542D01*
X533352Y430974D01*
X532430Y431367D01*
X531492Y431721D01*
X530539Y432035D01*
X529574Y432309D01*
X528599Y432541D01*
X527614Y432731D01*
X526622Y432879D01*
X525625Y432986D01*
X524625Y433050D01*
X523622Y433071D01*
Y-0D02*
X524625Y21D01*
X525625Y85D01*
X526622Y191D01*
X527614Y340D01*
X528599Y530D01*
X529574Y762D01*
X530539Y1035D01*
X531492Y1349D01*
X532430Y1703D01*
X533352Y2097D01*
X534257Y2529D01*
X535142Y3000D01*
X536007Y3507D01*
X536850Y4051D01*
X537669Y4630D01*
X538462Y5243D01*
X539228Y5890D01*
X539967Y6568D01*
X540676Y7277D01*
X541355Y8016D01*
X542001Y8782D01*
X542614Y9576D01*
X543193Y10394D01*
X543737Y11237D01*
X544244Y12102D01*
X544715Y12987D01*
X545147Y13892D01*
X545541Y14814D01*
X545895Y15753D01*
X546209Y16705D01*
X546482Y17670D01*
X546714Y18645D01*
X546904Y19630D01*
X547053Y20622D01*
X547159Y21619D01*
X547223Y22619D01*
X547244Y23622D01*
X-39370Y23622D02*
X-39349Y22619D01*
X-39285Y21619D01*
X-39179Y20622D01*
X-39030Y19630D01*
X-38840Y18645D01*
X-38608Y17670D01*
X-38335Y16705D01*
X-38021Y15753D01*
X-37667Y14814D01*
X-37273Y13892D01*
X-36841Y12987D01*
X-36370Y12102D01*
X-35863Y11237D01*
X-35319Y10394D01*
X-34740Y9576D01*
X-34127Y8782D01*
X-33480Y8016D01*
X-32802Y7277D01*
X-32093Y6568D01*
X-31354Y5890D01*
X-30588Y5243D01*
X-29794Y4630D01*
X-28976Y4051D01*
X-28133Y3507D01*
X-27268Y3000D01*
X-26383Y2529D01*
X-25478Y2097D01*
X-24556Y1703D01*
X-23618Y1349D01*
X-22665Y1035D01*
X-21700Y762D01*
X-20725Y530D01*
X-19740Y340D01*
X-18748Y191D01*
X-17751Y85D01*
X-16751Y21D01*
X-15748Y0D01*
Y433071D02*
X-16751Y433050D01*
X-17751Y432986D01*
X-18748Y432879D01*
X-19740Y432731D01*
X-20725Y432541D01*
X-21700Y432309D01*
X-22665Y432035D01*
X-23618Y431721D01*
X-24556Y431367D01*
X-25478Y430974D01*
X-26383Y430542D01*
X-27268Y430071D01*
X-28133Y429564D01*
X-28976Y429020D01*
X-29794Y428441D01*
X-30588Y427828D01*
X-31354Y427181D01*
X-32093Y426503D01*
X-32802Y425794D01*
X-33481Y425055D01*
X-34127Y424289D01*
X-34740Y423495D01*
X-35319Y422677D01*
X-35863Y421834D01*
X-36370Y420969D01*
X-36841Y420084D01*
X-37273Y419179D01*
X-37667Y418256D01*
X-38021Y417318D01*
X-38335Y416366D01*
X-38608Y415401D01*
X-38840Y414426D01*
X-39030Y413441D01*
X-39179Y412449D01*
X-39285Y411452D01*
X-39349Y410451D01*
X-39370Y409449D01*
X-55118Y312126D02*
X-47244D01*
X-39370Y23622D02*
Y125984D01*
X-55118Y133858D02*
X-47244D01*
X-39370Y320000D02*
Y409449D01*
X-62992Y304252D02*
X-62992Y141732D01*
X-15748Y433071D02*
X523622D01*
X-15748Y0D02*
X523622Y-0D01*
X547244Y409449D02*
X547244Y23622D01*
M02*
