M48
;Layer_Color=9474304
;FILE_FORMAT=2:5
INCH,TZ
;TYPE=PLATED
T1F00S00C0.01181
T2F00S00C0.01575
T3F00S00C0.02362
T5F00S00C0.03543
%
T01
X153618Y116000
Y121000
Y126000
Y130689
Y136000
X162882Y137000
X172500
X182500
X192500
X202500
X205000Y146000
X196000
X195000Y153000
X185000
X187000Y146000
X179000
X174500Y153097
X167000Y149500
X207500Y153000
X215000
Y146000
X225000
Y153000
X235000
Y146000
X230346Y135576
X230000Y126000
Y116000
X214000
Y121000
Y126000
Y130189
Y135500
X246000Y141000
X252400
Y151000
X246000
X245500Y128000
Y123500
X254500Y122500
X255000Y129000
X265000
X264500Y122500
X274500
X275000Y129000
X285000
X284500Y122500
X294000
X294500Y129000
X304500
X304000Y122500
X312000Y112689
X289000
X266000
X248500Y113000
X265500Y143221
X288500
X311500
X314500Y129000
X314000Y122500
X324000
X324500Y129000
X334500
X334000Y122500
X344000
X344500Y129000
X354500
X354000Y122500
X364000
X364500Y129000
X374516
X374000Y122500
X384000
X384500Y129000
X394500
X394000Y122500
X404000
X404500Y129000
X414500
X414000Y122500
X424000
X424500Y129000
X433516Y131369
X434000Y122500
X437439Y125000
X440264Y124816
X447000Y124899
Y121500
X449500Y128000
X455799Y128045
X460500Y128712
X466388
X466500Y135819
X460612
X454000Y143721
X446079Y144079
X443300Y134331
X458000Y153000
X403500Y143221
X380500
X357500
X334500
X335000Y112689
X358000
X381000
X404000
X427000
X479421Y114500
X482300Y119500
X487500Y127500
X490100
X496349Y127719
X501874Y120000
X502079Y114500
X502500Y111000
X497500
X492500
X487500
X507500
X508579Y120000
X514377
X514500Y126000
Y131000
Y136000
X520500
Y131000
Y126000
Y121000
X521000Y146000
Y152500
X508000Y153000
X505500Y151000
X504400Y141900
X508000Y142000
X490500Y140000
X539500Y153000
X547000
X554500
X564500
X574500
X584500
X600500Y148500
X654000Y171500
X645500Y181500
X646138Y207000
X646000Y246500
X636000
X626000
Y261500
X636000
X646000
X656000
X666000
X676000
Y246500
X666000
X656000
X643800Y284900
X643600Y305400
X616000Y261500
X606000
X596000
X588974Y257500
X584000Y252500
X579000Y247500
X574000Y242500
X570500Y237564
X565500Y242500
Y232500
X563000Y227500
Y225000
Y222500
Y220000
X564500Y216000
X552000Y213500
Y203500
Y193500
Y183500
Y173500
X541500Y174020
X539500Y162500
X547000
X555500
X564500
X574500
X584500
X600500Y163500
X618500Y159000
X621751Y168890
X615500Y181500
X614734Y206500
X616000Y246500
X606000
X597500Y241500
X587500Y231500
X577500Y221500
X552500Y231500
X551200Y235689
X538000Y231500
X533500
X528000
X526342Y239100
X538000Y243000
X534500Y248000
X529500Y253000
X524500Y258000
X520800Y261980
X514370Y268000
X516500Y271500
X513000Y275000
X510500Y279500
X507137Y284000
X520900
X523500Y279500
X528000Y276000
X533000
X538000
X536000Y267500
X541000Y262500
X546000Y257500
X550500Y268500
Y282500
Y301000
X560500Y298500
X561500Y309943
X514000Y294602
X500500Y298000
X492000Y300000
X490500Y296000
X493000Y293000
X488280Y285689
X482618
X473000Y293000
X470000Y296000
X487000Y305000
X482000Y310000
X487000Y270705
X499098Y268098
X489941Y247500
X486500Y247625
X485000Y218000
X490000Y213500
X496349Y217500
X506986Y218472
X514421Y220500
X523000Y226500
X536500Y227500
Y225000
Y222500
Y220000
X535500Y216500
X538000Y195468
X514191Y183138
X515000Y174000
X513000Y172000
X508402Y173487
X510284Y165500
X506500
X502500Y163913
X494946Y163371
X490200Y180000
X486700Y182559
X488858Y188500
X488543Y194500
X502800Y194000
Y197150
X502441Y186000
X506000Y187000
X474000Y182500
X474397Y173602
X473700Y215000
X509039Y235689
X520800Y164264
X456611
X465219Y172980
Y181500
X464000Y192000
X464100Y202241
X467810Y208500
X426000Y209000
X416000
X396000
X376000
X356000
X336000
X316000
X320000Y169000
X343000
X366000
X385520
X413500
X427384Y162319
X435400Y167000
X439500Y163371
X435400Y181500
X458400Y253200
X458300Y267559
X459846Y288000
X468147
X449847
Y298500
X449500Y306500
X459500
X467800
X459846Y298500
X429846
X429500Y306500
X419500
X419846Y298500
X410800
X402500
X402153Y306500
X410454
X392154
X392500Y298500
X382500
X382154Y306500
X372153
X372500Y298500
X362500
X362154Y306500
X352153
X352500Y298500
X342500
X342154Y306500
X332154
X332500Y298500
X322500
X322153Y306500
X312500Y309000
X313462Y288000
X322500
X332500
X342500
X352500
X362500
X372500
X382500
X392500
X402500
X410800
X419846
X429846
X295500Y292000
X290500Y297000
X285500Y302000
X280500Y307000
X203000Y300500
X173000
Y265500
Y235500
X203000
Y265500
X209500Y196196
X219500Y196000
X229500
X239500
Y186000
X230000
X220000
X210000
X209500Y177240
Y167000
X216000Y171000
Y161000
X226000
X236000
Y171000
X245560Y170653
X253000Y171000
Y181000
Y191000
X252400Y161000
X246000
X274000Y169000
X297000
X295882Y208800
X192000Y184500
X189000
X186000
X183000
X186000Y178500
X189000
Y173500
X192000
X186000
Y168500
X189000
Y163500
X186000
X183000
X176000Y166000
X171000Y165000
Y160000
X165669
Y165000
Y170000
X171000
X157740Y170760
Y178240
X159500Y197733
X154000Y196196
X149000
X144000
X140500Y174500
X143000Y157972
Y235500
Y265500
Y300500
X144500Y329500
X143500Y446000
Y462000
X171044Y461000
X182500Y464500
X189500Y466500
X192630Y463993
X197500Y464000
X202500
X207500
X212500
Y458000
X207500
X202500
X197500
X192500
X187500Y459500
X171044Y437000
X177000Y428000
X182000Y423000
X187000Y418000
X192000Y413000
X197000Y408000
X202000Y403000
X207000Y398000
X212000Y393000
X217000Y388000
X222000Y383000
X227000Y378000
X232000Y373000
X237000Y368000
X242000Y363000
X247000Y358000
X252000Y353000
X255000Y360000
X264000
X267500Y354000
X272500Y349000
X277500Y344000
X282500Y339000
X287500Y334000
X292500Y329000
X260500Y327000
X265500Y322000
X255500Y332000
X250500Y337000
X245500Y342000
X240279Y347000
X235279Y352000
X230279Y357000
X225279Y362000
X220279Y367000
X215279Y372000
X210279Y377000
X205279Y382000
X200279Y387000
X195279Y392000
X190279Y397000
X185279Y402000
X180279Y407000
X175279Y412000
X170279Y417000
X165279Y422000
X255000Y420000
X264000
Y410000
X255000
Y400000
X264000
Y390000
X255000
Y380000
X264000
Y370000
X255000Y370049
X251523Y430000
X252900Y439100
X265379Y438800
X275200Y434400
X277000Y430000
X288000
X284000Y440000
X284900Y418500
X298000Y420000
X307700
X308000Y409000
X297000Y410000
X273935Y456350
X253200Y457500
X248200
X243200
X238200
X233200
X228200
Y464500
X233200
X238200
X243200
X248200
X253200
X203000Y330500
X173000
X318000Y409000
X328000
X338000
X348000
X358000
X368000
X378000
X388000
X398000
X408000
X418000
X428000
X436300
X436000Y420000
X427700
X417700
X407700
X397700
X387700
X377700
X367700
X357700
X347700
X337700
X327700
X317700
X336000Y445928
X445500Y445418
X453236
Y435418
X445500
Y425418
X453236
X463500Y421500
Y411500
X453236Y455418
X445500
Y465418
X461900Y466759
X467800Y333500
X471896Y320000
X477000Y315000
X496349Y328484
X494984Y351516
X491930Y359000
X492823Y369461
X491930Y384000
X488779Y402236
X481449Y400000
X474397Y399500
Y410662
X478500Y410000
X481500
Y420000
X478500
X473500Y421500
X486000Y417462
X496000Y407500
X509500Y420000
X510720Y441000
X504350Y448500
Y451650
X499500
X497000Y448500
X505800Y463200
X513100Y463300
X479357Y462493
X549900Y461800
X550400Y451400
Y441400
Y431400
Y421400
Y411400
Y401400
Y391400
Y381400
Y371400
X552500Y355000
X531685Y356000
X521227Y352500
X514000Y369528
X514227Y384500
X530500
Y369500
X476500Y364000
X475988Y378000
X586800Y386900
X585200Y399300
X600850Y399500
X611000
X621000
Y411000
X611000
X601000
X571000Y436000
Y446000
X571304Y456200
X560500Y464500
X581670Y468510
X576000Y352500
X591000
X606000
X621000
X558000Y334839
X550500Y314500
X643500Y324181
X657500Y362500
Y375000
X670100
X674000Y367500
X670100Y362500
X686000Y367500
X694000Y374000
Y389846
Y410000
Y430000
X693252Y449000
X675260
X675000Y439000
X665000
Y449000
Y419000
X678000Y404347
X679500Y382000
X630118Y376500
X631000Y399500
Y411000
X654100Y475000
X623500Y487953
Y499500
X609500
Y488000
X595000Y488200
Y498200
X583000Y498000
Y488800
X567000Y471000
X524000Y488494
X513100Y487900
X507000Y498800
X508000Y502268
X495260Y497621
X491500Y494032
X486283Y491248
X489868Y503000
X481000Y505000
X471000Y504769
Y493063
X498151Y485100
X466000Y485400
X465942Y475100
X445500Y475500
Y485500
Y495500
X455000Y498500
X459650Y496000
X463000Y493000
Y504769
X449650Y506142
X314522Y507000
X307500Y503000
X294000Y495200
X274000Y493683
Y478211
X270500Y469147
X280000Y469000
X246000Y470000
Y480000
Y490000
Y499899
X235000Y500000
Y490000
Y480000
Y470000
X186000
X184500Y474500
Y479500
X178500
Y474500
X178600Y469500
X181000Y500828
X171500Y512000
X143500Y476000
T02
X129532Y163287
Y166634
Y169980
Y173327
Y176673
Y180020
Y183366
Y186713
X134846
Y183366
Y180020
Y176673
Y173327
Y169980
Y166634
Y163287
T03
X452400Y114500
Y119500
X457400Y114500
X462400
Y119500
X467400
Y114500
X472400
Y119500
T05
X525000Y180500
X535000
Y190500
X525000
Y200500
X535000
Y210500
X525000
Y289000
X535000
Y299000
X525000
Y309000
X535000
X458618Y235689
X448618
Y225689
X458618
X421000Y199000
X411000
X401000
X391000
X381000
X371000
Y189000
X381000
X391000
X401000
X411000
X421000
X361000
X351000
Y199000
X361000
X341000
Y189000
X331000
Y199000
X321000
Y189000
X311000
Y199000
X301000
Y189000
X291000
X281000
Y199000
X291000
X271000
Y189000
X202000Y191000
Y159000
X226200Y442000
X236200
X246200
Y452000
X236200
X226200
X343000
Y442000
X353000
X363000
Y452000
X373000
Y442000
X383000
Y452000
X393000
Y442000
X403000
Y452000
X413000
Y442000
X448618Y415689
X458618
Y405689
X448618
X460000Y371000
X463723Y344000
X353000Y452000
X525000Y455000
Y465000
X535000
Y455000
Y445000
X525000
Y435000
X535000
Y425000
X525000
Y415000
X535000
Y405000
X525000
Y395000
X535000
X484877Y371000
X525000Y319000
X535000
X170000Y475000
Y485000
Y495000
Y505000
M30
