G04*
G04 #@! TF.GenerationSoftware,Altium Limited,Altium Designer,19.1.8 (144)*
G04*
G04 Layer_Color=16711935*
%FSLAX25Y25*%
%MOIN*%
G70*
G01*
G75*
%ADD12C,0.01000*%
D12*
X680802Y495763D02*
X680781Y496766D01*
X680717Y497766D01*
X680611Y498763D01*
X680463Y499755D01*
X680272Y500740D01*
X680040Y501715D01*
X679767Y502680D01*
X679453Y503632D01*
X679099Y504571D01*
X678705Y505493D01*
X678273Y506398D01*
X677803Y507283D01*
X677295Y508148D01*
X676751Y508991D01*
X676172Y509809D01*
X675559Y510603D01*
X674913Y511370D01*
X674234Y512108D01*
X673525Y512817D01*
X672787Y513495D01*
X672020Y514142D01*
X671227Y514755D01*
X670408Y515334D01*
X669565Y515878D01*
X668701Y516385D01*
X667815Y516856D01*
X666910Y517288D01*
X665988Y517682D01*
X665050Y518036D01*
X664097Y518350D01*
X663132Y518623D01*
X662157Y518855D01*
X661172Y519045D01*
X660181Y519194D01*
X659184Y519300D01*
X658183Y519364D01*
X657180Y519385D01*
Y106004D02*
X658183Y106025D01*
X659184Y106089D01*
X660181Y106195D01*
X661172Y106344D01*
X662157Y106534D01*
X663132Y106766D01*
X664097Y107039D01*
X665050Y107353D01*
X665988Y107707D01*
X666910Y108101D01*
X667815Y108533D01*
X668701Y109004D01*
X669565Y109511D01*
X670408Y110055D01*
X671227Y110634D01*
X672020Y111247D01*
X672787Y111894D01*
X673525Y112572D01*
X674234Y113281D01*
X674913Y114020D01*
X675559Y114786D01*
X676172Y115580D01*
X676751Y116398D01*
X677295Y117241D01*
X677803Y118106D01*
X678273Y118991D01*
X678705Y119896D01*
X679099Y120818D01*
X679453Y121757D01*
X679767Y122709D01*
X680040Y123674D01*
X680272Y124649D01*
X680463Y125634D01*
X680611Y126626D01*
X680717Y127623D01*
X680781Y128623D01*
X680802Y129626D01*
X109936Y129621D02*
X109958Y128619D01*
X110021Y127618D01*
X110127Y126621D01*
X110276Y125629D01*
X110466Y124645D01*
X110698Y123669D01*
X110972Y122704D01*
X111286Y121752D01*
X111640Y120814D01*
X112033Y119891D01*
X112466Y118986D01*
X112936Y118101D01*
X113443Y117236D01*
X113987Y116393D01*
X114566Y115575D01*
X115180Y114781D01*
X115826Y114015D01*
X116504Y113276D01*
X117213Y112567D01*
X117952Y111889D01*
X118718Y111242D01*
X119512Y110629D01*
X120331Y110050D01*
X121173Y109506D01*
X122038Y108999D01*
X122924Y108528D01*
X123828Y108096D01*
X124751Y107703D01*
X125689Y107349D01*
X126641Y107035D01*
X127606Y106761D01*
X128582Y106529D01*
X129566Y106339D01*
X130558Y106191D01*
X131555Y106084D01*
X132556Y106020D01*
X133558Y105999D01*
Y519385D02*
X132556Y519364D01*
X131555Y519300D01*
X130558Y519194D01*
X129566Y519045D01*
X128582Y518855D01*
X127606Y518623D01*
X126641Y518350D01*
X125689Y518036D01*
X124751Y517682D01*
X123828Y517288D01*
X122924Y516856D01*
X122038Y516385D01*
X121173Y515878D01*
X120331Y515334D01*
X119512Y514755D01*
X118718Y514142D01*
X117952Y513495D01*
X117213Y512817D01*
X116504Y512108D01*
X115826Y511370D01*
X115180Y510603D01*
X114566Y509809D01*
X113987Y508991D01*
X113443Y508148D01*
X112936Y507283D01*
X112466Y506398D01*
X112033Y505493D01*
X111640Y504571D01*
X111286Y503632D01*
X110972Y502680D01*
X110698Y501715D01*
X110466Y500740D01*
X110276Y499755D01*
X110127Y498763D01*
X110021Y497766D01*
X109958Y496766D01*
X109936Y495763D01*
X133558Y519390D02*
X657180Y519390D01*
X133558Y106004D02*
X657180Y106004D01*
X680802Y129626D02*
Y495763D01*
X109933Y129626D02*
X109933Y495768D01*
M02*
