G04*
G04 #@! TF.GenerationSoftware,Altium Limited,Altium Designer,18.1.6 (161)*
G04*
G04 Layer_Physical_Order=1*
G04 Layer_Color=255*
%FSLAX25Y25*%
%MOIN*%
G70*
G01*
G75*
%ADD14C,0.01000*%
%ADD20O,0.07087X0.01772*%
%ADD21R,0.02362X0.02362*%
%ADD22R,0.02362X0.02362*%
%ADD23R,0.06299X0.01575*%
G04:AMPARAMS|DCode=24|XSize=15.75mil|YSize=33.47mil|CornerRadius=3.94mil|HoleSize=0mil|Usage=FLASHONLY|Rotation=180.000|XOffset=0mil|YOffset=0mil|HoleType=Round|Shape=RoundedRectangle|*
%AMROUNDEDRECTD24*
21,1,0.01575,0.02559,0,0,180.0*
21,1,0.00787,0.03347,0,0,180.0*
1,1,0.00787,-0.00394,0.01280*
1,1,0.00787,0.00394,0.01280*
1,1,0.00787,0.00394,-0.01280*
1,1,0.00787,-0.00394,-0.01280*
%
%ADD24ROUNDEDRECTD24*%
%ADD25R,0.05118X0.05906*%
G04:AMPARAMS|DCode=26|XSize=43.31mil|YSize=39.37mil|CornerRadius=0mil|HoleSize=0mil|Usage=FLASHONLY|Rotation=150.000|XOffset=0mil|YOffset=0mil|HoleType=Round|Shape=Rectangle|*
%AMROTATEDRECTD26*
4,1,4,0.02859,0.00622,0.00891,-0.02788,-0.02859,-0.00622,-0.00891,0.02788,0.02859,0.00622,0.0*
%
%ADD26ROTATEDRECTD26*%

G04:AMPARAMS|DCode=27|XSize=43.31mil|YSize=39.37mil|CornerRadius=0mil|HoleSize=0mil|Usage=FLASHONLY|Rotation=120.000|XOffset=0mil|YOffset=0mil|HoleType=Round|Shape=Rectangle|*
%AMROTATEDRECTD27*
4,1,4,0.02788,-0.00891,-0.00622,-0.02859,-0.02788,0.00891,0.00622,0.02859,0.02788,-0.00891,0.0*
%
%ADD27ROTATEDRECTD27*%

%ADD28R,0.03937X0.04331*%
G04:AMPARAMS|DCode=29|XSize=43.31mil|YSize=39.37mil|CornerRadius=0mil|HoleSize=0mil|Usage=FLASHONLY|Rotation=60.000|XOffset=0mil|YOffset=0mil|HoleType=Round|Shape=Rectangle|*
%AMROTATEDRECTD29*
4,1,4,0.00622,-0.02859,-0.02788,-0.00891,-0.00622,0.02859,0.02788,0.00891,0.00622,-0.02859,0.0*
%
%ADD29ROTATEDRECTD29*%

G04:AMPARAMS|DCode=30|XSize=43.31mil|YSize=39.37mil|CornerRadius=0mil|HoleSize=0mil|Usage=FLASHONLY|Rotation=30.000|XOffset=0mil|YOffset=0mil|HoleType=Round|Shape=Rectangle|*
%AMROTATEDRECTD30*
4,1,4,-0.00891,-0.02788,-0.02859,0.00622,0.00891,0.02788,0.02859,-0.00622,-0.00891,-0.02788,0.0*
%
%ADD30ROTATEDRECTD30*%

%ADD31R,0.04331X0.03937*%
%ADD32R,0.10630X0.06299*%
G04:AMPARAMS|DCode=33|XSize=15.75mil|YSize=33.47mil|CornerRadius=3.94mil|HoleSize=0mil|Usage=FLASHONLY|Rotation=270.000|XOffset=0mil|YOffset=0mil|HoleType=Round|Shape=RoundedRectangle|*
%AMROUNDEDRECTD33*
21,1,0.01575,0.02559,0,0,270.0*
21,1,0.00787,0.03347,0,0,270.0*
1,1,0.00787,-0.01280,-0.00394*
1,1,0.00787,-0.01280,0.00394*
1,1,0.00787,0.01280,0.00394*
1,1,0.00787,0.01280,-0.00394*
%
%ADD33ROUNDEDRECTD33*%
%ADD34O,0.02165X0.06496*%
%ADD35O,0.06496X0.02165*%
%ADD36R,0.03000X0.04000*%
%ADD37R,0.04000X0.03000*%
%ADD38R,0.04724X0.05512*%
%ADD68R,0.05906X0.05906*%
%ADD69C,0.05906*%
%ADD70C,0.06000*%
%ADD71O,0.02559X0.02441*%
%ADD72O,0.09449X0.03543*%
%ADD73O,0.06693X0.03543*%
%ADD74C,0.05906*%
%ADD75R,0.05906X0.05906*%
%ADD76R,0.03780X0.03780*%
%ADD77C,0.03780*%
%ADD78C,0.01968*%
D14*
X617004Y233970D02*
X616177Y233390D01*
X615362Y232792D01*
X614561Y232177D01*
X613774Y231543D01*
X613000Y230893D01*
X612241Y230226D01*
X611497Y229543D01*
X610769Y228843D01*
X610055Y228127D01*
X609358Y227396D01*
X608677Y226650D01*
X608012Y225889D01*
X607364Y225114D01*
X606734Y224324D01*
X606120Y223521D01*
X605525Y222705D01*
X604948Y221876D01*
X604389Y221034D01*
X603849Y220180D01*
X603327Y219315D01*
X602825Y218438D01*
X602342Y217551D01*
X601878Y216653D01*
X601435Y215745D01*
X601011Y214828D01*
X600608Y213901D01*
X600225Y212966D01*
X599863Y212023D01*
X599522Y211072D01*
X599201Y210114D01*
X598902Y209149D01*
X598624Y208177D01*
X598367Y207200D01*
X598132Y206218D01*
X597919Y205230D01*
X597727Y204238D01*
X597557Y203242D01*
X597409Y202242D01*
X597283Y201240D01*
X597179Y200235D01*
X670365Y183258D02*
X670772Y184172D01*
X671149Y185099D01*
X671495Y186038D01*
X671809Y186987D01*
X672092Y187947D01*
X672343Y188915D01*
X672561Y189891D01*
X672748Y190874D01*
X672901Y191862D01*
X673022Y192855D01*
X673109Y193852D01*
X673164Y194851D01*
X673186Y195851D01*
X673174Y196851D01*
X673129Y197850D01*
X673052Y198847D01*
X672941Y199841D01*
X672797Y200831D01*
X672620Y201816D01*
X672411Y202794D01*
X672170Y203765D01*
X671897Y204727D01*
X671592Y205680D01*
X671255Y206622D01*
X670888Y207552D01*
X670490Y208470D01*
X670062Y209374D01*
X669604Y210263D01*
X669116Y211137D01*
X668601Y211994D01*
X668057Y212833D01*
X667485Y213654D01*
X666887Y214456D01*
X666262Y215237D01*
X665612Y215997D01*
X664937Y216736D01*
X664238Y217451D01*
X663516Y218143D01*
X662771Y218811D01*
X662004Y219453D01*
X661216Y220070D01*
X660409Y220660D01*
X659582Y221224D01*
X658737Y221759D01*
X657875Y222266D01*
X656997Y222745D01*
X656103Y223194D01*
X655195Y223613D01*
X654273Y224002D01*
X653339Y224360D01*
X652394Y224687D01*
X651438Y224983D01*
X650473Y225246D01*
X649500Y225478D01*
X648520Y225677D01*
X647534Y225844D01*
X646542Y225977D01*
X645547Y226078D01*
X644549Y226146D01*
X643549Y226181D01*
X642549Y226183D01*
X641549Y226151D01*
X640551Y226087D01*
X639556Y225989D01*
X638564Y225858D01*
X637577Y225695D01*
X636596Y225499D01*
X635622Y225271D01*
X634656Y225010D01*
X633700Y224718D01*
X632753Y224394D01*
X631818Y224039D01*
X630895Y223653D01*
X629986Y223236D01*
X629090Y222790D01*
X628210Y222315D01*
X627347Y221810D01*
X626500Y221277D01*
X625672Y220717D01*
X679165Y170939D02*
X679727Y171769D01*
X680270Y172612D01*
X680793Y173468D01*
X681296Y174335D01*
X681780Y175213D01*
X682243Y176102D01*
X682687Y177001D01*
X683109Y177910D01*
X683511Y178829D01*
X683892Y179756D01*
X684251Y180692D01*
X684589Y181636D01*
X684906Y182587D01*
X685200Y183545D01*
X685473Y184510D01*
X685724Y185480D01*
X685953Y186457D01*
X686159Y187438D01*
X686343Y188423D01*
X686504Y189413D01*
X686643Y190406D01*
X686759Y191401D01*
X686853Y192400D01*
X686923Y193400D01*
X686971Y194401D01*
X686996Y195403D01*
X686998Y196406D01*
X686977Y197408D01*
X686934Y198410D01*
X686868Y199410D01*
X686779Y200409D01*
X686667Y201405D01*
X686532Y202398D01*
X686375Y203389D01*
X686196Y204375D01*
X685994Y205357D01*
X685769Y206334D01*
X685523Y207306D01*
X685254Y208272D01*
X684964Y209231D01*
X684651Y210184D01*
X684317Y211129D01*
X683962Y212067D01*
X683585Y212996D01*
X683187Y213916D01*
X682769Y214827D01*
X672916Y209929D02*
X672473Y210844D01*
X672001Y211746D01*
X671502Y212632D01*
X670976Y213502D01*
X670424Y214356D01*
X669845Y215192D01*
X669241Y216010D01*
X668612Y216809D01*
X667959Y217588D01*
X667282Y218347D01*
X666581Y219085D01*
X665859Y219800D01*
X665115Y220494D01*
X664350Y221163D01*
X663564Y221809D01*
X662759Y222431D01*
X661935Y223027D01*
X661094Y223598D01*
X660235Y224142D01*
X659359Y224660D01*
X658468Y225150D01*
X657563Y225613D01*
X656643Y226048D01*
X601345Y176445D02*
X601780Y175545D01*
X602234Y174654D01*
X602707Y173773D01*
X603200Y172903D01*
X603711Y172044D01*
X604241Y171196D01*
X604789Y170359D01*
X605355Y169535D01*
X605939Y168723D01*
X606540Y167925D01*
X607159Y167139D01*
X607795Y166367D01*
X608447Y165609D01*
X609115Y164866D01*
X609800Y164137D01*
X610500Y163423D01*
X611215Y162724D01*
X611946Y162042D01*
X612691Y161375D01*
X613451Y160724D01*
X614224Y160091D01*
X615011Y159474D01*
X615811Y158874D01*
X616624Y158292D01*
X617450Y157728D01*
X618288Y157182D01*
X619137Y156654D01*
X619997Y156145D01*
X620869Y155655D01*
X621751Y155183D01*
X622643Y154731D01*
X618283Y213328D02*
X617720Y212496D01*
X617185Y211646D01*
X616679Y210778D01*
X616202Y209894D01*
X615754Y208995D01*
X615337Y208082D01*
X614951Y207154D01*
X614595Y206215D01*
X614271Y205264D01*
X613978Y204303D01*
X613718Y203333D01*
X613490Y202355D01*
X613295Y201370D01*
X613133Y200378D01*
X613004Y199382D01*
X612908Y198382D01*
X612846Y197380D01*
X612816Y196376D01*
X612820Y195371D01*
X612858Y194368D01*
X612929Y193366D01*
X613033Y192367D01*
X613171Y191372D01*
X613341Y190382D01*
X613545Y189398D01*
X613781Y188422D01*
X614049Y187454D01*
X614349Y186495D01*
X614681Y185547D01*
X615045Y184611D01*
X615439Y183687D01*
X615864Y182777D01*
X616319Y181881D01*
X616804Y181001D01*
X617317Y180138D01*
X617859Y179292D01*
X618429Y178465D01*
X619026Y177657D01*
X619650Y176870D01*
X620299Y176104D01*
X620974Y175359D01*
X621672Y174638D01*
X622395Y173940D01*
X623140Y173267D01*
X623908Y172619D01*
X624696Y171996D01*
X625505Y171401D01*
X626333Y170832D01*
X627180Y170292D01*
X628044Y169780D01*
X628925Y169296D01*
X629821Y168843D01*
X630732Y168420D01*
X631656Y168027D01*
X632593Y167665D01*
X633542Y167334D01*
X634501Y167035D01*
X635469Y166769D01*
X636446Y166534D01*
X637430Y166332D01*
X638420Y166163D01*
X639415Y166028D01*
X640414Y165925D01*
X641416Y165856D01*
X642420Y165820D01*
X643425Y165817D01*
X644429Y165848D01*
X645431Y165912D01*
X646431Y166009D01*
X647427Y166140D01*
X648418Y166304D01*
X649403Y166501D01*
X650381Y166730D01*
X651350Y166992D01*
X652311Y167286D01*
X653261Y167611D01*
X654200Y167969D01*
X655126Y168357D01*
X656039Y168775D01*
X656938Y169224D01*
X657821Y169703D01*
X658688Y170211D01*
X659537Y170747D01*
X660368Y171311D01*
X646361Y150106D02*
X647359Y150190D01*
X648355Y150296D01*
X649348Y150423D01*
X650339Y150572D01*
X651326Y150743D01*
X652309Y150935D01*
X653287Y151148D01*
X654261Y151383D01*
X655229Y151638D01*
X656192Y151915D01*
X657148Y152212D01*
X658098Y152531D01*
X659040Y152870D01*
X659975Y153229D01*
X660902Y153609D01*
X661820Y154008D01*
X662730Y154428D01*
X663630Y154867D01*
X664520Y155326D01*
X665400Y155804D01*
X666270Y156301D01*
X667128Y156816D01*
X667976Y157351D01*
X668811Y157904D01*
X669634Y158474D01*
X670444Y159063D01*
X671242Y159669D01*
X672025Y160292D01*
X672796Y160932D01*
X673552Y161589D01*
X674294Y162262D01*
X675020Y162951D01*
X675732Y163656D01*
X676428Y164376D01*
X677109Y165111D01*
X677773Y165861D01*
X678420Y166625D01*
X679051Y167403D01*
X679665Y168194D01*
X680262Y168999D01*
X680841Y169816D01*
X681401Y170646D01*
X681944Y171487D01*
X682469Y172341D01*
X682974Y173205D01*
X683461Y174081D01*
X683928Y174966D01*
X684376Y175862D01*
X684805Y176767D01*
X685213Y177682D01*
X685602Y178605D01*
X685970Y179536D01*
X686319Y180475D01*
X686646Y181422D01*
X686953Y182375D01*
X687239Y183335D01*
X687504Y184301D01*
X687749Y185272D01*
X687971Y186249D01*
X688173Y187230D01*
X688353Y188215D01*
X688512Y189204D01*
X688649Y190196D01*
X688764Y191191D01*
X688858Y192188D01*
X688931Y193187D01*
X688981Y194187D01*
X689009Y195188D01*
X689016Y196190D01*
X689001Y197191D01*
X688964Y198192D01*
X688906Y199192D01*
X688825Y200190D01*
X688723Y201187D01*
X688600Y202181D01*
X688454Y203171D01*
X688287Y204159D01*
X688099Y205143D01*
X687889Y206122D01*
X687659Y207097D01*
X687406Y208066D01*
X687133Y209030D01*
X686839Y209987D01*
X686525Y210938D01*
X686189Y211881D01*
X685833Y212818D01*
X685457Y213746D01*
X685061Y214666D01*
X684645Y215577D01*
X684209Y216478D01*
X683753Y217370D01*
X683279Y218252D01*
X682785Y219124D01*
X682272Y219984D01*
X681741Y220833D01*
X681191Y221670D01*
X680623Y222495D01*
X680038Y223308D01*
X679435Y224108D01*
X678814Y224894D01*
X678177Y225666D01*
X677523Y226425D01*
X676853Y227169D01*
X676166Y227899D01*
X675464Y228613D01*
X674747Y229312D01*
X674014Y229995D01*
X673267Y230662D01*
X672506Y231312D01*
X671730Y231946D01*
X670941Y232563D01*
X670139Y233162D01*
X669323Y233744D01*
X668496Y234308D01*
X667656Y234854D01*
X666804Y235381D01*
X665942Y235890D01*
X665068Y236380D01*
X664184Y236850D01*
X663290Y237302D01*
X662386Y237734D01*
X661474Y238146D01*
X660552Y238538D01*
X659622Y238910D01*
X658684Y239261D01*
X657739Y239592D01*
X656787Y239903D01*
X655828Y240192D01*
X654863Y240461D01*
X653893Y240709D01*
X652917Y240935D01*
X651937Y241141D01*
X650952Y241324D01*
X649964Y241487D01*
X648972Y241627D01*
X647978Y241746D01*
X646981Y241844D01*
X645982Y241920D01*
X644982Y241974D01*
X643981Y242006D01*
X642980Y242017D01*
X641978Y242005D01*
X640977Y241972D01*
X639977Y241917D01*
X638978Y241841D01*
X637982Y241742D01*
X636987Y241622D01*
X635996Y241480D01*
X635008Y241317D01*
X634023Y241132D01*
X633043Y240927D01*
X632068Y240699D01*
X631098Y240451D01*
X630133Y240181D01*
X629175Y239891D01*
X628223Y239579D01*
X627278Y239247D01*
X626340Y238895D01*
X625411Y238522D01*
X624489Y238129D01*
X623577Y237716D01*
X587882Y228571D02*
Y233450D01*
X581169Y221857D02*
X587882Y228571D01*
X574593Y221857D02*
X581169D01*
X572441Y224009D02*
X574593Y221857D01*
X572441Y224009D02*
Y228571D01*
X571429D02*
X572441D01*
X566550Y233450D02*
X571429Y228571D01*
X564118Y233450D02*
X566550D01*
X585579Y236600D02*
X587882D01*
X580979Y232000D02*
X585579Y236600D01*
X574450Y232000D02*
X580979D01*
X572441Y234009D02*
X574450Y232000D01*
X572441Y234009D02*
Y237429D01*
X568612D02*
X572441D01*
X567783Y236600D02*
X568612Y237429D01*
X564118Y236600D02*
X567783D01*
X577559Y242899D02*
X587882D01*
X564118D02*
X577559D01*
Y237429D02*
Y242899D01*
X585750Y239750D02*
X587882D01*
X580021Y234021D02*
X585750Y239750D01*
X576000Y234021D02*
X580021D01*
X575000Y235021D02*
X576000Y234021D01*
X575000Y235021D02*
Y237429D01*
Y239750D01*
X573850Y240899D02*
X575000Y239750D01*
X568899Y240899D02*
X573850D01*
X567750Y239750D02*
X568899Y240899D01*
X564118Y239750D02*
X567750D01*
X621102Y227236D02*
X625672Y220717D01*
X674236Y174102D02*
X679165Y170939D01*
X673070Y193352D02*
X676101Y193085D01*
X645648Y226070D02*
X646347Y234000D01*
X670365Y183258D02*
X677582Y179898D01*
X617004Y233970D02*
X621238Y227454D01*
X601575Y216036D02*
X608600Y212459D01*
X597179Y200235D02*
X605000Y199547D01*
X597163Y200237D02*
X597179Y200235D01*
X677567Y212132D02*
X682769Y214827D01*
X676862Y211767D02*
X677567Y212132D01*
X672916Y209929D02*
X676862Y211767D01*
X656643Y226048D02*
X659102Y230582D01*
X672915Y209929D02*
X672916Y209929D01*
X608481Y179776D02*
X608718Y179898D01*
X601645Y176245D02*
X608481Y179776D01*
X601632Y176238D02*
X601645Y176245D01*
X622964Y154575D02*
X626541Y161600D01*
X660368Y171311D02*
Y171311D01*
Y171311D02*
X664938Y164792D01*
X665098Y164564D01*
X621102Y164764D02*
X625672Y171283D01*
X639653Y158000D02*
X640352Y165930D01*
X611764Y217898D02*
X618283Y213328D01*
X605000Y192654D02*
X612930Y193352D01*
X611764Y174102D02*
X618283Y178672D01*
X681000Y199346D02*
X686634Y200092D01*
X676862Y211767D02*
X676862Y211767D01*
X639639Y241894D02*
X640054Y234021D01*
X623577Y237715D02*
X626898Y230582D01*
X674454Y217562D02*
X681065Y221857D01*
X664898Y227236D02*
X669415Y233678D01*
X645946Y157979D02*
X646361Y150106D01*
X659102Y161418D02*
X662423Y154285D01*
X676101Y193085D02*
X681000Y192654D01*
X235354Y458850D02*
X240398D01*
X232618Y456291D02*
X240398D01*
X235354Y453732D02*
X240398D01*
X232618Y461410D02*
X240398D01*
X235354Y463969D02*
X240398D01*
X232618Y471646D02*
X240398D01*
X232618Y466528D02*
X240398D01*
X235354Y469087D02*
X240398D01*
X281390Y479988D02*
X281539Y480138D01*
X245118Y453039D02*
Y483660D01*
X263148Y501689D01*
X247118Y454689D02*
Y482831D01*
X261976Y497689D01*
X249118Y458189D02*
Y482003D01*
X262805Y495689D01*
X349272D01*
X251118Y459189D02*
Y481174D01*
X263633Y493689D01*
X362272D01*
X253118Y462189D02*
Y480346D01*
X263961Y491189D01*
X374772D01*
X255118Y465189D02*
Y479517D01*
X264790Y489189D01*
X387772D01*
X257118Y478689D02*
X265118Y486689D01*
X268118Y478689D02*
X273618Y484189D01*
X268118Y470189D02*
Y478689D01*
X267016Y469087D02*
X268118Y470189D01*
X262839Y469087D02*
X267016D01*
X257118Y467604D02*
Y478689D01*
Y467604D02*
X258195Y466528D01*
X262839D01*
X255118Y465189D02*
X256339Y463969D01*
X262839D01*
X253118Y462189D02*
X253898Y461410D01*
X262839D01*
X251118Y459189D02*
X251457Y458850D01*
X262839D01*
X249118Y458189D02*
X251016Y456291D01*
X262839D01*
X246984Y451173D02*
X262839D01*
X245118Y453039D02*
X246984Y451173D01*
X248075Y453732D02*
X262839D01*
X247118Y454689D02*
X248075Y453732D01*
X261976Y497689D02*
X336272D01*
X263148Y501689D02*
X325272D01*
X281390Y465339D02*
X285118D01*
X281390Y455890D02*
X285118D01*
X281390Y459039D02*
X285118D01*
X281390Y462189D02*
X285118D01*
X281390Y465339D02*
X281539Y465189D01*
X281390Y470689D02*
X285118D01*
X281390Y473839D02*
X285118D01*
X281390Y476988D02*
X285118D01*
X281539Y480138D02*
X285118D01*
X303618Y455890D02*
X306618D01*
X297917D02*
X303618D01*
Y459039D02*
X306618D01*
X302477D02*
X303618D01*
Y462189D02*
X306618D01*
X299547D02*
X303618D01*
Y465339D02*
X306618D01*
X302477D02*
X303618D01*
Y470689D02*
X306618D01*
X298118D02*
X303618D01*
Y473839D02*
X306618D01*
X302969D02*
X303618D01*
Y476988D02*
X306618D01*
X299547D02*
X303618D01*
Y480138D02*
X306618D01*
X302827D02*
X303618D01*
X457772Y138850D02*
X457969Y139047D01*
X457772Y132878D02*
Y138850D01*
X464268Y147709D02*
X464465Y147906D01*
Y154378D01*
X469492Y144004D02*
X473583D01*
X468618Y144878D02*
X469492Y144004D01*
X468618Y144878D02*
Y158378D01*
X467441Y159555D02*
X468618Y158378D01*
X464465Y159555D02*
X467441D01*
X457772Y154378D02*
Y159555D01*
Y154378D02*
X457969Y154181D01*
Y147709D02*
Y154181D01*
X466075Y140854D02*
X473583D01*
X464268Y139047D02*
X466075Y140854D01*
X464268Y139047D02*
X464465Y138850D01*
Y132878D02*
Y138850D01*
X273618Y484189D02*
X412772D01*
X430272Y501689D01*
X265118Y486689D02*
X400272D01*
X415272Y501689D01*
X387772Y489189D02*
X400272Y501689D01*
X374772Y491189D02*
X385272Y501689D01*
X362272Y493689D02*
X370272Y501689D01*
X349272Y495689D02*
X355272Y501689D01*
X336272Y497689D02*
X340272Y501689D01*
X387669Y480138D02*
X416118Y451689D01*
X311736Y480138D02*
X387669D01*
X380819Y476988D02*
X406118Y451689D01*
X311736Y476988D02*
X380819D01*
X373969Y473839D02*
X396118Y451689D01*
X311736Y473839D02*
X373969D01*
X367118Y470689D02*
X386118Y451689D01*
X311736Y470689D02*
X367118D01*
X362469Y465339D02*
X376118Y451689D01*
X311736Y465339D02*
X362469D01*
X311736Y462189D02*
X356118D01*
X366118Y451689D02*
Y452189D01*
X356118Y462189D02*
X366118Y452189D01*
X348768Y459039D02*
X356118Y451689D01*
X311736Y459039D02*
X348768D01*
X345618Y451689D02*
X346118D01*
X341417Y455890D02*
X345618Y451689D01*
X311736Y455890D02*
X341417D01*
X294177Y459630D02*
X297917Y455890D01*
X290689Y459630D02*
X294177D01*
X294378Y474429D02*
X298118Y470689D01*
X290689Y474429D02*
X294378D01*
X301886Y459630D02*
X302477Y459039D01*
X299547Y459630D02*
X301886D01*
Y464748D02*
X302477Y465339D01*
X299547Y464748D02*
X301886D01*
X302236Y479547D02*
X302827Y480138D01*
X299547Y479547D02*
X302236D01*
X473118Y263173D02*
X484732D01*
X470559Y265732D02*
X473118Y263173D01*
X467689Y265732D02*
X470559D01*
X447937Y260539D02*
X451504D01*
X413618Y226220D02*
X447937Y260539D01*
X413618Y198689D02*
Y226220D01*
X436768Y266839D02*
X451504D01*
X373618Y203689D02*
X436768Y266839D01*
X373618Y198689D02*
Y203689D01*
X404201Y274272D02*
X451504D01*
X333618Y203689D02*
X404201Y274272D01*
X333618Y198689D02*
Y203689D01*
X420071Y269988D02*
X451504D01*
X353618Y203536D02*
X420071Y269988D01*
X353618Y198689D02*
Y203536D01*
X442118Y263689D02*
X451504D01*
X393618Y215189D02*
X442118Y263689D01*
X393618Y198689D02*
Y215189D01*
X387351Y277421D02*
X451504D01*
X313618Y203689D02*
X387351Y277421D01*
X313618Y198689D02*
Y203689D01*
X353650Y283720D02*
X451504D01*
X273618Y203689D02*
X353650Y283720D01*
X273618Y198689D02*
Y203689D01*
X370500Y280571D02*
X451504D01*
X293618Y203689D02*
X370500Y280571D01*
X293618Y198689D02*
Y203689D01*
X517295Y162902D02*
X518272Y163878D01*
X506654Y162902D02*
X517295D01*
X517398Y159752D02*
X518272Y158878D01*
X506654Y159752D02*
X517398D01*
X302378Y474429D02*
X302969Y473839D01*
X299547Y474429D02*
X302378D01*
X331965Y501689D02*
Y506689D01*
X346965Y501689D02*
Y506689D01*
X361965Y501689D02*
Y506689D01*
X376965Y501689D02*
Y506689D01*
X391965Y501689D02*
Y506689D01*
X406965Y501689D02*
Y506689D01*
X421965Y501689D02*
Y506689D01*
X436965Y501689D02*
X436965Y501689D01*
X436965Y501689D02*
Y506689D01*
X416118Y441689D02*
Y451689D01*
X406118Y441689D02*
Y451689D01*
X396118Y441689D02*
Y451689D01*
X386118Y441689D02*
Y451689D01*
X376118Y441689D02*
Y451689D01*
X366118Y441689D02*
Y451689D01*
X356118Y441689D02*
Y451689D01*
X346118Y441689D02*
Y451689D01*
X393618Y188689D02*
Y198689D01*
Y188689D02*
X403618D01*
Y198689D01*
X373618Y188689D02*
Y198689D01*
Y188689D02*
X383618D01*
Y198689D01*
X413618Y188689D02*
Y198689D01*
Y188689D02*
X423618D01*
Y198689D01*
X353618Y188689D02*
Y198689D01*
Y188689D02*
X363618D01*
Y198689D01*
X343618Y188689D02*
Y198689D01*
X333618Y188689D02*
X343618D01*
X333618D02*
Y198689D01*
X323618Y188689D02*
Y198689D01*
X313618Y188689D02*
X323618D01*
X313618D02*
Y198689D01*
X303618Y188689D02*
Y198689D01*
X293618Y188689D02*
X303618D01*
X293618D02*
Y198689D01*
X283618Y188689D02*
Y198689D01*
X273618Y188689D02*
X283618D01*
X273618D02*
Y198689D01*
X414894Y176689D02*
Y180004D01*
X374894Y176689D02*
Y181413D01*
X394894Y176689D02*
Y181413D01*
X354894Y176689D02*
Y181413D01*
X334894Y176689D02*
Y181413D01*
X314894Y176622D02*
Y181413D01*
X511504Y288764D02*
Y292303D01*
X507118Y296689D02*
X511504Y292303D01*
X502358Y296689D02*
X507118D01*
X394894Y181413D02*
X413485D01*
X374894D02*
X394894D01*
X354894D02*
X374894D01*
X334894D02*
X354894D01*
X314894D02*
X334894D01*
X294894D02*
X314894D01*
X278618D02*
X294894D01*
Y176689D02*
Y181413D01*
X413485D02*
X414894Y180004D01*
X276272Y179067D02*
X278618Y181413D01*
X276272Y176689D02*
Y179067D01*
X421736Y112878D02*
Y136500D01*
X398736Y112878D02*
Y136500D01*
X375736Y112878D02*
Y136500D01*
X352736Y112878D02*
Y136500D01*
X329736Y112878D02*
Y136500D01*
X306736Y112878D02*
Y136500D01*
X283736Y112878D02*
Y136500D01*
X260736Y112878D02*
Y136500D01*
X421587Y171689D02*
X421587Y171689D01*
Y176689D01*
X401587Y171689D02*
X401587Y171689D01*
Y176689D01*
X381587Y171689D02*
X381587Y171689D01*
Y176689D01*
X361587Y171689D02*
X361587Y171689D01*
Y176689D01*
X341587Y171689D02*
X341587Y171689D01*
Y176689D01*
X321587Y171689D02*
X321587Y171689D01*
Y176622D01*
X301587Y171689D02*
X301587Y171689D01*
Y176689D01*
X282965Y171689D02*
X282965Y171689D01*
Y176689D01*
X260736Y136500D02*
Y150279D01*
X276272Y165815D01*
Y171689D01*
X283736Y136500D02*
Y146807D01*
X294894Y157965D01*
Y171689D01*
X306736Y136500D02*
Y149807D01*
X314894Y157965D01*
Y171689D01*
X329736Y136500D02*
Y146807D01*
X334894Y151965D01*
Y171689D01*
X421736Y136500D02*
Y153571D01*
X414894Y160413D02*
X421736Y153571D01*
X414894Y160413D02*
Y171689D01*
X398736Y136500D02*
Y155571D01*
X394894Y159413D02*
X398736Y155571D01*
X394894Y159413D02*
Y171689D01*
X375736Y136500D02*
Y152543D01*
X374894Y153386D02*
X375736Y152543D01*
X374894Y153386D02*
Y171689D01*
X352736Y136500D02*
Y149689D01*
X354894Y151847D01*
Y171689D01*
X484732Y268291D02*
X491479D01*
X484732Y270850D02*
X493118D01*
X484732Y265732D02*
X493118D01*
X484732Y278528D02*
X491479D01*
X484732Y281087D02*
X493118D01*
X484732Y275969D02*
X493118D01*
X456622Y283720D02*
X461118D01*
X456622Y280571D02*
X461118D01*
X456622Y277421D02*
X461118D01*
X465118Y275969D02*
X467689D01*
X463421Y274272D02*
X465118Y275969D01*
X456622Y274272D02*
X463421D01*
X473398Y273410D02*
X484732D01*
X470839Y275969D02*
X473398Y273410D01*
X467689Y275969D02*
X470839D01*
X476547Y281087D02*
X484732D01*
X484732Y278528D02*
X484732Y278528D01*
X476547Y278528D02*
X484732D01*
X476547Y275969D02*
X484732D01*
X464484Y260539D02*
X467689Y263744D01*
X456622Y260539D02*
X464484D01*
X456622Y269988D02*
X461118D01*
X456622Y266839D02*
X461118D01*
X456622Y263689D02*
X461118D01*
X467689Y263744D02*
Y265732D01*
X484732D02*
X484732Y265732D01*
X476547Y265732D02*
X484732D01*
X476547Y268291D02*
X484732D01*
X484732Y270850D02*
X484732Y270850D01*
X476547Y270850D02*
X484732D01*
D20*
X484014Y288775D02*
D03*
Y286216D02*
D03*
X484014Y283657D02*
D03*
Y281098D02*
D03*
Y278539D02*
D03*
Y275979D02*
D03*
Y273421D02*
D03*
Y270861D02*
D03*
Y268302D02*
D03*
Y265743D02*
D03*
Y263184D02*
D03*
Y260625D02*
D03*
X510786Y288775D02*
D03*
Y286216D02*
D03*
Y283657D02*
D03*
Y281098D02*
D03*
Y278539D02*
D03*
Y275979D02*
D03*
Y273421D02*
D03*
Y270861D02*
D03*
X510786Y268302D02*
D03*
Y265743D02*
D03*
X510786Y263184D02*
D03*
Y260625D02*
D03*
X502614Y468269D02*
D03*
Y465709D02*
D03*
Y463151D02*
D03*
Y460591D02*
D03*
Y458032D02*
D03*
Y455473D02*
D03*
Y452914D02*
D03*
Y450355D02*
D03*
Y447796D02*
D03*
Y445237D02*
D03*
Y442678D02*
D03*
Y440119D02*
D03*
X529386Y468269D02*
D03*
Y465709D02*
D03*
Y463151D02*
D03*
Y460591D02*
D03*
Y458032D02*
D03*
Y455473D02*
D03*
Y452914D02*
D03*
Y450355D02*
D03*
Y447796D02*
D03*
Y445237D02*
D03*
Y442678D02*
D03*
Y440119D02*
D03*
D21*
X638000Y208000D02*
D03*
X641150D02*
D03*
X644299D02*
D03*
X647449D02*
D03*
Y202882D02*
D03*
X644299D02*
D03*
X641150D02*
D03*
X638000D02*
D03*
X485331Y372882D02*
D03*
X488481D02*
D03*
X491630D02*
D03*
X494780D02*
D03*
Y378000D02*
D03*
X491630D02*
D03*
X488481D02*
D03*
X485331D02*
D03*
D22*
X593000Y242899D02*
D03*
X593000Y239750D02*
D03*
Y236600D02*
D03*
X593000Y233450D02*
D03*
X587882Y233450D02*
D03*
Y236600D02*
D03*
X587882Y239750D02*
D03*
X587882Y242899D02*
D03*
X559000Y233450D02*
D03*
Y236600D02*
D03*
Y239750D02*
D03*
Y242899D02*
D03*
X564118D02*
D03*
Y239750D02*
D03*
Y236600D02*
D03*
Y233450D02*
D03*
X620441Y308138D02*
D03*
Y304988D02*
D03*
Y301839D02*
D03*
Y298689D02*
D03*
X625559D02*
D03*
Y301839D02*
D03*
Y304988D02*
D03*
Y308138D02*
D03*
X620459Y322287D02*
D03*
Y319138D02*
D03*
Y315988D02*
D03*
Y312839D02*
D03*
X625577D02*
D03*
Y315988D02*
D03*
Y319138D02*
D03*
Y322287D02*
D03*
X465000Y357547D02*
D03*
Y354398D02*
D03*
Y351248D02*
D03*
Y348098D02*
D03*
X470118D02*
D03*
Y351248D02*
D03*
Y354398D02*
D03*
Y357547D02*
D03*
X531618Y481550D02*
D03*
Y484700D02*
D03*
Y487850D02*
D03*
Y490999D02*
D03*
X526500D02*
D03*
Y487850D02*
D03*
Y484700D02*
D03*
Y481550D02*
D03*
X531000Y416201D02*
D03*
Y419350D02*
D03*
Y422500D02*
D03*
Y425650D02*
D03*
X525882D02*
D03*
Y422500D02*
D03*
Y419350D02*
D03*
Y416201D02*
D03*
X306618Y465339D02*
D03*
Y462189D02*
D03*
Y459039D02*
D03*
Y455890D02*
D03*
X311736D02*
D03*
Y459039D02*
D03*
Y462189D02*
D03*
Y465339D02*
D03*
X281390Y470689D02*
D03*
Y473839D02*
D03*
Y476988D02*
D03*
Y480138D02*
D03*
X276272D02*
D03*
Y476988D02*
D03*
Y473839D02*
D03*
Y470689D02*
D03*
X281390Y455890D02*
D03*
Y459039D02*
D03*
Y462189D02*
D03*
Y465339D02*
D03*
X276272D02*
D03*
Y462189D02*
D03*
Y459039D02*
D03*
Y455890D02*
D03*
X306618Y480138D02*
D03*
Y476988D02*
D03*
Y473839D02*
D03*
Y470689D02*
D03*
X311736D02*
D03*
Y473839D02*
D03*
Y476988D02*
D03*
Y480138D02*
D03*
X456622Y274272D02*
D03*
Y277421D02*
D03*
Y280571D02*
D03*
Y283720D02*
D03*
X451504D02*
D03*
Y280571D02*
D03*
Y277421D02*
D03*
Y274272D02*
D03*
X456622Y260539D02*
D03*
Y263689D02*
D03*
Y266839D02*
D03*
Y269988D02*
D03*
X451504D02*
D03*
Y266839D02*
D03*
Y263689D02*
D03*
Y260539D02*
D03*
D23*
X501780Y228248D02*
D03*
Y225689D02*
D03*
Y223130D02*
D03*
Y220571D02*
D03*
Y218012D02*
D03*
X501780Y215453D02*
D03*
X501780Y212894D02*
D03*
Y210334D02*
D03*
Y207775D02*
D03*
Y205216D02*
D03*
X524221Y228248D02*
D03*
Y225689D02*
D03*
Y223130D02*
D03*
Y220571D02*
D03*
Y218012D02*
D03*
Y215453D02*
D03*
Y212893D02*
D03*
Y210334D02*
D03*
Y207775D02*
D03*
Y205216D02*
D03*
X504220Y336484D02*
D03*
Y339043D02*
D03*
Y341602D02*
D03*
Y344161D02*
D03*
Y346721D02*
D03*
Y349279D02*
D03*
Y351839D02*
D03*
Y354398D02*
D03*
Y356957D02*
D03*
Y359516D02*
D03*
X481779Y336484D02*
D03*
Y339043D02*
D03*
Y341602D02*
D03*
Y344161D02*
D03*
Y346721D02*
D03*
Y349279D02*
D03*
Y351839D02*
D03*
Y354398D02*
D03*
Y356957D02*
D03*
Y359516D02*
D03*
X262839Y451173D02*
D03*
Y453732D02*
D03*
Y456291D02*
D03*
Y458850D02*
D03*
Y461410D02*
D03*
Y463969D02*
D03*
Y466528D02*
D03*
Y469087D02*
D03*
Y471646D02*
D03*
Y474205D02*
D03*
X240398Y451173D02*
D03*
Y453732D02*
D03*
Y456291D02*
D03*
Y458850D02*
D03*
Y461410D02*
D03*
Y463969D02*
D03*
Y466528D02*
D03*
Y469087D02*
D03*
Y471646D02*
D03*
Y474205D02*
D03*
D24*
X572441Y237429D02*
D03*
X575000D02*
D03*
X577559D02*
D03*
Y228571D02*
D03*
X575000D02*
D03*
X572441D02*
D03*
D25*
X516840Y236900D02*
D03*
X509360D02*
D03*
X253193Y442000D02*
D03*
X245713D02*
D03*
X505260Y368000D02*
D03*
X512740D02*
D03*
X512760Y476000D02*
D03*
X520240D02*
D03*
X494878Y296689D02*
D03*
X502358D02*
D03*
D26*
X664898Y227236D02*
D03*
X659102Y230582D02*
D03*
X621102Y164764D02*
D03*
X626898Y161418D02*
D03*
D27*
X677582Y212102D02*
D03*
X674236Y217898D02*
D03*
X608418Y179898D02*
D03*
X611764Y174102D02*
D03*
D28*
X681000Y192654D02*
D03*
Y199346D02*
D03*
X605000Y199346D02*
D03*
X605000Y192654D02*
D03*
X203000Y169374D02*
D03*
Y176067D02*
D03*
X169000Y169374D02*
D03*
Y176067D02*
D03*
X155000Y169374D02*
D03*
Y176067D02*
D03*
X650000Y310154D02*
D03*
Y316846D02*
D03*
Y296847D02*
D03*
Y290154D02*
D03*
X690000Y296847D02*
D03*
Y290154D02*
D03*
Y316846D02*
D03*
Y310154D02*
D03*
X650000Y330153D02*
D03*
Y336846D02*
D03*
X690000Y330153D02*
D03*
Y336846D02*
D03*
X670000Y316846D02*
D03*
Y310154D02*
D03*
X675000Y405847D02*
D03*
Y399154D02*
D03*
X670000Y405847D02*
D03*
Y399154D02*
D03*
X680000D02*
D03*
Y405847D02*
D03*
X663500Y384154D02*
D03*
Y390846D02*
D03*
X591500Y419846D02*
D03*
Y413154D02*
D03*
X680000Y387154D02*
D03*
Y393847D02*
D03*
X675000Y387154D02*
D03*
Y393847D02*
D03*
X670000Y387154D02*
D03*
Y393847D02*
D03*
D29*
X674236Y174102D02*
D03*
X677582Y179898D02*
D03*
X611764Y217898D02*
D03*
X608418Y212102D02*
D03*
D30*
X659102Y161418D02*
D03*
X664898Y164764D02*
D03*
X626898Y230582D02*
D03*
X621102Y227236D02*
D03*
D31*
X639653Y158000D02*
D03*
X646347Y158000D02*
D03*
X646347Y234000D02*
D03*
X639653D02*
D03*
X677347Y461500D02*
D03*
X670653D02*
D03*
X414894Y171689D02*
D03*
X421587D02*
D03*
X401587D02*
D03*
X394894D02*
D03*
X374894D02*
D03*
X381587D02*
D03*
X341587D02*
D03*
X334894D02*
D03*
X314894D02*
D03*
X321587D02*
D03*
X301587D02*
D03*
X294894D02*
D03*
X430272Y506689D02*
D03*
X436965D02*
D03*
X421965D02*
D03*
X415272D02*
D03*
X400272D02*
D03*
X406965D02*
D03*
X391965D02*
D03*
X385272D02*
D03*
X370272D02*
D03*
X376965D02*
D03*
X361965D02*
D03*
X355272D02*
D03*
X340272D02*
D03*
X346965D02*
D03*
X331965D02*
D03*
X325272D02*
D03*
X276272Y171689D02*
D03*
X282965D02*
D03*
X361587D02*
D03*
X354894D02*
D03*
X677347Y456500D02*
D03*
X670653D02*
D03*
Y466500D02*
D03*
X677347D02*
D03*
X604347Y413000D02*
D03*
X597653D02*
D03*
X689347Y466500D02*
D03*
X682654D02*
D03*
X689347Y461500D02*
D03*
X682654D02*
D03*
X689347Y456500D02*
D03*
X682654D02*
D03*
X656653Y378000D02*
D03*
X663346D02*
D03*
X282965Y176689D02*
D03*
X276272D02*
D03*
X301587D02*
D03*
X294894D02*
D03*
X321587Y176622D02*
D03*
X314894D02*
D03*
X341587Y176689D02*
D03*
X334894D02*
D03*
X361587D02*
D03*
X354894D02*
D03*
X381587D02*
D03*
X374894D02*
D03*
X401587D02*
D03*
X394894D02*
D03*
X421587D02*
D03*
X414894D02*
D03*
X457772Y159555D02*
D03*
X464465D02*
D03*
X325272Y501689D02*
D03*
X331965D02*
D03*
X340272D02*
D03*
X346965D02*
D03*
X355272D02*
D03*
X361965D02*
D03*
X370272D02*
D03*
X376965D02*
D03*
X385272D02*
D03*
X391965D02*
D03*
X400272D02*
D03*
X406965D02*
D03*
X415272D02*
D03*
X421965D02*
D03*
X430272D02*
D03*
X436965D02*
D03*
X518272Y163878D02*
D03*
X524965D02*
D03*
X518272Y158878D02*
D03*
X524965D02*
D03*
X457772Y132878D02*
D03*
X464465D02*
D03*
X464465Y154378D02*
D03*
X457772D02*
D03*
D32*
X188000Y162209D02*
D03*
Y173232D02*
D03*
D33*
X493929Y322134D02*
D03*
Y324693D02*
D03*
Y327252D02*
D03*
X485071D02*
D03*
Y324693D02*
D03*
Y322134D02*
D03*
X490929Y460559D02*
D03*
Y458000D02*
D03*
Y455441D02*
D03*
X482071D02*
D03*
Y458000D02*
D03*
Y460559D02*
D03*
X490929Y450059D02*
D03*
Y447500D02*
D03*
Y444941D02*
D03*
X482071D02*
D03*
Y447500D02*
D03*
Y450059D02*
D03*
X476547Y270850D02*
D03*
Y268291D02*
D03*
Y265732D02*
D03*
X467689D02*
D03*
Y268291D02*
D03*
Y270850D02*
D03*
X476547Y281087D02*
D03*
Y278528D02*
D03*
Y275969D02*
D03*
X467689D02*
D03*
Y278528D02*
D03*
Y281087D02*
D03*
X299547Y464748D02*
D03*
Y462189D02*
D03*
Y459630D02*
D03*
X290689D02*
D03*
Y462189D02*
D03*
Y464748D02*
D03*
X299547Y479547D02*
D03*
Y476988D02*
D03*
Y474429D02*
D03*
X290689D02*
D03*
Y476988D02*
D03*
Y479547D02*
D03*
D34*
X479095Y168413D02*
D03*
X482244D02*
D03*
X485394D02*
D03*
X488543D02*
D03*
X491693D02*
D03*
X494843D02*
D03*
X497992D02*
D03*
X501142D02*
D03*
Y135343D02*
D03*
X497992D02*
D03*
X494843D02*
D03*
X491693D02*
D03*
X488543D02*
D03*
X485394D02*
D03*
X482244D02*
D03*
X479095D02*
D03*
D35*
X506654Y162902D02*
D03*
Y159752D02*
D03*
Y156602D02*
D03*
Y153453D02*
D03*
Y150303D02*
D03*
Y147154D02*
D03*
Y144004D02*
D03*
Y140854D02*
D03*
X473583D02*
D03*
Y144004D02*
D03*
Y147154D02*
D03*
Y150303D02*
D03*
Y153453D02*
D03*
Y156602D02*
D03*
Y159752D02*
D03*
Y162902D02*
D03*
D36*
X598618Y400311D02*
D03*
X613382D02*
D03*
Y376689D02*
D03*
X598618D02*
D03*
X663882Y488311D02*
D03*
X649118D02*
D03*
Y464689D02*
D03*
X663882D02*
D03*
X390500Y112878D02*
D03*
X375736D02*
D03*
Y136500D02*
D03*
X390500D02*
D03*
X367500D02*
D03*
X352736D02*
D03*
Y112878D02*
D03*
X367500D02*
D03*
X298500D02*
D03*
X283736D02*
D03*
Y136500D02*
D03*
X298500D02*
D03*
X275500D02*
D03*
X260736D02*
D03*
Y112878D02*
D03*
X275500D02*
D03*
X321500D02*
D03*
X306736D02*
D03*
Y136500D02*
D03*
X321500D02*
D03*
X344500D02*
D03*
X329736D02*
D03*
Y112878D02*
D03*
X344500D02*
D03*
X413500D02*
D03*
X398736D02*
D03*
Y136500D02*
D03*
X413500D02*
D03*
X436500D02*
D03*
X421736D02*
D03*
Y112878D02*
D03*
X436500D02*
D03*
D37*
X613811Y463118D02*
D03*
Y477882D02*
D03*
X590189D02*
D03*
Y463118D02*
D03*
X701811Y427382D02*
D03*
Y412618D02*
D03*
X678189D02*
D03*
Y427382D02*
D03*
D38*
X457969Y147709D02*
D03*
X464268D02*
D03*
Y139047D02*
D03*
X457969D02*
D03*
D68*
X557700Y181200D02*
D03*
X552459Y298839D02*
D03*
X552500Y396500D02*
D03*
X448618Y415689D02*
D03*
Y235689D02*
D03*
D69*
X547700Y181200D02*
D03*
X557700Y191200D02*
D03*
X547700D02*
D03*
X557700Y201200D02*
D03*
X547700D02*
D03*
X557700Y211200D02*
D03*
X547700D02*
D03*
X542459Y328839D02*
D03*
X552459D02*
D03*
X542459Y318839D02*
D03*
X552459D02*
D03*
X542459Y308839D02*
D03*
X552459D02*
D03*
X542459Y298839D02*
D03*
X552500Y436500D02*
D03*
X542500D02*
D03*
Y426500D02*
D03*
X552500D02*
D03*
X542500Y416500D02*
D03*
X552500D02*
D03*
X542500Y406500D02*
D03*
X552500D02*
D03*
X542500Y396500D02*
D03*
X423618Y188689D02*
D03*
X413618Y198689D02*
D03*
Y188689D02*
D03*
X403618Y198689D02*
D03*
Y188689D02*
D03*
X393618Y198689D02*
D03*
Y188689D02*
D03*
X383618D02*
D03*
Y198689D02*
D03*
X376118Y451689D02*
D03*
Y441689D02*
D03*
X386118D02*
D03*
Y451689D02*
D03*
X396118Y441689D02*
D03*
Y451689D02*
D03*
X406118Y441689D02*
D03*
Y451689D02*
D03*
X416118Y441689D02*
D03*
X303618Y198689D02*
D03*
Y188689D02*
D03*
X313618D02*
D03*
Y198689D02*
D03*
X323618Y188689D02*
D03*
Y198689D02*
D03*
X333618Y188689D02*
D03*
Y198689D02*
D03*
X343618Y188689D02*
D03*
X458618Y415689D02*
D03*
X448618Y405689D02*
D03*
X458618D02*
D03*
Y235689D02*
D03*
X448618Y225689D02*
D03*
X458618D02*
D03*
D70*
X129618Y495689D02*
D03*
X697618Y125689D02*
D03*
X129618D02*
D03*
X697618Y495689D02*
D03*
D71*
X134846Y180713D02*
D03*
Y177366D02*
D03*
Y174020D02*
D03*
Y170673D02*
D03*
Y167327D02*
D03*
Y163980D02*
D03*
Y160634D02*
D03*
Y157287D02*
D03*
X129532D02*
D03*
Y160634D02*
D03*
Y163980D02*
D03*
Y167327D02*
D03*
Y170673D02*
D03*
Y174020D02*
D03*
Y177366D02*
D03*
Y180713D02*
D03*
D72*
X130988Y186028D02*
D03*
Y151972D02*
D03*
D73*
X117681D02*
D03*
Y186028D02*
D03*
D74*
X542500Y466500D02*
D03*
X552500D02*
D03*
X542500Y446500D02*
D03*
X552500D02*
D03*
Y456500D02*
D03*
X542500D02*
D03*
X363618Y188689D02*
D03*
Y198689D02*
D03*
X373618D02*
D03*
Y188689D02*
D03*
X353618Y198689D02*
D03*
Y188689D02*
D03*
X346118Y441689D02*
D03*
Y451689D02*
D03*
X366118Y441689D02*
D03*
Y451689D02*
D03*
X356118D02*
D03*
Y441689D02*
D03*
X273618Y188689D02*
D03*
Y198689D02*
D03*
X293618Y188689D02*
D03*
Y198689D02*
D03*
X283618D02*
D03*
Y188689D02*
D03*
D75*
X423618Y198689D02*
D03*
X416118Y451689D02*
D03*
X343618Y198689D02*
D03*
D76*
X503000Y119000D02*
D03*
D77*
Y114000D02*
D03*
X498000Y119000D02*
D03*
Y114000D02*
D03*
X493000Y119000D02*
D03*
Y114000D02*
D03*
X488000D02*
D03*
X483000Y119000D02*
D03*
Y114000D02*
D03*
D78*
X235354Y458850D02*
D03*
Y453732D02*
D03*
X232618Y461410D02*
D03*
Y456291D02*
D03*
X235354Y463969D02*
D03*
X232618Y471646D02*
D03*
X235354Y469087D02*
D03*
X232618Y466528D02*
D03*
X285118Y465339D02*
D03*
Y455890D02*
D03*
Y459039D02*
D03*
Y470689D02*
D03*
Y473839D02*
D03*
Y476988D02*
D03*
Y462189D02*
D03*
Y480138D02*
D03*
X303618Y473839D02*
D03*
Y455890D02*
D03*
Y459039D02*
D03*
Y462189D02*
D03*
Y465339D02*
D03*
Y470689D02*
D03*
Y476988D02*
D03*
Y480138D02*
D03*
X491479Y268291D02*
D03*
X493118Y270850D02*
D03*
Y265732D02*
D03*
X491479Y278528D02*
D03*
X493118Y281087D02*
D03*
Y275969D02*
D03*
X461118Y263689D02*
D03*
Y266839D02*
D03*
Y269988D02*
D03*
Y277421D02*
D03*
Y280571D02*
D03*
Y283720D02*
D03*
M02*
