G04*
G04 #@! TF.GenerationSoftware,Altium Limited,Altium Designer,18.1.6 (161)*
G04*
G04 Layer_Color=16711935*
%FSLAX25Y25*%
%MOIN*%
G70*
G01*
G75*
%ADD58R,0.06706X0.06706*%
%ADD59C,0.06706*%
%ADD60C,0.06800*%
%ADD61O,0.03359X0.03241*%
%ADD62O,0.10249X0.04343*%
%ADD63O,0.07493X0.04343*%
%ADD64C,0.06706*%
%ADD65R,0.06706X0.06706*%
%ADD66R,0.04580X0.04580*%
%ADD67C,0.04580*%
D58*
X557700Y181200D02*
D03*
X552459Y298839D02*
D03*
X552500Y396500D02*
D03*
X448618Y415689D02*
D03*
Y235689D02*
D03*
D59*
X547700Y181200D02*
D03*
X557700Y191200D02*
D03*
X547700D02*
D03*
X557700Y201200D02*
D03*
X547700D02*
D03*
X557700Y211200D02*
D03*
X547700D02*
D03*
X542459Y328839D02*
D03*
X552459D02*
D03*
X542459Y318839D02*
D03*
X552459D02*
D03*
X542459Y308839D02*
D03*
X552459D02*
D03*
X542459Y298839D02*
D03*
X552500Y436500D02*
D03*
X542500D02*
D03*
Y426500D02*
D03*
X552500D02*
D03*
X542500Y416500D02*
D03*
X552500D02*
D03*
X542500Y406500D02*
D03*
X552500D02*
D03*
X542500Y396500D02*
D03*
X423618Y188689D02*
D03*
X413618Y198689D02*
D03*
Y188689D02*
D03*
X403618Y198689D02*
D03*
Y188689D02*
D03*
X393618Y198689D02*
D03*
Y188689D02*
D03*
X383618D02*
D03*
Y198689D02*
D03*
X376118Y451689D02*
D03*
Y441689D02*
D03*
X386118D02*
D03*
Y451689D02*
D03*
X396118Y441689D02*
D03*
Y451689D02*
D03*
X406118Y441689D02*
D03*
Y451689D02*
D03*
X416118Y441689D02*
D03*
X303618Y198689D02*
D03*
Y188689D02*
D03*
X313618D02*
D03*
Y198689D02*
D03*
X323618Y188689D02*
D03*
Y198689D02*
D03*
X333618Y188689D02*
D03*
Y198689D02*
D03*
X343618Y188689D02*
D03*
X458618Y415689D02*
D03*
X448618Y405689D02*
D03*
X458618D02*
D03*
Y235689D02*
D03*
X448618Y225689D02*
D03*
X458618D02*
D03*
D60*
X129618Y495689D02*
D03*
X697618Y125689D02*
D03*
X129618D02*
D03*
X697618Y495689D02*
D03*
D61*
X134846Y180713D02*
D03*
Y177366D02*
D03*
Y174020D02*
D03*
Y170673D02*
D03*
Y167327D02*
D03*
Y163980D02*
D03*
Y160634D02*
D03*
Y157287D02*
D03*
X129532D02*
D03*
Y160634D02*
D03*
Y163980D02*
D03*
Y167327D02*
D03*
Y170673D02*
D03*
Y174020D02*
D03*
Y177366D02*
D03*
Y180713D02*
D03*
D62*
X130988Y186028D02*
D03*
Y151972D02*
D03*
D63*
X117681D02*
D03*
Y186028D02*
D03*
D64*
X542500Y466500D02*
D03*
X552500D02*
D03*
X542500Y446500D02*
D03*
X552500D02*
D03*
Y456500D02*
D03*
X542500D02*
D03*
X363618Y188689D02*
D03*
Y198689D02*
D03*
X373618D02*
D03*
Y188689D02*
D03*
X353618Y198689D02*
D03*
Y188689D02*
D03*
X346118Y441689D02*
D03*
Y451689D02*
D03*
X366118Y441689D02*
D03*
Y451689D02*
D03*
X356118D02*
D03*
Y441689D02*
D03*
X273618Y188689D02*
D03*
Y198689D02*
D03*
X293618Y188689D02*
D03*
Y198689D02*
D03*
X283618D02*
D03*
Y188689D02*
D03*
D65*
X423618Y198689D02*
D03*
X416118Y451689D02*
D03*
X343618Y198689D02*
D03*
D66*
X503000Y119000D02*
D03*
D67*
Y114000D02*
D03*
X498000Y119000D02*
D03*
Y114000D02*
D03*
X493000Y119000D02*
D03*
Y114000D02*
D03*
X488000D02*
D03*
X483000Y119000D02*
D03*
Y114000D02*
D03*
M02*
