M48
;Layer_Color=9474304
;FILE_FORMAT=2:5
INCH,TZ
;TYPE=PLATED
T1F00S00C0.01181
T2F00S00C0.01575
T3F00S00C0.02362
T5F00S00C0.03543
T6F00S00C0.11811
%
T01
X493118Y265732
X491479Y268291
X493118Y270850
Y275969
X491479Y278528
X493118Y281087
X461118Y280571
Y277421
Y283720
Y269988
Y266839
Y263689
X303618Y455890
Y459039
Y462189
Y465339
X285118
Y462189
Y459039
Y455890
X235354Y453732
Y458850
Y463969
X232618Y466528
Y461410
Y456291
Y471646
X235354Y469087
X285118Y470689
Y473839
Y476988
Y480138
X303618
Y476988
Y473839
Y470689
T02
X129532Y157287
Y160634
Y163980
Y167327
Y170673
Y174020
Y177366
Y180713
X134846
Y177366
Y174020
Y170673
Y167327
Y163980
Y160634
Y157287
T03
X483000Y114000
X488000
X493000
X498000
X503000
Y119000
X498000
X493000
X483000
T05
X547700Y181200
X557700
Y191200
X547700
Y201200
X557700
Y211200
X547700
X552459Y298839
Y308839
X542459
Y298839
X458618Y235689
X448618
Y225689
X458618
X423618Y198689
Y188689
X413618
Y198689
X403618
Y188689
X393618
Y198689
X383618
Y188689
X373618
X363618
Y198689
X373618
X353618
Y188689
X343618
X333618
X323618
X313618
Y198689
X323618
X333618
X343618
X303618
X293618
Y188689
X303618
X283618
X273618
Y198689
X283618
X346118Y441689
Y451689
X356118
X366118
Y441689
X376118
Y451689
X386118
Y441689
X396118
Y451689
X406118
Y441689
X416118
Y451689
X448618Y415689
X458618
Y405689
X448618
X356118Y441689
X542500Y446500
X552500
Y436500
X542500
Y426500
X552500
Y416500
X542500
Y406500
X552500
Y396500
X542500
Y456500
Y466500
X552500
Y456500
X552459Y328839
X542459
Y318839
X552459
T06
X129618Y125689
X697618
Y495689
X129618
M30
