G04*
G04 #@! TF.GenerationSoftware,Altium Limited,Altium Designer,19.1.8 (144)*
G04*
G04 Layer_Color=16711935*
%FSLAX25Y25*%
%MOIN*%
G70*
G01*
G75*
%ADD26R,0.62992X0.35100*%
%ADD27C,0.04737*%
%ADD48C,0.08674*%
%ADD49C,0.06312*%
%ADD50C,0.06706*%
%ADD51R,0.06706X0.06706*%
%ADD52C,0.06706*%
%ADD53C,0.06800*%
%ADD54R,0.06706X0.06706*%
%ADD55O,0.03359X0.03241*%
%ADD56O,0.10249X0.04343*%
%ADD57O,0.07493X0.04343*%
D26*
X185900Y125474D02*
D03*
D27*
X480400Y117000D02*
D03*
X450400D02*
D03*
D48*
X185900Y124500D02*
D03*
D49*
X181300Y199400D02*
D03*
X485000Y370000D02*
D03*
X206800Y167900D02*
D03*
Y199900D02*
D03*
X470000Y388500D02*
D03*
X455000Y370000D02*
D03*
X470000D02*
D03*
D50*
X515158Y455000D02*
D03*
X525157D02*
D03*
Y445000D02*
D03*
X515158D02*
D03*
X525157Y465000D02*
D03*
X515158D02*
D03*
X351000Y189000D02*
D03*
Y199000D02*
D03*
X371000Y189000D02*
D03*
Y199000D02*
D03*
X361000D02*
D03*
Y189000D02*
D03*
X281000D02*
D03*
Y199000D02*
D03*
X291000D02*
D03*
Y189000D02*
D03*
X271000Y199000D02*
D03*
Y189000D02*
D03*
X343000Y442000D02*
D03*
Y452000D02*
D03*
X363000Y442000D02*
D03*
Y452000D02*
D03*
X353000D02*
D03*
Y442000D02*
D03*
D51*
X525157Y395000D02*
D03*
Y180500D02*
D03*
Y289000D02*
D03*
X448500Y414000D02*
D03*
Y239000D02*
D03*
D52*
X515158Y395000D02*
D03*
X525157Y405000D02*
D03*
X515158D02*
D03*
X525157Y415000D02*
D03*
X515158D02*
D03*
X525157Y425000D02*
D03*
X515158D02*
D03*
Y435000D02*
D03*
X525157D02*
D03*
X515158Y210500D02*
D03*
X525157D02*
D03*
X515158Y200500D02*
D03*
X525157D02*
D03*
X515158Y190500D02*
D03*
X525157D02*
D03*
X515158Y180500D02*
D03*
Y319000D02*
D03*
X525157D02*
D03*
X515158Y309000D02*
D03*
X525157D02*
D03*
X515158Y299000D02*
D03*
X525157D02*
D03*
X515158Y289000D02*
D03*
X381000Y199000D02*
D03*
Y189000D02*
D03*
X391000D02*
D03*
Y199000D02*
D03*
X401000Y189000D02*
D03*
Y199000D02*
D03*
X411000Y189000D02*
D03*
Y199000D02*
D03*
X421000Y189000D02*
D03*
X341000D02*
D03*
X331000Y199000D02*
D03*
Y189000D02*
D03*
X321000Y199000D02*
D03*
Y189000D02*
D03*
X311000Y199000D02*
D03*
Y189000D02*
D03*
X301000D02*
D03*
Y199000D02*
D03*
X458500Y414000D02*
D03*
X448500Y404000D02*
D03*
X458500D02*
D03*
Y239000D02*
D03*
X448500Y229000D02*
D03*
X458500D02*
D03*
X246200Y442000D02*
D03*
X236200Y452000D02*
D03*
Y442000D02*
D03*
X226200Y452000D02*
D03*
Y442000D02*
D03*
X373000Y452000D02*
D03*
Y442000D02*
D03*
X383000D02*
D03*
Y452000D02*
D03*
X393000Y442000D02*
D03*
Y452000D02*
D03*
X403000Y442000D02*
D03*
Y452000D02*
D03*
X413000Y442000D02*
D03*
D53*
X170000Y505000D02*
D03*
Y495000D02*
D03*
Y485000D02*
D03*
Y475000D02*
D03*
D54*
X421000Y199000D02*
D03*
X341000D02*
D03*
X246200Y452000D02*
D03*
X413000D02*
D03*
D55*
X143146Y195613D02*
D03*
Y192266D02*
D03*
Y188920D02*
D03*
Y185573D02*
D03*
Y182227D02*
D03*
Y178880D02*
D03*
Y175534D02*
D03*
Y172187D02*
D03*
X137832D02*
D03*
Y175534D02*
D03*
Y178880D02*
D03*
Y182227D02*
D03*
Y185573D02*
D03*
Y188920D02*
D03*
Y192266D02*
D03*
Y195613D02*
D03*
D56*
X139288Y200928D02*
D03*
Y166872D02*
D03*
D57*
X125981D02*
D03*
Y200928D02*
D03*
M02*
