M48
;Layer_Color=9474304
;FILE_FORMAT=2:5
INCH,TZ
;TYPE=PLATED
T1F00S00C0.02362
T2F00S00C0.03543
%
T01
X360000Y21000
Y26000
X370000
X375000
X380000
Y21000
X375000
X370000
X365000
T02
X205000Y84000
Y94000
X215000
Y84000
X225000
Y94000
X235000
Y84000
X245000
Y94000
X255000
X265000
Y84000
X275000
Y94000
X285000
Y84000
X295000
Y94000
X305000
Y84000
X315000
Y94000
X346000Y120000
X356000
Y130000
X346000
X255000Y84000
X195000
X185000
Y94000
X195000
X175000
X165000
Y84000
X175000
X346000Y302000
X356000
Y312000
X346000
M30
