G04*
G04 #@! TF.GenerationSoftware,Altium Limited,Altium Designer,18.1.6 (161)*
G04*
G04 Layer_Physical_Order=2*
G04 Layer_Color=16711680*
%FSLAX25Y25*%
%MOIN*%
G70*
G01*
G75*
%ADD14C,0.01000*%
%ADD68R,0.05906X0.05906*%
%ADD69C,0.05906*%
%ADD70C,0.06000*%
%ADD71O,0.02559X0.02441*%
%ADD72O,0.09449X0.03543*%
%ADD73O,0.06693X0.03543*%
%ADD74C,0.05906*%
%ADD75R,0.05906X0.05906*%
%ADD76R,0.03780X0.03780*%
%ADD77C,0.03780*%
%ADD78C,0.01968*%
D14*
X264559Y453732D02*
X266717Y455890D01*
X235354Y453732D02*
X264559D01*
X262721Y456291D02*
X265469Y459039D01*
X232618Y456291D02*
X262721D01*
X264618Y462189D02*
X285118D01*
X261280Y458850D02*
X264618Y462189D01*
X235354Y458850D02*
X261280D01*
X259488Y461410D02*
X263417Y465339D01*
X232618Y461410D02*
X259488D01*
X235354Y463969D02*
X258398D01*
X256457Y466528D02*
X263768Y473839D01*
X232618Y466528D02*
X256457D01*
X232618Y471646D02*
X253075D01*
X235354Y469087D02*
X254717D01*
X253075Y471646D02*
X261567Y480138D01*
X258398Y463969D02*
X265118Y470689D01*
X262618Y476988D02*
X285118D01*
X254717Y469087D02*
X262618Y476988D01*
X285118Y465339D02*
X303618D01*
X263417D02*
X285118D01*
Y455890D02*
X303618D01*
X266717D02*
X285118D01*
Y459039D02*
X303618D01*
X265469D02*
X285118D01*
Y462189D02*
X303618D01*
X285118Y470689D02*
X303618D01*
X265118D02*
X285118D01*
Y473839D02*
X303618D01*
X263768D02*
X285118D01*
Y476988D02*
X303618D01*
X285118Y480138D02*
X303618D01*
X261567D02*
X285118D01*
X461118Y269988D02*
X471256D01*
X472118Y270850D01*
X461118Y266839D02*
X471665D01*
X473118Y268291D01*
X461118Y263689D02*
X474075D01*
X476118Y265732D01*
X461118Y283720D02*
X487087D01*
X489721Y281087D01*
X461118Y280571D02*
X486205D01*
X488248Y278528D01*
X461118Y277421D02*
X482665D01*
X484118Y275969D01*
X493118D01*
X489721Y281087D02*
X493118D01*
X488248Y278528D02*
X491479D01*
X476118Y265732D02*
X493118D01*
X472118Y270850D02*
X493118D01*
X473118Y268291D02*
X491479D01*
D68*
X557700Y181200D02*
D03*
X552459Y298839D02*
D03*
X552500Y396500D02*
D03*
X448618Y415689D02*
D03*
Y235689D02*
D03*
D69*
X547700Y181200D02*
D03*
X557700Y191200D02*
D03*
X547700D02*
D03*
X557700Y201200D02*
D03*
X547700D02*
D03*
X557700Y211200D02*
D03*
X547700D02*
D03*
X542459Y328839D02*
D03*
X552459D02*
D03*
X542459Y318839D02*
D03*
X552459D02*
D03*
X542459Y308839D02*
D03*
X552459D02*
D03*
X542459Y298839D02*
D03*
X552500Y436500D02*
D03*
X542500D02*
D03*
Y426500D02*
D03*
X552500D02*
D03*
X542500Y416500D02*
D03*
X552500D02*
D03*
X542500Y406500D02*
D03*
X552500D02*
D03*
X542500Y396500D02*
D03*
X423618Y188689D02*
D03*
X413618Y198689D02*
D03*
Y188689D02*
D03*
X403618Y198689D02*
D03*
Y188689D02*
D03*
X393618Y198689D02*
D03*
Y188689D02*
D03*
X383618D02*
D03*
Y198689D02*
D03*
X376118Y451689D02*
D03*
Y441689D02*
D03*
X386118D02*
D03*
Y451689D02*
D03*
X396118Y441689D02*
D03*
Y451689D02*
D03*
X406118Y441689D02*
D03*
Y451689D02*
D03*
X416118Y441689D02*
D03*
X303618Y198689D02*
D03*
Y188689D02*
D03*
X313618D02*
D03*
Y198689D02*
D03*
X323618Y188689D02*
D03*
Y198689D02*
D03*
X333618Y188689D02*
D03*
Y198689D02*
D03*
X343618Y188689D02*
D03*
X458618Y415689D02*
D03*
X448618Y405689D02*
D03*
X458618D02*
D03*
Y235689D02*
D03*
X448618Y225689D02*
D03*
X458618D02*
D03*
D70*
X129618Y495689D02*
D03*
X697618Y125689D02*
D03*
X129618D02*
D03*
X697618Y495689D02*
D03*
D71*
X134846Y180713D02*
D03*
Y177366D02*
D03*
Y174020D02*
D03*
Y170673D02*
D03*
Y167327D02*
D03*
Y163980D02*
D03*
Y160634D02*
D03*
Y157287D02*
D03*
X129532D02*
D03*
Y160634D02*
D03*
Y163980D02*
D03*
Y167327D02*
D03*
Y170673D02*
D03*
Y174020D02*
D03*
Y177366D02*
D03*
Y180713D02*
D03*
D72*
X130988Y186028D02*
D03*
Y151972D02*
D03*
D73*
X117681D02*
D03*
Y186028D02*
D03*
D74*
X542500Y466500D02*
D03*
X552500D02*
D03*
X542500Y446500D02*
D03*
X552500D02*
D03*
Y456500D02*
D03*
X542500D02*
D03*
X363618Y188689D02*
D03*
Y198689D02*
D03*
X373618D02*
D03*
Y188689D02*
D03*
X353618Y198689D02*
D03*
Y188689D02*
D03*
X346118Y441689D02*
D03*
Y451689D02*
D03*
X366118Y441689D02*
D03*
Y451689D02*
D03*
X356118D02*
D03*
Y441689D02*
D03*
X273618Y188689D02*
D03*
Y198689D02*
D03*
X293618Y188689D02*
D03*
Y198689D02*
D03*
X283618D02*
D03*
Y188689D02*
D03*
D75*
X423618Y198689D02*
D03*
X416118Y451689D02*
D03*
X343618Y198689D02*
D03*
D76*
X503000Y119000D02*
D03*
D77*
Y114000D02*
D03*
X498000Y119000D02*
D03*
Y114000D02*
D03*
X493000Y119000D02*
D03*
Y114000D02*
D03*
X488000D02*
D03*
X483000Y119000D02*
D03*
Y114000D02*
D03*
D78*
X235354Y458850D02*
D03*
Y453732D02*
D03*
X232618Y461410D02*
D03*
Y456291D02*
D03*
X235354Y463969D02*
D03*
X232618Y471646D02*
D03*
X235354Y469087D02*
D03*
X232618Y466528D02*
D03*
X285118Y465339D02*
D03*
Y455890D02*
D03*
Y459039D02*
D03*
Y470689D02*
D03*
Y473839D02*
D03*
Y476988D02*
D03*
Y462189D02*
D03*
Y480138D02*
D03*
X303618Y473839D02*
D03*
Y455890D02*
D03*
Y459039D02*
D03*
Y462189D02*
D03*
Y465339D02*
D03*
Y470689D02*
D03*
Y476988D02*
D03*
Y480138D02*
D03*
X491479Y268291D02*
D03*
X493118Y270850D02*
D03*
Y265732D02*
D03*
X491479Y278528D02*
D03*
X493118Y281087D02*
D03*
Y275969D02*
D03*
X461118Y263689D02*
D03*
Y266839D02*
D03*
Y269988D02*
D03*
Y277421D02*
D03*
Y280571D02*
D03*
Y283720D02*
D03*
M02*
