M48
;Layer_Color=9474304
;FILE_FORMAT=2:5
INCH,TZ
;TYPE=PLATED
T1F00S00C0.01181
T2F00S00C0.01575
T3F00S00C0.02362
T5F00S00C0.03543
%
T01
X153618Y116000
Y121000
Y126000
Y130689
Y136000
X162882Y137000
X172500
X182500
X192500
X202500
X205000Y146000
X196000
X197630Y153000
X188760
X187000Y146000
X179000
X167000Y149500
X212500Y153000
X217500
X226500
X225000Y146000
X235000
X237500Y153000
X246000Y151000
X252400
Y141000
X246000
X245500Y128000
Y123500
X254500Y122500
X255000Y129000
X265000
X264500Y122500
X274500
X275000Y129000
X285000
X284500Y122500
X294000
X294500Y129000
X304500
X304000Y122500
X312000Y112689
X289000
X266000
X244974
X230000Y116000
Y126000
X230346Y135576
X214000Y135500
Y130189
Y126000
Y121000
Y116000
X215000Y146000
X265500Y143221
X288500
X311500
X314500Y129000
X314000Y122500
X324000
X324500Y129000
X334500
X334000Y122500
X344000
X344500Y129000
X354500
X354000Y122500
X364000
X364500Y129000
X374516
X374000Y122500
X384000
X384500Y129000
X394500
X394000Y122500
X404000
X404500Y129000
X414500
X414000Y122500
X424000
X424500Y129000
X433516Y131369
X434000Y122500
X437439Y125000
X440264Y124816
X447000Y124899
Y121500
Y118000
Y110600
X439500Y110500
X439464Y114500
X439500Y117500
X427000Y112689
X404000
X381000
X358000
X335000
X334500Y143221
X357500
X380500
X403500
X446079Y144079
X453847Y146414
X460612Y136500
X466500
Y128099
X460612Y128000
X455799Y128045
X449500Y128000
X443300Y136500
X474278Y127520
X483000Y121900
Y116189
X481100Y111700
X487500Y109500
X497500
X507500
X506128Y120000
X510382
X514636
X514636Y126000
Y131000
Y136000
X510016Y139311
X503821
X498945Y132811
X498900Y125400
X495400Y125500
X489400Y128000
X490500Y141142
Y144079
X502500Y150900
X504600Y153000
X508500Y149600
X510324Y145346
X513300Y151700
X519660Y149016
X529658Y153000
X537157
X544658
X554658
X564657
X574657
X590658Y148500
X501874Y120000
X644158Y171500
X635658Y181500
X636295Y207000
X636158Y246500
X646158
X656157
X666157
Y261500
X656157
X646158
X636158
X626158
Y246500
X630457Y284900
X630258Y305400
X616157Y261500
X606157
X596158
X586158
X579131Y257500
X569158Y247500
X564157Y242500
X560658Y237564
X555657Y242500
Y232500
X554900Y227100
X553158Y225000
X555295Y222935
X553200Y220800
X554658Y216000
X542158Y213500
Y203500
Y193500
Y183500
Y173500
X545657Y162500
X537157
X529658
X519660Y165700
X510900Y163400
X513016Y170516
X512078Y175524
X518157Y175359
X520476Y185984
Y195242
Y205550
Y215812
X524500Y222900
X526700Y220900
X526657Y225000
X524500Y227100
X526530Y231600
X522137
X517600
X512008Y229343
X504121Y223079
X492316
X478556
X482200Y213593
X486400Y213500
X481564Y200099
X481536Y191099
X481136Y185299
X483318Y182759
X494846Y188038
X494550Y194300
X494600Y197450
X500140Y185303
X502200Y182800
X502500Y166516
X504600Y168500
X498052Y163500
X494946Y163371
X472584Y174466
X473000Y247700
X477923Y244342
X482200Y247600
X485000Y247700
X482200Y251056
X484200Y254500
X492000Y253700
X492018Y245078
X505000Y239200
X517620Y246500
X522222
X526800
X517600Y254500
X511400Y262500
X510016Y267142
X505600Y273200
X502200Y279500
X498781Y288456
X490700Y293000
X488900Y295100
X486000Y299000
X491707Y299682
X491604Y275775
X491854Y265539
X484200Y272500
X471705Y273280
X518157Y276000
X517100Y279500
X518358Y283000
X523357
X528358
X528158Y276000
X523158
X526158Y267500
X531157Y262500
X536158Y257500
X540658Y268500
Y282500
Y301000
X550658Y298500
X551657Y309943
X541400Y239200
X542658Y231500
X577658
X587657Y241500
X596158Y246500
X606157
X616157
X604892Y206500
X605657Y181500
X611909Y168890
X608658Y159000
X590658Y163500
X574657Y162500
X564657
X554658
X567658Y221500
X467902Y211500
X460866Y203248
X460359Y192123
X468500Y185300
X465219Y181500
Y172980
X456611Y164264
X439500Y163371
X435400Y165900
X426900Y161939
X413500Y169000
X385520
X366000
X343000
X320000
X316000Y209000
X336000
X356000
X376000
X396000
X416000
X426000
X427345Y195242
X435400Y186142
X439500Y184500
X430829Y181520
X426900Y224657
X433000Y242190
X460359Y248125
X458100Y255100
X458200Y266500
X459846Y288000
X456852Y293000
X454331Y295000
X449847Y298500
X449500Y306500
X459500
X465100Y297000
X449847Y288000
X429846
X419846
X410800
X402500
X392500
X382500
X372500
X362500
X352500
X342500
X332500
X322500
X313462
X322500Y298500
X322153Y306500
X332154
X342154
X342500Y298500
X352500
X352153Y306500
X362500Y298500
X372500
X372153Y306500
X382154
X382500Y298500
X392500
X392154Y306500
X402153
X410454
X410800Y298500
X402500
X419846
X419500Y306500
X429500
X429846Y298500
X446654Y213500
X312500Y309000
X285500Y302000
X280500Y307000
X290500Y297000
X295500Y292000
X295882Y208800
X297000Y169000
X274000
X253000Y171000
Y181000
Y191000
X243500Y185847
X232000Y186000
X222500
X213500
X214500Y177240
Y167000
X218500Y170500
X217500Y160894
X194000Y163500
X191000
X188000
X191000Y168500
X194000
Y173500
X197000
X191000
Y178500
X194000
Y184500
X197000
X191000
X188000
X176929Y185300
Y180300
X174400Y177912
Y173200
Y168200
Y163200
X170000Y163031
X164890Y166634
X166240Y170760
Y178240
X168500Y181900
Y185300
X169669Y196196
X162500
X157500
X181000Y166000
X213400Y195700
X222500Y196000
X232000
X239000
Y170500
X246000Y161000
X252400
X203000Y235500
X173000
Y265500
X203000
Y300500
X173000
X143000
Y265500
Y235500
X152500Y196196
X155500Y182252
X156000Y174500
X148049Y174500
X151500Y157972
X144500Y329500
X143500Y446000
Y462000
X171044Y461000
X182500Y464500
X189500Y466500
X192630Y463993
X197500Y464000
X202500
X207500
X212500
Y458000
X207500
X202500
X197500
X192500
X187500Y459500
X171044Y437000
X177000Y428000
X182000Y423000
X170279Y417000
X165279Y422000
X180279Y407000
X185279Y402000
X202000Y403000
X207000Y398000
X212000Y393000
X217000Y388000
X222000Y383000
X227000Y378000
X232000Y373000
X237000Y368000
X242000Y363000
X247000Y358000
X252000Y353000
X255000Y360000
X264000
X267500Y354000
X272500Y349000
X277500Y344000
X282500Y339000
X287500Y334000
X292500Y329000
X265500Y322000
X255500Y332000
X245500Y342000
X240279Y347000
X235279Y352000
X230279Y357000
X225279Y362000
X220279Y367000
X215279Y372000
X210279Y377000
X255000Y380000
X264000
Y370000
X255000Y370049
Y400000
X264000
X255000Y410000
Y420000
X264000
X265379Y438800
X252900Y439100
X251523Y430000
X277000
X275200Y434400
X284000Y440000
X288000Y430000
X284900Y418500
X298000Y420000
X307700
X308000Y409000
X297000Y410000
X273935Y456350
X253200Y457500
X248200
X243200
X238200
X233200
X228200
Y464500
X233200
X238200
X243200
X248200
X253200
X192000Y413000
X203000Y330500
X173000
X318000Y409000
X328000
X338000
X348000
X358000
X357700Y420000
X367700
X377700
X387700
X397700
X407700
X417700
X427700
X436000
X436300Y409000
X428000
X418000
X408000
X388000
X378000
X347700Y420000
X337700
X327700
X317700
X336000Y445928
X445500Y445418
X451700Y445300
Y435300
X445500Y435418
Y425418
X451700Y425300
X468100Y424000
X465900Y421400
X466000Y411400
X466396Y375689
X463680Y355000
X457431Y350725
X448118Y356000
Y332900
X457500Y333400
X461253Y326985
X451700Y455300
X445500Y455418
Y465418
X459431Y467480
X476100Y464500
X497258Y463400
X503400
X494450Y451750
Y448600
X487100
X489600Y451750
X501700Y441099
X502729Y419703
X482915Y421278
X473500Y421400
X470200
X469900Y411400
X473500Y410400
X473307Y400118
X473099Y375689
X478491Y368361
X481364Y359200
X482345Y351416
X490500Y354621
X500705Y356000
X511385Y352500
X521843Y356000
X520657Y369500
Y384500
X540557Y381400
Y391400
Y401400
Y411400
Y421400
Y431400
Y441400
Y451400
X540058Y461800
X547236Y464899
X558461Y456200
X558157Y446000
Y436000
X568827Y468510
X572358Y399300
X573957Y386900
X588008Y399500
X598158
X608157
X618157
Y411000
X608157
X598158
X588158
X617276Y376500
X611158Y352500
X596158
X581157
X566157
X542658Y355000
X540557Y371400
X548158Y334839
X540658Y314500
X501814Y317259
X488081Y314500
X485549Y328384
X477480Y322831
X469600Y360800
X499600Y399300
X644658Y375000
Y362500
X657258
X661158Y367500
X657258Y375000
X666657Y382000
X677800Y376999
X673158Y367500
X677800Y392846
Y412999
Y432999
Y451999
X662418Y449000
X652157
Y439000
X662157
X652157Y419000
X665158Y404347
X630158Y324181
X641257Y475000
X610658Y487953
X611800Y499700
X597800
X596658Y488000
X582158Y488200
Y498200
X570157Y498000
Y488800
X553200Y471000
X514157Y488494
X504400Y488000
X493251Y485100
X492651Y495630
X486600Y494032
X481501Y490503
X471254
X476100Y505000
X484968Y503000
X499100Y498600
X500820Y506142
X466100Y504769
X463000
X454500
X446961Y508981
X445500Y495500
Y485500
Y475500
X464824Y475158
X464800Y485500
X314522Y507000
X307500Y503000
X294000Y495200
X274000Y493683
Y478211
X270500Y469147
X280000Y469000
X246000Y470000
Y480000
Y490000
Y499899
X235000Y500000
Y490000
Y480000
Y470000
X186000
X184500Y474500
Y479500
X178500
Y474500
X178600Y469500
X181000Y500828
X171500Y512000
X143500Y476000
T02
X138032Y163287
Y166634
Y169980
Y173327
Y176673
Y180020
Y183366
Y186713
X143346
Y183366
Y180020
Y176673
Y173327
Y169980
Y166634
Y163287
T03
X452400Y114500
Y119500
X457400Y114500
X462400
Y119500
X467400
Y114500
X472400
Y119500
T05
X515158Y180500
Y190500
Y200500
Y210500
X525157
Y200500
Y190500
Y180500
Y289000
Y299000
Y309000
X515158
Y299000
Y289000
X458618Y235689
X448618
Y225689
X458618
X421000Y199000
X411000
X401000
X391000
X381000
X371000
Y189000
X381000
X391000
X401000
X411000
X421000
X361000
X351000
Y199000
X361000
X341000
Y189000
X331000
Y199000
X321000
Y189000
X311000
Y199000
X301000
Y189000
X291000
X281000
Y199000
X291000
X271000
Y189000
X207000Y191000
Y159000
X226200Y442000
X236200
X246200
Y452000
X236200
X226200
X343000
Y442000
X353000
X363000
Y452000
X373000
Y442000
X383000
Y452000
X393000
Y442000
X403000
Y452000
X413000
Y442000
X448618Y415689
X458618
Y405689
X448618
X454270Y370000
X353000Y452000
X515158Y455000
X525157
Y445000
Y435000
Y425000
Y415000
Y405000
Y395000
X515158
Y405000
Y415000
Y425000
Y435000
Y445000
Y465000
X525157
X487100Y370000
X470685
X515158Y319000
X525157
X170000Y475000
Y485000
Y495000
Y505000
M30
