G04*
G04 #@! TF.GenerationSoftware,Altium Limited,Altium Designer,19.1.8 (144)*
G04*
G04 Layer_Color=8388736*
%FSLAX25Y25*%
%MOIN*%
G70*
G01*
G75*
%ADD24R,0.56471X0.28848*%
%ADD25R,0.05050X0.03400*%
%ADD26R,0.05131X0.04737*%
G04:AMPARAMS|DCode=27|XSize=47.37mil|YSize=29.65mil|CornerRadius=9.41mil|HoleSize=0mil|Usage=FLASHONLY|Rotation=0.000|XOffset=0mil|YOffset=0mil|HoleType=Round|Shape=RoundedRectangle|*
%AMROUNDEDRECTD27*
21,1,0.04737,0.01083,0,0,0.0*
21,1,0.02854,0.02965,0,0,0.0*
1,1,0.01883,0.01427,-0.00541*
1,1,0.01883,-0.01427,-0.00541*
1,1,0.01883,-0.01427,0.00541*
1,1,0.01883,0.01427,0.00541*
%
%ADD27ROUNDEDRECTD27*%
%ADD28R,0.04737X0.05131*%
G04:AMPARAMS|DCode=29|XSize=51.31mil|YSize=47.37mil|CornerRadius=0mil|HoleSize=0mil|Usage=FLASHONLY|Rotation=150.000|XOffset=0mil|YOffset=0mil|HoleType=Round|Shape=Rectangle|*
%AMROTATEDRECTD29*
4,1,4,0.03406,0.00769,0.01037,-0.03334,-0.03406,-0.00769,-0.01037,0.03334,0.03406,0.00769,0.0*
%
%ADD29ROTATEDRECTD29*%

G04:AMPARAMS|DCode=30|XSize=51.31mil|YSize=47.37mil|CornerRadius=0mil|HoleSize=0mil|Usage=FLASHONLY|Rotation=120.000|XOffset=0mil|YOffset=0mil|HoleType=Round|Shape=Rectangle|*
%AMROTATEDRECTD30*
4,1,4,0.03334,-0.01037,-0.00769,-0.03406,-0.03334,0.01037,0.00769,0.03406,0.03334,-0.01037,0.0*
%
%ADD30ROTATEDRECTD30*%

G04:AMPARAMS|DCode=31|XSize=51.31mil|YSize=47.37mil|CornerRadius=0mil|HoleSize=0mil|Usage=FLASHONLY|Rotation=60.000|XOffset=0mil|YOffset=0mil|HoleType=Round|Shape=Rectangle|*
%AMROTATEDRECTD31*
4,1,4,0.00769,-0.03406,-0.03334,-0.01037,-0.00769,0.03406,0.03334,0.01037,0.00769,-0.03406,0.0*
%
%ADD31ROTATEDRECTD31*%

G04:AMPARAMS|DCode=32|XSize=51.31mil|YSize=47.37mil|CornerRadius=0mil|HoleSize=0mil|Usage=FLASHONLY|Rotation=30.000|XOffset=0mil|YOffset=0mil|HoleType=Round|Shape=Rectangle|*
%AMROTATEDRECTD32*
4,1,4,-0.01037,-0.03334,-0.03406,0.00769,0.01037,0.03334,0.03406,-0.00769,-0.01037,-0.03334,0.0*
%
%ADD32ROTATEDRECTD32*%

%ADD33R,0.05131X0.03359*%
G04:AMPARAMS|DCode=34|XSize=25.72mil|YSize=63.12mil|CornerRadius=5.95mil|HoleSize=0mil|Usage=FLASHONLY|Rotation=90.000|XOffset=0mil|YOffset=0mil|HoleType=Round|Shape=RoundedRectangle|*
%AMROUNDEDRECTD34*
21,1,0.02572,0.05122,0,0,90.0*
21,1,0.01382,0.06312,0,0,90.0*
1,1,0.01190,0.02561,0.00691*
1,1,0.01190,0.02561,-0.00691*
1,1,0.01190,-0.02561,-0.00691*
1,1,0.01190,-0.02561,0.00691*
%
%ADD34ROUNDEDRECTD34*%
%ADD35R,0.03800X0.04800*%
%ADD36R,0.04800X0.03800*%
%ADD37R,0.03162X0.03162*%
%ADD38R,0.03162X0.03162*%
G04:AMPARAMS|DCode=39|XSize=23.75mil|YSize=41.47mil|CornerRadius=7.94mil|HoleSize=0mil|Usage=FLASHONLY|Rotation=270.000|XOffset=0mil|YOffset=0mil|HoleType=Round|Shape=RoundedRectangle|*
%AMROUNDEDRECTD39*
21,1,0.02375,0.02559,0,0,270.0*
21,1,0.00787,0.04147,0,0,270.0*
1,1,0.01587,-0.01280,-0.00394*
1,1,0.01587,-0.01280,0.00394*
1,1,0.01587,0.01280,0.00394*
1,1,0.01587,0.01280,-0.00394*
%
%ADD39ROUNDEDRECTD39*%
%ADD40R,0.05524X0.06312*%
%ADD41R,0.04737X0.06706*%
%ADD42O,0.01981X0.09068*%
%ADD43O,0.09068X0.01981*%
%ADD44C,0.00500*%
%ADD45R,0.06706X0.05918*%
%ADD46R,0.05918X0.06706*%
%ADD47C,0.06312*%
%ADD48C,0.06706*%
%ADD49R,0.06706X0.06706*%
%ADD50C,0.06706*%
%ADD51C,0.06800*%
%ADD52R,0.06706X0.06706*%
%ADD53O,0.03359X0.03241*%
%ADD54O,0.10249X0.04343*%
%ADD55O,0.07493X0.04343*%
%ADD56C,0.04580*%
%ADD57R,0.04580X0.04580*%
D24*
X183764Y120615D02*
D03*
D25*
X448975Y167000D02*
D03*
D26*
X489597Y386000D02*
D03*
X482904D02*
D03*
X645504Y460000D02*
D03*
X638811D02*
D03*
X429846Y153421D02*
D03*
X423153D02*
D03*
X400153Y153500D02*
D03*
X406847D02*
D03*
X383846D02*
D03*
X377153D02*
D03*
X331153D02*
D03*
X337846D02*
D03*
X314846D02*
D03*
X308154D02*
D03*
X285154D02*
D03*
X291846D02*
D03*
X434000Y505899D02*
D03*
X427307D02*
D03*
X412307D02*
D03*
X419000D02*
D03*
X404000D02*
D03*
X397307D02*
D03*
X382307D02*
D03*
X389000D02*
D03*
X374000D02*
D03*
X367307D02*
D03*
X352307D02*
D03*
X359000D02*
D03*
X344000D02*
D03*
X337307D02*
D03*
X322307D02*
D03*
X329000D02*
D03*
X268847Y153500D02*
D03*
X262154D02*
D03*
X354153D02*
D03*
X360846D02*
D03*
X232347Y175685D02*
D03*
X225654D02*
D03*
X624004Y157500D02*
D03*
X617311D02*
D03*
X617311Y233500D02*
D03*
X624004D02*
D03*
X645504Y455000D02*
D03*
X638811D02*
D03*
X573004Y412000D02*
D03*
X566311D02*
D03*
X638811Y465000D02*
D03*
X645504D02*
D03*
X631004Y376500D02*
D03*
X624311D02*
D03*
X651630Y455000D02*
D03*
X658323D02*
D03*
X651630Y460000D02*
D03*
X658323D02*
D03*
X651630Y465000D02*
D03*
X658323D02*
D03*
X495346Y116000D02*
D03*
X488654D02*
D03*
X300857Y503000D02*
D03*
X294164D02*
D03*
X486844Y358700D02*
D03*
X493537D02*
D03*
X489954Y502400D02*
D03*
X496646D02*
D03*
X491854Y282500D02*
D03*
X498547D02*
D03*
X182153Y157500D02*
D03*
X188847D02*
D03*
X447335Y152000D02*
D03*
X454028D02*
D03*
X159846Y161500D02*
D03*
X153154D02*
D03*
X159846Y186713D02*
D03*
X153154D02*
D03*
X158346Y494000D02*
D03*
X151654D02*
D03*
X158346Y489000D02*
D03*
X151654D02*
D03*
X454028Y161000D02*
D03*
X447335D02*
D03*
X454028Y156500D02*
D03*
X447335Y156500D02*
D03*
X495346Y121100D02*
D03*
X488654D02*
D03*
X268847Y148500D02*
D03*
X262154D02*
D03*
X291846D02*
D03*
X285154D02*
D03*
X314846D02*
D03*
X308154D02*
D03*
X337846D02*
D03*
X331153D02*
D03*
X360846D02*
D03*
X354153D02*
D03*
X383846D02*
D03*
X377153D02*
D03*
X406847D02*
D03*
X400153D02*
D03*
X429846D02*
D03*
X423153D02*
D03*
X322307Y500899D02*
D03*
X329000D02*
D03*
X337307D02*
D03*
X344000D02*
D03*
X352307D02*
D03*
X359000D02*
D03*
X367307D02*
D03*
X374000D02*
D03*
X382307D02*
D03*
X389000D02*
D03*
X397307D02*
D03*
X404000D02*
D03*
X412307D02*
D03*
X419000D02*
D03*
X427307D02*
D03*
X434000D02*
D03*
X462446Y434400D02*
D03*
X455754D02*
D03*
X462446Y429500D02*
D03*
X455754D02*
D03*
D27*
X187000Y177240D02*
D03*
Y173500D02*
D03*
Y169760D02*
D03*
X197630Y177240D02*
D03*
Y169760D02*
D03*
D28*
X643157Y404347D02*
D03*
Y397654D02*
D03*
X265700Y451346D02*
D03*
Y444654D02*
D03*
X658658Y192154D02*
D03*
Y198846D02*
D03*
X582657Y198846D02*
D03*
Y192154D02*
D03*
X658658Y300654D02*
D03*
Y307347D02*
D03*
X618657D02*
D03*
Y300654D02*
D03*
Y280654D02*
D03*
Y287347D02*
D03*
X658658Y327346D02*
D03*
Y320654D02*
D03*
Y280654D02*
D03*
Y287347D02*
D03*
X618657Y327346D02*
D03*
Y320654D02*
D03*
X638658Y300654D02*
D03*
Y307347D02*
D03*
X638158Y404347D02*
D03*
Y397654D02*
D03*
X631157Y383154D02*
D03*
Y389846D02*
D03*
X648158Y397654D02*
D03*
Y404347D02*
D03*
X170000Y174747D02*
D03*
Y168053D02*
D03*
X638158Y391528D02*
D03*
Y384835D02*
D03*
X643157Y391528D02*
D03*
Y384835D02*
D03*
X648158Y391528D02*
D03*
Y384835D02*
D03*
X559657Y412153D02*
D03*
Y418847D02*
D03*
X197815Y157153D02*
D03*
Y163847D02*
D03*
X181700Y177347D02*
D03*
Y170653D02*
D03*
X449500Y132835D02*
D03*
Y139528D02*
D03*
X256200Y444654D02*
D03*
Y451346D02*
D03*
X243500Y174346D02*
D03*
Y167654D02*
D03*
X275700Y444654D02*
D03*
Y451346D02*
D03*
X459382Y175847D02*
D03*
Y169153D02*
D03*
X454500Y132835D02*
D03*
Y139528D02*
D03*
D29*
X642556Y226736D02*
D03*
X636759Y230082D02*
D03*
X598759Y164264D02*
D03*
X604556Y160918D02*
D03*
D30*
X651893Y217398D02*
D03*
X655240Y211602D02*
D03*
X589422Y173602D02*
D03*
X586075Y179398D02*
D03*
D31*
X655240Y179398D02*
D03*
X651893Y173602D02*
D03*
X586075Y211602D02*
D03*
X589422Y217398D02*
D03*
D32*
X636759Y160918D02*
D03*
X642556Y164264D02*
D03*
X604556Y230082D02*
D03*
X598759Y226736D02*
D03*
D33*
X162224Y178240D02*
D03*
Y174500D02*
D03*
Y170760D02*
D03*
X152776D02*
D03*
Y174500D02*
D03*
Y178240D02*
D03*
D34*
X477886Y275775D02*
D03*
Y273216D02*
D03*
Y270657D02*
D03*
Y268098D02*
D03*
Y265539D02*
D03*
Y262980D02*
D03*
Y260420D02*
D03*
Y257861D02*
D03*
Y255302D02*
D03*
Y252743D02*
D03*
Y250184D02*
D03*
Y247625D02*
D03*
X501114Y275775D02*
D03*
Y273216D02*
D03*
Y270657D02*
D03*
Y268098D02*
D03*
Y265539D02*
D03*
Y262980D02*
D03*
Y260420D02*
D03*
Y257861D02*
D03*
Y255302D02*
D03*
Y252743D02*
D03*
Y250184D02*
D03*
Y247625D02*
D03*
X499514Y467480D02*
D03*
Y470040D02*
D03*
Y472599D02*
D03*
Y475158D02*
D03*
Y477717D02*
D03*
Y480276D02*
D03*
Y482835D02*
D03*
Y485394D02*
D03*
Y487953D02*
D03*
Y490512D02*
D03*
Y493071D02*
D03*
Y495630D02*
D03*
X476286Y467480D02*
D03*
Y470040D02*
D03*
Y472599D02*
D03*
Y475158D02*
D03*
Y477717D02*
D03*
Y480276D02*
D03*
Y482835D02*
D03*
Y485394D02*
D03*
Y487953D02*
D03*
Y490512D02*
D03*
Y493071D02*
D03*
Y495630D02*
D03*
X477086Y351416D02*
D03*
Y348857D02*
D03*
Y346298D02*
D03*
Y343739D02*
D03*
Y341179D02*
D03*
Y338620D02*
D03*
Y336061D02*
D03*
Y333502D02*
D03*
Y330943D02*
D03*
Y328384D02*
D03*
X500314Y351416D02*
D03*
Y348857D02*
D03*
Y346298D02*
D03*
Y343739D02*
D03*
Y341179D02*
D03*
Y338620D02*
D03*
Y336061D02*
D03*
Y333502D02*
D03*
Y330943D02*
D03*
Y328384D02*
D03*
X278686Y497516D02*
D03*
Y494957D02*
D03*
Y492398D02*
D03*
Y489839D02*
D03*
Y487280D02*
D03*
Y484721D02*
D03*
Y482161D02*
D03*
Y479602D02*
D03*
Y477043D02*
D03*
Y474484D02*
D03*
X301914Y497516D02*
D03*
Y494957D02*
D03*
Y492398D02*
D03*
Y489839D02*
D03*
Y487280D02*
D03*
Y484721D02*
D03*
Y482161D02*
D03*
Y479602D02*
D03*
Y477043D02*
D03*
Y474484D02*
D03*
D35*
X616776Y463189D02*
D03*
X631539D02*
D03*
Y486811D02*
D03*
X616776D02*
D03*
X581539Y398811D02*
D03*
X566776D02*
D03*
Y375189D02*
D03*
X581539D02*
D03*
X236382Y137189D02*
D03*
X221618D02*
D03*
Y160811D02*
D03*
X236382D02*
D03*
X272882Y113189D02*
D03*
X258118D02*
D03*
Y136811D02*
D03*
X272882D02*
D03*
X295882Y113189D02*
D03*
X281118D02*
D03*
Y136811D02*
D03*
X295882D02*
D03*
X318882Y113189D02*
D03*
X304118D02*
D03*
Y136811D02*
D03*
X318882D02*
D03*
X341882Y113189D02*
D03*
X327118D02*
D03*
Y136811D02*
D03*
X341882D02*
D03*
X364882Y113189D02*
D03*
X350118D02*
D03*
Y136811D02*
D03*
X364882D02*
D03*
X387882Y113189D02*
D03*
X373118D02*
D03*
Y136811D02*
D03*
X387882D02*
D03*
X410882Y113189D02*
D03*
X396118D02*
D03*
Y136811D02*
D03*
X410882D02*
D03*
X433882Y113189D02*
D03*
X419118D02*
D03*
Y136811D02*
D03*
X433882D02*
D03*
D36*
X646347Y426382D02*
D03*
Y411618D02*
D03*
X669969D02*
D03*
Y426382D02*
D03*
X581968Y461618D02*
D03*
Y476382D02*
D03*
X558347D02*
D03*
Y461618D02*
D03*
X156811Y457287D02*
D03*
Y442524D02*
D03*
X133189D02*
D03*
Y457287D02*
D03*
Y482382D02*
D03*
Y467618D02*
D03*
X156811D02*
D03*
Y482382D02*
D03*
D37*
X595776Y300299D02*
D03*
Y297150D02*
D03*
Y294000D02*
D03*
Y290850D02*
D03*
X590658D02*
D03*
Y294000D02*
D03*
Y297150D02*
D03*
Y300299D02*
D03*
X595776Y317299D02*
D03*
Y314150D02*
D03*
Y311000D02*
D03*
Y307850D02*
D03*
X590658D02*
D03*
Y311000D02*
D03*
Y314150D02*
D03*
Y317299D02*
D03*
X522157Y153201D02*
D03*
X522157Y156350D02*
D03*
X522157Y159500D02*
D03*
Y162650D02*
D03*
X517039Y162650D02*
D03*
X517039Y159500D02*
D03*
Y156350D02*
D03*
X517039Y153201D02*
D03*
X502218Y308650D02*
D03*
X502218Y305500D02*
D03*
Y302350D02*
D03*
X502218Y299201D02*
D03*
X497100D02*
D03*
X497100Y302350D02*
D03*
X497100Y305500D02*
D03*
X497100Y308650D02*
D03*
X308618Y445000D02*
D03*
Y441850D02*
D03*
Y438701D02*
D03*
Y435551D02*
D03*
X303500D02*
D03*
Y438701D02*
D03*
Y441850D02*
D03*
Y445000D02*
D03*
X496882Y445250D02*
D03*
Y448400D02*
D03*
Y451550D02*
D03*
Y454699D02*
D03*
X502000D02*
D03*
Y451550D02*
D03*
Y448400D02*
D03*
Y445250D02*
D03*
X496882Y424801D02*
D03*
Y427950D02*
D03*
Y431100D02*
D03*
Y434250D02*
D03*
X502000D02*
D03*
Y431100D02*
D03*
Y427950D02*
D03*
Y424801D02*
D03*
X496882Y405301D02*
D03*
Y408450D02*
D03*
Y411600D02*
D03*
Y414750D02*
D03*
X502000D02*
D03*
Y411600D02*
D03*
Y408450D02*
D03*
Y405301D02*
D03*
X502300Y191150D02*
D03*
Y194300D02*
D03*
Y197450D02*
D03*
Y200599D02*
D03*
X497182D02*
D03*
Y197450D02*
D03*
Y194300D02*
D03*
Y191150D02*
D03*
X486800Y200599D02*
D03*
X486800Y197450D02*
D03*
X486800Y194300D02*
D03*
Y191150D02*
D03*
X491918Y191150D02*
D03*
X491918Y194300D02*
D03*
Y197450D02*
D03*
X491918Y200599D02*
D03*
X463700Y341250D02*
D03*
X463700Y344400D02*
D03*
Y347550D02*
D03*
X463700Y350699D02*
D03*
X468818Y350699D02*
D03*
Y347550D02*
D03*
X468818Y344400D02*
D03*
X468818Y341250D02*
D03*
X303500Y459500D02*
D03*
Y456350D02*
D03*
Y453201D02*
D03*
Y450051D02*
D03*
X308618D02*
D03*
Y453201D02*
D03*
Y456350D02*
D03*
Y459500D02*
D03*
X256118Y471977D02*
D03*
Y475126D02*
D03*
Y478276D02*
D03*
Y481426D02*
D03*
X251000D02*
D03*
Y478276D02*
D03*
Y475126D02*
D03*
Y471977D02*
D03*
X256118Y490533D02*
D03*
Y493683D02*
D03*
Y496833D02*
D03*
Y499982D02*
D03*
X251000D02*
D03*
Y496833D02*
D03*
Y493683D02*
D03*
Y490533D02*
D03*
X452400Y264850D02*
D03*
Y268000D02*
D03*
Y271150D02*
D03*
Y274299D02*
D03*
X447282D02*
D03*
Y271150D02*
D03*
Y268000D02*
D03*
Y264850D02*
D03*
X452418Y250701D02*
D03*
Y253850D02*
D03*
Y257000D02*
D03*
Y260150D02*
D03*
X447300D02*
D03*
Y257000D02*
D03*
Y253850D02*
D03*
Y250701D02*
D03*
D38*
X555807Y261500D02*
D03*
X552658D02*
D03*
X549508D02*
D03*
X546358D02*
D03*
Y256382D02*
D03*
X549508D02*
D03*
X552658D02*
D03*
X555807D02*
D03*
D39*
X261271Y475717D02*
D03*
Y478276D02*
D03*
Y480835D02*
D03*
X270129D02*
D03*
Y478276D02*
D03*
Y475717D02*
D03*
X270429Y491189D02*
D03*
Y493748D02*
D03*
Y496307D02*
D03*
X261571D02*
D03*
Y493748D02*
D03*
Y491189D02*
D03*
X470329Y269041D02*
D03*
Y266482D02*
D03*
Y263923D02*
D03*
X461471D02*
D03*
Y266482D02*
D03*
Y269041D02*
D03*
Y257659D02*
D03*
Y255100D02*
D03*
Y252541D02*
D03*
X470329D02*
D03*
Y255100D02*
D03*
Y257659D02*
D03*
X469429Y477659D02*
D03*
Y475100D02*
D03*
Y472541D02*
D03*
X460571D02*
D03*
Y475100D02*
D03*
Y477659D02*
D03*
Y487959D02*
D03*
Y485400D02*
D03*
Y482841D02*
D03*
X469429D02*
D03*
Y485400D02*
D03*
Y487959D02*
D03*
X470129Y335959D02*
D03*
Y333400D02*
D03*
Y330841D02*
D03*
X461271D02*
D03*
Y333400D02*
D03*
Y335959D02*
D03*
X487689Y185318D02*
D03*
Y182759D02*
D03*
Y180200D02*
D03*
X496547D02*
D03*
Y182759D02*
D03*
Y185318D02*
D03*
D40*
X510150Y125669D02*
D03*
X503850D02*
D03*
Y134331D02*
D03*
X510150D02*
D03*
D41*
X167669Y190500D02*
D03*
X176331D02*
D03*
D42*
X469673Y166142D02*
D03*
X471642D02*
D03*
X473610D02*
D03*
X475579D02*
D03*
X477547D02*
D03*
X479516D02*
D03*
X481484D02*
D03*
X483453D02*
D03*
X485421D02*
D03*
X487390D02*
D03*
X489358D02*
D03*
X491327D02*
D03*
Y133858D02*
D03*
X489358D02*
D03*
X487390D02*
D03*
X485421D02*
D03*
X483453D02*
D03*
X481484D02*
D03*
X479516D02*
D03*
X477547D02*
D03*
X475579D02*
D03*
X473610D02*
D03*
X471642D02*
D03*
X469673D02*
D03*
D43*
X496642Y160827D02*
D03*
Y158858D02*
D03*
Y156890D02*
D03*
Y154921D02*
D03*
Y152953D02*
D03*
Y150984D02*
D03*
Y149016D02*
D03*
Y147047D02*
D03*
Y145079D02*
D03*
Y143110D02*
D03*
Y141142D02*
D03*
Y139173D02*
D03*
X464358D02*
D03*
Y141142D02*
D03*
Y143110D02*
D03*
Y145079D02*
D03*
Y147047D02*
D03*
Y149016D02*
D03*
Y150984D02*
D03*
Y152953D02*
D03*
Y154921D02*
D03*
Y156890D02*
D03*
Y158858D02*
D03*
Y160827D02*
D03*
D44*
X446900Y167000D02*
D03*
X451100D02*
D03*
D45*
X206500Y169760D02*
D03*
Y177240D02*
D03*
D46*
X188760Y190500D02*
D03*
X196240D02*
D03*
D47*
X485000Y370000D02*
D03*
X207000Y159000D02*
D03*
Y191000D02*
D03*
X470000Y388500D02*
D03*
X455000Y370000D02*
D03*
X470000D02*
D03*
D48*
X515158Y455000D02*
D03*
X525157D02*
D03*
Y445000D02*
D03*
X515158D02*
D03*
X525157Y465000D02*
D03*
X515158D02*
D03*
X351000Y189000D02*
D03*
Y199000D02*
D03*
X371000Y189000D02*
D03*
Y199000D02*
D03*
X361000D02*
D03*
Y189000D02*
D03*
X281000D02*
D03*
Y199000D02*
D03*
X291000D02*
D03*
Y189000D02*
D03*
X271000Y199000D02*
D03*
Y189000D02*
D03*
X343000Y442000D02*
D03*
Y452000D02*
D03*
X363000Y442000D02*
D03*
Y452000D02*
D03*
X353000D02*
D03*
Y442000D02*
D03*
D49*
X525157Y395000D02*
D03*
Y180500D02*
D03*
Y289000D02*
D03*
X448618Y415689D02*
D03*
Y235689D02*
D03*
D50*
X515158Y395000D02*
D03*
X525157Y405000D02*
D03*
X515158D02*
D03*
X525157Y415000D02*
D03*
X515158D02*
D03*
X525157Y425000D02*
D03*
X515158D02*
D03*
Y435000D02*
D03*
X525157D02*
D03*
X515158Y210500D02*
D03*
X525157D02*
D03*
X515158Y200500D02*
D03*
X525157D02*
D03*
X515158Y190500D02*
D03*
X525157D02*
D03*
X515158Y180500D02*
D03*
Y319000D02*
D03*
X525157D02*
D03*
X515158Y309000D02*
D03*
X525157D02*
D03*
X515158Y299000D02*
D03*
X525157D02*
D03*
X515158Y289000D02*
D03*
X381000Y199000D02*
D03*
Y189000D02*
D03*
X391000D02*
D03*
Y199000D02*
D03*
X401000Y189000D02*
D03*
Y199000D02*
D03*
X411000Y189000D02*
D03*
Y199000D02*
D03*
X421000Y189000D02*
D03*
X341000D02*
D03*
X331000Y199000D02*
D03*
Y189000D02*
D03*
X321000Y199000D02*
D03*
Y189000D02*
D03*
X311000Y199000D02*
D03*
Y189000D02*
D03*
X301000D02*
D03*
Y199000D02*
D03*
X458618Y415689D02*
D03*
X448618Y405689D02*
D03*
X458618D02*
D03*
Y235689D02*
D03*
X448618Y225689D02*
D03*
X458618D02*
D03*
X246200Y442000D02*
D03*
X236200Y452000D02*
D03*
Y442000D02*
D03*
X226200Y452000D02*
D03*
Y442000D02*
D03*
X373000Y452000D02*
D03*
Y442000D02*
D03*
X383000D02*
D03*
Y452000D02*
D03*
X393000Y442000D02*
D03*
Y452000D02*
D03*
X403000Y442000D02*
D03*
Y452000D02*
D03*
X413000Y442000D02*
D03*
D51*
X170000Y505000D02*
D03*
Y495000D02*
D03*
Y485000D02*
D03*
Y475000D02*
D03*
D52*
X421000Y199000D02*
D03*
X341000D02*
D03*
X246200Y452000D02*
D03*
X413000D02*
D03*
D53*
X143346Y186713D02*
D03*
Y183366D02*
D03*
Y180020D02*
D03*
Y176673D02*
D03*
Y173327D02*
D03*
Y169980D02*
D03*
Y166634D02*
D03*
Y163287D02*
D03*
X138032D02*
D03*
Y166634D02*
D03*
Y169980D02*
D03*
Y173327D02*
D03*
Y176673D02*
D03*
Y180020D02*
D03*
Y183366D02*
D03*
Y186713D02*
D03*
D54*
X139488Y192028D02*
D03*
Y157972D02*
D03*
D55*
X126181D02*
D03*
Y192028D02*
D03*
D56*
X452400Y114500D02*
D03*
Y119500D02*
D03*
X457400Y114500D02*
D03*
X462400D02*
D03*
Y119500D02*
D03*
X467400Y114500D02*
D03*
Y119500D02*
D03*
X472400Y114500D02*
D03*
D57*
Y119500D02*
D03*
M02*
