G04*
G04 #@! TF.GenerationSoftware,Altium Limited,Altium Designer,19.1.8 (144)*
G04*
G04 Layer_Physical_Order=2*
G04 Layer_Color=16711680*
%FSLAX25Y25*%
%MOIN*%
G70*
G01*
G75*
%ADD10C,0.01000*%
%ADD11C,0.03000*%
%ADD16C,0.02000*%
%ADD80R,0.05906X0.05906*%
%ADD81C,0.05906*%
%ADD82O,0.02559X0.02441*%
%ADD83O,0.09449X0.03543*%
%ADD84O,0.06693X0.03543*%
%ADD85C,0.05512*%
%ADD86C,0.03780*%
%ADD87R,0.03780X0.03780*%
%ADD88C,0.06000*%
%ADD89R,0.05906X0.05906*%
%ADD90C,0.05906*%
%ADD91C,0.01968*%
G36*
X680108Y517648D02*
X682237Y517224D01*
X684314Y516594D01*
X686319Y515763D01*
X688234Y514740D01*
X690039Y513534D01*
X691717Y512157D01*
X693252Y510622D01*
X694629Y508944D01*
X695835Y507139D01*
X696858Y505225D01*
X697689Y503220D01*
X698319Y501142D01*
X698742Y499013D01*
X698955Y496853D01*
X698955Y495768D01*
X698955Y495768D01*
X698955Y495768D01*
X698955Y129626D01*
Y128541D01*
X698742Y126380D01*
X698319Y124251D01*
X697689Y122174D01*
X696858Y120169D01*
X695835Y118254D01*
X694629Y116450D01*
X693252Y114772D01*
X691717Y113237D01*
X690039Y111860D01*
X688234Y110654D01*
X686319Y109630D01*
X684314Y108800D01*
X682237Y108169D01*
X680108Y107746D01*
X677948Y107533D01*
X132470D01*
X130309Y107746D01*
X128181Y108169D01*
X126103Y108800D01*
X124098Y109630D01*
X122184Y110654D01*
X120379Y111860D01*
X118701Y113237D01*
X117166Y114772D01*
X115789Y116450D01*
X114583Y118254D01*
X113559Y120169D01*
X112729Y122174D01*
X112099Y124251D01*
X111675Y126380D01*
X111462Y128541D01*
X111462Y129626D01*
X111462Y495768D01*
X111462Y496853D01*
X111675Y499013D01*
X112099Y501142D01*
X112729Y503220D01*
X113559Y505225D01*
X114583Y507139D01*
X115789Y508944D01*
X117166Y510622D01*
X118701Y512157D01*
X120379Y513534D01*
X122184Y514740D01*
X124098Y515763D01*
X126103Y516594D01*
X128181Y517224D01*
X130309Y517648D01*
X132470Y517861D01*
X133555Y517860D01*
X133555Y517860D01*
X133555Y517860D01*
X676862Y517861D01*
X677948D01*
X680108Y517648D01*
D02*
G37*
%LPC*%
G36*
X170000Y508530D02*
X169086Y508410D01*
X168235Y508057D01*
X167504Y507496D01*
X166943Y506765D01*
X166590Y505914D01*
X166470Y505000D01*
X166590Y504086D01*
X166943Y503235D01*
X167504Y502504D01*
X168235Y501943D01*
X169086Y501590D01*
X170000Y501470D01*
X170914Y501590D01*
X171765Y501943D01*
X172496Y502504D01*
X173057Y503235D01*
X173410Y504086D01*
X173530Y505000D01*
X173410Y505914D01*
X173057Y506765D01*
X172496Y507496D01*
X171765Y508057D01*
X170914Y508410D01*
X170000Y508530D01*
D02*
G37*
G36*
Y498530D02*
X169086Y498410D01*
X168235Y498057D01*
X167504Y497496D01*
X166943Y496765D01*
X166590Y495914D01*
X166470Y495000D01*
X166590Y494086D01*
X166943Y493235D01*
X167504Y492504D01*
X168235Y491943D01*
X169086Y491590D01*
X170000Y491470D01*
X170914Y491590D01*
X171765Y491943D01*
X172496Y492504D01*
X173057Y493235D01*
X173410Y494086D01*
X173530Y495000D01*
X173410Y495914D01*
X173057Y496765D01*
X172496Y497496D01*
X171765Y498057D01*
X170914Y498410D01*
X170000Y498530D01*
D02*
G37*
G36*
X583000Y499513D02*
X582421Y499398D01*
X581930Y499070D01*
X581602Y498579D01*
X581487Y498000D01*
X581602Y497421D01*
X581930Y496930D01*
X581980Y496896D01*
Y489904D01*
X581930Y489870D01*
X581602Y489379D01*
X581487Y488800D01*
X581602Y488221D01*
X581930Y487730D01*
X582421Y487402D01*
X583000Y487287D01*
X583579Y487402D01*
X584070Y487730D01*
X584398Y488221D01*
X584513Y488800D01*
X584398Y489379D01*
X584070Y489870D01*
X584020Y489904D01*
Y496896D01*
X584070Y496930D01*
X584398Y497421D01*
X584513Y498000D01*
X584398Y498579D01*
X584070Y499070D01*
X583579Y499398D01*
X583000Y499513D01*
D02*
G37*
G36*
X595000Y499713D02*
X594421Y499598D01*
X593930Y499270D01*
X593602Y498779D01*
X593487Y498200D01*
X593602Y497621D01*
X593930Y497130D01*
X593980Y497096D01*
Y489304D01*
X593930Y489270D01*
X593602Y488779D01*
X593487Y488200D01*
X593602Y487621D01*
X593930Y487130D01*
X594421Y486802D01*
X595000Y486687D01*
X595579Y486802D01*
X596070Y487130D01*
X596398Y487621D01*
X596513Y488200D01*
X596398Y488779D01*
X596070Y489270D01*
X596020Y489304D01*
Y497096D01*
X596070Y497130D01*
X596398Y497621D01*
X596513Y498200D01*
X596398Y498779D01*
X596070Y499270D01*
X595579Y499598D01*
X595000Y499713D01*
D02*
G37*
G36*
X507000Y500313D02*
X506421Y500198D01*
X505930Y499870D01*
X505602Y499379D01*
X505487Y498800D01*
X505602Y498221D01*
X505930Y497730D01*
X505980Y497696D01*
Y496153D01*
X506058Y495763D01*
X506279Y495433D01*
X512080Y489631D01*
Y489004D01*
X512030Y488970D01*
X511702Y488479D01*
X511587Y487900D01*
X511702Y487321D01*
X512030Y486830D01*
X512521Y486502D01*
X513100Y486387D01*
X513679Y486502D01*
X514170Y486830D01*
X514498Y487321D01*
X514613Y487900D01*
X514498Y488479D01*
X514170Y488970D01*
X514120Y489004D01*
Y490054D01*
X514042Y490444D01*
X513821Y490774D01*
X508020Y496576D01*
Y497696D01*
X508070Y497730D01*
X508398Y498221D01*
X508513Y498800D01*
X508398Y499379D01*
X508070Y499870D01*
X507579Y500198D01*
X507000Y500313D01*
D02*
G37*
G36*
X170000Y488530D02*
X169086Y488410D01*
X168235Y488057D01*
X167504Y487496D01*
X166943Y486765D01*
X166590Y485914D01*
X166470Y485000D01*
X166590Y484086D01*
X166943Y483235D01*
X167504Y482504D01*
X168235Y481943D01*
X169086Y481590D01*
X170000Y481470D01*
X170914Y481590D01*
X171765Y481943D01*
X172496Y482504D01*
X173057Y483235D01*
X173410Y484086D01*
X173530Y485000D01*
X173410Y485914D01*
X173057Y486765D01*
X172496Y487496D01*
X171765Y488057D01*
X170914Y488410D01*
X170000Y488530D01*
D02*
G37*
G36*
X170500Y478969D02*
Y475500D01*
X173969D01*
X173897Y476044D01*
X173494Y477017D01*
X172853Y477853D01*
X172017Y478494D01*
X171044Y478897D01*
X170500Y478969D01*
D02*
G37*
G36*
X169500D02*
X168956Y478897D01*
X167983Y478494D01*
X167147Y477853D01*
X166506Y477017D01*
X166103Y476044D01*
X166031Y475500D01*
X169500D01*
Y478969D01*
D02*
G37*
G36*
X173969Y474500D02*
X170500D01*
Y471031D01*
X171044Y471103D01*
X172017Y471506D01*
X172853Y472147D01*
X173494Y472983D01*
X173897Y473956D01*
X173969Y474500D01*
D02*
G37*
G36*
X169500D02*
X166031D01*
X166103Y473956D01*
X166506Y472983D01*
X167147Y472147D01*
X167983Y471506D01*
X168956Y471103D01*
X169500Y471031D01*
Y474500D01*
D02*
G37*
G36*
X567000Y472513D02*
X566421Y472398D01*
X565930Y472070D01*
X565602Y471579D01*
X565487Y471000D01*
X565498Y470940D01*
X560560Y466002D01*
X560500Y466013D01*
X559921Y465898D01*
X559430Y465570D01*
X559102Y465079D01*
X558987Y464500D01*
X559102Y463921D01*
X559430Y463430D01*
X559921Y463102D01*
X560500Y462987D01*
X561079Y463102D01*
X561570Y463430D01*
X561898Y463921D01*
X562013Y464500D01*
X562002Y464560D01*
X566940Y469498D01*
X567000Y469487D01*
X567579Y469602D01*
X568070Y469930D01*
X568398Y470421D01*
X568513Y471000D01*
X568398Y471579D01*
X568070Y472070D01*
X567579Y472398D01*
X567000Y472513D01*
D02*
G37*
G36*
X535000Y468482D02*
X534099Y468364D01*
X533259Y468016D01*
X532538Y467462D01*
X531984Y466741D01*
X531636Y465901D01*
X531518Y465000D01*
X531636Y464099D01*
X531984Y463259D01*
X532538Y462537D01*
X533259Y461984D01*
X534099Y461636D01*
X535000Y461517D01*
X535901Y461636D01*
X536741Y461984D01*
X537463Y462537D01*
X538016Y463259D01*
X538364Y464099D01*
X538483Y465000D01*
X538364Y465901D01*
X538016Y466741D01*
X537463Y467462D01*
X536741Y468016D01*
X535901Y468364D01*
X535000Y468482D01*
D02*
G37*
G36*
X525000D02*
X524099Y468364D01*
X523259Y468016D01*
X522538Y467462D01*
X521984Y466741D01*
X521636Y465901D01*
X521518Y465000D01*
X521636Y464099D01*
X521984Y463259D01*
X522538Y462537D01*
X523259Y461984D01*
X524099Y461636D01*
X525000Y461517D01*
X525901Y461636D01*
X526741Y461984D01*
X527462Y462537D01*
X528016Y463259D01*
X528364Y464099D01*
X528482Y465000D01*
X528364Y465901D01*
X528016Y466741D01*
X527462Y467462D01*
X526741Y468016D01*
X525901Y468364D01*
X525000Y468482D01*
D02*
G37*
G36*
X504350Y453163D02*
X503771Y453048D01*
X503280Y452720D01*
X503247Y452669D01*
X500604D01*
X500570Y452720D01*
X500079Y453048D01*
X499500Y453163D01*
X498921Y453048D01*
X498430Y452720D01*
X498102Y452229D01*
X497987Y451650D01*
X498102Y451070D01*
X498430Y450580D01*
X498921Y450251D01*
X499500Y450136D01*
X500079Y450251D01*
X500570Y450580D01*
X500604Y450630D01*
X503247D01*
X503280Y450580D01*
X503620Y450353D01*
X503636Y450306D01*
Y449844D01*
X503620Y449797D01*
X503280Y449570D01*
X503247Y449520D01*
X498104D01*
X498070Y449570D01*
X497579Y449898D01*
X497000Y450013D01*
X496421Y449898D01*
X495930Y449570D01*
X495602Y449079D01*
X495487Y448500D01*
X495602Y447921D01*
X495930Y447430D01*
X496421Y447102D01*
X497000Y446987D01*
X497579Y447102D01*
X498070Y447430D01*
X498104Y447480D01*
X503247D01*
X503280Y447430D01*
X503771Y447102D01*
X504350Y446987D01*
X504929Y447102D01*
X505420Y447430D01*
X505749Y447921D01*
X505864Y448500D01*
X505749Y449079D01*
X505420Y449570D01*
X505081Y449797D01*
X505065Y449844D01*
Y450306D01*
X505081Y450353D01*
X505420Y450580D01*
X505749Y451070D01*
X505864Y451650D01*
X505749Y452229D01*
X505420Y452720D01*
X504929Y453048D01*
X504350Y453163D01*
D02*
G37*
G36*
X535000Y458483D02*
X534099Y458364D01*
X533259Y458016D01*
X532538Y457463D01*
X531984Y456741D01*
X531636Y455901D01*
X531518Y455000D01*
X531636Y454099D01*
X531984Y453259D01*
X532538Y452537D01*
X533259Y451984D01*
X534099Y451636D01*
X535000Y451517D01*
X535901Y451636D01*
X536741Y451984D01*
X537463Y452537D01*
X538016Y453259D01*
X538364Y454099D01*
X538483Y455000D01*
X538364Y455901D01*
X538016Y456741D01*
X537463Y457463D01*
X536741Y458016D01*
X535901Y458364D01*
X535000Y458483D01*
D02*
G37*
G36*
X525000D02*
X524099Y458364D01*
X523259Y458016D01*
X522538Y457463D01*
X521984Y456741D01*
X521636Y455901D01*
X521518Y455000D01*
X521636Y454099D01*
X521984Y453259D01*
X522538Y452537D01*
X523259Y451984D01*
X524099Y451636D01*
X525000Y451517D01*
X525901Y451636D01*
X526741Y451984D01*
X527462Y452537D01*
X528016Y453259D01*
X528364Y454099D01*
X528482Y455000D01*
X528364Y455901D01*
X528016Y456741D01*
X527462Y457463D01*
X526741Y458016D01*
X525901Y458364D01*
X525000Y458483D01*
D02*
G37*
G36*
X416453Y455453D02*
X409547D01*
Y448547D01*
X416453D01*
Y455453D01*
D02*
G37*
G36*
X249653D02*
X242747D01*
Y448547D01*
X249653D01*
Y455453D01*
D02*
G37*
G36*
X403000Y455482D02*
X402099Y455364D01*
X401259Y455016D01*
X400537Y454462D01*
X399984Y453741D01*
X399636Y452901D01*
X399517Y452000D01*
X399636Y451099D01*
X399984Y450259D01*
X400537Y449538D01*
X401259Y448984D01*
X402099Y448636D01*
X403000Y448518D01*
X403901Y448636D01*
X404741Y448984D01*
X405463Y449538D01*
X406016Y450259D01*
X406364Y451099D01*
X406483Y452000D01*
X406364Y452901D01*
X406016Y453741D01*
X405463Y454462D01*
X404741Y455016D01*
X403901Y455364D01*
X403000Y455482D01*
D02*
G37*
G36*
X393000D02*
X392099Y455364D01*
X391259Y455016D01*
X390538Y454462D01*
X389984Y453741D01*
X389636Y452901D01*
X389517Y452000D01*
X389636Y451099D01*
X389984Y450259D01*
X390538Y449538D01*
X391259Y448984D01*
X392099Y448636D01*
X393000Y448518D01*
X393901Y448636D01*
X394741Y448984D01*
X395462Y449538D01*
X396016Y450259D01*
X396364Y451099D01*
X396482Y452000D01*
X396364Y452901D01*
X396016Y453741D01*
X395462Y454462D01*
X394741Y455016D01*
X393901Y455364D01*
X393000Y455482D01*
D02*
G37*
G36*
X383000D02*
X382099Y455364D01*
X381259Y455016D01*
X380538Y454462D01*
X379984Y453741D01*
X379636Y452901D01*
X379518Y452000D01*
X379636Y451099D01*
X379984Y450259D01*
X380538Y449538D01*
X381259Y448984D01*
X382099Y448636D01*
X383000Y448518D01*
X383901Y448636D01*
X384741Y448984D01*
X385462Y449538D01*
X386016Y450259D01*
X386364Y451099D01*
X386483Y452000D01*
X386364Y452901D01*
X386016Y453741D01*
X385462Y454462D01*
X384741Y455016D01*
X383901Y455364D01*
X383000Y455482D01*
D02*
G37*
G36*
X373000D02*
X372099Y455364D01*
X371259Y455016D01*
X370537Y454462D01*
X369984Y453741D01*
X369636Y452901D01*
X369517Y452000D01*
X369636Y451099D01*
X369984Y450259D01*
X370537Y449538D01*
X371259Y448984D01*
X372099Y448636D01*
X373000Y448518D01*
X373901Y448636D01*
X374741Y448984D01*
X375463Y449538D01*
X376016Y450259D01*
X376364Y451099D01*
X376483Y452000D01*
X376364Y452901D01*
X376016Y453741D01*
X375463Y454462D01*
X374741Y455016D01*
X373901Y455364D01*
X373000Y455482D01*
D02*
G37*
G36*
X363000D02*
X362099Y455364D01*
X361259Y455016D01*
X360538Y454462D01*
X359984Y453741D01*
X359636Y452901D01*
X359518Y452000D01*
X359636Y451099D01*
X359984Y450259D01*
X360538Y449538D01*
X361259Y448984D01*
X362099Y448636D01*
X363000Y448518D01*
X363901Y448636D01*
X364741Y448984D01*
X365462Y449538D01*
X366016Y450259D01*
X366364Y451099D01*
X366482Y452000D01*
X366364Y452901D01*
X366016Y453741D01*
X365462Y454462D01*
X364741Y455016D01*
X363901Y455364D01*
X363000Y455482D01*
D02*
G37*
G36*
X353000D02*
X352099Y455364D01*
X351259Y455016D01*
X350537Y454462D01*
X349984Y453741D01*
X349636Y452901D01*
X349517Y452000D01*
X349636Y451099D01*
X349984Y450259D01*
X350537Y449538D01*
X351259Y448984D01*
X352099Y448636D01*
X353000Y448518D01*
X353901Y448636D01*
X354741Y448984D01*
X355463Y449538D01*
X356016Y450259D01*
X356364Y451099D01*
X356483Y452000D01*
X356364Y452901D01*
X356016Y453741D01*
X355463Y454462D01*
X354741Y455016D01*
X353901Y455364D01*
X353000Y455482D01*
D02*
G37*
G36*
X343000D02*
X342099Y455364D01*
X341259Y455016D01*
X340538Y454462D01*
X339984Y453741D01*
X339636Y452901D01*
X339517Y452000D01*
X339636Y451099D01*
X339984Y450259D01*
X340538Y449538D01*
X341259Y448984D01*
X342099Y448636D01*
X343000Y448518D01*
X343901Y448636D01*
X344741Y448984D01*
X345462Y449538D01*
X346016Y450259D01*
X346364Y451099D01*
X346482Y452000D01*
X346364Y452901D01*
X346016Y453741D01*
X345462Y454462D01*
X344741Y455016D01*
X343901Y455364D01*
X343000Y455482D01*
D02*
G37*
G36*
X236200D02*
X235299Y455364D01*
X234459Y455016D01*
X233737Y454462D01*
X233184Y453741D01*
X232836Y452901D01*
X232717Y452000D01*
X232836Y451099D01*
X233184Y450259D01*
X233737Y449538D01*
X234459Y448984D01*
X235299Y448636D01*
X236200Y448518D01*
X237101Y448636D01*
X237941Y448984D01*
X238663Y449538D01*
X239216Y450259D01*
X239564Y451099D01*
X239683Y452000D01*
X239564Y452901D01*
X239216Y453741D01*
X238663Y454462D01*
X237941Y455016D01*
X237101Y455364D01*
X236200Y455482D01*
D02*
G37*
G36*
X226200D02*
X225299Y455364D01*
X224459Y455016D01*
X223738Y454462D01*
X223184Y453741D01*
X222836Y452901D01*
X222717Y452000D01*
X222836Y451099D01*
X223184Y450259D01*
X223738Y449538D01*
X224459Y448984D01*
X225299Y448636D01*
X226200Y448518D01*
X227101Y448636D01*
X227941Y448984D01*
X228662Y449538D01*
X229216Y450259D01*
X229564Y451099D01*
X229682Y452000D01*
X229564Y452901D01*
X229216Y453741D01*
X228662Y454462D01*
X227941Y455016D01*
X227101Y455364D01*
X226200Y455482D01*
D02*
G37*
G36*
X535000Y448483D02*
X534099Y448364D01*
X533259Y448016D01*
X532538Y447463D01*
X531984Y446741D01*
X531636Y445901D01*
X531518Y445000D01*
X531636Y444099D01*
X531984Y443259D01*
X532538Y442537D01*
X533259Y441984D01*
X534099Y441636D01*
X535000Y441517D01*
X535901Y441636D01*
X536741Y441984D01*
X537463Y442537D01*
X538016Y443259D01*
X538364Y444099D01*
X538483Y445000D01*
X538364Y445901D01*
X538016Y446741D01*
X537463Y447463D01*
X536741Y448016D01*
X535901Y448364D01*
X535000Y448483D01*
D02*
G37*
G36*
X525000D02*
X524099Y448364D01*
X523259Y448016D01*
X522538Y447463D01*
X521984Y446741D01*
X521636Y445901D01*
X521518Y445000D01*
X521636Y444099D01*
X521984Y443259D01*
X522538Y442537D01*
X523259Y441984D01*
X524099Y441636D01*
X525000Y441517D01*
X525901Y441636D01*
X526741Y441984D01*
X527462Y442537D01*
X528016Y443259D01*
X528364Y444099D01*
X528482Y445000D01*
X528364Y445901D01*
X528016Y446741D01*
X527462Y447463D01*
X526741Y448016D01*
X525901Y448364D01*
X525000Y448483D01*
D02*
G37*
G36*
X413000Y445482D02*
X412099Y445364D01*
X411259Y445016D01*
X410537Y444462D01*
X409984Y443741D01*
X409636Y442901D01*
X409517Y442000D01*
X409636Y441099D01*
X409984Y440259D01*
X410537Y439537D01*
X411259Y438984D01*
X412099Y438636D01*
X413000Y438518D01*
X413901Y438636D01*
X414741Y438984D01*
X415462Y439537D01*
X416016Y440259D01*
X416364Y441099D01*
X416482Y442000D01*
X416364Y442901D01*
X416016Y443741D01*
X415462Y444462D01*
X414741Y445016D01*
X413901Y445364D01*
X413000Y445482D01*
D02*
G37*
G36*
X403000D02*
X402099Y445364D01*
X401259Y445016D01*
X400537Y444462D01*
X399984Y443741D01*
X399636Y442901D01*
X399517Y442000D01*
X399636Y441099D01*
X399984Y440259D01*
X400537Y439537D01*
X401259Y438984D01*
X402099Y438636D01*
X403000Y438518D01*
X403901Y438636D01*
X404741Y438984D01*
X405463Y439537D01*
X406016Y440259D01*
X406364Y441099D01*
X406483Y442000D01*
X406364Y442901D01*
X406016Y443741D01*
X405463Y444462D01*
X404741Y445016D01*
X403901Y445364D01*
X403000Y445482D01*
D02*
G37*
G36*
X393000D02*
X392099Y445364D01*
X391259Y445016D01*
X390538Y444462D01*
X389984Y443741D01*
X389636Y442901D01*
X389517Y442000D01*
X389636Y441099D01*
X389984Y440259D01*
X390538Y439537D01*
X391259Y438984D01*
X392099Y438636D01*
X393000Y438518D01*
X393901Y438636D01*
X394741Y438984D01*
X395462Y439537D01*
X396016Y440259D01*
X396364Y441099D01*
X396482Y442000D01*
X396364Y442901D01*
X396016Y443741D01*
X395462Y444462D01*
X394741Y445016D01*
X393901Y445364D01*
X393000Y445482D01*
D02*
G37*
G36*
X383000D02*
X382099Y445364D01*
X381259Y445016D01*
X380538Y444462D01*
X379984Y443741D01*
X379636Y442901D01*
X379518Y442000D01*
X379636Y441099D01*
X379984Y440259D01*
X380538Y439537D01*
X381259Y438984D01*
X382099Y438636D01*
X383000Y438518D01*
X383901Y438636D01*
X384741Y438984D01*
X385462Y439537D01*
X386016Y440259D01*
X386364Y441099D01*
X386483Y442000D01*
X386364Y442901D01*
X386016Y443741D01*
X385462Y444462D01*
X384741Y445016D01*
X383901Y445364D01*
X383000Y445482D01*
D02*
G37*
G36*
X373000D02*
X372099Y445364D01*
X371259Y445016D01*
X370537Y444462D01*
X369984Y443741D01*
X369636Y442901D01*
X369517Y442000D01*
X369636Y441099D01*
X369984Y440259D01*
X370537Y439537D01*
X371259Y438984D01*
X372099Y438636D01*
X373000Y438518D01*
X373901Y438636D01*
X374741Y438984D01*
X375463Y439537D01*
X376016Y440259D01*
X376364Y441099D01*
X376483Y442000D01*
X376364Y442901D01*
X376016Y443741D01*
X375463Y444462D01*
X374741Y445016D01*
X373901Y445364D01*
X373000Y445482D01*
D02*
G37*
G36*
X363000D02*
X362099Y445364D01*
X361259Y445016D01*
X360538Y444462D01*
X359984Y443741D01*
X359636Y442901D01*
X359518Y442000D01*
X359636Y441099D01*
X359984Y440259D01*
X360538Y439537D01*
X361259Y438984D01*
X362099Y438636D01*
X363000Y438518D01*
X363901Y438636D01*
X364741Y438984D01*
X365462Y439537D01*
X366016Y440259D01*
X366364Y441099D01*
X366482Y442000D01*
X366364Y442901D01*
X366016Y443741D01*
X365462Y444462D01*
X364741Y445016D01*
X363901Y445364D01*
X363000Y445482D01*
D02*
G37*
G36*
X353000D02*
X352099Y445364D01*
X351259Y445016D01*
X350537Y444462D01*
X349984Y443741D01*
X349636Y442901D01*
X349517Y442000D01*
X349636Y441099D01*
X349984Y440259D01*
X350537Y439537D01*
X351259Y438984D01*
X352099Y438636D01*
X353000Y438518D01*
X353901Y438636D01*
X354741Y438984D01*
X355463Y439537D01*
X356016Y440259D01*
X356364Y441099D01*
X356483Y442000D01*
X356364Y442901D01*
X356016Y443741D01*
X355463Y444462D01*
X354741Y445016D01*
X353901Y445364D01*
X353000Y445482D01*
D02*
G37*
G36*
X343000D02*
X342099Y445364D01*
X341259Y445016D01*
X340538Y444462D01*
X339984Y443741D01*
X339636Y442901D01*
X339517Y442000D01*
X339636Y441099D01*
X339984Y440259D01*
X340538Y439537D01*
X341259Y438984D01*
X342099Y438636D01*
X343000Y438518D01*
X343901Y438636D01*
X344741Y438984D01*
X345462Y439537D01*
X346016Y440259D01*
X346364Y441099D01*
X346482Y442000D01*
X346364Y442901D01*
X346016Y443741D01*
X345462Y444462D01*
X344741Y445016D01*
X343901Y445364D01*
X343000Y445482D01*
D02*
G37*
G36*
X246200D02*
X245299Y445364D01*
X244459Y445016D01*
X243738Y444462D01*
X243184Y443741D01*
X242836Y442901D01*
X242718Y442000D01*
X242836Y441099D01*
X243184Y440259D01*
X243738Y439537D01*
X244459Y438984D01*
X245299Y438636D01*
X246200Y438518D01*
X247101Y438636D01*
X247941Y438984D01*
X248662Y439537D01*
X249216Y440259D01*
X249564Y441099D01*
X249682Y442000D01*
X249564Y442901D01*
X249216Y443741D01*
X248662Y444462D01*
X247941Y445016D01*
X247101Y445364D01*
X246200Y445482D01*
D02*
G37*
G36*
X236200D02*
X235299Y445364D01*
X234459Y445016D01*
X233737Y444462D01*
X233184Y443741D01*
X232836Y442901D01*
X232717Y442000D01*
X232836Y441099D01*
X233184Y440259D01*
X233737Y439537D01*
X234459Y438984D01*
X235299Y438636D01*
X236200Y438518D01*
X237101Y438636D01*
X237941Y438984D01*
X238663Y439537D01*
X239216Y440259D01*
X239564Y441099D01*
X239683Y442000D01*
X239564Y442901D01*
X239216Y443741D01*
X238663Y444462D01*
X237941Y445016D01*
X237101Y445364D01*
X236200Y445482D01*
D02*
G37*
G36*
X226200D02*
X225299Y445364D01*
X224459Y445016D01*
X223738Y444462D01*
X223184Y443741D01*
X222836Y442901D01*
X222717Y442000D01*
X222836Y441099D01*
X223184Y440259D01*
X223738Y439537D01*
X224459Y438984D01*
X225299Y438636D01*
X226200Y438518D01*
X227101Y438636D01*
X227941Y438984D01*
X228662Y439537D01*
X229216Y440259D01*
X229564Y441099D01*
X229682Y442000D01*
X229564Y442901D01*
X229216Y443741D01*
X228662Y444462D01*
X227941Y445016D01*
X227101Y445364D01*
X226200Y445482D01*
D02*
G37*
G36*
X535000Y438483D02*
X534099Y438364D01*
X533259Y438016D01*
X532538Y437463D01*
X531984Y436741D01*
X531636Y435901D01*
X531518Y435000D01*
X531636Y434099D01*
X531984Y433259D01*
X532538Y432538D01*
X533259Y431984D01*
X534099Y431636D01*
X535000Y431518D01*
X535901Y431636D01*
X536741Y431984D01*
X537463Y432538D01*
X538016Y433259D01*
X538364Y434099D01*
X538483Y435000D01*
X538364Y435901D01*
X538016Y436741D01*
X537463Y437463D01*
X536741Y438016D01*
X535901Y438364D01*
X535000Y438483D01*
D02*
G37*
G36*
X525000D02*
X524099Y438364D01*
X523259Y438016D01*
X522538Y437463D01*
X521984Y436741D01*
X521636Y435901D01*
X521518Y435000D01*
X521636Y434099D01*
X521984Y433259D01*
X522538Y432538D01*
X523259Y431984D01*
X524099Y431636D01*
X525000Y431518D01*
X525901Y431636D01*
X526741Y431984D01*
X527462Y432538D01*
X528016Y433259D01*
X528364Y434099D01*
X528482Y435000D01*
X528364Y435901D01*
X528016Y436741D01*
X527462Y437463D01*
X526741Y438016D01*
X525901Y438364D01*
X525000Y438483D01*
D02*
G37*
G36*
X535000Y428482D02*
X534099Y428364D01*
X533259Y428016D01*
X532538Y427462D01*
X531984Y426741D01*
X531636Y425901D01*
X531518Y425000D01*
X531636Y424099D01*
X531984Y423259D01*
X532538Y422538D01*
X533259Y421984D01*
X534099Y421636D01*
X535000Y421518D01*
X535901Y421636D01*
X536741Y421984D01*
X537463Y422538D01*
X538016Y423259D01*
X538364Y424099D01*
X538483Y425000D01*
X538364Y425901D01*
X538016Y426741D01*
X537463Y427462D01*
X536741Y428016D01*
X535901Y428364D01*
X535000Y428482D01*
D02*
G37*
G36*
X525000D02*
X524099Y428364D01*
X523259Y428016D01*
X522538Y427462D01*
X521984Y426741D01*
X521636Y425901D01*
X521518Y425000D01*
X521636Y424099D01*
X521984Y423259D01*
X522538Y422538D01*
X523259Y421984D01*
X524099Y421636D01*
X525000Y421518D01*
X525901Y421636D01*
X526741Y421984D01*
X527462Y422538D01*
X528016Y423259D01*
X528364Y424099D01*
X528482Y425000D01*
X528364Y425901D01*
X528016Y426741D01*
X527462Y427462D01*
X526741Y428016D01*
X525901Y428364D01*
X525000Y428482D01*
D02*
G37*
G36*
X481500Y421513D02*
X480921Y421398D01*
X480430Y421070D01*
X480301Y420877D01*
X479699D01*
X479570Y421070D01*
X479079Y421398D01*
X478500Y421513D01*
X477921Y421398D01*
X477430Y421070D01*
X477102Y420579D01*
X476987Y420000D01*
X477102Y419421D01*
X477430Y418930D01*
X477480Y418896D01*
Y411104D01*
X477430Y411070D01*
X477102Y410579D01*
X476987Y410000D01*
X477102Y409421D01*
X477430Y408930D01*
X477921Y408602D01*
X478500Y408487D01*
X479079Y408602D01*
X479570Y408930D01*
X479699Y409123D01*
X480301D01*
X480430Y408930D01*
X480921Y408602D01*
X481500Y408487D01*
X482079Y408602D01*
X482570Y408930D01*
X482898Y409421D01*
X483013Y410000D01*
X482898Y410579D01*
X482570Y411070D01*
X482520Y411104D01*
Y418896D01*
X482570Y418930D01*
X482898Y419421D01*
X483013Y420000D01*
X482898Y420579D01*
X482570Y421070D01*
X482079Y421398D01*
X481500Y421513D01*
D02*
G37*
G36*
X452071Y419142D02*
X445165D01*
Y412236D01*
X452071D01*
Y419142D01*
D02*
G37*
G36*
X458618Y419171D02*
X457717Y419053D01*
X456877Y418705D01*
X456156Y418152D01*
X455602Y417430D01*
X455254Y416590D01*
X455136Y415689D01*
X455254Y414788D01*
X455602Y413948D01*
X456156Y413227D01*
X456877Y412673D01*
X457717Y412325D01*
X458618Y412207D01*
X459519Y412325D01*
X460359Y412673D01*
X461081Y413227D01*
X461634Y413948D01*
X461982Y414788D01*
X462101Y415689D01*
X461982Y416590D01*
X461634Y417430D01*
X461081Y418152D01*
X460359Y418705D01*
X459519Y419053D01*
X458618Y419171D01*
D02*
G37*
G36*
X535000Y418482D02*
X534099Y418364D01*
X533259Y418016D01*
X532538Y417462D01*
X531984Y416741D01*
X531636Y415901D01*
X531518Y415000D01*
X531636Y414099D01*
X531984Y413259D01*
X532538Y412537D01*
X533259Y411984D01*
X534099Y411636D01*
X535000Y411517D01*
X535901Y411636D01*
X536741Y411984D01*
X537463Y412537D01*
X538016Y413259D01*
X538364Y414099D01*
X538483Y415000D01*
X538364Y415901D01*
X538016Y416741D01*
X537463Y417462D01*
X536741Y418016D01*
X535901Y418364D01*
X535000Y418482D01*
D02*
G37*
G36*
X525000D02*
X524099Y418364D01*
X523259Y418016D01*
X522538Y417462D01*
X521984Y416741D01*
X521636Y415901D01*
X521518Y415000D01*
X521636Y414099D01*
X521984Y413259D01*
X522538Y412537D01*
X523259Y411984D01*
X524099Y411636D01*
X525000Y411517D01*
X525901Y411636D01*
X526741Y411984D01*
X527462Y412537D01*
X528016Y413259D01*
X528364Y414099D01*
X528482Y415000D01*
X528364Y415901D01*
X528016Y416741D01*
X527462Y417462D01*
X526741Y418016D01*
X525901Y418364D01*
X525000Y418482D01*
D02*
G37*
G36*
X459118Y409610D02*
Y406189D01*
X462539D01*
X462469Y406721D01*
X462071Y407682D01*
X461437Y408508D01*
X460612Y409142D01*
X459650Y409540D01*
X459118Y409610D01*
D02*
G37*
G36*
X449118D02*
Y406189D01*
X452539D01*
X452469Y406721D01*
X452071Y407682D01*
X451437Y408508D01*
X450612Y409142D01*
X449650Y409540D01*
X449118Y409610D01*
D02*
G37*
G36*
X458118D02*
X457586Y409540D01*
X456625Y409142D01*
X455799Y408508D01*
X455165Y407682D01*
X454767Y406721D01*
X454697Y406189D01*
X458118D01*
Y409610D01*
D02*
G37*
G36*
X448118D02*
X447586Y409540D01*
X446625Y409142D01*
X445799Y408508D01*
X445165Y407682D01*
X444767Y406721D01*
X444697Y406189D01*
X448118D01*
Y409610D01*
D02*
G37*
G36*
X462539Y405189D02*
X459118D01*
Y401768D01*
X459650Y401838D01*
X460612Y402236D01*
X461437Y402870D01*
X462071Y403696D01*
X462469Y404657D01*
X462539Y405189D01*
D02*
G37*
G36*
X452539D02*
X449118D01*
Y401768D01*
X449650Y401838D01*
X450612Y402236D01*
X451437Y402870D01*
X452071Y403696D01*
X452469Y404657D01*
X452539Y405189D01*
D02*
G37*
G36*
X448118D02*
X444697D01*
X444767Y404657D01*
X445165Y403696D01*
X445799Y402870D01*
X446625Y402236D01*
X447586Y401838D01*
X448118Y401768D01*
Y405189D01*
D02*
G37*
G36*
X458118D02*
X454697D01*
X454767Y404657D01*
X455165Y403696D01*
X455799Y402870D01*
X456625Y402236D01*
X457586Y401838D01*
X458118Y401768D01*
Y405189D01*
D02*
G37*
G36*
X535000Y408483D02*
X534099Y408364D01*
X533259Y408016D01*
X532538Y407463D01*
X531984Y406741D01*
X531636Y405901D01*
X531518Y405000D01*
X531636Y404099D01*
X531984Y403259D01*
X532538Y402537D01*
X533259Y401984D01*
X534099Y401636D01*
X535000Y401517D01*
X535901Y401636D01*
X536741Y401984D01*
X537463Y402537D01*
X538016Y403259D01*
X538364Y404099D01*
X538483Y405000D01*
X538364Y405901D01*
X538016Y406741D01*
X537463Y407463D01*
X536741Y408016D01*
X535901Y408364D01*
X535000Y408483D01*
D02*
G37*
G36*
X525000D02*
X524099Y408364D01*
X523259Y408016D01*
X522538Y407463D01*
X521984Y406741D01*
X521636Y405901D01*
X521518Y405000D01*
X521636Y404099D01*
X521984Y403259D01*
X522538Y402537D01*
X523259Y401984D01*
X524099Y401636D01*
X525000Y401517D01*
X525901Y401636D01*
X526741Y401984D01*
X527462Y402537D01*
X528016Y403259D01*
X528364Y404099D01*
X528482Y405000D01*
X528364Y405901D01*
X528016Y406741D01*
X527462Y407463D01*
X526741Y408016D01*
X525901Y408364D01*
X525000Y408483D01*
D02*
G37*
G36*
X538453Y398453D02*
X531547D01*
Y391547D01*
X538453D01*
Y398453D01*
D02*
G37*
G36*
X525000Y398482D02*
X524099Y398364D01*
X523259Y398016D01*
X522538Y397463D01*
X521984Y396741D01*
X521636Y395901D01*
X521518Y395000D01*
X521636Y394099D01*
X521984Y393259D01*
X522538Y392537D01*
X523259Y391984D01*
X524099Y391636D01*
X525000Y391517D01*
X525901Y391636D01*
X526741Y391984D01*
X527462Y392537D01*
X528016Y393259D01*
X528364Y394099D01*
X528482Y395000D01*
X528364Y395901D01*
X528016Y396741D01*
X527462Y397463D01*
X526741Y398016D01*
X525901Y398364D01*
X525000Y398482D01*
D02*
G37*
G36*
X686000Y369013D02*
X685421Y368898D01*
X684930Y368570D01*
X684896Y368520D01*
X675104D01*
X675070Y368570D01*
X674579Y368898D01*
X674000Y369013D01*
X673421Y368898D01*
X672930Y368570D01*
X672602Y368079D01*
X672487Y367500D01*
X672602Y366921D01*
X672930Y366430D01*
X673421Y366102D01*
X674000Y365987D01*
X674579Y366102D01*
X675070Y366430D01*
X675104Y366480D01*
X684896D01*
X684930Y366430D01*
X685421Y366102D01*
X686000Y365987D01*
X686579Y366102D01*
X687070Y366430D01*
X687398Y366921D01*
X687513Y367500D01*
X687398Y368079D01*
X687070Y368570D01*
X686579Y368898D01*
X686000Y369013D01*
D02*
G37*
G36*
X484877Y374284D02*
X484027Y374172D01*
X483236Y373844D01*
X482555Y373322D01*
X482033Y372642D01*
X481705Y371850D01*
X481594Y371000D01*
X481705Y370150D01*
X482033Y369358D01*
X482555Y368678D01*
X483236Y368156D01*
X484027Y367828D01*
X484877Y367716D01*
X485728Y367828D01*
X486519Y368156D01*
X487200Y368678D01*
X487721Y369358D01*
X488050Y370150D01*
X488162Y371000D01*
X488050Y371850D01*
X487721Y372642D01*
X487200Y373322D01*
X486519Y373844D01*
X485728Y374172D01*
X484877Y374284D01*
D02*
G37*
G36*
X460000D02*
X459150Y374172D01*
X458358Y373844D01*
X457678Y373322D01*
X457156Y372642D01*
X456828Y371850D01*
X456716Y371000D01*
X456828Y370150D01*
X457156Y369358D01*
X457678Y368678D01*
X458358Y368156D01*
X459150Y367828D01*
X460000Y367716D01*
X460850Y367828D01*
X461642Y368156D01*
X462322Y368678D01*
X462844Y369358D01*
X463172Y370150D01*
X463284Y371000D01*
X463172Y371850D01*
X462844Y372642D01*
X462322Y373322D01*
X461642Y373844D01*
X460850Y374172D01*
X460000Y374284D01*
D02*
G37*
G36*
X464222Y347723D02*
Y344500D01*
X467445D01*
X467382Y344981D01*
X467003Y345894D01*
X466401Y346679D01*
X465617Y347281D01*
X464703Y347659D01*
X464222Y347723D01*
D02*
G37*
G36*
X463223Y347723D02*
X462742Y347659D01*
X461828Y347281D01*
X461044Y346679D01*
X460442Y345894D01*
X460063Y344981D01*
X460000Y344500D01*
X463223D01*
Y347723D01*
D02*
G37*
G36*
Y343500D02*
X460000D01*
X460063Y343020D01*
X460442Y342106D01*
X461044Y341321D01*
X461828Y340719D01*
X462742Y340341D01*
X463223Y340278D01*
Y343500D01*
D02*
G37*
G36*
X467445D02*
X464222D01*
Y340278D01*
X464703Y340341D01*
X465617Y340719D01*
X466401Y341321D01*
X467003Y342106D01*
X467382Y343020D01*
X467445Y343500D01*
D02*
G37*
G36*
X535000Y322482D02*
X534099Y322364D01*
X533259Y322016D01*
X532538Y321462D01*
X531984Y320741D01*
X531636Y319901D01*
X531518Y319000D01*
X531636Y318099D01*
X531984Y317259D01*
X532538Y316537D01*
X533259Y315984D01*
X534099Y315636D01*
X535000Y315517D01*
X535901Y315636D01*
X536741Y315984D01*
X537463Y316537D01*
X538016Y317259D01*
X538364Y318099D01*
X538483Y319000D01*
X538364Y319901D01*
X538016Y320741D01*
X537463Y321462D01*
X536741Y322016D01*
X535901Y322364D01*
X535000Y322482D01*
D02*
G37*
G36*
X525000D02*
X524099Y322364D01*
X523259Y322016D01*
X522538Y321462D01*
X521984Y320741D01*
X521636Y319901D01*
X521518Y319000D01*
X521636Y318099D01*
X521984Y317259D01*
X522538Y316537D01*
X523259Y315984D01*
X524099Y315636D01*
X525000Y315517D01*
X525901Y315636D01*
X526741Y315984D01*
X527462Y316537D01*
X528016Y317259D01*
X528364Y318099D01*
X528482Y319000D01*
X528364Y319901D01*
X528016Y320741D01*
X527462Y321462D01*
X526741Y322016D01*
X525901Y322364D01*
X525000Y322482D01*
D02*
G37*
G36*
X535000Y312483D02*
X534099Y312364D01*
X533259Y312016D01*
X532538Y311462D01*
X531984Y310741D01*
X531636Y309901D01*
X531518Y309000D01*
X531636Y308099D01*
X531984Y307259D01*
X532538Y306538D01*
X533259Y305984D01*
X534099Y305636D01*
X535000Y305518D01*
X535901Y305636D01*
X536741Y305984D01*
X537463Y306538D01*
X538016Y307259D01*
X538364Y308099D01*
X538483Y309000D01*
X538364Y309901D01*
X538016Y310741D01*
X537463Y311462D01*
X536741Y312016D01*
X535901Y312364D01*
X535000Y312483D01*
D02*
G37*
G36*
X525000D02*
X524099Y312364D01*
X523259Y312016D01*
X522538Y311462D01*
X521984Y310741D01*
X521636Y309901D01*
X521518Y309000D01*
X521636Y308099D01*
X521984Y307259D01*
X522538Y306538D01*
X523259Y305984D01*
X524099Y305636D01*
X525000Y305518D01*
X525901Y305636D01*
X526741Y305984D01*
X527462Y306538D01*
X528016Y307259D01*
X528364Y308099D01*
X528482Y309000D01*
X528364Y309901D01*
X528016Y310741D01*
X527462Y311462D01*
X526741Y312016D01*
X525901Y312364D01*
X525000Y312483D01*
D02*
G37*
G36*
X490500Y297513D02*
X489921Y297398D01*
X489430Y297070D01*
X489396Y297020D01*
X471104D01*
X471070Y297070D01*
X470579Y297398D01*
X470000Y297513D01*
X469421Y297398D01*
X468930Y297070D01*
X468602Y296579D01*
X468487Y296000D01*
X468602Y295421D01*
X468930Y294930D01*
X469421Y294602D01*
X470000Y294487D01*
X470579Y294602D01*
X471070Y294930D01*
X471104Y294980D01*
X472712D01*
X472789Y294945D01*
X472834Y294480D01*
X472691Y294452D01*
X472421Y294398D01*
X471930Y294070D01*
X471602Y293579D01*
X471487Y293000D01*
X471602Y292421D01*
X471930Y291930D01*
X472421Y291602D01*
X473000Y291487D01*
X473579Y291602D01*
X474070Y291930D01*
X474104Y291980D01*
X491896D01*
X491930Y291930D01*
X492421Y291602D01*
X493000Y291487D01*
X493579Y291602D01*
X494070Y291930D01*
X494398Y292421D01*
X494513Y293000D01*
X494398Y293579D01*
X494070Y294070D01*
X493579Y294398D01*
X493000Y294513D01*
X492421Y294398D01*
X491930Y294070D01*
X491896Y294020D01*
X490788D01*
X490711Y294055D01*
X490665Y294520D01*
X490809Y294548D01*
X491079Y294602D01*
X491570Y294930D01*
X491898Y295421D01*
X492013Y296000D01*
X491898Y296579D01*
X491570Y297070D01*
X491079Y297398D01*
X490500Y297513D01*
D02*
G37*
G36*
X535000Y302483D02*
X534099Y302364D01*
X533259Y302016D01*
X532538Y301463D01*
X531984Y300741D01*
X531636Y299901D01*
X531518Y299000D01*
X531636Y298099D01*
X531984Y297259D01*
X532538Y296537D01*
X533259Y295984D01*
X534099Y295636D01*
X535000Y295517D01*
X535901Y295636D01*
X536741Y295984D01*
X537463Y296537D01*
X538016Y297259D01*
X538364Y298099D01*
X538483Y299000D01*
X538364Y299901D01*
X538016Y300741D01*
X537463Y301463D01*
X536741Y302016D01*
X535901Y302364D01*
X535000Y302483D01*
D02*
G37*
G36*
X525000D02*
X524099Y302364D01*
X523259Y302016D01*
X522538Y301463D01*
X521984Y300741D01*
X521636Y299901D01*
X521518Y299000D01*
X521636Y298099D01*
X521984Y297259D01*
X522538Y296537D01*
X523259Y295984D01*
X524099Y295636D01*
X525000Y295517D01*
X525901Y295636D01*
X526741Y295984D01*
X527462Y296537D01*
X528016Y297259D01*
X528364Y298099D01*
X528482Y299000D01*
X528364Y299901D01*
X528016Y300741D01*
X527462Y301463D01*
X526741Y302016D01*
X525901Y302364D01*
X525000Y302483D01*
D02*
G37*
G36*
X538453Y292453D02*
X531547D01*
Y285547D01*
X538453D01*
Y292453D01*
D02*
G37*
G36*
X525000Y292482D02*
X524099Y292364D01*
X523259Y292016D01*
X522538Y291462D01*
X521984Y290741D01*
X521636Y289901D01*
X521518Y289000D01*
X521636Y288099D01*
X521984Y287259D01*
X522538Y286538D01*
X523259Y285984D01*
X524099Y285636D01*
X525000Y285518D01*
X525901Y285636D01*
X526741Y285984D01*
X527462Y286538D01*
X528016Y287259D01*
X528364Y288099D01*
X528482Y289000D01*
X528364Y289901D01*
X528016Y290741D01*
X527462Y291462D01*
X526741Y292016D01*
X525901Y292364D01*
X525000Y292482D01*
D02*
G37*
G36*
X523500Y281029D02*
X510500D01*
X509915Y280913D01*
X509419Y280581D01*
X509087Y280085D01*
X508971Y279500D01*
X509087Y278915D01*
X509419Y278419D01*
X509915Y278087D01*
X510500Y277971D01*
X523500D01*
X524085Y278087D01*
X524581Y278419D01*
X524913Y278915D01*
X525029Y279500D01*
X524913Y280085D01*
X524581Y280581D01*
X524085Y280913D01*
X523500Y281029D01*
D02*
G37*
G36*
X513000Y276513D02*
X512421Y276398D01*
X511930Y276070D01*
X511602Y275579D01*
X511487Y275000D01*
X511602Y274421D01*
X511930Y273930D01*
X512421Y273602D01*
X513000Y273487D01*
X513060Y273499D01*
X514998Y271560D01*
X514987Y271500D01*
X515102Y270921D01*
X515430Y270430D01*
X515921Y270102D01*
X516500Y269987D01*
X517079Y270102D01*
X517570Y270430D01*
X517898Y270921D01*
X518013Y271500D01*
X517898Y272079D01*
X517570Y272570D01*
X517079Y272898D01*
X516500Y273013D01*
X516440Y273002D01*
X514501Y274940D01*
X514513Y275000D01*
X514398Y275579D01*
X514070Y276070D01*
X513579Y276398D01*
X513000Y276513D01*
D02*
G37*
G36*
X551200Y237728D02*
X509039D01*
X508258Y237573D01*
X507597Y237131D01*
X507155Y236469D01*
X506999Y235689D01*
X507155Y234909D01*
X507597Y234247D01*
X508258Y233805D01*
X509039Y233650D01*
X551200D01*
X551980Y233805D01*
X552642Y234247D01*
X553084Y234909D01*
X553239Y235689D01*
X553084Y236469D01*
X552642Y237131D01*
X551980Y237573D01*
X551200Y237728D01*
D02*
G37*
G36*
X452071Y239142D02*
X445165D01*
Y232236D01*
X452071D01*
Y239142D01*
D02*
G37*
G36*
X458618Y239172D02*
X457717Y239053D01*
X456877Y238705D01*
X456156Y238152D01*
X455602Y237430D01*
X455254Y236590D01*
X455136Y235689D01*
X455254Y234788D01*
X455602Y233948D01*
X456156Y233226D01*
X456877Y232673D01*
X457717Y232325D01*
X458618Y232207D01*
X459519Y232325D01*
X460359Y232673D01*
X461081Y233226D01*
X461634Y233948D01*
X461982Y234788D01*
X462101Y235689D01*
X461982Y236590D01*
X461634Y237430D01*
X461081Y238152D01*
X460359Y238705D01*
X459519Y239053D01*
X458618Y239172D01*
D02*
G37*
G36*
X563000Y229013D02*
X562421Y228898D01*
X561930Y228570D01*
X561896Y228520D01*
X537604D01*
X537570Y228570D01*
X537079Y228898D01*
X536500Y229013D01*
X535921Y228898D01*
X535430Y228570D01*
X535102Y228079D01*
X534987Y227500D01*
X535102Y226921D01*
X535318Y226597D01*
X535392Y226250D01*
X535318Y225903D01*
X535102Y225579D01*
X534987Y225000D01*
X535102Y224421D01*
X535318Y224097D01*
X535392Y223750D01*
X535318Y223403D01*
X535102Y223079D01*
X534987Y222500D01*
X535102Y221921D01*
X535318Y221597D01*
X535392Y221250D01*
X535318Y220903D01*
X535102Y220579D01*
X534987Y220000D01*
X535102Y219421D01*
X535430Y218930D01*
X535921Y218602D01*
X536500Y218487D01*
X537079Y218602D01*
X537570Y218930D01*
X537604Y218980D01*
X561896D01*
X561930Y218930D01*
X562421Y218602D01*
X563000Y218487D01*
X563579Y218602D01*
X564070Y218930D01*
X564398Y219421D01*
X564513Y220000D01*
X564398Y220579D01*
X564182Y220903D01*
X564108Y221250D01*
X564182Y221597D01*
X564398Y221921D01*
X564513Y222500D01*
X564398Y223079D01*
X564182Y223403D01*
X564108Y223750D01*
X564182Y224097D01*
X564398Y224421D01*
X564513Y225000D01*
X564398Y225579D01*
X564182Y225903D01*
X564108Y226250D01*
X564182Y226597D01*
X564398Y226921D01*
X564513Y227500D01*
X564398Y228079D01*
X564070Y228570D01*
X563579Y228898D01*
X563000Y229013D01*
D02*
G37*
G36*
X459118Y229610D02*
Y226189D01*
X462539D01*
X462469Y226721D01*
X462071Y227682D01*
X461437Y228508D01*
X460612Y229142D01*
X459650Y229540D01*
X459118Y229610D01*
D02*
G37*
G36*
X449118D02*
Y226189D01*
X452539D01*
X452469Y226721D01*
X452071Y227682D01*
X451437Y228508D01*
X450612Y229142D01*
X449650Y229540D01*
X449118Y229610D01*
D02*
G37*
G36*
X458118D02*
X457586Y229540D01*
X456625Y229142D01*
X455799Y228508D01*
X455165Y227682D01*
X454767Y226721D01*
X454697Y226189D01*
X458118D01*
Y229610D01*
D02*
G37*
G36*
X448118D02*
X447586Y229540D01*
X446625Y229142D01*
X445799Y228508D01*
X445165Y227682D01*
X444767Y226721D01*
X444697Y226189D01*
X448118D01*
Y229610D01*
D02*
G37*
G36*
X462539Y225189D02*
X459118D01*
Y221768D01*
X459650Y221838D01*
X460612Y222236D01*
X461437Y222870D01*
X462071Y223696D01*
X462469Y224657D01*
X462539Y225189D01*
D02*
G37*
G36*
X452539D02*
X449118D01*
Y221768D01*
X449650Y221838D01*
X450612Y222236D01*
X451437Y222870D01*
X452071Y223696D01*
X452469Y224657D01*
X452539Y225189D01*
D02*
G37*
G36*
X458118D02*
X454697D01*
X454767Y224657D01*
X455165Y223696D01*
X455799Y222870D01*
X456625Y222236D01*
X457586Y221838D01*
X458118Y221768D01*
Y225189D01*
D02*
G37*
G36*
X448118D02*
X444697D01*
X444767Y224657D01*
X445165Y223696D01*
X445799Y222870D01*
X446625Y222236D01*
X447586Y221838D01*
X448118Y221768D01*
Y225189D01*
D02*
G37*
G36*
X489941Y249013D02*
X489362Y248898D01*
X488871Y248570D01*
X488543Y248079D01*
X488428Y247500D01*
X488543Y246921D01*
X488871Y246430D01*
X488921Y246396D01*
Y214557D01*
X488602Y214079D01*
X488487Y213500D01*
X488602Y212921D01*
X488930Y212430D01*
X489421Y212102D01*
X490000Y211987D01*
X490579Y212102D01*
X491070Y212430D01*
X491398Y212921D01*
X491513Y213500D01*
X491398Y214079D01*
X491070Y214570D01*
X490961Y214643D01*
Y246396D01*
X491011Y246430D01*
X491339Y246921D01*
X491454Y247500D01*
X491339Y248079D01*
X491011Y248570D01*
X490520Y248898D01*
X489941Y249013D01*
D02*
G37*
G36*
X535000Y213983D02*
X534099Y213864D01*
X533259Y213516D01*
X532538Y212963D01*
X531984Y212241D01*
X531636Y211401D01*
X531518Y210500D01*
X531636Y209599D01*
X531984Y208759D01*
X532538Y208037D01*
X533259Y207484D01*
X534099Y207136D01*
X535000Y207017D01*
X535901Y207136D01*
X536741Y207484D01*
X537463Y208037D01*
X538016Y208759D01*
X538364Y209599D01*
X538483Y210500D01*
X538364Y211401D01*
X538016Y212241D01*
X537463Y212963D01*
X536741Y213516D01*
X535901Y213864D01*
X535000Y213983D01*
D02*
G37*
G36*
X525000D02*
X524099Y213864D01*
X523259Y213516D01*
X522538Y212963D01*
X521984Y212241D01*
X521636Y211401D01*
X521518Y210500D01*
X521636Y209599D01*
X521984Y208759D01*
X522538Y208037D01*
X523259Y207484D01*
X524099Y207136D01*
X525000Y207017D01*
X525901Y207136D01*
X526741Y207484D01*
X527462Y208037D01*
X528016Y208759D01*
X528364Y209599D01*
X528482Y210500D01*
X528364Y211401D01*
X528016Y212241D01*
X527462Y212963D01*
X526741Y213516D01*
X525901Y213864D01*
X525000Y213983D01*
D02*
G37*
G36*
X535000Y203982D02*
X534099Y203864D01*
X533259Y203516D01*
X532538Y202962D01*
X531984Y202241D01*
X531636Y201401D01*
X531518Y200500D01*
X531636Y199599D01*
X531984Y198759D01*
X532538Y198038D01*
X533259Y197484D01*
X534099Y197136D01*
X535000Y197018D01*
X535901Y197136D01*
X536741Y197484D01*
X537463Y198038D01*
X538016Y198759D01*
X538364Y199599D01*
X538483Y200500D01*
X538364Y201401D01*
X538016Y202241D01*
X537463Y202962D01*
X536741Y203516D01*
X535901Y203864D01*
X535000Y203982D01*
D02*
G37*
G36*
X525000D02*
X524099Y203864D01*
X523259Y203516D01*
X522538Y202962D01*
X521984Y202241D01*
X521636Y201401D01*
X521518Y200500D01*
X521636Y199599D01*
X521984Y198759D01*
X522538Y198038D01*
X523259Y197484D01*
X524099Y197136D01*
X525000Y197018D01*
X525901Y197136D01*
X526741Y197484D01*
X527462Y198038D01*
X528016Y198759D01*
X528364Y199599D01*
X528482Y200500D01*
X528364Y201401D01*
X528016Y202241D01*
X527462Y202962D01*
X526741Y203516D01*
X525901Y203864D01*
X525000Y203982D01*
D02*
G37*
G36*
X424453Y202453D02*
X417547D01*
Y195547D01*
X424453D01*
Y202453D01*
D02*
G37*
G36*
X344453D02*
X337547D01*
Y195547D01*
X344453D01*
Y202453D01*
D02*
G37*
G36*
X411000Y202483D02*
X410099Y202364D01*
X409259Y202016D01*
X408537Y201463D01*
X407984Y200741D01*
X407636Y199901D01*
X407517Y199000D01*
X407636Y198099D01*
X407984Y197259D01*
X408537Y196537D01*
X409259Y195984D01*
X410099Y195636D01*
X411000Y195518D01*
X411901Y195636D01*
X412741Y195984D01*
X413462Y196537D01*
X414016Y197259D01*
X414364Y198099D01*
X414482Y199000D01*
X414364Y199901D01*
X414016Y200741D01*
X413462Y201463D01*
X412741Y202016D01*
X411901Y202364D01*
X411000Y202483D01*
D02*
G37*
G36*
X401000D02*
X400099Y202364D01*
X399259Y202016D01*
X398537Y201463D01*
X397984Y200741D01*
X397636Y199901D01*
X397517Y199000D01*
X397636Y198099D01*
X397984Y197259D01*
X398537Y196537D01*
X399259Y195984D01*
X400099Y195636D01*
X401000Y195518D01*
X401901Y195636D01*
X402741Y195984D01*
X403463Y196537D01*
X404016Y197259D01*
X404364Y198099D01*
X404483Y199000D01*
X404364Y199901D01*
X404016Y200741D01*
X403463Y201463D01*
X402741Y202016D01*
X401901Y202364D01*
X401000Y202483D01*
D02*
G37*
G36*
X391000D02*
X390099Y202364D01*
X389259Y202016D01*
X388538Y201463D01*
X387984Y200741D01*
X387636Y199901D01*
X387517Y199000D01*
X387636Y198099D01*
X387984Y197259D01*
X388538Y196537D01*
X389259Y195984D01*
X390099Y195636D01*
X391000Y195518D01*
X391901Y195636D01*
X392741Y195984D01*
X393462Y196537D01*
X394016Y197259D01*
X394364Y198099D01*
X394482Y199000D01*
X394364Y199901D01*
X394016Y200741D01*
X393462Y201463D01*
X392741Y202016D01*
X391901Y202364D01*
X391000Y202483D01*
D02*
G37*
G36*
X381000D02*
X380099Y202364D01*
X379259Y202016D01*
X378538Y201463D01*
X377984Y200741D01*
X377636Y199901D01*
X377518Y199000D01*
X377636Y198099D01*
X377984Y197259D01*
X378538Y196537D01*
X379259Y195984D01*
X380099Y195636D01*
X381000Y195518D01*
X381901Y195636D01*
X382741Y195984D01*
X383463Y196537D01*
X384016Y197259D01*
X384364Y198099D01*
X384483Y199000D01*
X384364Y199901D01*
X384016Y200741D01*
X383463Y201463D01*
X382741Y202016D01*
X381901Y202364D01*
X381000Y202483D01*
D02*
G37*
G36*
X371000D02*
X370099Y202364D01*
X369259Y202016D01*
X368537Y201463D01*
X367984Y200741D01*
X367636Y199901D01*
X367517Y199000D01*
X367636Y198099D01*
X367984Y197259D01*
X368537Y196537D01*
X369259Y195984D01*
X370099Y195636D01*
X371000Y195518D01*
X371901Y195636D01*
X372741Y195984D01*
X373463Y196537D01*
X374016Y197259D01*
X374364Y198099D01*
X374482Y199000D01*
X374364Y199901D01*
X374016Y200741D01*
X373463Y201463D01*
X372741Y202016D01*
X371901Y202364D01*
X371000Y202483D01*
D02*
G37*
G36*
X361000D02*
X360099Y202364D01*
X359259Y202016D01*
X358538Y201463D01*
X357984Y200741D01*
X357636Y199901D01*
X357518Y199000D01*
X357636Y198099D01*
X357984Y197259D01*
X358538Y196537D01*
X359259Y195984D01*
X360099Y195636D01*
X361000Y195518D01*
X361901Y195636D01*
X362741Y195984D01*
X363462Y196537D01*
X364016Y197259D01*
X364364Y198099D01*
X364482Y199000D01*
X364364Y199901D01*
X364016Y200741D01*
X363462Y201463D01*
X362741Y202016D01*
X361901Y202364D01*
X361000Y202483D01*
D02*
G37*
G36*
X351000D02*
X350099Y202364D01*
X349259Y202016D01*
X348537Y201463D01*
X347984Y200741D01*
X347636Y199901D01*
X347517Y199000D01*
X347636Y198099D01*
X347984Y197259D01*
X348537Y196537D01*
X349259Y195984D01*
X350099Y195636D01*
X351000Y195518D01*
X351901Y195636D01*
X352741Y195984D01*
X353463Y196537D01*
X354016Y197259D01*
X354364Y198099D01*
X354483Y199000D01*
X354364Y199901D01*
X354016Y200741D01*
X353463Y201463D01*
X352741Y202016D01*
X351901Y202364D01*
X351000Y202483D01*
D02*
G37*
G36*
X331000D02*
X330099Y202364D01*
X329259Y202016D01*
X328538Y201463D01*
X327984Y200741D01*
X327636Y199901D01*
X327518Y199000D01*
X327636Y198099D01*
X327984Y197259D01*
X328538Y196537D01*
X329259Y195984D01*
X330099Y195636D01*
X331000Y195518D01*
X331901Y195636D01*
X332741Y195984D01*
X333463Y196537D01*
X334016Y197259D01*
X334364Y198099D01*
X334483Y199000D01*
X334364Y199901D01*
X334016Y200741D01*
X333463Y201463D01*
X332741Y202016D01*
X331901Y202364D01*
X331000Y202483D01*
D02*
G37*
G36*
X321000D02*
X320099Y202364D01*
X319259Y202016D01*
X318537Y201463D01*
X317984Y200741D01*
X317636Y199901D01*
X317517Y199000D01*
X317636Y198099D01*
X317984Y197259D01*
X318537Y196537D01*
X319259Y195984D01*
X320099Y195636D01*
X321000Y195518D01*
X321901Y195636D01*
X322741Y195984D01*
X323463Y196537D01*
X324016Y197259D01*
X324364Y198099D01*
X324482Y199000D01*
X324364Y199901D01*
X324016Y200741D01*
X323463Y201463D01*
X322741Y202016D01*
X321901Y202364D01*
X321000Y202483D01*
D02*
G37*
G36*
X311000D02*
X310099Y202364D01*
X309259Y202016D01*
X308538Y201463D01*
X307984Y200741D01*
X307636Y199901D01*
X307518Y199000D01*
X307636Y198099D01*
X307984Y197259D01*
X308538Y196537D01*
X309259Y195984D01*
X310099Y195636D01*
X311000Y195518D01*
X311901Y195636D01*
X312741Y195984D01*
X313462Y196537D01*
X314016Y197259D01*
X314364Y198099D01*
X314482Y199000D01*
X314364Y199901D01*
X314016Y200741D01*
X313462Y201463D01*
X312741Y202016D01*
X311901Y202364D01*
X311000Y202483D01*
D02*
G37*
G36*
X301000D02*
X300099Y202364D01*
X299259Y202016D01*
X298537Y201463D01*
X297984Y200741D01*
X297636Y199901D01*
X297517Y199000D01*
X297636Y198099D01*
X297984Y197259D01*
X298537Y196537D01*
X299259Y195984D01*
X300099Y195636D01*
X301000Y195518D01*
X301901Y195636D01*
X302741Y195984D01*
X303463Y196537D01*
X304016Y197259D01*
X304364Y198099D01*
X304483Y199000D01*
X304364Y199901D01*
X304016Y200741D01*
X303463Y201463D01*
X302741Y202016D01*
X301901Y202364D01*
X301000Y202483D01*
D02*
G37*
G36*
X291000D02*
X290099Y202364D01*
X289259Y202016D01*
X288538Y201463D01*
X287984Y200741D01*
X287636Y199901D01*
X287517Y199000D01*
X287636Y198099D01*
X287984Y197259D01*
X288538Y196537D01*
X289259Y195984D01*
X290099Y195636D01*
X291000Y195518D01*
X291901Y195636D01*
X292741Y195984D01*
X293462Y196537D01*
X294016Y197259D01*
X294364Y198099D01*
X294482Y199000D01*
X294364Y199901D01*
X294016Y200741D01*
X293462Y201463D01*
X292741Y202016D01*
X291901Y202364D01*
X291000Y202483D01*
D02*
G37*
G36*
X281000D02*
X280099Y202364D01*
X279259Y202016D01*
X278538Y201463D01*
X277984Y200741D01*
X277636Y199901D01*
X277518Y199000D01*
X277636Y198099D01*
X277984Y197259D01*
X278538Y196537D01*
X279259Y195984D01*
X280099Y195636D01*
X281000Y195518D01*
X281901Y195636D01*
X282741Y195984D01*
X283463Y196537D01*
X284016Y197259D01*
X284364Y198099D01*
X284483Y199000D01*
X284364Y199901D01*
X284016Y200741D01*
X283463Y201463D01*
X282741Y202016D01*
X281901Y202364D01*
X281000Y202483D01*
D02*
G37*
G36*
X271000D02*
X270099Y202364D01*
X269259Y202016D01*
X268537Y201463D01*
X267984Y200741D01*
X267636Y199901D01*
X267517Y199000D01*
X267636Y198099D01*
X267984Y197259D01*
X268537Y196537D01*
X269259Y195984D01*
X270099Y195636D01*
X271000Y195518D01*
X271901Y195636D01*
X272741Y195984D01*
X273463Y196537D01*
X274016Y197259D01*
X274364Y198099D01*
X274482Y199000D01*
X274364Y199901D01*
X274016Y200741D01*
X273463Y201463D01*
X272741Y202016D01*
X271901Y202364D01*
X271000Y202483D01*
D02*
G37*
G36*
X133941Y194823D02*
X131488D01*
Y192528D01*
X136671D01*
X136641Y192752D01*
X136362Y193426D01*
X135918Y194005D01*
X135339Y194449D01*
X134665Y194728D01*
X133941Y194823D01*
D02*
G37*
G36*
X130488D02*
X128035D01*
X127312Y194728D01*
X126638Y194449D01*
X126059Y194005D01*
X125614Y193426D01*
X125335Y192752D01*
X125306Y192528D01*
X130488D01*
Y194823D01*
D02*
G37*
G36*
X119256Y194344D02*
X116106D01*
X115220Y194168D01*
X114468Y193666D01*
X113966Y192914D01*
X113790Y192028D01*
X113966Y191142D01*
X114468Y190390D01*
X115220Y189888D01*
X116106Y189712D01*
X119256D01*
X120142Y189888D01*
X120894Y190390D01*
X121396Y191142D01*
X121572Y192028D01*
X121396Y192914D01*
X120894Y193666D01*
X120142Y194168D01*
X119256Y194344D01*
D02*
G37*
G36*
X202000Y194284D02*
X201150Y194172D01*
X200358Y193844D01*
X199678Y193322D01*
X199156Y192642D01*
X198828Y191850D01*
X198716Y191000D01*
X198828Y190150D01*
X199156Y189358D01*
X199678Y188678D01*
X200358Y188156D01*
X201150Y187828D01*
X202000Y187716D01*
X202850Y187828D01*
X203642Y188156D01*
X204322Y188678D01*
X204844Y189358D01*
X205172Y190150D01*
X205284Y191000D01*
X205172Y191850D01*
X204844Y192642D01*
X204322Y193322D01*
X203642Y193844D01*
X202850Y194172D01*
X202000Y194284D01*
D02*
G37*
G36*
X136671Y191528D02*
X125306D01*
X125335Y191305D01*
X125614Y190630D01*
X126059Y190051D01*
X126638Y189607D01*
X127312Y189328D01*
X128035Y189233D01*
X128390D01*
X128499Y188733D01*
X127872Y188314D01*
X127381Y187579D01*
X127308Y187213D01*
X129532D01*
X131756D01*
X131683Y187579D01*
X131192Y188314D01*
X130565Y188733D01*
X130674Y189233D01*
X133704D01*
X133813Y188733D01*
X133186Y188314D01*
X132695Y187579D01*
X132622Y187213D01*
X134846D01*
X137070D01*
X136997Y187579D01*
X136506Y188314D01*
X135771Y188805D01*
X135053Y188947D01*
X135000Y189467D01*
X135339Y189607D01*
X135918Y190051D01*
X136362Y190630D01*
X136641Y191305D01*
X136671Y191528D01*
D02*
G37*
G36*
X535000Y193983D02*
X534099Y193864D01*
X533259Y193516D01*
X532538Y192963D01*
X531984Y192241D01*
X531636Y191401D01*
X531518Y190500D01*
X531636Y189599D01*
X531984Y188759D01*
X532538Y188038D01*
X533259Y187484D01*
X534099Y187136D01*
X535000Y187018D01*
X535901Y187136D01*
X536741Y187484D01*
X537463Y188038D01*
X538016Y188759D01*
X538364Y189599D01*
X538483Y190500D01*
X538364Y191401D01*
X538016Y192241D01*
X537463Y192963D01*
X536741Y193516D01*
X535901Y193864D01*
X535000Y193983D01*
D02*
G37*
G36*
X525000D02*
X524099Y193864D01*
X523259Y193516D01*
X522538Y192963D01*
X521984Y192241D01*
X521636Y191401D01*
X521518Y190500D01*
X521636Y189599D01*
X521984Y188759D01*
X522538Y188038D01*
X523259Y187484D01*
X524099Y187136D01*
X525000Y187018D01*
X525901Y187136D01*
X526741Y187484D01*
X527462Y188038D01*
X528016Y188759D01*
X528364Y189599D01*
X528482Y190500D01*
X528364Y191401D01*
X528016Y192241D01*
X527462Y192963D01*
X526741Y193516D01*
X525901Y193864D01*
X525000Y193983D01*
D02*
G37*
G36*
X421000Y192482D02*
X420099Y192364D01*
X419259Y192016D01*
X418538Y191463D01*
X417984Y190741D01*
X417636Y189901D01*
X417518Y189000D01*
X417636Y188099D01*
X417984Y187259D01*
X418538Y186538D01*
X419259Y185984D01*
X420099Y185636D01*
X421000Y185518D01*
X421901Y185636D01*
X422741Y185984D01*
X423462Y186538D01*
X424016Y187259D01*
X424364Y188099D01*
X424482Y189000D01*
X424364Y189901D01*
X424016Y190741D01*
X423462Y191463D01*
X422741Y192016D01*
X421901Y192364D01*
X421000Y192482D01*
D02*
G37*
G36*
X411000D02*
X410099Y192364D01*
X409259Y192016D01*
X408537Y191463D01*
X407984Y190741D01*
X407636Y189901D01*
X407517Y189000D01*
X407636Y188099D01*
X407984Y187259D01*
X408537Y186538D01*
X409259Y185984D01*
X410099Y185636D01*
X411000Y185518D01*
X411901Y185636D01*
X412741Y185984D01*
X413462Y186538D01*
X414016Y187259D01*
X414364Y188099D01*
X414482Y189000D01*
X414364Y189901D01*
X414016Y190741D01*
X413462Y191463D01*
X412741Y192016D01*
X411901Y192364D01*
X411000Y192482D01*
D02*
G37*
G36*
X401000D02*
X400099Y192364D01*
X399259Y192016D01*
X398537Y191463D01*
X397984Y190741D01*
X397636Y189901D01*
X397517Y189000D01*
X397636Y188099D01*
X397984Y187259D01*
X398537Y186538D01*
X399259Y185984D01*
X400099Y185636D01*
X401000Y185518D01*
X401901Y185636D01*
X402741Y185984D01*
X403463Y186538D01*
X404016Y187259D01*
X404364Y188099D01*
X404483Y189000D01*
X404364Y189901D01*
X404016Y190741D01*
X403463Y191463D01*
X402741Y192016D01*
X401901Y192364D01*
X401000Y192482D01*
D02*
G37*
G36*
X391000D02*
X390099Y192364D01*
X389259Y192016D01*
X388538Y191463D01*
X387984Y190741D01*
X387636Y189901D01*
X387517Y189000D01*
X387636Y188099D01*
X387984Y187259D01*
X388538Y186538D01*
X389259Y185984D01*
X390099Y185636D01*
X391000Y185518D01*
X391901Y185636D01*
X392741Y185984D01*
X393462Y186538D01*
X394016Y187259D01*
X394364Y188099D01*
X394482Y189000D01*
X394364Y189901D01*
X394016Y190741D01*
X393462Y191463D01*
X392741Y192016D01*
X391901Y192364D01*
X391000Y192482D01*
D02*
G37*
G36*
X381000D02*
X380099Y192364D01*
X379259Y192016D01*
X378538Y191463D01*
X377984Y190741D01*
X377636Y189901D01*
X377518Y189000D01*
X377636Y188099D01*
X377984Y187259D01*
X378538Y186538D01*
X379259Y185984D01*
X380099Y185636D01*
X381000Y185518D01*
X381901Y185636D01*
X382741Y185984D01*
X383463Y186538D01*
X384016Y187259D01*
X384364Y188099D01*
X384483Y189000D01*
X384364Y189901D01*
X384016Y190741D01*
X383463Y191463D01*
X382741Y192016D01*
X381901Y192364D01*
X381000Y192482D01*
D02*
G37*
G36*
X371000D02*
X370099Y192364D01*
X369259Y192016D01*
X368537Y191463D01*
X367984Y190741D01*
X367636Y189901D01*
X367517Y189000D01*
X367636Y188099D01*
X367984Y187259D01*
X368537Y186538D01*
X369259Y185984D01*
X370099Y185636D01*
X371000Y185518D01*
X371901Y185636D01*
X372741Y185984D01*
X373463Y186538D01*
X374016Y187259D01*
X374364Y188099D01*
X374482Y189000D01*
X374364Y189901D01*
X374016Y190741D01*
X373463Y191463D01*
X372741Y192016D01*
X371901Y192364D01*
X371000Y192482D01*
D02*
G37*
G36*
X361000D02*
X360099Y192364D01*
X359259Y192016D01*
X358538Y191463D01*
X357984Y190741D01*
X357636Y189901D01*
X357518Y189000D01*
X357636Y188099D01*
X357984Y187259D01*
X358538Y186538D01*
X359259Y185984D01*
X360099Y185636D01*
X361000Y185518D01*
X361901Y185636D01*
X362741Y185984D01*
X363462Y186538D01*
X364016Y187259D01*
X364364Y188099D01*
X364482Y189000D01*
X364364Y189901D01*
X364016Y190741D01*
X363462Y191463D01*
X362741Y192016D01*
X361901Y192364D01*
X361000Y192482D01*
D02*
G37*
G36*
X351000D02*
X350099Y192364D01*
X349259Y192016D01*
X348537Y191463D01*
X347984Y190741D01*
X347636Y189901D01*
X347517Y189000D01*
X347636Y188099D01*
X347984Y187259D01*
X348537Y186538D01*
X349259Y185984D01*
X350099Y185636D01*
X351000Y185518D01*
X351901Y185636D01*
X352741Y185984D01*
X353463Y186538D01*
X354016Y187259D01*
X354364Y188099D01*
X354483Y189000D01*
X354364Y189901D01*
X354016Y190741D01*
X353463Y191463D01*
X352741Y192016D01*
X351901Y192364D01*
X351000Y192482D01*
D02*
G37*
G36*
X341000D02*
X340099Y192364D01*
X339259Y192016D01*
X338538Y191463D01*
X337984Y190741D01*
X337636Y189901D01*
X337517Y189000D01*
X337636Y188099D01*
X337984Y187259D01*
X338538Y186538D01*
X339259Y185984D01*
X340099Y185636D01*
X341000Y185518D01*
X341901Y185636D01*
X342741Y185984D01*
X343462Y186538D01*
X344016Y187259D01*
X344364Y188099D01*
X344482Y189000D01*
X344364Y189901D01*
X344016Y190741D01*
X343462Y191463D01*
X342741Y192016D01*
X341901Y192364D01*
X341000Y192482D01*
D02*
G37*
G36*
X331000D02*
X330099Y192364D01*
X329259Y192016D01*
X328538Y191463D01*
X327984Y190741D01*
X327636Y189901D01*
X327518Y189000D01*
X327636Y188099D01*
X327984Y187259D01*
X328538Y186538D01*
X329259Y185984D01*
X330099Y185636D01*
X331000Y185518D01*
X331901Y185636D01*
X332741Y185984D01*
X333463Y186538D01*
X334016Y187259D01*
X334364Y188099D01*
X334483Y189000D01*
X334364Y189901D01*
X334016Y190741D01*
X333463Y191463D01*
X332741Y192016D01*
X331901Y192364D01*
X331000Y192482D01*
D02*
G37*
G36*
X321000D02*
X320099Y192364D01*
X319259Y192016D01*
X318537Y191463D01*
X317984Y190741D01*
X317636Y189901D01*
X317517Y189000D01*
X317636Y188099D01*
X317984Y187259D01*
X318537Y186538D01*
X319259Y185984D01*
X320099Y185636D01*
X321000Y185518D01*
X321901Y185636D01*
X322741Y185984D01*
X323463Y186538D01*
X324016Y187259D01*
X324364Y188099D01*
X324482Y189000D01*
X324364Y189901D01*
X324016Y190741D01*
X323463Y191463D01*
X322741Y192016D01*
X321901Y192364D01*
X321000Y192482D01*
D02*
G37*
G36*
X311000D02*
X310099Y192364D01*
X309259Y192016D01*
X308538Y191463D01*
X307984Y190741D01*
X307636Y189901D01*
X307518Y189000D01*
X307636Y188099D01*
X307984Y187259D01*
X308538Y186538D01*
X309259Y185984D01*
X310099Y185636D01*
X311000Y185518D01*
X311901Y185636D01*
X312741Y185984D01*
X313462Y186538D01*
X314016Y187259D01*
X314364Y188099D01*
X314482Y189000D01*
X314364Y189901D01*
X314016Y190741D01*
X313462Y191463D01*
X312741Y192016D01*
X311901Y192364D01*
X311000Y192482D01*
D02*
G37*
G36*
X301000D02*
X300099Y192364D01*
X299259Y192016D01*
X298537Y191463D01*
X297984Y190741D01*
X297636Y189901D01*
X297517Y189000D01*
X297636Y188099D01*
X297984Y187259D01*
X298537Y186538D01*
X299259Y185984D01*
X300099Y185636D01*
X301000Y185518D01*
X301901Y185636D01*
X302741Y185984D01*
X303463Y186538D01*
X304016Y187259D01*
X304364Y188099D01*
X304483Y189000D01*
X304364Y189901D01*
X304016Y190741D01*
X303463Y191463D01*
X302741Y192016D01*
X301901Y192364D01*
X301000Y192482D01*
D02*
G37*
G36*
X291000D02*
X290099Y192364D01*
X289259Y192016D01*
X288538Y191463D01*
X287984Y190741D01*
X287636Y189901D01*
X287517Y189000D01*
X287636Y188099D01*
X287984Y187259D01*
X288538Y186538D01*
X289259Y185984D01*
X290099Y185636D01*
X291000Y185518D01*
X291901Y185636D01*
X292741Y185984D01*
X293462Y186538D01*
X294016Y187259D01*
X294364Y188099D01*
X294482Y189000D01*
X294364Y189901D01*
X294016Y190741D01*
X293462Y191463D01*
X292741Y192016D01*
X291901Y192364D01*
X291000Y192482D01*
D02*
G37*
G36*
X281000D02*
X280099Y192364D01*
X279259Y192016D01*
X278538Y191463D01*
X277984Y190741D01*
X277636Y189901D01*
X277518Y189000D01*
X277636Y188099D01*
X277984Y187259D01*
X278538Y186538D01*
X279259Y185984D01*
X280099Y185636D01*
X281000Y185518D01*
X281901Y185636D01*
X282741Y185984D01*
X283463Y186538D01*
X284016Y187259D01*
X284364Y188099D01*
X284483Y189000D01*
X284364Y189901D01*
X284016Y190741D01*
X283463Y191463D01*
X282741Y192016D01*
X281901Y192364D01*
X281000Y192482D01*
D02*
G37*
G36*
X271000D02*
X270099Y192364D01*
X269259Y192016D01*
X268537Y191463D01*
X267984Y190741D01*
X267636Y189901D01*
X267517Y189000D01*
X267636Y188099D01*
X267984Y187259D01*
X268537Y186538D01*
X269259Y185984D01*
X270099Y185636D01*
X271000Y185518D01*
X271901Y185636D01*
X272741Y185984D01*
X273463Y186538D01*
X274016Y187259D01*
X274364Y188099D01*
X274482Y189000D01*
X274364Y189901D01*
X274016Y190741D01*
X273463Y191463D01*
X272741Y192016D01*
X271901Y192364D01*
X271000Y192482D01*
D02*
G37*
G36*
X502800Y198663D02*
X502221Y198548D01*
X501730Y198220D01*
X501402Y197729D01*
X501287Y197150D01*
X501402Y196571D01*
X501730Y196080D01*
X502070Y195853D01*
X502085Y195806D01*
Y195344D01*
X502070Y195297D01*
X501730Y195070D01*
X501402Y194579D01*
X501287Y194000D01*
X501402Y193421D01*
X501730Y192930D01*
X501780Y192896D01*
Y190781D01*
X501720Y190721D01*
X501499Y190390D01*
X501421Y190000D01*
Y187104D01*
X501371Y187070D01*
X501043Y186579D01*
X500928Y186000D01*
X501043Y185421D01*
X501371Y184930D01*
X501862Y184602D01*
X502441Y184487D01*
X503020Y184602D01*
X503511Y184930D01*
X503839Y185421D01*
X503954Y186000D01*
X503839Y186579D01*
X503511Y187070D01*
X503461Y187104D01*
Y189578D01*
X503521Y189638D01*
X503742Y189969D01*
X503820Y190359D01*
Y192896D01*
X503870Y192930D01*
X504198Y193421D01*
X504313Y194000D01*
X504198Y194579D01*
X503870Y195070D01*
X503531Y195297D01*
X503515Y195344D01*
Y195806D01*
X503531Y195853D01*
X503870Y196080D01*
X503904Y196130D01*
X504428D01*
X504980Y195578D01*
Y188104D01*
X504930Y188070D01*
X504602Y187579D01*
X504487Y187000D01*
X504602Y186421D01*
X504930Y185930D01*
X505421Y185602D01*
X506000Y185487D01*
X506579Y185602D01*
X507070Y185930D01*
X507398Y186421D01*
X507513Y187000D01*
X507398Y187579D01*
X507070Y188070D01*
X507020Y188104D01*
Y196000D01*
X506942Y196390D01*
X506721Y196721D01*
X505571Y197871D01*
X505241Y198092D01*
X504850Y198169D01*
X503904D01*
X503870Y198220D01*
X503379Y198548D01*
X502800Y198663D01*
D02*
G37*
G36*
X486700Y184072D02*
X486121Y183957D01*
X485630Y183629D01*
X485557Y183520D01*
X475104D01*
X475070Y183570D01*
X474579Y183898D01*
X474000Y184013D01*
X473421Y183898D01*
X472930Y183570D01*
X472602Y183079D01*
X472487Y182500D01*
X472602Y181921D01*
X472930Y181430D01*
X473421Y181102D01*
X474000Y180987D01*
X474579Y181102D01*
X475070Y181430D01*
X475104Y181480D01*
X485643D01*
X486121Y181161D01*
X486700Y181046D01*
X487279Y181161D01*
X487770Y181489D01*
X488098Y181980D01*
X488213Y182559D01*
X488098Y183138D01*
X487770Y183629D01*
X487279Y183957D01*
X486700Y184072D01*
D02*
G37*
G36*
X538453Y183953D02*
X531547D01*
Y177047D01*
X538453D01*
Y183953D01*
D02*
G37*
G36*
X525000Y183983D02*
X524099Y183864D01*
X523259Y183516D01*
X522538Y182963D01*
X521984Y182241D01*
X521636Y181401D01*
X521518Y180500D01*
X521636Y179599D01*
X521984Y178759D01*
X522538Y178038D01*
X523259Y177484D01*
X524099Y177136D01*
X525000Y177017D01*
X525901Y177136D01*
X526741Y177484D01*
X527462Y178038D01*
X528016Y178759D01*
X528364Y179599D01*
X528482Y180500D01*
X528364Y181401D01*
X528016Y182241D01*
X527462Y182963D01*
X526741Y183516D01*
X525901Y183864D01*
X525000Y183983D01*
D02*
G37*
G36*
X515000Y175513D02*
X514421Y175398D01*
X513930Y175070D01*
X513602Y174579D01*
X513487Y174000D01*
X513502Y173923D01*
X513077Y173498D01*
X513000Y173513D01*
X512421Y173398D01*
X511930Y173070D01*
X511602Y172579D01*
X511487Y172000D01*
X511602Y171421D01*
X511930Y170930D01*
X511980Y170896D01*
Y166533D01*
X511480Y166381D01*
X511354Y166570D01*
X510863Y166898D01*
X510284Y167013D01*
X509705Y166898D01*
X509214Y166570D01*
X508886Y166079D01*
X508771Y165500D01*
X508801Y165348D01*
X508340Y165102D01*
X508002Y165440D01*
X508013Y165500D01*
X507898Y166079D01*
X507570Y166570D01*
X507079Y166898D01*
X506500Y167013D01*
X505921Y166898D01*
X505430Y166570D01*
X505102Y166079D01*
X504987Y165500D01*
X505102Y164921D01*
X505430Y164430D01*
X505921Y164102D01*
X506500Y163987D01*
X506560Y163998D01*
X506980Y163578D01*
Y154104D01*
X506930Y154070D01*
X506602Y153579D01*
X506487Y153000D01*
X506549Y152685D01*
X506099Y152385D01*
X506079Y152398D01*
X505500Y152513D01*
X504921Y152398D01*
X504430Y152070D01*
X504102Y151579D01*
X503987Y151000D01*
X504102Y150421D01*
X504430Y149930D01*
X504921Y149602D01*
X505500Y149487D01*
X506079Y149602D01*
X506570Y149930D01*
X506604Y149980D01*
X508806D01*
X509196Y150058D01*
X509527Y150279D01*
X511005Y151757D01*
X511226Y152088D01*
X511304Y152478D01*
Y164166D01*
X511480Y164315D01*
X511980Y164083D01*
Y150922D01*
X504460Y143402D01*
X504400Y143413D01*
X503821Y143298D01*
X503330Y142970D01*
X503002Y142479D01*
X502887Y141900D01*
X503002Y141321D01*
X503330Y140830D01*
X503821Y140502D01*
X504400Y140387D01*
X504979Y140502D01*
X505470Y140830D01*
X505798Y141321D01*
X505864Y141654D01*
X506028Y141741D01*
X506591Y141475D01*
X506602Y141421D01*
X506930Y140930D01*
X507421Y140602D01*
X508000Y140487D01*
X508579Y140602D01*
X509070Y140930D01*
X509398Y141421D01*
X509513Y142000D01*
X509502Y142060D01*
X515721Y148279D01*
X515942Y148610D01*
X516020Y149000D01*
Y172896D01*
X516070Y172930D01*
X516398Y173421D01*
X516513Y174000D01*
X516398Y174579D01*
X516070Y175070D01*
X515579Y175398D01*
X515000Y175513D01*
D02*
G37*
G36*
X435400Y183539D02*
X434620Y183384D01*
X433958Y182942D01*
X433516Y182280D01*
X433361Y181500D01*
Y167000D01*
X433516Y166220D01*
X433958Y165558D01*
X434620Y165116D01*
X435400Y164961D01*
X436180Y165116D01*
X436842Y165558D01*
X437284Y166220D01*
X437439Y167000D01*
Y181500D01*
X437284Y182280D01*
X436842Y182942D01*
X436180Y183384D01*
X435400Y183539D01*
D02*
G37*
G36*
X176000Y167513D02*
X175421Y167398D01*
X174930Y167070D01*
X174602Y166579D01*
X174487Y166000D01*
X174602Y165421D01*
X174930Y164930D01*
X175421Y164602D01*
X176000Y164487D01*
X176579Y164602D01*
X177070Y164930D01*
X177398Y165421D01*
X177513Y166000D01*
X177398Y166579D01*
X177070Y167070D01*
X176579Y167398D01*
X176000Y167513D01*
D02*
G37*
G36*
X131756Y186213D02*
X129532D01*
X127308D01*
X127381Y185847D01*
X127872Y185112D01*
X128015Y185017D01*
X128077Y184374D01*
X127852Y184037D01*
X127719Y183366D01*
X127852Y182695D01*
X128233Y182126D01*
X128430Y181994D01*
Y181392D01*
X128233Y181260D01*
X127852Y180691D01*
X127719Y180020D01*
X127852Y179349D01*
X128233Y178780D01*
X128431Y178647D01*
Y178046D01*
X128233Y177913D01*
X127852Y177344D01*
X127719Y176673D01*
X127852Y176002D01*
X128233Y175433D01*
X128430Y175301D01*
Y174699D01*
X128233Y174567D01*
X127852Y173998D01*
X127719Y173327D01*
X127852Y172656D01*
X128233Y172087D01*
X128431Y171954D01*
Y171356D01*
X128420Y171346D01*
X128233Y171220D01*
X128102Y171024D01*
X128077Y171000D01*
X125822D01*
X125432Y170922D01*
X125102Y170701D01*
X123279Y168878D01*
X123058Y168548D01*
X122980Y168157D01*
Y154000D01*
X123058Y153610D01*
X123279Y153279D01*
X125279Y151279D01*
X125610Y151058D01*
X126000Y150980D01*
X141000D01*
X141390Y151058D01*
X141721Y151279D01*
X143721Y153279D01*
X143942Y153610D01*
X144020Y154000D01*
Y156868D01*
X144070Y156902D01*
X144398Y157393D01*
X144513Y157972D01*
X144398Y158551D01*
X144070Y159042D01*
X143579Y159370D01*
X143000Y159485D01*
X142421Y159370D01*
X141930Y159042D01*
X141602Y158551D01*
X141487Y157972D01*
X141602Y157393D01*
X141930Y156902D01*
X141980Y156868D01*
Y154422D01*
X140578Y153020D01*
X126422D01*
X125020Y154422D01*
Y167735D01*
X126245Y168960D01*
X128085D01*
X128233Y168740D01*
X128430Y168608D01*
Y168006D01*
X128233Y167874D01*
X127852Y167305D01*
X127719Y166634D01*
X127852Y165963D01*
X128077Y165626D01*
X128015Y164983D01*
X127872Y164888D01*
X127381Y164153D01*
X127308Y163787D01*
X129532D01*
X131756D01*
X131683Y164153D01*
X131192Y164888D01*
X131049Y164983D01*
X130987Y165626D01*
X131212Y165963D01*
X131345Y166634D01*
X131212Y167305D01*
X130831Y167874D01*
X130634Y168006D01*
Y168608D01*
X130831Y168740D01*
X131212Y169309D01*
X131345Y169980D01*
X131212Y170651D01*
X130831Y171220D01*
X130633Y171353D01*
Y171954D01*
X130831Y172087D01*
X131212Y172656D01*
X131345Y173327D01*
X131252Y173794D01*
X131695Y174106D01*
X133047Y173255D01*
X133166Y172656D01*
X133547Y172087D01*
X133745Y171954D01*
Y171353D01*
X133547Y171220D01*
X133166Y170651D01*
X133033Y169980D01*
X133166Y169309D01*
X133547Y168740D01*
X133744Y168608D01*
Y168006D01*
X133547Y167874D01*
X133166Y167305D01*
X133033Y166634D01*
X133166Y165963D01*
X133391Y165626D01*
X133329Y164983D01*
X133186Y164888D01*
X132695Y164153D01*
X132622Y163787D01*
X134846D01*
X137070D01*
X136997Y164153D01*
X136506Y164888D01*
X136363Y164983D01*
X136301Y165626D01*
X136526Y165963D01*
X136659Y166634D01*
X136526Y167305D01*
X136145Y167874D01*
X135948Y168006D01*
Y168608D01*
X136145Y168740D01*
X136526Y169309D01*
X136659Y169980D01*
X136526Y170651D01*
X136145Y171220D01*
X135947Y171353D01*
Y171954D01*
X136145Y172087D01*
X136526Y172656D01*
X136659Y173327D01*
X136526Y173998D01*
X136145Y174567D01*
X135948Y174699D01*
Y175301D01*
X136145Y175433D01*
X136526Y176002D01*
X136659Y176673D01*
X136526Y177344D01*
X136145Y177913D01*
X135947Y178046D01*
Y178647D01*
X136145Y178780D01*
X136526Y179349D01*
X136659Y180020D01*
X136526Y180691D01*
X136145Y181260D01*
X135948Y181392D01*
Y181994D01*
X136145Y182126D01*
X136526Y182695D01*
X136659Y183366D01*
X136526Y184037D01*
X136301Y184374D01*
X136363Y185017D01*
X136506Y185112D01*
X136997Y185847D01*
X137070Y186213D01*
X134846D01*
X132622D01*
X132695Y185847D01*
X133186Y185112D01*
X133329Y185017D01*
X133391Y184374D01*
X133166Y184037D01*
X133033Y183366D01*
X133166Y182695D01*
X133547Y182126D01*
X133744Y181994D01*
Y181392D01*
X133547Y181260D01*
X133166Y180691D01*
X133033Y180020D01*
X133166Y179349D01*
X133547Y178780D01*
X133745Y178647D01*
Y178046D01*
X133547Y177913D01*
X133166Y177344D01*
X133033Y176673D01*
X133126Y176206D01*
X132683Y175894D01*
X131331Y176745D01*
X131212Y177344D01*
X130831Y177913D01*
X130633Y178046D01*
Y178647D01*
X130831Y178780D01*
X131212Y179349D01*
X131345Y180020D01*
X131212Y180691D01*
X130831Y181260D01*
X130634Y181392D01*
Y181994D01*
X130831Y182126D01*
X131212Y182695D01*
X131345Y183366D01*
X131212Y184037D01*
X130987Y184374D01*
X131049Y185017D01*
X131192Y185112D01*
X131683Y185847D01*
X131756Y186213D01*
D02*
G37*
G36*
Y162787D02*
X130032D01*
Y161111D01*
X130457Y161195D01*
X131192Y161686D01*
X131683Y162421D01*
X131756Y162787D01*
D02*
G37*
G36*
X137070D02*
X135346D01*
Y161111D01*
X135771Y161195D01*
X136506Y161686D01*
X136997Y162421D01*
X137070Y162787D01*
D02*
G37*
G36*
X134346D02*
X132622D01*
X132695Y162421D01*
X133186Y161686D01*
X133921Y161195D01*
X134346Y161111D01*
Y162787D01*
D02*
G37*
G36*
X129032D02*
X127308D01*
X127381Y162421D01*
X127872Y161686D01*
X128607Y161195D01*
X129032Y161111D01*
Y162787D01*
D02*
G37*
G36*
X202500Y162723D02*
Y159500D01*
X205722D01*
X205659Y159980D01*
X205281Y160894D01*
X204679Y161679D01*
X203894Y162281D01*
X202980Y162659D01*
X202500Y162723D01*
D02*
G37*
G36*
X201500D02*
X201020Y162659D01*
X200106Y162281D01*
X199321Y161679D01*
X198719Y160894D01*
X198341Y159980D01*
X198277Y159500D01*
X201500D01*
Y162723D01*
D02*
G37*
G36*
X621751Y170403D02*
X621172Y170288D01*
X620681Y169960D01*
X620353Y169469D01*
X620238Y168890D01*
X620353Y168311D01*
X620443Y168176D01*
X617877Y160369D01*
X617430Y160070D01*
X617102Y159579D01*
X616987Y159000D01*
X617102Y158421D01*
X617430Y157930D01*
X617921Y157602D01*
X618500Y157487D01*
X619079Y157602D01*
X619570Y157930D01*
X619898Y158421D01*
X620013Y159000D01*
X619898Y159579D01*
X619808Y159714D01*
X622375Y167521D01*
X622822Y167820D01*
X623149Y168311D01*
X623265Y168890D01*
X623149Y169469D01*
X622822Y169960D01*
X622331Y170288D01*
X621751Y170403D01*
D02*
G37*
G36*
X133941Y160288D02*
X128035D01*
X127149Y160112D01*
X126398Y159610D01*
X125896Y158858D01*
X125719Y157972D01*
X125896Y157086D01*
X126398Y156334D01*
X127149Y155832D01*
X128035Y155656D01*
X133941D01*
X134827Y155832D01*
X135579Y156334D01*
X136081Y157086D01*
X136257Y157972D01*
X136081Y158858D01*
X135579Y159610D01*
X134827Y160112D01*
X133941Y160288D01*
D02*
G37*
G36*
X119256D02*
X116106D01*
X115220Y160112D01*
X114468Y159610D01*
X113966Y158858D01*
X113790Y157972D01*
X113966Y157086D01*
X114468Y156334D01*
X115220Y155832D01*
X116106Y155656D01*
X119256D01*
X120142Y155832D01*
X120894Y156334D01*
X121396Y157086D01*
X121572Y157972D01*
X121396Y158858D01*
X120894Y159610D01*
X120142Y160112D01*
X119256Y160288D01*
D02*
G37*
G36*
X205722Y158500D02*
X202500D01*
Y155278D01*
X202980Y155341D01*
X203894Y155719D01*
X204679Y156321D01*
X205281Y157106D01*
X205659Y158019D01*
X205722Y158500D01*
D02*
G37*
G36*
X201500D02*
X198277D01*
X198341Y158019D01*
X198719Y157106D01*
X199321Y156321D01*
X200106Y155719D01*
X201020Y155341D01*
X201500Y155278D01*
Y158500D01*
D02*
G37*
G36*
X458000Y154513D02*
X457421Y154398D01*
X456930Y154070D01*
X456602Y153579D01*
X456487Y153000D01*
X456602Y152421D01*
X456930Y151930D01*
X457421Y151602D01*
X458000Y151487D01*
X458579Y151602D01*
X459070Y151930D01*
X459398Y152421D01*
X459513Y153000D01*
X459398Y153579D01*
X459070Y154070D01*
X458579Y154398D01*
X458000Y154513D01*
D02*
G37*
G36*
X600500Y165013D02*
X599921Y164898D01*
X599430Y164570D01*
X599102Y164079D01*
X598987Y163500D01*
X599102Y162921D01*
X599430Y162430D01*
X599480Y162396D01*
Y149604D01*
X599430Y149570D01*
X599102Y149079D01*
X598987Y148500D01*
X599102Y147921D01*
X599430Y147430D01*
X599921Y147102D01*
X600500Y146987D01*
X601079Y147102D01*
X601570Y147430D01*
X601898Y147921D01*
X602013Y148500D01*
X601898Y149079D01*
X601570Y149570D01*
X601520Y149604D01*
Y162396D01*
X601570Y162430D01*
X601898Y162921D01*
X602013Y163500D01*
X601898Y164079D01*
X601570Y164570D01*
X601079Y164898D01*
X600500Y165013D01*
D02*
G37*
G36*
X490500Y141513D02*
X489921Y141398D01*
X489430Y141070D01*
X489102Y140579D01*
X488987Y140000D01*
X488999Y139940D01*
X482078Y133020D01*
X442778D01*
X442388Y132942D01*
X442057Y132721D01*
X439543Y130208D01*
X439322Y129877D01*
X439245Y129487D01*
Y125920D01*
X439194Y125886D01*
X438866Y125395D01*
X438751Y124816D01*
X438866Y124237D01*
X439194Y123746D01*
X439685Y123418D01*
X440264Y123302D01*
X440843Y123418D01*
X441334Y123746D01*
X441663Y124237D01*
X441778Y124816D01*
X441663Y125395D01*
X441334Y125886D01*
X441284Y125920D01*
Y129064D01*
X443200Y130980D01*
X482500D01*
X482890Y131058D01*
X483221Y131279D01*
X490440Y138498D01*
X490500Y138487D01*
X491079Y138602D01*
X491570Y138930D01*
X491898Y139421D01*
X492013Y140000D01*
X491898Y140579D01*
X491570Y141070D01*
X491079Y141398D01*
X490500Y141513D01*
D02*
G37*
G36*
X210500Y202020D02*
X185859D01*
X185469Y201942D01*
X185138Y201721D01*
X162677Y179260D01*
X158844D01*
X158810Y179310D01*
X158319Y179638D01*
X157740Y179753D01*
X157161Y179638D01*
X156670Y179310D01*
X156342Y178819D01*
X156227Y178240D01*
X156342Y177661D01*
X156670Y177170D01*
X157161Y176842D01*
X157740Y176727D01*
X158319Y176842D01*
X158810Y177170D01*
X158844Y177221D01*
X162106D01*
X162297Y176759D01*
X157800Y172261D01*
X157740Y172273D01*
X157161Y172158D01*
X156670Y171830D01*
X156342Y171339D01*
X156227Y170760D01*
X156342Y170181D01*
X156670Y169690D01*
X157161Y169362D01*
X157740Y169246D01*
X158319Y169362D01*
X158810Y169690D01*
X159138Y170181D01*
X159254Y170760D01*
X159242Y170819D01*
X186903Y198480D01*
X209456D01*
X227480Y180456D01*
Y142779D01*
X227558Y142388D01*
X227779Y142058D01*
X241980Y127856D01*
Y126000D01*
X242058Y125610D01*
X242279Y125279D01*
X243999Y123560D01*
X243987Y123500D01*
X244102Y122921D01*
X244430Y122430D01*
X244921Y122102D01*
X245500Y121987D01*
X246079Y122102D01*
X246570Y122430D01*
X246898Y122921D01*
X247013Y123500D01*
X246898Y124079D01*
X246570Y124570D01*
X246079Y124898D01*
X245500Y125013D01*
X245440Y125002D01*
X244223Y126219D01*
X244207Y126507D01*
X244220Y126520D01*
X244776Y126699D01*
X244921Y126602D01*
X245500Y126487D01*
X246079Y126602D01*
X246570Y126930D01*
X246898Y127421D01*
X247013Y128000D01*
X246898Y128579D01*
X246570Y129070D01*
X246079Y129398D01*
X245500Y129513D01*
X245357Y129485D01*
X231020Y143822D01*
Y181500D01*
X230942Y181890D01*
X230721Y182221D01*
X211221Y201721D01*
X210890Y201942D01*
X210500Y202020D01*
D02*
G37*
G36*
X487500Y129013D02*
X486921Y128898D01*
X486430Y128570D01*
X486102Y128079D01*
X485987Y127500D01*
X485998Y127440D01*
X482817Y124259D01*
X476140D01*
X475750Y124182D01*
X475419Y123961D01*
X473348Y121890D01*
X470010D01*
Y121667D01*
X469510Y121497D01*
X469461Y121561D01*
X468857Y122024D01*
X468154Y122315D01*
X467900Y122349D01*
Y119500D01*
X466900D01*
Y122349D01*
X466646Y122315D01*
X465943Y122024D01*
X465339Y121561D01*
X465150Y121315D01*
X464650D01*
X464461Y121561D01*
X463857Y122024D01*
X463154Y122315D01*
X462900Y122349D01*
Y119500D01*
X462400D01*
Y119000D01*
X459551D01*
X459585Y118746D01*
X459876Y118043D01*
X460339Y117439D01*
X460943Y116976D01*
X460974Y116421D01*
X460677Y116223D01*
X460158Y115446D01*
X460074Y115432D01*
X459726D01*
X459642Y115446D01*
X459123Y116223D01*
X458332Y116751D01*
X457400Y116937D01*
X456468Y116751D01*
X455677Y116223D01*
X455158Y115446D01*
X455074Y115432D01*
X454726D01*
X454642Y115446D01*
X454123Y116223D01*
X453826Y116421D01*
X453857Y116976D01*
X454461Y117439D01*
X454924Y118043D01*
X455215Y118746D01*
X455249Y119000D01*
X452400D01*
X449551D01*
X449585Y118746D01*
X449876Y118043D01*
X450339Y117439D01*
X450943Y116976D01*
X450974Y116421D01*
X450677Y116223D01*
X450149Y115432D01*
X449963Y114500D01*
X450149Y113568D01*
X450677Y112777D01*
X451468Y112249D01*
X452400Y112063D01*
X453230Y112228D01*
X454869Y110589D01*
X455200Y110368D01*
X455590Y110291D01*
X479310D01*
X479700Y110368D01*
X480031Y110589D01*
X482922Y113480D01*
X500975D01*
X501009Y113430D01*
X501500Y113102D01*
X502079Y112987D01*
X502658Y113102D01*
X503149Y113430D01*
X503477Y113921D01*
X503592Y114500D01*
X503477Y115079D01*
X503149Y115570D01*
X502658Y115898D01*
X502079Y116013D01*
X501500Y115898D01*
X501009Y115570D01*
X500975Y115520D01*
X482500D01*
X482110Y115442D01*
X481779Y115221D01*
X478888Y112330D01*
X474285D01*
X474158Y112830D01*
X474651Y113568D01*
X474837Y114500D01*
X474651Y115432D01*
X474123Y116223D01*
X473543Y116610D01*
X473695Y117110D01*
X474790D01*
Y120448D01*
X476562Y122220D01*
X483240D01*
X483630Y122298D01*
X483961Y122519D01*
X487440Y125998D01*
X487500Y125987D01*
X488079Y126102D01*
X488570Y126430D01*
X488898Y126921D01*
X489013Y127500D01*
X488898Y128079D01*
X488570Y128570D01*
X488079Y128898D01*
X487500Y129013D01*
D02*
G37*
G36*
X452900Y122349D02*
Y120000D01*
X455249D01*
X455215Y120254D01*
X454924Y120957D01*
X454461Y121561D01*
X453857Y122024D01*
X453154Y122315D01*
X452900Y122349D01*
D02*
G37*
G36*
X451900D02*
X451646Y122315D01*
X450943Y122024D01*
X450339Y121561D01*
X449876Y120957D01*
X449585Y120254D01*
X449551Y120000D01*
X451900D01*
Y122349D01*
D02*
G37*
G36*
X461900D02*
X461646Y122315D01*
X460943Y122024D01*
X460339Y121561D01*
X459876Y120957D01*
X459585Y120254D01*
X459551Y120000D01*
X461900D01*
Y122349D01*
D02*
G37*
%LPD*%
D10*
X482500Y114500D02*
X502079D01*
X479310Y111310D02*
X482500Y114500D01*
X442778Y132000D02*
X482500D01*
X440264Y129487D02*
X442778Y132000D01*
X440264Y124816D02*
Y129487D01*
X482500Y132000D02*
X490500Y140000D01*
X228500Y142779D02*
Y180879D01*
X209879Y199500D02*
X228500Y180879D01*
X186480Y199500D02*
X209879D01*
X230000Y143400D02*
X245450Y127950D01*
X230000Y143400D02*
Y181500D01*
X210500Y201000D02*
X230000Y181500D01*
X185859Y201000D02*
X210500D01*
X476140Y123240D02*
X483240D01*
X487500Y127500D01*
X472400Y119500D02*
X476140Y123240D01*
X455590Y111310D02*
X479310D01*
X452400Y114500D02*
X455590Y111310D01*
X228500Y142779D02*
X243000Y128279D01*
Y126000D02*
Y128279D01*
Y126000D02*
X245500Y123500D01*
X245450Y127950D02*
X245500Y128000D01*
X245315Y127815D02*
X245450Y127950D01*
X157740Y170760D02*
X186480Y199500D01*
X163099Y178240D02*
X185859Y201000D01*
X157740Y178240D02*
X163099D01*
X507000Y496153D02*
X513100Y490054D01*
Y487900D02*
Y490054D01*
X507000Y496153D02*
Y498800D01*
X486559Y182500D02*
X486659Y182600D01*
X474000Y182500D02*
X486559D01*
X489941Y213559D02*
Y247500D01*
Y213559D02*
X490000Y213500D01*
X486659Y182600D02*
X486700Y182559D01*
X513000Y150500D02*
Y172000D01*
X504400Y141900D02*
X513000Y150500D01*
X515000Y149000D02*
Y174000D01*
X508000Y142000D02*
X515000Y149000D01*
X508000Y153000D02*
Y164000D01*
X506500Y165500D02*
X508000Y164000D01*
X510284Y152478D02*
Y165500D01*
X505500Y151000D02*
X508806D01*
X510284Y152478D01*
X674000Y367500D02*
X686000D01*
X536500Y225000D02*
X563000D01*
X536500Y227500D02*
X563000D01*
X583000Y488800D02*
Y498000D01*
X560500Y464500D02*
X567000Y471000D01*
X600500Y148500D02*
Y163500D01*
X470000Y296000D02*
X490500D01*
X536500Y222500D02*
X563000D01*
X536500Y220000D02*
X563000D01*
X595000Y488200D02*
Y498200D01*
X481500Y410000D02*
Y420000D01*
X478500Y410000D02*
Y420000D01*
X473000Y293000D02*
X493000D01*
X513000Y275000D02*
X516500Y271500D01*
X143000Y154000D02*
Y157972D01*
X141000Y152000D02*
X143000Y154000D01*
X126000Y152000D02*
X141000D01*
X124000Y154000D02*
X126000Y152000D01*
X124000Y154000D02*
Y168157D01*
X125822Y169980D01*
X129532D01*
X506000Y187000D02*
Y196000D01*
X502441Y186000D02*
Y190000D01*
X502800Y190359D01*
X618500Y159000D02*
X621751Y168890D01*
X502800Y190359D02*
Y194000D01*
X504850Y197150D02*
X506000Y196000D01*
X502800Y197150D02*
X504850D01*
X497000Y448500D02*
X504350D01*
X499500Y451650D02*
X504350D01*
X129532Y176673D02*
X134846Y173327D01*
D11*
X435400Y167000D02*
Y181500D01*
X509039Y235689D02*
X551200D01*
D16*
X510500Y279500D02*
X523500D01*
D80*
X448618Y415689D02*
D03*
Y235689D02*
D03*
X535000Y180500D02*
D03*
Y289000D02*
D03*
Y395000D02*
D03*
D81*
X458618Y415689D02*
D03*
X448618Y405689D02*
D03*
X458618D02*
D03*
Y235689D02*
D03*
X448618Y225689D02*
D03*
X458618D02*
D03*
X246200Y442000D02*
D03*
X236200Y452000D02*
D03*
Y442000D02*
D03*
X226200Y452000D02*
D03*
Y442000D02*
D03*
X525000Y180500D02*
D03*
X535000Y190500D02*
D03*
X525000D02*
D03*
X535000Y200500D02*
D03*
X525000D02*
D03*
X535000Y210500D02*
D03*
X525000D02*
D03*
Y319000D02*
D03*
X535000D02*
D03*
X525000Y309000D02*
D03*
X535000D02*
D03*
X525000Y299000D02*
D03*
X535000D02*
D03*
X525000Y289000D02*
D03*
X535000Y435000D02*
D03*
X525000D02*
D03*
Y425000D02*
D03*
X535000D02*
D03*
X525000Y415000D02*
D03*
X535000D02*
D03*
X525000Y405000D02*
D03*
X535000D02*
D03*
X525000Y395000D02*
D03*
X421000Y189000D02*
D03*
X411000Y199000D02*
D03*
Y189000D02*
D03*
X401000Y199000D02*
D03*
Y189000D02*
D03*
X391000Y199000D02*
D03*
Y189000D02*
D03*
X381000D02*
D03*
Y199000D02*
D03*
X373000Y452000D02*
D03*
Y442000D02*
D03*
X383000D02*
D03*
Y452000D02*
D03*
X393000Y442000D02*
D03*
Y452000D02*
D03*
X403000Y442000D02*
D03*
Y452000D02*
D03*
X413000Y442000D02*
D03*
X301000Y199000D02*
D03*
Y189000D02*
D03*
X311000D02*
D03*
Y199000D02*
D03*
X321000Y189000D02*
D03*
Y199000D02*
D03*
X331000Y189000D02*
D03*
Y199000D02*
D03*
X341000Y189000D02*
D03*
D82*
X134846Y186713D02*
D03*
Y183366D02*
D03*
Y180020D02*
D03*
Y176673D02*
D03*
Y173327D02*
D03*
Y169980D02*
D03*
Y166634D02*
D03*
Y163287D02*
D03*
X129532D02*
D03*
Y166634D02*
D03*
Y169980D02*
D03*
Y173327D02*
D03*
Y176673D02*
D03*
Y180020D02*
D03*
Y183366D02*
D03*
Y186713D02*
D03*
D83*
X130988Y192028D02*
D03*
Y157972D02*
D03*
D84*
X117681D02*
D03*
Y192028D02*
D03*
D85*
X202000Y159000D02*
D03*
Y191000D02*
D03*
X463723Y344000D02*
D03*
X460000Y371000D02*
D03*
X484877D02*
D03*
D86*
X452400Y114500D02*
D03*
Y119500D02*
D03*
X457400Y114500D02*
D03*
X462400D02*
D03*
Y119500D02*
D03*
X467400Y114500D02*
D03*
Y119500D02*
D03*
X472400Y114500D02*
D03*
D87*
Y119500D02*
D03*
D88*
X170000Y475000D02*
D03*
Y485000D02*
D03*
Y495000D02*
D03*
Y505000D02*
D03*
D89*
X246200Y452000D02*
D03*
X421000Y199000D02*
D03*
X413000Y452000D02*
D03*
X341000Y199000D02*
D03*
D90*
X525000Y465000D02*
D03*
X535000D02*
D03*
X525000Y445000D02*
D03*
X535000D02*
D03*
Y455000D02*
D03*
X525000D02*
D03*
X361000Y189000D02*
D03*
Y199000D02*
D03*
X371000D02*
D03*
Y189000D02*
D03*
X351000Y199000D02*
D03*
Y189000D02*
D03*
X343000Y442000D02*
D03*
Y452000D02*
D03*
X363000Y442000D02*
D03*
Y452000D02*
D03*
X353000D02*
D03*
Y442000D02*
D03*
X271000Y189000D02*
D03*
Y199000D02*
D03*
X291000Y189000D02*
D03*
Y199000D02*
D03*
X281000D02*
D03*
Y189000D02*
D03*
D91*
X694000Y374000D02*
D03*
Y389846D02*
D03*
Y410000D02*
D03*
Y430000D02*
D03*
X693252Y449000D02*
D03*
X482300Y119500D02*
D03*
X490100Y127500D02*
D03*
X479421Y114500D02*
D03*
X502079D02*
D03*
X447000Y124899D02*
D03*
X437439Y125000D02*
D03*
X443300Y134331D02*
D03*
X466388Y128712D02*
D03*
X466500Y135819D02*
D03*
X440264Y124816D02*
D03*
X445500Y495500D02*
D03*
Y485500D02*
D03*
Y475500D02*
D03*
X449650Y506142D02*
D03*
X140500Y174500D02*
D03*
X439500Y163371D02*
D03*
X456611Y164264D02*
D03*
X487500Y127500D02*
D03*
X236000Y161000D02*
D03*
X226000D02*
D03*
X216000D02*
D03*
Y171000D02*
D03*
X236000D02*
D03*
X230000Y116000D02*
D03*
Y126000D02*
D03*
X230346Y135576D02*
D03*
X253000Y191000D02*
D03*
Y181000D02*
D03*
Y171000D02*
D03*
X252400Y161000D02*
D03*
Y151000D02*
D03*
Y141000D02*
D03*
X246000D02*
D03*
Y151000D02*
D03*
Y161000D02*
D03*
X245560Y170653D02*
D03*
X210000Y186000D02*
D03*
X220000D02*
D03*
X230000D02*
D03*
X239500D02*
D03*
Y196000D02*
D03*
X229500D02*
D03*
X219500D02*
D03*
X209500Y196196D02*
D03*
X207500Y153000D02*
D03*
X215000D02*
D03*
X225000D02*
D03*
X235000D02*
D03*
Y146000D02*
D03*
X225000D02*
D03*
X215000D02*
D03*
X205000D02*
D03*
X153618Y136000D02*
D03*
Y130689D02*
D03*
X265000Y129000D02*
D03*
X275000D02*
D03*
X285000D02*
D03*
X294500D02*
D03*
X304500D02*
D03*
X314500D02*
D03*
X324500D02*
D03*
X334500D02*
D03*
X344500D02*
D03*
X354500D02*
D03*
X364500D02*
D03*
X374516D02*
D03*
X384500D02*
D03*
X394500D02*
D03*
X404500D02*
D03*
X414500D02*
D03*
X424500D02*
D03*
X255000D02*
D03*
X434000Y122500D02*
D03*
X424000D02*
D03*
X414000D02*
D03*
X404000D02*
D03*
X394000D02*
D03*
X384000D02*
D03*
X374000D02*
D03*
X364000D02*
D03*
X354000D02*
D03*
X344000D02*
D03*
X334000D02*
D03*
X324000D02*
D03*
X314000D02*
D03*
X304000D02*
D03*
X294000D02*
D03*
X284500D02*
D03*
X274500D02*
D03*
X264500D02*
D03*
X254500D02*
D03*
X206618Y130689D02*
D03*
X177020Y146031D02*
D03*
X185000Y146000D02*
D03*
X195000D02*
D03*
X206618Y136000D02*
D03*
X195000Y153000D02*
D03*
X185000D02*
D03*
X174500Y153097D02*
D03*
X170618Y137106D02*
D03*
X180618D02*
D03*
X190618D02*
D03*
X200618D02*
D03*
X157740Y178240D02*
D03*
X159500Y197733D02*
D03*
X313462Y288000D02*
D03*
X206618Y121500D02*
D03*
X153618Y121000D02*
D03*
Y116000D02*
D03*
Y126000D02*
D03*
X206618Y116500D02*
D03*
Y126500D02*
D03*
X161000Y137106D02*
D03*
X235000Y470000D02*
D03*
Y480000D02*
D03*
Y490000D02*
D03*
Y500000D02*
D03*
X246000Y470000D02*
D03*
Y480000D02*
D03*
Y490000D02*
D03*
Y499899D02*
D03*
X481000Y505000D02*
D03*
X491500Y494032D02*
D03*
X510720Y441000D02*
D03*
X474397Y399500D02*
D03*
X488779Y402236D02*
D03*
X463500Y421500D02*
D03*
X473500D02*
D03*
X474397Y410662D02*
D03*
X463500Y411500D02*
D03*
X496000Y407500D02*
D03*
X486000Y417462D02*
D03*
X520900Y284000D02*
D03*
X482618Y285689D02*
D03*
X488280D02*
D03*
X507137Y284000D02*
D03*
X165669Y160000D02*
D03*
Y165000D02*
D03*
X171000Y160000D02*
D03*
Y165000D02*
D03*
Y170000D02*
D03*
X427384Y162319D02*
D03*
X209500Y167000D02*
D03*
Y177240D02*
D03*
X144000Y196196D02*
D03*
X149000D02*
D03*
X154000D02*
D03*
X165669Y170000D02*
D03*
X248500Y113000D02*
D03*
X513100Y487900D02*
D03*
X238200Y457500D02*
D03*
X243200D02*
D03*
X252900Y439100D02*
D03*
X243200Y464500D02*
D03*
X207500Y458000D02*
D03*
X212500D02*
D03*
X202500D02*
D03*
X197500D02*
D03*
X182500Y464500D02*
D03*
X187500Y459500D02*
D03*
X192500Y458000D02*
D03*
X507000Y498800D02*
D03*
X435400Y167000D02*
D03*
X222000Y455000D02*
D03*
X270500Y469147D02*
D03*
X280000Y469000D02*
D03*
X294000Y495200D02*
D03*
X314522Y507000D02*
D03*
X307500Y503000D02*
D03*
X336000Y445928D02*
D03*
X297000Y410000D02*
D03*
X284900Y418500D02*
D03*
X277000Y430000D02*
D03*
X275200Y434400D02*
D03*
X284000Y440000D02*
D03*
X288000Y430000D02*
D03*
X298000Y420000D02*
D03*
X338000Y409000D02*
D03*
X328000D02*
D03*
X318000D02*
D03*
X308000D02*
D03*
X307700Y420000D02*
D03*
X317700D02*
D03*
X327700D02*
D03*
X337700D02*
D03*
X436000D02*
D03*
X427700D02*
D03*
X417700D02*
D03*
X407700D02*
D03*
X397700D02*
D03*
X387700D02*
D03*
X377700D02*
D03*
X367700D02*
D03*
X357700D02*
D03*
X347700D02*
D03*
X274000Y493683D02*
D03*
Y478211D02*
D03*
X508000Y502268D02*
D03*
X266000Y112689D02*
D03*
X289000D02*
D03*
X312000D02*
D03*
X335000D02*
D03*
X358000D02*
D03*
X381000D02*
D03*
X404000D02*
D03*
X427000D02*
D03*
X265500Y143221D02*
D03*
X288500D02*
D03*
X311500D02*
D03*
X334500D02*
D03*
X357500D02*
D03*
X380500D02*
D03*
X403500D02*
D03*
X581670Y468510D02*
D03*
X654100Y475000D02*
D03*
X552500Y231500D02*
D03*
X565500Y242500D02*
D03*
Y232500D02*
D03*
X570500Y237564D02*
D03*
X574000Y242500D02*
D03*
X579000Y247500D02*
D03*
X584000Y252500D02*
D03*
X514421Y220500D02*
D03*
X523000Y226500D02*
D03*
X528000Y231500D02*
D03*
X538000D02*
D03*
Y243000D02*
D03*
X534500Y248000D02*
D03*
X529500Y253000D02*
D03*
X524500Y258000D02*
D03*
X520800Y261980D02*
D03*
X546000Y257500D02*
D03*
X541000Y262500D02*
D03*
X536000Y267500D02*
D03*
X538000Y276000D02*
D03*
X533000D02*
D03*
X528000D02*
D03*
X514000Y294602D02*
D03*
X500500Y298000D02*
D03*
X492000Y300000D02*
D03*
X487000Y305000D02*
D03*
X482000Y310000D02*
D03*
X477000Y315000D02*
D03*
X471896Y320000D02*
D03*
X541500Y174020D02*
D03*
X481449Y400000D02*
D03*
X228200Y464500D02*
D03*
X233200D02*
D03*
X228200Y457500D02*
D03*
X253200D02*
D03*
X248200D02*
D03*
X233200D02*
D03*
X238200Y464500D02*
D03*
X248200D02*
D03*
X253200D02*
D03*
X184500Y474500D02*
D03*
Y479500D02*
D03*
X178500D02*
D03*
Y474500D02*
D03*
X186000Y470000D02*
D03*
X189500Y466500D02*
D03*
X178600Y469500D02*
D03*
X212500Y464000D02*
D03*
X207500D02*
D03*
X202500D02*
D03*
X197500D02*
D03*
X171500Y512000D02*
D03*
X459650Y496000D02*
D03*
X496349Y127719D02*
D03*
X455799Y128045D02*
D03*
X449500Y128000D02*
D03*
X521000Y146000D02*
D03*
Y152500D02*
D03*
X514377Y120000D02*
D03*
X514500Y126000D02*
D03*
Y131000D02*
D03*
X520500Y121000D02*
D03*
Y126000D02*
D03*
Y131000D02*
D03*
Y136000D02*
D03*
X487500Y111000D02*
D03*
X492500D02*
D03*
X497500D02*
D03*
X502500D02*
D03*
X507500D02*
D03*
X508579Y120000D02*
D03*
X501874D02*
D03*
X435400Y181500D02*
D03*
X506986Y218472D02*
D03*
X496349Y217500D02*
D03*
X488858Y188500D02*
D03*
X488543Y194500D02*
D03*
X474397Y173602D02*
D03*
X474000Y182500D02*
D03*
X490000Y213500D02*
D03*
X489941Y247500D02*
D03*
X514370Y268000D02*
D03*
X183000Y163500D02*
D03*
X192000Y173500D02*
D03*
Y184500D02*
D03*
X183000D02*
D03*
X176000Y166000D02*
D03*
X189000Y184500D02*
D03*
Y178500D02*
D03*
Y173500D02*
D03*
Y163500D02*
D03*
Y168500D02*
D03*
X186000Y184500D02*
D03*
Y178500D02*
D03*
Y173500D02*
D03*
Y163500D02*
D03*
Y168500D02*
D03*
X490500Y140000D02*
D03*
X551200Y235689D02*
D03*
X509039D02*
D03*
X433516Y131369D02*
D03*
X506500Y165500D02*
D03*
X157740Y170760D02*
D03*
X245500Y123500D02*
D03*
Y128000D02*
D03*
X454000Y143721D02*
D03*
X446079Y144079D02*
D03*
X458000Y153000D02*
D03*
X513000Y172000D02*
D03*
X515000Y174000D02*
D03*
X508000Y153000D02*
D03*
X505500Y151000D02*
D03*
X630118Y376500D02*
D03*
X657500Y362500D02*
D03*
X670100D02*
D03*
Y375000D02*
D03*
X657500D02*
D03*
X674000Y367500D02*
D03*
X563000Y220000D02*
D03*
Y222500D02*
D03*
Y225000D02*
D03*
Y227500D02*
D03*
X609500Y488000D02*
D03*
X623500Y487953D02*
D03*
Y499500D02*
D03*
X609500D02*
D03*
X583000Y498000D02*
D03*
Y488800D02*
D03*
X567000Y471000D02*
D03*
X560500Y464500D02*
D03*
X686000Y367500D02*
D03*
X600500Y148500D02*
D03*
Y163500D02*
D03*
X143500Y462000D02*
D03*
Y446000D02*
D03*
Y476000D02*
D03*
X192630Y463993D02*
D03*
X203000Y235500D02*
D03*
X173000D02*
D03*
X143000D02*
D03*
X203000Y265500D02*
D03*
X173000D02*
D03*
X143000D02*
D03*
X621000Y352500D02*
D03*
X606000D02*
D03*
X591000D02*
D03*
X576000D02*
D03*
X552500Y355000D02*
D03*
X531685Y356000D02*
D03*
X521227Y352500D02*
D03*
X476500Y364000D02*
D03*
X492823Y369461D02*
D03*
X491930Y384000D02*
D03*
X514000Y369528D02*
D03*
X530500Y369500D02*
D03*
Y384500D02*
D03*
X514227D02*
D03*
X143000Y300500D02*
D03*
X173000D02*
D03*
X203000D02*
D03*
Y330500D02*
D03*
X173000D02*
D03*
X144500Y329500D02*
D03*
X419500Y306500D02*
D03*
X429500D02*
D03*
X449500D02*
D03*
X459500D02*
D03*
X467800D02*
D03*
X419846Y288000D02*
D03*
X429846D02*
D03*
X449847D02*
D03*
X459846D02*
D03*
X468147D02*
D03*
X419846Y298500D02*
D03*
X429846D02*
D03*
X449847D02*
D03*
X459846D02*
D03*
X410800D02*
D03*
X402500D02*
D03*
X392500D02*
D03*
X382500D02*
D03*
X372500D02*
D03*
X362500D02*
D03*
X352500D02*
D03*
X342500D02*
D03*
X332500D02*
D03*
X322500D02*
D03*
X410800Y288000D02*
D03*
X402500D02*
D03*
X392500D02*
D03*
X382500D02*
D03*
X372500D02*
D03*
X362500D02*
D03*
X352500D02*
D03*
X342500D02*
D03*
X332500D02*
D03*
X322500D02*
D03*
X410454Y306500D02*
D03*
X402153D02*
D03*
X392154D02*
D03*
X382154D02*
D03*
X372153D02*
D03*
X362154D02*
D03*
X352153D02*
D03*
X342154D02*
D03*
X332154D02*
D03*
X322153D02*
D03*
X272500Y349000D02*
D03*
X282500Y339000D02*
D03*
X287500Y334000D02*
D03*
X277500Y344000D02*
D03*
X267500Y354000D02*
D03*
X292500Y329000D02*
D03*
X312500Y309000D02*
D03*
X250500Y337000D02*
D03*
X260500Y327000D02*
D03*
X285500Y302000D02*
D03*
X295500Y292000D02*
D03*
X265500Y322000D02*
D03*
X255500Y332000D02*
D03*
X245500Y342000D02*
D03*
X280500Y307000D02*
D03*
X290500Y297000D02*
D03*
X170279Y417000D02*
D03*
X180279Y407000D02*
D03*
X205279Y382000D02*
D03*
X215279Y372000D02*
D03*
X225279Y362000D02*
D03*
X235279Y352000D02*
D03*
X195279Y392000D02*
D03*
X185279Y402000D02*
D03*
X175279Y412000D02*
D03*
X165279Y422000D02*
D03*
X200279Y387000D02*
D03*
X190279Y397000D02*
D03*
X220279Y367000D02*
D03*
X210279Y377000D02*
D03*
X240279Y347000D02*
D03*
X230279Y357000D02*
D03*
X242000Y363000D02*
D03*
X252000Y353000D02*
D03*
X222000Y383000D02*
D03*
X232000Y373000D02*
D03*
X202000Y403000D02*
D03*
X212000Y393000D02*
D03*
X177000Y428000D02*
D03*
X187000Y418000D02*
D03*
X197000Y408000D02*
D03*
X207000Y398000D02*
D03*
X247000Y358000D02*
D03*
X237000Y368000D02*
D03*
X227000Y378000D02*
D03*
X217000Y388000D02*
D03*
X192000Y413000D02*
D03*
X182000Y423000D02*
D03*
X171044Y437000D02*
D03*
Y461000D02*
D03*
X447000Y121500D02*
D03*
X460612Y135819D02*
D03*
X460500Y128712D02*
D03*
X413500Y169000D02*
D03*
X385520D02*
D03*
X366000D02*
D03*
X343000D02*
D03*
X320000D02*
D03*
X297000D02*
D03*
X274000D02*
D03*
X465219Y172980D02*
D03*
Y181500D02*
D03*
X464000Y192000D02*
D03*
X464100Y202241D02*
D03*
X467810Y208500D02*
D03*
X473700Y215000D02*
D03*
X485000Y218000D02*
D03*
X615500Y181500D02*
D03*
X645500D02*
D03*
X646138Y207000D02*
D03*
X614734Y206500D02*
D03*
X564500Y216000D02*
D03*
X577500Y221500D02*
D03*
X587500Y231500D02*
D03*
X597500Y241500D02*
D03*
X606000Y246500D02*
D03*
X616000D02*
D03*
X626000D02*
D03*
X636000D02*
D03*
X646000D02*
D03*
X656000D02*
D03*
X666000D02*
D03*
X676000D02*
D03*
Y261500D02*
D03*
X666000D02*
D03*
X656000D02*
D03*
X646000D02*
D03*
X636000D02*
D03*
X626000D02*
D03*
X616000D02*
D03*
X606000D02*
D03*
X596000D02*
D03*
X588974Y257500D02*
D03*
X508402Y173487D02*
D03*
X514191Y183138D02*
D03*
X538000Y195468D02*
D03*
X535500Y216500D02*
D03*
X533500Y231500D02*
D03*
X487000Y270705D02*
D03*
X499098Y268098D02*
D03*
X552000Y173500D02*
D03*
Y183500D02*
D03*
Y193500D02*
D03*
Y203500D02*
D03*
Y213500D02*
D03*
X550500Y268500D02*
D03*
Y282500D02*
D03*
Y301000D02*
D03*
Y314500D02*
D03*
X490500Y296000D02*
D03*
X584500Y153000D02*
D03*
X574500D02*
D03*
X547000D02*
D03*
X539500D02*
D03*
X554500D02*
D03*
X564500D02*
D03*
X584500Y162500D02*
D03*
X574500D02*
D03*
X555500D02*
D03*
X564500D02*
D03*
X547000D02*
D03*
X539500D02*
D03*
X520800Y164264D02*
D03*
X502500Y163913D02*
D03*
X494946Y163371D02*
D03*
X426000Y209000D02*
D03*
X416000D02*
D03*
X396000D02*
D03*
X376000D02*
D03*
X356000D02*
D03*
X336000D02*
D03*
X316000D02*
D03*
X295882Y208800D02*
D03*
X486700Y182559D02*
D03*
X536500Y225000D02*
D03*
Y220000D02*
D03*
Y222500D02*
D03*
Y227500D02*
D03*
X595000Y498200D02*
D03*
Y488200D02*
D03*
X526342Y239100D02*
D03*
X490200Y180000D02*
D03*
X504400Y141900D02*
D03*
X508000Y142000D02*
D03*
X475988Y378000D02*
D03*
X510284Y165500D02*
D03*
X478500Y410000D02*
D03*
X481500D02*
D03*
Y420000D02*
D03*
X478500D02*
D03*
X514500Y136000D02*
D03*
X470000Y296000D02*
D03*
X473000Y293000D02*
D03*
X523500Y279500D02*
D03*
X510500D02*
D03*
X493000Y293000D02*
D03*
X516500Y271500D02*
D03*
X513000Y275000D02*
D03*
X348000Y409000D02*
D03*
X358000D02*
D03*
X368000D02*
D03*
X378000D02*
D03*
X388000D02*
D03*
X398000D02*
D03*
X408000D02*
D03*
X418000D02*
D03*
X428000D02*
D03*
X436300D02*
D03*
X601000Y411000D02*
D03*
X611000D02*
D03*
X621000D02*
D03*
X631000D02*
D03*
Y399500D02*
D03*
X621000D02*
D03*
X611000D02*
D03*
X600850D02*
D03*
X679500Y382000D02*
D03*
X678000Y404347D02*
D03*
X675000Y439000D02*
D03*
X675260Y449000D02*
D03*
X665000Y419000D02*
D03*
Y439000D02*
D03*
Y449000D02*
D03*
X571000Y436000D02*
D03*
Y446000D02*
D03*
X571304Y456200D02*
D03*
X550400Y371400D02*
D03*
Y381400D02*
D03*
Y391400D02*
D03*
Y401400D02*
D03*
Y411400D02*
D03*
Y421400D02*
D03*
Y431400D02*
D03*
Y441400D02*
D03*
Y451400D02*
D03*
X549900Y461800D02*
D03*
X509500Y420000D02*
D03*
X455000Y498500D02*
D03*
X463000Y504769D02*
D03*
X471000D02*
D03*
X489868Y503000D02*
D03*
X495260Y497621D02*
D03*
X463000Y493000D02*
D03*
X461900Y466759D02*
D03*
X479357Y462493D02*
D03*
X524000Y488494D02*
D03*
X513100Y463300D02*
D03*
X498151Y485100D02*
D03*
X486283Y491248D02*
D03*
X471000Y493063D02*
D03*
X453236Y425418D02*
D03*
Y435418D02*
D03*
Y445418D02*
D03*
Y455418D02*
D03*
X445500Y465418D02*
D03*
Y455418D02*
D03*
Y445418D02*
D03*
Y435418D02*
D03*
Y425418D02*
D03*
X264000Y360000D02*
D03*
Y370000D02*
D03*
Y380000D02*
D03*
Y390000D02*
D03*
Y400000D02*
D03*
Y410000D02*
D03*
Y420000D02*
D03*
X255000Y360000D02*
D03*
Y370049D02*
D03*
Y380000D02*
D03*
Y390000D02*
D03*
Y400000D02*
D03*
Y410000D02*
D03*
Y420000D02*
D03*
X251523Y430000D02*
D03*
X273935Y456350D02*
D03*
X265379Y438800D02*
D03*
X181000Y500828D02*
D03*
X465942Y475100D02*
D03*
X466000Y485400D02*
D03*
X143000Y157972D02*
D03*
X506000Y187000D02*
D03*
X502441Y186000D02*
D03*
X618500Y159000D02*
D03*
X502800Y197150D02*
D03*
Y194000D02*
D03*
X494984Y351516D02*
D03*
X496349Y328484D02*
D03*
X490000Y359000D02*
D03*
X467800Y333500D02*
D03*
X505800Y463200D02*
D03*
X585200Y399300D02*
D03*
X586800Y386900D02*
D03*
X486500Y247625D02*
D03*
X458400Y253200D02*
D03*
X458300Y267559D02*
D03*
X499500Y451650D02*
D03*
X497000Y448500D02*
D03*
X504350D02*
D03*
Y451650D02*
D03*
X643500Y324181D02*
D03*
X643600Y305400D02*
D03*
X643800Y284900D02*
D03*
X558000Y334839D02*
D03*
X560500Y298500D02*
D03*
X561500Y309943D02*
D03*
X654000Y171500D02*
D03*
X621751Y168890D02*
D03*
M02*
