G04*
G04 #@! TF.GenerationSoftware,Altium Limited,Altium Designer,18.1.6 (161)*
G04*
G04 Layer_Color=8388736*
%FSLAX25Y25*%
%MOIN*%
G70*
G01*
G75*
%ADD39O,0.07887X0.02572*%
%ADD40R,0.03162X0.03162*%
%ADD41R,0.03162X0.03162*%
%ADD42R,0.07099X0.02375*%
G04:AMPARAMS|DCode=43|XSize=23.75mil|YSize=41.47mil|CornerRadius=7.94mil|HoleSize=0mil|Usage=FLASHONLY|Rotation=180.000|XOffset=0mil|YOffset=0mil|HoleType=Round|Shape=RoundedRectangle|*
%AMROUNDEDRECTD43*
21,1,0.02375,0.02559,0,0,180.0*
21,1,0.00787,0.04147,0,0,180.0*
1,1,0.01587,-0.00394,0.01280*
1,1,0.01587,0.00394,0.01280*
1,1,0.01587,0.00394,-0.01280*
1,1,0.01587,-0.00394,-0.01280*
%
%ADD43ROUNDEDRECTD43*%
%ADD44R,0.05918X0.06706*%
G04:AMPARAMS|DCode=45|XSize=51.31mil|YSize=47.37mil|CornerRadius=0mil|HoleSize=0mil|Usage=FLASHONLY|Rotation=150.000|XOffset=0mil|YOffset=0mil|HoleType=Round|Shape=Rectangle|*
%AMROTATEDRECTD45*
4,1,4,0.03406,0.00769,0.01037,-0.03334,-0.03406,-0.00769,-0.01037,0.03334,0.03406,0.00769,0.0*
%
%ADD45ROTATEDRECTD45*%

G04:AMPARAMS|DCode=46|XSize=51.31mil|YSize=47.37mil|CornerRadius=0mil|HoleSize=0mil|Usage=FLASHONLY|Rotation=120.000|XOffset=0mil|YOffset=0mil|HoleType=Round|Shape=Rectangle|*
%AMROTATEDRECTD46*
4,1,4,0.03334,-0.01037,-0.00769,-0.03406,-0.03334,0.01037,0.00769,0.03406,0.03334,-0.01037,0.0*
%
%ADD46ROTATEDRECTD46*%

%ADD47R,0.04737X0.05131*%
G04:AMPARAMS|DCode=48|XSize=51.31mil|YSize=47.37mil|CornerRadius=0mil|HoleSize=0mil|Usage=FLASHONLY|Rotation=60.000|XOffset=0mil|YOffset=0mil|HoleType=Round|Shape=Rectangle|*
%AMROTATEDRECTD48*
4,1,4,0.00769,-0.03406,-0.03334,-0.01037,-0.00769,0.03406,0.03334,0.01037,0.00769,-0.03406,0.0*
%
%ADD48ROTATEDRECTD48*%

G04:AMPARAMS|DCode=49|XSize=51.31mil|YSize=47.37mil|CornerRadius=0mil|HoleSize=0mil|Usage=FLASHONLY|Rotation=30.000|XOffset=0mil|YOffset=0mil|HoleType=Round|Shape=Rectangle|*
%AMROTATEDRECTD49*
4,1,4,-0.01037,-0.03334,-0.03406,0.00769,0.01037,0.03334,0.03406,-0.00769,-0.01037,-0.03334,0.0*
%
%ADD49ROTATEDRECTD49*%

%ADD50R,0.05131X0.04737*%
%ADD51R,0.11430X0.07099*%
G04:AMPARAMS|DCode=52|XSize=23.75mil|YSize=41.47mil|CornerRadius=7.94mil|HoleSize=0mil|Usage=FLASHONLY|Rotation=270.000|XOffset=0mil|YOffset=0mil|HoleType=Round|Shape=RoundedRectangle|*
%AMROUNDEDRECTD52*
21,1,0.02375,0.02559,0,0,270.0*
21,1,0.00787,0.04147,0,0,270.0*
1,1,0.01587,-0.01280,-0.00394*
1,1,0.01587,-0.01280,0.00394*
1,1,0.01587,0.01280,0.00394*
1,1,0.01587,0.01280,-0.00394*
%
%ADD52ROUNDEDRECTD52*%
%ADD53O,0.02965X0.07296*%
%ADD54O,0.07296X0.02965*%
%ADD55R,0.03800X0.04800*%
%ADD56R,0.04800X0.03800*%
%ADD57R,0.05524X0.06312*%
%ADD58R,0.06706X0.06706*%
%ADD59C,0.06706*%
%ADD60C,0.06800*%
%ADD61O,0.03359X0.03241*%
%ADD62O,0.10249X0.04343*%
%ADD63O,0.07493X0.04343*%
%ADD64C,0.06706*%
%ADD65R,0.06706X0.06706*%
%ADD66R,0.04580X0.04580*%
%ADD67C,0.04580*%
D39*
X484014Y288775D02*
D03*
Y286216D02*
D03*
X484014Y283657D02*
D03*
Y281098D02*
D03*
Y278539D02*
D03*
Y275979D02*
D03*
Y273421D02*
D03*
Y270861D02*
D03*
Y268302D02*
D03*
Y265743D02*
D03*
Y263184D02*
D03*
Y260625D02*
D03*
X510786Y288775D02*
D03*
Y286216D02*
D03*
Y283657D02*
D03*
Y281098D02*
D03*
Y278539D02*
D03*
Y275979D02*
D03*
Y273421D02*
D03*
Y270861D02*
D03*
X510786Y268302D02*
D03*
Y265743D02*
D03*
X510786Y263184D02*
D03*
Y260625D02*
D03*
X502614Y468269D02*
D03*
Y465709D02*
D03*
Y463151D02*
D03*
Y460591D02*
D03*
Y458032D02*
D03*
Y455473D02*
D03*
Y452914D02*
D03*
Y450355D02*
D03*
Y447796D02*
D03*
Y445237D02*
D03*
Y442678D02*
D03*
Y440119D02*
D03*
X529386Y468269D02*
D03*
Y465709D02*
D03*
Y463151D02*
D03*
Y460591D02*
D03*
Y458032D02*
D03*
Y455473D02*
D03*
Y452914D02*
D03*
Y450355D02*
D03*
Y447796D02*
D03*
Y445237D02*
D03*
Y442678D02*
D03*
Y440119D02*
D03*
D40*
X638000Y208000D02*
D03*
X641150D02*
D03*
X644299D02*
D03*
X647449D02*
D03*
Y202882D02*
D03*
X644299D02*
D03*
X641150D02*
D03*
X638000D02*
D03*
X485331Y372882D02*
D03*
X488481D02*
D03*
X491630D02*
D03*
X494780D02*
D03*
Y378000D02*
D03*
X491630D02*
D03*
X488481D02*
D03*
X485331D02*
D03*
D41*
X593000Y242899D02*
D03*
X593000Y239750D02*
D03*
Y236600D02*
D03*
X593000Y233450D02*
D03*
X587882Y233450D02*
D03*
Y236600D02*
D03*
X587882Y239750D02*
D03*
X587882Y242899D02*
D03*
X559000Y233450D02*
D03*
Y236600D02*
D03*
Y239750D02*
D03*
Y242899D02*
D03*
X564118D02*
D03*
Y239750D02*
D03*
Y236600D02*
D03*
Y233450D02*
D03*
X620441Y308138D02*
D03*
Y304988D02*
D03*
Y301839D02*
D03*
Y298689D02*
D03*
X625559D02*
D03*
Y301839D02*
D03*
Y304988D02*
D03*
Y308138D02*
D03*
X620459Y322287D02*
D03*
Y319138D02*
D03*
Y315988D02*
D03*
Y312839D02*
D03*
X625577D02*
D03*
Y315988D02*
D03*
Y319138D02*
D03*
Y322287D02*
D03*
X465000Y357547D02*
D03*
Y354398D02*
D03*
Y351248D02*
D03*
Y348098D02*
D03*
X470118D02*
D03*
Y351248D02*
D03*
Y354398D02*
D03*
Y357547D02*
D03*
X531618Y481550D02*
D03*
Y484700D02*
D03*
Y487850D02*
D03*
Y490999D02*
D03*
X526500D02*
D03*
Y487850D02*
D03*
Y484700D02*
D03*
Y481550D02*
D03*
X531000Y416201D02*
D03*
Y419350D02*
D03*
Y422500D02*
D03*
Y425650D02*
D03*
X525882D02*
D03*
Y422500D02*
D03*
Y419350D02*
D03*
Y416201D02*
D03*
X306618Y465339D02*
D03*
Y462189D02*
D03*
Y459039D02*
D03*
Y455890D02*
D03*
X311736D02*
D03*
Y459039D02*
D03*
Y462189D02*
D03*
Y465339D02*
D03*
X281390Y470689D02*
D03*
Y473839D02*
D03*
Y476988D02*
D03*
Y480138D02*
D03*
X276272D02*
D03*
Y476988D02*
D03*
Y473839D02*
D03*
Y470689D02*
D03*
X281390Y455890D02*
D03*
Y459039D02*
D03*
Y462189D02*
D03*
Y465339D02*
D03*
X276272D02*
D03*
Y462189D02*
D03*
Y459039D02*
D03*
Y455890D02*
D03*
X306618Y480138D02*
D03*
Y476988D02*
D03*
Y473839D02*
D03*
Y470689D02*
D03*
X311736D02*
D03*
Y473839D02*
D03*
Y476988D02*
D03*
Y480138D02*
D03*
X456622Y274272D02*
D03*
Y277421D02*
D03*
Y280571D02*
D03*
Y283720D02*
D03*
X451504D02*
D03*
Y280571D02*
D03*
Y277421D02*
D03*
Y274272D02*
D03*
X456622Y260539D02*
D03*
Y263689D02*
D03*
Y266839D02*
D03*
Y269988D02*
D03*
X451504D02*
D03*
Y266839D02*
D03*
Y263689D02*
D03*
Y260539D02*
D03*
D42*
X501780Y228248D02*
D03*
Y225689D02*
D03*
Y223130D02*
D03*
Y220571D02*
D03*
Y218012D02*
D03*
X501780Y215453D02*
D03*
X501780Y212894D02*
D03*
Y210334D02*
D03*
Y207775D02*
D03*
Y205216D02*
D03*
X524221Y228248D02*
D03*
Y225689D02*
D03*
Y223130D02*
D03*
Y220571D02*
D03*
Y218012D02*
D03*
Y215453D02*
D03*
Y212893D02*
D03*
Y210334D02*
D03*
Y207775D02*
D03*
Y205216D02*
D03*
X504220Y336484D02*
D03*
Y339043D02*
D03*
Y341602D02*
D03*
Y344161D02*
D03*
Y346721D02*
D03*
Y349279D02*
D03*
Y351839D02*
D03*
Y354398D02*
D03*
Y356957D02*
D03*
Y359516D02*
D03*
X481779Y336484D02*
D03*
Y339043D02*
D03*
Y341602D02*
D03*
Y344161D02*
D03*
Y346721D02*
D03*
Y349279D02*
D03*
Y351839D02*
D03*
Y354398D02*
D03*
Y356957D02*
D03*
Y359516D02*
D03*
X262839Y451173D02*
D03*
Y453732D02*
D03*
Y456291D02*
D03*
Y458850D02*
D03*
Y461410D02*
D03*
Y463969D02*
D03*
Y466528D02*
D03*
Y469087D02*
D03*
Y471646D02*
D03*
Y474205D02*
D03*
X240398Y451173D02*
D03*
Y453732D02*
D03*
Y456291D02*
D03*
Y458850D02*
D03*
Y461410D02*
D03*
Y463969D02*
D03*
Y466528D02*
D03*
Y469087D02*
D03*
Y471646D02*
D03*
Y474205D02*
D03*
D43*
X572441Y237429D02*
D03*
X575000D02*
D03*
X577559D02*
D03*
Y228571D02*
D03*
X575000D02*
D03*
X572441D02*
D03*
D44*
X516840Y236900D02*
D03*
X509360D02*
D03*
X253193Y442000D02*
D03*
X245713D02*
D03*
X505260Y368000D02*
D03*
X512740D02*
D03*
X512760Y476000D02*
D03*
X520240D02*
D03*
X494878Y296689D02*
D03*
X502358D02*
D03*
D45*
X664898Y227236D02*
D03*
X659102Y230582D02*
D03*
X621102Y164764D02*
D03*
X626898Y161418D02*
D03*
D46*
X677582Y212102D02*
D03*
X674236Y217898D02*
D03*
X608418Y179898D02*
D03*
X611764Y174102D02*
D03*
D47*
X681000Y192654D02*
D03*
Y199346D02*
D03*
X605000Y199346D02*
D03*
X605000Y192654D02*
D03*
X203000Y169374D02*
D03*
Y176067D02*
D03*
X169000Y169374D02*
D03*
Y176067D02*
D03*
X155000Y169374D02*
D03*
Y176067D02*
D03*
X650000Y310154D02*
D03*
Y316846D02*
D03*
Y296847D02*
D03*
Y290154D02*
D03*
X690000Y296847D02*
D03*
Y290154D02*
D03*
Y316846D02*
D03*
Y310154D02*
D03*
X650000Y330153D02*
D03*
Y336846D02*
D03*
X690000Y330153D02*
D03*
Y336846D02*
D03*
X670000Y316846D02*
D03*
Y310154D02*
D03*
X675000Y405847D02*
D03*
Y399154D02*
D03*
X670000Y405847D02*
D03*
Y399154D02*
D03*
X680000D02*
D03*
Y405847D02*
D03*
X663500Y384154D02*
D03*
Y390846D02*
D03*
X591500Y419846D02*
D03*
Y413154D02*
D03*
X680000Y387154D02*
D03*
Y393847D02*
D03*
X675000Y387154D02*
D03*
Y393847D02*
D03*
X670000Y387154D02*
D03*
Y393847D02*
D03*
D48*
X674236Y174102D02*
D03*
X677582Y179898D02*
D03*
X611764Y217898D02*
D03*
X608418Y212102D02*
D03*
D49*
X659102Y161418D02*
D03*
X664898Y164764D02*
D03*
X626898Y230582D02*
D03*
X621102Y227236D02*
D03*
D50*
X639653Y158000D02*
D03*
X646347Y158000D02*
D03*
X646347Y234000D02*
D03*
X639653D02*
D03*
X677347Y461500D02*
D03*
X670653D02*
D03*
X414894Y171689D02*
D03*
X421587D02*
D03*
X401587D02*
D03*
X394894D02*
D03*
X374894D02*
D03*
X381587D02*
D03*
X341587D02*
D03*
X334894D02*
D03*
X314894D02*
D03*
X321587D02*
D03*
X301587D02*
D03*
X294894D02*
D03*
X430272Y506689D02*
D03*
X436965D02*
D03*
X421965D02*
D03*
X415272D02*
D03*
X400272D02*
D03*
X406965D02*
D03*
X391965D02*
D03*
X385272D02*
D03*
X370272D02*
D03*
X376965D02*
D03*
X361965D02*
D03*
X355272D02*
D03*
X340272D02*
D03*
X346965D02*
D03*
X331965D02*
D03*
X325272D02*
D03*
X276272Y171689D02*
D03*
X282965D02*
D03*
X361587D02*
D03*
X354894D02*
D03*
X677347Y456500D02*
D03*
X670653D02*
D03*
Y466500D02*
D03*
X677347D02*
D03*
X604347Y413000D02*
D03*
X597653D02*
D03*
X689347Y466500D02*
D03*
X682654D02*
D03*
X689347Y461500D02*
D03*
X682654D02*
D03*
X689347Y456500D02*
D03*
X682654D02*
D03*
X656653Y378000D02*
D03*
X663346D02*
D03*
X282965Y176689D02*
D03*
X276272D02*
D03*
X301587D02*
D03*
X294894D02*
D03*
X321587Y176622D02*
D03*
X314894D02*
D03*
X341587Y176689D02*
D03*
X334894D02*
D03*
X361587D02*
D03*
X354894D02*
D03*
X381587D02*
D03*
X374894D02*
D03*
X401587D02*
D03*
X394894D02*
D03*
X421587D02*
D03*
X414894D02*
D03*
X457772Y159555D02*
D03*
X464465D02*
D03*
X325272Y501689D02*
D03*
X331965D02*
D03*
X340272D02*
D03*
X346965D02*
D03*
X355272D02*
D03*
X361965D02*
D03*
X370272D02*
D03*
X376965D02*
D03*
X385272D02*
D03*
X391965D02*
D03*
X400272D02*
D03*
X406965D02*
D03*
X415272D02*
D03*
X421965D02*
D03*
X430272D02*
D03*
X436965D02*
D03*
X518272Y163878D02*
D03*
X524965D02*
D03*
X518272Y158878D02*
D03*
X524965D02*
D03*
X457772Y132878D02*
D03*
X464465D02*
D03*
X464465Y154378D02*
D03*
X457772D02*
D03*
D51*
X188000Y162209D02*
D03*
Y173232D02*
D03*
D52*
X493929Y322134D02*
D03*
Y324693D02*
D03*
Y327252D02*
D03*
X485071D02*
D03*
Y324693D02*
D03*
Y322134D02*
D03*
X490929Y460559D02*
D03*
Y458000D02*
D03*
Y455441D02*
D03*
X482071D02*
D03*
Y458000D02*
D03*
Y460559D02*
D03*
X490929Y450059D02*
D03*
Y447500D02*
D03*
Y444941D02*
D03*
X482071D02*
D03*
Y447500D02*
D03*
Y450059D02*
D03*
X476547Y270850D02*
D03*
Y268291D02*
D03*
Y265732D02*
D03*
X467689D02*
D03*
Y268291D02*
D03*
Y270850D02*
D03*
X476547Y281087D02*
D03*
Y278528D02*
D03*
Y275969D02*
D03*
X467689D02*
D03*
Y278528D02*
D03*
Y281087D02*
D03*
X299547Y464748D02*
D03*
Y462189D02*
D03*
Y459630D02*
D03*
X290689D02*
D03*
Y462189D02*
D03*
Y464748D02*
D03*
X299547Y479547D02*
D03*
Y476988D02*
D03*
Y474429D02*
D03*
X290689D02*
D03*
Y476988D02*
D03*
Y479547D02*
D03*
D53*
X479095Y168413D02*
D03*
X482244D02*
D03*
X485394D02*
D03*
X488543D02*
D03*
X491693D02*
D03*
X494843D02*
D03*
X497992D02*
D03*
X501142D02*
D03*
Y135343D02*
D03*
X497992D02*
D03*
X494843D02*
D03*
X491693D02*
D03*
X488543D02*
D03*
X485394D02*
D03*
X482244D02*
D03*
X479095D02*
D03*
D54*
X506654Y162902D02*
D03*
Y159752D02*
D03*
Y156602D02*
D03*
Y153453D02*
D03*
Y150303D02*
D03*
Y147154D02*
D03*
Y144004D02*
D03*
Y140854D02*
D03*
X473583D02*
D03*
Y144004D02*
D03*
Y147154D02*
D03*
Y150303D02*
D03*
Y153453D02*
D03*
Y156602D02*
D03*
Y159752D02*
D03*
Y162902D02*
D03*
D55*
X598618Y400311D02*
D03*
X613382D02*
D03*
Y376689D02*
D03*
X598618D02*
D03*
X663882Y488311D02*
D03*
X649118D02*
D03*
Y464689D02*
D03*
X663882D02*
D03*
X390500Y112878D02*
D03*
X375736D02*
D03*
Y136500D02*
D03*
X390500D02*
D03*
X367500D02*
D03*
X352736D02*
D03*
Y112878D02*
D03*
X367500D02*
D03*
X298500D02*
D03*
X283736D02*
D03*
Y136500D02*
D03*
X298500D02*
D03*
X275500D02*
D03*
X260736D02*
D03*
Y112878D02*
D03*
X275500D02*
D03*
X321500D02*
D03*
X306736D02*
D03*
Y136500D02*
D03*
X321500D02*
D03*
X344500D02*
D03*
X329736D02*
D03*
Y112878D02*
D03*
X344500D02*
D03*
X413500D02*
D03*
X398736D02*
D03*
Y136500D02*
D03*
X413500D02*
D03*
X436500D02*
D03*
X421736D02*
D03*
Y112878D02*
D03*
X436500D02*
D03*
D56*
X613811Y463118D02*
D03*
Y477882D02*
D03*
X590189D02*
D03*
Y463118D02*
D03*
X701811Y427382D02*
D03*
Y412618D02*
D03*
X678189D02*
D03*
Y427382D02*
D03*
D57*
X457969Y147709D02*
D03*
X464268D02*
D03*
Y139047D02*
D03*
X457969D02*
D03*
D58*
X557700Y181200D02*
D03*
X552459Y298839D02*
D03*
X552500Y396500D02*
D03*
X448618Y415689D02*
D03*
Y235689D02*
D03*
D59*
X547700Y181200D02*
D03*
X557700Y191200D02*
D03*
X547700D02*
D03*
X557700Y201200D02*
D03*
X547700D02*
D03*
X557700Y211200D02*
D03*
X547700D02*
D03*
X542459Y328839D02*
D03*
X552459D02*
D03*
X542459Y318839D02*
D03*
X552459D02*
D03*
X542459Y308839D02*
D03*
X552459D02*
D03*
X542459Y298839D02*
D03*
X552500Y436500D02*
D03*
X542500D02*
D03*
Y426500D02*
D03*
X552500D02*
D03*
X542500Y416500D02*
D03*
X552500D02*
D03*
X542500Y406500D02*
D03*
X552500D02*
D03*
X542500Y396500D02*
D03*
X423618Y188689D02*
D03*
X413618Y198689D02*
D03*
Y188689D02*
D03*
X403618Y198689D02*
D03*
Y188689D02*
D03*
X393618Y198689D02*
D03*
Y188689D02*
D03*
X383618D02*
D03*
Y198689D02*
D03*
X376118Y451689D02*
D03*
Y441689D02*
D03*
X386118D02*
D03*
Y451689D02*
D03*
X396118Y441689D02*
D03*
Y451689D02*
D03*
X406118Y441689D02*
D03*
Y451689D02*
D03*
X416118Y441689D02*
D03*
X303618Y198689D02*
D03*
Y188689D02*
D03*
X313618D02*
D03*
Y198689D02*
D03*
X323618Y188689D02*
D03*
Y198689D02*
D03*
X333618Y188689D02*
D03*
Y198689D02*
D03*
X343618Y188689D02*
D03*
X458618Y415689D02*
D03*
X448618Y405689D02*
D03*
X458618D02*
D03*
Y235689D02*
D03*
X448618Y225689D02*
D03*
X458618D02*
D03*
D60*
X129618Y495689D02*
D03*
X697618Y125689D02*
D03*
X129618D02*
D03*
X697618Y495689D02*
D03*
D61*
X134846Y180713D02*
D03*
Y177366D02*
D03*
Y174020D02*
D03*
Y170673D02*
D03*
Y167327D02*
D03*
Y163980D02*
D03*
Y160634D02*
D03*
Y157287D02*
D03*
X129532D02*
D03*
Y160634D02*
D03*
Y163980D02*
D03*
Y167327D02*
D03*
Y170673D02*
D03*
Y174020D02*
D03*
Y177366D02*
D03*
Y180713D02*
D03*
D62*
X130988Y186028D02*
D03*
Y151972D02*
D03*
D63*
X117681D02*
D03*
Y186028D02*
D03*
D64*
X542500Y466500D02*
D03*
X552500D02*
D03*
X542500Y446500D02*
D03*
X552500D02*
D03*
Y456500D02*
D03*
X542500D02*
D03*
X363618Y188689D02*
D03*
Y198689D02*
D03*
X373618D02*
D03*
Y188689D02*
D03*
X353618Y198689D02*
D03*
Y188689D02*
D03*
X346118Y441689D02*
D03*
Y451689D02*
D03*
X366118Y441689D02*
D03*
Y451689D02*
D03*
X356118D02*
D03*
Y441689D02*
D03*
X273618Y188689D02*
D03*
Y198689D02*
D03*
X293618Y188689D02*
D03*
Y198689D02*
D03*
X283618D02*
D03*
Y188689D02*
D03*
D65*
X423618Y198689D02*
D03*
X416118Y451689D02*
D03*
X343618Y198689D02*
D03*
D66*
X503000Y119000D02*
D03*
D67*
Y114000D02*
D03*
X498000Y119000D02*
D03*
Y114000D02*
D03*
X493000Y119000D02*
D03*
Y114000D02*
D03*
X488000D02*
D03*
X483000Y119000D02*
D03*
Y114000D02*
D03*
M02*
